<?xml version="1.0" encoding="UTF-8"?>
<svg width="294.58" height="376.11" version="1.1" viewBox="0 0 77.942 99.511" xmlns="http://www.w3.org/2000/svg" xmlns:cc="http://creativecommons.org/ns#" xmlns:dc="http://purl.org/dc/elements/1.1/" xmlns:rdf="http://www.w3.org/1999/02/22-rdf-syntax-ns#">
<metadata>
<rdf:RDF>
<cc:Work rdf:about="">
<dc:format>image/svg+xml</dc:format>
<dc:type rdf:resource="http://purl.org/dc/dcmitype/StillImage"/>
<dc:title/>
</cc:Work>
</rdf:RDF>
</metadata>
<g transform="translate(-63.839 -36.334)">
<path d="m70.396 62.399c3.0593 2.3629 7.8819-0.82086 11.091-0.26866 19.087 3.2849 37.498-0.50804 45.146-0.903 1.0225-0.0528 3.9486-9e-3 6.0051-0.0705 2.1053-0.0628 3.2488 0.0866 3.2488 0.0866s-0.0766 6.5333-0.71212 25.442l0.46328 7.41-0.87747 8.2679-2.0786 9.1475s-1.4813 4.5964-3.3344 6.2648c0 0-3.1147 3.6124-7.1298 5.2808-3.089 2.2465-6.4363 5.8502-8.9144 8.7446-4.5938 4.3634-8.1658 3.563-14.086 3.2584-4.7447-1.7784-6.3036-3.7595-9.8278-7.3032l-5.4599-4.8314-4.4771-3.9325-2.808-2.6141-3.307-4.1274-2.1606-4.7677-1.3205-3.3919-0.65518-10.786 0.90794-11.11z" fill="#f5d1a7" stroke="#000" stroke-width="1.0485"/>
<path d="m103.37 91.52s2.1294 8.1459 1.8564 9.7751c-0.0298 0.17578-0.27258 1.1013-0.27258 1.1013s-1.3704-0.27932-2.1153-0.26619" fill="none" stroke="#000" stroke-width=".79986"/>
<ellipse cx="114.86" cy="91.501" rx="4.0924" ry="5.5217" stroke="#000" stroke-opacity=".99216" stroke-width=".71698"/>
<ellipse cx="91.946" cy="91.501" rx="4.0924" ry="5.5217" stroke="#000" stroke-opacity=".99216" stroke-width=".71698"/>
<ellipse cx="115.02" cy="91.183" rx="1.4671" ry="2.3437" fill="#fff" stroke="#fff" stroke-opacity=".99216" stroke-width=".71698"/>
<ellipse cx="92.1" cy="91.183" rx="1.4671" ry="2.3437" fill="#fff" stroke="#fff" stroke-opacity=".99216" stroke-width=".71698"/>
<path d="m84.127 80.135h9.7186c0.58983 0 1.0647 0.26935 1.0647 0.60392s-0.47485 0.60392-1.0647 0.60392h-9.7186c-0.58983 0-1.0647-0.26935-1.0647-0.60392s0.47484-0.60392 1.0647-0.60392z" stroke="#000" stroke-opacity=".99216" stroke-width=".71698"/>
<path d="m111.37 80.135h9.7186c0.58983 0 1.0647 0.26935 1.0647 0.60392s-0.47484 0.60392-1.0647 0.60392h-9.7186c-0.58984 0-1.0647-0.26935-1.0647-0.60392s0.47485-0.60392 1.0647-0.60392z" stroke="#000" stroke-opacity=".99216" stroke-width=".71698"/>
<path d="m70.183 86.731s5.1597 2.7305 7.6306 6.8618c0 0 1.116 2.8562 2.1047 5.2213 0.85989 2.0571 4.8134 4.724 5.1279 4.9398 6.6008 1.6113 10.468-1.8341 17.984 0.0419 0 0 3.3515-0.52889 5.4302-0.69341 3.0114 0.95339 8.2757 2.2471 8.2757 2.2471 3.504-0.36653 5.4541-1.62 7.3698-3.3424 1.633-1.4682 3.4099-3.1903 4.2713-5.9367l1.7924-5.8562 5.0044-3.5296 0.46328 7.41-0.87747 8.2679-2.0786 9.1475s-1.4813 4.5963-3.3344 6.2648c0 0-3.1147 3.6124-7.1298 5.2808-3.089 2.2465-6.4363 5.8502-8.9144 8.7446-4.5938 4.3634-8.1658 3.563-14.086 3.2584-4.7447-1.7783-6.3036-3.7595-9.8278-7.3032l-5.4599-4.8314-4.4771-3.9325-2.808-2.6141-3.307-4.1273-2.1606-4.7677-0.88369-4.0098-0.65518-10.786z" fill="#c0c0c0" stroke="#000" stroke-width="1.0485"/>
<path d="m112.87 111.33a9.1726 9.9068 0 0 1-9.1312 9.9068 9.1726 9.9068 0 0 1-9.2136-9.8174l9.1722-0.0894z" fill="#fff" stroke="#000" stroke-opacity=".99216" stroke-width="1.1866"/>
<path transform="matrix(-.015546 -.99988 .99916 -.040967 0 0)" d="m-88.252 134.02a7.6112 5.867 0 0 1-7.5674 5.8669 7.6112 5.867 0 0 1-7.6545-5.7994l7.6107-0.0675z" fill="#f5d1a7" stroke="#000" stroke-opacity=".99216" stroke-width="1.0392"/>
<path transform="matrix(.015546 -.99988 -.99916 -.040967 0 0)" d="m-79.825-71.641a7.6112 5.867 0 0 1-7.5674 5.8669 7.6112 5.867 0 0 1-7.6544-5.7994l7.6107-0.06749z" fill="#f5d1a7" stroke="#000" stroke-opacity=".99216" stroke-width="1.0392"/>
<path d="m70.388 82.925-0.32759-30.224c1.638-5.2808 10.92-12.022 12.667-12.191l-0.54599 2.6404c8.4377-3.5575 15.66-6.2386 24.897-6.292l10.92 2.0224s5.6782-0.39325 5.8967-1.573c3.3742 2.6188 2.8564 7.045 2.4023 9.8875 3.0793 1.2057 3.5849 0.67338 6.115-1.7977 5.6584 2.9043 4.4412 8.5632 3.7127 17.303l-0.87358 19.55h-1.5834l-1.4742-7.2471c-4.7601-2.184-4.4102-8.8675-5.2415-13.427-10.864 1.4083-20.204 1.7115-30.794 1.3483l-11.793-0.67415-2.8937-0.28089c-0.66261 6.6223-0.55608 11.77-6.7702 13.708-1.0778 2.7064-1.6926 5.0555-1.6926 7.6965z" fill="#c0c0c0" stroke="#000" stroke-width="1.0485"/>
<g transform="matrix(.81713 0 0 .84078 18.847 3.5468)" stroke="#000" stroke-opacity=".99216">
<path d="m76.369 94.961h20.446c1.8508 0 3.3409 1.49 3.3409 3.3409v11.225c0 1.8508-1.49 3.3409-3.3409 3.3409h-20.446c-1.8508 0-3.3409-1.49-3.3409-3.3409v-11.225c0-1.8508 1.49-3.3409 3.3409-3.3409z" fill="none" stroke-width="3"/>
<path d="m100.94 100.87h6.3895v2.824h-6.3895z" fill="#020201" stroke-width="1.116"/>
<path transform="matrix(.95153 -.30754 .15527 .98787 0 0)" d="m119.39 134.9h8.877v3.0552h-8.877z" stroke-width="1.2074"/>
<path transform="matrix(-.96163 -.27434 -.1753 .98451 0 0)" d="m-88.755 73.872h9.8534v3.0355h-9.8534z" stroke-width="1.2031"/>
<path d="m110.76 94.961h20.446c1.8508 0 3.3409 1.49 3.3409 3.3409v11.225c0 1.8508-1.49 3.3409-3.3409 3.3409h-20.446c-1.8508 0-3.3409-1.49-3.3409-3.3409v-11.225c0-1.8508 1.49-3.3409 3.3409-3.3409z" fill="none" stroke-width="3"/>
</g>
</g>
</svg>
