<svg preserveAspectRatio="none" viewBox="0 0 506.41 285.75" xmlns="http://www.w3.org/2000/svg"><defs><clipPath id="e"><path fill="red" opacity=".596" stroke="#fff" stroke-opacity=".236" stroke-width="5.436" d="M-439.3 191.77h2564.1v1446.4H-439.3z"/></clipPath><clipPath id="d"><path fill="red" opacity=".596" stroke="#fff" stroke-opacity=".236" stroke-width=".563" d="M333.5-88.778h265.36v149.68H333.5z"/></clipPath><clipPath id="c"><path fill="red" opacity=".596" stroke="#fff" stroke-opacity=".236" stroke-width=".117" d="M276.2 294.25h55.316v31.203H276.2z"/></clipPath><clipPath id="b"><path fill="red" opacity=".596" stroke="#fff" stroke-opacity=".236" stroke-width=".101" d="M1080-284.95h47.447v26.764H1080z"/></clipPath><clipPath id="a"><path fill="red" opacity=".596" stroke="#fff" stroke-opacity=".236" stroke-width=".119" d="M1753.046-646.84l-54.072 15.622 8.812 30.501 54.073-15.622z"/></clipPath></defs><path fill="#fff" d="M-3.024-1.512h512.54v294.82H-3.024z"/><g transform="matrix(-2.2225 .6421 .6421 2.2225 4511.6 503.38)" clip-path="url(#a)" fill-rule="evenodd"><path d="M1988.8-875.7c1.619 9.875 3.275 20.225 3.35 21.67.147 2.856.048 29.602 1.794 33.497 1.746 3.895 4.278 20.514 4.239 21.812-.017.568-.872 2.665-.455 6.337.536 4.72 2.474 11.353 3.592 13.398 1.987 3.635 5.201 12.984 5.201 12.984s1.778 10.646 3.308 14.022c1.53 3.375 7.288 26.616 4.827 36.966-2.46 4.414-5.439 14.708-5.439 14.708l-5.612 8.568s18.483 4.934 22.722 3.376c4.239-1.559 53.34-23.63 55.901-23.63 1.193 0 4.068-2.195 6.798-4.542v-12.532c-3.051-3.197-6.815-6.7-10.224-8.632-7.327-4.155-11.023-12.984-12.544-16.619s-8.71-20.254-9.891-27.524c-1.18-7.27-2.671-19.735-2.671-19.735s-.45-.52-1.786-2.596c-1.335-2.078-.9-16.62-2.655-20.254-1.755-3.636-4.364-25.447-4.364-25.447s-3.009-12.334-2.861-17.268c.047-1.571.319-4.787.67-8.557h-53.9" fill="#30261f"/><path d="M2034.3-875.7c1.599 12.877 3.59 25.818 4.89 23.228 1.339-2.667 2.644-13.376 3.58-23.228h-8.47" fill="#3d5e4d"/><path d="M2027.5-875.7c1.853 13.264 4.276 27.678 6.36 30.498 2.549 3.45 8.539 6.495 10.354 3.549 1.053-1.71.515-8.133-.098-10.293-1.121-3.952-2.533-15.861-3.387-23.755h-.667c.073 9.086.018 23.168-1.056 21.929-.737-.85-2.157-11.174-3.462-21.93h-8.044" fill="#3e4a45"/><path d="M2022.8-875.7c1.85 9.04 3.53 17.823 3.642 20.891.257 7.01 5.124 15.58 8.075 18.177 2.95 2.596 6.715 9.088 6.622 12.204-.093 3.116-1.195 8.829-1.195 8.829l-2.135-9.45-2.029-3.023-5.917-9.286s7.17 17.864 8.908 22.019c1.74 4.154 5.365 15.32 4.791 18.956-.575 3.635 8.192 32.716 10.285 39.235 2.093 6.519 8.05 14.846 10.365 19.477 2.315 4.63 11.598 11.16 11.598 11.16 2.27-3.894 9.448.136 9.667.496.49.802 2.11.927 3.584 1.166v-2.423c-1.725-2.09-4.13-4.69-6.61-6.533-5.243-3.895-10.216-6.699-10.216-6.699s-1.335-1.674-3.105-4.79-3.062-9.284-3.062-9.284l-6.338-16.242s2.177 15.203 4.336 20.915c2.158 5.713 2.919 11.426 2.919 11.426s-5.764-11.196-9.32-16.91c-3.556-5.712-5.524-18.901-5.788-25.652-.264-6.751-4.151-14.634-4.197-13.076-.047 1.558.735 15.073.735 15.073s-3.593-12.038-1.551-18.01c2.041-5.973.773-11.015.773-11.015s-2.64 2.596-3.284.779c-.644-1.818-.55-4.934-.194-9.089.357-4.154 3.742-9.359 2.197-12.216-1.544-2.856-.406-5.58-1.772-6.618-1.367-1.04-11.674-12.054-12.303-14.392-.322-1.199-2.42-13.933-4.483-26.095h-4.998" fill="#3b3633"/><path d="M2044.3-852.21s.203 5.074-1.908 8.749c-2.111 3.676-8.646-2.173-8.646-2.173s7.293 9.004 9.328 11.081c2.034 2.078 3.207 17.398 2.624 21.293-.582 3.895 3.82 4.674 3.688 9.088-.132 4.415 2.78 16.1 3.875 18.436 1.094 2.338 3.534 19.624 5.396 23.18 1.861 3.555 6.087 16.786 6.126 15.488.039-1.298-4.784-22.568-5.576-27.242-.792-4.674-3.206-25.188-4.55-27.005-1.343-1.817-2.67-4.154-3.075-6.232-.302-1.558-.856-9.67-1.568-15.062-.238-1.797-1.41-2.14-1.374-3.374.147-4.934-1.957-12.464-2.337-15.32-.38-2.856-2.003-10.906-2.003-10.906" fill="#3e5e42"/><path d="M2041.7-796.64s-.295 9.867-2.491 13.243c-2.198 3.376-.031 16.618.527 21.293.56 4.674 5.273 26.226 6.523 31.159 1.25 4.934 2.058 16.878 2.058 16.878s13.127-10.647 18.18-8.31c5.054 2.338 14.57 3.377 14.57 3.377s-21.044-4.934-25.71-12.464c-4.665-7.53-14.541-27.785-13.873-42.326.666-14.542 1.97-19.215.216-22.85" fill="#35332e"/><path d="M2020.2-875.7c1.756 9.095 3.332 17.804 3.456 20.371.287 5.972 1.569 17.657 4.247 21.552 2.678 3.895 3.291 6.752 1.824 9.088-1.466 2.337 2.43 12.204 4.86 16.62 2.43 4.414 5.505 18.435 3.526 22.33-1.98 3.895-1.49 18.696-1.234 25.707.256 7.011 9.503 40.508 9.65 43.364.149 2.856.219 8.31.219 8.31s-2.206-4.155-4.744-12.725c-2.539-8.569-3.727-15.58-6.84-28.303-3.114-12.723-5.45-20.254-3.798-28.823 1.654-8.569 1.32-12.983.815-11.685-.504 1.299-4.214 24.15-3.197 29.083 1.017 4.934 6.995 23.11 7.205 23.89.21.779-7.585-18.956-9.759-24.149-2.174-5.193-4.992-12.205-3.153-19.215 1.84-7.01 4.759-18.956 3.516-24.149-1.242-5.193-2.64-5.193-8.01-12.464-5.374-7.27-1.842-27.376-1.842-27.376s1.212 25.04 3.618 22.443c2.407-2.596 1.188-8.569-.52-13.762s.108-11.425.108-11.425-2.306-8.569-4.371-17.398c-1.053-4.498-1.044-8.053-1.19-11.283h5.614" fill="#443330"/><path d="M2011.7-875.7c2.437 14.842 4.79 30.953 3.76 32.329-.878 1.177-5.678-21.601-7.739-27.869-2.487-7.565-.61 1.807-.325 5.073.52 5.972 3.67 18.629 4.462 23.303.792 4.674 2.95 10.387 1.895 14.54-1.056 4.155 3.835 11.946 6.055 15.58 2.22 3.636 4.162 16.619 4.038 20.774l-.38 12.724s-3.292-22.331-7.167-32.977c-3.874-10.646-3.043-15.06-4.037-20.773-.994-5.713-4.65-15.84-6.8-21.812-2.151-5.973-2.183-12.724-5.964-18.696a15.766 15.766 0 01-1.127-2.195h13.329" fill="#4b3b2f"/><path d="M1990.5-875.7c.872 2.52 1.711 4.616 2.471 5.897 1.398 2.353.767 6.267 1.688 8.66 1.417 3.679 4.124 4.972 3.808 6.074-.52 1.818 1.064 11.165 1.002 13.243-.062 2.078-1.63 7.79-3.765 9.089-2.135 1.298-3.043.519-3.043.519s.195 9.088 1.98 11.685c1.786 2.596 5.877 5.972 8.509 11.425 2.632 5.453 3.307 14.022 3.478 16.099.171 2.077 3.61-11.685 5.364-15.84 1.755-4.154 1.87-15.84-2.127-22.33-4-6.492-8.712-11.094-8.696-12.983.03-3.504 7.542 5.415 7.471 5.249-.316-.734-7.084-16.253-6.889-16.934.954-3.332-1.27-11.683-4.673-19.852h-6.578" fill="#53413e"/><path d="M1995.7-815.34s6.241 9.348 7.989 13.243c1.746 3.895 4.275 13.386 3.646 18.839-.629 5.453-5.02 6.269-5.02 6.269-.835-1.583-1.615-3.224-2.013-5.277 0 0 1.947.687 2.974-2.084.702-1.896.846-6.914.148-8.918-1.715-4.934-5.028-5.675-5.028-5.675s-2.711-15.877-2.696-16.396" fill="#544436"/><path d="M1992.7-831.74s2.046 8.521 4.32 12.046c.759 1.175 1.971-.12 2.57.082.97.329 3.63.965 4.286-1.233.959-3.212-.302-10.031-.371-12.511-.117-4.178-3.728-12.802-4.55-13.61-.821-.809-3.665-2.695-3.665-2.695s4.31 9.433 2.03 12.936c-2.28 3.504-4.62 4.986-4.62 4.986" fill="#473d35"/><path d="M2013.2-807.71s-3.755 11.783-3.132 15.556c.623 3.774-2.467 13.979-4.41 14.963-1.942.984-3.527.16-3.527.16s4.13 9.516 4.68 10.828c.549 1.313 2.118-6.89 3.491-8.531 1.373-1.64 3.301-11.977 2.285-17.391-1.015-5.414-.313-9.187.613-15.586" fill="#544436"/><path d="M2015-804.1s3.777 16.407 5.003 19.688c1.227 3.281 1.512 18.375 2.616 20.836 1.103 2.461 5.695 11.321 6.367 13.454.672 2.133 3.894 7.547 3.894 7.547s-4.92-7.711-5.876-5.25c-.956 2.46 2.085 18.867 4.63 22.312 2.547 3.446 9.517 6.563 10.64 8.368 1.123 1.805 2.934 10.172 2.399 8.367-.535-1.805-7.02-6.399-9.266-5.086-2.246 1.312-7.793-10.008-9.707-14.93-1.913-4.922-1.963-18.047-3.36-25.43-1.399-7.383-1.718-11.485-5.25-16.407-3.531-4.922-.638-13.125-1.364-18.375-.726-5.25-.716-15.422-.726-15.094" fill="#4b3b2f"/><path d="M2013-775.06s-1.256 7.547 1.374 18.047c2.629 10.5 8.732 22.969 7.506 29.532-1.227 6.562-3.982 24.937-4.924 26.906-.942 1.969 7.818-.657 8.657.82.839 1.477-4.145-9.023-2.286-12.14 1.858-3.118.745-15.094.014-20.18s-6.313-15.258-4.406-20.016c1.909-4.758.78-11.32.78-11.32s-.765 5.905-1.996 7.71c-1.231 1.805-1.265 2.953-1.265 2.953s.171-5.742-.903-9.187c-1.075-3.445-1.732-6.07-2.551-13.125" fill="#4b3b2f"/><path d="M2010.1-772.93s-1.516 6.398.452 14.437c1.967 8.04 8.77 21.657 9.089 25.758.32 4.102 2.1 13.454.923 18.375-1.177 4.923-2.492 14.438-2.492 14.438l-4.32 1.805s3.496-13.617 4.482-17.062c.985-3.446 1.574-13.29.632-16.242-.942-2.954-5.2-13.125-5.871-15.258-.672-2.133-2.846-8.204-2.846-8.204s3.316 15.405 4.67 19.342c1.354 3.938 1.513 15.097 1.19 16.081-.324.985-1.337 5.265-1.337 5.265s.098-13.125-.863-20.344c-.961-7.22-5.249-21.33-5.19-23.298.059-1.969-1.05-9.188 1.481-15.094" fill="#544436"/><path d="M2051-777.21s.829 8.721 2.338 17.361c.246 1.414.512 2.826.794 4.197.078.38-2.834-5.187-4.846-11.738-2.211-7.197-4.978-16.317-4.943-15.833.794 10.826 3.35 22.997 7.888 32.766 1.784 3.841 5.113 8.992 6.809 12.053 1.688 3.045 7.454 6.539 8.036 7.694.62 1.233-2.427-3.79-6.582-9.167-4.114-5.326-3.966-15.68-2.765-14.23 2.025 2.44 5.448 13.076 10.118 19.098 1.875 2.417 6.021 4.465 8.307 6.761 2.287 2.298 4.121 10.61 4.121 10.61l.89 4.757s5.44.164 6.247-2.297c.808-2.46-14.14-17.817-16.848-20.769-.612-.668 11.39.103 8.06-.853-7.938-2.277-10.798-3.69-11.236-4.577-4.663-9.436-7.602-21.922-8.969-24.053-.425-.666-3.816-31.008-3.953-30.518-.595 2.14 2.137 26.246 1.896 24.442-.171-1.289-5.134-24.6-7.126-35.326-.173-.938-3.232-5.65-3.384-5.92-.542-.968 1.462 5.715 1.376 5.277-.381-1.969 1.968 20.244 1.968 20.244s2.069 11.008 1.804 10.024" fill="#37484d"/><path d="M2001.3-844s8.704 19.882 8.127 25.723c-.343 3.468.268 6.725.378 9.489.076 1.89-2.981-18.927-3.84-17.59-.106.168-.13 11.302-3.833 8.276-4.442-3.629 5.186 13.518 5.066 13.806-1.423 3.395-.484 9.945-.39 10.731.108.899.036 3.295.081 1.797.044-1.497 3.13-10.334 4.424-13.179 1.294-2.846 2.606-14.483 1.424-19.874-1.182-5.392-6.619-14.086-11.437-19.178" fill="#43392f"/><path d="M1992.3-852.25s-3.992 1.54-5.794 2.42c-1.802.88-3.125 5.5-6.808 3.3s-5.3-.88-5.84-2.64-.079-3.96-1.098-2.86c-1.02 1.1-.842 1.76-.842 1.76s-5.157.88-6.774 2.2c-1.619 1.32-5.604 2.64-6.591 2.64-.986 0-5.636 3.74-7.432 4.4-1.795.66-2.886 4.18-3.92 5.72-1.032 1.54-7.99 9.9-9.417 11.44-1.427 1.54-4.519 5.94-6.69 5.94-2.17 0-5.484-1.32-6.675-1.1-1.19.22-4.032-3.74-4.032-3.74l-1.295-2.86s-.875-3.74-2.684-2.64-4.104 5.28-5.492 5.5c-1.387.22-4.064 3.96-6.011 3.08-1.947-.88-2.335-1.1-3.473-2.64-.436-.59-.93-1.512-1.567-2.15-1.026-1.025-2.123-1.568-1.702-.71.3.608.92.793 1.235 1.144.407.45.475.982.464.995-.021.022 1.208 1.739 1.25 2.167.042.428-.787.739-1.267.311-.48-.427-1.054-1.411-1.683-2.327-.629-.916-.713-1.771-1.479-1.771-.767 0-1.323.305-1.323.305s.429.306.76.183c.333-.122.716-.122.92.367.205.488.712 1.832.712 1.832s-1.728-.794-2.46-.122c-.73.672-1.917.846-1.917.846s.194.101.687.101 1.494-.58 1.875-.52c.381.062 1.645-.122 2.486 1.039.841 1.16 1.923 1.588 2.371 1.222.45-.366.994-.52.994-.52s.64.826 1.29 1.008c.651.184 1.297.55 1.018.734-.279.183.112 1.771-.387 1.954-.497.184-2.406-1.893-2.913-1.405-.507.49-.222 1.955-1.1 2.016-.877.062-1.734-.55-2.183-.183-.449.367-.8 1.1-1.607.672-.808-.428-1.65-1.588-1.65-1.588s-.125.55.245.977 1.326 1.405 1.596 1.528c.27.122 1.491-.428 1.833-.917.343-.489 1.456.733 1.847.489.39-.244 1.222-.611 1.46-1.222.236-.61.35-.733.35-.733s.846.977 1.384 1.283c.538.305.099.366-.301.916s-1.846 1.344-2.722 1.344-2.382-.855-2.382-.855-.338.305.04.489c.377.183 2.21 1.1 2.484 1.1s2.87-.795 3.103-1.284c.234-.488.356-.916.961-1.038.606-.122 1.22-.489 1.017-1.039-.203-.55 0-1.771.118-2.138.12-.366.673-.55.673-.55s1.54-.244 1.826-.672c.286-.427.847-.854.847-.854s-.838 2.382-.747 2.993c.091.61.33 1.771-.348 2.504-.678.733-1.396.917-1.578 1.527-.182.611-.188.795-.188.795s.252.733.267.244c.015-.489.14-1.039.42-1.222.278-.183 1.665-.794 1.898-1.283.234-.488.33-1.893.405-2.566.075-.672.56-2.26.846-2.687.287-.428 1.18-1.039 1.18-1.039s1.83-.794 2.23-1.344c.4-.55 2.333-1.16 2.51-1.588.177-.428.47-1.1.833-.428.364.672.02 1.222.48 2.26.462 1.04 2.688 5.315 2.688 5.315s-2.378-1.038-3.271-2.26c-.894-1.222-1.533-1.833-2.135-1.833s-.948.611-1.56.917c-.61.305-1.845.15-1.845.15s-.902.216-.248.339c.653.122 1.754-.123 1.796.305.042.428-.653 1.71-.609 2.077.044.366.22-.061.576-.978.356-.916.407-.794.75-1.282.343-.49 1.454-1.039 1.868-.245.414.794 2.221 2.863 3.294 3.596 1.072.733 1.161 1.17 1.699 1.474.538.306 1.244.49 1.244.49s.748.61 1.302.366c.554-.245 1.434-.366 2.945.366 1.51.733 5.496 1.039 6.41 1.589.914.55 4.589-1.589 5.444-2.75.856-1.16 8.113-7.757 8.797-8.674.684-.916 1.07-.977 1.02.672-.05 1.65-.263 5.132.314 7.82.576 2.687.91 6.17.966 6.108.057-.06 0-7.33-.445-8.918-.445-1.59-.36-2.627-.206-4.093.153-1.466.186-2.566.186-2.566s1.05-.367 1.228-.794c.176-.428.013-.428-.066 2.199-.078 2.627.09 2.443.618 4.948.527 2.505.558 3.299.595 3.91.037.61 1.06 4.826 1.072 4.398.013-.428-.687-4.46-.413-6.292.273-1.832-.732-2.993-.579-4.46.154-1.466.272-1.771.47-2.932.2-1.16.23-4.032.592-3.299.361.734 1.772 12.157 1.785 15.333.015 3.177.196 6.292.232 6.903.037.611.496-7.453.525-8.43.03-.977-.393-6.964-.2-7.941.193-.978.811-3.36.797-2.872-.014.489.213 3.849.287 5.07.073 1.223-.031 2.872.042 2.26.073-.61.124-2.32.52-4.58.396-2.261.305-4.705.414-6.537.11-1.833-.022-2.933-.022-2.933s1.61-2.626 2.132-3.604c.522-.977 4.464-1.038 5.249-1.649.783-.61 2.75-.488 3.024-.488.273 0 .195 2.626 1.176 4.581.982 1.955 1.677 4.337 1.255 7.453-.421 3.115.134 4.703.366 6.109.23 1.405-.048-3.91.494-5.56.542-1.649.664-3.91.757-3.36.093.55-.326 3.605-.12 5.865.205 2.26.603 5.437.618 4.948.014-.488-.077-2.932.242-4.46.32-1.526.363-2.992.479-5.008.114-2.016 1.123 2.688.993 3.36-.13.671-.109 1.832-.109 1.832s.513-2.504.582-4.826c.07-2.321-.159-9.347-.04-9.652.118-.305 1.14.305 1.306 2.077s1.106 6.903.96 6.293c-.145-.612-.289-3.116-.143-4.338s.547-1.833.547-1.833 1.758 7.087 2.152 8.553c.395 1.466.573 6.475.57 8.43 0 1.955.512 6.659.512 6.659s.243-9.958.433-12.645c.19-2.688-.153-11.362.263-10.63.415.734.014 16.006.198 17.167.184 1.16.473 8.002.562 8.674.09.672.012-13.256.038-14.111.025-.855.506-4.093.604-5.56.098-1.465.566-6.108.653-5.375.087.733 1.062 6.598 1.027 7.759-.035 1.16.375 5.742.215 5.62-.16-.123.542-5.315.597-7.148.055-1.833.082-6.414.082-6.414s1.782.794 2.866-.672c1.084-1.466 1.913.061 3.176-.061 1.262-.122 4.095.306 5.903-1.588 1.807-1.894 3.635-4.46 2.484-9.897-1.15-5.436-2.97-8.674-5.524-8.946" fill="#3e3633"/><path d="M1920.3-816.93s1.104 2.14 2.612 1.953c1.507-.186 3.865 1.86 5.272 2.233 1.407.372 3.934 2.325 5.136 1.209 1.201-1.116 7.522-6.046 8.047-6.883.526-.837 6.086-5.488 7.213-6.883 1.126-1.395 2.447-3.72 4.902-4.93 2.456-1.209 4.777-3.534 5.55-4.278.773-.744 6.156-2.233 8.223-1.581 2.066.65 4.98.837 8.08 3.162 3.1 2.325 7.158.558 7.158.558s1.215 1.21 2.071.465 2.222-1.767 3.794-1.302c1.57.465 5.213 1.395 6.496.372 1.28-1.023 3.937-6.139 4.05-7.162.114-1.023-2.558-6.51-3.542-7.068-.985-.558-1.218 1.674-1.099 3.255s-1.768-2.233-2.469-1.116c-.701 1.116-.584 2.79-.778 3.72-.195.93-.957 1.302-2.178.279-1.22-1.023-4.68-2.511-4.68-2.511s3.432 2.418 3.312 3.627c-.119 1.21-.222 1.86-1.724 1.86-1.501 0-6.204-1.767-6.184-2.417.019-.652 1.643-1.954.108-3.628-1.535-1.674-1.69-2.047-3.25-2.883-1.56-.837-1.891-.93-2.208-1.489-.318-.557-.945-3.77-.945-3.77s-.264 2.204-.043 3.041c.074.28-.198.636.145 1.008 1.374 1.489 3.137 3.907 3.111 4.744-.024.837-1.044 1.488-3.008.186-1.963-1.302-2.38-1.302-2.826-3.162-.444-1.86-.428-2.419-.428-2.419s-1.111.93-.416 2.79c.695 1.86 2.394 3.628 2.394 3.628s-3.179.279-4.54-1.581c-1.364-1.86-1.414-2.976-1.414-2.976s-1.112.93-.147 2.139c.964 1.209 1.933 2.325 1.933 2.325s-2.234-.65-3.824-.465c-1.59.186-2.333-.093-1.477-.837.857-.744-1.734-.558-2.516.465-.782 1.023-.662 2.604-.662 2.604s1.702-1.116 4.027-.744c2.324.372 7.355 2.325 7.92 2.976.564.652-9.425-2.883-12.472-1.395-3.048 1.489-4.049 4.279-5.166 5.395-1.118 1.116-4.555 4.465-4.255 2.79.3-1.674-.834-2.79-.567-3.348.267-.558-.86 3.627-1.582 2.697-.723-.93.24-2.418-.114-1.767-.354.651-1.877 4.186-1.835 5.58.042 1.396-4.908 7.906-6.968 9.86-2.061 1.953-5.1 3.162-5.1 3.162s7.113-6.325 7.822-7.72c.709-1.395 1.955-4 2.052-4.464s-5.408 7.906-8.041 9.487c-2.634 1.581-4.528 3.534-4.953 3.813-.425.28-.79-1.488-1.621-1.581-.832-.093.876-1.395.876-1.395s-1.658-.372-3.25-.093c-1.595.279-2.993-.372-2.993-.372l-.526.837s.434-.558.22-1.767c-.214-1.21-2.964-4.093-3.59-5.488-.625-1.395-1.735-3.349-1.735-3.349s.767 2.233-.075 2.512c-.843.279-1.41-.279-1.41-.279l-1.21 1.395s.982-2.14 1.916.093c.934 2.232 3.71 7.069 3.381 6.883" fill="#2b3835"/><path d="M1968.8-841.58s6.924 2.79 8.617 4.743c1.694 1.954 4.008 2.698 6.38 1.489 2.372-1.21 3.823-2.325 5.144-1.86 1.32.464 1.398.65 3.45-1.024 2.053-1.674 5.39-1.674 5.39-1.674s.158 3.07-.96 4.186c-1.117 1.116-2.316 2.139-4.388 1.674-2.072-.465-3.529-1.953-5.389-1.116-1.86.837-3.52 3.348-6.729 1.86-3.21-1.488-3.687-2.232-6.17-2.883-2.484-.652-7.247-.372-7.247-.372s5.122-1.116 5.956-1.116c.835 0 .434-.558-4.054-3.907" fill="#40504f"/><path d="M1950.1-840.41s-1.555 2.585.217 2.64c1.772.055 2.55-1.265 3.092-1.265.542 0 1.97-1.65 2.634-2.42.663-.77-1.26.935-2.403 1.265-1.142.33-2.064-.165-1.157-.825.907-.66 2.686-.88 3.796-1.76 1.11-.88 1.427-1.595 1.86-1.21.431.385 1.837-.495 2.098-.99.261-.495 1.86-1.264 3.394-1.484 1.534-.22 3.355-1.815 4.257-2.31.9-.495 3.673-.935 3.673-.935s.263-.55-.135-.44c-.397.11-5.103.99-5.96 1.65-.858.66-3.51 2.035-4.702 2.365-1.192.33-2.928.715-3.23.935-.302.22-5.373 3.409-5.77 3.52-.398.11-1.713 1.264-1.664 1.264" fill="#74623c"/><path d="M1948.7-837.83s-.2 1.76 1.747.88 3.394-1.485 3.893-1.705c.5-.22-2.958 1.76-3.863 2.365-.906.605-2.421 1.87-2.436.714-.015-1.154.659-2.254.659-2.254" fill="#574336"/><path d="M1984.9-847.89s.238-1.374 1.835-2.09c1.599-.715 4.849-2.31 5.732-2.2.883.11 1.455.77 2.011 1.926.557 1.155-.605-1.155-1.852-.66-1.246.495-2.59.99-3.24 1.264-.649.276-.387 1.43-.387 1.43s.111-.44 1.164.605c1.052 1.045 1.282 1.595 1.282 1.595s-2.602-1.925-3.6-1.485c-.999.44-1.69.495-1.69.495s1.873-.055 2.154.44c.28.495-1.63.11-2.8-.275s-1.566-.33-1.566-.33 1.014-.99.957-.715" fill="#a99351"/><path d="M1923-817.75s-9.724 2.667-9.492 4.99c.231 2.324-4.167 7.486-7.409 6.97-3.24-.516-8.18-1.032-9.955-.258-1.775.774-5.71 3.958-5.71 3.958s.694 0 1.697-.774c1.003-.774 2.932-1.807 2.932-1.807s-.308.172-.154.86c.154.689 1.93 1.29 1.93 2.581s-1.39 2.668-1.39 2.668 1.544-.688 1.698-1.463c.155-.774.85-1.377-.077-2.667-.926-1.291-1.312-1.807-1.312-1.807l.464-.603s1.389-.344 2.47-.172c1.08.173 2.083.173 2.083.603s1.157.172 1.157.172 3.087.172 4.322.516c1.235.344 2.547-.086 3.473-.172.926-.086.694-.603 1.08-1.033.386-.43 3.087-1.72 4.245-2.925 1.157-1.205 1.003-3.27 2.006-3.958 1.003-.688 4.013-.947 5.016-1.29 1.003-.345 4.013.085 4.939.43.926.344-.077-1.893-1.003-2.84-.926-.946-.54-2.581-3.01-1.979" fill="#3e3633"/></g><g transform="translate(-9433.2 2500.15) scale(8.7826)" clip-path="url(#b)"><path d="M1141.1-288.27l1.853-2.426-26.16-24.097h-25.861l-26.16 6.46 1.854 2.426-1.2 24.542 1.2 1.436-.437 19.38 2.834 3.077s17.34.455 34.635.292c17.297.163 35.044-.292 35.044-.292l2.834-3.077-.436-11.587 1.199-1.435-1.2-14.7" fill="#b58946"/><path d="M1066.2-260.55s2.912.718 3.835 1.026c.923.307-.513 1.743-.513 1.743l6.454.362s-.61-1.798 4.313-1.9c4.922-.103 5.64 1.64 5.64 1.64l8.716.718s-.82-1.435.922-1.538c1.744-.103 14.254-.308 15.894-.103 1.642.206 1.333 1.333 1.333 1.333l9.64.308s-1.231-1.538 3.076-1.846c4.306-.308 6.26 1.388 6.26 1.388l6.943-.054s-.18-1.334.435-1.847c.615-.512 2.398-1.23 2.398-1.23H1066.2" fill="#966732"/><path d="M1093.6-253.63l.074.048a4.335 4.335 0 01-.154.431c.052-.145.08-.306.08-.479" fill="#727272"/><path d="M1093.8-255.29s-.645-4.632-6.993-1.778c0 0 5.212-2.386 6.993 1.778" fill="#fff"/><path d="M1143.3-326.99c-14.121-5.818-37.061-6.41-39.513-6.456v-.004l-.108.002c-.07 0-.11-.002-.11-.002v.004c-2.43.047-24.99.64-39.103 6.456 0 0-1.2.615-.545 5.23.654 4.614.872 13.433.872 13.433s3.365.717 5.28.717 5.619-.923 7.254-.923c1.635 0 9.7.103 9.7.103s-7.52.103-10.353.82c-2.834.718-5.56.615-7.412.615-1.852 0-4.469 1.093-4.469 1.093l.654 24.542h1.526l-1.417.82s.327 16.1.327 17.228c0 1.128.327 2.768.327 2.768s29.149.712 37.468.01c8.323.702 37.878-.01 37.878-.01s.326-1.64.326-2.768.327-9.434.327-9.434l-1.416-.82h1.526l.654-14.699s-2.616-1.093-4.469-1.093c-1.853 0-4.578.103-7.411-.615-2.835-.718-10.355-.82-10.355-.82s8.066-.102 9.7-.102c1.635 0 5.341.922 7.256.922 1.914 0 5.279-.718 5.279-.718s.218-26.455.872-31.07c.654-4.614-.545-5.23-.545-5.23" fill="#e1c377"/><path d="M1144-324.82c-36.081-9.794-63.048-6.62-79.137-2.34l-.42.169s-1.199.615-.545 5.23c.08.552.15 1.167.217 1.82 38.847-12.222 68.333-5.602 79.726-1.96.17-1.25.202-2.201.159-2.919m-16.8 34.32c-1.11-.09-2.26-.153-3.279-.198 1.123.062 2.216.128 3.279.198" fill="#e5ca87"/><path d="M1064.6-312.67c.114 2.471.16 4.346.16 4.346s3.366.717 5.28.717 5.62-.923 7.255-.923c1.634 0 9.7.103 9.7.103s-7.52.103-10.354.82c-2.834.718-5.559.615-7.412.615-1.852 0-4.468 1.093-4.468 1.093l.483 18.12c21.293-3.495 41.307-3.738 56.492-3.024 2.226-.028 7.398-.09 8.67-.09 1.635 0 5.341.923 7.256.923 1.913 0 5.279-.718 5.279-.718s.048-5.842.166-12.514c-17-4.033-47.05-5.328-47.05-5.328 16.535-.878 36.825 1.48 47.096 2.904.043-2.161.094-4.345.152-6.392-32.124-7.93-63.388-3.725-78.706-.652m8.501 30.59c9.844-2.256 46.759-3.487 46.759-3.487-27.944-1.737-47.135.78-54.491 2.032l.058 2.172h1.526l-1.417.82s.327 16.1.327 17.228c0 .167.01.344.02.526 21.496-.787 60.751 1.245 75.682 2.094.034-.186.095-.531.153-.94-19.022-3.342-64.105-6.09-64.105-6.09 15.432-.77 48.743 1.592 64.29 2.81.087-2.754.287-7.834.287-7.834l-1.416-.82h1.525l.275-6.193c-33.195-4.554-69.473-2.318-69.473-2.318" fill="#e5ca87"/><path d="M1077.7-307.3c1.245-.366 3.878-.784 5.283-.993-2.264.114-4.947.189-6.392.555-2.834.718-5.644.647-7.497.647-1.853 0-4.527 1.058-4.527 1.058l.647 24.665 1.696.01-1.608.813s.382 16.188.382 17.315.382 2.764.382 2.764 7.413.106 15.742.195c-4.233-.325-11.488-.855-12.937-.783-2.07.102-1.852-.923-1.961-1.846-.11-.923-.327-17.534-.327-17.534l2.07-1.333-2.07-.308-.11-2.769 2.072-.205-2.072-.615-.109-19.688s.763-.615 3.27-.718c2.507-.102 6.322-.717 8.066-1.23m53.3 17.2c-1.446-.366-4.086-.443-6.35-.557 1.405.21 4.037.627 5.283.993 1.744.513 5.559 1.128 8.065 1.23 2.508.104 3.27.72 3.27.72l-.109 9.843-2.07.615 2.07.205v3.025l-2.18.051 2.071 1.077s-.218 9.075-.326 9.997c-.11.924.108 1.949-1.963 1.846-1.448-.071-8.703.459-12.937.783 8.33-.088 15.662-.27 15.662-.27s.45-1.59.45-2.718.324-9.466.324-9.466l-1.536-.839 1.595.016.617-14.817s-2.41-1.088-4.263-1.088c-1.853 0-4.84.071-7.673-.646" fill="#f2e7c0"/><path d="M1143.2-327.12c-14.121-5.818-32.131-6.256-39.702-6.332-7.57-.077-25.265.429-39.379 6.244 0 0-1.125.795-.47 5.409.653 4.615 1.074 13.466 1.074 13.466s1.385.294 2.884.506l-2.012-1.019-.654-11.69 2.07-.513-2.07-.102s0-1.436-.11-2.564c-.108-1.128.546-2.563.546-2.563 12.708-5.243 27.92-6.422 38.23-6.425 10.312-.003 25.932 1.182 38.64 6.425 0 0 .655 1.435.546 2.563-.109 1.128-.109 2.564-.109 2.564l-2.071.102 2.071.513-.654 29.327-2.013 1.02c1.5-.212 3.006-.477 3.006-.477s.228-26.43.882-31.044c.654-4.614-.706-5.41-.706-5.41" fill="#f2e7c0"/><path d="M1114.1-253.63l-.075.048c.058.191.117.342.155.431a1.397 1.397 0 01-.08-.479" fill="#727272"/><path d="M1113.9-255.29s.645-4.632 6.993-1.778c0 0-5.212-2.386-6.993 1.778" fill="#fff"/></g><g transform="translate(-450.02 -501.21) scale(2.3539)" clip-path="url(#c)"><path d="M290.726 101.723v3.324a2.72 2.72 0 002.72 2.72h.981a2.72 2.72 0 002.72-2.72v-3.324a2.72 2.72 0 00-2.72-2.72h-.982a2.72 2.72 0 00-2.72 2.72zm1.813.659c0-.906.53-1.641 1.184-1.641h.427c.654 0 1.184.735 1.184 1.64v2.007c0 .906-.53 1.64-1.184 1.64h-.427c-.655 0-1.184-.734-1.184-1.64v-2.006" fill="#3d3d3d"/><path d="M290.726 91.903v3.324a2.72 2.72 0 002.72 2.72h.981a2.72 2.72 0 002.72-2.72v-3.324a2.72 2.72 0 00-2.72-2.72h-.982a2.72 2.72 0 00-2.72 2.72zm1.813.66c0-.907.53-1.642 1.184-1.642h.427c.654 0 1.184.735 1.184 1.641v2.006c0 .907-.53 1.642-1.184 1.642h-.427c-.655 0-1.184-.735-1.184-1.642v-2.006" fill="#231f20"/><path d="M292.857 101.536a1.096 1.096 0 002.192 0V95.04a1.095 1.095 0 00-2.192 0v6.497" fill="#231f20"/><path d="M290.726 91.903v3.324a2.72 2.72 0 002.72 2.72h.981a2.72 2.72 0 002.72-2.72v-3.324a2.72 2.72 0 00-2.72-2.72h-.982a2.72 2.72 0 00-2.72 2.72zm1.813.66c0-.907.53-1.641 1.184-1.641h.427c.654 0 1.184.734 1.184 1.64v2.007c0 .906-.53 1.64-1.184 1.64h-.427c-.655 0-1.184-.734-1.184-1.64v-2.007" fill="#3d3d3d"/><path d="M296.233 89.932c-1.252-.716-2.28-.909-3.243-.523 0 0-1.284.545-1.284 2.76s.064 3.18.096 3.79c.032.61.61 2.15 2.569 1.894 1.958-.257 2.818-1.037 2.818-3.167 0-2.131.296-4.039-.956-4.755zm-.16 5.673c-.45 1.573-2.409 1.284-3.083.642s-.41-2.408-.405-3.82c.005-1.412.96-1.753 1.393-1.863.764-.192 1.324 0 1.837.61.514.61.707 2.858.257 4.431" fill="#0f0f0f"/><path d="M291.836 96.922c.016 0-.348-.28-.532-.961-.177-.683-.232-1.6-.236-2.636.02-1.017.078-1.982.386-2.625.282-.654.71-.854.703-.842-.197-.097-.896 1.405-.792 3.468-.137 2.056.192 3.238.471 3.596zm4.274-3.041c.108-1.512-.498-2.651-.533-2.61.046-.003.229 1.162.123 2.59.036 1.457-.483 2.502-.59 2.451.063.132 1.038-.88 1-2.431" fill="#c4c4c4"/><path d="M293.302 90.145c-.01.02.684-.51 1.731-.431 1.118.12 1.43 1.099 1.415 1.04-.005.024-.496-.711-1.443-.785-.924-.079-1.707.187-1.703.176zm3.59 4.917c-.04.066-.089 1.104-.947 1.8-.9.708-1.959.717-1.937.731-.036-.022 1.057.26 2.1-.533.96-.821.77-1.907.783-1.998zc0-.004.004-.007.005-.005-.004-.004-.005-.002-.006.005" fill="#5e5e5e"/><path d="M296.233 99.751c-1.252-.716-2.28-.908-3.243-.523 0 0-1.284.546-1.284 2.761s.064 3.179.096 3.789c.032.61.61 2.151 2.569 1.894 1.958-.257 2.818-1.036 2.818-3.167 0-2.13.296-4.038-.956-4.754zm-.16 5.674c-.45 1.573-2.409 1.284-3.083.642s-.41-2.408-.405-3.82c.005-1.412.96-1.754 1.393-1.863.764-.193 1.324 0 1.837.61.514.61.707 2.857.257 4.43" fill="#0f0f0f"/><path d="M291.836 106.742c.016-.001-.348-.281-.532-.962-.177-.682-.232-1.6-.236-2.635.02-1.018.078-1.982.386-2.626.282-.654.71-.853.703-.84-.197-.099-.896 1.403-.792 3.466-.137 2.056.192 3.238.471 3.596zm4.274-3.042c.108-1.512-.498-2.65-.533-2.61.046-.003.229 1.163.123 2.59.036 1.457-.483 2.503-.59 2.451.063.133 1.038-.88 1-2.43" fill="#c4c4c4"/><path d="M293.302 99.969c-.01.02.684-.51 1.731-.431 1.118.12 1.43 1.099 1.415 1.04-.005.024-.496-.711-1.443-.785-.924-.08-1.707.187-1.703.176zm3.59 4.917c-.04.066-.089 1.104-.947 1.8-.9.708-1.959.717-1.937.732-.036-.023 1.057.259 2.1-.534.96-.821.77-1.907.783-1.998zc0-.004.004-.007.005-.005-.004-.004-.005-.002-.006.005" fill="#5e5e5e"/><path d="M292.857 101.687a1.096 1.096 0 002.192 0V95.19a1.095 1.095 0 00-2.192 0v6.497" fill="#3d3d3d"/><path d="M293.968 94.32s.97-.161.97 2.022v4.724c0 .94-.342 1.85-1.355 1.645 0 0 .536-.196.536-1.645v-4.949c0-.834.1-1.601-.151-1.798" fill="#0f0f0f"/><path d="M293.257 102.23c-.043.009-.232-.472-.175-3.83-.077-2.15-.012-3.888.307-3.887-.218.416-.076 1.435 0 3.585.032 2.146-.176 4.13-.132 4.131" fill="#c7c7c7"/><path d="M294.634 100.901s-.128-1.05-.128-2.344c0-1.294.128-2.343.128-2.343s.128 1.05.128 2.343c0 1.295-.128 2.344-.128 2.344" fill="#676767"/><path d="M290.726 82.084v3.324a2.72 2.72 0 002.72 2.72h.981a2.72 2.72 0 002.72-2.72v-3.324a2.72 2.72 0 00-2.72-2.72h-.982a2.72 2.72 0 00-2.72 2.72zm1.813.659c0-.906.53-1.641 1.184-1.641h.427c.654 0 1.184.735 1.184 1.641v2.006c0 .906-.53 1.641-1.184 1.641h-.427c-.655 0-1.184-.735-1.184-1.641v-2.006" fill="#3d3d3d"/><path d="M296.233 80.112c-1.252-.716-2.28-.908-3.243-.523 0 0-1.284.546-1.284 2.761 0 2.216.064 3.179.096 3.789.032.61.61 2.15 2.569 1.894 1.958-.257 2.818-1.036 2.818-3.167 0-2.13.296-4.038-.956-4.754zm-.16 5.674c-.45 1.573-2.409 1.284-3.083.642s-.41-2.408-.405-3.82c.005-1.412.96-1.754 1.393-1.863.764-.193 1.324 0 1.837.61.514.61.707 2.857.257 4.43" fill="#0f0f0f"/><path d="M291.836 87.098c.016 0-.348-.28-.532-.962-.177-.682-.232-1.6-.236-2.635.02-1.017.078-1.982.386-2.625.282-.655.71-.854.703-.841-.197-.098-.896 1.404-.792 3.467-.137 2.056.192 3.238.471 3.596zm4.274-3.041c.108-1.512-.498-2.651-.533-2.61.046-.003.229 1.162.123 2.59.036 1.457-.483 2.503-.59 2.451.063.132 1.038-.88 1-2.431" fill="#c4c4c4"/><path d="M293.302 80.325c-.01.02.684-.51 1.731-.43 1.118.12 1.43 1.098 1.415 1.04-.005.023-.496-.712-1.443-.785-.924-.08-1.707.187-1.703.175zm3.59 4.917c-.04.066-.089 1.104-.947 1.8-.9.708-1.959.717-1.937.732-.036-.023 1.057.26 2.1-.533.96-.822.77-1.908.783-1.999zc0-.003.004-.006.005-.005-.004-.004-.005-.001-.006.005" fill="#5e5e5e"/><path d="M292.857 91.864a1.096 1.096 0 002.192 0v-6.498a1.096 1.096 0 00-2.192 0v6.498" fill="#3d3d3d"/><path d="M293.968 84.5s.97-.16.97 2.023v4.724c0 .94-.342 1.849-1.355 1.645 0 0 .536-.196.536-1.645v-4.948c0-.835.1-1.602-.151-1.799" fill="#0f0f0f"/><path d="M293.257 92.41c-.043.01-.232-.47-.175-3.83-.077-2.148-.012-3.887.307-3.887-.218.417-.076 1.436 0 3.586.032 2.146-.176 4.13-.132 4.13" fill="#c7c7c7"/><path d="M294.634 91.082s-.078-1.05-.078-2.344c0-1.294.078-2.344.078-2.344a35.15 35.15 0 000 4.688" fill="#676767"/><path d="M292.857 81.862c0 .633.491 1.147 1.096 1.147.605 0 1.096-.514 1.096-1.147v-8.149c0-.633-.491-1.147-1.096-1.147-.605 0-1.096.514-1.096 1.147v8.149" fill="#3d3d3d"/><path d="M293.968 72.804s.97-.168.97 2.118v6.292c0 .984-.342 1.937-1.355 1.723 0 0 .536-.205.536-1.723v-6.527c0-.874.1-1.678-.151-1.883" fill="#0f0f0f"/><path d="M293.257 82.43c-.043.01-.232-.493-.175-4.01-.077-2.25-.012-5.416.307-5.415-.218.436-.076 2.848 0 5.1.032 2.247-.176 4.325-.132 4.325" fill="#c7c7c7"/><path d="M294.634 81.04s-.078-1.4-.078-3.127c0-1.727.078-3.127.078-3.127s.078 1.4.078 3.127c0 1.727-.078 3.127-.078 3.127" fill="#676767"/><path d="M290.89 133.785v3.324a2.72 2.72 0 002.72 2.72h.981a2.72 2.72 0 002.72-2.72v-3.324a2.72 2.72 0 00-2.72-2.72h-.981a2.72 2.72 0 00-2.72 2.72zm1.813.66c0-.907.53-1.642 1.184-1.642h.427c.654 0 1.184.735 1.184 1.641v2.006c0 .906-.53 1.641-1.184 1.641h-.427c-.654 0-1.184-.735-1.184-1.641v-2.006" fill="#3d3d3d"/><path d="M290.89 123.966v3.324a2.72 2.72 0 002.72 2.72h.981a2.72 2.72 0 002.72-2.72v-3.324a2.72 2.72 0 00-2.72-2.72h-.981a2.72 2.72 0 00-2.72 2.72zm1.813.659c0-.907.53-1.641 1.184-1.641h.427c.654 0 1.184.734 1.184 1.64v2.007c0 .906-.53 1.641-1.184 1.641h-.427c-.654 0-1.184-.735-1.184-1.641v-2.006" fill="#231f20"/><path d="M293.022 133.599a1.096 1.096 0 002.19 0v-6.497a1.095 1.095 0 00-2.19 0v6.497" fill="#231f20"/><path d="M290.89 123.966v3.324a2.72 2.72 0 002.72 2.72h.981a2.72 2.72 0 002.72-2.72v-3.324a2.72 2.72 0 00-2.72-2.72h-.981a2.72 2.72 0 00-2.72 2.72zm1.813.659c0-.906.53-1.641 1.184-1.641h.427c.654 0 1.184.735 1.184 1.64v2.007c0 .906-.53 1.64-1.184 1.64h-.427c-.654 0-1.184-.734-1.184-1.64v-2.006" fill="#3d3d3d"/><path d="M296.397 121.994c-1.252-.716-2.28-.908-3.243-.523 0 0-1.284.546-1.284 2.761s.064 3.179.096 3.789c.032.61.61 2.15 2.569 1.894 1.958-.257 2.818-1.036 2.818-3.167 0-2.13.296-4.038-.956-4.754zm-.16 5.674c-.45 1.573-2.409 1.284-3.083.642s-.409-2.408-.404-3.82c.004-1.413.959-1.754 1.393-1.863.763-.193 1.323 0 1.837.61.513.61.706 2.857.256 4.43" fill="#0f0f0f"/><path d="M292 128.984c.016 0-.348-.28-.532-.961-.177-.682-.231-1.6-.235-2.636.02-1.017.077-1.982.386-2.625.28-.654.71-.853.702-.841-.197-.098-.896 1.404-.792 3.468-.137 2.056.192 3.237.471 3.595zm4.275-3.04c.108-1.513-.498-2.652-.534-2.61.047-.004.229 1.162.123 2.589.036 1.457-.482 2.503-.589 2.451.062.133 1.037-.88 1-2.43" fill="#c4c4c4"/><path d="M293.466 122.207c-.01.02.684-.51 1.731-.43 1.119.12 1.431 1.098 1.415 1.04-.004.023-.496-.712-1.442-.785-.924-.08-1.708.187-1.704.175zm3.59 4.917c-.04.066-.088 1.104-.946 1.8-.9.708-1.96.717-1.938.732-.035-.023 1.057.259 2.1-.533.96-.822.771-1.908.784-1.999zc0-.004.004-.006.006-.005-.005-.004-.006-.001-.006.005" fill="#5e5e5e"/><path d="M296.397 131.813c-1.252-.715-2.28-.908-3.243-.523 0 0-1.284.546-1.284 2.762s.064 3.178.096 3.788c.032.61.61 2.151 2.569 1.895 1.958-.257 2.818-1.037 2.818-3.167 0-2.131.296-4.039-.956-4.755zm-.16 5.674c-.45 1.573-2.409 1.285-3.083.642s-.409-2.408-.404-3.82c.004-1.412.959-1.753 1.393-1.863.763-.192 1.323 0 1.837.61.513.61.706 2.858.256 4.431" fill="#0f0f0f"/><path d="M292 138.804c.016-.001-.348-.28-.532-.962-.177-.682-.231-1.6-.235-2.635.02-1.017.077-1.982.386-2.625.28-.655.71-.854.702-.842-.197-.097-.896 1.404-.792 3.468-.137 2.056.192 3.238.471 3.596zm4.275-3.042c.108-1.512-.498-2.65-.534-2.609.047-.003.229 1.162.123 2.59.036 1.457-.482 2.502-.589 2.45.062.133 1.037-.88 1-2.43" fill="#c4c4c4"/><path d="M293.466 132.031c-.01.02.684-.51 1.731-.43 1.119.12 1.431 1.098 1.415 1.04-.004.023-.496-.712-1.442-.786-.924-.079-1.708.188-1.704.176zm3.59 4.917c-.04.066-.088 1.104-.946 1.8-.9.708-1.96.718-1.938.732-.035-.023 1.057.26 2.1-.533.96-.822.771-1.908.784-1.999zc0-.003.004-.006.006-.004-.005-.004-.006-.002-.006.004" fill="#5e5e5e"/><path d="M293.022 133.75a1.096 1.096 0 002.19 0v-6.497a1.095 1.095 0 00-2.19 0v6.497" fill="#3d3d3d"/><path d="M294.132 126.382s.97-.16.97 2.023v4.724c0 .939-.341 1.849-1.354 1.644 0 0 .535-.196.535-1.644v-4.95c0-.834.1-1.601-.15-1.797" fill="#0f0f0f"/><path d="M293.421 134.292c-.043.009-.231-.472-.174-3.83-.077-2.149-.013-3.887.306-3.887-.218.417-.076 1.435 0 3.586.033 2.146-.175 4.13-.132 4.13" fill="#c7c7c7"/><path d="M294.798 132.964s-.128-1.05-.128-2.344c0-1.294.128-2.344.128-2.344s.129 1.05.129 2.344c0 1.294-.129 2.344-.129 2.344" fill="#676767"/><path d="M290.89 114.146v3.324a2.72 2.72 0 002.72 2.72h.981a2.72 2.72 0 002.72-2.72v-3.324a2.72 2.72 0 00-2.72-2.72h-.981a2.72 2.72 0 00-2.72 2.72zm1.813.66c0-.907.53-1.642 1.184-1.642h.427c.654 0 1.184.735 1.184 1.641v2.006c0 .906-.53 1.641-1.184 1.641h-.427c-.654 0-1.184-.735-1.184-1.64v-2.007" fill="#3d3d3d"/><path d="M296.397 112.174c-1.252-.715-2.28-.908-3.243-.523 0 0-1.284.546-1.284 2.762 0 2.215.064 3.178.096 3.788.032.61.61 2.151 2.569 1.894 1.958-.256 2.818-1.036 2.818-3.167 0-2.13.296-4.038-.956-4.753zm-.16 5.674c-.45 1.573-2.409 1.284-3.083.642s-.409-2.408-.404-3.82c.004-1.412.959-1.753 1.393-1.863.763-.193 1.323 0 1.837.61.513.61.706 2.858.256 4.431" fill="#0f0f0f"/><path d="M292 119.16c.016 0-.348-.28-.532-.961-.177-.683-.231-1.6-.235-2.636.02-1.017.077-1.981.386-2.625.28-.654.71-.853.702-.841-.197-.098-.896 1.404-.792 3.467-.137 2.057.192 3.238.471 3.596zm4.275-3.04c.108-1.513-.498-2.652-.534-2.61.047-.004.229 1.162.123 2.589.036 1.457-.482 2.503-.589 2.451.062.133 1.037-.88 1-2.43" fill="#c4c4c4"/><path d="M293.466 112.388c-.01.019.684-.51 1.731-.431 1.119.12 1.431 1.099 1.415 1.04-.004.024-.496-.712-1.442-.785-.924-.08-1.708.187-1.704.176zm3.59 4.916c-.04.067-.088 1.104-.946 1.8-.9.709-1.96.718-1.938.732-.035-.023 1.057.26 2.1-.533.96-.821.771-1.908.784-1.999zc0-.003.004-.006.006-.004-.005-.004-.006-.002-.006.004" fill="#5e5e5e"/><path d="M293.022 123.926a1.096 1.096 0 002.19 0v-6.497a1.096 1.096 0 00-2.19 0v6.497" fill="#3d3d3d"/><path d="M294.132 116.562s.97-.16.97 2.023v4.724c0 .94-.341 1.85-1.354 1.645 0 0 .535-.196.535-1.645v-4.948c0-.835.1-1.602-.15-1.798" fill="#0f0f0f"/><path d="M293.421 124.472c-.043.01-.231-.47-.174-3.829-.077-2.15-.013-3.887.306-3.887-.218.416-.076 1.435 0 3.585.033 2.147-.175 4.13-.132 4.131" fill="#c7c7c7"/><path d="M294.798 123.144s-.078-1.05-.078-2.344c0-1.294.078-2.344.078-2.344a35.15 35.15 0 000 4.688" fill="#676767"/><path d="M293.022 113.924c0 .634.49 1.147 1.095 1.147s1.096-.513 1.096-1.147v-8.148c0-.634-.49-1.147-1.096-1.147-.605 0-1.095.513-1.095 1.147v8.148" fill="#3d3d3d"/><path d="M294.132 104.866s.97-.168.97 2.119v6.292c0 .983-.341 1.936-1.354 1.722 0 0 .535-.205.535-1.722v-6.528c0-.874.1-1.677-.15-1.883" fill="#0f0f0f"/><path d="M293.421 114.493c-.043.01-.231-.493-.174-4.01-.077-2.251-.013-5.416.306-5.416-.218.436-.076 2.848 0 5.1.033 2.247-.175 4.325-.132 4.326" fill="#c7c7c7"/><path d="M294.798 113.103s-.078-1.4-.078-3.127c0-1.727.078-3.127.078-3.127s.079 1.4.079 3.127c0 1.727-.079 3.127-.079 3.127" fill="#676767"/><path d="M293.187 144.682c0 .526.407.953.91.953.502 0 .909-.427.909-.953v-6.766c0-.526-.407-.953-.91-.953-.502 0-.91.427-.91.953v6.766" fill="#3d3d3d"/><path d="M294.109 137.159s.805-.14.805 1.759v5.225c0 .817-.283 1.608-1.125 1.43 0 0 .445-.17.445-1.43v-5.42c0-.726.082-1.393-.125-1.564" fill="#0f0f0f"/><path d="M293.518 145.154c-.035.009-.192-.409-.145-3.33-.064-1.868-.01-4.497.255-4.496-.181.362-.063 2.364 0 4.234.027 1.867-.146 3.592-.11 3.592" fill="#c7c7c7"/><path d="M294.662 144s-.065-1.163-.065-2.597.065-2.596.065-2.596.065 1.162.065 2.596c0 1.434-.065 2.597-.065 2.597" fill="#676767"/></g><g transform="translate(-471.68 136.95) scale(1.5704)" clip-path="url(#d)" style="font-feature-settings:normal;font-variant-caps:normal;font-variant-ligatures:normal;font-variant-numeric:normal" aria-label="Reach you did but not along the shortest path. Try you must again, if you desire its sip."><path d="M289.36-243.56v11h-5.08v-27.24h11.68q1.56 0 2.92.6 1.36.56 2.32 1.56 1 1 1.56 2.36.6 1.36.6 2.88v1.2q0 1.52-.6 2.88-.56 1.32-1.56 2.36-.96 1-2.32 1.56t-2.92.56h-1.36l9.24 11.28h-5.8zm0-11.48v6.44h5.8q1.72 0 2.52-.84t.8-2.36q0-1.44-.8-2.32-.8-.92-2.52-.92zm16.81 9.36q0-1.48.56-2.76.56-1.32 1.48-2.32t2.12-1.56q1.2-.6 2.4-.6h4.56q1.56 0 2.76.68 1.24.64 2.04 1.68.84 1 1.28 2.28.48 1.24.48 2.44v5.16h-12.96v1.08q0 1.44.8 2.04t2.12.6h9.32v4.48h-10.36q-1.36 0-2.56-.52-1.2-.56-2.12-1.48-.88-.92-1.4-2.2t-.52-2.8zm4.76 1.2h8.28v-.2q0-1.56-.8-2.56-.8-1.04-2.16-1.04h-2.48q-.64 0-1.16.32-.52.28-.88.76t-.6 1.16q-.2.64-.2 1.36zm15.4-2q.12-1.28.56-2.44.48-1.16 1.36-2.04t2.2-1.4q1.32-.56 3.04-.56h2.4q1.8 0 3.12.6 1.36.6 2.24 1.6.88.96 1.32 2.24.44 1.24.44 2.52v13.4h-11.36q-1.32 0-2.36-.48-1.04-.52-1.76-1.32-.68-.84-1.04-1.96-.32-1.12-.32-2.4 0-1.24.36-2.32t1.04-1.84q.68-.8 1.68-1.24 1.04-.48 2.32-.48h6.84v-.4q0-.72-.12-1.32-.12-.64-.44-1.08t-.96-.68q-.64-.28-1.72-.28h-1q-1.6 0-2.28.48-.68.44-.92 1.4zm4.12 7.76q0 1.04.4 1.56.44.48.96.48h6.6v-4.08h-6.6q-.52 0-.96.52-.4.52-.4 1.52zm24.13 1.56q.96 0 1.64-.44.68-.48.88-1.28h4.76q-.36 2.88-2.24 4.6t-5.04 1.72h-1.64q-1.72 0-3.12-.52t-2.36-1.48q-.96-1-1.52-2.36-.52-1.4-.52-3.08v-5.48q0-1.72.52-3.08.56-1.36 1.52-2.32t2.36-1.48q1.4-.56 3.12-.56h1.64q3.24 0 5.12 1.72t2.16 4.72h-4.72q-.24-.88-.88-1.36t-1.68-.48h-1.64q-1.28 0-2.12.84-.8.8-.8 2.12v5.2q0 1.32.8 2.16.84.84 2.12.84zm17.53-11.2q-1.04 0-1.72.28-.64.24-1 .68t-.52 1.08q-.12.6-.12 1.32v12.44h-4.48v-27.24h4.48v7.32q.6-.2 1.24-.32.68-.12 1.44-.12h2.4q1.76 0 3.08.6 1.36.6 2.24 1.6.92.96 1.36 2.24.44 1.24.44 2.52v13.4h-4.52V-245q0-.72-.12-1.32-.12-.64-.52-1.08-.36-.44-1-.68-.64-.28-1.68-.28zm34.37 22.76h-4.4l2.04-7.04-6.16-20.28h4.44l3.88 13 3.84-13h4.48zm18.85-27.32q1.76 0 3.12.56 1.4.52 2.36 1.48 1 .96 1.52 2.32t.52 3.08v5.48q0 1.68-.52 3.08-.52 1.36-1.52 2.36-.96.96-2.36 1.48-1.36.52-3.12.52h-1.64q-1.72 0-3.12-.52t-2.4-1.48q-.96-1-1.48-2.36-.48-1.4-.48-3.08v-5.48q0-1.72.48-3.08.52-1.36 1.48-2.32 1-.96 2.4-1.48 1.4-.56 3.12-.56zm-1.64 4.6q-1.24 0-2.12.84-.84.8-.84 2.12v5.2q0 1.32.84 2.16.88.84 2.12.84h1.64q1.28 0 2.08-.84.84-.84.84-2.16v-5.2q0-1.32-.84-2.12-.8-.84-2.08-.84zm20.94 11.2q1 0 1.6-.24.64-.24 1-.64.4-.4.56-.96t.16-1.2v-12.76h4.68v20.36h-4.68v-.52q-.64.28-1.4.4-.72.12-1.56.12h-2.04q-1.8 0-3.16-.6-1.32-.6-2.2-1.56-.88-1-1.36-2.24-.44-1.28-.44-2.56v-13.4h4.64v12.44q0 .72.12 1.32t.48 1.08q.36.44 1 .72.64.24 1.72.24zm33.12 4.56q-1.76 0-3.16-.52-1.36-.52-2.36-1.48-.96-1-1.48-2.36-.52-1.4-.52-3.08v-5.48q0-1.72.52-3.08t1.48-2.32q1-.96 2.36-1.48 1.4-.56 3.16-.56h1.6q1.68 0 3.04.48v-7.36h4.48v27.24zm4.64-4.6v-8.2q0-1.32-.88-2.12-.88-.84-2.16-.84h-1.6q-1.28 0-2.2.84-.88.8-.88 2.12v5.2q0 1.32.88 2.16.92.84 2.2.84zm12.19 4.6h-4.72v-20.36h4.72zm0-22.56h-4.72v-4.68h4.72zm10.44 22.56q-1.76 0-3.16-.52-1.36-.52-2.36-1.48-.96-1-1.48-2.36-.52-1.4-.52-3.08v-5.48q0-1.72.52-3.08t1.48-2.32q1-.96 2.36-1.48 1.4-.56 3.16-.56h1.6q1.68 0 3.04.48v-7.36h4.48v27.24zm4.64-4.6v-8.2q0-1.32-.88-2.12-.88-.84-2.16-.84h-1.6q-1.28 0-2.2.84-.88.8-.88 2.12v5.2q0 1.32.88 2.16.92.84 2.2.84zm31.1-15.76q1.76 0 3.12.56 1.4.52 2.36 1.48 1 .96 1.52 2.32t.52 3.08v5.48q0 1.68-.52 3.08-.52 1.36-1.52 2.36-.96.96-2.36 1.48-1.36.52-3.12.52h-1.6q-1.76 0-3.16-.52-1.36-.52-2.36-1.48-.96-1-1.48-2.36-.52-1.4-.52-3.08v-19.8h4.72v7.4q1.48-.52 3.12-.52zm-1.6 4.6q-1.28 0-2.04.8-.72.8-.76 2.04v5.32q0 1.32.76 2.16t2.04.84h1.6q1.28 0 2.08-.84t.8-2.16v-5.2q0-1.32-.8-2.12-.8-.84-2.08-.84zm21.1 11.2q1 0 1.6-.24.64-.24 1-.64.4-.4.56-.96t.16-1.2v-12.76h4.68v20.36h-4.68v-.52q-.64.28-1.4.4-.72.12-1.56.12h-2.04q-1.8 0-3.16-.6-1.32-.6-2.2-1.56-.88-1-1.36-2.24-.44-1.28-.44-2.56v-13.4h4.64v12.44q0 .72.12 1.32t.48 1.08q.36.44 1 .72.64.24 1.72.24zm10.2-15.8h3.76v-6.88h4.72v6.88h3.76v4.6h-3.76v15.76h-4.72v-15.76h-3.76zm37.83 4.56q-1.04 0-1.72.28-.64.24-1 .68t-.52 1.08q-.12.6-.12 1.32v12.44h-4.68v-20.36h4.68v.52q1.4-.52 3-.52h2.08q1.76 0 3.12.6t2.24 1.6q.92.96 1.36 2.24.48 1.24.48 2.52v13.4h-4.68V-245q0-.72-.12-1.32-.12-.64-.48-1.08-.32-.44-.96-.68-.64-.28-1.72-.28zm20.48-4.56q1.76 0 3.12.56 1.4.52 2.36 1.48 1 .96 1.52 2.32t.52 3.08v5.48q0 1.68-.52 3.08-.52 1.36-1.52 2.36-.96.96-2.36 1.48-1.36.52-3.12.52h-1.64q-1.72 0-3.12-.52t-2.4-1.48q-.96-1-1.48-2.36-.48-1.4-.48-3.08v-5.48q0-1.72.48-3.08.52-1.36 1.48-2.32 1-.96 2.4-1.48 1.4-.56 3.12-.56zm-1.64 4.6q-1.24 0-2.12.84-.84.8-.84 2.12v5.2q0 1.32.84 2.16.88.84 2.12.84h1.64q1.28 0 2.08-.84.84-.84.84-2.16v-5.2q0-1.32-.84-2.12-.8-.84-2.08-.84zm11.14-4.6h3.76v-6.88h4.72v6.88h3.76v4.6h-3.76v15.76h-4.72v-15.76h-3.76zm-373.5 56.44q.12-1.28.56-2.44.48-1.16 1.36-2.04t2.2-1.4q1.32-.56 3.04-.56h2.4q1.8 0 3.12.6 1.36.6 2.24 1.6.88.96 1.32 2.24.44 1.24.44 2.52v13.4h-11.36q-1.32 0-2.36-.48-1.04-.52-1.76-1.32-.68-.84-1.04-1.96-.32-1.12-.32-2.4 0-1.24.36-2.32t1.04-1.84q.68-.8 1.68-1.24 1.04-.48 2.32-.48h6.84v-.4q0-.72-.12-1.32-.12-.64-.44-1.08t-.96-.68q-.64-.28-1.72-.28h-1q-1.6 0-2.28.48-.68.44-.92 1.4zm4.12 7.76q0 1.04.4 1.56.44.48.96.48h6.6v-4.08h-6.6q-.52 0-.96.52-.4.52-.4 1.52zm15.93-21.08h4.72v27.24h-4.72zm17.07 6.88q1.76 0 3.12.56 1.4.52 2.36 1.48 1 .96 1.52 2.32t.52 3.08v5.48q0 1.68-.52 3.08-.52 1.36-1.52 2.36-.96.96-2.36 1.48-1.36.52-3.12.52h-1.64q-1.72 0-3.12-.52t-2.4-1.48q-.96-1-1.48-2.36-.48-1.4-.48-3.08v-5.48q0-1.72.48-3.08.52-1.36 1.48-2.32 1-.96 2.4-1.48 1.4-.56 3.12-.56zm-1.64 4.6q-1.24 0-2.12.84-.84.8-.84 2.12v5.2q0 1.32.84 2.16.88.84 2.12.84h1.64q1.28 0 2.08-.84.84-.84.84-2.16v-5.2q0-1.32-.84-2.12-.8-.84-2.08-.84zm20.46-.04q-1.04 0-1.72.28-.64.24-1 .68t-.52 1.08q-.12.6-.12 1.32v12.44h-4.68v-20.36h4.68v.52q1.4-.52 3-.52h2.08q1.76 0 3.12.6t2.24 1.6q.92.96 1.36 2.24.48 1.24.48 2.52v13.4h-4.68V-195q0-.72-.12-1.32-.12-.64-.48-1.08-.32-.44-.96-.68-.64-.28-1.72-.28zm28.28-4.56v20.4q0 1.64-.48 2.88-.48 1.28-1.32 2.16-.84.92-2.04 1.36-1.2.48-2.64.48h-9.16v-4.44h8.4q1.24 0 2.04-.76.84-.76.84-2.12v-.24h-5.96q-1.32 0-2.52-.44-1.16-.48-2.04-1.4t-1.4-2.24q-.52-1.36-.52-3.12v-5.32q0-1.76.52-3.08.52-1.36 1.4-2.28t2.04-1.36q1.2-.48 2.52-.48zm-4.4 4.44h-4.92q-.6 0-1.12.28-.52.24-.92.72-.4.44-.64 1t-.24 1.24v4.32q0 .68.24 1.28t.64 1.04.92.72q.52.24 1.12.24h4.92zm21.41-4.44h3.76v-6.88h4.72v6.88h3.76v4.6h-3.76v15.76h-4.72v-15.76H366zm22.44 4.56q-1.04 0-1.72.28-.64.24-1 .68t-.52 1.08q-.12.6-.12 1.32v12.44h-4.48v-27.24h4.48v7.32q.6-.2 1.24-.32.68-.12 1.44-.12h2.4q1.76 0 3.08.6 1.36.6 2.24 1.6.92.96 1.36 2.24.44 1.24.44 2.52v13.4h-4.52V-195q0-.72-.12-1.32-.12-.64-.52-1.08-.36-.44-1-.68-.64-.28-1.68-.28zm11.48 2.68q0-1.48.56-2.76.56-1.32 1.48-2.32t2.12-1.56q1.2-.6 2.4-.6h4.56q1.56 0 2.76.68 1.24.64 2.04 1.68.84 1 1.28 2.28.48 1.24.48 2.44v5.16h-12.96v1.08q0 1.44.8 2.04t2.12.6h9.32v4.48h-10.36q-1.36 0-2.56-.52-1.2-.56-2.12-1.48-.88-.92-1.4-2.2t-.52-2.8zm4.76 1.2h8.28v-.2q0-1.56-.8-2.56-.8-1.04-2.16-1.04h-2.48q-.64 0-1.16.32-.52.28-.88.76t-.6 1.16q-.2.64-.2 1.36zm44.88-4.48h-7.96q-.52 0-.88.2-.32.16-.56.48t-.36.72q-.12.36-.12.72 0 .76.48 1.4.52.6 1.24.6h4.48q1.4 0 2.44.48 1.08.48 1.76 1.32.72.84 1.04 2 .36 1.16.36 2.48v.12q0 1.32-.44 2.4-.4 1.08-1.16 1.84t-1.8 1.2-2.2.44h-9.68v-3.96h8.32q.92 0 1.68-.52.8-.52.84-1.56v.04q0-.6-.24-1-.2-.4-.56-.64-.36-.28-.8-.4t-.92-.12h-3.6q-1.76 0-2.92-.56-1.12-.56-1.8-1.44-.64-.88-.88-2t-.24-2.28q0-1.2.36-2.32t1.04-1.96q.72-.88 1.76-1.36t2.36-.48h8.96zm12.78.6q-1.04 0-1.72.28-.64.24-1 .68t-.52 1.08q-.12.6-.12 1.32v12.44h-4.48v-27.24h4.48v7.32q.6-.2 1.24-.32.68-.12 1.44-.12h2.4q1.76 0 3.08.6 1.36.6 2.24 1.6.92.96 1.36 2.24.44 1.24.44 2.52v13.4h-4.52V-195q0-.72-.12-1.32-.12-.64-.52-1.08-.36-.44-1-.68-.64-.28-1.68-.28zm20.49-4.56q1.76 0 3.12.56 1.4.52 2.36 1.48 1 .96 1.52 2.32t.52 3.08v5.48q0 1.68-.52 3.08-.52 1.36-1.52 2.36-.96.96-2.36 1.48-1.36.52-3.12.52h-1.64q-1.72 0-3.12-.52t-2.4-1.48q-.96-1-1.48-2.36-.48-1.4-.48-3.08v-5.48q0-1.72.48-3.08.52-1.36 1.48-2.32 1-.96 2.4-1.48 1.4-.56 3.12-.56zm-1.64 4.6q-1.24 0-2.12.84-.84.8-.84 2.12v5.2q0 1.32.84 2.16.88.84 2.12.84h1.64q1.28 0 2.08-.84.84-.84.84-2.16v-5.2q0-1.32-.84-2.12-.8-.84-2.08-.84zm17.14-.44q.56-.92 1.48-1.6.96-.72 2.08-1.2 1.16-.48 2.44-.72t2.56-.24h.52v4.96h-.52q-1.44 0-2.96.6-1.52.56-2.8 1.52-1.24.92-2.04 2.08-.76 1.16-.76 2.32v8.48h-4.96v-20.52h4.96zm11.03-4.16h3.76v-6.88h4.72v6.88h3.76v4.6h-3.76v15.76h-4.72v-15.76h-3.76zm14.16 7.24q0-1.48.56-2.76.56-1.32 1.48-2.32t2.12-1.56q1.2-.6 2.4-.6h4.56q1.56 0 2.76.68 1.24.64 2.04 1.68.84 1 1.28 2.28.48 1.24.48 2.44v5.16h-12.96v1.08q0 1.44.8 2.04t2.12.6h9.32v4.48h-10.36q-1.36 0-2.56-.52-1.2-.56-2.12-1.48-.88-.92-1.4-2.2t-.52-2.8zm4.76 1.2h8.28v-.2q0-1.56-.8-2.56-.8-1.04-2.16-1.04h-2.48q-.64 0-1.16.32-.52.28-.88.76t-.6 1.16q-.2.64-.2 1.36zm29.95-4.48h-7.96q-.52 0-.88.2-.32.16-.56.48t-.36.72q-.12.36-.12.72 0 .76.48 1.4.52.6 1.24.6h4.48q1.4 0 2.44.48 1.08.48 1.76 1.32.72.84 1.04 2 .36 1.16.36 2.48v.12q0 1.32-.44 2.4-.4 1.08-1.16 1.84t-1.8 1.2-2.2.44h-9.68v-3.96h8.32q.92 0 1.68-.52.8-.52.84-1.56v.04q0-.6-.24-1-.2-.4-.56-.64-.36-.28-.8-.4t-.92-.12h-3.6q-1.76 0-2.92-.56-1.12-.56-1.8-1.44-.64-.88-.88-2t-.24-2.28q0-1.2.36-2.32t1.04-1.96q.72-.88 1.76-1.36t2.36-.48h8.96zm3.95-3.96h3.76v-6.88h4.72v6.88h3.76v4.6h-3.76v15.76h-4.72v-15.76h-3.76zm38.27 0q1.76 0 3.12.56 1.4.52 2.36 1.48 1 .96 1.52 2.32t.52 3.08v5.48q0 1.68-.52 3.08-.52 1.36-1.52 2.36-.96.96-2.36 1.48-1.36.52-3.12.52h-1.28q-1.76 0-3.2-.56v7.52h-4.64v-27.32zm-4.48 4.6v8.16q0 1.32.8 2.16t2.08.84h1.6q1.28 0 2.12-.84t.84-2.16v-5.2q0-1.32-.84-2.12-.84-.84-2.12-.84zm14.34 1.84q.12-1.28.56-2.44.48-1.16 1.36-2.04t2.2-1.4q1.32-.56 3.04-.56h2.4q1.8 0 3.12.6 1.36.6 2.24 1.6.88.96 1.32 2.24.44 1.24.44 2.52v13.4h-11.36q-1.32 0-2.36-.48-1.04-.52-1.76-1.32-.68-.84-1.04-1.96-.32-1.12-.32-2.4 0-1.24.36-2.32t1.04-1.84q.68-.8 1.68-1.24 1.04-.48 2.32-.48h6.84v-.4q0-.72-.12-1.32-.12-.64-.44-1.08t-.96-.68q-.64-.28-1.72-.28h-1q-1.6 0-2.28.48-.68.44-.92 1.4zm4.12 7.76q0 1.04.4 1.56.44.48.96.48h6.6v-4.08h-6.6q-.52 0-.96.52-.4.52-.4 1.52zm14.78-14.2h3.76v-6.88h4.72v6.88h3.76v4.6h-3.76v15.76h-4.72v-15.76h-3.76zm22.43 4.56q-1.04 0-1.72.28-.64.24-1 .68t-.52 1.08q-.12.6-.12 1.32v12.44h-4.48v-27.24h4.48v7.32q.6-.2 1.24-.32.68-.12 1.44-.12h2.4q1.76 0 3.08.6 1.36.6 2.24 1.6.92.96 1.36 2.24.44 1.24.44 2.52v13.4h-4.52V-195q0-.72-.12-1.32-.12-.64-.52-1.08-.36-.44-1-.68-.64-.28-1.68-.28zm12.09 16.72v-4.6h4.76v4.6zm-357.45 26.88h-6.96v-5.04h18.88v5.04h-7.04v22.2h-4.88zm19.28 6q.56-.92 1.48-1.6.96-.72 2.08-1.2 1.16-.48 2.44-.72t2.56-.24h.52v4.96h-.52q-1.44 0-2.96.6-1.52.56-2.8 1.52-1.24.92-2.04 2.08-.76 1.16-.76 2.32v8.48h-4.96v-20.52h4.96zm19.55 23.16h-4.4l2.04-7.04-6.16-20.28h4.44l3.88 13 3.84-13h4.48zm32.73 0h-4.4l2.04-7.04-6.16-20.28h4.44l3.88 13 3.84-13h4.48zm18.86-27.32q1.76 0 3.12.56 1.4.52 2.36 1.48 1 .96 1.52 2.32t.52 3.08v5.48q0 1.68-.52 3.08-.52 1.36-1.52 2.36-.96.96-2.36 1.48-1.36.52-3.12.52h-1.64q-1.72 0-3.12-.52t-2.4-1.48q-.96-1-1.48-2.36-.48-1.4-.48-3.08v-5.48q0-1.72.48-3.08.52-1.36 1.48-2.32 1-.96 2.4-1.48 1.4-.56 3.12-.56zm-1.64 4.6q-1.24 0-2.12.84-.84.8-.84 2.12v5.2q0 1.32.84 2.16.88.84 2.12.84h1.64q1.28 0 2.08-.84.84-.84.84-2.16v-5.2q0-1.32-.84-2.12-.8-.84-2.08-.84zm20.94 11.2q1 0 1.6-.24.64-.24 1-.64.4-.4.56-.96t.16-1.2v-12.76H424v20.36h-4.68v-.52q-.64.28-1.4.4-.72.12-1.56.12h-2.04q-1.8 0-3.16-.6-1.32-.6-2.2-1.56-.88-1-1.36-2.24-.44-1.28-.44-2.56v-13.4h4.64v12.44q0 .72.12 1.32t.48 1.08q.36.44 1 .72.64.24 1.72.24zm46.6-11.24q-1.04 0-1.68.28-.64.24-1 .68-.32.44-.44 1.04t-.12 1.32v12.48h-4.68V-145q0-.72-.12-1.32-.12-.64-.48-1.08-.32-.44-.96-.68-.64-.28-1.72-.28h-.96q-1.04 0-1.72.28-.64.24-1 .68t-.52 1.08q-.12.6-.12 1.32v12.44h-4.68v-20.36h4.68v.6q1.56-.6 3.32-.6h1.76q1.6 0 2.84.48t2.12 1.32q.96-.84 2.24-1.32t2.88-.48h2.08q1.76 0 3.12.6t2.24 1.6q.92.96 1.36 2.24.48 1.24.48 2.52v13.4h-4.64V-145q0-.72-.12-1.32-.12-.64-.48-1.08t-1-.68q-.64-.28-1.68-.28zm20.98 11.24q1 0 1.6-.24.64-.24 1-.64.4-.4.56-.96t.16-1.2v-12.76h4.68v20.36h-4.68v-.52q-.64.28-1.4.4-.72.12-1.56.12h-2.04q-1.8 0-3.16-.6-1.32-.6-2.2-1.56-.88-1-1.36-2.24-.44-1.28-.44-2.56v-13.4h4.64v12.44q0 .72.12 1.32t.48 1.08q.36.44 1 .72.64.24 1.72.24zm25.24-11.84h-7.96q-.52 0-.88.2-.32.16-.56.48t-.36.72q-.12.36-.12.72 0 .76.48 1.4.52.6 1.24.6h4.48q1.4 0 2.44.48 1.08.48 1.76 1.32.72.84 1.04 2 .36 1.16.36 2.48v.12q0 1.32-.44 2.4-.4 1.08-1.16 1.84t-1.8 1.2-2.2.44h-9.68v-3.96h8.32q.92 0 1.68-.52.8-.52.84-1.56v.04q0-.6-.24-1-.2-.4-.56-.64-.36-.28-.8-.4t-.92-.12h-3.6q-1.76 0-2.92-.56-1.12-.56-1.8-1.44-.64-.88-.88-2t-.24-2.28q0-1.2.36-2.32t1.04-1.96q.72-.88 1.76-1.36t2.36-.48h8.96zm3.94-3.96h3.76v-6.88h4.72v6.88H525v4.6h-3.76v15.76h-4.72v-15.76h-3.76zm29 6.44q.12-1.28.56-2.44.48-1.16 1.36-2.04t2.2-1.4q1.32-.56 3.04-.56h2.4q1.8 0 3.12.6 1.36.6 2.24 1.6.88.96 1.32 2.24.44 1.24.44 2.52v13.4h-11.36q-1.32 0-2.36-.48-1.04-.52-1.76-1.32-.68-.84-1.04-1.96-.32-1.12-.32-2.4 0-1.24.36-2.32t1.04-1.84q.68-.8 1.68-1.24 1.04-.48 2.32-.48h6.84v-.4q0-.72-.12-1.32-.12-.64-.44-1.08t-.96-.68q-.64-.28-1.72-.28h-1q-1.6 0-2.28.48-.68.44-.92 1.4zm4.12 7.76q0 1.04.4 1.56.44.48.96.48h6.6v-4.08h-6.6q-.52 0-.96.52-.4.52-.4 1.52zm32.13-14.2v20.4q0 1.64-.48 2.88-.48 1.28-1.32 2.16-.84.92-2.04 1.36-1.2.48-2.64.48h-9.16v-4.44h8.4q1.24 0 2.04-.76.84-.76.84-2.12v-.24h-5.96q-1.32 0-2.52-.44-1.16-.48-2.04-1.4t-1.4-2.24q-.52-1.36-.52-3.12v-5.32q0-1.76.52-3.08.52-1.36 1.4-2.28t2.04-1.36q1.2-.48 2.52-.48zm-4.4 4.44h-4.92q-.6 0-1.12.28-.52.24-.92.72-.4.44-.64 1t-.24 1.24v4.32q0 .68.24 1.28t.64 1.04.92.72q.52.24 1.12.24h4.92zm6.98 2q.12-1.28.56-2.44.48-1.16 1.36-2.04t2.2-1.4q1.32-.56 3.04-.56h2.4q1.8 0 3.12.6 1.36.6 2.24 1.6.88.96 1.32 2.24.44 1.24.44 2.52v13.4h-11.36q-1.32 0-2.36-.48-1.04-.52-1.76-1.32-.68-.84-1.04-1.96-.32-1.12-.32-2.4 0-1.24.36-2.32t1.04-1.84q.68-.8 1.68-1.24 1.04-.48 2.32-.48h6.84v-.4q0-.72-.12-1.32-.12-.64-.44-1.08t-.96-.68q-.64-.28-1.72-.28h-1q-1.6 0-2.28.48-.68.44-.92 1.4zm4.12 7.76q0 1.04.4 1.56.44.48.96.48h6.6v-4.08h-6.6q-.52 0-.96.52-.4.52-.4 1.52zm20.53 6.16h-4.72v-20.36h4.72zm0-22.56h-4.72v-4.68h4.72zm11.76 6.76q-1.04 0-1.72.28-.64.24-1 .68t-.52 1.08q-.12.6-.12 1.32v12.44h-4.68v-20.36h4.68v.52q1.4-.52 3-.52h2.08q1.76 0 3.12.6t2.24 1.6q.92.96 1.36 2.24.48 1.24.48 2.52v13.4h-4.68V-145q0-.72-.12-1.32-.12-.64-.48-1.08-.32-.44-.96-.68-.64-.28-1.72-.28zM628.44-131l.64-5.24h4.76l-1.08 5.24zM304.07-82.564h-4.72v-20.36h4.72zm0-22.56h-4.72v-4.68h4.72zm15.08-.396h-1.44q-1.36 0-2.2.84t-.84 2.16v.88h4.48v4.6h-4.48v14.52h-4.2v-14.52h-3.64v-4.6h3.64v-.68q0-1.72.48-3.08.48-1.4 1.4-2.36.96-.96 2.28-1.48 1.36-.56 3.08-.56h1.44zm25.41 29.916h-4.4l2.04-7.04-6.16-20.28h4.44l3.88 13 3.84-13h4.48zm18.86-27.316q1.76 0 3.12.56 1.4.52 2.36 1.48 1 .96 1.52 2.32t.52 3.08V-90q0 1.68-.52 3.08-.52 1.36-1.52 2.36-.96.96-2.36 1.48-1.36.52-3.12.52h-1.64q-1.72 0-3.12-.52t-2.4-1.48q-.96-1-1.48-2.36-.48-1.4-.48-3.08v-5.48q0-1.72.48-3.08.52-1.36 1.48-2.32 1-.96 2.4-1.48 1.4-.56 3.12-.56zm-1.64 4.6q-1.24 0-2.12.84-.84.8-.84 2.12v5.2q0 1.32.84 2.16.88.84 2.12.84h1.64q1.28 0 2.08-.84.84-.84.84-2.16v-5.2q0-1.32-.84-2.12-.8-.84-2.08-.84zm20.94 11.196q1 0 1.6-.24.64-.24 1-.64.4-.4.56-.96t.16-1.2v-12.76h4.68v20.36h-4.68v-.52q-.64.28-1.4.4-.72.12-1.56.12h-2.04q-1.8 0-3.16-.6-1.32-.6-2.2-1.56-.88-1-1.36-2.24-.44-1.28-.44-2.56v-13.4h4.64v12.44q0 .72.12 1.32t.48 1.08q.36.44 1 .72.64.24 1.72.24zm33.12 4.56q-1.76 0-3.16-.52-1.36-.52-2.36-1.48-.96-1-1.48-2.36-.52-1.4-.52-3.08v-5.48q0-1.72.52-3.08t1.48-2.32q1-.96 2.36-1.48 1.4-.56 3.16-.56h1.6q1.68 0 3.04.48v-7.36h4.48v27.24zm4.64-4.6v-8.2q0-1.32-.88-2.12-.88-.84-2.16-.84h-1.6q-1.28 0-2.2.84-.88.8-.88 2.12v5.2q0 1.32.88 2.16.92.84 2.2.84zm6.98-8.52q0-1.48.56-2.76.56-1.32 1.48-2.32t2.12-1.56q1.2-.6 2.4-.6h4.56q1.56 0 2.76.68 1.24.64 2.04 1.68.84 1 1.28 2.28.48 1.24.48 2.44v5.16h-12.96v1.08q0 1.44.8 2.04t2.12.6h9.32v4.48h-10.36q-1.36 0-2.56-.52-1.2-.56-2.12-1.48-.88-.92-1.4-2.2t-.52-2.8zm4.76 1.2h8.28v-.2q0-1.56-.8-2.56-.8-1.04-2.16-1.04h-2.48q-.64 0-1.16.32-.52.28-.88.76t-.6 1.16q-.2.64-.2 1.36zm29.96-4.48h-7.96q-.52 0-.88.2-.32.16-.56.48t-.36.72q-.12.36-.12.72 0 .76.48 1.4.52.6 1.24.6h4.48q1.4 0 2.44.48 1.08.48 1.76 1.32.72.84 1.04 2 .36 1.16.36 2.48v.12q0 1.32-.44 2.4-.4 1.08-1.16 1.84t-1.8 1.2-2.2.44h-9.68v-3.96h8.32q.92 0 1.68-.52.8-.52.84-1.56v.04q0-.6-.24-1-.2-.4-.56-.64-.36-.28-.8-.4t-.92-.12h-3.6q-1.76 0-2.92-.56-1.12-.56-1.8-1.44-.64-.88-.88-2t-.24-2.28q0-1.2.36-2.32t1.04-1.96q.72-.88 1.76-1.36t2.36-.48h8.96zm9.7 16.4h-4.72v-20.36h4.72zm0-22.56h-4.72v-4.68h4.72zm8.44 6.36q.56-.92 1.48-1.6.96-.72 2.08-1.2 1.16-.48 2.44-.72t2.56-.24h.52v4.96h-.52q-1.44 0-2.96.6-1.52.56-2.8 1.52-1.24.92-2.04 2.08-.76 1.16-.76 2.32v8.48h-4.96v-20.52h4.96zm11.6 3.08q0-1.48.56-2.76.56-1.32 1.48-2.32t2.12-1.56q1.2-.6 2.4-.6h4.56q1.56 0 2.76.68 1.24.64 2.04 1.68.84 1 1.28 2.28.48 1.24.48 2.44v5.16h-12.96v1.08q0 1.44.8 2.04t2.12.6h9.32v4.48h-10.36q-1.36 0-2.56-.52-1.2-.56-2.12-1.48-.88-.92-1.4-2.2t-.52-2.8zm4.76 1.2h8.28v-.2q0-1.56-.8-2.56-.8-1.04-2.16-1.04h-2.48q-.64 0-1.16.32-.52.28-.88.76t-.6 1.16q-.2.64-.2 1.36zm35.59 11.92h-4.72v-20.36h4.72zm0-22.56h-4.72v-4.68h4.72zm2.45 2.204h3.76v-6.88h4.72v6.88h3.76v4.6h-3.76v15.76h-4.72v-15.76h-3.76zm28.63 3.956h-7.96q-.52 0-.88.2-.32.16-.56.48t-.36.72q-.12.36-.12.72 0 .76.48 1.4.52.6 1.24.6h4.48q1.4 0 2.44.48 1.08.48 1.76 1.32.72.84 1.04 2 .36 1.16.36 2.48v.12q0 1.32-.44 2.4-.4 1.08-1.16 1.84t-1.8 1.2-2.2.44h-9.68v-3.96h8.32q.92 0 1.68-.52.8-.52.84-1.56v.04q0-.6-.24-1-.2-.4-.56-.64-.36-.28-.8-.4t-.92-.12h-3.6q-1.76 0-2.92-.56-1.12-.56-1.8-1.44-.64-.88-.88-2t-.24-2.28q0-1.2.36-2.32t1.04-1.96q.72-.88 1.76-1.36t2.36-.48h8.96zm33.91 0h-7.96q-.52 0-.88.2-.32.16-.56.48t-.36.72q-.12.36-.12.72 0 .76.48 1.4.52.6 1.24.6h4.48q1.4 0 2.44.48 1.08.48 1.76 1.32.72.84 1.04 2 .36 1.16.36 2.48v.12q0 1.32-.44 2.4-.4 1.08-1.16 1.84t-1.8 1.2-2.2.44h-9.68v-3.96h8.32q.92 0 1.68-.52.8-.52.84-1.56v.04q0-.6-.24-1-.2-.4-.56-.64-.36-.28-.8-.4t-.92-.12h-3.6q-1.76 0-2.92-.56-1.12-.56-1.8-1.44-.64-.88-.88-2t-.24-2.28q0-1.2.36-2.32t1.04-1.96q.72-.88 1.76-1.36t2.36-.48h8.96zm9.7 16.4h-4.72v-20.36h4.72zm0-22.56h-4.72v-4.68h4.72zm12.2 2.204q1.76 0 3.12.56 1.4.52 2.36 1.48 1 .96 1.52 2.32t.52 3.08V-90q0 1.68-.52 3.08-.52 1.36-1.52 2.36-.96.96-2.36 1.48-1.36.52-3.12.52h-1.28q-1.76 0-3.2-.56v7.52h-4.64v-27.32zm-4.48 4.6v8.16q0 1.32.8 2.16t2.08.84h1.6q1.28 0 2.12-.84t.84-2.16v-5.2q0-1.32-.84-2.12-.84-.84-2.12-.84zm15.02 16.676v-4.6h4.76v4.6z"/></g><g transform="translate(123.43 -33.627) scale(.16251)" clip-path="url(#e)" style="font-feature-settings:normal;font-variant-caps:normal;font-variant-ligatures:normal;font-variant-numeric:normal" aria-label="To unite all clones unto yourself, utter the magical words &quot;Unify&quot;."><path d="M196.46 906.23h24.668v3.32h-10.352v25.84h-3.965v-25.84H196.46z"/><path d="M226.48 916.04q-2.89 0-4.57 2.266-1.68 2.246-1.68 6.171t1.66 6.192q1.68 2.246 4.59 2.246 2.871 0 4.55-2.266t1.68-6.171q0-3.887-1.68-6.153-1.679-2.285-4.55-2.285zm0-3.047q4.688 0 7.363 3.047t2.676 8.438q0 5.37-2.676 8.437-2.675 3.047-7.363 3.047-4.707 0-7.383-3.047-2.656-3.066-2.656-8.438 0-5.39 2.656-8.437 2.676-3.047 7.383-3.047zm28.34 13.767v-13.242h3.594v13.105q0 3.106 1.21 4.668 1.212 1.543 3.633 1.543 2.91 0 4.59-1.855 1.7-1.856 1.7-5.06v-12.401h3.593v21.875h-3.594v-3.36q-1.308 1.993-3.046 2.97-1.72.956-4.004.956-3.77 0-5.723-2.343-1.953-2.344-1.953-6.856zm43.95-4.57v13.203h-3.594v-13.086q0-3.106-1.21-4.648-1.212-1.543-3.633-1.543-2.91 0-4.59 1.855t-1.68 5.059v12.363h-3.613v-21.875h3.613v3.398q1.29-1.973 3.027-2.95 1.758-.976 4.043-.976 3.77 0 5.703 2.344 1.934 2.324 1.934 6.856zm7.2-8.67h3.594v21.875h-3.594zm0-8.516h3.594v4.551h-3.594zm14.65 2.296v6.21h7.402v2.794h-7.402v11.875q0 2.676.723 3.437.742.762 2.988.762h3.691v3.008h-3.691q-4.16 0-5.742-1.543-1.582-1.563-1.582-5.664v-11.875h-2.637v-2.793h2.637V907.3zm30.86 16.25v1.758h-16.523q.234 3.71 2.227 5.664 2.011 1.933 5.585 1.933 2.07 0 4.004-.507 1.953-.508 3.868-1.524v3.399q-1.934.82-3.965 1.25-2.031.43-4.121.43-5.235 0-8.301-3.048-3.047-3.046-3.047-8.242 0-5.37 2.89-8.515 2.91-3.164 7.833-3.164 4.414 0 6.972 2.851 2.578 2.832 2.578 7.715zm-3.594-1.055q-.039-2.949-1.66-4.707-1.602-1.758-4.258-1.758-3.008 0-4.824 1.7-1.797 1.699-2.07 4.785zm32.174 1.895q-4.356 0-6.035.996-1.68.996-1.68 3.398 0 1.915 1.25 3.047 1.27 1.114 3.438 1.114 2.988 0 4.785-2.11 1.816-2.129 1.816-5.644v-.801zm7.168-1.484v12.48h-3.594v-3.32q-1.23 1.991-3.066 2.948-1.836.938-4.492.938-3.36 0-5.352-1.875-1.973-1.895-1.973-5.059 0-3.691 2.461-5.566 2.48-1.875 7.383-1.875h5.04v-.352q0-2.48-1.642-3.828-1.62-1.367-4.57-1.367-1.875 0-3.652.45-1.778.449-3.418 1.347v-3.32q1.972-.762 3.828-1.133 1.855-.39 3.613-.39 4.746 0 7.09 2.46t2.344 7.461zM394.65 905h3.594v30.391h-3.594zm11.09 0h3.594v30.391h-3.594zm39.57 9.36v3.36q-1.523-.84-3.066-1.25-1.524-.43-3.086-.43-3.496 0-5.43 2.226-1.934 2.207-1.934 6.211t1.934 6.23q1.934 2.208 5.43 2.208 1.562 0 3.086-.41 1.543-.43 3.066-1.27v3.32q-1.504.703-3.125 1.055-1.602.352-3.418.352-4.941 0-7.852-3.106t-2.91-8.379q0-5.351 2.93-8.418 2.95-3.066 8.066-3.066 1.66 0 3.243.351 1.582.332 3.066 1.016zm6.29-9.36h3.594v30.391H451.6zm19.57 11.04q-2.89 0-4.57 2.266-1.68 2.246-1.68 6.171t1.66 6.192q1.68 2.246 4.59 2.246 2.871 0 4.55-2.266t1.68-6.171q0-3.887-1.68-6.153-1.679-2.285-4.55-2.285zm0-3.047q4.688 0 7.363 3.047t2.676 8.438q0 5.37-2.676 8.437-2.676 3.047-7.363 3.047-4.707 0-7.383-3.047-2.656-3.066-2.656-8.438 0-5.39 2.656-8.437 2.676-3.047 7.383-3.047zm34.16 9.197v13.203h-3.594v-13.086q0-3.106-1.21-4.648-1.212-1.543-3.633-1.543-2.91 0-4.59 1.855t-1.68 5.059v12.363h-3.613v-21.875h3.613v3.398q1.29-1.973 3.027-2.95 1.758-.976 4.043-.976 3.77 0 5.703 2.344 1.934 2.324 1.934 6.856zm25.92 1.36v1.758h-16.523q.234 3.71 2.227 5.664 2.011 1.933 5.585 1.933 2.07 0 4.004-.507 1.954-.508 3.868-1.524v3.399q-1.934.82-3.965 1.25-2.031.43-4.121.43-5.235 0-8.301-3.048-3.047-3.046-3.047-8.242 0-5.37 2.89-8.515 2.91-3.164 7.833-3.164 4.414 0 6.972 2.851 2.578 2.832 2.578 7.715zm-3.594-1.055q-.039-2.949-1.66-4.707-1.602-1.758-4.258-1.758-3.008 0-4.824 1.7-1.797 1.699-2.07 4.785zm23.434-8.335v3.398q-1.523-.78-3.164-1.171-1.64-.391-3.398-.391-2.676 0-4.024.82-1.328.82-1.328 2.461 0 1.25.957 1.973.957.703 3.848 1.347l1.23.274q3.828.82 5.43 2.324 1.621 1.485 1.621 4.16 0 3.047-2.422 4.825-2.402 1.777-6.621 1.777-1.758 0-3.672-.352-1.894-.332-4.004-1.015v-3.711q1.992 1.035 3.926 1.562 1.934.508 3.828.508 2.54 0 3.906-.86 1.368-.878 1.368-2.46 0-1.465-.997-2.246-.976-.782-4.316-1.504l-1.25-.293q-3.34-.703-4.824-2.149-1.485-1.464-1.485-4.003 0-3.086 2.188-4.766t6.21-1.68q1.993 0 3.75.293t3.243.88zm19.28 12.6v-13.242h3.594v13.105q0 3.106 1.21 4.668 1.212 1.543 3.634 1.543 2.91 0 4.59-1.855 1.698-1.856 1.698-5.06v-12.401h3.594v21.875h-3.594v-3.36q-1.308 1.993-3.046 2.97-1.72.956-4.004.956-3.77 0-5.723-2.343-1.953-2.344-1.953-6.856zm43.94-4.57v13.203h-3.594v-13.086q0-3.106-1.21-4.648t-3.634-1.543q-2.91 0-4.59 1.855-1.679 1.856-1.679 5.059v12.363h-3.613v-21.875h3.613v3.398q1.29-1.973 3.027-2.95 1.758-.976 4.043-.976 3.77 0 5.703 2.344 1.934 2.324 1.934 6.856zm10.77-14.89v6.21h7.402v2.794h-7.402v11.875q0 2.676.723 3.437.742.762 2.988.762h3.691v3.008h-3.691q-4.16 0-5.742-1.543-1.582-1.563-1.582-5.664v-11.875h-2.637v-2.793h2.637V907.3zm20.62 8.74q-2.89 0-4.57 2.266-1.68 2.246-1.68 6.171t1.66 6.192q1.68 2.246 4.59 2.246 2.871 0 4.55-2.266t1.68-6.171q0-3.887-1.68-6.153-1.679-2.285-4.55-2.285zm0-3.047q4.688 0 7.363 3.047t2.676 8.438q0 5.37-2.676 8.437-2.675 3.047-7.363 3.047-4.707 0-7.383-3.047-2.656-3.066-2.656-8.438 0-5.39 2.656-8.437 2.676-3.047 7.383-3.047zm37.81 24.427q-1.523 3.906-2.969 5.098-1.445 1.191-3.867 1.191h-2.871v-3.008h2.11q1.484 0 2.304-.703.82-.703 1.816-3.32l.645-1.64-8.848-21.524h3.809l6.836 17.11 6.836-17.11h3.808zm23.05-21.38q-2.89 0-4.57 2.266-1.68 2.246-1.68 6.171t1.66 6.192q1.68 2.246 4.59 2.246 2.871 0 4.55-2.266t1.68-6.171q0-3.887-1.68-6.153-1.679-2.285-4.55-2.285zm0-3.047q4.688 0 7.363 3.047t2.676 8.438q0 5.37-2.676 8.437-2.676 3.047-7.363 3.047-4.707 0-7.383-3.047-2.656-3.066-2.656-8.438 0-5.39 2.656-8.437 2.676-3.047 7.383-3.047zm15.61 13.767v-13.242h3.594v13.105q0 3.106 1.21 4.668 1.212 1.543 3.633 1.543 2.91 0 4.59-1.855 1.7-1.856 1.7-5.06v-12.401h3.593v21.875h-3.594v-3.36q-1.308 1.993-3.046 2.97-1.72.956-4.004.956-3.77 0-5.723-2.343-1.953-2.344-1.953-6.856zm38.43-9.88q-.605-.352-1.328-.508-.703-.176-1.563-.176-3.046 0-4.687 1.993-1.621 1.972-1.621 5.683v11.523h-3.613V913.52h3.613v3.399q1.133-1.993 2.949-2.95 1.816-.976 4.414-.976.371 0 .82.058.45.04.997.137zm17.76-2.72v3.398q-1.523-.78-3.164-1.171-1.64-.391-3.398-.391-2.676 0-4.024.82-1.328.82-1.328 2.461 0 1.25.957 1.973.957.703 3.848 1.347l1.23.274q3.828.82 5.43 2.324 1.621 1.485 1.621 4.16 0 3.047-2.422 4.825-2.402 1.777-6.621 1.777-1.758 0-3.672-.352-1.894-.332-4.004-1.015v-3.711q1.992 1.035 3.926 1.562 1.934.508 3.828.508 2.54 0 3.906-.86 1.368-.878 1.368-2.46 0-1.465-.997-2.246-.976-.782-4.316-1.504l-1.25-.293q-3.34-.703-4.824-2.149-1.485-1.464-1.485-4.003 0-3.086 2.188-4.766t6.21-1.68q1.993 0 3.75.293t3.243.88zm25.62 9.39v1.758h-16.523q.234 3.71 2.227 5.664 2.011 1.933 5.585 1.933 2.07 0 4.004-.507 1.954-.508 3.868-1.524v3.399q-1.934.82-3.965 1.25-2.031.43-4.121.43-5.235 0-8.301-3.048-3.047-3.046-3.047-8.242 0-5.37 2.89-8.515 2.91-3.164 7.833-3.164 4.414 0 6.972 2.851 2.578 2.832 2.578 7.715zm-3.594-1.055q-.039-2.949-1.66-4.707-1.602-1.758-4.258-1.758-3.008 0-4.824 1.7-1.797 1.699-2.07 4.785zM809.88 905h3.594v30.391h-3.594zm22.17 0v2.988h-3.438q-1.933 0-2.695.782-.742.78-.742 2.812v1.934h5.918v2.793h-5.918v19.082h-3.613v-19.082h-3.438v-2.793h3.438v-1.524q0-3.652 1.699-5.312 1.7-1.68 5.39-1.68zm3.9 25.43h4.121v3.36l-3.203 6.25h-2.52l1.602-6.25zm24.18-3.67v-13.242h3.594v13.105q0 3.106 1.21 4.668 1.212 1.543 3.634 1.543 2.91 0 4.59-1.855 1.698-1.856 1.698-5.06v-12.401h3.594v21.875h-3.594v-3.36q-1.308 1.993-3.046 2.97-1.72.956-4.004.956-3.77 0-5.723-2.343-1.953-2.344-1.953-6.856zm29.32-19.46v6.21h7.402v2.794h-7.402v11.875q0 2.676.723 3.437.742.762 2.988.762h3.691v3.008h-3.691q-4.16 0-5.742-1.543-1.582-1.563-1.582-5.664v-11.875H883.2v-2.793h2.637V907.3zm15.7 0v6.21h7.402v2.794h-7.402v11.875q0 2.676.723 3.437.742.762 2.988.762h3.691v3.008h-3.691q-4.16 0-5.742-1.543-1.582-1.563-1.582-5.664v-11.875H898.9v-2.793h2.637V907.3zm30.86 16.25v1.758h-16.523q.234 3.71 2.227 5.664 2.011 1.933 5.585 1.933 2.07 0 4.004-.507 1.954-.508 3.868-1.524v3.399q-1.934.82-3.965 1.25-2.031.43-4.121.43-5.235 0-8.301-3.048-3.047-3.046-3.047-8.242 0-5.37 2.89-8.515 2.91-3.164 7.833-3.164 4.414 0 6.972 2.851 2.578 2.832 2.578 7.715zm-3.594-1.055q-.039-2.949-1.66-4.707-1.602-1.758-4.258-1.758-3.008 0-4.824 1.7-1.797 1.699-2.07 4.785zm22.174-5.615q-.605-.352-1.328-.508-.703-.176-1.563-.176-3.046 0-4.687 1.993-1.621 1.972-1.621 5.683v11.523h-3.613V913.52h3.613v3.399q1.133-1.993 2.949-2.95 1.816-.976 4.414-.976.371 0 .82.058.45.04.997.137zm20.09-9.58v6.21h7.402v2.794h-7.402v11.875q0 2.676.723 3.437.742.762 2.988.762h3.691v3.008h-3.691q-4.16 0-5.742-1.543-1.582-1.563-1.582-5.664v-11.875h-2.637v-2.793h2.637V907.3zm30.32 14.89v13.203h-3.594v-13.086q0-3.106-1.21-4.648-1.212-1.543-3.634-1.543-2.91 0-4.59 1.855t-1.679 5.059v12.363h-3.613v-30.391h3.613v11.914q1.29-1.973 3.027-2.95 1.758-.976 4.043-.976 3.77 0 5.703 2.344 1.934 2.324 1.934 6.855zm25.9 1.36v1.758h-16.524q.234 3.71 2.227 5.664 2.011 1.933 5.586 1.933 2.07 0 4.003-.507 1.954-.508 3.868-1.524v3.399q-1.934.82-3.965 1.25-2.031.43-4.121.43-5.235 0-8.301-3.048-3.047-3.046-3.047-8.242 0-5.37 2.89-8.515 2.91-3.164 7.833-3.164 4.414 0 6.972 2.851 2.579 2.832 2.579 7.715zm-3.594-1.055q-.039-2.949-1.66-4.707-1.602-1.758-4.258-1.758-3.008 0-4.824 1.7-1.797 1.699-2.07 4.785zm39.294-4.785q1.348-2.422 3.223-3.574t4.414-1.152q3.418 0 5.273 2.402 1.856 2.383 1.856 6.797v13.203h-3.614V922.3q0-3.145-1.113-4.668t-3.398-1.524q-2.793 0-4.414 1.856t-1.622 5.058v12.363h-3.613V922.3q0-3.164-1.113-4.668-1.113-1.523-3.438-1.523-2.754 0-4.375 1.875-1.62 1.855-1.62 5.04v12.362h-3.614V913.51h3.613v3.398q1.23-2.011 2.95-2.968 1.718-.957 4.082-.957 2.382 0 4.043 1.21 1.68 1.211 2.48 3.516zm31.9 6.68q-4.356 0-6.035.996-1.68.996-1.68 3.398 0 1.915 1.25 3.047 1.27 1.114 3.438 1.114 2.988 0 4.785-2.11 1.816-2.129 1.816-5.644v-.801zm7.168-1.484v12.48h-3.594v-3.32q-1.23 1.991-3.066 2.948-1.836.938-4.492.938-3.36 0-5.352-1.875-1.973-1.895-1.973-5.059 0-3.691 2.461-5.566 2.48-1.875 7.383-1.875h5.04v-.352q0-2.48-1.641-3.828-1.621-1.367-4.57-1.367-1.876 0-3.653.45-1.777.449-3.418 1.347v-3.32q1.973-.762 3.828-1.133 1.856-.39 3.613-.39 4.746 0 7.09 2.46 2.344 2.461 2.344 7.461zm21.832 1.294q0-3.906-1.621-6.055-1.602-2.148-4.512-2.148-2.89 0-4.512 2.148-1.601 2.149-1.601 6.055 0 3.887 1.602 6.035 1.62 2.149 4.511 2.149 2.91 0 4.512-2.149 1.621-2.148 1.621-6.035zm3.594 8.477q0 5.585-2.48 8.3-2.481 2.735-7.598 2.735-1.895 0-3.575-.293-1.68-.274-3.261-.86v-3.496q1.582.86 3.125 1.27 1.543.41 3.144.41 3.535 0 5.293-1.855 1.758-1.836 1.758-5.567v-1.777q-1.113 1.933-2.851 2.89t-4.16.957q-4.024 0-6.485-3.066-2.461-3.066-2.461-8.125 0-5.078 2.46-8.144 2.462-3.067 6.485-3.067 2.422 0 4.16.957t2.852 2.89v-3.32h3.594zm7.406-19.157h3.594v21.875h-3.594zm0-8.516h3.594v4.551h-3.594zm26.8 9.356v3.36q-1.524-.84-3.066-1.25-1.524-.43-3.086-.43-3.496 0-5.43 2.226-1.934 2.207-1.934 6.211t1.934 6.23q1.934 2.208 5.43 2.208 1.562 0 3.086-.41 1.543-.43 3.066-1.27v3.32q-1.504.703-3.125 1.055-1.602.352-3.418.352-4.941 0-7.852-3.106-2.91-3.105-2.91-8.379 0-5.351 2.93-8.418 2.95-3.066 8.066-3.066 1.66 0 3.243.351 1.582.332 3.066 1.016zm16.2 10.03q-4.355 0-6.035.996-1.68.996-1.68 3.398 0 1.915 1.25 3.047 1.27 1.114 3.438 1.114 2.988 0 4.785-2.11 1.816-2.129 1.816-5.644v-.801zm7.168-1.484v12.48h-3.594v-3.32q-1.23 1.991-3.066 2.948-1.836.938-4.492.938-3.36 0-5.352-1.875-1.973-1.895-1.973-5.059 0-3.691 2.461-5.566 2.48-1.875 7.383-1.875h5.04v-.352q0-2.48-1.641-3.828-1.621-1.367-4.57-1.367-1.876 0-3.653.45-1.777.449-3.418 1.347v-3.32q1.973-.762 3.828-1.133 1.856-.39 3.613-.39 4.747 0 7.09 2.46 2.344 2.461 2.344 7.461zM1196.1 905h3.594v30.391h-3.594zm21.8 8.52h3.594l4.492 17.07 4.473-17.07h4.238l4.492 17.07 4.473-17.07h3.593l-5.722 21.875h-4.239l-4.707-17.93-4.726 17.93h-4.238zm43.3 2.52q-2.89 0-4.57 2.266-1.68 2.246-1.68 6.171t1.66 6.192q1.68 2.246 4.59 2.246 2.871 0 4.55-2.266t1.68-6.171q0-3.887-1.68-6.153-1.679-2.285-4.55-2.285zm0-3.047q4.688 0 7.363 3.047t2.676 8.438q0 5.37-2.676 8.437-2.676 3.047-7.363 3.047-4.707 0-7.383-3.047-2.656-3.066-2.656-8.438 0-5.39 2.656-8.437 2.676-3.047 7.383-3.047zm28.6 3.887q-.606-.352-1.328-.508-.703-.176-1.563-.176-3.047 0-4.687 1.993-1.621 1.972-1.621 5.683v11.523h-3.614V913.52h3.614v3.399q1.133-1.993 2.949-2.95 1.816-.976 4.414-.976.371 0 .82.058.45.04.996.137zm17.5-.04v-11.836h3.594v30.391h-3.594v-3.281q-1.133 1.953-2.871 2.91-1.719.938-4.14.938-3.966 0-6.466-3.165-2.48-3.164-2.48-8.32t2.48-8.32q2.5-3.164 6.465-3.164 2.422 0 4.14.957 1.74.937 2.872 2.89zm-12.246 7.637q0 3.965 1.621 6.23 1.64 2.246 4.492 2.246 2.852 0 4.492-2.246 1.641-2.265 1.641-6.23 0-3.965-1.64-6.211-1.641-2.266-4.493-2.266-2.851 0-4.492 2.266-1.621 2.246-1.621 6.21zm37.246-10.317v3.398q-1.523-.78-3.164-1.171-1.64-.391-3.398-.391-2.676 0-4.024.82-1.328.82-1.328 2.461 0 1.25.957 1.973.957.703 3.848 1.347l1.23.274q3.828.82 5.43 2.324 1.62 1.485 1.62 4.16 0 3.047-2.421 4.825-2.402 1.777-6.621 1.777-1.758 0-3.672-.352-1.895-.332-4.004-1.015v-3.711q1.992 1.035 3.926 1.562 1.933.508 3.828.508 2.54 0 3.906-.86 1.367-.878 1.367-2.46 0-1.465-.996-2.246-.976-.782-4.316-1.504l-1.25-.293q-3.34-.703-4.824-2.149-1.485-1.464-1.485-4.003 0-3.086 2.188-4.766t6.21-1.68q1.993 0 3.75.293t3.243.88zm23-7.93v10.84h-3.32v-10.84zm7.383 0v10.84h-3.32v-10.84zm7.417 0h3.965v17.715q0 4.688 1.699 6.758 1.7 2.05 5.508 2.05 3.789 0 5.488-2.05 1.7-2.07 1.7-6.758V906.23h3.964v18.203q0 5.703-2.832 8.613-2.812 2.91-8.32 2.91-5.528 0-8.36-2.91-2.812-2.91-2.812-8.613zm47.7 15.96v13.203h-3.594v-13.086q0-3.106-1.21-4.648-1.212-1.543-3.634-1.543-2.91 0-4.59 1.855-1.679 1.856-1.679 5.059v12.363h-3.613v-21.875h3.613v3.398q1.289-1.973 3.027-2.95 1.758-.976 4.043-.976 3.77 0 5.703 2.344 1.934 2.324 1.934 6.856zm7.2-8.67h3.594v21.875H1425zm0-8.516h3.594v4.551H1425zm22.2-.004v2.988h-3.438q-1.933 0-2.695.782-.742.78-.742 2.812v1.934h5.918v2.793h-5.918v19.082h-3.613v-19.082h-3.438v-2.793h3.438v-1.524q0-3.652 1.699-5.312 1.7-1.68 5.39-1.68zm11.4 32.42q-1.523 3.906-2.969 5.098t-3.867 1.191h-2.871v-3.008h2.11q1.484 0 2.304-.703.82-.703 1.816-3.32l.645-1.64-8.848-21.524h3.809l6.836 17.11 6.836-17.11h3.808zm18-31.19v10.84h-3.32v-10.84zm7.383 0v10.84h-3.32v-10.84zm8.117 24.2h4.121v4.96h-4.121z"/></g></svg>