<svg preserveAspectRatio="none" viewBox="0 0 508 285.75" xmlns="http://www.w3.org/2000/svg"><rect x="-4.276" y="-3.97" width="518.5" height="294" ry=".118" fill="#fff"/><path d="M12.427 8.659H10.76V6.887h1.666zm-3.134 9.539h.318q.514 0 .802-.318.288-.303.288-.802V9.492h1.756v7.525q0 .636-.166 1.15-.167.53-.515.894t-.894.56q-.53.212-1.271.212h-.318zm7.83-2.725q.378 0 .605-.091.243-.091.379-.243.151-.151.212-.363t.06-.454v-4.83h1.772v7.707H18.38v-.197q-.243.106-.53.151-.273.046-.59.046h-.773q-.681 0-1.196-.227-.5-.228-.833-.591-.333-.379-.515-.848-.166-.484-.166-.969V9.492h1.756V14.2q0 .272.045.5t.182.408q.136.167.379.273.242.09.65.09zm7.389-4.255q-.393 0-.65.106-.243.09-.38.257t-.196.41q-.045.226-.045.499v4.709h-1.772V9.492h1.772v.197q.53-.197 1.135-.197h.788q.666 0 1.18.227t.848.606q.349.363.515.847.182.47.182.954V17.2h-1.772v-4.71q0-.272-.045-.499-.045-.242-.182-.409-.12-.166-.363-.257-.242-.106-.651-.106zm7.673 4.239q.364 0 .621-.166.257-.182.333-.485h1.802q-.136 1.09-.848 1.742t-1.908.65h-.62q-.652 0-1.182-.196t-.893-.56q-.363-.379-.575-.894-.197-.53-.197-1.166v-2.074q0-.651.197-1.166.212-.515.575-.878t.893-.56q.53-.212 1.182-.212h.62q1.227 0 1.938.65t.818 1.787h-1.787q-.09-.333-.333-.514t-.636-.182h-.62q-.485 0-.803.318-.303.303-.303.802v1.969q0 .5.303.817.318.318.803.318zm3.29-5.965h1.423V6.887h1.787v2.605h1.423v1.741h-1.423v5.966h-1.787v-5.966h-1.423zm7.325 7.707h-1.787V9.492h1.786zm0-8.54h-1.787V6.887h1.786zm4.545.833q.667 0 1.181.212.53.197.894.56.378.363.575.878t.197 1.166v2.074q0 .636-.197 1.166-.197.515-.575.894-.364.363-.894.56-.514.197-1.18.197h-.621q-.651 0-1.181-.197t-.909-.56q-.363-.379-.56-.894-.182-.53-.182-1.166v-2.074q0-.651.182-1.166.197-.515.56-.878.379-.363.909-.56.53-.212 1.18-.212zm-.62 1.741q-.47 0-.803.318-.318.303-.318.802v1.969q0 .5.318.817.333.318.803.318h.62q.485 0 .788-.318.318-.318.318-.817v-1.969q0-.5-.318-.802-.303-.318-.788-.318zm7.745-.015q-.394 0-.652.106-.242.09-.378.257t-.197.41q-.045.226-.045.499v4.709h-1.772V9.492h1.772v.197q.53-.197 1.135-.197h.787q.667 0 1.181.227t.848.606q.349.363.515.847.182.47.182.954V17.2h-1.772v-4.71q0-.272-.045-.499-.046-.242-.182-.409-.12-.166-.363-.257-.242-.106-.651-.106zm9.822-.228H61.28q-.197 0-.333.076-.121.061-.212.182t-.136.273q-.046.136-.046.272 0 .288.182.53.197.227.47.227H62.9q.53 0 .924.182.409.182.666.5.273.318.394.757.136.439.136.938v.046q0 .5-.167.908-.151.41-.439.697t-.681.454-.833.167h-3.664v-1.5h3.15q.348 0 .635-.196.303-.197.318-.59v.014q0-.227-.09-.378-.076-.151-.213-.242-.136-.106-.302-.152t-.349-.045h-1.362q-.666 0-1.106-.212-.424-.212-.68-.545-.243-.333-.334-.757t-.09-.863q0-.455.135-.879t.394-.741q.273-.334.666-.515t.894-.182h3.391zm13.184-1.347v1.5h-5.829v-1.5zm0 2.665v1.499h-5.829v-1.499zm6.606-6.223h3.68v1.741h-1.894v7.631h1.893v1.726h-3.68zm7.533 11.114q-.667 0-1.197-.197-.514-.197-.893-.56-.363-.379-.56-.894-.197-.53-.197-1.166v-2.074q0-.651.197-1.166t.56-.878q.379-.363.893-.56.53-.212 1.197-.212h.605q.636 0 1.15.181V6.887h1.697V17.2zm1.756-1.742v-3.104q0-.5-.333-.802-.333-.318-.818-.318h-.605q-.485 0-.833.318-.333.303-.333.802v1.969q0 .5.333.817.348.318.833.318zm2.642-3.225q0-.56.212-1.044.212-.5.56-.879t.803-.59q.454-.227.908-.227h1.726q.59 0 1.045.257.47.242.772.636.318.379.485.863.181.47.181.924v1.953H97.8v.409q0 .545.303.772t.802.227h3.528v1.696H98.51q-.514 0-.969-.197-.454-.212-.802-.56-.333-.348-.53-.833t-.197-1.06zm1.802.455h3.134v-.076q0-.59-.303-.97-.303-.393-.817-.393h-.94q-.241 0-.438.121-.197.106-.333.288t-.227.439q-.076.242-.076.515zm11.341-1.697h-3.014q-.196 0-.333.076-.12.061-.212.182-.09.121-.136.273-.045.136-.045.272 0 .288.181.53.197.227.47.227h1.696q.53 0 .923.182.409.182.666.5.273.318.394.757.136.439.136.938v.046q0 .5-.166.908-.152.41-.44.697t-.68.454-.833.167h-3.665v-1.5h3.15q.348 0 .636-.196.303-.197.318-.59v.014q0-.227-.091-.378-.076-.151-.212-.242-.136-.106-.303-.152t-.348-.045h-1.363q-.666 0-1.105-.212-.424-.212-.682-.545-.242-.333-.333-.757t-.09-.863q0-.455.136-.879t.393-.741q.273-.334.667-.515t.893-.182h3.392zm1.491-1.498h1.423V6.887h1.787v2.605h1.423v1.741h-1.423v5.966h-1.787v-5.966h-1.423zm7.328 7.707h-1.786V9.492h1.786zm0-8.54h-1.786V6.887h1.786zm4.452 2.559q-.394 0-.651.106-.242.09-.379.257t-.197.41q-.045.226-.045.499v4.709h-1.772V9.492h1.772v.197q.53-.197 1.136-.197h.787q.666 0 1.18.227t.849.606q.348.363.515.847.181.47.181.954V17.2h-1.771v-4.71q0-.272-.046-.499-.045-.242-.181-.409-.121-.166-.364-.257-.242-.106-.65-.106zm4.311.712q.046-.485.212-.924.182-.44.515-.772t.833-.53q.5-.212 1.15-.212h.91q.68 0 1.18.227.515.227.848.606.333.363.5.847.166.47.166.954V17.2h-4.3q-.5 0-.893-.182-.394-.197-.666-.5-.258-.318-.394-.742-.121-.424-.121-.908 0-.47.136-.878t.394-.697q.257-.303.636-.47.393-.18.878-.18h2.589v-.152q0-.273-.045-.5-.046-.242-.167-.409t-.363-.257q-.243-.106-.651-.106h-.379q-.606 0-.863.182-.257.166-.348.53zm1.56 2.937q0 .394.151.59.167.182.364.182h2.498v-1.544h-2.498q-.197 0-.364.197-.151.196-.151.575zm5.595-5.375h1.423V6.887h1.786v2.605h1.424v1.741h-1.424v5.966h-1.786v-5.966h-1.423zm7.324 7.707h-1.787V9.492h1.787zm0-8.54h-1.787V6.887h1.787zm4.546.833q.666 0 1.181.212.53.197.894.56.378.363.575.878t.197 1.166v2.074q0 .636-.197 1.166-.197.515-.575.894-.364.363-.894.56-.515.197-1.18.197h-.622q-.65 0-1.18-.197t-.909-.56q-.363-.379-.56-.894-.182-.53-.182-1.166v-2.074q0-.651.182-1.166.197-.515.56-.878.378-.363.908-.56.53-.212 1.181-.212zm-.62 1.741q-.47 0-.803.318-.318.303-.318.802v1.969q0 .5.318.817.333.318.802.318h.621q.485 0 .788-.318.318-.318.318-.817v-1.969q0-.5-.318-.802-.303-.318-.788-.318zm7.744-.015q-.394 0-.65.106-.243.09-.38.257t-.196.41q-.046.226-.046.499v4.709h-1.771V9.492h1.771v.197q.53-.197 1.136-.197h.787q.666 0 1.181.227t.848.606q.348.363.515.847.182.47.182.954V17.2h-1.772v-4.71q0-.272-.045-.499-.046-.242-.182-.409-.121-.166-.363-.257-.243-.106-.651-.106zm8.006 5.965h-3.68v-1.726h1.893v-7.63h-1.892V6.084h3.68zM13.865 30.142q-.393 0-.65.106-.243.091-.38.258t-.196.409q-.046.227-.046.5v4.708h-1.771v-7.707h1.771v.197q.53-.197 1.136-.197h.787q.666 0 1.181.227t.848.606q.348.364.515.848.182.47.182.954v5.072H15.47v-4.709q0-.272-.045-.5-.046-.242-.182-.408-.121-.167-.363-.258-.243-.106-.651-.106zm7.752-1.726q.666 0 1.18.212.53.197.894.56.379.364.575.879.197.515.197 1.166v2.074q0 .636-.197 1.166-.196.515-.575.893-.363.364-.893.56-.515.197-1.181.197h-.621q-.651 0-1.181-.197t-.909-.56q-.363-.378-.56-.893-.181-.53-.181-1.166v-2.074q0-.651.181-1.166.197-.515.56-.878.379-.364.909-.56.53-.213 1.181-.213zm-.621 1.742q-.47 0-.803.318-.317.302-.317.802v1.968q0 .5.317.818.334.318.803.318h.62q.485 0 .788-.318.318-.318.318-.818v-1.968q0-.5-.318-.802-.303-.318-.787-.318zm7.245 5.965q-.666 0-1.196-.197-.515-.196-.893-.56-.364-.378-.56-.893-.198-.53-.198-1.166v-2.074q0-.651.197-1.166.197-.515.56-.878.38-.364.894-.56.53-.213 1.196-.213h.606q.636 0 1.15.182v-2.786h1.696v10.311zm1.756-1.741v-3.104q0-.5-.333-.802-.333-.318-.817-.318h-.606q-.485 0-.833.318-.333.302-.333.802v1.968q0 .5.333.818.348.318.833.318zm2.643-3.225q0-.56.212-1.045.211-.5.56-.878t.802-.59q.454-.228.909-.228h1.726q.59 0 1.045.258.469.242.772.636.318.378.484.863.182.47.182.923v1.954h-4.906v.408q0 .545.303.773t.803.227h3.527v1.696h-3.921q-.515 0-.97-.197-.453-.212-.802-.56-.333-.349-.53-.833t-.196-1.06zm1.801.454h3.135v-.076q0-.59-.303-.969-.303-.393-.818-.393h-.939q-.242 0-.439.12-.197.107-.333.289t-.227.439q-.076.242-.076.514zm17.337-3.043v1.499h-5.83v-1.5zm0 2.665v1.499h-5.83v-1.5zm9.437 4.89q-.666 0-1.196-.197-.515-.196-.894-.56-.363-.378-.56-.893-.197-.53-.197-1.166v-2.074q0-.651.197-1.166t.56-.878q.379-.364.894-.56.53-.213 1.196-.213h.605q.636 0 1.151.182v-2.786h1.696v10.311zm1.756-1.741v-3.104q0-.5-.333-.802-.333-.318-.818-.318h-.605q-.485 0-.833.318-.333.302-.333.802v1.968q0 .5.333.818.348.318.833.318zm2.642-3.225q0-.56.212-1.045.212-.5.56-.878t.803-.59q.454-.228.908-.228h1.727q.59 0 1.044.258.47.242.772.636.318.378.485.863.182.47.182.923v1.954H67.4v.408q0 .545.303.773t.802.227h3.528v1.696h-3.921q-.515 0-.97-.197-.454-.212-.802-.56-.333-.349-.53-.833t-.197-1.06zm1.802.454h3.134v-.076q0-.59-.303-.969-.302-.393-.817-.393h-.939q-.242 0-.439.12-.197.107-.333.289t-.227.439q-.076.242-.076.514zm11.341-1.696h-3.013q-.197 0-.333.076-.121.06-.212.182-.091.12-.137.272-.045.137-.045.273 0 .288.182.53.197.227.469.227h1.696q.53 0 .923.182.41.181.667.5.272.317.393.756.137.44.137.94v.044q0 .5-.167.909-.151.409-.439.696t-.681.455-.833.166h-3.664v-1.499h3.15q.347 0 .635-.197.303-.196.318-.59v.015q0-.227-.09-.378-.077-.152-.213-.243-.136-.106-.303-.151t-.348-.046h-1.363q-.666 0-1.105-.212-.424-.212-.681-.545-.243-.333-.333-.757t-.091-.863q0-.454.136-.878t.394-.742q.272-.333.666-.515t.893-.181h3.392zm1.491-1.499h1.424v-2.604h1.786v2.604h1.423v1.742h-1.423v5.965h-1.786v-5.965h-1.424zm7.325 7.707h-1.787v-7.707h1.787zm0-8.54h-1.787v-1.77h1.787zm4.455 2.559q-.394 0-.651.106-.242.091-.378.258t-.197.409q-.046.227-.046.5v4.708h-1.771v-7.707h1.771v.197q.53-.197 1.136-.197h.787q.666 0 1.181.227t.848.606q.348.364.515.848.182.47.182.954v5.072h-1.772v-4.709q0-.272-.045-.5-.046-.242-.182-.408-.121-.167-.363-.258-.243-.106-.652-.106zm4.312.712q.045-.484.212-.924.181-.439.514-.772t.833-.53q.5-.212 1.15-.212h.91q.68 0 1.18.227.515.228.848.606.333.364.5.848.166.47.166.954v5.072h-4.3q-.5 0-.893-.181-.394-.197-.666-.5-.258-.318-.394-.742-.121-.424-.121-.909 0-.469.136-.878t.394-.696q.257-.303.636-.47.394-.181.878-.181h2.59v-.152q0-.272-.046-.5-.046-.242-.167-.408t-.363-.258q-.242-.106-.651-.106h-.379q-.605 0-.863.182-.257.167-.348.53zm1.56 2.937q0 .394.15.591.167.182.364.182h2.498v-1.545h-2.498q-.197 0-.363.197-.152.197-.152.575zm5.594-5.375h1.423v-2.604h1.787v2.604h1.423v1.742h-1.423v5.965h-1.787v-5.965h-1.423zm7.324 7.707h-1.786v-7.707h1.786zm0-8.54h-1.786v-1.77h1.786zm4.543.833q.666 0 1.18.212.53.197.894.56.379.364.575.879t.197 1.166v2.074q0 .636-.197 1.166-.196.515-.575.893-.363.364-.893.56-.515.197-1.181.197h-.621q-.651 0-1.181-.197t-.909-.56q-.363-.378-.56-.893-.181-.53-.181-1.166v-2.074q0-.651.181-1.166.197-.515.56-.878.379-.364.909-.56.53-.213 1.18-.213zm-.621 1.742q-.47 0-.803.318-.318.302-.318.802v1.968q0 .5.318.818.334.318.803.318h.62q.485 0 .788-.318.318-.318.318-.818v-1.968q0-.5-.318-.802-.303-.318-.787-.318zm7.748-.016q-.393 0-.65.106-.243.091-.38.258t-.196.409q-.045.227-.045.5v4.708h-1.772v-7.707h1.772v.197q.53-.197 1.135-.197h.787q.667 0 1.182.227t.847.606q.349.364.515.848.182.47.182.954v5.072h-1.772v-4.709q0-.272-.045-.5-.045-.242-.182-.408-.12-.167-.363-.258-.242-.106-.651-.106zM18.906 73.976h-1.71l-1.47-4.86-1.438 4.86h-1.695L10.26 66.27h1.68l1.484 4.891 1.439-4.89h1.696l1.468 4.86 1.454-4.86h1.68zm6.076-5.981q-.394 0-.651.106-.242.091-.379.258t-.197.409q-.045.227-.045.5v4.708h-1.696v-10.31h1.696v2.77q.227-.076.47-.121.257-.046.544-.046h.909q.666 0 1.166.227.515.228.848.606.348.364.515.848.166.47.166.954v5.072h-1.71v-4.709q0-.272-.046-.5-.046-.242-.197-.408-.136-.167-.379-.258-.242-.106-.636-.106zm6.314 5.981h-1.787V66.27h1.787zm0-8.54h-1.787v-1.77h1.787zm1.362-1.771h1.787v10.311h-1.787zm3.059 5.345q0-.56.212-1.045.212-.5.56-.878t.803-.59q.454-.228.908-.228h1.726q.59 0 1.045.258.47.242.772.636.318.378.485.863.181.47.181.923v1.954h-4.905v.408q0 .545.302.773t.803.227h3.528v1.696h-3.922q-.515 0-.969-.197-.454-.212-.802-.56-.333-.349-.53-.833t-.197-1.06zm1.802.454h3.134v-.076q0-.59-.303-.969-.303-.393-.817-.393h-.94q-.241 0-.438.12-.197.107-.333.289t-.228.439q-.075.242-.075.514zm14.819-1.469q-.393 0-.65.106-.243.091-.38.258t-.196.409q-.046.227-.046.5v4.708h-1.771V66.27h1.771v.197q.53-.197 1.136-.197h.787q.667 0 1.181.227t.848.606q.348.364.515.848.182.47.182.954v5.072h-1.772v-4.709q0-.272-.045-.5-.046-.242-.182-.408-.121-.167-.363-.258-.243-.106-.651-.106zm7.752-1.725q.667 0 1.182.211.53.197.893.56.378.364.575.879t.197 1.166v2.074q0 .636-.197 1.166-.197.515-.575.893-.364.364-.893.56-.515.197-1.181.197h-.621q-.651 0-1.181-.197t-.909-.56q-.363-.378-.56-.893-.182-.53-.182-1.166v-2.074q0-.651.182-1.166.197-.515.56-.878.379-.364.909-.56.53-.213 1.18-.213zm-.62 1.74q-.47 0-.803.319-.318.302-.318.802V71.1q0 .5.318.818.333.318.803.318h.62q.485 0 .788-.318.318-.318.318-.818v-1.968q0-.5-.318-.802-.303-.318-.787-.318zm7.245 5.966q-.666 0-1.196-.197-.515-.196-.894-.56-.363-.378-.56-.893-.197-.53-.197-1.166v-2.074q0-.651.197-1.166t.56-.878q.379-.364.894-.56.53-.213 1.196-.213h.605q.636 0 1.151.182v-2.786h1.696v10.311zm1.756-1.741v-3.104q0-.5-.333-.802-.333-.318-.818-.318h-.605q-.485 0-.833.318-.333.302-.333.802V71.1q0 .5.333.818.348.318.833.318zm2.642-3.225q0-.56.212-1.045.212-.5.56-.878t.803-.59q.454-.228.908-.228h1.727q.59 0 1.044.258.47.242.773.636.317.378.484.863.182.47.182.923v1.954H72.9v.408q0 .545.303.773t.802.227h3.528v1.696h-3.921q-.515 0-.97-.197-.454-.212-.802-.56-.333-.349-.53-.833t-.197-1.06zm1.802.454h3.134v-.076q0-.59-.302-.969-.303-.393-.818-.393h-.939q-.242 0-.439.12-.197.107-.333.289t-.227.439q-.076.242-.076.514zm13.475 4.512h-1.786V66.27h1.787zm0-8.54h-1.786v-1.77h1.787zm6.618 2.332h-3.014q-.196 0-.333.076-.12.06-.212.182-.09.12-.136.272-.045.137-.045.273 0 .288.181.53.197.227.47.227h1.696q.53 0 .923.182.409.181.666.5.273.317.394.756.136.44.136.94v.044q0 .5-.166.909-.152.409-.44.696t-.68.455-.833.166H87.95v-1.499h3.15q.348 0 .636-.197.302-.196.318-.59v.015q0-.227-.091-.378-.076-.152-.212-.243-.136-.106-.303-.151t-.348-.046h-1.363q-.666 0-1.105-.212-.424-.212-.682-.545-.242-.333-.333-.757t-.09-.863q0-.454.136-.878t.393-.742q.273-.333.667-.515t.893-.181h3.392zm10.67.227q-.393 0-.65.106-.243.091-.38.258t-.196.409q-.046.227-.046.5v4.708h-1.771V66.27h1.771v.197q.53-.197 1.136-.197h.787q.667 0 1.181.227t.848.606q.349.364.515.848.182.47.182.954v5.072h-1.772v-4.709q0-.272-.045-.5-.046-.242-.182-.408-.121-.167-.363-.258-.243-.106-.651-.106zm7.749-1.725q.666 0 1.18.211.53.197.894.56.379.364.575.879t.197 1.166v2.074q0 .636-.197 1.166-.196.515-.575.893-.363.364-.893.56-.515.197-1.181.197h-.621q-.651 0-1.181-.197t-.909-.56q-.363-.378-.56-.893-.181-.53-.181-1.166v-2.074q0-.651.181-1.166.197-.515.56-.878.379-.364.909-.56.53-.213 1.181-.213zm-.621 1.74q-.47 0-.803.319-.317.302-.317.802V71.1q0 .5.317.818.334.318.803.318h.62q.485 0 .788-.318.318-.318.318-.818v-1.968q0-.5-.318-.802-.303-.318-.787-.318zm4.221-1.74h1.423v-2.605h1.787v2.604h1.423v1.742h-1.423v5.965h-1.787v-5.965h-1.423zm16.485 1.498h-3.014q-.196 0-.333.076-.12.06-.212.182-.09.12-.136.272-.045.137-.045.273 0 .288.181.53.197.227.47.227h1.696q.53 0 .923.182.409.181.666.5.273.317.394.756.136.44.136.94v.044q0 .5-.166.909-.152.409-.44.696t-.68.455-.833.166h-3.665v-1.499h3.15q.348 0 .636-.197.303-.196.318-.59v.015q0-.227-.091-.378-.076-.152-.212-.243-.136-.106-.303-.151t-.348-.046h-1.363q-.666 0-1.105-.212-.424-.212-.682-.545-.242-.333-.333-.757t-.09-.863q0-.454.136-.878t.393-.742q.273-.333.667-.515t.893-.181h3.392zm1.495-1.498h1.423v-2.605h1.787v2.604h1.423v1.742h-1.423v5.965h-1.787v-5.965h-1.423zm5.326 2.437q.045-.484.212-.924.181-.439.514-.772t.833-.53q.5-.212 1.151-.212h.908q.682 0 1.181.227.515.228.848.606.333.364.5.848.167.47.167.954v5.072h-4.3q-.5 0-.894-.181-.394-.197-.666-.5-.257-.318-.394-.742-.12-.424-.12-.909 0-.469.135-.878t.394-.696q.257-.303.636-.47.394-.181.878-.181h2.59v-.152q0-.272-.046-.5-.046-.242-.167-.408t-.363-.258q-.242-.106-.651-.106h-.379q-.605 0-.863.182-.257.167-.348.53zm1.56 2.937q0 .394.15.591.167.182.364.182h2.498v-1.545h-2.498q-.197 0-.363.197-.152.197-.152.575zm7.861-3.8q.212-.348.56-.606.364-.272.788-.454.439-.182.923-.272t.97-.091h.196v1.877h-.196q-.546 0-1.12.227-.576.212-1.06.576-.47.348-.773.787-.288.44-.288.878v3.21h-1.877V66.21h1.877zm4.179-1.574h1.424v-2.605h1.786v2.604h1.423v1.742h-1.423v5.965h-1.786v-5.965h-1.424zm10.701 6.45v1.498h-5.345V72.72zm4.467-6.45q.666 0 1.181.211.53.197.893.56.379.364.576.879t.197 1.166v2.074q0 .636-.197 1.166-.197.515-.576.893-.363.364-.893.56-.515.197-1.181.197h-.485q-.666 0-1.21-.212v2.847h-1.757V66.269zm-1.696 1.74v3.09q0 .5.303.817t.787.318h.606q.484 0 .802-.318t.318-.818v-1.968q0-.5-.318-.802-.318-.318-.802-.318zm8.865-1.74q.667 0 1.181.211.53.197.894.56.378.364.575.879t.197 1.166v2.074q0 .636-.197 1.166-.197.515-.575.893-.364.364-.894.56-.514.197-1.18.197h-.621q-.652 0-1.181-.197t-.909-.56q-.363-.378-.56-.893-.182-.53-.182-1.166v-2.074q0-.651.182-1.166.197-.515.56-.878.379-.364.909-.56.53-.213 1.18-.213zm-.62 1.74q-.47 0-.803.319-.318.302-.318.802V71.1q0 .5.318.818.333.318.803.318h.62q.485 0 .788-.318.318-.318.318-.818v-1.968q0-.5-.318-.802-.303-.318-.788-.318zm9.91-.242h-3.014q-.196 0-.333.076-.12.06-.212.182-.09.12-.136.272-.045.137-.045.273 0 .288.181.53.197.227.47.227h1.695q.53 0 .924.182.409.181.666.5.273.317.394.756.136.44.136.94v.044q0 .5-.166.909-.152.409-.44.696t-.68.455q-.394.166-.834.166h-3.664v-1.499h3.15q.348 0 .636-.197.302-.196.318-.59v.015q0-.227-.091-.378-.076-.152-.212-.243-.137-.106-.303-.151-.167-.046-.348-.046h-1.363q-.666 0-1.105-.212-.424-.212-.682-.545-.242-.333-.333-.757t-.09-.863q0-.454.136-.878t.393-.742q.273-.333.666-.515t.894-.181h3.391zm2.07 3.452h1.726v1.65h-1.726zm0-4.95h1.726v1.65h-1.726zM36.459 86.922q-.394 0-.651.106-.242.09-.379.257t-.197.41q-.045.226-.045.499v4.709h-1.771v-7.707h1.771v.197q.53-.197 1.136-.197h.787q.666 0 1.181.227t.848.606q.348.363.515.848.181.469.181.953v5.073h-1.771v-4.71q0-.272-.046-.499-.045-.242-.181-.409-.121-.166-.364-.257-.242-.106-.65-.106zm7.748-1.726q.667 0 1.181.212.53.197.894.56.378.363.575.878t.197 1.166v2.074q0 .636-.197 1.166-.197.515-.575.894-.364.363-.894.56-.514.197-1.18.197h-.621q-.651 0-1.181-.197t-.909-.56q-.363-.379-.56-.894-.182-.53-.182-1.166v-2.074q0-.65.182-1.166.197-.515.56-.878.379-.363.909-.56.53-.212 1.18-.212zm-.62 1.741q-.47 0-.803.318-.318.303-.318.803v1.968q0 .5.318.818.333.318.803.318h.62q.485 0 .788-.318.318-.318.318-.818v-1.968q0-.5-.318-.803-.303-.318-.788-.318zm7.248 5.966q-.666 0-1.196-.197-.514-.197-.893-.56-.363-.379-.56-.894-.197-.53-.197-1.166v-2.074q0-.65.197-1.166t.56-.878q.379-.363.893-.56.53-.212 1.196-.212h.606q.636 0 1.15.182v-2.786h1.697v10.31zm1.757-1.741v-3.104q0-.5-.333-.803-.333-.318-.818-.318h-.606q-.484 0-.832.318-.333.303-.333.803v1.968q0 .5.333.818.348.318.832.318zm2.642-3.226q0-.56.212-1.044.212-.5.56-.879t.803-.59q.454-.227.908-.227h1.726q.59 0 1.045.257.47.243.772.636.318.379.485.863.181.47.181.924v1.953h-4.905v.409q0 .545.302.772t.803.227h3.528v1.696h-3.922q-.515 0-.969-.197-.454-.212-.802-.56-.333-.348-.53-.833t-.197-1.06zm1.802.455h3.134v-.076q0-.59-.303-.97-.303-.393-.817-.393h-.94q-.241 0-.438.121-.197.106-.333.288t-.227.44q-.076.241-.076.514zm17.336-3.044v1.5h-5.829v-1.5zm0 2.665v1.5h-5.829v-1.5zm10.103-2.816q.667 0 1.181.212.53.197.894.56.378.363.575.878t.197 1.166v2.074q0 .636-.197 1.166-.197.515-.575.894-.364.363-.894.56-.514.197-1.18.197h-.485q-.666 0-1.211-.212v2.846h-1.757V85.196zm-1.695 1.741v3.089q0 .5.302.818t.788.318h.605q.485 0 .803-.318t.318-.818v-1.968q0-.5-.318-.803-.318-.318-.803-.318zm7.517-.167q.212-.348.56-.605.364-.273.788-.454.439-.182.923-.273t.97-.09h.196v1.877h-.197q-.545 0-1.12.227-.575.212-1.06.575-.47.349-.772.788-.288.439-.288.878v3.21H88.42v-7.768h1.877zm4.387 1.166q0-.56.212-1.044.212-.5.56-.879t.803-.59q.454-.227.909-.227h1.726q.59 0 1.044.257.47.243.773.636.318.379.484.863.182.47.182.924v1.953H96.47v.409q0 .545.303.772.303.227.802.227h3.528v1.696h-3.921q-.515 0-.97-.197-.454-.212-.802-.56-.333-.348-.53-.833t-.197-1.06zm1.802.455h3.134v-.076q0-.59-.302-.97-.303-.393-.818-.393h-.939q-.242 0-.439.121-.197.106-.333.288t-.227.44q-.076.241-.076.514zm9.596 4.512h-1.696l-2.332-7.707h1.681l1.484 4.89 1.438-4.89h1.696zm5.031 0h-1.787v-7.707h1.787zm0-8.54h-1.787v-1.771h1.787zm4.542.833q.666 0 1.181.212.53.197.893.56.379.363.576.878t.196 1.166v2.074q0 .636-.196 1.166-.197.515-.576.894-.363.363-.893.56-.515.197-1.181.197h-.62q-.652 0-1.182-.197t-.908-.56q-.364-.379-.56-.894-.182-.53-.182-1.166v-2.074q0-.65.181-1.166.197-.515.56-.878.38-.363.91-.56.53-.212 1.18-.212zm-.62 1.741q-.47 0-.803.318-.318.303-.318.803v1.968q0 .5.318.818.333.318.802.318h.621q.484 0 .787-.318.318-.318.318-.818v-1.968q0-.5-.318-.803-.303-.318-.787-.318zm7.929 4.24q.379 0 .606-.091.242-.091.379-.242.151-.152.212-.364t.06-.454v-4.83h1.772v7.707h-1.772v-.197q-.242.106-.53.151-.272.046-.59.046h-.773q-.68 0-1.196-.227-.5-.227-.832-.59-.334-.38-.515-.849-.167-.484-.167-.969v-5.072h1.757v4.709q0 .272.045.5t.182.408q.136.167.378.273.242.09.651.09zm9.554-4.482h-3.013q-.196 0-.333.076-.12.06-.212.181-.09.121-.136.273-.045.136-.045.272 0 .288.181.53.197.227.47.227h1.695q.53 0 .924.182.409.182.666.5.273.318.394.757.136.439.136.939v.045q0 .5-.166.908-.152.41-.44.697t-.68.454-.834.167h-3.664v-1.5h3.15q.348 0 .636-.196.302-.197.318-.59v.015q0-.228-.091-.379-.076-.151-.212-.242-.137-.106-.303-.152t-.348-.045h-1.363q-.666 0-1.105-.212-.424-.212-.682-.545-.242-.333-.333-.757t-.09-.863q0-.454.136-.878t.393-.742q.273-.333.667-.515t.893-.182h3.391zm7.049 4.951v1.499h-5.345v-1.499zm4.3-4.724q-.394 0-.651.106-.243.09-.379.257t-.197.41q-.045.226-.045.499v4.709h-1.772v-7.707h1.772v.197q.53-.197 1.136-.197h.787q.666 0 1.18.227t.849.606q.348.363.515.848.181.469.181.953v5.073h-1.771v-4.71q0-.272-.046-.499-.045-.242-.181-.409-.121-.166-.364-.257-.242-.106-.65-.106zm7.748-1.726q.667 0 1.181.212.53.197.894.56.378.363.575.878t.197 1.166v2.074q0 .636-.197 1.166-.197.515-.575.894-.364.363-.894.56-.514.197-1.18.197h-.621q-.652 0-1.182-.197t-.908-.56q-.363-.379-.56-.894-.182-.53-.182-1.166v-2.074q0-.65.182-1.166.197-.515.56-.878.379-.363.908-.56.53-.212 1.182-.212zm-.62 1.741q-.47 0-.803.318-.318.303-.318.803v1.968q0 .5.318.818.333.318.803.318h.62q.485 0 .788-.318.318-.318.318-.818v-1.968q0-.5-.318-.803-.303-.318-.788-.318zm7.248 5.966q-.666 0-1.196-.197-.515-.197-.893-.56-.364-.379-.56-.894-.197-.53-.197-1.166v-2.074q0-.65.197-1.166.196-.515.56-.878.378-.363.893-.56.53-.212 1.196-.212h.606q.636 0 1.15.182v-2.786h1.697v10.31zM160 91.162v-3.104q0-.5-.333-.803-.333-.318-.818-.318h-.606q-.484 0-.832.318-.334.303-.334.803v1.968q0 .5.334.818.348.318.832.318zm2.642-3.226q0-.56.212-1.044.212-.5.56-.879t.803-.59q.454-.227.908-.227h1.726q.59 0 1.045.257.47.243.772.636.318.379.485.863.181.47.181.924v1.953h-4.905v.409q0 .545.302.772.303.227.803.227h3.528v1.696h-3.922q-.515 0-.969-.197-.454-.212-.802-.56-.333-.348-.53-.833t-.197-1.06zm1.802.455h3.134v-.076q0-.59-.303-.97-.303-.393-.818-.393h-.938q-.243 0-.44.121-.196.106-.332.288-.137.182-.228.44-.075.241-.075.514zm11.492-6.601h3.68v1.74h-1.893v7.632h1.892v1.726h-3.68zm8.032 5.132q-.393 0-.65.106-.243.09-.38.257t-.196.41q-.046.226-.046.499v4.709h-1.771v-7.707h1.771v.197q.53-.197 1.136-.197h.787q.667 0 1.181.227t.848.606q.349.363.515.848.182.469.182.953v5.073h-1.772v-4.71q0-.272-.045-.499-.046-.242-.182-.409-.121-.166-.363-.257-.243-.106-.651-.106zm7.749-1.726q.666 0 1.18.212.53.197.894.56.379.363.575.878t.197 1.166v2.074q0 .636-.197 1.166-.196.515-.575.894-.363.363-.893.56-.515.197-1.181.197h-.621q-.651 0-1.181-.197t-.909-.56q-.363-.379-.56-.894-.181-.53-.181-1.166v-2.074q0-.65.181-1.166.197-.515.56-.878.379-.363.909-.56.53-.212 1.181-.212zm-.621 1.741q-.47 0-.803.318-.317.303-.317.803v1.968q0 .5.317.818.334.318.803.318h.62q.485 0 .788-.318.318-.318.318-.818v-1.968q0-.5-.318-.803-.303-.318-.787-.318zm7.245 5.966q-.666 0-1.196-.197-.515-.197-.893-.56-.364-.379-.56-.894-.197-.53-.197-1.166v-2.074q0-.65.196-1.166.197-.515.56-.878.38-.363.894-.56.53-.212 1.196-.212h.606q.636 0 1.15.182v-2.786h1.696v10.31zm1.756-1.741v-3.104q0-.5-.333-.803-.333-.318-.817-.318h-.606q-.484 0-.833.318-.333.303-.333.803v1.968q0 .5.333.818.349.318.833.318zm2.646-3.226q0-.56.212-1.044.212-.5.56-.879.349-.378.803-.59.454-.227.909-.227h1.726q.59 0 1.044.257.47.243.773.636.318.379.484.863.182.47.182.924v1.953h-4.906v.409q0 .545.303.772.303.227.802.227h3.528v1.696h-3.921q-.515 0-.97-.197-.454-.212-.802-.56-.333-.348-.53-.833t-.197-1.06zm1.802.455h3.134v-.076q0-.59-.302-.97-.303-.393-.818-.393h-.939q-.242 0-.439.121-.197.106-.333.288t-.227.44q-.076.241-.076.514zm9.52 4.497h-3.68v-1.726h1.894V83.53h-1.893v-1.74h3.68zM33.113 106.56q.045-.484.212-.924.181-.439.514-.772t.833-.53q.5-.212 1.151-.212h.908q.682 0 1.181.227.515.228.848.606.333.364.5.848.167.47.167.954v5.072h-4.3q-.5 0-.894-.181-.394-.197-.666-.5-.257-.318-.394-.742-.12-.424-.12-.909 0-.469.135-.878t.394-.696q.257-.303.636-.47.394-.181.878-.181h2.59v-.152q0-.272-.046-.5-.046-.242-.167-.408t-.363-.258q-.242-.106-.651-.106h-.379q-.605 0-.863.182-.257.167-.348.53zm1.56 2.937q0 .394.15.591.167.182.364.182h2.498v-1.545h-2.498q-.197 0-.363.197-.152.197-.152.575zm8.622 2.333q-.666 0-1.196-.198-.515-.196-.893-.56-.364-.378-.56-.893-.197-.53-.197-1.166v-2.074q0-.651.196-1.166t.56-.878q.38-.364.894-.56.53-.213 1.196-.213h.606q.636 0 1.15.182v-2.786h1.696v10.311zm1.757-1.742v-3.104q0-.5-.334-.802-.333-.318-.817-.318h-.606q-.484 0-.833.318-.333.302-.333.802v1.968q0 .5.333.818.349.318.833.318zm5.458 1.742q-.666 0-1.196-.198-.515-.196-.894-.56-.363-.378-.56-.893-.197-.53-.197-1.166v-2.074q0-.651.197-1.166t.56-.878q.379-.364.894-.56.53-.213 1.196-.213h.606q.636 0 1.15.182v-2.786h1.696v10.311zm1.756-1.742v-3.104q0-.5-.333-.802-.333-.318-.817-.318h-.606q-.485 0-.833.318-.333.302-.333.802v1.968q0 .5.333.818.348.318.833.318zm11.606-4.24q-.394 0-.651.106-.242.091-.379.258t-.196.409q-.046.227-.046.5v4.708h-1.77v-7.707h1.77v.197q.53-.197 1.136-.197h.787q.666 0 1.181.227t.848.606q.348.364.515.848.182.47.182.954v5.072h-1.772v-4.709q0-.272-.045-.5-.046-.242-.182-.408-.121-.167-.363-.258-.243-.106-.652-.106zm7.752-1.726q.667 0 1.181.212.53.197.894.56.378.364.575.879t.197 1.166v2.074q0 .636-.197 1.166-.197.515-.575.893-.364.364-.894.56-.514.197-1.18.197h-.621q-.652 0-1.181-.197t-.909-.56q-.363-.378-.56-.893-.182-.53-.182-1.166v-2.074q0-.651.182-1.166.197-.515.56-.878.379-.364.909-.56.53-.213 1.18-.213zm-.62 1.742q-.47 0-.803.318-.318.302-.318.802v1.968q0 .5.318.818.333.318.803.318h.62q.485 0 .788-.318.318-.318.318-.818v-1.968q0-.5-.318-.802-.303-.318-.788-.318zm7.245 5.966q-.667 0-1.197-.198-.514-.196-.893-.56-.363-.378-.56-.893-.197-.53-.197-1.166v-2.074q0-.651.197-1.166t.56-.878q.379-.364.893-.56.53-.213 1.197-.213h.605q.636 0 1.151.182v-2.786h1.696v10.311zm1.756-1.742v-3.104q0-.5-.333-.802-.333-.318-.818-.318h-.605q-.485 0-.833.318-.333.302-.333.802v1.968q0 .5.333.818.348.318.833.318zm2.642-3.225q0-.56.212-1.045.212-.5.56-.878t.803-.59q.454-.228.908-.228h1.726q.59 0 1.045.258.47.242.772.636.318.378.485.863.182.47.182.923v1.954h-4.906v.408q0 .545.303.773t.802.227h3.528v1.696h-3.922q-.514 0-.969-.197-.454-.212-.802-.56-.333-.349-.53-.833t-.197-1.06zm1.802.454h3.134v-.076q0-.59-.303-.969-.302-.393-.817-.393h-.939q-.242 0-.44.12-.196.107-.332.289t-.227.439q-.076.242-.076.514zm11.295-3.195h1.424v-2.604h1.786v2.604h1.423v1.742h-1.423v5.965h-1.786v-5.965h-1.424zm8.763 0q.666 0 1.181.212.53.197.894.56.378.364.575.879t.197 1.166v2.074q0 .636-.197 1.166-.197.515-.575.893-.364.364-.894.56-.515.197-1.18.197h-.622q-.65 0-1.18-.197t-.909-.56q-.363-.378-.56-.893-.182-.53-.182-1.166v-2.074q0-.651.182-1.166.197-.515.56-.878.378-.364.908-.56.53-.213 1.181-.213zm-.62 1.742q-.47 0-.803.318-.318.302-.318.802v1.968q0 .5.318.818.333.318.802.318h.621q.485 0 .788-.318.318-.318.318-.818v-1.968q0-.5-.318-.802-.303-.318-.788-.318zm11.957-2.574h-1.665v-1.772h1.665zm-3.134 9.539h.318q.515 0 .802-.318.288-.303.288-.803v-7.586h1.756v7.526q0 .635-.166 1.15-.167.53-.515.894-.348.363-.893.56-.53.212-1.272.212h-.318zm7.828-2.726q.379 0 .606-.09.242-.092.378-.243.152-.151.212-.363t.06-.455v-4.83h1.772v7.707h-1.771v-.197q-.243.106-.53.152-.273.045-.59.045h-.773q-.681 0-1.196-.227-.5-.227-.833-.59-.333-.379-.515-.848-.166-.485-.166-.97v-5.072h1.756v4.71q0 .272.046.499t.181.409q.137.166.379.272.242.091.65.091zm7.389-4.255q-.394 0-.651.106-.242.091-.379.258t-.197.409q-.045.227-.045.5v4.708h-1.771v-7.707h1.771v.197q.53-.197 1.136-.197h.787q.666 0 1.181.227t.848.606q.348.364.515.848.181.47.181.954v5.072h-1.771v-4.709q0-.272-.046-.5-.045-.242-.181-.408-.121-.167-.364-.258-.242-.106-.65-.106zm7.676 4.24q.364 0 .621-.167.258-.181.333-.484h1.802q-.136 1.09-.848 1.741t-1.908.651h-.62q-.651 0-1.181-.197t-.894-.56q-.363-.378-.575-.893-.197-.53-.197-1.166v-2.074q0-.651.197-1.166.212-.515.575-.878t.894-.56q.53-.213 1.18-.213h.621q1.227 0 1.939.651t.817 1.787h-1.786q-.091-.333-.334-.515t-.636-.181h-.62q-.485 0-.803.318-.303.302-.303.802v1.968q0 .5.303.818.318.318.803.318zm3.287-5.966h1.422v-2.604h1.787v2.604h1.423v1.742H142.1v5.965h-1.787v-5.965h-1.423zm7.327 7.708h-1.786v-7.708h1.786zm0-8.54h-1.786v-1.772h1.786zm4.543.832q.666 0 1.18.212.53.197.894.56.379.364.576.879t.196 1.166v2.074q0 .636-.196 1.166-.197.515-.576.893-.363.364-.893.56-.515.197-1.181.197h-.621q-.651 0-1.181-.197t-.908-.56q-.364-.378-.56-.893-.182-.53-.182-1.166v-2.074q0-.651.181-1.166.197-.515.56-.878.38-.364.909-.56.53-.213 1.181-.213zm-.621 1.742q-.47 0-.802.318-.318.302-.318.802v1.968q0 .5.318.818.333.318.802.318h.62q.485 0 .788-.318.318-.318.318-.818v-1.968q0-.5-.318-.802-.303-.318-.787-.318zm7.745-.016q-.394 0-.651.106-.243.091-.379.258t-.197.409q-.045.227-.045.5v4.708h-1.772v-7.707h1.772v.197q.53-.197 1.135-.197h.788q.666 0 1.18.227t.849.606q.348.364.515.848.181.47.181.954v5.072h-1.771v-4.709q0-.272-.046-.5-.045-.242-.181-.408-.122-.167-.364-.258-.242-.106-.65-.106zm9.826-.227h-3.013q-.197 0-.333.076-.12.06-.212.182-.09.12-.136.272-.045.137-.045.273 0 .288.181.53.197.227.47.227h1.695q.53 0 .924.182.409.181.666.5.273.317.394.756.136.44.136.94v.044q0 .5-.166.909-.152.409-.44.696t-.68.455-.834.166h-3.664v-1.499h3.15q.348 0 .636-.197.302-.196.318-.59v.015q0-.227-.091-.378-.076-.152-.212-.243-.137-.106-.303-.151t-.348-.046h-1.363q-.666 0-1.105-.212-.424-.212-.682-.545-.242-.333-.333-.757t-.09-.863q0-.454.136-.878t.393-.742q.273-.333.666-.515t.894-.181h3.391zM12.76 145.518v4.164h-1.923v-10.31h4.421q.59 0 1.106.226.514.212.878.59.378.38.59.894.227.515.227 1.09v.454q0 .576-.227 1.09-.212.5-.59.894-.364.378-.878.59t-1.106.212h-.515l3.498 4.27h-2.195zm0-4.345v2.438h2.195q.651 0 .954-.318t.303-.894q0-.545-.303-.878-.303-.348-.954-.348zm6.366 3.543q0-.56.212-1.045.212-.5.56-.878t.803-.59q.454-.228.908-.228h1.726q.59 0 1.045.258.47.242.772.636.318.378.485.863.181.47.181.923v1.954h-4.905v.408q0 .545.303.773t.802.227h3.528v1.696h-3.922q-.514 0-.969-.197-.454-.212-.802-.56-.333-.349-.53-.833t-.197-1.06zm1.802.454h3.134v-.076q0-.59-.303-.969-.303-.393-.817-.393h-.94q-.241 0-.438.12-.197.107-.333.289t-.227.439q-.076.242-.076.514zm9.596 4.512h-1.696l-2.332-7.707h1.68l1.485 4.891 1.438-4.89h1.696zm3.062-4.966q0-.56.212-1.045.212-.5.56-.878t.803-.59q.454-.228.908-.228h1.726q.59 0 1.045.258.47.242.772.636.318.378.485.863.181.47.181.923v1.954h-4.905v.408q0 .545.302.773t.803.227h3.528v1.696h-3.922q-.515 0-.969-.197-.454-.212-.802-.56-.333-.349-.53-.833t-.197-1.06zm1.802.454h3.134v-.076q0-.59-.303-.969-.303-.393-.818-.393h-.938q-.243 0-.44.12-.196.107-.333.289t-.227.439q-.075.242-.075.514zm7.919-1.62q.211-.348.56-.606.363-.272.787-.454.44-.182.924-.272t.969-.091h.197v1.877h-.197q-.545 0-1.12.227-.576.212-1.06.576-.47.348-.773.787-.287.44-.287.878v3.21h-1.878v-7.767h1.878zm9.868-.076h-3.013q-.197 0-.333.076-.122.06-.212.182t-.137.272q-.045.137-.045.273 0 .288.182.53.196.227.469.227h1.696q.53 0 .923.182.41.181.667.5.272.317.393.756.137.44.137.94v.044q0 .5-.167.909-.151.409-.44.696t-.68.455-.833.166h-3.664v-1.499h3.149q.348 0 .636-.197.303-.196.318-.59v.015q0-.227-.091-.378-.076-.152-.212-.243-.136-.106-.303-.151t-.348-.046h-1.363q-.666 0-1.105-.212-.424-.212-.681-.545-.243-.333-.333-.757t-.091-.863q0-.454.136-.878t.394-.742q.272-.333.666-.515t.893-.181h3.392zm1.703 1.242q0-.56.212-1.045.212-.5.56-.878t.803-.59q.454-.228.908-.228h1.726q.59 0 1.045.258.47.242.772.636.318.378.485.863.182.47.182.923v1.954h-4.906v.408q0 .545.303.773t.802.227h3.528v1.696h-3.922q-.514 0-.969-.197-.454-.212-.802-.56-.333-.349-.53-.833t-.197-1.06zm1.802.454h3.134v-.076q0-.59-.303-.969-.302-.393-.817-.393h-.939q-.242 0-.44.12-.196.107-.332.289t-.227.439q-.076.242-.076.514zm13.385-4.027h-1.666v-1.772h1.666zm-3.134 9.539h.318q.514 0 .802-.318.288-.303.288-.803v-7.586h1.756v7.526q0 .635-.166 1.15-.167.53-.515.894t-.894.56q-.53.212-1.271.212h-.318zm7.828-2.726q.378 0 .605-.09.242-.092.379-.243.151-.151.212-.363t.06-.455v-4.83h1.772v7.707h-1.772v-.197q-.242.106-.53.152-.272.045-.59.045h-.772q-.682 0-1.197-.227-.5-.227-.832-.59-.333-.379-.515-.848-.167-.485-.167-.97v-5.072h1.757v4.71q0 .272.045.499t.182.409q.136.166.378.272.243.091.651.091zm7.388-4.255q-.393 0-.65.106-.243.091-.38.258t-.196.409q-.045.227-.045.5v4.708h-1.772v-7.707h1.772v.197q.53-.197 1.135-.197h.788q.666 0 1.18.227t.848.606q.349.364.515.848.182.47.182.954v5.072h-1.772v-4.709q0-.272-.045-.5-.045-.242-.182-.408-.12-.167-.363-.258-.242-.106-.651-.106zm7.677 4.24q.363 0 .62-.167.258-.181.334-.484h1.802q-.137 1.09-.848 1.741t-1.908.651h-.62q-.652 0-1.182-.197t-.893-.56q-.363-.378-.575-.893-.197-.53-.197-1.166v-2.074q0-.651.197-1.166.212-.515.575-.878t.893-.56q.53-.213 1.181-.213h.621q1.227 0 1.938.651t.818 1.787h-1.787q-.09-.333-.333-.515t-.636-.181h-.62q-.485 0-.803.318-.303.302-.303.802v1.968q0 .5.303.818.318.318.802.318zm3.286-5.966h1.423v-2.604h1.787v2.604h1.423v1.742H96.32v5.965h-1.787v-5.965H93.11zm7.328 7.707h-1.787v-7.707h1.787zm0-8.54h-1.787v-1.77h1.787zm4.542.833q.667 0 1.181.212.53.197.894.56.378.364.575.879t.197 1.166v2.074q0 .636-.197 1.166-.197.515-.575.893-.364.364-.894.56-.514.197-1.18.197h-.621q-.651 0-1.181-.197t-.909-.56q-.363-.378-.56-.893-.182-.53-.182-1.166v-2.074q0-.651.182-1.166.197-.515.56-.878.379-.364.909-.56.53-.213 1.18-.213zm-.62 1.742q-.47 0-.803.318-.318.302-.318.802v1.968q0 .5.318.818.333.318.803.318h.62q.485 0 .788-.318.318-.318.318-.818v-1.968q0-.5-.318-.802-.303-.318-.788-.318zm7.744-.016q-.393 0-.65.106-.243.091-.38.258t-.196.409q-.046.227-.046.5v4.708h-1.771v-7.707h1.771v.197q.53-.197 1.136-.197h.787q.667 0 1.181.227t.848.606q.349.364.515.848.182.47.182.954v5.072h-1.772v-4.709q0-.272-.045-.5-.046-.242-.182-.408-.12-.167-.363-.258-.242-.106-.651-.106zm9.827-.227h-3.013q-.197 0-.333.076-.121.06-.212.182-.091.12-.136.272-.046.137-.046.273 0 .288.182.53.197.227.47.227h1.695q.53 0 .924.182.408.181.666.5.272.317.393.756.137.44.137.94v.044q0 .5-.167.909-.151.409-.439.696t-.681.455-.833.166h-3.664v-1.499h3.15q.347 0 .635-.197.303-.196.318-.59v.015q0-.227-.09-.378-.076-.152-.213-.243-.136-.106-.303-.151t-.348-.046h-1.363q-.666 0-1.105-.212-.424-.212-.681-.545-.242-.333-.333-.757t-.091-.863q0-.454.136-.878t.394-.742q.272-.333.666-.515t.893-.181h3.392z" aria-label="junctions = [destination] node = destination while node is not start_pos: node = previous_node [node] add node to junctions Reverse junctions"/></svg>