<svg preserveAspectRatio="none" viewBox="0 0 508 285.75" xmlns="http://www.w3.org/2000/svg"><path fill="#fff" d="M0-8.511h511.76v303.35H0z"/><g transform="translate(0 -11.25)"><path d="M320.85 309.58c44.287 0 141.21-1.327 156.87-.653 30.738 4.548 70.346-.757 86.803 2.907.495-1.66-3.658-99.095-3.658-99.095l-193.03-1.66c-43.054-.357-55.508-.397-83.834-.024l-31.49-.6-41.696 5.419-78.43 4.317L-9.465 212l.58 96.258s57.401.717 96.291.77c37.86.05 47.392-.916 57.008-.916 31.854 0 162.01 1.468 176.44 1.468z" fill="#914e23"/><path d="M279.205 152.097l.355.702-.367.16-.88-1.738.845-.368q.113-.05.23-.054.117-.007.219.026.104.032.189.101.087.068.136.165l.039.077q.05.097.05.202.002.102-.037.2-.037.094-.117.173t-.194.128l-.098.043 1.033.428-.42.183zm-.37-.732l.207.41.42-.182q.124-.055.155-.134t-.018-.175q-.047-.092-.133-.123-.088-.034-.212.02zm1.89-1.196q.116-.05.24-.055.124-.008.237.027t.204.11q.093.072.146.177l.367.725q.053.104.053.217.003.11-.04.213t-.127.19q-.085.083-.2.134l-.226.098q-.119.052-.242.06-.125.004-.238-.03-.11-.037-.203-.109t-.146-.176l-.367-.725q-.053-.104-.053-.216-.001-.115.039-.217.043-.103.128-.187.084-.086.202-.138zm.482.428q-.047-.092-.14-.129-.09-.038-.191.006l-.22.096q-.101.044-.13.134-.026.09.021.181l.35.692q.047.092.138.133.093.037.194-.007l.22-.096q.102-.044.127-.133.027-.093-.02-.185zm.938-.655l-.504.22-.162-.322 1.366-.596.162.321-.509.223.717 1.416-.353.154zm1.463-.639l-.503.22-.163-.322 1.366-.596.163.322-.51.222.717 1.416-.353.154zm1.998.499l.981-.428.149.293-1.354.592-.88-1.739 1.354-.59.149.293-.981.428.217.429.98-.428.148.29-.981.429zm1.438-1.126l.355.702-.367.16-.88-1.738.845-.369q.113-.049.23-.053.117-.008.219.026.105.032.189.101.087.068.136.165l.04.077q.048.097.049.202.002.102-.037.2-.037.094-.117.173t-.194.128l-.098.043 1.033.428-.42.183zm-.37-.732l.207.41.42-.183q.124-.054.155-.133t-.018-.176q-.047-.092-.133-.122-.088-.034-.212.02zm1.117-.859l.9-.393q.096-.042.198-.042.104-.003.2.033t.174.106q.079.065.126.16l.415.819q.05.096.053.195.006.096-.025.188t-.1.165q-.066.073-.161.114l-.9.393zm1.527 1.063q.044-.02.07-.05t.04-.067q.017-.038.014-.078-.003-.042-.024-.082l-.362-.715q-.019-.038-.05-.065-.033-.03-.075-.043-.04-.016-.082-.016t-.086.018l-.449.196.556 1.098zm1.748-.695l-.53.232.063.297-.35.152-.374-1.959.377-.164 1.365 1.526-.347.152zm-.59-.057l.393-.171-.541-.63-.02.009zm1.873-.767l.02-.01-.16-.693q-.078-.349-.159-.697l.414-.18.879 1.735-.284.124-.57-1.128-.018.007q.074.314.142.63.067.314.142.623l-.314.14-.84-1.01-.02.009.57 1.125-.287.125-.878-1.735.413-.18zm-6.731 6.013q.156-.068.301-.082.144-.016.27.023.124.036.227.128t.174.233q.141.278.05.51t-.437.385q-.15.066-.296.085-.142.022-.266-.008-.122-.031-.224-.114-.1-.087-.173-.23l.33-.144q.062.122.179.165.116.04.292-.037.162-.071.218-.192.058-.122-.016-.267-.042-.085-.1-.128-.055-.048-.124-.058-.068-.014-.142 0t-.152.047q-.186.081-.227.196l-.338.147-.482-.952 1.221-.533.154.304-.857.374.162.319q.03-.044.103-.089.075-.048.153-.082zm1.393-1.334q.11-.048.228-.053t.222.028q.108.03.192.1.088.068.138.167l.403.797q.05.097.05.202.003.105-.04.201-.04.096-.119.177t-.189.13l-.295.128q-.11.048-.228.053t-.222-.028-.192-.1q-.085-.07-.134-.166l-.403-.796q-.05-.1-.053-.204 0-.106.04-.202t.118-.176.19-.13zm.47.44q-.022-.044-.061-.073-.038-.033-.089-.049-.047-.017-.098-.013-.053.001-.105.024l-.214.093q-.052.023-.086.06-.036.034-.055.08-.016.044-.016.094.002.046.024.09l.35.691q.022.043.06.077.04.032.088.048.05.013.102.012.05-.003.103-.026l.214-.093q.052-.023.088-.057.034-.037.052-.08.019-.045.016-.093 0-.05-.023-.094zm1.704.157l.02-.01-.16-.693q-.078-.349-.158-.697l.413-.18.879 1.735-.284.124-.57-1.128-.018.007q.074.314.142.63.067.314.142.623l-.314.14-.84-1.01-.02.009.57 1.125-.287.125-.878-1.735.413-.18z" fill="#fff" aria-label="ROTTERDAM 50M"/><path d="M360.246 175.719h.041q.178-.676.363-1.34.191-.663.376-1.356h.834l-1.149 4.108h-.889l-1.19-4.108h.842zm3.084.718h2.32v.694h-3.201v-4.108h3.2v.693h-2.318v1.014h2.318v.687h-2.318zm3.855-1.997v2.69h-.835v-4.107h.835l1.58 2.714v-2.714h.814v4.108h-.814zm3.025-1.417h.868v4.108h-.869zm3.45 3.396q.2 0 .288-.103.096-.108.144-.26h.861q-.027.224-.13.423-.102.193-.273.338-.164.145-.397.23-.225.084-.485.084h-.589q-.273 0-.52-.09-.245-.097-.43-.26t-.294-.38q-.103-.217-.103-.465v-1.713q0-.247.103-.465.11-.223.294-.386t.43-.253q.247-.096.52-.096h.589q.266 0 .492.084t.39.235q.17.145.273.344t.13.428h-.861q-.034-.156-.13-.265t-.301-.109h-.575q-.239 0-.383.151-.136.151-.136.368v1.635q0 .217.136.374.144.15.383.15zm2.762.018h2.319v.694h-3.2v-4.108h3.2v.693h-2.319v1.014h2.319v.687h-2.319zm-14.952 7.323q.48-.32.924-.663.451-.344.862-.682.11-.09.184-.163.082-.078.13-.157t.069-.169q.027-.096.027-.235 0-.096-.041-.187-.041-.096-.123-.163-.075-.066-.178-.102-.096-.043-.205-.043h-.383q-.116 0-.219.043-.103.036-.178.102t-.123.163q-.04.09-.04.187v.145h-.753v-.266q0-.223.096-.416.095-.199.26-.344.17-.144.39-.229.225-.084.478-.084h.595q.253 0 .472.084.226.085.39.23t.26.343q.095.193.095.416v.09q0 .182-.02.333-.014.15-.069.29-.054.132-.164.259-.102.12-.266.26-.39.33-.821.657-.424.32-.862.597h2.12v.615h-2.906zm5.344-3.221q.26 0 .492.09t.404.242q.178.15.273.356.103.205.103.44v1.882q0 .23-.103.434-.095.206-.273.356-.171.151-.404.242t-.492.09h-.698q-.26 0-.492-.09t-.404-.242-.273-.356q-.096-.205-.096-.434v-1.882q0-.235.096-.44.102-.205.273-.356t.404-.242.492-.09zm.479 1.249q0-.103-.048-.193-.041-.097-.123-.17-.076-.072-.178-.108-.103-.042-.226-.042h-.506q-.123 0-.226.042-.102.036-.184.109-.076.072-.124.169-.04.09-.04.193v1.634q0 .103.04.2.048.096.124.168.082.067.184.109.103.036.226.036h.506q.123 0 .226-.036.102-.042.178-.109.082-.072.123-.169.048-.096.048-.199zm3.287-1.249q.26 0 .493.09t.403.242q.178.15.274.356.103.205.103.44v1.882q0 .23-.103.434-.096.206-.274.356-.17.151-.403.242t-.493.09h-.697q-.26 0-.493-.09t-.403-.242-.274-.356q-.095-.205-.095-.434v-1.882q0-.235.095-.44.103-.205.274-.356t.403-.242.493-.09zm.48 1.249q0-.103-.049-.193-.04-.097-.123-.17-.075-.072-.178-.108-.102-.042-.225-.042h-.506q-.123 0-.226.042-.103.036-.185.109-.075.072-.123.169-.04.09-.04.193v1.634q0 .103.04.2.048.096.123.168.082.067.185.109.103.036.226.036h.506q.123 0 .225-.036.103-.042.178-.109.082-.072.123-.169.048-.096.048-.199zm3.145 1.743h.047l.37-1.478q.191-.742.376-1.484h.978v4.102h-.67v-2.666h-.041q-.165.67-.342 1.339-.178.664-.335 1.327l-.746.006-.636-2.666h-.048v2.66h-.677v-4.102h.978z" fill="#fff" aria-label="VENICE 200M"/><path d="M-18.529 223.703h594.477v-9.837H-18.529v9.837" fill="#547429"/><path d="M575.913 215.97l-1.372-23.063-1.168 14.688-.557-20.455-1.486 23.616-.867-10.473-1.053 10.569-1.239-18.263-1.052 17.6-.867-7.644-.743 7.425-.867-2.334-.618 2.757-1.55-14.853-1.3 14.216-.743-7.424-2.23 7.21-1.795-21.641-.99 17.823-1.487-8.698-1.858 11.243-1.486-26.382-2.415 34.083h27.743" fill="#547429"/><path d="M547.928 201.589l-.798 13.158-1.717-16.604-1.228 11.14-.49-2.838-1.165 3.886-1.288-17.865-1.105 18.287-.737-9.164-1.287 9.164-.86-13.033-1.288 13.033-.92-7.145-1.043 7.145-1.534-16.394-1.227 16.603-1.165-9.374-.736 8.953-1.166-4.622-1.595 5.466-1.044-17.66-1.963 21.021 25.384 1.323-1.028-14.482" fill="#547429"/><path d="M524.686 215.97l-1.373-23.063-1.167 14.688-.557-20.455-1.486 23.616-.867-10.473-1.053 10.569-1.238-18.263-1.053 17.6-.866-7.644-.744 7.425-.867-2.334-.62 2.757-1.547-14.853-1.3 14.216-.744-7.424-2.229 7.21-1.796-26.733-.99 22.915-1.486-8.698-1.859 11.243-1.486-16.197-2.415 23.898h27.743" fill="#547429"/><path d="M496.582 201.589l-.797 13.158-1.718-16.604-1.227 11.14-.49-2.838-1.166 3.886-1.288-17.865-1.105 18.287-.736-9.164-1.288 9.164-.86-13.033-1.288 13.033-.92-7.145-1.042 7.145-1.535-16.394-1.226 16.603-1.166-9.374-.736 8.953-1.165-4.622-1.595 5.466-1.044-17.66-1.963 21.021 25.383 1.323-1.028-14.482" fill="#547429"/><path d="M473.34 215.97l-1.371-23.063-1.167 14.688-1.3-23-.743 26.163-.868-10.474-1.052 10.57-1.239-18.263-1.053 17.599-.866-7.644-.743 7.426-.867-2.335-.62 2.757-1.548-14.853-1.3 14.217-.744-7.425-2.228 7.211-1.796-21.642-.992 17.823-1.486-8.698-1.857 11.244-1.487-16.198-2.414 23.898h27.741" fill="#547429"/><path d="M445.356 201.589l-.798 13.158-1.718-16.604-1.227 11.14-.49-2.838-1.166 3.886-1.288-17.865-1.105 18.287-.736-9.164-1.288 9.164-.859-13.033-1.288 13.033-.92-7.145-1.043 7.145-1.534-16.394-1.227 16.603-1.166-9.374-.736 8.953-1.165-4.622-1.595 5.466-1.043-17.66L421 214.747l25.383 1.323-1.027-14.482" fill="#547429"/><path d="M422.114 215.97l-1.372-23.063-1.167 14.688-.557-20.455-1.486 23.616-.868-10.473-1.052 10.569-1.238-18.263-1.054 17.6-.866-7.644-.743 7.425-.867-2.334-.62 2.757-1.548-17.4-1.3 16.763-.743-7.424-2.23 7.21-1.795-21.641-.992 17.823-1.486-8.698-1.857 11.243-1.486-16.197-2.415 23.898h27.742" fill="#547429"/><path d="M394.13 201.589l-.798 13.158-1.718-16.604-1.227 11.14-1.233-5.384-.423 6.432-1.288-17.865-1.105 18.287-.736-9.164-1.288 9.164-.859-13.033-1.288 13.033-.92-7.145-1.043 7.145-1.534-16.394-1.227 16.603-1.166-9.374-.736 8.953-1.166-4.622-1.594 5.466-1.043-17.66-1.964 21.021 25.382 1.323-1.027-14.482" fill="#547429"/><path d="M370.77 215.97l-1.373-23.063-1.167 14.688-.557-20.455-1.487 23.616-.867-10.473-1.052 10.569-1.239-18.263-1.053 17.6-.867-7.644-.743 7.425-.867-2.334-.618 2.757-1.55-14.853-1.3 14.216-1.486-9.97-1.486 9.757-1.796-21.642-.99 17.823-1.487-8.698-1.857 11.243-1.486-16.197-2.416 23.898h27.743" fill="#547429"/><path d="M342.784 201.589l-.798 13.158-1.717-16.604-1.227 11.14-.49-2.838-1.167 3.886-1.288-17.865-1.104 18.287-.737-9.164-1.287 9.164-.86-13.033-1.287 13.033-.921-7.145-1.043 7.145-1.534-16.394-1.226 16.603-1.167-9.374-.735 8.953-1.166-4.622-1.595 5.466-1.043-17.66-1.963 21.021 25.382 1.323-1.027-14.482" fill="#547429"/><path d="M319.543 215.97l-1.373-23.063-1.167 14.688-.557-20.455-1.486 23.616-.867-10.473-1.053 10.569-1.239-18.263-1.053 17.6-.866-7.644-.743 7.425-.868-2.334-.619 2.757-1.548-14.853-1.3 14.216-.743-7.424-2.23 7.21-1.795-21.641-.991 17.823-1.486-8.698-1.858 11.243-1.486-16.197-2.415 23.898h27.743" fill="#547429"/><path d="M291.558 201.589l-.798 13.158-1.717-16.604-1.228 11.14-.49-2.838-1.166 3.886-1.287-17.865-1.105 18.287-.737-9.164-1.287 9.164-.86-13.033-1.288 13.033-.92-7.145-1.043 7.145-1.534-16.394-1.226 16.603-1.165-9.374-.738 8.953-1.165-4.622-1.595 5.466-1.043-17.66-1.963 21.021 25.382 1.323-1.028-14.482" fill="#547429"/><path d="M268.316 215.97l-1.371-23.063-1.168 14.688-.557-20.455-1.487 23.616-.867-10.473-1.052 10.569-1.24-18.263-1.052 17.6-.866-7.644-.743 7.425-.868-2.334-.619 2.757-1.548-14.853-1.3 14.216-.744-7.424-2.229 7.21-1.795-21.641-.992 17.823-1.485-8.698-1.858 11.243-1.486-16.197-2.416 23.898h27.743" fill="#547429"/><path d="M240.213 201.589l-.797 13.158-1.719-16.604-1.226 11.14-.49-2.838-1.167 3.886-1.288-17.865-1.104 18.287-.736-9.164-1.29 9.164-.858-13.033-1.287 13.033-.92-7.145-1.045 7.145-1.534-16.394-1.225 16.603-1.166-9.374-.736 8.953-1.166-4.622-1.596 5.466-1.042-17.66-1.964 21.021 25.382 1.323-1.027-14.482" fill="#547429"/><path d="M216.97 215.97l-1.371-23.063-1.168 14.688-.557-20.455-1.486 23.616-.867-10.473-1.052 10.569-1.24-18.263-1.052 17.6-.866-7.644-.744 7.425-.867-2.334-.619 2.757-1.548-14.853-1.3 14.216-.744-7.424-2.229 7.21-1.796-21.641-.99 17.823-1.487-8.698-1.858 11.243-1.486-16.197-2.415 23.898h27.743" fill="#547429"/><path d="M188.986 201.589l-.797 13.158-1.718-16.604-1.226 11.14-.491-2.838-1.166 3.886-1.288-17.865-1.104 18.287-.736-9.164-1.29 9.164-.858-13.033-1.287 13.033-.921-7.145-1.043 7.145-1.535-16.394-1.225 16.603-1.166-9.374-.737 8.953-1.166-4.622-1.594 5.466-1.043-17.66-1.964 21.021 25.382 1.323-1.028-14.482" fill="#547429"/><path d="M165.744 215.97l-1.371-23.063-1.168 14.688-.557-20.455-1.486 23.616-.868-10.473-1.051 10.569-1.24-18.263-1.052 17.6-.867-7.644-.743 7.425-.867-2.334-.619 2.757-1.548-14.853-1.301 14.216-.743-7.424-2.229 7.21-1.796-21.641-.99 17.823-1.487-8.698-1.858 11.243-1.486-16.197-2.415 23.898h27.742" fill="#547429"/><path d="M137.76 201.589l-.797 13.158-1.718-16.604-1.227 11.14-.49-2.838-1.167 3.886-1.288-17.865-1.104 18.287-.736-9.164-1.289 9.164-.86-13.033-1.287 13.033-.92-7.145-1.043 7.145-1.534-16.394-1.226 16.603-1.166-9.374-.736 8.953-1.166-4.622-1.595 5.466-1.043-17.66-1.964 21.021 25.383 1.323-1.027-14.482" fill="#547429"/><path d="M114.518 215.97l-1.372-23.063-1.168 14.688-.557-20.455-1.486 23.616-.867-10.473-1.052 10.569-1.239-18.263-1.053 17.6-.867-7.644-.743 7.425-.867-2.334-.619 2.757-1.548-14.853-1.3 14.216-.744-7.424-2.23 7.21-1.794-21.641-.991 17.823-1.487-8.698-1.857 11.243-1.487-16.197-2.415 23.898h27.743" fill="#547429"/><path d="M86.414 201.589l-.796 13.158-1.719-16.604-1.226 11.14-.49-2.838-1.167 3.886-1.288-17.865-1.105 18.287-.735-9.164-1.29 9.164-.859-13.033-1.287 13.033-.92-7.145-1.043 7.145-1.534-16.394-1.227 16.603-1.165-9.374-.737 8.953-1.165-4.622-1.595 5.466-1.044-17.66-1.963 21.021 25.382 1.323-1.027-14.482" fill="#547429"/><path d="M63.173 215.97L61.8 192.907l-1.168 14.688-.557-20.455-1.487 23.616-.867-10.473-1.052 10.569-1.238-18.263-1.053 17.6-.867-7.644-.743 7.425-.867-2.334-.619 2.757-1.549-14.853-1.3 14.216-.743-7.424-2.23 7.21-1.794-21.641-.992 17.823-1.486-8.698-1.858 11.243-1.486-16.197-2.415 23.898h27.743" fill="#547429"/><path d="M35.188 201.589l-.797 13.158-1.719-16.604-1.226 11.14-.49-2.838-1.167 3.886-1.288-17.865-1.104 18.287-.736-9.164-1.29 9.164-.858-13.033-1.288 13.033-.92-7.145-1.043 7.145-1.534-16.394-1.227 16.603-1.165-9.374-.737 8.953-1.165-4.622-1.595 5.466-1.043-17.66-1.964 21.021 25.384 1.323-1.028-14.482" fill="#547429"/><path d="M-18.529 207.965l2.184-10.82 1.396 13.004 1.561-12.95 1.487 11.03 1.857-6.152 1.487 6.152.99-15.276 1.796 16.55 1.486-9.757 1.487 9.97 1.3-14.216 1.549 14.853.619-2.757.867 2.335.743-7.425.866 7.643L4.2 192.55l1.239 18.265 1.052-10.567.867 10.478 1.486-23.607.558 20.474 1.167-14.725 1.372 23.062h-30.47v-7.963" fill="#547429"/><path d="M575.913 228.587H-18.565v-9.837h594.478v9.837" fill="#72b32d"/><path d="M-18.529 220.854l1.371-22.976 1.168 14.731.557-20.433 1.486 23.626.868-10.467 1.052 10.572 1.239-18.263 1.052 17.6.867-7.643.743 7.424.867-2.334.62 2.758 1.548-14.853 1.3 14.217.744-7.424 2.229 7.21 1.795-21.642.991 17.823 1.486-8.697 1.858 11.243 1.486-26.469 2.416 33.996H-18.53" fill="#72b32d"/><path d="M9.456 206.744l.797 13.159 1.718-16.605 1.226 11.14.491-2.837 1.166 3.886 1.288-17.865 1.105 18.288.735-9.165 1.29 9.165.858-13.034 1.288 13.034.92-7.146 1.044 7.146 1.534-16.396 1.226 16.605 1.166-9.374.736 8.954 1.166-4.623 1.594 5.466 1.043-17.659 1.964 21.021-25.383 1.322 1.027-14.481" fill="#72b32d"/><path d="M32.698 220.854l1.37-22.976 1.169 14.731.557-20.433 1.486 23.626.867-10.467 1.052 10.572 1.239-18.263 1.053 17.6.867-7.643.743 7.424.867-2.334.62 2.758 1.547-14.853 1.3 14.217.744-7.424 2.23 7.21 1.794-26.734.992 22.915 1.486-8.697 1.858 11.243 1.486-16.284 2.415 23.811H32.697" fill="#72b32d"/><path d="M60.801 206.744l.797 13.159 1.718-16.605 1.226 11.14.491-2.837 1.166 3.886 1.288-17.865 1.105 18.288.736-9.165 1.289 9.165.859-13.034 1.287 13.034.92-7.146 1.044 7.146 1.534-16.396 1.226 16.605 1.165-9.374.737 8.954 1.166-4.623 1.594 5.466 1.044-17.659 1.963 21.021-25.382 1.322 1.027-14.481" fill="#72b32d"/><path d="M84.043 220.854l1.372-22.976 1.167 14.731 1.3-22.978.743 26.172.867-10.467 1.053 10.572 1.239-18.263 1.053 17.6.866-7.643.743 7.425.867-2.334.62 2.757 1.548-14.853 1.3 14.217.743-7.424 2.23 7.21 1.795-21.642.991 17.823 1.487-8.697 1.857 11.244 1.486-16.285 2.415 23.812H84.042" fill="#72b32d"/><path d="M112.028 206.744l.797 13.159 1.718-16.605 1.226 11.14.491-2.837 1.166 3.886 1.288-17.865 1.105 18.288.736-9.165 1.288 9.165.86-13.034 1.287 13.034.92-7.146 1.044 7.146 1.534-16.396 1.226 16.605 1.165-9.374.737 8.954 1.166-4.623 1.595 5.466 1.042-17.659 1.964 21.021-25.384 1.322 1.028-14.481" fill="#72b32d"/><path d="M135.27 220.854l1.37-22.976 1.168 14.731.558-20.433 1.486 23.626.867-10.467 1.052 10.572 1.239-18.263 1.053 17.6.866-7.643.743 7.424.868-2.334.618 2.758 1.549-17.4 1.3 16.764.744-7.424 2.228 7.21 1.796-21.642.991 17.823 1.487-8.697 1.857 11.243 1.486-16.284 2.415 23.811H135.27" fill="#72b32d"/><path d="M163.254 206.744l.797 13.159 1.718-16.605 1.226 11.14 1.234-5.383.423 6.432 1.288-17.865 1.105 18.288.736-9.165 1.289 9.165.859-13.034 1.287 13.034.92-7.146 1.043 7.146 1.535-16.396 1.226 16.605 1.166-9.374.736 8.954 1.166-4.623 1.594 5.466 1.043-17.659 1.964 21.021-25.384 1.322 1.029-14.481" fill="#72b32d"/><path d="M186.496 220.854l1.371-22.976 1.168 14.731.557-20.433 1.486 23.626.867-10.467 1.053 10.572 1.238-18.263 1.053 17.6.867-7.643.743 7.424.867-2.334.62 2.758 1.548-14.853 1.3 14.217 1.486-9.97 1.487 9.756 1.795-21.642.99 17.823 1.488-8.697 1.857 11.243 1.486-16.284 2.415 23.811h-27.743" fill="#72b32d"/><path d="M214.6 206.744l.796 13.159 1.719-16.605 1.226 11.14.49-2.837 1.166 3.886 1.289-17.865 1.104 18.288.736-9.165 1.289 9.165.859-13.034 1.287 13.034.92-7.146 1.044 7.146 1.534-16.396 1.226 16.605 1.166-9.374.737 8.954 1.165-4.623 1.595 5.466 1.042-17.659 1.964 21.021-25.383 1.322 1.028-14.481" fill="#72b32d"/><path d="M237.84 220.854l1.372-22.976 1.168 14.731.557-20.433 1.486 23.626.868-10.467 1.052 10.572 1.238-18.263 1.053 17.6.867-7.643.743 7.424.867-2.334.619 2.758 1.549-14.853 1.3 14.217.743-7.424 2.23 7.21 1.795-21.642.991 17.823 1.486-8.697 1.858 11.243 1.486-16.284 2.415 23.811H237.84" fill="#72b32d"/><path d="M265.826 206.744l.797 13.159 1.718-16.605 1.227 11.14.49-2.837 1.167 3.886 1.287-17.865 1.105 18.288.736-9.165 1.288 9.165.86-13.034 1.287 13.034.92-7.146 1.044 7.146 1.534-16.396 1.226 16.605 1.165-9.374.737 8.954 1.166-4.623 1.594 5.466 1.043-17.659 1.964 21.021-25.383 1.322 1.027-14.481" fill="#72b32d"/><path d="M289.067 220.854l1.372-22.976 1.168 14.731.557-20.433 1.487 23.626.866-10.467 1.053 10.572 1.239-18.263 1.053 17.6.866-7.643.743 7.424.868-2.334.619 2.758 1.548-14.853 1.3 14.217.743-7.424 2.23 7.21 1.795-21.642.991 17.823 1.487-8.697 1.857 11.243 1.486-16.284 2.415 23.811h-27.743" fill="#72b32d"/><path d="M317.17 206.744l.797 13.159 1.719-16.605 1.226 11.14.49-2.837 1.167 3.886 1.289-17.865 1.104 18.288.735-9.165 1.289 9.165.86-13.034 1.287 13.034.92-7.146 1.043 7.146 1.534-16.396 1.227 16.605 1.165-9.374.737 8.954 1.165-4.623 1.595 5.466 1.043-17.659 1.963 21.021-25.383 1.322 1.028-14.481" fill="#72b32d"/><path d="M340.413 220.854l1.37-22.976 1.168 14.731.557-20.433 1.487 23.626.867-10.467 1.052 10.572 1.238-18.263 1.054 17.6.866-7.643.743 7.424.867-2.334.62 2.758 1.548-14.853 1.3 14.217.743-7.424 2.23 7.21 1.795-21.642.992 17.823 1.485-8.697 1.858 11.243 1.487-16.284 2.414 23.811h-27.742" fill="#72b32d"/><path d="M368.397 206.744l.797 13.159 1.719-16.605 1.226 11.14.49-2.837 1.167 3.886 1.288-17.865 1.104 18.288.736-9.165 1.29 9.165.858-13.034 1.287 13.034.921-7.146 1.043 7.146 1.534-16.396 1.226 16.605 1.167-9.374.736 8.954 1.165-4.623 1.595 5.466 1.043-17.659 1.963 21.021-25.382 1.322 1.028-14.481" fill="#72b32d"/><path d="M391.64 220.854l1.37-22.976 1.168 14.731.558-20.433 1.486 23.626.867-10.467 1.052 10.572 1.239-18.263 1.052 17.6.867-7.643.743 7.424.867-2.334.62 2.758 1.548-14.853 1.3 14.217.743-7.424 2.23 7.21 1.795-21.642.991 17.823 1.487-8.697 1.857 11.243 1.487-16.284 2.414 23.811H391.64" fill="#72b32d"/><path d="M419.624 206.744l.796 13.159 1.719-16.605 1.226 11.14.49-2.837 1.167 3.886 1.288-17.865 1.104 18.288.736-9.165 1.289 9.165.86-13.034 1.286 13.034.921-7.146 1.043 7.146 1.534-16.396 1.226 16.605 1.167-9.374.736 8.954 1.165-4.623 1.595 5.466 1.043-17.659 1.963 21.021-25.382 1.322 1.029-14.481" fill="#72b32d"/><path d="M442.866 220.854l1.37-22.976 1.169 14.731.557-20.433 1.486 23.626.868-10.467 1.052 10.572 1.239-18.263 1.052 17.6.867-7.643.743 7.424.867-2.334.619 2.758 1.549-14.853 1.3 14.217.743-7.424 2.23 7.21 1.795-21.642.991 17.823 1.486-8.697 1.858 11.243 1.486-16.284 2.415 23.811h-27.742" fill="#72b32d"/><path d="M470.97 206.744l.796 13.159 1.718-16.605 1.227 11.14.49-2.837 1.166 3.886 1.288-17.865 1.104 18.288.737-9.165 1.288 9.165.86-13.034 1.287 13.034.92-7.146 1.044 7.146 1.534-16.396 1.226 16.605 1.166-9.374.736 8.954 1.166-4.623 1.595 5.466 1.042-17.659 1.964 21.021-25.383 1.322 1.028-14.481" fill="#72b32d"/><path d="M494.21 220.854l1.373-22.976 1.167 14.731.557-20.433 1.487 23.626.867-10.467 1.052 10.572 1.239-18.263 1.053 17.6.866-7.643.743 7.424.867-2.334.62 2.758 1.548-14.853 1.3 14.217.743-7.424 2.23 7.21 1.795-21.642.991 17.823 1.486-8.697 1.859 11.243 1.486-16.284 2.415 23.811H494.21" fill="#72b32d"/><path d="M522.196 206.744l.797 13.159 1.718-16.605 1.227 11.14.49-2.837 1.166 3.886 1.288-17.865 1.105 18.288.735-9.165 1.289 9.165.86-13.034 1.287 13.034.92-7.146 1.044 7.146 1.534-16.396 1.226 16.605 1.165-9.374.737 8.954 1.165-4.623 1.596 5.466 1.042-17.659 1.964 21.021-25.382 1.322 1.027-14.481" fill="#72b32d"/><path d="M575.913 213.121l-2.185-10.821-1.395 13.004-1.561-12.95-1.487 11.03-1.859-6.15-1.485 6.15-.992-15.276-1.795 16.549-1.486-9.757-1.486 9.97-1.301-14.216-1.548 14.853-.62-2.758-.866 2.334-.744-7.424-.866 7.643-1.053-17.599-1.24 18.265-1.05-10.567-.868 10.478-1.486-23.605-.557 20.473-1.168-14.813-1.371 22.976h30.469v-7.79" fill="#72b32d"/><g fill-rule="evenodd"><path d="M60.847 211.249c-5.922-21.407-13.206-42.061-18.613-62.929-2.012-7.76-3.765-15.549-5.093-23.417l5.417 4.672-5.677-6.247c-.946-5.866-1.649-11.778-2.043-17.755-.07-1.096-.141-2.188-.206-3.277l7.968 9.252-8.201-13.27c-1.027-18.32-1.485-35.814-3.977-54.521 11.04 17.13 20.157 24.69 17.156 44.468l5.168-7.919c3.844 26.148 11.093 52.482 2.075 76.643-6.61 17.71 3.248 37.894 10.997 59.766l-4.97-5.468" fill="#a0ba2c"/><path d="M56.342 211.71c-5.482-17.748-11.058-46.134-23.502-60.622-1.71-1.992-3.41-4.012-5.03-6.062-3.049-3.866-5.815-7.85-7.848-11.993-4.49-9.17-5.22-18.748-4.252-31.326 5.104 18.287 21.122 31.075 25.599 47.698 5.76 21.4 11.31 53.747 22.265 68.381H60.13l-3.788-6.075" fill="#68a729"/><path d="M58.07 213.948c-1.123-19.858-5.252-36.121-9.314-55.54-2.29-10.945-2.983-21.258-2.048-33.997l4.132 15.669-1.722-15.989c4.604-11.492 8.88-17.618 17.217-27.18l1.377 11.512.345-12.152c15.394-16.976 30.134-19.687 53.375-22.385L101.46 95.312l-9.987 4.157 8.61-.32c-5.436 9.331-10.886 18.583-15.84 28.14l-14.464 4.797H80.11l-3.098 6.716-3.788 9.273-11.366 10.553 7.577-3.198c-11.207 13.245-11.047 16.089-8.953 33.256l2.755 22.065 1.722 21.105-10.676-.639 3.788-17.268" fill="#86af20"/><path d="M67.892 116.397c9.877-14.842 16.099-22.657 30.8-33.369-9.554 7.8-15.827 13.519-22.65 23.418l14.436-.537-15.399 2.265-5.39 7.27 13.088-.478-13.347 1.67-3.527 6.553 12.255.358-13.09.953c-1.914 4.131-3.412 8.263-4.3 12.395l11.743-2.384-12.382 3.635c-7.615 23.259-2.354 53.358 2.887 77.401l-2.31 4.53c-4.983-33.58-12.101-73.837 7.186-103.681" fill="#98b41b"/><path d="M51.235 234.621l1.666-22.267-3.443-13.431-4.822-13.11-3.788-5.437-4.822 5.756c-12.311-1.09-17.242 6.342-25.824 14.07-4.838-4.99-7.926-.11-2.066 3.518-8.716 6.296-10.708 13.98-15.153 23.344-9.546-15.318-13.697-39.62 2.859-54.842 17.069-15.696 38.195-19.655 48.448 2.397l2.067 5.117 18.407 54.885h-13.53" fill="#739836"/><path d="M38.952 166.376a28.307 28.307 0 011.965 2.432c-8.282-3.15-15.586-3.155-21.909-.875-1.75 6.26-1.077 10.728-.395 18.793-2.142-7.12-1.967-11.2-.992-18.253a29.09 29.09 0 00-4.338 2.294c-1.652 5.624-.989 9.721-.316 17.032-2.06-6.302-1.978-10.02-1.1-16.07a35.443 35.443 0 00-4.215 3.584c-1.509 5.353-.86 9.375-.204 16.418-1.95-5.886-1.98-9.486-1.234-14.917-9.03 9.916-14.579 25.588-16.604 41.373 1.444-27.16 16.22-60.596 49.342-51.811" fill="#829f2e"/><path d="M59.433 216.502c9.022-26.814 15.039-67.238 38.567-85.063v2.879c9.456-7.463 18.062-7.115 30.305-8.954l-7.576 8.315 9.641-8.954c28.825 5.537 34.686 21.326 45.11 43.81l-17.56-13.112-7.234-9.593 2.067 8.633-10.675-.319-11.363-11.512 5.165 8.635c-16.42 6.777-29.718 8.996-45.11 18.227l-5.166-4.158v6.396C74.18 178.99 69.76 192.027 67.764 203.8c3.118-4.74 5.707-7.134 9.848-9.44 2.85-1.588 5.303-2.444 7.712-2.874 10.85-1.936 17.306 1.618 21.901 7.822 5.835 7.873 5.555 14.628 15.84 6.94-8.04 11.905-23.527 8.957-32.202-2.494-2.683-3.54-5.453-7.402-7.975-9.468-.928-.759-2.206-.237-5.252 1.565-3.252 1.924-4.42 4.176-5.72 8.053l2.668-1.474c-3.569 11.603-.587 21.314 2.985 32.182H59.434v-18.11" fill="#7aa32e"/><path d="M65.325 198.87c11.43-37.633 42.062-80.16 92.655-55.059-13.326-6.37-25.481-7.948-36.38-5.967 4.266 5.01 8.373 9.684 11.829 14.424l-.157.06a201.347 201.347 0 00-13.735-14.065 50.818 50.818 0 00-10.14 3.466c6.085 4.524 10.306 8.233 14.967 13.858l-.09.03c-4.991-5.383-9.58-9.788-16.539-13.087-4.384 2.211-8.508 5.03-12.362 8.347 5.257 2.717 9.384 5.553 14.097 9.142-5.092-3.064-9.791-5.752-15.268-8.113-10.87 9.77-19.53 23.51-25.796 38.622l-3.08 8.342" fill="#86af20"/></g><path d="M156.332 251.837c-.17.215-.404.38-.73.477-.404.12-.989-.05-1.41-.071l-1.812-.09.002-33.465 4.359.217v.039l-.002 14.943-.001 10.726v4.24c0 1.088.138 2.292-.407 2.984" fill="#916a3b"/><path d="M156.013 252.34l-4.359-.217.004-33.465 4.358.216-.003 33.465" fill="#d9a272"/><path d="M153.671 252.173c.245-1.186.27-2.329.365-3.53.036-.47.03-1.018.048-1.55.017-.531.06-1.045.181-1.434l-.091-.053-.09.048c.022.067.043.135.063.203.288.958.388 2 .468 3.05.08 1.051.14 2.112.358 3.109l.095-.031-.097-.029-.004.036c0 .014-.004.025.008.068a.134.134 0 00.05.073.08.08 0 00.08.007c.02-.01.028-.02.034-.027.02-.025.021-.035.029-.05l.025-.059.009-.018-.003-.002.003.002-.003-.002.003.002-.06-.063.047.08.013-.017-.059-.063.046.08-.122-.21c-.016.018-.02.027-.025.035-.014.027-.024.053-.035.077l-.01.024-.001.002.041.04-.037-.047-.005.007.042.04-.037-.046.066.083-.033-.11c-.025.012-.029.022-.033.027l.066.083-.033-.11.035.12.042-.114a.077.077 0 00-.077-.007l.036.12.041-.112-.041.112.09-.043a.13.13 0 00-.049-.07l-.041.113.09-.043-.075.035.08.012c0-.004.004-.007-.006-.047l-.074.035.08.013-.013-.003.013.003v-.001l-.013-.002.013.002.001-.009.004-.03-.006-.03c-.21-.96-.27-2.007-.351-3.062-.08-1.055-.181-2.12-.48-3.121a8.951 8.951 0 00-.067-.212l-.095-.283-.087.278c-.137.44-.177.977-.195 1.52-.018.54-.012 1.087-.048 1.533-.094 1.214-.12 2.341-.358 3.49l.19.077" fill="#e3be9d"/><path d="M152.85 251.573h-.06c-.006 0-.013 0-.03.009a.108.108 0 00-.055.068.173.173 0 000 .1.11.11 0 00.015.035l.007.012.172.257v-.336c-.002-1.177.181-2.235.285-3.417.065-.754-.01-1.495.07-2.205.07-.634.28-1.258.303-1.96a41.14 41.14 0 01.176-2.722c.083-.913.366-1.79.298-2.814l-.098.007-.096.024c.472 2.704.566 5.475 1.317 8.052.232.79.167 1.605.23 2.496.058.798.24 1.464.24 2.27l.198.009c-.004-.858-.189-1.537-.243-2.294-.063-.855.01-1.699-.241-2.565-.738-2.523-.833-5.28-1.309-8.016l-.194.03c.066.945-.206 1.8-.298 2.76a41.9 41.9 0 00-.177 2.744c-.018.638-.222 1.254-.3 1.932-.085.758-.008 1.501-.072 2.213-.1 1.164-.287 2.233-.286 3.447l.098.005.073-.084-.029.033.03-.03-.001-.003-.029.033.03-.03-.07.07.083-.04-.013-.03-.07.07.083-.04-.09.043.09.053a.164.164 0 000-.096l-.09.043.09.053-.09-.053.036.12a.106.106 0 00.054-.067l-.09-.053.036.12-.034-.112.009.119.025-.008-.034-.111.008.118-.005-.074.001.074h.004l-.005-.074.001.075c.002 0 .03.003.066 0l-.02-.259" fill="#e3be9d"/><path d="M151.999 251.87c.358-1.18.233-2.794.232-4.035-.003-1.656.01-3.324-.093-5.012-.107-1.698.506-3.87.878-5.515a24 24 0 00.483-2.94c.065-.684-.018-1.447.119-2.05l-.095-.04-.096.024a56.155 56.155 0 001.68 6.862c.163.544.325 1.31.356 1.863.032.511-.097 1.096-.075 1.718.039 1.066.098 1.87.302 2.865l.19-.058c-.199-.972-.256-1.748-.296-2.81-.023-.565.107-1.147.076-1.724-.035-.599-.201-1.373-.37-1.941a55.787 55.787 0 01-1.67-6.824l-.086-.488-.106.472c-.149.68-.06 1.455-.124 2.09-.095.98-.265 1.955-.477 2.9-.366 1.635-.994 3.816-.886 5.608.104 1.672.09 3.333.093 4.99.004 1.258.116 2.853-.218 3.94l.183.104" fill="#e3be9d"/><path d="M152.355 233.928c-.027-1.269.332-2.552.46-3.859.055-.566.055-1.371.125-2.128.067-.757.213-1.453.516-1.788l-.065-.1-.078.075c.161.286.293.48.4.661.107.182.19.352.268.61.027.089.053.188.078.303.165.748.345 1.447.49 2.203.114.606.232 1.225.342 1.83.041.227.057.529.077.826.02.298.043.589.111.819l.011.035.18-.098-.008-.025c-.053-.173-.079-.452-.098-.745-.02-.294-.035-.603-.082-.863-.11-.608-.228-1.228-.343-1.834-.147-.769-.328-1.472-.491-2.212a4.551 4.551 0 00-.084-.327 2.87 2.87 0 00-.297-.676c-.114-.193-.242-.38-.398-.657l-.064-.114-.08.089c-.37.422-.508 1.172-.58 1.947-.072.776-.072 1.588-.125 2.126-.122 1.269-.488 2.562-.462 3.899l.197.002" fill="#e3be9d"/><path d="M152.556 226.728l-.028.03.032-.022-.004-.008-.028.03.032-.022-.011.007.012-.006v-.001l-.012.007.012-.006a.793.793 0 01-.009-.193c.013-.369.126-1.094.25-1.778.124-.684.257-1.335.309-1.58.244-1.163.314-2.607.652-3.626l-.09-.055-.056.104c.106.097.224.358.319.68.167.557.283 1.288.344 1.695.141.939.207 1.898.356 2.86.067.435.092.985.133 1.544.043.56.102 1.13.248 1.62.065.215.146.415.252.59l.152-.157a2.24 2.24 0 01-.221-.52c-.134-.446-.194-.996-.235-1.549-.041-.552-.065-1.106-.136-1.57-.146-.943-.212-1.902-.356-2.86-.063-.41-.178-1.15-.355-1.74-.104-.341-.221-.636-.39-.8l-.099-.095-.047.143c-.356 1.081-.422 2.533-.66 3.658-.06.284-.227 1.095-.364 1.887-.069.396-.13.787-.167 1.107-.019.16-.031.302-.035.421a.997.997 0 00.022.3.26.26 0 00.03.067l.148-.162" fill="#e3be9d"/><path d="M173.087 207.217l.925-1.188-13.066-11.793h-12.918l-13.066 3.161.926 1.188-.6 12.011.6.703-.218 9.485 1.415 1.506s8.66.222 17.3.143c8.64.08 17.504-.143 17.504-.143l1.416-1.506-.218-5.671.598-.703-.598-7.194" fill="#b58946"/><path d="M135.67 220.783s1.454.352 1.915.502c.461.15-.256.854-.256.854l3.224.177s-.304-.88 2.154-.93c2.459-.05 2.817.803 2.817.803l4.354.35s-.41-.702.46-.752c.872-.05 7.12-.15 7.94-.05.82.1.665.652.665.652l4.815.15s-.615-.752 1.537-.902c2.15-.151 3.127.679 3.127.679l3.467-.027s-.09-.652.218-.903c.307-.251 1.198-.603 1.198-.603H135.67" fill="#966732"/><path d="M174.176 188.261c-7.054-2.847-18.512-3.137-19.737-3.16v-.002l-.054.001h-.055v.001c-1.214.024-12.481.314-19.531 3.16 0 0-.599.301-.272 2.56.326 2.258.435 6.574.435 6.574s1.681.351 2.637.351 2.807-.451 3.624-.451c.816 0 4.845.05 4.845.05s-3.756.05-5.171.401c-1.416.352-2.777.301-3.703.301-.925 0-2.232.535-2.232.535l.327 12.012h.762l-.708.401s.164 7.88.164 8.432c0 .552.163 1.355.163 1.355s14.56.348 18.715.004c4.158.344 18.92-.004 18.92-.004s.163-.803.163-1.355c0-.552.163-4.617.163-4.617l-.707-.402h.762l.327-7.194s-1.307-.535-2.232-.535c-.926 0-2.287.05-3.702-.3-1.416-.352-5.172-.402-5.172-.402s4.029-.05 4.845-.05c.817 0 2.668.451 3.624.451s2.637-.351 2.637-.351.109-12.948.435-15.206c.327-2.259-.272-2.56-.272-2.56" fill="#e1c377"/><path d="M174.535 189.323c-18.022-4.793-31.492-3.24-39.528-1.145l-.21.083s-.598.3-.272 2.56c.04.27.075.57.109.89 19.403-5.981 34.131-2.741 39.822-.96a7.42 7.42 0 00.08-1.428m-8.382 16.802a46.726 46.726 0 00-1.638-.097c.561.03 1.107.063 1.638.097" fill="#e5ca87"/><path d="M134.882 195.27c.057 1.21.08 2.127.08 2.127s1.681.35 2.637.35 2.807-.45 3.624-.45c.817 0 4.846.05 4.846.05s-3.757.05-5.172.4c-1.416.352-2.777.302-3.702.302-.926 0-2.232.535-2.232.535l.24 8.868c10.637-1.71 20.633-1.83 28.218-1.48 1.112-.014 3.695-.044 4.33-.044.818 0 2.669.452 3.625.452s2.637-.352 2.637-.352.024-2.86.083-6.124c-8.491-1.974-23.501-2.608-23.501-2.608 8.26-.43 18.394.725 23.524 1.421.022-1.057.047-2.126.076-3.128-16.046-3.881-31.662-1.823-39.313-.32m4.24 14.972c4.917-1.104 23.356-1.706 23.356-1.706-13.958-.85-23.543.382-27.218.994l.03 1.063h.762l-.708.402s.163 7.879.163 8.431c0 .082.004.169.01.258 10.737-.385 30.345.609 37.802 1.025.017-.091.048-.26.077-.46-9.502-1.636-32.02-2.98-32.02-2.98 7.708-.378 24.347.778 32.112 1.374.044-1.348.143-3.834.143-3.834l-.707-.401h.762l.137-3.031c-16.58-2.23-34.7-1.135-34.7-1.135" fill="#e5ca87"/><path d="M141.441 197.898c.622-.18 1.937-.384 2.639-.486-1.13.056-2.47.092-3.193.272-1.416.35-2.819.316-3.744.316-.926 0-2.262.518-2.262.518l.323 12.072.847.005-.803.398s.191 7.922.191 8.474.191 1.353.191 1.353 3.703.052 7.863.095c-2.114-.159-5.738-.418-6.462-.383-1.034.05-.925-.452-.98-.904-.054-.451-.163-8.581-.163-8.581l1.035-.653-1.035-.15-.054-1.355 1.034-.1-1.034-.302-.055-9.636s.381-.3 1.634-.35c1.251-.051 3.157-.352 4.028-.603m26.626 8.418c-.723-.18-2.04-.217-3.172-.273.702.103 2.017.307 2.639.487.87.25 2.776.552 4.029.602 1.252.05 1.633.351 1.633.351l-.055 4.818-1.034.301 1.034.1v1.48l-1.088.026 1.034.527s-.109 4.441-.163 4.893c-.055.452.054.954-.98.903-.724-.035-4.348.225-6.462.384 4.16-.044 7.823-.133 7.823-.133s.225-.778.225-1.33.161-4.633.161-4.633l-.767-.41.797.007.308-7.251s-1.204-.533-2.13-.533c-.925 0-2.417.035-3.832-.316" fill="#f2e7c0"/><path d="M174.16 188.203c-7.053-2.848-16.048-3.062-19.83-3.1-3.781-.037-12.62.21-19.67 3.056 0 0-.561.39-.235 2.648.327 2.258.537 6.59.537 6.59s.692.144 1.44.248l-1.004-.499-.327-5.721 1.034-.251-1.034-.05s0-.703-.055-1.255c-.054-.552.273-1.254.273-1.254 6.347-2.566 13.946-3.143 19.096-3.145 5.15-.001 12.952.579 19.3 3.145 0 0 .327.702.272 1.254-.054.552-.054 1.255-.054 1.255l-1.035.05 1.035.25-.327 14.354-1.005.5c.749-.105 1.501-.234 1.501-.234s.114-12.936.44-15.194c.328-2.258-.352-2.647-.352-2.647" fill="#f2e7c0"/><path d="M160.664 213.893c0 3.155-2.754 5.713-6.152 5.713s-6.151-2.558-6.151-5.713c0-3.155 2.754-5.713 6.151-5.713s6.152 2.558 6.152 5.713" fill="#bf1616"/><path d="M159.37 213.893c0 2.491-2.174 4.51-4.857 4.51-2.682 0-4.857-2.019-4.857-4.51 0-2.49 2.175-4.51 4.857-4.51 2.682 0 4.857 2.02 4.857 4.51" fill="#e0e0e0"/><path d="M150.784 217.71l-.961-1.018 7.932-6.465.962 1.017z" fill="#bf1616"/><path d="M159.73 216.704c-.017.096.121.085 0 0m-.234-.306l-.06.012c-.066.037-.151.062-.192.115.08-.044.187-.07.252-.127m-2.214-.569c.008-.029.16.088.22.06-.001-.125-.31-.126-.441-.158-.002.072.152.085.221.098m1.785-.26c.042-.008.066-.026.074-.054-.045-.015-.065.039-.074.054m-3.251-5.529c.14-.038.262-.053.082-.163a.075.075 0 01-.009.042c.079.092-.159.046-.073.12m1.28.5c.143.027.109-.08.065-.086-.017.043-.089.022-.065.086m-2.499-.831c.057.025.062.116.128.111-.011-.036.08-.13-.035-.146.08.077-.063-.016-.093.035m4.408.978c.048-.031-.1-.123-.12-.16-.047.022.094.133.12.16m.445.597c-.052-.02-.084-.014-.107.003.05.019.083.013.107-.003m-.319-.339c-.032.059.186.062.241.09.105.07.169.034.25.074.022-.044-.462-.153-.49-.164m-1.068-.214c.07.033.017-.087.014-.095-.01.01-.036.082-.014.094m.76.23l-.001-.08-.002-.038c-.055-.01-.052.105.003.118m.696.844c.023.035.04.026.085.039.03-.024-.068-.105-.086-.04m-2.23-.023c-.039-.017-.105-.04-.069-.069a6.09 6.09 0 00.042-.066c-.214-.088.008.22.027.135m1.011-.376c-.19-.036-.096.086 0 0m-4.295 5.825c-.022.01-.045.018-.068.027.006.018-.002.03-.025.036.044.026.109.011.135.001a.387.387 0 00-.088-.019c.034-.006.05-.02.046-.045m2.793-1.888l.094.012.157.02c-.005-.036-.256-.07-.251-.032m-.037-3.298c.05.049.129.052.196.059a.43.43 0 00-.196-.059m-.034.268c.034-.028-.105-.079-.148-.102-.032.033.123.081.148.103m3.272.64c-.006.033.014.051.063.057.019-.001.028-.004.03-.008l.026.011c.008-.034.01-.048-.048-.073-.012.015-.013.029-.005.041.003.012-.004.018-.026.015 0-.018-.014-.032-.04-.043m-2.533-.244c-.165-.112.138-.133.078-.214-.016.027-.039.027-.066.002.023.007.035.004.036-.01-.11-.048-.043.077-.141.041-.006-.092-.026-.233.121-.262-.284-.042-.242.266-.278.377.083.022.166.045.25.066m-.166-1.553l-.104.054c.04.038.076.03.107-.026.029-.005.028-.014-.003-.028m2.827 3.04a.018.018 0 00-.017.01c.008.004.016.005.024.008.004.01.006.02.005.026.037.008.052.002.055-.01.144.03.21-.039.253-.125a.417.417 0 01.043.014c.052-.014.027-.048-.014-.079.015-.037.029-.074.046-.104-.027-.01-.06.028-.09.077a.348.348 0 00-.061-.03c-.232-.068-.038-.156-.147-.211-.1-.05-.111-.013-.101.033-.012.001-.021.005-.024.011-.001.002.013.009.032.015.01.03.026.058.03.065.042.072-.01.065.083.139.066.051.097.052.145.058-.016.031-.028.058-.035.069-.04.072-.106.06-.16.046-.01-.028-.034-.065-.03-.087-.086-.018-.057.031-.037.075m-6.599-3.679c.249.032.571.01.815.108-.017-.117-.815-.178-.948-.184.015.045.14.02.133.076m6.462 4.526c-.077-.002.019.111-.086.085.006-.023-.006-.044-.036-.064l.008.118c.1-.01.117-.078.113-.139" fill="#3d434a"/><path d="M160.139 214.285c.052.018.113-.02.053-.043-.023.037-.027-.022-.053.043m-1.279.428c-.023-.005-.032-.013-.028-.026a3.677 3.677 0 00-.061-.016c-.06.035.095.078.09.042m.796.68c.05.02.096.025.138.012-.09-.05-.093-.093-.138-.012m-.705-1.169c.023.04.061.075.113.107a.312.312 0 00-.113-.107m.987.545l-.027.05c.076.058.128-.043.027-.05m-.831-.228c.117.057.103-.026.072-.024l-.001.035a.091.091 0 00-.07-.01m-3.117-4.88a.126.126 0 00-.037-.023.064.064 0 00-.026-.03c0 .006-.006.01-.015.015-.084-.022-.187-.024-.183-.099.05-.02.09.036.135 0-.09-.05-.205-.013-.227.035.13.014.23.168.353.102m-1.718-.491c-.02-.012-.037-.025-.055-.038.036.059-.413.06-.436.09.019-.024.427-.031.49-.052m-.508-.029c-.025.023-.039.087-.018.095.018.004.029-.003.035-.014.016-.025.006-.072-.017-.081m4.829 6.28c-.091-.015-.228.172-.29.207-.186.106-.43.184-.59.307.323-.15.704-.266.88-.514m.716 1.917c.013.021.025.024.035.008-.005-.03-.097-.116-.137-.101l.102.093m-6.21-.242c.025-.014 0-.032.033-.052.004.004-.255-.07-.125-.083l-.545-.366c.112.146.416.247.487.401.035.031.107.072.15.1m3.943 1.626c-.047-.026-.304-.117-.31-.085.057.015.302.133.31.085m-.631-.877c.047.094.01.082.1.08-.009-.019-.045-.08-.1-.08m-5.762-1.855c-.304-.06.057.152 0 0m6.191 1.819c-.128.053.325.332.38.411.042-.018-.307-.362-.38-.411m-7.601-5.237c.06.046.12.11.18.087-.06-.031-.122-.14-.18-.087m1.998.609c.066.035.129.094.198.084-.067-.019-.127-.12-.198-.084m5.25 1.793l.094.014c-.008-.045-.154-.036-.19-.049-.009.032.023.043.096.035m-.656-.093a.094.094 0 00-.07-.017c.008.027.032.045.071.057.042.006-.034-.034-.001-.04m-.289-.133c.045-.007.183 0 .154-.042l-.056.007c-.103-.016-.136-.004-.098.035m.287-.563a.78.78 0 00.282.097.983.983 0 00-.282-.097m1.307.304a3.01 3.01 0 01-.075-.022c-.002 0 .065.16.032.166.062-.011.062-.104.043-.144m.903 2.011c-.094.014-.184.03-.275.045.03.036.302-.01.274-.045m-.523-.889c-.072-.057-.059-.176-.195-.143.057.062.097.14.152.2a.35.35 0 00.043-.057m.053.784c-.015-.031-.045-.056-.092-.073-.042.022-.01.046.092.073m-4.286 1.278c.01.024.09.03.097.028.053-.011-.107-.049-.097-.028m6.413-1.514c.009.025.09.074.13.08-.006-.008-.133-.147-.13-.08m.275-2.965c-.011.023.067.117.108.14l-.056-.101c-.04-.009-.007-.022-.052-.039m-.17 2.783c.076.012.157.054.216-.008-.07-.043-.243-.062-.216.008m-.511-.12c.093-.006.088-.02.077-.069.02-.008.043-.004.07.012-.029-.134-.234-.08-.147.057m-3.339 2.537c-.008.033.008.042-.018.077.049.02.097.042.146.063 0 0-.132-.141-.128-.14m-1.255-1.061c.118.073.228-.064.188-.121-.116.014-.077.093-.188.12m-.505-.593l-.044-.036c-.023.01.037.084.068.109.06-.025.052-.05-.024-.073m.092.065c.03.028.053.074.095.073.012-.034-.028-.08-.095-.073m1.439.541c-.02.037.046.158.06.203.07.034.018-.16-.06-.203m-6.409-1.256c.058.06.068.068.111.115.102-.018-.063-.126-.11-.115m5.806 1.096c-.058-.017-.038-.045-.096-.055.003.03.102.107.097.055m-3.243-1.992l.021-.033c-.187.007-.211.032-.173.157a.227.227 0 01.152-.124m4.183 1.634c-.043-.02-.094-.06-.125-.046.044.02.096.06.125.046m-3.178-.95c-.006-.036.075-.092.008-.117-.008.059-.114.066-.008.117m-3.65-1.632c.035-.055.13-.15.133-.214-.132-.04-.197.206-.223.24.037.015.074-.005.09-.026m1.147.077l.113.089c.05-.009-.086-.114-.113-.09m-.516.47c.056-.064-.246-.11-.31-.127-.008.064.086.128.02.18.08.01.139 0 .222.026-.018-.057.039-.044.068-.079m8.686 3.144c-.034-.026-.07.015-.092.016l-.002.06c.033 0 .154-.03.095-.076m-6.936-2.4l.115-.071c-.045-.03-.16.04-.115.07m3.402 1.193c-.007-.058-.121-.024-.125-.025-.037-.022-.046-.045-.026-.068-.081-.02-.034.068-.01.096.09.033.06-.05.161-.003m-1.407 2.044c.006.05.11.073.063.136.102-.01-.017-.106-.062-.136m-1.441-.018a.23.23 0 00-.085.017c.004-.026-.014-.047-.052-.063l.008.02c-.041.044-.021.071.059.083.04-.01.064-.029.07-.057m-.597-1.234c.063-.005-.04-.084-.044-.104-.055.007.023.076.044.104m3.821.99c-.002-.088-.15-.022 0 0m.637.11h-.24c.028.034.242.033.24 0m-2.764-1.04c-.058-.004-.296.117-.28.163.067.003.278-.116.28-.163m.245 1.192c-.016.025.054.048.098.071.01-.023-.059-.046-.098-.07m.207-.363l-.094-.01c.016.04.102.06.094.01m-2.629-.554c.061-.057.144-.092.196-.14-.136.028-.578.048-.332.225.035-.014.064-.112.135-.085m3.331 1.106c.039.035.083-.014.074-.032-.022 0-.029.007-.019.022-.098-.02-.185-.307-.228-.365-.099.004.091.251.12.278.036.03.018.067.054.097m-3.518-3.295c.052.008.105.016.158.022-.005-.035-.16-.058-.158-.022m9.309-.109a.318.318 0 01.173-.018l-.079-.052c-.068.017-.1.024-.158-.033-.052.034.106.06.064.103m-10.762-3.495c-.108-.078-.146-.225-.296-.264-.003.096.148.225.297.264m3.958 1.111c.035-.009-.01-.052-.025-.083-.034.01.01.053.025.083m2.407 1.211c-.004-.02-.018-.027-.043-.017.027.039.093.184.15.178a26.135 26.135 0 01-.107-.161m1.666.736a.21.21 0 00.12.024c.001-.03-.096-.028-.123-.028-.01-.017-.05-.038-.078-.06-.05.014-.028.041.069.081.01-.005.013-.01.012-.017m2.482.274c.043.032.206.008.194-.031.012.038-.158-.051-.179-.06l.002-.035c-.079-.054-.036.113-.017.126m-7.858-2.378l-.168.134c.047.026.213-.109.168-.134m-1.29 1.284c.033.003.119-.045.14-.025a.19.19 0 00-.123-.033c-.006.024-.023.033-.017.058m5.874-.885c-.18.016-.013.132.086.106-.027-.048-.097-.048-.086-.106m-5.929-1.577c.028.026.081.008.126.007-.027-.027-.081-.009-.126-.007m4.713 1.321c.059.011.064-.144.006-.155-.002.051-.003.103-.006.154m3.786.333c-.073.025-.083.086-.15.115.08 0 .106-.044.15-.115m-.15.115h-.01l.002.005c.004 0 .006-.003.009-.005" fill="#3d434a"/><path d="M157.952 214.314c.076-.013.386-.067.377-.06l.062-.011c-.072-.067-.186-.15-.133-.219.106.054.19.011.267-.01.067-.02.097-.016.121-.001l-.016.007a.096.096 0 00.052.02.317.317 0 00.065.041c.016-.093.161-.062.275-.068.116-.006.048-.176.192-.214 0-.022-.016-.044-.036-.065.01.003.017.004.02.002l-.054-.03c-.053-.042-.119-.079-.136-.113a.477.477 0 00.09.014c-.01-.02-.072-.046-.092-.034v-.007c.018-.038.058-.076-.03-.118.022-.04.085-.015.112-.05-.161-.095-.35-.209-.552-.327-.035.031.118.084.14.106-.14-.009.102.07.01.1-.024.028-.075-.03-.106-.032-.087-.003.076.164.09.185a.02.02 0 01-.006.003c-.138-.075-.251-.131-.263-.122l.234.135c-.028.012-.063.026-.078.034.13.042.12.091.205.152.109.078.08.15.003.206l-.005-.003c-.042-.013-.076.016-.072.047a.968.968 0 01-.211.068c-.106.02-.217.034-.323.054-.161.028-.124.055-.171.149-.033.065-.463.273-.402.31.112-.059.22-.122.371-.15m-4.077-1.22c-.072-.04.078-.047-.003-.087-.035.039-.047.09-.066.119.037 0 .06-.01.069-.032m1.397.42c-.072-.002-.026.104-.052.144.073.003.027-.103.052-.144m-2.668-1.043a.413.413 0 01.128.006l-.05-.059c-.115-.007-.176.036-.282.038.029.032.105.023.184.017.001.018.044.047.017.058.028.045.019-.026.002-.06m2.74.872c.015-.026.08-.073.018-.095l-.019.032c-.052.028-.052.049.001.063m2.875 4.244c-.01.01-.024.01-.042-.002l.205-.18c-.029-.015-.334.224-.387.262.034.017.247-.043.224-.08m-4.458-2.995c-.036-.041-.038-.077-.006-.106-.025-.037-.055-.032-.08-.078-.225.082-.432-.4-.49-.49a.839.839 0 00-.003.044c-.068.005.168.314.2.365.1.09.153.273.379.265m4.332 2.5c.052.045-.1.107.065.168.004-.055.008-.211-.065-.168m.67.643l-.02.093c.085.024.104-.07.02-.093m-9.6-4.089c-.004.032.011.034.058.052l.004-.037-.062-.015m9.696 3.775c.01-.01.005-.02-.017-.028l-.097.125c.105.048.086-.07.114-.097m-4.747-1.384c.012.02.006.031-.023.033-.062.087.304.066.023-.033m4.986 1.56c-.067-.048-.107-.08-.198-.048.002.053.202.076.198.048m-5.271-2.882c-.088.03-.177.06-.265.088.172.017.293-.087.43-.117-.041-.04-.127.017-.165.03m1.024.387c-.039.004-.119.068-.1.104.038-.01.115-.075.1-.104m-3.616-1.346c.014.027-.068.09.023.103.098-.004.055-.097-.023-.103m1.431 1.498c-.049.067-.105-.008-.145-.017-.131-.032-.17.073-.275.093.03.023.066.027.089.015.007.043-.064.127-.153.07-.048-.042.085-.043.02-.093l-.11.05c.05.186.332.032.424-.005.15-.062.344-.087.482-.151-.117-.082-.383-.026-.332.038m2.518.761a.18.18 0 00.1.07c.037-.027.003-.05-.1-.07m-1.433-.473c.06.052.156.061.233.093-.033-.043-.173-.097-.232-.093m3.877.595c.048.013.088.01.121-.008-.035-.036-.082-.001-.12.008m-3.55-.717c-.052-.106-.149-.22-.212-.324-.04-.065-.158-.2-.173-.238.136.272.343.54.506.81.108-.015-.097-.199-.121-.247m2.196-2c-.032 0-.035.009-.007.025.071-.016.151-.017.22-.035-.025-.027-.17-.002-.213.01m-6.448.059c-.038-.006-.068-.003-.09.01.058.039.087.036.09-.01m6.663.362c.007-.055.112-.403.025-.424-.007.057-.081.411-.025.424m-3.065-4.098c.065-.009.12.086.191.024-.215-.091-.277-.037-.345.063.111.01.076-.075.154-.087m5.325 2.144c.002.039.283.07.347.08 0-.038-.282-.068-.347-.08m-4.006-1.441c-.042-.002-.074.055-.01.06.052.01.056-.01.01-.06m-3.132-.7c-.026-.042-.148-.009-.185-.006.033.046.148 0 .185.006m3.527 1.083l.22.031c-.057-.033-.186-.083-.22-.032m2.515.811c.001-.024-.036-.126-.093-.088-.03-.013.088.15.093.088m-1.203-.898c.067.03.103.03.108-.002a57.085 57.085 0 01-.303-.11c-.02.02.109.08.104.079-.06.032-.116.061-.1.126.07-.022.073.001.122.044l.07-.137m3.34.992c.093.04.158.108.138.11.07.019.087-.068-.012-.107-.233-.091-.21-.122-.271.024.017-.052.174.069.145-.027m-6.732-2.934c.088.004-.033-.108-.06-.139-.044-.049-.227-.03-.297-.043.023.079.153.052.19.032.064.056.148.079.167.15m6.604 2.773a.19.19 0 00.123-.009c-.039-.024-.11-.009-.123.01m-3.141-1.121c-.016.014-.037.021-.067.02.003.025-.009.036.004.061.058-.001.054-.03.118-.005-.005-.028-.023-.053-.055-.076m3.283 1.162c.049.012.151-.017.161.027.215-.023-.124-.076-.161-.027m-2.99-.907a.505.505 0 01.034.073c.093-.053-.019-.09-.034-.073m-2.338 1.309c-.02-.03-.025-.076-.069-.082.02.03.026.076.07.082m1.557.855c.168-.027.003-.12 0 0m-2.772-1.375a1.381 1.381 0 00-.243-.226l-.042.045c.062.027.073.087.003.088.09.043.2.05.282.093m-2.2-.687c-.276-.04-.45.04-.684.052.284.05.505.023.684-.052m3.246 1.441c-.086-.043-.077.056-.02.056 0-.044.032.016.02-.056m-1.39-.534c.057.008-.006.03-.01.041.203 0 .003-.057.01-.041m4.747 1.846c-.009.021-.065.026-.012.055.01-.02.065-.025.012-.055m-7.982-2.999l-.008.037c-.012.043-.022.086-.032.129.071 0 .084-.155.04-.166m6.897 2.42l.184.06c.017-.042-.168-.104-.184-.06m-1.615-1.301c.055-.01.325-.049.293-.097-.06.006-.311.076-.293.097m-.145-.092c.055-.015.05.06.074.075.01.006.196-.155-.033-.162.045-.099.028-.218.038-.326a.653.653 0 01.023-.14c.069-.019.077.037.14.033-.047-.081-.362-.116-.456-.147-.246-.083-.462-.186-.711-.249-.123-.03-.191-.087-.32-.12a3.7 3.7 0 01-.393-.129c-.321-.121-.66-.242-.963-.392.07-.02.077.036.141.033.022-.024-.048-.113.052-.067-.024-.05-.268-.088-.117-.097-.076-.056-.476-.179-.491-.116-.004-.062-.11-.136-.21-.155.034.116.114.25.182.366.018-.009.02-.023.006-.04-.055-.117.499.13.541.149.275.127.561.282.868.348-.013.051-.117.055-.116.113.078.025.12-.003.2.03.014.025.045.069-.024.063.07.1.146.004.239.048-.063-.163.241.038.386.03.11-.007.097.015.107.086.014.09.097.033.152.032.067-.002.074.013.061.029 0-.001 0-.002-.003-.004-.015.014-.04.006-.058.014.001.01.006.018.01.023l-.002.002c-.069.02.294.16.324.168.063.2.238.39.371.585.017-.025.01-.052-.018-.083m-3.223-.896c-.022-.062-.174.048-.077.02l.077-.02m-1.219-.897c.161.095.082-.06 0 0m5.723 2.183c-.054.003-.184-.052-.187-.01.063.006.126.01.186.011m-2.427-.27c-.047.035-.03.114-.006.164.033-.02.039-.128.006-.164m-1.576-.366c-.074-.063-.171-.113-.238-.174-.042.027.084.102.129.11.033.067.069.088.109.064m3.829 1.27c-.021.035.494.187.58.202.025-.034-.116-.058-.14-.073-.138-.054-.293-.073-.44-.129" fill="#3d434a"/><path d="M154.898 212.174c.061-.134.663.021.866-.04.01.012.155.14.166.086 0-.02-.013-.042-.037-.06.111.008.293.095.322-.009.128.157.181-.046.208-.078a.689.689 0 01.091-.088c.083-.073-.002-.069.176-.032a.629.629 0 00.233.003c.134-.024.143-.01.292.017.176.032.337.063.502.138.031-.07-.7-.24-.788-.253a1.725 1.725 0 00-.478-.017c-.034.004-.314.099-.264.11a.23.23 0 01.077.016.719.719 0 01-.161.015c-.023.065-.092-.004-.187-.01v-.002c-.125-.013-.253-.03-.37-.018-.172.017-.306.104-.498-.027-.004.037-.283.203-.15.249m-2.299-3.321c.058.028.172.029.191.08.074.008-.001-.084.06-.087.05.079.185.01.19.072.106-.02-.052-.077-.098-.095-.112-.027-.107.036-.186.027-.013-.032.035-.11-.067-.11.01.06-.01.104-.106.064a.03.03 0 01-.002-.006c-.027-.045.03-.053-.006-.1-.13.002.02.344.081.403a1.508 1.508 0 00-.057-.248m5.091.692c-.02-.157-.134.028-.146.076.072-.016.16.009.146-.076m-.227-.322c-.084-.018-.168-.032-.252-.051.006.03.25.102.252.05m-2.985-.554c-.067.006-.136.01-.204.014.057.07.184.022.204-.014m-.576-.194c.011.033.069.074.079.108.08-.013-.073-.128-.079-.108m3.063.796c-.147-.064-.198.121-.068.178.01-.065.042-.118.068-.177m-.167-.66c-.07-.007-.04.036-.029.063.076.012.086-.01.029-.063" fill="#3d434a"/><path d="M159.37 213.893c0 2.491-2.174 4.51-4.857 4.51-2.682 0-4.857-2.019-4.857-4.51 0-2.49 2.175-4.51 4.857-4.51 2.682 0 4.857 2.02 4.857 4.51" fill="#e0e0e0"/><path d="M150.784 217.71l-.961-1.018 7.932-6.465.962 1.017z" fill="#bf1616"/><g fill-rule="evenodd"><path d="M451.931 211.648c-5.643-20.4-12.584-40.083-17.736-59.969-1.918-7.394-3.588-14.817-4.853-22.315l5.162 4.452-5.41-5.953c-.902-5.59-1.571-11.224-1.947-16.92-.067-1.045-.134-2.086-.197-3.123l7.594 8.816-7.816-12.646c-.978-17.458-1.414-34.128-3.789-51.956 10.52 16.325 19.208 23.53 16.348 42.377l4.925-7.547c3.662 24.918 10.57 50.014 1.977 73.038-6.298 16.877 3.095 36.112 10.48 56.955l-4.736-5.21" fill="#a0ba2c"/><path d="M447.639 212.088c-5.224-16.914-10.537-43.964-22.396-57.771-1.63-1.899-3.25-3.823-4.793-5.777-2.905-3.685-5.541-7.48-7.478-11.43-4.28-8.738-4.975-17.865-4.053-29.851 4.865 17.427 20.128 29.613 24.394 45.454 5.489 20.393 10.778 51.22 21.218 65.165h-3.283l-3.61-5.79" fill="#68a729"/><path d="M449.286 214.22c-1.071-18.924-5.006-34.422-8.876-52.927-2.183-10.431-2.843-20.259-1.952-32.399l3.937 14.933-1.64-15.237c4.387-10.951 8.462-16.79 16.406-25.903l1.312 10.972.33-11.58c14.669-16.178 28.715-18.761 50.862-21.333l-19.033 20.418-9.516 3.962 8.204-.304c-5.18 8.891-10.373 17.708-15.094 26.815l-13.783 4.572h9.845l-2.953 6.4-3.61 8.836-10.83 10.057 7.22-3.048c-10.679 12.623-10.527 15.333-8.532 31.693l2.626 21.027 1.641 20.112-10.173-.609 3.61-16.456" fill="#86af20"/><path d="M458.645 121.257c9.411-14.143 15.34-21.59 29.35-31.798-9.104 7.433-15.082 12.882-21.585 22.315l13.757-.51-14.673 2.157-5.137 6.928 12.472-.455-12.718 1.591-3.362 6.245 11.679.341-12.474.909c-1.824 3.937-3.251 7.873-4.097 11.811l11.19-2.271-11.8 3.463c-7.257 22.165-2.243 50.848 2.751 73.761l-2.201 4.316c-4.748-32-11.531-70.363 6.847-98.804" fill="#98b41b"/><path d="M442.772 233.92l1.588-21.22-3.282-12.798-4.594-12.494-3.61-5.181-4.595 5.486c-11.732-1.038-16.43 6.043-24.608 13.407-4.61-4.754-7.553-.103-1.969 3.353-8.306 6-10.204 13.323-14.44 22.246-9.096-14.598-13.051-37.756 2.724-52.262 16.266-14.958 36.398-18.73 46.168 2.284l1.97 4.876 17.54 52.304h-12.892" fill="#739836"/><path d="M431.067 168.886a26.86 26.86 0 011.873 2.318c-7.893-3.003-14.852-3.007-20.878-.834-1.667 5.965-1.026 10.222-.376 17.908-2.041-6.784-1.875-10.673-.946-17.394a27.72 27.72 0 00-4.133 2.186c-1.574 5.36-.943 9.264-.302 16.231-1.963-6.006-1.885-9.548-1.048-15.314a33.775 33.775 0 00-4.016 3.415c-1.438 5.102-.82 8.934-.195 15.646-1.858-5.609-1.886-9.04-1.176-14.215-8.604 9.45-13.892 24.385-15.821 39.426 1.375-25.881 15.457-57.745 47.019-49.374" fill="#829f2e"/><path d="M450.584 216.654c8.597-25.553 14.33-64.075 36.751-81.062v2.744c9.011-7.112 17.212-6.78 28.878-8.533l-7.218 7.923 9.187-8.532c27.468 5.277 33.053 20.323 42.986 41.748l-16.734-12.494-6.893-9.142 1.97 8.228-10.172-.305-10.829-10.97 4.922 8.228c-15.648 6.459-28.319 8.574-42.986 17.37l-4.923-3.963v6.096c-10.885 6.916-15.098 19.34-17 30.559 2.97-4.517 5.439-6.8 9.384-8.997 2.717-1.513 5.054-2.328 7.349-2.738 10.34-1.845 16.491 1.542 20.87 7.454 5.56 7.502 5.293 13.94 15.095 6.613-7.662 11.346-22.42 8.536-30.687-2.376-2.557-3.375-5.196-7.055-7.6-9.023-.884-.723-2.101-.226-5.004 1.491-3.1 1.834-4.211 3.98-5.45 7.675l2.542-1.405c-3.401 11.057-.56 20.311 2.845 30.668h-17.282v-17.258" fill="#7aa32e"/><path d="M456.2 199.85c10.891-35.861 40.08-76.389 88.292-52.468-12.7-6.07-24.282-7.574-34.668-5.686 4.065 4.775 7.98 9.228 11.272 13.745l-.15.058a191.872 191.872 0 00-13.087-13.404 48.424 48.424 0 00-9.663 3.303c5.799 4.311 9.82 7.846 14.262 13.206l-.085.029c-4.757-5.13-9.129-9.328-15.76-12.471-4.179 2.107-8.108 4.793-11.781 7.954 5.01 2.589 8.942 5.292 13.433 8.712-4.852-2.92-9.33-5.482-14.549-7.731-10.357 9.31-18.61 22.404-24.581 36.805l-2.936 7.949" fill="#86af20"/></g><path d="M389.635 187.835c-.006-.06-.022-.123-.033-.199-.013-.089-.047-.671-.202-.64-.184.039-.373.184-.54.273-.212.115-.41.192-.602.35-.122.101-.355.241-.375.39-.03.219.108.457.25.604.113.116.235.31.422.295.222-.018.467-.264.638-.397.154-.118.307-.26.396-.434a.398.398 0 00.047-.242m38.234-5.525c-.117.058-.23.126-.243.236-.019.165.102.289.14.437.031.12-.007.216-.023.334-.04.292.115.628.245.878.234.447.71.946 1.262.614.4-.24.382-.906.364-1.293a5.748 5.748 0 00-.321-1.656c-.03-.083-.06-.265-.141-.311-.109-.061-.288.147-.388.213-.227.151-.462.287-.687.443-.052.036-.13.068-.208.106" fill="#916a3b"/><path d="M425.763 208.417l-39.112 5.859 1.225-26.278 39.123 5.383.635-10.828 19.536 18.612-21.793 15.918.386-8.667" fill="#916a3b"/><path d="M427.308 207.39l-39.111 5.86 1.224-26.278 39.123 5.382.636-10.827 19.535 18.611-21.793 15.919.386-8.666" fill="#d9a272"/><path d="M431.044 200.977a1.831 1.831 0 00-.302-.039c-.424-.032-1.114-.049-1.531-.195a.644.644 0 01-.29-.177.291.291 0 01-.04-.305c.056-.144.197-.297.445-.484.399-.299.931-.425 1.47-.443a4.333 4.333 0 011.628.269c.372.146.61.31.741.491.132.18.148.384.075.567-.094.243-.324.458-.611.636a3.326 3.326 0 01-.98.396 10.251 10.251 0 01-3.61.133 5.09 5.09 0 01-.924-.22c-.247-.088-.471-.196-.623-.336a.57.57 0 01-.163-.237.42.42 0 01.01-.29c.072-.181.251-.362.568-.56a12.023 12.023 0 013.241-1.384c2.45-.619 4.942-.545 7.306.287.212.075.424.156.634.243l.073.031-.044.069c-.416.654-1.095 1.153-1.837 1.548s-1.55.687-2.23.918c-1.407.48-2.712.867-4.2.953-1.581.09-3.002-.233-4.49-.54a7.705 7.705 0 01-.956-.259c-.353-.126-.686-.28-.841-.492-.153-.208-.179-.41-.11-.584.066-.17.208-.306.37-.428.163-.123.35-.232.516-.338 1.502-.948 3.165-1.236 4.733-1.921 1.378-.601 2.708-1.145 4.265-1.151 2.274-.008 4.476.665 6.728.688.315.004 1.246.005 1.814.204.189.067.343.155.42.293.092.17.07.368-.005.563-.107.274-.323.559-.544.813-.22.253-.448.475-.573.612-1.66 1.819-3.552 2.526-5.874 3.083-1.927.463-3.826 1.18-5.817 1.307-1.26.077-2.463.472-3.744.271-.855-.135-1.697-.324-2.562-.402-.961-.088-1.842-.274-2.804-.275-.556-.002-1.265.084-1.822-.087a1.565 1.565 0 01-.048-.016c-.234-.082-.38-.214-.441-.383-.06-.169-.034-.361.044-.561.184-.472.658-1.017 1.15-1.503.49-.485 1-.906 1.252-1.111 1.926-1.565 4.078-1.811 6.275-2.655 1.218-.467 2.5-.737 3.698-1.193.976-.37 1.803-.987 2.861-1.26 1.14-.293 2.302-.149 3.448.106 1.146.256 2.278.622 3.356.782 1.183.176 2.251.644 3.377.975.608.18 1.247.309 1.856.523.267.094.529.205.78.345l.046.025-.016.052a3.253 3.253 0 01-.082.24c-.198.513-.511.892-.883 1.217-.371.325-.801.598-1.24.901-1.237.855-2.434 1.839-3.643 2.747-1.791 1.345-3.874 1.945-5.95 2.627-2.97.976-6.3 1.19-9.36.972-1.403-.1-2.76-.201-4.144-.298-1.234-.088-2.496-.654-3.71-.619-.534.014-1.022.2-1.608.171-.556-.027-1.023-.028-1.556.1-.222.052-.456.186-.667.3a2.185 2.185 0 01-.303.14.425.425 0 01-.276.017.3.3 0 01-.174-.179 1.07 1.07 0 01-.066-.367.941.941 0 01.054-.384.911.911 0 01.182-.28c.071-.08.148-.157.222-.257.381-.517.638-1.087 1.007-1.64.823-1.235 1.754-2.708 2.865-3.732.978-.9 2.287-1.428 3.495-1.856 1.006-.356 1.832-.745 2.79-1.224 1.488-.745 2.904-1.015 4.505-1.341 1.802-.365 3.368-1.215 5.209-1.379a17.3 17.3 0 012.211-.065c.818.035 1.417.347 2.155.527.99.244 2.365.509 3.374.34a.066.066 0 01.077.057.072.072 0 01-.06.08c-1.05.172-2.432-.098-3.429-.343-.757-.187-1.345-.49-2.128-.524-.707-.03-1.477.002-2.193.066-1.804.158-3.365 1.003-5.193 1.376-1.603.326-3.002.594-4.47 1.329-.959.48-1.792.872-2.806 1.23-1.203.427-2.495.951-3.445 1.827-1.09 1.004-2.02 2.469-2.843 3.705-.36.54-.618 1.112-1.01 1.646-.082.11-.163.192-.23.268a.765.765 0 00-.156.235.801.801 0 00-.044.328c.006.15.026.254.055.32.029.068.06.094.096.107.041.015.104.01.186-.017.121-.042.276-.13.443-.22.168-.088.35-.18.54-.225.552-.132 1.036-.13 1.595-.102.55.028 1.033-.154 1.597-.171 1.258-.034 2.524.536 3.724.619 1.383.097 2.74.198 4.144.297 3.046.218 6.36.003 9.306-.965 2.08-.682 4.145-1.28 5.908-2.605 1.205-.906 2.404-1.89 3.648-2.75.442-.306.867-.576 1.226-.891.36-.315.655-.673.844-1.16.028-.073.054-.15.078-.23l.066.018-.035.06a4.889 4.889 0 00-.759-.334c-.597-.21-1.233-.339-1.85-.521-1.136-.336-2.198-.8-3.357-.971-1.095-.163-2.229-.53-3.367-.784-1.138-.253-2.278-.393-3.382-.108-1.024.263-1.846.874-2.847 1.256-1.212.46-2.493.73-3.697 1.192-2.221.85-4.35 1.097-6.235 2.632-.25.204-.756.623-1.242 1.102-.486.479-.95 1.021-1.117 1.452-.07.183-.087.34-.042.465.045.124.151.229.361.303l.043.015c.514.16 1.215.08 1.782.08.98.002 1.865.19 2.816.276.877.08 1.722.27 2.571.403 1.238.197 2.43-.19 3.714-.272 1.962-.123 3.854-.837 5.793-1.303 2.314-.556 4.165-1.25 5.8-3.04.13-.142.355-.361.571-.61.216-.247.424-.525.518-.77.068-.176.078-.327.012-.448-.047-.088-.172-.17-.348-.232-.529-.187-1.458-.193-1.77-.196-2.278-.026-4.48-.697-6.726-.688-1.524.005-2.832.538-4.209 1.139-1.59.692-3.243.98-4.713 1.911-.169.107-.353.215-.506.33-.154.116-.274.239-.322.365-.048.13-.039.268.094.456.116.164.435.326.779.445.344.121.713.208.938.255 1.49.307 2.897.625 4.453.536 1.468-.084 2.759-.466 4.164-.945.677-.231 1.478-.52 2.208-.91.73-.388 1.387-.876 1.783-1.497l.058.036-.029.064a12.145 12.145 0 00-.627-.24c-2.338-.824-4.802-.897-7.226-.284a11.88 11.88 0 00-3.2 1.367c-.305.188-.458.356-.508.488a.283.283 0 00-.009.197c.03.092.114.185.24.268.124.084.287.159.465.221.294.104.628.176.9.215 1.12.162 2.423.129 3.558-.13.327-.075.663-.21.935-.379.273-.168.479-.37.553-.565a.436.436 0 00-.06-.438c-.108-.15-.324-.306-.682-.446a4.194 4.194 0 00-1.573-.26c-.521.017-1.026.141-1.39.414-.238.179-.36.323-.396.42-.028.078-.018.12.02.171.04.05.122.098.231.136.253.09.645.13 1.003.155.18.013.35.022.493.033.144.011.256.022.33.044.037.011.057.05.044.086a.072.072 0 01-.087.046m-41.589-7.654c.593-.083 1.164.036 1.718.232.747.263 1.47.665 2.188.918.224.078.446.143.669.185a6.2 6.2 0 01.952.27c.217.075.43.157.646.233a5.96 5.96 0 001.03.28c.815.13 1.65.259 2.436.44l.1.024-.062.084c-.33.444-.805.65-1.307.73-.502.081-1.036.042-1.507-.002-.907-.084-1.56-.033-2.366.306-.87.367-1.528.502-2.484.512a2.72 2.72 0 00-1.13.256c-.324.14-.644.314-1.085.434a.067.067 0 01-.083-.048.072.072 0 01.051-.085c.424-.115.734-.283 1.066-.427a2.865 2.865 0 011.185-.268c.945-.01 1.572-.14 2.43-.5.828-.35 1.517-.403 2.434-.317.468.044.992.08 1.472.003.48-.079.91-.268 1.213-.674l.055.04-.017.067c-.78-.18-1.612-.309-2.427-.439a6.005 6.005 0 01-1.055-.286c-.216-.077-.43-.157-.646-.233a6.31 6.31 0 00-.932-.265 4.705 4.705 0 01-.688-.19c-.734-.258-1.456-.66-2.188-.918-.544-.192-1.092-.303-1.654-.225a.067.067 0 01-.076-.059.072.072 0 01.062-.078" fill="#e3be9d"/><path d="M389.566 191.887c.123-.088.288-.114.472-.114.277 0 .604.069.908.146.303.077.583.164.754.207.787.193 1.54.353 2.285.615.261.091.52.196.78.32.506.24.986.648 1.508.831.1.036.203.063.307.08.697.111 1.375-.041 2.13.175.201.058.401.123.6.193 1.433.505 2.82 1.283 4.24 1.783.886.312 1.783.516 2.714.484l.023.133c-1.674.659-3.157.653-4.839.883-1.735.233-3.649-.302-5.296.173-.13.037-.265.128-.402.227-.136.1-.275.206-.427.268-.379.153-.779.186-1.135.362-.605.296-1.07.558-1.716.772-.468.154-1.05.432-1.641.646-.591.213-1.193.365-1.713.255a.066.066 0 01-.05-.082.072.072 0 01.084-.053c.471.102 1.054-.039 1.636-.25.583-.21 1.163-.487 1.644-.647.631-.209 1.089-.466 1.699-.765.388-.188.793-.222 1.144-.365.125-.05.258-.15.396-.251.139-.1.284-.203.447-.25 1.703-.485 3.622.056 5.316-.178 1.695-.23 3.161-.225 4.807-.873l.023.064v.069c-.955.033-1.87-.177-2.764-.492-1.436-.506-2.822-1.284-4.24-1.783a10.32 10.32 0 00-.593-.19c-.714-.208-1.382-.058-2.113-.172a1.886 1.886 0 01-.332-.086c-.554-.196-1.036-.608-1.52-.837a7.886 7.886 0 00-.768-.314c-.733-.259-1.482-.417-2.272-.612-.238-.058-.653-.194-1.058-.277a2.973 2.973 0 00-.572-.071c-.17-.002-.308.028-.388.087a.068.068 0 01-.096-.014.07.07 0 01.018-.097" fill="#e3be9d"/><path d="M389.528 189.801a1.06 1.06 0 01.588-.094c.21.019.43.078.65.155.467.165.936.412 1.277.532l.058.02c1.075.347 2.287.441 3.435.623.732.116 1.423.307 2.092.543 1.37.483 2.648 1.15 4.002 1.745.731.321 1.317.668 2.007.91.208.074.426.138.661.19.65.141 1.4.172 2.138.381.355.101.706.216 1.055.34 1.143.402 2.262.893 3.4 1.294a17 17 0 001.448.444c.512.13 1.088.107 1.64.149l.015.133c-.882.328-2.144.557-3.17.833-.836.225-1.498.2-2.319.24-.623.027-1.15.32-1.81.348-1.76.069-3.753-.116-5.381.393-1.763.55-3.324 1.155-5.202 1.397-.969.125-1.733.64-2.475 1.216-.741.575-1.457 1.211-2.332 1.558-.316.124-.775.146-1.2.194a3.728 3.728 0 00-.582.1c-.167.047-.295.113-.365.198a.07.07 0 01-.098.011.068.068 0 01-.008-.097c.102-.121.258-.193.438-.245.271-.076.606-.105.929-.137.321-.032.632-.07.838-.152.844-.333 1.551-.958 2.297-1.538.746-.58 1.535-1.114 2.546-1.245 1.857-.24 3.408-.839 5.177-1.391 1.668-.52 3.67-.33 5.417-.4.619-.023 1.146-.315 1.81-.348.828-.04 1.475-.016 2.289-.234 1.033-.278 2.294-.508 3.156-.83l.022.065-.008.068c-.541-.042-1.124-.017-1.663-.152a16.713 16.713 0 01-1.46-.448c-1.144-.403-2.263-.894-3.4-1.295a18.06 18.06 0 00-1.047-.336c-.718-.205-1.462-.235-2.13-.38a5.63 5.63 0 01-.677-.193c-.705-.248-1.294-.598-2.016-.915-1.36-.597-2.635-1.263-3.992-1.74a11.747 11.747 0 00-2.069-.538c-1.14-.18-2.359-.275-3.456-.628l-.06-.02c-.357-.127-.823-.372-1.278-.533a2.608 2.608 0 00-.617-.148.917.917 0 00-.51.079.068.068 0 01-.092-.029.07.07 0 01.032-.093" fill="#e3be9d"/><path d="M389.697 188.498c.612-.185 1.429.038 2.175.298.446.158.866.33 1.191.446l.056.019c1.032.353 2.1.512 3.19.68.809.125 1.51.495 2.284.629 1.429.247 2.909.644 4.283 1.127l.23.08c1.44.507 2.959 1.059 4.349 1.674.347.153.704.293 1.069.421 1.978.697 4.177 1.07 6.192 1.64.368.103.723.22 1.074.343.502.176.994.368 1.496.563l.18.066c.86.303 1.512.313 2.51.31v.137c-.89.056-2.099.462-2.989.723-1.152.337-2.23 1.108-3.318 1.61-.9.412-1.973.47-2.898.712-1.204.313-2.441.027-3.63.012-.984-.014-2.333.413-3.293.757-1.024.366-2.04.711-3.053 1.098-1.18.449-2.27 1.191-3.507 1.563-.498.149-1.028.206-1.49.396-.571.234-.957.664-1.46 1.057-1.169.911-2.232 1.155-3.512 1.75a6.793 6.793 0 00-1.157.67c-.085.06-.24.208-.386.334a1.903 1.903 0 01-.213.162.469.469 0 01-.098.049.164.164 0 01-.107.005.123.123 0 01-.076-.092.072.072 0 01.051-.085.067.067 0 01.084.048l.001.005h-.001.001-.002l.002-.001-.016.01.007-.017.009.007-.016.01.007-.017-.004.01.001-.01h.003l-.004.01.001-.01.008-.001c.02-.004.07-.03.126-.07.085-.061.188-.152.285-.239.098-.087.188-.17.258-.22.37-.267.746-.482 1.181-.684 1.297-.601 2.342-.841 3.484-1.732.49-.38.885-.827 1.494-1.077.488-.2 1.022-.256 1.503-.4 1.21-.363 2.297-1.102 3.497-1.56 1.017-.389 2.034-.734 3.056-1.1.967-.345 2.32-.778 3.343-.765 1.208.017 2.434.296 3.592-.007.945-.245 2.01-.306 2.875-.705 1.07-.491 2.153-1.268 3.337-1.616.887-.26 2.099-.67 3.019-.728l.001.068-.002.07c-.996.003-1.674-.007-2.555-.318a7.99 7.99 0 01-.184-.067c-.503-.195-.993-.386-1.493-.562a17.902 17.902 0 00-1.065-.341c-2.005-.568-4.207-.94-6.2-1.642-.368-.13-.728-.27-1.079-.425-1.384-.612-2.9-1.163-4.34-1.67l-.229-.08a27.07 27.07 0 00-4.262-1.121c-.8-.14-1.5-.51-2.282-.629-1.089-.168-2.165-.327-3.212-.686l-.057-.02c-.331-.116-.75-.289-1.191-.445-.737-.26-1.544-.467-2.088-.296a.067.067 0 01-.086-.045.072.072 0 01.05-.087m50.715 4.901c-.126.147-.315.233-.53.285-.325.077-.719.077-1.085.051-.367-.026-.706-.079-.916-.11-.712-.108-1.444-.15-2.173-.252-1.433-.2-2.81-.17-4.272-.077-1.05.068-2.074.064-3.12.218-.898.131-1.77.53-2.657.923-.932.414-1.84.766-2.84.859-.53.047-1.098.265-1.66.194-.61-.08-1.113-.2-1.723-.237-1.157-.072-2.17-.572-3.242-.803a11.188 11.188 0 01-1.368-.363 5.696 5.696 0 01-1.233-.606c-.7-.453-1.456-.77-2.24-1.046-.72-.254-1.464-.473-2.205-.731-1.344-.469-2.687-.886-4.033-1.349-1.188-.408-2.238-.618-3.49-.928-.716-.178-1.63-.425-2.358-.492a.066.066 0 01-.06-.076.072.072 0 01.078-.062c.746.07 1.663.319 2.378.496 1.248.31 2.304.52 3.502.931 1.342.462 2.686.88 4.033 1.35.737.256 1.48.475 2.206.731.788.278 1.555.599 2.268 1.06.412.266.8.449 1.204.592.419.147.855.25 1.352.358 1.094.238 2.1.732 3.221.8.625.038 1.132.16 1.733.238.514.068 1.073-.141 1.629-.194.974-.09 1.867-.435 2.795-.848.886-.393 1.77-.797 2.696-.934 1.059-.155 2.086-.151 3.13-.218 1.466-.094 2.853-.125 4.3.077.722.1 1.455.143 2.175.252.28.043.784.121 1.268.125.242.002.48-.015.679-.063.2-.047.36-.126.454-.237a.07.07 0 01.097-.01.068.068 0 01.007.096m-1.502-1.76c-.137-.048-.352-.04-.58-.013-.228.025-.468.065-.669.067-.728.01-1.29-.16-1.964-.33-.781-.198-1.676-.182-2.489-.117-.626.05-1.434-.029-2.207-.04-.772-.013-1.505.047-1.965.347a.068.068 0 01-.095-.019.07.07 0 01.022-.096c.513-.33 1.266-.38 2.045-.37.78.012 1.588.089 2.194.04.82-.065 1.728-.083 2.534.12.678.172 1.224.336 1.929.327.184-.002.422-.04.655-.067.233-.025.46-.04.639.02a.066.066 0 01.04.087.072.072 0 01-.09.044" fill="#e3be9d"/><path d="M424.825 192.507c-2.677.5-5.27.582-7.887-.2a24.956 24.956 0 01-3.342-1.251c-.314-.145-.738-.395-1.15-.54-.327-.116-.641-.16-.878-.052a.068.068 0 01-.09-.033.071.071 0 01.037-.092c.296-.132.642-.073.981.046.43.152.858.406 1.162.544a24.762 24.762 0 003.325 1.245c2.59.775 5.157.695 7.82.197a.067.067 0 01.08.055.072.072 0 01-.058.08m11.553-3.261c-.61-.12-1.375-.095-2.065-.295-.748-.217-1.427-.413-2.212-.277-.472.081-.96.28-1.472.339-.15.017-.357.018-.543.025a3.58 3.58 0 00-.25.015.443.443 0 00-.133.028.068.068 0 01-.093-.026.07.07 0 01.029-.094.528.528 0 01.188-.045c.226-.024.584-.016.791-.04.486-.055.972-.251 1.464-.337.824-.143 1.528.064 2.275.28.66.193 1.42.168 2.053.293.037.007.06.043.051.08a.072.072 0 01-.083.055m-2.349-2.112c-1.438-.172-3.179-.324-4.555-.044a.067.067 0 01-.08-.054.072.072 0 01.057-.082c1.408-.284 3.158-.129 4.599.043a.066.066 0 01.058.077.072.072 0 01-.08.06m-1.668-1.897c-.015-.04-.05-.07-.113-.094-.137-.05-.389-.036-.638.002-.25.036-.499.092-.654.111-.273.034-.533-.02-.782-.073-.248-.055-.485-.11-.71-.093a.066.066 0 01-.072-.064.072.072 0 01.067-.073c.254-.019.503.041.75.095s.492.101.735.071c.142-.017.395-.074.65-.111.258-.036.519-.059.705.005a.3.3 0 01.193.17.071.071 0 01-.04.091.068.068 0 01-.09-.037m-2.293-1.857a.33.33 0 00-.124-.076.644.644 0 00-.414.02.067.067 0 01-.087-.043.071.071 0 01.046-.088.78.78 0 01.505-.02.465.465 0 01.173.107.069.069 0 01-.001.098.07.07 0 01-.098.002m17.379 16.738c-.122.014-.281.084-.452.19-.258.161-.544.4-.809.636s-.507.466-.683.612c-.836.692-1.619 1.173-2.558 1.714-1.087.625-2.519.916-3.474 1.621-.817.602-1.627 1.281-2.45 1.914-2.545 1.96-5.94 2.752-8.852 2.918a.067.067 0 01-.07-.065.072.072 0 01.067-.073c2.894-.164 6.264-.953 8.773-2.888.819-.63 1.63-1.31 2.452-1.915.995-.731 2.432-1.02 3.488-1.63.937-.54 1.71-1.017 2.538-1.701.226-.187.582-.535.952-.845.185-.155.374-.3.555-.413.181-.113.353-.193.511-.213a.066.066 0 01.075.06.072.072 0 01-.063.078m-28.641 7.739a.328.328 0 00-.115-.073c-.077-.027-.155-.011-.259.027-.102.037-.222.094-.366.12a2.013 2.013 0 01-.687-.007c-.211-.031-.412-.07-.626-.062-.297.012-.493.055-.705.08a2.192 2.192 0 01-.769-.042c-.707-.151-1.35-.047-2.09-.235-.672-.173-1.378-.056-2.064-.295l-.003-.002c-.334-.118-.631-.301-.946-.411a1.577 1.577 0 00-.527-.099c-.328 0-.79.15-1.256.276-.467.123-.94.222-1.318.091a.942.942 0 01-.064-.025c-.185-.08-.3-.211-.338-.37-.039-.16-.009-.339.065-.53.214-.546.794-1.214 1.38-1.802a18.505 18.505 0 011.421-1.275c.446-.353.94-.84 1.456-1.291.517-.452 1.056-.87 1.606-1.087a.068.068 0 01.09.038.071.071 0 01-.043.09c-.52.204-1.052.612-1.564 1.06-.512.448-1.006.935-1.461 1.296-.235.186-.827.684-1.408 1.265-.582.58-1.153 1.247-1.348 1.752-.068.175-.089.327-.06.445.031.118.107.212.264.282a.699.699 0 00.054.022c.32.115.776.03 1.236-.095.462-.122.926-.279 1.292-.28.207 0 .395.044.574.107.331.117.63.3.946.411l.002.001c.642.229 1.344.113 2.052.292.708.182 1.347.079 2.085.234.322.068.523.064.725.04.201-.023.406-.069.715-.08.235-.01.445.032.652.062.208.031.412.051.64.01.123-.023.233-.075.344-.115.11-.04.228-.072.353-.028a.457.457 0 01.16.1c.028.026.029.07.002.098a.07.07 0 01-.098.005" fill="#e3be9d"/><path d="M408.755 209.662c-.626-.013-1.21-.169-1.778-.369-.547-.192-1.079-.426-1.62-.616-.608-.215-1.227-.374-1.89-.362-.77.015-1.533.125-2.31.183-.675.048-1.123-.065-1.768.043l-.131.022.06-.119c.22-.435.62-.747 1.036-1.047.417-.3.852-.586 1.153-.954.673-.82 1.36-1.78 2.126-2.535.514-.507 1.087-.789 1.658-1.033.571-.244 1.142-.452 1.662-.804a.069.069 0 01.096.017.07.07 0 01-.02.097c-.54.364-1.121.574-1.687.816-.567.243-1.119.516-1.613 1.003-.754.742-1.439 1.698-2.116 2.524-.321.391-.767.683-1.18.98-.414.297-.793.599-.992.994l-.061-.029-.01-.068c.676-.112 1.132.003 1.782-.045.77-.057 1.537-.168 2.318-.183.687-.013 1.323.152 1.938.369.547.193 1.08.426 1.62.617.561.197 1.13.348 1.735.36a.067.067 0 01.066.07.073.073 0 01-.074.068" fill="#e3be9d"/><path d="M400.15 210.344c-.529-.039-1.351-.16-2.022-.269-.693-.114-1.637-.362-2.323-.32-1.064.062-2.21.711-3.288 1l-.116.03.034-.114c.013-.041.027-.082.043-.123.273-.7 1.064-1.436 1.608-1.874 1.09-.873 2.396-1.634 3.555-2.396 1.181-.775 2.551-1.864 3.489-2.681a.07.07 0 01.097.005.07.07 0 01-.008.097c-.942.822-2.315 1.912-3.505 2.694-1.164.764-2.466 1.523-3.544 2.387-.535.428-1.314 1.166-1.563 1.814a1.338 1.338 0 00-.038.112l-.067-.018-.016-.066c1.053-.279 2.204-.936 3.316-1.005.723-.041 1.67.211 2.354.322.668.109 1.49.23 2.01.268a.066.066 0 01.061.073.072.072 0 01-.077.064m-5.238-3.675c-.71.696-1.628 1.133-2.324 1.798-.625.596-1.113 1.3-1.674 1.921-.21.232-.563.649-.944 1.006a3.902 3.902 0 01-.583.462c-.193.12-.384.197-.564.191a.066.066 0 01-.065-.07.073.073 0 01.074-.068c.135.006.304-.057.485-.17.272-.167.568-.44.833-.714.266-.275.502-.55.662-.727.553-.61 1.043-1.32 1.682-1.929.72-.685 1.638-1.122 2.322-1.797a.07.07 0 01.098-.001.07.07 0 01-.003.098m37.588 4.709c-.443.178-.891.125-1.306.254-.406.124-.837.352-1.248.504-.67.247-1.19.455-1.874.612a.067.067 0 01-.081-.051.072.072 0 01.054-.083c.672-.154 1.185-.359 1.857-.607.399-.147.831-.376 1.256-.507.453-.136.895-.085 1.293-.25a.067.067 0 01.09.038.071.071 0 01-.041.09" fill="#e3be9d"/><path d="M391.588 249.242c-.187.405-.448.716-.81.899-.448.227-1.098-.095-1.565-.135l-2.013-.169.003-63.068 4.839.409v.073c0 9.388 0 18.776-.002 28.162l-.001 20.214v7.991c0 2.05.153 4.32-.451 5.624" fill="#916a3b"/><path d="M391.234 250.189l-4.84-.409.004-63.069 4.84.408-.004 63.069" fill="#d9a272"/><path d="M388.634 249.875c.272-2.235.3-4.39.404-6.654.04-.883.035-1.917.054-2.92.02-1.001.066-1.97.201-2.702l-.1-.1-.101.09c.025.127.048.254.07.383.32 1.805.431 3.767.52 5.748.09 1.98.156 3.98.398 5.859l.104-.06-.107-.053-.004.067c0 .027-.004.047.008.13.006.033.02.095.055.136.035.041.072.03.09.014.022-.02.03-.039.038-.051.02-.048.023-.067.032-.095l.028-.11.01-.034-.004-.004.003.004-.002-.005.003.005-.066-.12.051.15.015-.03-.066-.12.051.15-.135-.394c-.018.033-.022.05-.028.066-.016.05-.027.1-.039.144l-.012.047v.002l.045.076-.04-.088-.006.013.046.076-.041-.088.073.156-.037-.208c-.027.024-.031.044-.036.052l.073.156-.037-.208.04.226.047-.212c-.035-.04-.07-.029-.087-.014l.04.226.047-.212-.047.211.1-.08a.292.292 0 00-.053-.131l-.047.211.1-.08-.083.066.09.023c-.001-.008.004-.014-.007-.09l-.083.068.09.022-.015-.004.014.004-.014-.005.014.004.002-.017.004-.056-.007-.057c-.233-1.81-.3-3.782-.39-5.77-.09-1.989-.2-3.997-.533-5.882a26.163 26.163 0 00-.074-.4l-.105-.533-.097.525c-.151.828-.196 1.84-.216 2.862-.02 1.02-.014 2.05-.053 2.89-.105 2.289-.134 4.412-.398 6.578l.21.144" fill="#e3be9d"/><path d="M387.721 248.745h-.038l-.014-.001-.013.001c-.007 0-.015 0-.034.016-.014.01-.045.045-.061.129a.545.545 0 000 .187.25.25 0 00.017.067l.008.022.19.484v-.632c-.001-2.219.202-4.213.317-6.44.072-1.422-.012-2.818.078-4.155.078-1.195.31-2.372.336-3.694.031-1.769.095-3.333.195-5.132.093-1.72.407-3.37.332-5.301l-.11.012-.106.046c.524 5.096.628 10.317 1.463 15.175.257 1.489.184 3.024.254 4.703.065 1.505.267 2.76.268 4.279l.219.016c-.004-1.617-.21-2.897-.27-4.323-.07-1.61.012-3.201-.268-4.835-.819-4.753-.925-9.952-1.453-15.107l-.215.059c.073 1.78-.229 3.39-.331 5.199-.1 1.807-.165 3.387-.197 5.171-.02 1.203-.247 2.364-.333 3.643-.094 1.427-.01 2.829-.08 4.17-.112 2.194-.318 4.21-.318 6.496l.11.01.08-.158-.031.061.033-.056-.002-.005-.031.061.033-.055-.078.13.092-.074-.014-.056-.078.13.092-.074-.1.08.1.1a.516.516 0 000-.18l-.1.08.1.1-.1-.1.04.226c.014-.01.044-.044.06-.126l-.1-.1.04.226-.037-.21.009.223.028-.013-.037-.211.009.224-.006-.14.001.14h.005l-.006-.14v.14c.003 0 .035.006.074 0l-.022-.487" fill="#e3be9d"/><path d="M386.777 249.303c.397-2.223.258-5.266.258-7.604-.003-3.12.012-6.264-.104-9.444-.119-3.202.563-7.294.975-10.395.238-1.8.43-3.661.537-5.54.072-1.29-.02-2.727.131-3.863l-.105-.077-.106.046a170.13 170.13 0 001.864 12.932c.182 1.025.362 2.468.397 3.511.034.964-.108 2.066-.084 3.238.043 2.009.11 3.525.336 5.4l.21-.11c-.22-1.832-.284-3.295-.328-5.295-.026-1.067.119-2.162.084-3.25-.039-1.128-.223-2.588-.412-3.658l-.026-.148a169.015 169.015 0 01-1.828-12.712l-.095-.92-.117.89c-.166 1.281-.067 2.741-.138 3.936a74.13 74.13 0 01-.53 5.466c-.406 3.083-1.103 7.194-.983 10.57.115 3.151.1 6.28.103 9.406.005 2.37.13 5.376-.243 7.424l.204.197" fill="#e3be9d"/><path d="M387.173 215.49c-.03-2.391.368-4.81.51-7.272.062-1.067.061-2.585.139-4.01.075-1.428.236-2.739.573-3.37l-.072-.189-.087.14c.18.54.326.905.444 1.247.12.343.212.662.298 1.148.03.169.059.356.087.572.183 1.41.383 2.728.543 4.151.127 1.143.258 2.31.38 3.451.046.426.064.996.086 1.555.023.562.048 1.11.123 1.543l.012.067.2-.184-.01-.048c-.058-.326-.086-.851-.107-1.404-.023-.554-.04-1.136-.091-1.625-.122-1.146-.254-2.315-.382-3.457-.163-1.449-.363-2.774-.545-4.17a13.75 13.75 0 00-.093-.616 7.723 7.723 0 00-.33-1.273c-.126-.364-.268-.717-.441-1.238l-.072-.216-.088.168c-.412.795-.565 2.209-.646 3.67-.079 1.461-.078 2.993-.137 4.007-.136 2.39-.542 4.828-.513 7.347l.219.005" fill="#e3be9d"/><path d="M387.396 201.921l-.031.057.035-.042-.004-.015-.031.056.035-.042-.012.015.013-.013v-.002l-.013.015.013-.013a2.521 2.521 0 01-.01-.362c.014-.696.14-2.064.278-3.35.137-1.292.285-2.517.343-2.98.27-2.191.349-4.913.724-6.832l-.1-.105-.063.196c.118.183.25.675.355 1.28.185 1.052.314 2.429.382 3.196.157 1.77.23 3.578.395 5.39.075.821.102 1.856.148 2.91.047 1.055.113 2.13.275 3.054.072.405.162.781.28 1.11l.169-.295c-.1-.28-.18-.61-.246-.98-.149-.84-.215-1.878-.26-2.919-.046-1.041-.072-2.084-.152-2.96-.162-1.776-.235-3.584-.395-5.387-.07-.775-.197-2.169-.394-3.282-.115-.642-.245-1.197-.432-1.508l-.11-.179-.053.27c-.395 2.039-.469 4.774-.734 6.894-.066.535-.251 2.064-.403 3.557a66.114 66.114 0 00-.186 2.086c-.02.302-.034.57-.039.794-.003.227-.003.4.025.565a.7.7 0 00.033.127l.165-.306" fill="#e3be9d"/><path d="M143.332 195.876q0 .374-.165.702-.155.328-.434.574t-.651.392q-.372.137-.786.137h-.506q-.403 0-.744-.128-.331-.127-.59-.346t-.413-.51q-.155-.301-.186-.639h1.271q.062.228.217.392.166.155.455.155h.434q.186 0 .331-.063t.248-.174q.114-.11.176-.246.062-.146.062-.31v-4.339h1.281zm3.995.857h-1.892l-.258.948h-1.25l1.808-6.208h1.344l1.736 6.208h-1.24zm-1.644-.92h1.406l-.651-2.535h-.073zm4.013-4.34h1.312v6.208h-1.312zm5.214 0q.403 0 .754.137.352.128.6.356.258.227.403.537.155.31.155.657v.273q0 .347-.155.656-.145.301-.403.538-.248.228-.6.356t-.754.127h-1.778v2.571h-1.24v-6.208zm-1.778 1.085v1.468h1.571q.444 0 .651-.192t.207-.538q0-.328-.207-.528-.207-.21-.65-.21zm9.424 3.318q0 .374-.155.702t-.434.574-.65.392q-.373.137-.797.137h-.796q-.423 0-.795-.137-.372-.146-.662-.392-.279-.246-.444-.574-.155-.328-.155-.702v-4.403h1.271v4.34q0 .163.062.31.072.136.186.245.124.11.28.174.164.063.34.063h.62q.176 0 .331-.063.165-.064.279-.174t.186-.246q.072-.146.072-.31v-4.339h1.261zm2.258-.702v2.507H163.5v-6.208h3.018q.403 0 .755.137.35.128.599.356.258.227.403.537.155.31.155.657v.273q0 .347-.155.656-.145.301-.403.538-.248.228-.6.356t-.754.127h-.351l2.387 2.571h-1.498zm0-2.616v1.468h1.498q.445 0 .652-.192t.206-.538q0-.328-.206-.528-.207-.21-.652-.21z" aria-label="JAIPUR"/><path d="M394.383 194.74v3.307h-.974v-5.05h.974l1.845 3.337v-3.337h.95v5.05h-.95zm4.572 2.454h2.707v.853h-3.737v-5.05h3.737v.853h-2.707v1.245h2.707v.846h-2.707zm7.925-.882h.056q.208-.838.423-1.647l.44-1.668h.974l-1.342 5.05h-1.038l-.894-3.248-.863 3.248h-1.046l-1.381-5.05h.974l.902 3.315h.048l.216-.809q.16-.63.32-1.246.167-.622.335-1.26h.974zm5.43-3.315h2.484q.263 0 .495.104.24.103.415.289t.271.43q.104.237.104.512v2.38q0 .282-.104.52-.095.236-.271.422t-.415.289q-.232.104-.495.104h-2.484zm2.236 4.115q.12 0 .216-.044t.167-.119q.08-.074.12-.17.04-.104.04-.223v-2.076q0-.111-.04-.208-.04-.104-.12-.178-.072-.081-.167-.126t-.216-.044h-1.238v3.188zm3.354.082h2.707v.853h-3.737v-5.05h3.737v.853H417.9v1.245h2.707v.846H417.9zm4.352 0h2.946v.853h-3.904v-5.05h.958zm7.326.853h-1.006v-2.106h-1.749v2.106h-1.014v-5.05h1.014v2.098h1.749v-2.098h1.006zm.779-5.05h1.014v5.05h-1.014zm-23.717 14.349q-.319 0-.606-.111-.288-.119-.503-.32t-.344-.466q-.12-.267-.12-.571v-2.195q0-.297.12-.564.128-.274.344-.474t.503-.312q.287-.119.607-.119h.686q.312 0 .575.104t.455.29q.2.177.32.422.12.237.152.527h-1.007q-.04-.2-.151-.334t-.352-.134h-.67q-.28 0-.448.193-.16.186-.16.453v.54q.296-.11.6-.11h.623q.327 0 .614.118.288.112.495.312.216.2.344.474.128.267.128.571v.238q0 .304-.128.57t-.344.468q-.207.2-.495.319-.287.111-.614.111zm-.598-1.49q.016.259.175.437.168.178.432.178h.607q.279 0 .439-.185.167-.193.167-.46v-.141q0-.267-.167-.452-.16-.186-.44-.186h-.606q-.28 0-.448.186-.16.178-.16.444zm5.689-3.619q.304 0 .575.11t.471.298q.208.185.32.437.12.252.12.541v2.314q0 .282-.12.534-.112.252-.32.437-.2.186-.47.297t-.576.111h-.814q-.304 0-.575-.11t-.471-.298-.32-.437q-.112-.252-.112-.534v-2.314q0-.289.112-.541.12-.252.32-.437t.47-.297.576-.111zm.56 1.535q0-.126-.057-.238-.048-.118-.143-.207-.088-.09-.208-.134-.12-.052-.264-.052h-.59q-.144 0-.264.052-.12.045-.216.134-.087.089-.143.207-.048.112-.048.238v2.01q0 .125.048.244.056.119.143.208.096.081.216.133.12.045.264.045h.59q.144 0 .264-.045.12-.052.208-.133.095-.09.143-.208.056-.119.056-.245zm5.689.615q-.208 0-.336.052-.127.045-.2.126-.063.082-.087.193t-.024.245v2.313h-.934v-2.306q0-.133-.024-.245-.024-.118-.096-.2-.064-.081-.192-.126-.128-.052-.343-.052h-.192q-.207 0-.343.052-.128.045-.2.126t-.104.2q-.024.112-.024.245v2.306h-.934v-3.774h.934v.111q.312-.111.663-.111h.352q.319 0 .566.089t.424.245q.191-.156.447-.245t.575-.09h.415q.351 0 .623.112t.447.297q.184.178.272.415.095.23.095.467v2.484h-.926v-2.306q0-.133-.024-.245-.024-.118-.096-.2t-.2-.126q-.127-.052-.335-.052z" fill="#fff" aria-label="NEW DELHI 60m"/><g fill-rule="evenodd"><path d="M259.131 210.248c-5.643-20.4-12.584-40.083-17.736-59.969-1.918-7.394-3.588-14.817-4.853-22.315l5.162 4.452-5.41-5.953c-.902-5.59-1.571-11.224-1.947-16.92-.067-1.045-.134-2.086-.197-3.123l7.594 8.816-7.816-12.646c-.978-17.458-1.414-34.128-3.789-51.956 10.52 16.325 19.208 23.53 16.348 42.377l4.925-7.547c3.662 24.918 10.57 50.014 1.977 73.038-6.298 16.877 3.095 36.112 10.48 56.955l-4.736-5.21" fill="#a0ba2c"/><path d="M254.839 210.688c-5.224-16.914-10.537-43.964-22.396-57.771-1.63-1.899-3.25-3.823-4.793-5.777-2.905-3.685-5.541-7.48-7.478-11.43-4.28-8.738-4.975-17.865-4.053-29.851 4.865 17.427 20.128 29.613 24.394 45.454 5.489 20.393 10.778 51.22 21.218 65.165h-3.283l-3.61-5.79" fill="#68a729"/><path d="M256.486 212.82c-1.071-18.924-5.006-34.422-8.876-52.927-2.183-10.431-2.843-20.259-1.952-32.399l3.937 14.933-1.64-15.237c4.387-10.951 8.462-16.79 16.406-25.903l1.312 10.972.33-11.58c14.669-16.178 28.715-18.761 50.862-21.333l-19.033 20.418-9.516 3.962 8.204-.304c-5.18 8.891-10.373 17.708-15.094 26.815l-13.783 4.572h9.845l-2.953 6.4-3.61 8.836-10.83 10.057 7.22-3.048c-10.679 12.623-10.527 15.333-8.532 31.693l2.626 21.027 1.641 20.112-10.173-.609 3.61-16.456" fill="#86af20"/><path d="M265.845 119.857c9.411-14.143 15.34-21.59 29.35-31.798-9.104 7.433-15.082 12.882-21.585 22.315l13.757-.51-14.673 2.157-5.137 6.928 12.472-.455-12.718 1.591-3.362 6.245 11.679.341-12.474.909c-1.824 3.937-3.251 7.873-4.097 11.811l11.19-2.271-11.8 3.463c-7.257 22.165-2.243 50.848 2.751 73.761l-2.201 4.316c-4.748-32-11.531-70.363 6.847-98.804" fill="#98b41b"/><path d="M249.972 232.52l1.588-21.22-3.282-12.798-4.594-12.494-3.61-5.181-4.595 5.486c-11.732-1.038-16.43 6.043-24.608 13.407-4.61-4.754-7.553-.103-1.969 3.353-8.306 6-10.204 13.323-14.44 22.246-9.096-14.598-13.051-37.756 2.724-52.262 16.266-14.958 36.398-18.73 46.168 2.284l1.97 4.876 17.54 52.304h-12.892" fill="#739836"/><path d="M238.267 167.486a26.86 26.86 0 011.873 2.318c-7.893-3.003-14.852-3.007-20.878-.834-1.667 5.965-1.026 10.222-.376 17.908-2.041-6.784-1.875-10.673-.946-17.394a27.72 27.72 0 00-4.133 2.186c-1.574 5.36-.943 9.264-.302 16.231-1.963-6.006-1.885-9.548-1.048-15.314a33.775 33.775 0 00-4.016 3.415c-1.438 5.102-.82 8.934-.195 15.646-1.858-5.609-1.886-9.04-1.176-14.215-8.604 9.45-13.892 24.385-15.821 39.426 1.375-25.881 15.457-57.745 47.019-49.374" fill="#829f2e"/><path d="M257.784 215.254c8.597-25.553 14.33-64.075 36.751-81.062v2.744c9.011-7.112 17.212-6.78 28.878-8.533l-7.218 7.923 9.187-8.532c27.468 5.277 33.053 20.323 42.986 41.748l-16.734-12.494-6.893-9.142 1.97 8.228-10.172-.305-10.829-10.97 4.922 8.228c-15.648 6.459-28.319 8.574-42.986 17.37l-4.923-3.963v6.096c-10.885 6.916-15.098 19.34-17 30.559 2.97-4.517 5.439-6.8 9.384-8.997 2.717-1.513 5.054-2.328 7.349-2.738 10.34-1.845 16.491 1.542 20.87 7.454 5.56 7.502 5.293 13.94 15.095 6.613-7.662 11.346-22.42 8.536-30.687-2.376-2.557-3.375-5.196-7.055-7.6-9.023-.884-.723-2.101-.226-5.004 1.491-3.1 1.834-4.211 3.98-5.45 7.675l2.542-1.405c-3.401 11.057-.56 20.311 2.845 30.668h-17.282v-17.258" fill="#7aa32e"/><path d="M263.4 198.45c10.891-35.861 40.08-76.389 88.292-52.468-12.7-6.07-24.282-7.574-34.668-5.686 4.065 4.775 7.98 9.228 11.272 13.745l-.15.058a191.872 191.872 0 00-13.087-13.404 48.424 48.424 0 00-9.663 3.303c5.799 4.311 9.82 7.846 14.262 13.206l-.085.029c-4.757-5.13-9.129-9.328-15.76-12.471-4.179 2.107-8.108 4.793-11.781 7.954 5.01 2.589 8.942 5.292 13.433 8.712-4.852-2.92-9.33-5.482-14.549-7.731-10.357 9.31-18.61 22.404-24.581 36.805l-2.936 7.949" fill="#86af20"/></g><path d="M273.94 238.19l.863 13.856 4.617 1.534.526-.226 2.251-15.029.384-.174zm8.64-.04v-13.7l-9.415-.007.774 13.746z" fill="none" stroke="#000" stroke-width=".095"/><path d="M282.58 238.15l.474.482 2.459 14.983.5.333 4.67-1.844.548-14.056zm0-13.7l9.194-.007-.543 13.605-8.651.101z" fill="none" stroke="#000" stroke-width=".095"/><g stroke="#000" stroke-width="4.741"><path transform="matrix(.09205 0 0 .09855 245.78 128.33)" d="M488.42 1241.2c-.216-.149-.366-.39-.596-.516a7.51 7.51 0 00-3.076-.89 8.332 8.332 0 00-3.404.494l-45.025 16.207a9.52 9.52 0 00-3.09 1.844 10.348 10.348 0 00-2.217 2.797c-.39.716-.567 1.518-.78 2.306l1.4 7.965c.631.785 1.368 1.462 2.228 1.93a7.508 7.508 0 003.076.89 8.334 8.334 0 003.404-.494l45.025-16.205c.906-.326 1.675-.881 2.426-1.449zm-115.82 18.4c-.143-.33-.185-.698-.365-1.008-.552-.95-1.272-1.8-2.13-2.498s-1.85-1.241-2.948-1.576l-45.881-13.998a7.97 7.97 0 00-3.235-.309 7.456 7.456 0 00-2.908.961c-.283.165-.471.458-.73.659l.863 13.596c.73.51 1.487.996 2.369 1.265l45.881 13.996a7.97 7.97 0 003.234.31 7.454 7.454 0 002.909-.96c.573-.334 1.01-.857 1.48-1.336z" fill="navy"/><path transform="matrix(.09205 0 0 .09855 245.78 128.33)" d="M297.49 975.35l16.91 266.5c.26-.201.448-.494.73-.658a7.456 7.456 0 012.909-.961 7.976 7.976 0 013.234.308l45.881 13.998a8.682 8.682 0 012.95 1.576 9.15 9.15 0 012.128 2.499c.18.31.222.678.365 1.007l23-143.41c6.488-4.324 9.319 3.12 9.319 3.12l25.316 144.08c.212-.788.39-1.59.78-2.307a10.348 10.348 0 012.216-2.797 9.521 9.521 0 013.09-1.844l45.025-16.207a8.33 8.33 0 013.404-.494 7.507 7.507 0 013.076.89c.23.126.38.368.596.516l11.223-265.53v-.287z" fill="#00f"/></g><path d="M296.23 257.18c0 2.745-2.67 2.32-6.346 2.32s-5.417 1.088-5.417-1.657 1.432-5.634 5.108-5.634 6.655 2.226 6.655 4.971zm-14.27 0c0 2.745-2.67 2.32-6.346 2.32s-5.417 1.088-5.417-1.657 1.432-5.634 5.108-5.634 6.655 2.226 6.655 4.971z" fill="maroon" stroke="#000" stroke-width=".424"/><g fill="#f5d1a7" stroke="#000" stroke-width="1.261"><path d="M21.339 157.75l.094 6.993-2.55 8.126-5.104 8.977.284 8.41 3.402 8.788 3.024 1.7s2.79-.958 2.456-2.362c1.27.2 2.08-1.984 2.08-1.984.734.067.472-1.7.472-1.7.935-.736.472-2.93.472-2.93 1.804-.535 2.24-2.436 2.24-2.436s.892-3.932 1.257-6.352c.467-1.737 3.685-5.575 3.685-5.575l.945-6.71-.756-5.386v-7.56z" transform="matrix(-.35653 0 0 .26041 310.35 178.69)"/><path d="M22.946 198.38l-1.965-3.41-2.005-4.678-.2-3.675 1.002-2.472 1.47-1.604 2.339-1.804-1.804 3.341-.401 3.274.334 2.339s.314 1.5.479 2.421c.2.735.26 1.606 1.392 2.857a27.175 27.175 0 011.438 1.427c-.802 1.67-1.478 2.118-2.079 1.984z" transform="matrix(-.35653 0 0 .26041 310.35 178.69)"/><path d="M25.497 194.7s-.942-1.214-1.347-2.15c-.236-.85-.361-1.78-.621-2.536-.236-1.158-.024-2.055-.047-3.142 0-1.087-.048-2.457-.048-2.457l.473-2.126-.32-1.546-1.805 3.34-.4 3.274.813 4.76c.687 2.22.919 2.338 1.391 2.858l1.439 1.426s.696.012.472-1.701m.473-2.93c-1.27-.601-1.585-1.292-2.44-1.757" transform="matrix(-.35653 0 0 .26041 310.35 178.69)"/></g><g fill="#f5d1a7" stroke="#000" stroke-width="1.261"><path d="M21.339 157.75l.094 6.993-2.55 8.126-5.104 8.977.284 8.41 3.402 8.788 3.024 1.7s2.79-.958 2.456-2.362c1.27.2 2.08-1.984 2.08-1.984.734.067.472-1.7.472-1.7.935-.736.472-2.93.472-2.93 1.804-.535 2.24-2.436 2.24-2.436s.892-3.932 1.257-6.352c.467-1.737 3.685-5.575 3.685-5.575l.945-6.71-.756-5.386v-7.56z" transform="matrix(.32318 0 0 .26085 253.97 178.76)"/><path d="M22.946 198.38l-1.965-3.41-2.005-4.678-.2-3.675 1.002-2.472 1.47-1.604 2.339-1.804-1.804 3.341-.401 3.274.334 2.339s.314 1.5.479 2.421c.2.735.26 1.606 1.392 2.857a27.175 27.175 0 011.438 1.427c-.802 1.67-1.478 2.118-2.079 1.984z" transform="matrix(.32318 0 0 .26085 253.97 178.76)"/><path d="M25.497 194.7s-.942-1.214-1.347-2.15c-.236-.85-.361-1.78-.621-2.536-.236-1.158-.024-2.055-.047-3.142 0-1.087-.048-2.457-.048-2.457l.473-2.126-.32-1.546-1.805 3.34-.4 3.274.813 4.76c.687 2.22.919 2.338 1.391 2.858l1.439 1.426s.696.012.472-1.701m.473-2.93c-1.27-.601-1.585-1.292-2.44-1.757" transform="matrix(.32318 0 0 .26085 253.97 178.76)"/></g><path d="M294.41 188.18s.735.194 1.45.515c.588.265 1.153.65 1.373.791.383.444 1.292 1.79 1.292 1.79l2.867 8.633 2.032 6.125-5.899 2.902-1.637-4.367-1.431-3.15zm-25.4.19s-1.554.446-1.996.82c-.279.273-.97 1.066-.97 1.066l-1.058 1.527-1.042 2.605-1.735 5.236-2.213 6.6 5.9 2.902 1.719-4.344 1.302-2.575z" fill="none" stroke="#000" stroke-width=".383"/><path d="M297.53 208.93l.147 10.814h5.95l-.198-13.716-5.899 2.901" fill="none" stroke="#000" stroke-width=".095"/><path d="M297.53 208.93l.147 10.814h5.95l-.198-13.716-5.899 2.901m-31.64.201l-.147 10.638-5.95-.14.198-13.4 5.899 2.902" fill="none" stroke="#000" stroke-width=".383"/><path d="M93.952 116.97l11.466 14.777 11.505-15.016 18.127-.318 6.63 2.95 3.033 4.039 11.508 33.315.467 30.85h-13.976l-.346-24.3-7.097-15.618-.983 11.74-5.434 38.89H85.147l-9.977-50.186-7.122 15.618-.346 23.856H53.726l.467-30.406 11.744-32.6 4.764-5.853 4.797-1.859z" fill="red" stroke="#000" stroke-width="1.048" transform="matrix(.42576 0 0 .44299 236.91 136.61)"/><path d="M85.014 123.42v22.676h4.766q6.035 0 8.828-2.734 2.812-2.735 2.812-8.633 0-5.86-2.812-8.574-2.793-2.735-8.828-2.735zm-3.945-3.242h8.105q8.477 0 12.441 3.535 3.965 3.516 3.965 11.016 0 7.54-3.984 11.074-3.985 3.535-12.422 3.535h-8.106z" transform="matrix(.45756 0 0 .48986 239.988 139.905)" fill="#ff0" stroke="#ff0" aria-label="D"/><path d="M276.88 184.74c-.016.58.033 3.678.033 3.678l4.882 6.546 4.898-6.652.082-4.276-.779 1.1-1.72 1.205-1.183.317-1.66.018-1.434-.097-1.853-.977-1.282-1.055z" fill="#f5d1a7" stroke="#000" stroke-width=".455"/><path d="M267.73 154.4c1.302 1.047 3.356-.364 4.722-.12 8.127 1.456 15.965-.224 19.221-.4.435-.022 1.681-.003 2.557-.03.896-.028 1.383.038 1.383.038s-.033 2.894-.303 11.27l.197 3.283-.374 3.662-.885 4.052s-.63 2.037-1.42 2.776c0 0-1.325 1.6-3.035 2.339-1.315.995-2.74 2.592-3.795 3.874-1.956 1.933-3.477 1.578-5.998 1.443-2.02-.788-2.684-1.665-4.184-3.235l-2.325-2.14-1.906-1.742-1.195-1.158-1.408-1.829-.92-2.112-.563-1.502-.279-4.779.387-4.921z" fill="#f5d1a7" stroke="#000" stroke-width=".455"/><path d="M281.77 167.3s.907 3.609.79 4.33c-.012.078-.116.488-.116.488s-.583-.123-.9-.118" fill="none" stroke="#000" stroke-width=".347"/><ellipse cx="286.66" cy="167.29" rx="1.742" ry="2.446" stroke="#000" stroke-opacity=".992" stroke-width=".311"/><ellipse cx="276.9" cy="167.29" rx="1.742" ry="2.446" stroke="#000" stroke-opacity=".992" stroke-width=".311"/><ellipse cx="286.73" cy="167.15" rx=".625" ry="1.038" fill="#fff" stroke="#fff" stroke-opacity=".992" stroke-width=".311"/><ellipse cx="276.97" cy="167.15" rx=".625" ry="1.038" fill="#fff" stroke="#fff" stroke-opacity=".992" stroke-width=".311"/><path d="M273.58 162.25h4.138c.25 0 .453.12.453.268 0 .148-.202.267-.453.267h-4.138c-.251 0-.453-.12-.453-.267 0-.149.202-.268.453-.268zm11.59 0h4.138c.25 0 .453.12.453.268 0 .148-.202.267-.453.267h-4.138c-.251 0-.453-.12-.453-.267 0-.149.202-.268.453-.268z" stroke="#000" stroke-opacity=".992" stroke-width=".311"/><path d="M267.64 165.18s2.197 1.21 3.249 3.04c0 0 .475 1.265.896 2.313.366.911 2.05 2.092 2.183 2.188 2.81.714 4.457-.812 7.657.018 0 0 1.427-.234 2.312-.307 1.282.423 3.524.996 3.524.996 1.492-.163 2.322-.718 3.137-1.48.696-.651 1.452-1.414 1.82-2.63l.762-2.595 2.13-1.564.198 3.283-.373 3.662-.885 4.053s-.631 2.036-1.42 2.775c0 0-1.326 1.6-3.036 2.34-1.315.994-2.74 2.59-3.795 3.873-1.956 1.933-3.477 1.578-5.998 1.443-2.02-.787-2.683-1.665-4.184-3.235l-2.325-2.14-1.906-1.742-1.195-1.158-1.408-1.828-.92-2.112-.376-1.777-.28-4.778z" fill="silver" stroke="#000" stroke-width=".455"/><path d="M285.81 176.07a3.905 4.389 0 01-3.888 4.389 3.905 4.389 0 01-3.923-4.35l3.906-.04z" fill="#fff" stroke="#000" stroke-opacity=".992" stroke-width=".515"/><path transform="matrix(-.01494 -.99989 .99909 -.04262 0 0)" d="M-175.92 292.99a3.372 2.498 0 01-3.352 2.498 3.372 2.498 0 01-3.391-2.47l3.371-.028z" fill="#f5d1a7" stroke="#000" stroke-opacity=".992" stroke-width=".451"/><path transform="matrix(.01494 -.99989 -.99909 -.04262 0 0)" d="M-151.91-270.22a3.372 2.498 0 01-3.352 2.498 3.372 2.498 0 01-3.391-2.47l3.371-.028z" fill="#f5d1a7" stroke="#000" stroke-opacity=".992" stroke-width=".451"/><path d="M267.73 163.49l-.14-13.389c.698-2.34 4.65-5.326 5.394-5.4l-.233 1.17c3.593-1.577 6.667-2.764 10.6-2.788l4.65.896s2.417-.174 2.51-.697c1.437 1.16 1.216 3.121 1.023 4.38 1.31.534 1.526.298 2.603-.796 2.41 1.286 1.891 3.793 1.581 7.665l-.372 8.66h-.674l-.628-3.21c-2.026-.967-1.877-3.928-2.231-5.948-4.626.624-8.602.758-13.111.597l-5.021-.298-1.232-.125c-.283 2.934-.237 5.214-2.883 6.073-.459 1.199-.72 2.24-.72 3.41z" fill="silver" stroke="#000" stroke-width=".455"/><path d="M281.77 167.3s.907 3.609.79 4.33c-.012.078-.116.488-.116.488s-.583-.123-.9-.118" fill="none" stroke="#000" stroke-width=".347"/><ellipse cx="286.66" cy="167.29" rx="1.742" ry="2.446" stroke="#000" stroke-opacity=".992" stroke-width=".311"/><ellipse cx="276.9" cy="167.29" rx="1.742" ry="2.446" stroke="#000" stroke-opacity=".992" stroke-width=".311"/><ellipse cx="286.73" cy="167.15" rx=".625" ry="1.038" fill="#fff" stroke="#fff" stroke-opacity=".992" stroke-width=".311"/><ellipse cx="276.97" cy="167.15" rx=".625" ry="1.038" fill="#fff" stroke="#fff" stroke-opacity=".992" stroke-width=".311"/><path d="M273.58 162.25h4.138c.25 0 .453.12.453.268 0 .148-.202.267-.453.267h-4.138c-.251 0-.453-.12-.453-.267 0-.149.202-.268.453-.268zm11.59 0h4.138c.25 0 .453.12.453.268 0 .148-.202.267-.453.267h-4.138c-.251 0-.453-.12-.453-.267 0-.149.202-.268.453-.268z" stroke="#000" stroke-opacity=".992" stroke-width=".311"/><path d="M267.64 165.18s2.197 1.21 3.249 3.04c0 0 .475 1.265.896 2.313.366.911 2.05 2.092 2.183 2.188 2.81.714 4.457-.812 7.657.018 0 0 1.427-.234 2.312-.307 1.282.423 3.524.996 3.524.996 1.492-.163 2.322-.718 3.137-1.48.696-.651 1.452-1.414 1.82-2.63l.762-2.595 2.13-1.564.198 3.283-.373 3.662-.885 4.053s-.631 2.036-1.42 2.775c0 0-1.326 1.6-3.036 2.34-1.315.994-2.74 2.59-3.795 3.873-1.956 1.933-3.477 1.578-5.998 1.443-2.02-.787-2.683-1.665-4.184-3.235l-2.325-2.14-1.906-1.742-1.195-1.158-1.408-1.828-.92-2.112-.376-1.777-.28-4.778z" fill="silver" stroke="#000" stroke-width=".455"/><g stroke="#000" stroke-opacity=".992"><path d="M76.369 94.961h20.446c1.85 0 3.34 1.49 3.34 3.34v11.226c0 1.85-1.49 3.34-3.34 3.34H76.369c-1.85 0-3.34-1.49-3.34-3.34V98.302c0-1.85 1.49-3.341 3.34-3.341z" fill="none" stroke-width="3" transform="matrix(.34791 0 0 .37246 245.78 128.33)"/><path d="M100.94 100.87h6.39v2.824h-6.39z" fill="#020201" stroke-width="1.116" transform="matrix(.34791 0 0 .37246 245.78 128.33)"/><path transform="matrix(.33105 -.11455 .05402 .36794 245.78 128.33)" d="M119.39 134.9h8.877v3.055h-8.877z" stroke-width="1.207"/><path transform="matrix(-.33456 -.10218 -.06099 .3667 245.78 128.33)" d="M-88.755 73.872h9.853v3.035h-9.853z" stroke-width="1.203"/><path d="M110.76 94.961h20.446c1.85 0 3.34 1.49 3.34 3.34v11.226c0 1.85-1.49 3.34-3.34 3.34H110.76c-1.85 0-3.34-1.49-3.34-3.34V98.302c0-1.85 1.49-3.341 3.34-3.341z" fill="none" stroke-width="3" transform="matrix(.34791 0 0 .37246 245.78 128.33)"/></g><path transform="matrix(-.01494 -.99989 .99909 -.04262 0 0)" d="M-175.92 292.99a3.372 2.498 0 01-3.352 2.498 3.372 2.498 0 01-3.391-2.47l3.371-.028z" fill="#f5d1a7" stroke="#000" stroke-opacity=".992" stroke-width=".451"/><path transform="matrix(.01494 -.99989 -.99909 -.04262 0 0)" d="M-151.91-270.22a3.372 2.498 0 01-3.352 2.498 3.372 2.498 0 01-3.391-2.47l3.371-.028z" fill="#f5d1a7" stroke="#000" stroke-opacity=".992" stroke-width=".451"/><path d="M267.73 163.49l-.14-13.389c.698-2.34 4.65-5.326 5.394-5.4l-.233 1.17c3.593-1.577 6.667-2.764 10.6-2.788l4.65.896s2.417-.174 2.51-.697c1.437 1.16 1.216 3.121 1.023 4.38 1.31.534 1.526.298 2.603-.796 2.41 1.286 1.891 3.793 1.581 7.665l-.372 8.66h-.674l-.628-3.21c-2.026-.967-1.877-3.928-2.231-5.948-4.626.624-8.602.758-13.111.597l-5.021-.298-1.232-.125c-.283 2.934-.237 5.214-2.883 6.073-.459 1.199-.72 2.24-.72 3.41z" fill="silver" stroke="#000" stroke-width=".455"/><path d="M284.57 175.2s-1.769-.15-3.9-.233c0 0-1.59.38-2.148 1.542a6.85 6.85 0 00-.707 2.61c2.072 2.901 2.298 2.498 4.769 2.604 1.52-.329 2.932-1.042 3.713-2.843-.446-2.323-1.727-3.68-1.727-3.68z" fill="#fff" stroke="#000" stroke-width=".703"/><g fill-rule="evenodd"><path d="M160.8 110.545c0 20.599 24.994 37.298 55.827 37.298s55.827-16.699 55.827-37.298-24.995-37.298-55.827-37.298c-30.833 0-55.827 16.699-55.827 37.298"/><path d="M237.129 132.362s3.688 12.126 9.415 17.29c5.726 5.165 10.19 6.176 10.19 6.176s-4.658-9.432-4.27-16.056c.388-6.624 1.262-7.186 2.62-9.993 1.36-2.806-3.784-4.154-9.317-4.603-5.532-.45-8.638 7.186-8.638 7.186" fill="#fff"/><path d="M165.71 111.125c0 19 23.055 34.401 51.493 34.401s51.492-15.402 51.492-34.401-23.054-34.402-51.492-34.402-51.492 15.402-51.492 34.402" fill="#fff"/><path d="M235.901 128.217s1.747 25.514 24.458 30.818c0 0-10.045-13.388-6.551-26.776 0 0-2.184 2.526-2.402 8.335-.218 5.81 1.747 10.61 2.839 12.63 0 0-9.39-6.062-13.321-13.64-3.93-7.578-5.023-11.367-5.023-11.367"/></g><path d="M140.447 202.07h.696l1.694 3.742v-3.742h.502v4.473h-.696l-1.694-3.742v3.742h-.502zm3.921 0h2.415v.51h-1.898v1.324h1.82v.509h-1.82v1.62h1.945v.51h-2.462zm2.975 0h.522l.804 3.78.8-3.78h.582l.803 3.78.801-3.78h.525l-.96 4.473h-.65l-.806-3.883-.814 3.883h-.65zm7.707.497v3.478h.624q.79 0 1.156-.42.369-.419.369-1.323 0-.9-.369-1.315-.366-.42-1.156-.42zm-.518-.497h1.062q1.11 0 1.63.542.52.54.52 1.69 0 1.156-.522 1.698t-1.628.542h-1.062zm4.034 0h2.416v.51h-1.899v1.324h1.82v.509h-1.82v1.62h1.945v.51h-2.462zm3.316 0h.517v3.963h1.86v.51h-2.377zm2.918 0h.517v1.833h1.879v-1.833h.517v4.473h-.517v-2.13h-1.879v2.13h-.517zm3.942 0h.517v4.473h-.517z" fill="red" aria-label="NEW DELHI"/><path d="M173.629 111.367v4.658h-1.838V104.49h4.226q.564 0 1.056.254.492.237.84.66.361.424.564 1 .217.576.217 1.22v.508q0 .643-.217 1.22-.203.558-.565.999-.347.423-.839.66t-1.056.238h-.492l3.343 4.776h-2.099zm0-4.861v2.727h2.098q.623 0 .912-.356t.29-1q0-.61-.29-.982-.29-.39-.912-.39zm6.081 3.964q0-.627.203-1.17.203-.558.536-.982t.767-.66q.434-.255.868-.255h1.65q.564 0 .998.288.45.271.738.712.304.423.464.965.173.525.173 1.034v2.185h-4.689v.457q0 .61.29.864t.767.254h3.372v1.897h-3.748q-.493 0-.927-.22-.434-.237-.767-.627-.318-.39-.506-.931t-.188-1.186zm1.723.508h2.996v-.085q0-.66-.29-1.084-.29-.44-.781-.44h-.898q-.231 0-.42.135-.188.118-.318.322t-.217.49q-.072.272-.072.577zm5.572-.848q.043-.542.202-1.033.174-.491.492-.864t.796-.593q.478-.237 1.1-.237h.868q.652 0 1.13.254.491.255.81.678.318.407.477.949.16.525.16 1.067v5.674h-4.11q-.478 0-.855-.203-.376-.22-.636-.559-.246-.356-.377-.83-.115-.474-.115-1.016 0-.525.13-.983t.376-.779q.246-.339.608-.525.376-.203.84-.203h2.474v-.17q0-.305-.043-.559-.044-.27-.16-.457t-.347-.288q-.231-.119-.622-.119h-.362q-.579 0-.825.204-.246.186-.333.593zm1.49 3.287q0 .44.145.66.16.204.347.204h2.388v-1.728h-2.388q-.188 0-.347.22-.145.22-.145.644zm8.73.66q.348 0 .594-.186.246-.203.318-.542h1.722q-.13 1.22-.81 1.948t-1.824.728h-.593q-.622 0-1.129-.22t-.854-.627q-.347-.423-.55-.999-.188-.593-.188-1.304v-2.321q0-.728.188-1.304.203-.576.55-.983t.854-.627q.507-.237 1.129-.237h.593q1.173 0 1.853.729t.781 1.999h-1.707q-.087-.373-.319-.576t-.608-.204h-.593q-.463 0-.767.356-.29.339-.29.898v2.202q0 .559.29.915.304.355.767.355zm6.343-4.743q-.377 0-.623.119-.231.102-.361.288t-.188.457q-.044.254-.044.56v5.267h-1.62V104.49h1.62v3.1q.217-.085.449-.136.246-.05.52-.05h.869q.637 0 1.114.253.492.255.81.678.334.407.493.949.159.525.159 1.067v5.674h-1.635v-5.268q0-.305-.044-.559-.043-.27-.188-.457-.13-.186-.362-.288-.231-.119-.607-.119zm4.157 1.136q0-.627.202-1.17.203-.558.536-.982t.767-.66q.434-.255.868-.255h1.65q.564 0 .999.288.448.271.738.712.304.423.463.965.173.525.173 1.034v2.185h-4.688v.457q0 .61.289.864t.767.254h3.372v1.897h-3.748q-.492 0-.927-.22-.434-.237-.767-.627-.318-.39-.506-.931t-.188-1.186zm1.722.508h2.996v-.085q0-.66-.29-1.084-.29-.44-.781-.44h-.898q-.231 0-.42.135-.187.118-.318.322t-.217.49q-.072.272-.072.577zm8.289 5.047q-.637 0-1.143-.22-.493-.22-.854-.627-.348-.423-.536-.999-.188-.593-.188-1.304v-2.321q0-.728.188-1.304t.536-.983q.361-.406.854-.627.506-.237 1.143-.237h.579q.608 0 1.1.204v-3.117h1.62v11.535zm1.679-1.948v-3.472q0-.56-.319-.898-.318-.356-.781-.356h-.58q-.462 0-.795.356-.319.339-.319.898v2.202q0 .559.319.915.333.355.796.355zm13.929-1.406q0 .695-.232 1.305-.217.61-.608 1.067t-.911.728q-.521.254-1.1.254h-.71q-.564 0-1.041-.237-.463-.237-.825-.643t-.579-.949q-.217-.559-.26-1.186h1.78q.086.424.303.729.232.288.637.288h.608q.26 0 .463-.119t.347-.322q.16-.203.247-.457.086-.271.086-.576v-8.063h1.795zm.894-2.541q.043-.542.202-1.033.174-.491.492-.864t.796-.593q.478-.237 1.1-.237h.868q.652 0 1.13.254.491.255.81.678.318.407.477.949.16.525.16 1.067v5.674h-4.11q-.478 0-.855-.203-.376-.22-.636-.559-.246-.356-.377-.83-.115-.474-.115-1.016 0-.525.13-.983t.376-.779q.246-.339.608-.525.376-.203.84-.203h2.474v-.17q0-.305-.043-.559-.044-.27-.16-.457t-.347-.288q-.231-.119-.622-.119h-.362q-.579 0-.825.204-.246.186-.333.593zm1.49 3.287q0 .44.145.66.159.204.347.204h2.388v-1.728h-2.388q-.188 0-.347.22-.145.22-.145.644zm7.446 2.608h-1.708v-8.622h1.708zm0-9.553h-1.708v-1.982h1.708zm4.414.931q.637 0 1.129.237.506.22.854.627.361.407.55.983t.188 1.304v2.32q0 .712-.188 1.305-.189.576-.55 1-.348.406-.854.626-.492.22-1.13.22h-.462q-.637 0-1.158-.237v3.185h-1.679v-11.57zm-1.62 1.948v3.456q0 .559.289.915t.752.355h.579q.463 0 .767-.355t.304-.915v-2.202q0-.56-.304-.898-.304-.356-.767-.356zm8.53 4.743q.362 0 .58-.101.23-.102.361-.271.145-.17.203-.407t.057-.508v-5.404h1.694v8.622h-1.694v-.22q-.231.119-.506.17-.26.05-.564.05h-.739q-.65 0-1.143-.254-.477-.254-.796-.66-.318-.424-.492-.949-.159-.542-.159-1.084v-5.675h1.679v5.268q0 .305.043.56t.174.457q.13.186.362.305.231.101.622.101zm5.862-4.929q.202-.39.535-.678.347-.304.752-.508.42-.203.883-.305t.926-.101h.189v2.1h-.189q-.52 0-1.07.254-.55.237-1.013.644-.45.39-.739.88-.275.492-.275.983v3.591h-1.794v-8.69h1.794z" aria-label="Reached Jaipur"/></g></svg>