<svg preserveAspectRatio="none" viewBox="0 0 508 285.75" xmlns="http://www.w3.org/2000/svg"><path fill="#fff" d="M0-8.511h511.76v303.35H0z"/><path d="M320.85 298.33c44.287 0 141.21-1.327 156.87-.653 30.738 4.548 70.346-.757 86.803 2.907.495-1.66-3.658-99.095-3.658-99.095l-193.03-1.66c-43.054-.357-55.508-.397-83.834-.024l-31.49-.6-41.696 5.419-78.43 4.317-141.85-8.192.58 96.258s57.401.717 96.291.77c37.86.05 47.392-.916 57.008-.916 31.854 0 162.01 1.468 176.44 1.468z" fill="#914e23"/><path d="M360.246 164.469h.041q.178-.676.363-1.34.191-.663.376-1.356h.834l-1.149 4.108h-.889l-1.19-4.108h.842zm3.084.718h2.32v.694h-3.201v-4.108h3.2v.693h-2.318v1.014h2.318v.687h-2.318zm3.855-1.997v2.69h-.835v-4.107h.835l1.58 2.714v-2.714h.814v4.108h-.814zm3.025-1.417h.868v4.108h-.869zm3.45 3.396q.2 0 .288-.103.096-.108.144-.26h.861q-.027.224-.13.423-.102.193-.273.338-.164.145-.397.23-.225.084-.485.084h-.589q-.273 0-.52-.09-.245-.097-.43-.26t-.294-.38q-.103-.217-.103-.465v-1.713q0-.247.103-.465.11-.223.294-.386t.43-.253q.247-.096.52-.096h.589q.266 0 .492.084t.39.235q.17.145.273.344t.13.428h-.861q-.034-.156-.13-.265t-.301-.109h-.575q-.239 0-.383.151-.136.151-.136.368v1.635q0 .217.136.374.144.15.383.15zm2.762.018h2.319v.694h-3.2v-4.108h3.2v.693h-2.319v1.014h2.319v.687h-2.319zm-14.952 7.323q.48-.32.924-.663.451-.344.862-.682.11-.09.184-.163.082-.078.13-.157t.069-.169q.027-.096.027-.235 0-.096-.041-.187-.041-.096-.123-.163-.075-.066-.178-.102-.096-.043-.205-.043h-.383q-.116 0-.219.043-.103.036-.178.102t-.123.163q-.04.09-.04.187v.145h-.753v-.266q0-.223.096-.416.095-.199.26-.344.17-.144.39-.229.225-.084.478-.084h.595q.253 0 .472.084.226.085.39.23t.26.343q.095.193.095.416v.09q0 .182-.02.333-.014.15-.069.29-.054.132-.164.259-.102.12-.266.26-.39.33-.821.657-.424.32-.862.597h2.12v.615h-2.906zm5.344-3.221q.26 0 .492.09t.404.242q.178.15.273.356.103.205.103.44v1.882q0 .23-.103.434-.095.206-.273.356-.171.151-.404.242t-.492.09h-.698q-.26 0-.492-.09t-.404-.242-.273-.356q-.096-.205-.096-.434v-1.882q0-.235.096-.44.102-.205.273-.356t.404-.242.492-.09zm.479 1.249q0-.103-.048-.193-.041-.097-.123-.17-.076-.072-.178-.108-.103-.042-.226-.042h-.506q-.123 0-.226.042-.102.036-.184.109-.076.072-.124.169-.04.09-.04.193v1.634q0 .103.04.2.048.096.124.168.082.067.184.109.103.036.226.036h.506q.123 0 .226-.036.102-.042.178-.109.082-.072.123-.169.048-.096.048-.199zm3.287-1.249q.26 0 .493.09t.403.242q.178.15.274.356.103.205.103.44v1.882q0 .23-.103.434-.096.206-.274.356-.17.151-.403.242t-.493.09h-.697q-.26 0-.493-.09t-.403-.242-.274-.356q-.095-.205-.095-.434v-1.882q0-.235.095-.44.103-.205.274-.356t.403-.242.493-.09zm.48 1.249q0-.103-.049-.193-.04-.097-.123-.17-.075-.072-.178-.108-.102-.042-.225-.042h-.506q-.123 0-.226.042-.103.036-.185.109-.075.072-.123.169-.04.09-.04.193v1.634q0 .103.04.2.048.096.123.168.082.067.185.109.103.036.226.036h.506q.123 0 .225-.036.103-.042.178-.109.082-.072.123-.169.048-.096.048-.199zm3.145 1.743h.047l.37-1.478q.191-.742.376-1.484h.978v4.102h-.67v-2.666h-.041q-.165.67-.342 1.339-.178.664-.335 1.327l-.746.006-.636-2.666h-.048v2.66h-.677v-4.102h.978z" fill="#fff" aria-label="VENICE 200M"/><path d="M-18.529 212.453h594.477v-9.837H-18.529v9.837" fill="#547429"/><path d="M575.913 204.72l-1.372-23.063-1.168 14.688-.557-20.455-1.486 23.616-.867-10.473-1.053 10.569-1.239-18.263-1.052 17.6-.867-7.644-.743 7.425-.867-2.334-.618 2.757-1.55-14.853-1.3 14.216-.743-7.424-2.23 7.21-1.795-21.641-.99 17.823-1.487-8.698-1.858 11.243-1.486-26.382-2.415 34.083h27.743" fill="#547429"/><path d="M547.928 190.339l-.798 13.158-1.717-16.604-1.228 11.14-.49-2.838-1.165 3.886-1.288-17.865-1.105 18.287-.737-9.164-1.287 9.164-.86-13.033-1.288 13.033-.92-7.145-1.043 7.145-1.534-16.394-1.227 16.603-1.165-9.374-.736 8.953-1.166-4.622-1.595 5.466-1.044-17.66-1.963 21.021 25.384 1.323-1.028-14.482" fill="#547429"/><path d="M524.686 204.72l-1.373-23.063-1.167 14.688-.557-20.455-1.486 23.616-.867-10.473-1.053 10.569-1.238-18.263-1.053 17.6-.866-7.644-.744 7.425-.867-2.334-.62 2.757-1.547-14.853-1.3 14.216-.744-7.424-2.229 7.21-1.796-26.733-.99 22.915-1.486-8.698-1.859 11.243-1.486-16.197-2.415 23.898h27.743" fill="#547429"/><path d="M496.582 190.339l-.797 13.158-1.718-16.604-1.227 11.14-.49-2.838-1.166 3.886-1.288-17.865-1.105 18.287-.736-9.164-1.288 9.164-.86-13.033-1.288 13.033-.92-7.145-1.042 7.145-1.535-16.394-1.226 16.603-1.166-9.374-.736 8.953-1.165-4.622-1.595 5.466-1.044-17.66-1.963 21.021 25.383 1.323-1.028-14.482" fill="#547429"/><path d="M473.34 204.72l-1.371-23.063-1.167 14.688-1.3-23-.743 26.163-.868-10.474-1.052 10.57-1.239-18.263-1.053 17.599-.866-7.644-.743 7.426-.867-2.335-.62 2.757-1.548-14.853-1.3 14.217-.744-7.425-2.228 7.211-1.796-21.642-.992 17.823-1.486-8.698-1.857 11.244-1.487-16.198-2.414 23.898h27.741" fill="#547429"/><path d="M445.356 190.339l-.798 13.158-1.718-16.604-1.227 11.14-.49-2.838-1.166 3.886-1.288-17.865-1.105 18.287-.736-9.164-1.288 9.164-.859-13.033-1.288 13.033-.92-7.145-1.043 7.145-1.534-16.394-1.227 16.603-1.166-9.374-.736 8.953-1.165-4.622-1.595 5.466-1.043-17.66L421 203.497l25.383 1.323-1.027-14.482" fill="#547429"/><path d="M422.114 204.72l-1.372-23.063-1.167 14.688-.557-20.455-1.486 23.616-.868-10.473-1.052 10.569-1.238-18.263-1.054 17.6-.866-7.644-.743 7.425-.867-2.334-.62 2.757-1.548-17.4-1.3 16.763-.743-7.424-2.23 7.21-1.795-21.641-.992 17.823-1.486-8.698-1.857 11.243-1.486-16.197-2.415 23.898h27.742" fill="#547429"/><path d="M394.13 190.339l-.798 13.158-1.718-16.604-1.227 11.14-1.233-5.384-.423 6.432-1.288-17.865-1.105 18.287-.736-9.164-1.288 9.164-.859-13.033-1.288 13.033-.92-7.145-1.043 7.145-1.534-16.394-1.227 16.603-1.166-9.374-.736 8.953-1.166-4.622-1.594 5.466-1.043-17.66-1.964 21.021 25.382 1.323-1.027-14.482" fill="#547429"/><path d="M370.77 204.72l-1.373-23.063-1.167 14.688-.557-20.455-1.487 23.616-.867-10.473-1.052 10.569-1.239-18.263-1.053 17.6-.867-7.644-.743 7.425-.867-2.334-.618 2.757-1.55-14.853-1.3 14.216-1.486-9.97-1.486 9.757-1.796-21.642-.99 17.823-1.487-8.698-1.857 11.243-1.486-16.197-2.416 23.898h27.743" fill="#547429"/><path d="M342.784 190.339l-.798 13.158-1.717-16.604-1.227 11.14-.49-2.838-1.167 3.886-1.288-17.865-1.104 18.287-.737-9.164-1.287 9.164-.86-13.033-1.287 13.033-.921-7.145-1.043 7.145-1.534-16.394-1.226 16.603-1.167-9.374-.735 8.953-1.166-4.622-1.595 5.466-1.043-17.66-1.963 21.021 25.382 1.323-1.027-14.482" fill="#547429"/><path d="M319.543 204.72l-1.373-23.063-1.167 14.688-.557-20.455-1.486 23.616-.867-10.473-1.053 10.569-1.239-18.263-1.053 17.6-.866-7.644-.743 7.425-.868-2.334-.619 2.757-1.548-14.853-1.3 14.216-.743-7.424-2.23 7.21-1.795-21.641-.991 17.823-1.486-8.698-1.858 11.243-1.486-16.197-2.415 23.898h27.743" fill="#547429"/><path d="M291.558 190.339l-.798 13.158-1.717-16.604-1.228 11.14-.49-2.838-1.166 3.886-1.287-17.865-1.105 18.287-.737-9.164-1.287 9.164-.86-13.033-1.288 13.033-.92-7.145-1.043 7.145-1.534-16.394-1.226 16.603-1.165-9.374-.738 8.953-1.165-4.622-1.595 5.466-1.043-17.66-1.963 21.021 25.382 1.323-1.028-14.482" fill="#547429"/><path d="M268.316 204.72l-1.371-23.063-1.168 14.688-.557-20.455-1.487 23.616-.867-10.473-1.052 10.569-1.24-18.263-1.052 17.6-.866-7.644-.743 7.425-.868-2.334-.619 2.757-1.548-14.853-1.3 14.216-.744-7.424-2.229 7.21-1.795-21.641-.992 17.823-1.485-8.698-1.858 11.243-1.486-16.197-2.416 23.898h27.743" fill="#547429"/><path d="M240.213 190.339l-.797 13.158-1.719-16.604-1.226 11.14-.49-2.838-1.167 3.886-1.288-17.865-1.104 18.287-.736-9.164-1.29 9.164-.858-13.033-1.287 13.033-.92-7.145-1.045 7.145-1.534-16.394-1.225 16.603-1.166-9.374-.736 8.953-1.166-4.622-1.596 5.466-1.042-17.66-1.964 21.021 25.382 1.323-1.027-14.482" fill="#547429"/><path d="M216.97 204.72l-1.371-23.063-1.168 14.688-.557-20.455-1.486 23.616-.867-10.473-1.052 10.569-1.24-18.263-1.052 17.6-.866-7.644-.744 7.425-.867-2.334-.619 2.757-1.548-14.853-1.3 14.216-.744-7.424-2.229 7.21-1.796-21.641-.99 17.823-1.487-8.698-1.858 11.243-1.486-16.197-2.415 23.898h27.743" fill="#547429"/><path d="M188.986 190.339l-.797 13.158-1.718-16.604-1.226 11.14-.491-2.838-1.166 3.886-1.288-17.865-1.104 18.287-.736-9.164-1.29 9.164-.858-13.033-1.287 13.033-.921-7.145-1.043 7.145-1.535-16.394-1.225 16.603-1.166-9.374-.737 8.953-1.166-4.622-1.594 5.466-1.043-17.66-1.964 21.021 25.382 1.323-1.028-14.482" fill="#547429"/><path d="M165.744 204.72l-1.371-23.063-1.168 14.688-.557-20.455-1.486 23.616-.868-10.473-1.051 10.569-1.24-18.263-1.052 17.6-.867-7.644-.743 7.425-.867-2.334-.619 2.757-1.548-14.853-1.301 14.216-.743-7.424-2.229 7.21-1.796-21.641-.99 17.823-1.487-8.698-1.858 11.243-1.486-16.197-2.415 23.898h27.742" fill="#547429"/><path d="M137.76 190.339l-.797 13.158-1.718-16.604-1.227 11.14-.49-2.838-1.167 3.886-1.288-17.865-1.104 18.287-.736-9.164-1.289 9.164-.86-13.033-1.287 13.033-.92-7.145-1.043 7.145-1.534-16.394-1.226 16.603-1.166-9.374-.736 8.953-1.166-4.622-1.595 5.466-1.043-17.66-1.964 21.021 25.383 1.323-1.027-14.482" fill="#547429"/><path d="M114.518 204.72l-1.372-23.063-1.168 14.688-.557-20.455-1.486 23.616-.867-10.473-1.052 10.569-1.239-18.263-1.053 17.6-.867-7.644-.743 7.425-.867-2.334-.619 2.757-1.548-14.853-1.3 14.216-.744-7.424-2.23 7.21-1.794-21.641-.991 17.823-1.487-8.698-1.857 11.243-1.487-16.197-2.415 23.898h27.743" fill="#547429"/><path d="M86.414 190.339l-.796 13.158-1.719-16.604-1.226 11.14-.49-2.838-1.167 3.886-1.288-17.865-1.105 18.287-.735-9.164-1.29 9.164-.859-13.033-1.287 13.033-.92-7.145-1.043 7.145-1.534-16.394-1.227 16.603-1.165-9.374-.737 8.953-1.165-4.622-1.595 5.466-1.044-17.66-1.963 21.021 25.382 1.323-1.027-14.482" fill="#547429"/><path d="M63.173 204.72L61.8 181.657l-1.168 14.688-.557-20.455-1.487 23.616-.867-10.473-1.052 10.569-1.238-18.263-1.053 17.6-.867-7.644-.743 7.425-.867-2.334-.619 2.757-1.549-14.853-1.3 14.216-.743-7.424-2.23 7.21-1.794-21.641-.992 17.823-1.486-8.698-1.858 11.243-1.486-16.197-2.415 23.898h27.743" fill="#547429"/><path d="M35.188 190.339l-.797 13.158-1.719-16.604-1.226 11.14-.49-2.838-1.167 3.886-1.288-17.865-1.104 18.287-.736-9.164-1.29 9.164-.858-13.033-1.288 13.033-.92-7.145-1.043 7.145-1.534-16.394-1.227 16.603-1.165-9.374-.737 8.953-1.165-4.622-1.595 5.466-1.043-17.66-1.964 21.021 25.384 1.323-1.028-14.482" fill="#547429"/><path d="M-18.529 196.715l2.184-10.82 1.396 13.004 1.561-12.95 1.487 11.03 1.857-6.152 1.487 6.152.99-15.276 1.796 16.55 1.486-9.757 1.487 9.97 1.3-14.216 1.549 14.853.619-2.757.867 2.335.743-7.425.866 7.643L4.2 181.3l1.239 18.265 1.052-10.567.867 10.478 1.486-23.607.558 20.474 1.167-14.725 1.372 23.062h-30.47v-7.963" fill="#547429"/><path d="M575.913 217.337H-18.565V207.5h594.478v9.837" fill="#72b32d"/><path d="M-18.529 209.604l1.371-22.976 1.168 14.731.557-20.433 1.486 23.626.868-10.467 1.052 10.572 1.239-18.263 1.052 17.6.867-7.643.743 7.424.867-2.334.62 2.758 1.548-14.853 1.3 14.217.744-7.424 2.229 7.21 1.795-21.642.991 17.823 1.486-8.697 1.858 11.243 1.486-26.469 2.416 33.996H-18.53" fill="#72b32d"/><path d="M9.456 195.494l.797 13.159 1.718-16.605 1.226 11.14.491-2.837 1.166 3.886 1.288-17.865 1.105 18.288.735-9.165 1.29 9.165.858-13.034 1.288 13.034.92-7.146 1.044 7.146 1.534-16.396 1.226 16.605 1.166-9.374.736 8.954 1.166-4.623 1.594 5.466 1.043-17.659 1.964 21.021-25.383 1.322 1.027-14.481" fill="#72b32d"/><path d="M32.698 209.604l1.37-22.976 1.169 14.731.557-20.433 1.486 23.626.867-10.467 1.052 10.572 1.239-18.263 1.053 17.6.867-7.643.743 7.424.867-2.334.62 2.758 1.547-14.853 1.3 14.217.744-7.424 2.23 7.21 1.794-26.734.992 22.915 1.486-8.697 1.858 11.243 1.486-16.284 2.415 23.811H32.697" fill="#72b32d"/><path d="M60.801 195.494l.797 13.159 1.718-16.605 1.226 11.14.491-2.837 1.166 3.886 1.288-17.865 1.105 18.288.736-9.165 1.289 9.165.859-13.034 1.287 13.034.92-7.146 1.044 7.146 1.534-16.396 1.226 16.605 1.165-9.374.737 8.954 1.166-4.623 1.594 5.466 1.044-17.659 1.963 21.021-25.382 1.322 1.027-14.481" fill="#72b32d"/><path d="M84.043 209.604l1.372-22.976 1.167 14.731 1.3-22.978.743 26.172.867-10.467 1.053 10.572 1.239-18.263 1.053 17.6.866-7.643.743 7.425.867-2.334.62 2.757 1.548-14.853 1.3 14.217.743-7.424 2.23 7.21 1.795-21.642.991 17.823 1.487-8.697 1.857 11.244 1.486-16.285 2.415 23.812H84.042" fill="#72b32d"/><path d="M112.028 195.494l.797 13.159 1.718-16.605 1.226 11.14.491-2.837 1.166 3.886 1.288-17.865 1.105 18.288.736-9.165 1.288 9.165.86-13.034 1.287 13.034.92-7.146 1.044 7.146 1.534-16.396 1.226 16.605 1.165-9.374.737 8.954 1.166-4.623 1.595 5.466 1.042-17.659 1.964 21.021-25.384 1.322 1.028-14.481" fill="#72b32d"/><path d="M135.27 209.604l1.37-22.976 1.168 14.731.558-20.433 1.486 23.626.867-10.467 1.052 10.572 1.239-18.263 1.053 17.6.866-7.643.743 7.424.868-2.334.618 2.758 1.549-17.4 1.3 16.764.744-7.424 2.228 7.21 1.796-21.642.991 17.823 1.487-8.697 1.857 11.243 1.486-16.284 2.415 23.811H135.27" fill="#72b32d"/><path d="M163.254 195.494l.797 13.159 1.718-16.605 1.226 11.14 1.234-5.383.423 6.432 1.288-17.865 1.105 18.288.736-9.165 1.289 9.165.859-13.034 1.287 13.034.92-7.146 1.043 7.146 1.535-16.396 1.226 16.605 1.166-9.374.736 8.954 1.166-4.623 1.594 5.466 1.043-17.659 1.964 21.021-25.384 1.322 1.029-14.481" fill="#72b32d"/><path d="M186.496 209.604l1.371-22.976 1.168 14.731.557-20.433 1.486 23.626.867-10.467 1.053 10.572 1.238-18.263 1.053 17.6.867-7.643.743 7.424.867-2.334.62 2.758 1.548-14.853 1.3 14.217 1.486-9.97 1.487 9.756 1.795-21.642.99 17.823 1.488-8.697 1.857 11.243 1.486-16.284 2.415 23.811h-27.743" fill="#72b32d"/><path d="M214.6 195.494l.796 13.159 1.719-16.605 1.226 11.14.49-2.837 1.166 3.886 1.289-17.865 1.104 18.288.736-9.165 1.289 9.165.859-13.034 1.287 13.034.92-7.146 1.044 7.146 1.534-16.396 1.226 16.605 1.166-9.374.737 8.954 1.165-4.623 1.595 5.466 1.042-17.659 1.964 21.021-25.383 1.322 1.028-14.481" fill="#72b32d"/><path d="M237.84 209.604l1.372-22.976 1.168 14.731.557-20.433 1.486 23.626.868-10.467 1.052 10.572 1.238-18.263 1.053 17.6.867-7.643.743 7.424.867-2.334.619 2.758 1.549-14.853 1.3 14.217.743-7.424 2.23 7.21 1.795-21.642.991 17.823 1.486-8.697 1.858 11.243 1.486-16.284 2.415 23.811H237.84" fill="#72b32d"/><path d="M265.826 195.494l.797 13.159 1.718-16.605 1.227 11.14.49-2.837 1.167 3.886 1.287-17.865 1.105 18.288.736-9.165 1.288 9.165.86-13.034 1.287 13.034.92-7.146 1.044 7.146 1.534-16.396 1.226 16.605 1.165-9.374.737 8.954 1.166-4.623 1.594 5.466 1.043-17.659 1.964 21.021-25.383 1.322 1.027-14.481" fill="#72b32d"/><path d="M289.067 209.604l1.372-22.976 1.168 14.731.557-20.433 1.487 23.626.866-10.467 1.053 10.572 1.239-18.263 1.053 17.6.866-7.643.743 7.424.868-2.334.619 2.758 1.548-14.853 1.3 14.217.743-7.424 2.23 7.21 1.795-21.642.991 17.823 1.487-8.697 1.857 11.243 1.486-16.284 2.415 23.811h-27.743" fill="#72b32d"/><path d="M317.17 195.494l.797 13.159 1.719-16.605 1.226 11.14.49-2.837 1.167 3.886 1.289-17.865 1.104 18.288.735-9.165 1.289 9.165.86-13.034 1.287 13.034.92-7.146 1.043 7.146 1.534-16.396 1.227 16.605 1.165-9.374.737 8.954 1.165-4.623 1.595 5.466 1.043-17.659 1.963 21.021-25.383 1.322 1.028-14.481" fill="#72b32d"/><path d="M340.413 209.604l1.37-22.976 1.168 14.731.557-20.433 1.487 23.626.867-10.467 1.052 10.572 1.238-18.263 1.054 17.6.866-7.643.743 7.424.867-2.334.62 2.758 1.548-14.853 1.3 14.217.743-7.424 2.23 7.21 1.795-21.642.992 17.823 1.485-8.697 1.858 11.243 1.487-16.284 2.414 23.811h-27.742" fill="#72b32d"/><path d="M368.397 195.494l.797 13.159 1.719-16.605 1.226 11.14.49-2.837 1.167 3.886 1.288-17.865 1.104 18.288.736-9.165 1.29 9.165.858-13.034 1.287 13.034.921-7.146 1.043 7.146 1.534-16.396 1.226 16.605 1.167-9.374.736 8.954 1.165-4.623 1.595 5.466 1.043-17.659 1.963 21.021-25.382 1.322 1.028-14.481" fill="#72b32d"/><path d="M391.64 209.604l1.37-22.976 1.168 14.731.558-20.433 1.486 23.626.867-10.467 1.052 10.572 1.239-18.263 1.052 17.6.867-7.643.743 7.424.867-2.334.62 2.758 1.548-14.853 1.3 14.217.743-7.424 2.23 7.21 1.795-21.642.991 17.823 1.487-8.697 1.857 11.243 1.487-16.284 2.414 23.811H391.64" fill="#72b32d"/><path d="M419.624 195.494l.796 13.159 1.719-16.605 1.226 11.14.49-2.837 1.167 3.886 1.288-17.865 1.104 18.288.736-9.165 1.289 9.165.86-13.034 1.286 13.034.921-7.146 1.043 7.146 1.534-16.396 1.226 16.605 1.167-9.374.736 8.954 1.165-4.623 1.595 5.466 1.043-17.659 1.963 21.021-25.382 1.322 1.029-14.481" fill="#72b32d"/><path d="M442.866 209.604l1.37-22.976 1.169 14.731.557-20.433 1.486 23.626.868-10.467 1.052 10.572 1.239-18.263 1.052 17.6.867-7.643.743 7.424.867-2.334.619 2.758 1.549-14.853 1.3 14.217.743-7.424 2.23 7.21 1.795-21.642.991 17.823 1.486-8.697 1.858 11.243 1.486-16.284 2.415 23.811h-27.742" fill="#72b32d"/><path d="M470.97 195.494l.796 13.159 1.718-16.605 1.227 11.14.49-2.837 1.166 3.886 1.288-17.865 1.104 18.288.737-9.165 1.288 9.165.86-13.034 1.287 13.034.92-7.146 1.044 7.146 1.534-16.396 1.226 16.605 1.166-9.374.736 8.954 1.166-4.623 1.595 5.466 1.042-17.659 1.964 21.021-25.383 1.322 1.028-14.481" fill="#72b32d"/><path d="M494.21 209.604l1.373-22.976 1.167 14.731.557-20.433 1.487 23.626.867-10.467 1.052 10.572 1.239-18.263 1.053 17.6.866-7.643.743 7.424.867-2.334.62 2.758 1.548-14.853 1.3 14.217.743-7.424 2.23 7.21 1.795-21.642.991 17.823 1.486-8.697 1.859 11.243 1.486-16.284 2.415 23.811H494.21" fill="#72b32d"/><path d="M522.196 195.494l.797 13.159 1.718-16.605 1.227 11.14.49-2.837 1.166 3.886 1.288-17.865 1.105 18.288.735-9.165 1.289 9.165.86-13.034 1.287 13.034.92-7.146 1.044 7.146 1.534-16.396 1.226 16.605 1.165-9.374.737 8.954 1.165-4.623 1.596 5.466 1.042-17.659 1.964 21.021-25.382 1.322 1.027-14.481" fill="#72b32d"/><path d="M575.913 201.871l-2.185-10.821-1.395 13.004-1.561-12.95-1.487 11.03-1.859-6.15-1.485 6.15-.992-15.276-1.795 16.549-1.486-9.757-1.486 9.97-1.301-14.216-1.548 14.853-.62-2.758-.866 2.334-.744-7.424-.866 7.643-1.053-17.599-1.24 18.265-1.05-10.567-.868 10.478-1.486-23.605-.557 20.473-1.168-14.813-1.371 22.976h30.469v-7.79" fill="#72b32d"/><g fill-rule="evenodd"><path d="M60.847 199.999c-5.922-21.407-13.206-42.061-18.613-62.929-2.012-7.76-3.765-15.549-5.093-23.417l5.417 4.672-5.677-6.247c-.946-5.866-1.649-11.778-2.043-17.755-.07-1.096-.141-2.188-.206-3.277l7.968 9.252-8.201-13.27c-1.027-18.32-1.485-35.814-3.977-54.521 11.04 17.13 20.157 24.69 17.156 44.468l5.168-7.919c3.844 26.148 11.093 52.482 2.075 76.643-6.61 17.71 3.248 37.894 10.997 59.766l-4.97-5.468" fill="#a0ba2c"/><path d="M56.342 200.46c-5.482-17.748-11.058-46.134-23.502-60.622-1.71-1.992-3.41-4.012-5.03-6.062-3.049-3.866-5.815-7.85-7.848-11.993-4.49-9.17-5.22-18.748-4.252-31.326 5.104 18.287 21.122 31.075 25.599 47.698 5.76 21.4 11.31 53.747 22.265 68.381H60.13l-3.788-6.075" fill="#68a729"/><path d="M58.07 202.698c-1.123-19.858-5.252-36.121-9.314-55.54-2.29-10.945-2.983-21.258-2.048-33.997l4.132 15.669-1.722-15.989c4.604-11.492 8.88-17.618 17.217-27.18l1.377 11.512.345-12.152c15.394-16.976 30.134-19.687 53.375-22.385L101.46 84.062l-9.987 4.157 8.61-.32c-5.436 9.331-10.886 18.583-15.84 28.14l-14.464 4.797H80.11l-3.098 6.716-3.788 9.273-11.366 10.553 7.577-3.198c-11.207 13.245-11.047 16.089-8.953 33.256l2.755 22.065 1.722 21.105-10.676-.639 3.788-17.268" fill="#86af20"/><path d="M67.892 105.147c9.877-14.842 16.099-22.657 30.8-33.369-9.554 7.8-15.827 13.519-22.65 23.418l14.436-.537-15.399 2.265-5.39 7.27 13.088-.478-13.347 1.67-3.527 6.553 12.255.358-13.09.953c-1.914 4.131-3.412 8.263-4.3 12.395l11.743-2.384-12.382 3.635c-7.615 23.259-2.354 53.358 2.887 77.401l-2.31 4.53c-4.983-33.58-12.101-73.837 7.186-103.681" fill="#98b41b"/><path d="M51.235 223.371l1.666-22.267-3.443-13.431-4.822-13.11-3.788-5.437-4.822 5.756c-12.311-1.09-17.242 6.342-25.824 14.07-4.838-4.99-7.926-.11-2.066 3.518-8.716 6.296-10.708 13.98-15.153 23.344-9.546-15.318-13.697-39.62 2.859-54.842 17.069-15.696 38.195-19.655 48.448 2.397l2.067 5.117 18.407 54.885h-13.53" fill="#739836"/><path d="M38.952 155.126a28.307 28.307 0 011.965 2.432c-8.282-3.15-15.586-3.155-21.909-.875-1.75 6.26-1.077 10.728-.395 18.793-2.142-7.12-1.967-11.2-.992-18.253a29.09 29.09 0 00-4.338 2.294c-1.652 5.624-.989 9.721-.316 17.032-2.06-6.302-1.978-10.02-1.1-16.07a35.443 35.443 0 00-4.215 3.584c-1.509 5.353-.86 9.375-.204 16.418-1.95-5.886-1.98-9.486-1.234-14.917-9.03 9.916-14.579 25.588-16.604 41.373 1.444-27.16 16.22-60.596 49.342-51.811" fill="#829f2e"/><path d="M59.433 205.252c9.022-26.814 15.039-67.238 38.567-85.063v2.879c9.456-7.463 18.062-7.115 30.305-8.954l-7.576 8.315 9.641-8.954c28.825 5.537 34.686 21.326 45.11 43.81l-17.56-13.112-7.234-9.593 2.067 8.633-10.675-.319-11.363-11.512 5.165 8.635c-16.42 6.777-29.718 8.996-45.11 18.227l-5.166-4.158v6.396c-11.423 7.258-15.844 20.295-17.84 32.067 3.118-4.74 5.707-7.134 9.848-9.44 2.85-1.588 5.303-2.444 7.712-2.874 10.85-1.936 17.306 1.618 21.901 7.822 5.835 7.873 5.555 14.628 15.84 6.94-8.04 11.905-23.527 8.957-32.202-2.494-2.683-3.54-5.453-7.402-7.975-9.468-.928-.759-2.206-.237-5.252 1.565-3.252 1.924-4.42 4.176-5.72 8.053l2.668-1.474c-3.569 11.603-.587 21.314 2.985 32.182H59.434v-18.11" fill="#7aa32e"/><path d="M65.325 187.62c11.43-37.633 42.062-80.16 92.655-55.059-13.326-6.37-25.481-7.948-36.38-5.967 4.266 5.01 8.373 9.684 11.829 14.424l-.157.06a201.347 201.347 0 00-13.735-14.065 50.818 50.818 0 00-10.14 3.466c6.085 4.524 10.306 8.233 14.967 13.858l-.09.03c-4.991-5.383-9.58-9.788-16.539-13.087-4.384 2.211-8.508 5.03-12.362 8.347 5.257 2.717 9.384 5.553 14.097 9.142-5.092-3.064-9.791-5.752-15.268-8.113-10.87 9.77-19.53 23.51-25.796 38.622l-3.08 8.342" fill="#86af20"/></g><path d="M159.32 240.526a1.597 1.597 0 01-.828.542c-.46.137-1.124-.057-1.602-.082l-2.06-.101.003-38.029 4.952.247v.044c0 5.66 0 11.321-.002 16.98l-.001 12.19v4.818c0 1.235.156 2.604-.462 3.39" fill="#916a3b"/><path d="M158.958 241.097l-4.952-.247.003-38.029 4.953.246-.004 38.029" fill="#d9a272"/><path d="M156.298 240.907c.278-1.347.306-2.646.413-4.012.042-.532.035-1.155.055-1.76.02-.604.068-1.188.206-1.63l-.103-.06-.103.055c.025.076.05.153.072.23.327 1.089.441 2.272.532 3.466.091 1.195.16 2.4.407 3.533l.107-.036-.11-.032-.004.04c0 .016-.004.029.008.078a.15.15 0 00.057.083.09.09 0 00.091.008c.024-.012.032-.023.04-.03.021-.03.024-.04.032-.058l.029-.066.01-.02-.004-.003.003.002-.002-.003.003.003-.067-.072.052.09.015-.018-.067-.072.052.09-.138-.237c-.019.02-.023.03-.029.04-.017.03-.028.06-.04.087l-.012.028.046.047-.042-.053-.005.008.047.045-.042-.053.075.095-.038-.126c-.028.015-.032.026-.037.031l.075.095-.038-.126.041.136.047-.128a.088.088 0 00-.088-.008l.041.136.047-.128-.047.128.102-.049a.147.147 0 00-.055-.079l-.047.128.102-.049-.085.04.092.014c-.001-.005.004-.009-.007-.054l-.085.04.092.014-.015-.002.015.002-.016-.003.015.003.002-.01.005-.035-.007-.034c-.24-1.092-.308-2.28-.4-3.48-.091-1.198-.205-2.409-.546-3.546l-.075-.24-.108-.323-.098.317c-.156.5-.202 1.11-.222 1.726-.02.615-.014 1.236-.055 1.743-.107 1.38-.136 2.66-.407 3.966l.216.087" fill="#e3be9d"/><path d="M155.364 240.226h-.068c-.006 0-.015 0-.034.01a.123.123 0 00-.063.078.196.196 0 000 .112.135.135 0 00.017.04l.009.014.194.292v-.381c-.001-1.338.207-2.54.325-3.883.073-.858-.012-1.7.08-2.506.079-.72.317-1.43.343-2.227.032-1.067.098-2.01.2-3.094.095-1.038.416-2.033.34-3.197l-.112.007-.109.028c.536 3.073.642 6.221 1.496 9.15.264.898.19 1.824.26 2.836.068.907.274 1.664.275 2.58l.224.01c-.004-.975-.215-1.747-.275-2.607-.073-.971.01-1.93-.275-2.915-.838-2.867-.947-6-1.487-9.11l-.22.036c.075 1.073-.235 2.045-.34 3.135a47.443 47.443 0 00-.2 3.118c-.02.725-.253 1.425-.341 2.196-.096.861-.01 1.706-.082 2.515-.115 1.323-.326 2.538-.325 3.917l.111.005.083-.094-.032.037.034-.034-.002-.003-.032.037.034-.034-.08.079.094-.045-.014-.034-.08.079.094-.045-.102.048.102.06a.186.186 0 000-.108l-.102.048.102.06-.102-.06.04.137a.12.12 0 00.062-.077l-.102-.06.04.137-.037-.127.009.135.029-.009-.038-.127.009.135-.006-.084.001.084h.005l-.006-.084v.085c.003 0 .036.003.076 0l-.023-.294" fill="#e3be9d"/><path d="M154.397 240.563c.406-1.34.264-3.175.264-4.585-.003-1.882.012-3.777-.106-5.695-.122-1.93.575-4.398.997-6.268.244-1.085.44-2.207.55-3.34.073-.778-.02-1.645.134-2.33l-.107-.046-.11.028c.4 2.296 1.017 4.831 1.7 7.11.06.202.121.403.183.602l.026.085c.186.619.37 1.489.406 2.118.035.58-.111 1.245-.086 1.952.044 1.211.112 2.125.343 3.256l.216-.066c-.226-1.105-.291-1.987-.336-3.193-.026-.643.121-1.304.086-1.96-.04-.68-.228-1.56-.421-2.206l-.027-.089a62.005 62.005 0 01-.183-.599 63.218 63.218 0 01-1.688-7.066l-.097-.555-.12.537c-.17.773-.069 1.653-.14 2.374a27.05 27.05 0 01-.543 3.295c-.416 1.86-1.13 4.338-1.006 6.374.117 1.9.102 3.787.105 5.671.005 1.43.132 3.242-.248 4.477l.208.118" fill="#e3be9d"/><path d="M154.802 220.174c-.031-1.442.377-2.9.523-4.384.062-.644.062-1.56.14-2.419.078-.86.243-1.65.588-2.032l-.074-.113-.089.084c.183.326.333.546.455.752.121.207.216.4.305.692.03.102.06.215.088.345.188.85.392 1.645.556 2.503.13.689.265 1.392.39 2.08.046.258.065.601.087.939.023.338.049.67.126.93l.013.04.204-.11-.01-.03c-.06-.196-.089-.513-.11-.846-.023-.334-.04-.685-.093-.98-.125-.691-.26-1.396-.39-2.085-.167-.873-.373-1.672-.559-2.514a5.172 5.172 0 00-.095-.371 3.261 3.261 0 00-.338-.768c-.129-.22-.274-.432-.451-.746l-.074-.13-.09.1c-.421.48-.577 1.332-.66 2.213-.081.882-.08 1.805-.14 2.417-.14 1.44-.556 2.91-.526 4.43l.224.003" fill="#e3be9d"/><path d="M155.03 211.993l-.031.034.036-.026-.005-.008-.031.034.036-.026-.013.009.013-.008v-.001l-.013.009.013-.008a.9.9 0 01-.01-.218c.015-.42.144-1.244.285-2.02.14-.779.292-1.518.35-1.797.278-1.321.357-2.962.742-4.12l-.103-.063-.064.118c.12.11.255.407.363.772.19.635.321 1.465.39 1.927.161 1.067.237 2.158.406 3.25.076.495.104 1.12.151 1.755.048.636.115 1.284.282 1.841.073.245.166.472.286.67l.173-.178a2.546 2.546 0 01-.252-.59c-.152-.507-.22-1.133-.266-1.76-.047-.629-.074-1.258-.155-1.785-.166-1.072-.242-2.162-.405-3.25-.07-.467-.202-1.307-.403-1.978-.118-.387-.251-.722-.443-.91l-.112-.107-.054.163c-.404 1.229-.48 2.878-.75 4.157a65.42 65.42 0 00-.414 2.144c-.078.45-.147.894-.19 1.258a6.162 6.162 0 00-.04.48 1.15 1.15 0 00.025.34c.008.024.018.05.034.076l.17-.184" fill="#e3be9d"/><path d="M178.36 189.82l1.05-1.349-14.846-13.402h-14.679l-14.847 3.593 1.052 1.35-.68 13.649.68.798-.248 10.779 1.609 1.71s9.84.254 19.657.163c9.818.09 19.89-.162 19.89-.162l1.609-1.711-.248-6.445.68-.798-.68-8.175" fill="#b58946"/><path d="M135.843 205.237s1.652.4 2.176.57c.524.171-.291.97-.291.97l3.663.202s-.346-1 2.448-1.058c2.794-.056 3.201.913 3.201.913l4.947.4s-.466-.8.524-.856c.99-.057 8.09-.171 9.02-.057.932.114.757.741.757.741l5.471.171s-.698-.855 1.746-1.026c2.444-.172 3.553.772 3.553.772l3.94-.03s-.102-.742.248-1.028c.349-.285 1.36-.684 1.36-.684h-42.763" fill="#966732"/><path d="M179.597 168.28c-8.015-3.236-21.035-3.565-22.427-3.59v-.003l-.061.001h-.063v.001c-1.38.027-14.183.357-22.194 3.591 0 0-.68.342-.309 2.909.371 2.566.495 7.47.495 7.47s1.91.4 2.997.4 3.19-.514 4.117-.514c.928 0 5.506.057 5.506.057s-4.268.058-5.877.457c-1.608.399-3.155.342-4.206.342-1.052 0-2.537.608-2.537.608l.372 13.649h.866l-.805.456s.186 8.954.186 9.581c0 .628.186 1.54.186 1.54s16.544.396 21.266.005c4.724.391 21.498-.005 21.498-.005s.186-.912.186-1.54c0-.627.185-5.246.185-5.246l-.804-.456h.866l.371-8.175s-1.484-.608-2.536-.608c-1.051 0-2.598.057-4.206-.342-1.61-.4-5.878-.457-5.878-.457s4.579-.056 5.506-.056c.928 0 3.032.513 4.118.513 1.087 0 2.996-.4 2.996-.4s.124-14.713.495-17.28c.372-2.566-.309-2.908-.309-2.908" fill="#e1c377"/><path d="M180.005 169.487c-20.478-5.447-35.784-3.682-44.916-1.302l-.238.094s-.68.342-.31 2.909c.045.307.086.65.124 1.012 22.048-6.797 38.784-3.115 45.25-1.09.096-.695.115-1.224.09-1.623m-9.524 19.093c-.63-.05-1.282-.085-1.86-.11.637.034 1.257.071 1.86.11" fill="#e5ca87"/><path d="M134.947 176.244c.065 1.375.092 2.417.092 2.417s1.91.4 2.996.4 3.19-.514 4.118-.514c.927 0 5.505.057 5.505.057s-4.268.057-5.876.456c-1.609.4-3.155.342-4.207.342-1.051 0-2.536.608-2.536.608l.274 10.078c12.085-1.944 23.444-2.08 32.063-1.682 1.264-.015 4.199-.05 4.92-.05.93 0 3.032.513 4.119.513 1.086 0 2.996-.399 2.996-.399s.028-3.25.095-6.96c-9.649-2.243-26.704-2.963-26.704-2.963 9.385-.488 20.9.823 26.73 1.615.025-1.202.053-2.417.086-3.555-18.232-4.41-35.977-2.072-44.67-.363m4.818 17.013c5.586-1.254 26.539-1.939 26.539-1.939-15.86-.966-26.753.434-30.928 1.13l.033 1.208h.866l-.804.457s.186 8.953.186 9.58c0 .093.004.192.01.293 12.201-.437 34.481.693 42.955 1.165.02-.103.054-.295.087-.522-10.796-1.86-36.384-3.388-36.384-3.388 8.759-.429 27.665.886 36.49 1.563.049-1.532.162-4.357.162-4.357l-.804-.456h.866l.156-3.444c-18.84-2.533-39.43-1.29-39.43-1.29" fill="#e5ca87"/><path d="M142.4 179.23c.707-.203 2.201-.435 2.999-.552-1.285.064-2.808.106-3.628.31-1.609.399-3.204.36-4.255.36-1.052 0-2.57.588-2.57.588l.367 13.717.963.006-.912.452s.216 9.003.216 9.63.217 1.537.217 1.537 4.208.06 8.935.109c-2.403-.181-6.52-.476-7.343-.436-1.175.057-1.051-.513-1.113-1.027-.062-.513-.185-9.751-.185-9.751l1.175-.742-1.175-.17-.063-1.54 1.176-.115-1.176-.342-.061-10.95s.433-.342 1.856-.399c1.422-.057 3.587-.399 4.577-.684m30.255 9.566c-.82-.204-2.319-.246-3.604-.31.797.116 2.292.349 2.998.553.99.285 3.155.627 4.578.684 1.423.057 1.856.4 1.856.4l-.062 5.474-1.175.342 1.175.114v1.683l-1.237.028 1.175.6s-.123 5.046-.185 5.56c-.062.513.062 1.083-1.114 1.026-.822-.04-4.94.255-7.342.435 4.727-.049 8.889-.15 8.889-.15s.255-.884.255-1.511.184-5.265.184-5.265l-.872-.467.905.009.35-8.24s-1.367-.606-2.419-.606c-1.051 0-2.747.04-4.355-.36" fill="#f2e7c0"/><path d="M179.58 168.213c-8.015-3.236-18.237-3.479-22.534-3.522-4.297-.042-14.34.239-22.35 3.473 0 0-.639.442-.268 3.009.371 2.566.61 7.489.61 7.489s.786.164 1.637.282l-1.142-.567-.371-6.502 1.175-.285-1.175-.057s0-.798-.062-1.426c-.062-.627.31-1.425.31-1.425 7.212-2.916 15.846-3.572 21.698-3.574 5.852-.001 14.718.658 21.931 3.574 0 0 .371.798.31 1.425-.062.628-.062 1.426-.062 1.426l-1.176.057 1.176.285-.372 16.31-1.142.568c.85-.118 1.706-.265 1.706-.265s.13-14.7.5-17.266c.372-2.566-.4-3.008-.4-3.008" fill="#f2e7c0"/><path d="M164.243 197.407c0 3.586-3.13 6.492-6.99 6.492s-6.99-2.906-6.99-6.492c0-3.585 3.13-6.491 6.99-6.491s6.99 2.906 6.99 6.491" fill="#bf1616"/><path d="M162.773 197.407c0 2.831-2.471 5.126-5.519 5.126s-5.519-2.295-5.519-5.126c0-2.83 2.471-5.125 5.519-5.125s5.519 2.295 5.519 5.125" fill="#e0e0e0"/><path d="M153.016 201.744l-1.092-1.156 9.014-7.346 1.092 1.155z" fill="#bf1616"/><path d="M163.182 200.602c-.02.109.137.096 0 0m-.266-.349l-.067.015c-.077.041-.173.07-.22.13.092-.05.213-.08.287-.145m-2.516-.646c.01-.032.182.1.25.068-.001-.141-.353-.143-.501-.179-.002.082.173.096.251.11m2.029-.295c.047-.009.074-.03.083-.061-.05-.016-.073.045-.083.061m-3.695-6.283c.159-.042.298-.06.094-.184a.086.086 0 01-.01.047c.089.104-.181.052-.084.137m1.455.567c.162.032.123-.09.074-.096-.02.048-.1.024-.074.096m-2.839-.943c.064.028.07.132.145.126-.013-.041.09-.148-.04-.167.09.088-.071-.018-.105.04m5.008 1.112c.054-.035-.114-.14-.137-.182-.053.025.107.151.137.182m.506.678c-.06-.022-.096-.016-.122.003.057.022.095.015.122-.003m-.362-.385c-.037.067.21.07.274.103.119.078.19.038.283.083.025-.05-.525-.173-.557-.186m-1.212-.244c.079.038.019-.098.015-.107-.01.011-.04.093-.016.107m.863.261v-.09c-.002-.014-.002-.03-.003-.044-.063-.011-.06.12.003.134m.79.959c.027.04.047.03.098.044.035-.026-.077-.12-.098-.044m-2.534-.027c-.044-.02-.119-.045-.078-.078a6.92 6.92 0 00.048-.075c-.244-.1.01.249.03.153m1.15-.427c-.218-.04-.11.098 0 0m-4.881 6.619l-.078.03c.008.021-.002.034-.029.042.05.03.124.013.154.001a.44.44 0 00-.1-.021c.039-.007.056-.024.053-.052m3.173-2.145l.107.013.179.024c-.007-.042-.292-.08-.286-.037m-.042-3.748c.056.055.147.059.223.066a.49.49 0 00-.223-.066m-.038.306c.038-.034-.12-.09-.169-.118-.035.038.14.093.168.117m3.718.728c-.007.037.017.058.072.064.021 0 .032-.004.034-.01.009.005.018.01.03.014.01-.04.01-.055-.055-.083-.014.017-.015.033-.005.047.003.014-.005.02-.03.017 0-.021-.016-.037-.046-.049m-2.878-.277c-.188-.128.157-.152.09-.244-.02.03-.045.031-.076.003.026.008.04.004.04-.012-.124-.055-.048.087-.16.047-.006-.105-.029-.265.138-.298-.323-.048-.275.303-.316.428.094.026.19.052.284.076m-.188-1.765l-.119.061c.046.043.087.034.122-.03.033-.005.032-.015-.003-.031m3.212 3.455a.022.022 0 00-.02.01c.01.005.019.007.028.01.004.01.007.021.006.029.042.009.058.002.063-.01.162.032.237-.045.286-.143l.05.016c.058-.017.03-.055-.017-.09.017-.042.033-.084.052-.119-.03-.012-.066.033-.1.088a.395.395 0 00-.07-.034c-.264-.077-.044-.178-.168-.24-.112-.057-.126-.015-.115.038-.013.001-.024.005-.027.013a.11.11 0 00.036.017.47.47 0 00.035.073c.047.083-.012.074.094.158.075.058.11.06.164.067-.017.035-.031.065-.039.077-.046.082-.121.069-.183.053-.01-.032-.038-.074-.034-.099-.097-.02-.064.035-.04.085m-7.499-4.181c.282.037.649.012.926.124-.02-.134-.926-.203-1.078-.21.018.051.159.022.152.086m7.342 5.144c-.087-.002.022.126-.098.096.007-.026-.006-.05-.04-.073l.009.135c.112-.012.133-.089.129-.158" fill="#3d434a"/><path d="M163.646 197.852c.06.02.13-.022.06-.048-.025.042-.03-.025-.06.048m-1.452.488c-.027-.006-.037-.016-.032-.031a4.178 4.178 0 00-.07-.018c-.068.04.109.09.102.048m.905.772c.057.024.11.029.157.014-.103-.057-.106-.105-.157-.014m-.801-1.328c.026.046.07.086.129.122a.354.354 0 00-.129-.122m1.122.619l-.031.058c.085.065.145-.05.03-.058m-.943-.258c.132.064.117-.03.08-.028v.04a.104.104 0 00-.08-.012m-3.541-5.544a.143.143 0 00-.043-.027.073.073 0 00-.029-.035c0 .008-.007.013-.017.018-.095-.025-.212-.027-.209-.112.057-.023.103.041.154 0-.102-.058-.232-.015-.258.04.147.015.262.19.402.115m-1.953-.557l-.062-.044c.041.067-.47.068-.496.102.022-.027.486-.035.558-.058m-.579-.034c-.027.026-.043.099-.02.108.02.004.033-.003.04-.016.018-.028.007-.082-.02-.092m5.489 7.137c-.104-.017-.26.195-.33.235-.211.12-.488.21-.672.348.368-.17.801-.302 1.002-.583m.813 2.178c.014.024.028.027.04.009-.006-.034-.11-.132-.156-.115l.116.106m-7.058-.274c.03-.016 0-.038.038-.06.005.004-.29-.079-.14-.094l-.62-.416c.127.166.472.281.553.456.04.035.122.081.17.114m4.481 1.846c-.054-.028-.346-.132-.353-.096.066.017.344.15.353.096m-.717-.995c.053.107.012.092.113.091-.01-.022-.051-.092-.113-.091m-6.547-2.108c-.346-.069.064.172 0 0m7.035 2.066c-.146.06.368.378.43.467.049-.02-.347-.412-.43-.467m-8.638-5.951c.068.053.137.125.204.1-.068-.036-.138-.16-.204-.1m2.271.693c.074.039.146.106.224.094-.076-.02-.144-.135-.224-.094m5.965 2.037l.107.016c-.01-.052-.176-.042-.217-.056-.009.036.028.05.11.04m-.746-.106a.107.107 0 00-.079-.02c.01.031.036.052.081.065.048.007-.038-.038-.002-.045m-.328-.151c.052-.007.209 0 .175-.048l-.064.008c-.117-.018-.154-.005-.111.04m.326-.64a.885.885 0 00.32.11c-.027-.029-.254-.104-.32-.11m1.486.345a3.42 3.42 0 01-.086-.024c-.002 0 .074.181.037.188.07-.013.07-.119.049-.164m1.024 2.285l-.31.052c.032.04.342-.011.31-.051m-.594-1.011c-.081-.065-.067-.2-.221-.162.064.07.11.158.172.227a.398.398 0 00.05-.065m.059.891c-.016-.035-.05-.063-.104-.083-.048.025-.012.053.104.083m-4.87 1.453c.012.027.102.034.11.032.06-.013-.121-.056-.11-.032m7.287-1.72c.01.027.103.083.148.09-.007-.009-.151-.166-.148-.09m.313-3.37c-.013.026.076.132.122.16-.02-.039-.042-.077-.063-.116-.045-.01-.008-.025-.06-.044m-.192 3.162c.086.014.178.062.245-.008-.08-.05-.276-.071-.245.008m-.581-.136c.106-.007.1-.022.088-.078.021-.009.048-.005.08.013-.034-.152-.267-.09-.168.065m-3.794 2.883c-.01.038.008.047-.021.087l.166.072c0 .001-.15-.16-.145-.159m-1.426-1.206c.134.084.258-.072.214-.138-.132.017-.088.107-.214.138m-.574-.675l-.05-.04c-.026.012.041.094.078.123.067-.028.058-.056-.028-.083m.105.074c.034.033.06.084.107.083.014-.038-.032-.09-.107-.083m1.634.616c-.023.041.053.18.07.23.078.039.02-.182-.07-.23m-7.282-1.428c.066.068.077.077.126.13.116-.02-.071-.143-.126-.13m6.599 1.246c-.066-.02-.044-.052-.11-.063.004.033.116.121.11.062m-3.684-2.264c.008-.012.015-.025.024-.037-.213.008-.24.036-.198.178.033-.056.08-.12.174-.14m4.753 1.856c-.049-.022-.107-.068-.142-.051.05.022.108.068.142.051m-3.611-1.079c-.008-.041.085-.105.01-.133-.01.066-.131.075-.01.133m-4.148-1.855c.04-.063.148-.17.151-.243-.15-.045-.224.234-.253.273.042.017.084-.006.102-.03m1.304.088c.043.033.085.068.128.1.056-.009-.097-.129-.128-.1m-.587.534c.064-.074-.28-.127-.352-.145-.01.072.097.145.023.203.09.012.158 0 .252.03-.02-.064.044-.05.077-.089m9.871 3.573c-.04-.03-.08.017-.106.017l-.002.07c.037 0 .175-.036.108-.087m-7.882-2.728l.132-.081c-.051-.034-.182.047-.132.081m3.867 1.355c-.008-.066-.138-.028-.142-.028-.043-.026-.053-.052-.03-.077-.093-.024-.039.076-.01.108.1.038.066-.058.182-.003m-1.598 2.322c.006.057.124.084.07.155.117-.012-.02-.12-.07-.155m-1.638-.02a.262.262 0 00-.096.02c.004-.03-.016-.054-.059-.072l.008.023c-.046.05-.023.08.068.093.045-.01.072-.032.08-.064m-.679-1.402c.071-.006-.046-.096-.05-.118-.063.008.026.086.05.118m4.341 1.126c-.001-.102-.17-.026 0 0m.726.123h-.275c.032.04.276.038.274 0m-3.141-1.182c-.066-.004-.336.134-.319.187.077.003.317-.133.319-.187m.278 1.356c-.018.028.062.054.111.08.012-.026-.066-.052-.11-.08m.234-.412l-.106-.01c.018.044.116.067.106.01m-2.988-.63c.071-.064.165-.104.224-.16-.155.033-.657.057-.377.257.04-.016.073-.128.153-.096m3.786 1.256c.043.04.094-.016.083-.036-.025 0-.033.008-.02.025-.112-.024-.211-.348-.26-.414-.113.004.103.285.137.315.04.034.02.076.06.11m-3.997-3.744c.06.01.12.018.18.025-.007-.04-.183-.066-.18-.025m10.578-.123a.362.362 0 01.196-.022c-.03-.019-.06-.04-.09-.058-.077.019-.114.027-.179-.038-.06.039.12.069.073.117m-12.228-3.971c-.124-.09-.168-.256-.338-.3-.003.108.168.255.338.3M156 196.59c.039-.01-.012-.059-.03-.094-.038.011.012.06.03.095m2.734 1.375c-.004-.023-.02-.03-.048-.019.03.044.106.21.17.202a29.7 29.7 0 01-.122-.183m1.893.837a.238.238 0 00.137.027c.001-.033-.11-.032-.14-.032-.01-.02-.057-.043-.089-.067-.057.015-.032.045.079.091.012-.006.015-.012.013-.02m2.821.312c.049.037.233.01.22-.036.013.044-.18-.058-.203-.068l.003-.039c-.09-.062-.041.128-.02.143m-8.93-2.703l-.19.152c.053.03.242-.122.19-.152m-1.465 1.459c.038.004.135-.05.16-.028a.216.216 0 00-.14-.037c-.007.027-.026.037-.02.066m6.675-1.006c-.205.018-.015.15.097.121-.03-.055-.11-.055-.097-.12m-6.738-1.793c.032.03.093.01.144.008-.031-.03-.093-.01-.144-.008m5.356 1.501c.066.013.072-.164.007-.176l-.007.176m4.302.377c-.083.03-.095.099-.17.132.09-.002.12-.05.17-.132m-.17.132h-.013l.004.005.01-.005" fill="#3d434a"/><path d="M161.162 197.885c.086-.015.438-.075.428-.068l.07-.012c-.082-.076-.21-.17-.151-.248.12.06.217.012.304-.012.076-.022.11-.018.137-.001l-.018.007a.11.11 0 00.06.023.36.36 0 00.073.047c.018-.106.183-.071.313-.077.131-.007.054-.2.218-.243-.001-.026-.018-.051-.042-.074.011.002.02.004.023.002l-.06-.035c-.061-.047-.136-.089-.155-.128.04.01.074.015.102.017-.012-.024-.082-.053-.105-.04v-.008c.02-.043.066-.086-.035-.133.026-.046.098-.018.128-.057-.183-.108-.398-.238-.626-.372-.04.035.133.095.16.121-.162-.01.114.079.01.113-.028.032-.086-.035-.12-.036-.1-.003.086.186.101.21a.023.023 0 01-.007.003c-.156-.084-.285-.149-.298-.138l.266.154-.09.037c.148.048.137.105.234.174.124.089.091.17.003.234l-.005-.004c-.048-.015-.086.018-.083.054a1.1 1.1 0 01-.24.077c-.12.023-.245.039-.366.06-.183.034-.141.064-.194.17-.038.075-.527.31-.457.352.127-.066.25-.138.421-.169m-4.633-1.387c-.082-.046.09-.054-.003-.099-.04.045-.053.103-.075.135.042.001.069-.01.078-.036m1.588.478c-.082-.003-.03.117-.059.163.083.003.031-.117.06-.163m-3.033-1.185a.47.47 0 01.146.006l-.058-.067c-.13-.009-.199.04-.32.044.033.036.12.025.21.018.001.02.05.054.02.067.031.05.02-.03.002-.068m3.113.989c.017-.028.091-.082.02-.107l-.021.037c-.06.032-.059.055.001.07m3.267 4.824c-.011.012-.027.012-.048-.002.077-.069.154-.137.233-.205-.033-.018-.38.254-.44.298.039.02.281-.049.255-.091m-5.066-3.404c-.04-.047-.043-.087-.007-.12-.029-.043-.062-.037-.09-.089-.256.093-.491-.454-.557-.556a.953.953 0 00-.004.05c-.077.005.19.357.228.414.112.103.173.31.43.302m4.922 2.841c.06.05-.113.121.074.19.005-.063.01-.24-.073-.19m.761.73a2.72 2.72 0 00-.023.106c.096.027.119-.08.023-.106m-10.909-4.647c-.004.037.013.039.066.06l.004-.043-.07-.017m11.018 4.29c.012-.011.006-.022-.02-.032l-.11.143c.12.054.099-.081.13-.11m-5.394-1.573c.014.023.006.035-.026.037-.07.098.345.075.026-.037m5.666 1.772c-.077-.055-.121-.09-.226-.054.003.06.23.086.226.054m-5.989-3.275l-.302.1c.196.02.333-.1.49-.133-.048-.046-.146.019-.188.033m1.163.44c-.044.005-.135.078-.115.119.044-.011.131-.085.115-.118m-4.109-1.529c.016.03-.077.102.027.116.11-.004.062-.11-.027-.116m1.626 1.701c-.056.077-.119-.008-.164-.019-.15-.036-.193.084-.313.106.033.026.074.03.1.018.008.048-.071.143-.173.079-.055-.048.097-.05.022-.106l-.125.056c.058.213.378.037.482-.005.17-.07.391-.099.548-.172-.133-.092-.435-.029-.377.043m2.861.866c.021.035.059.061.115.079.04-.03.003-.056-.115-.08m-1.627-.538c.067.06.176.07.263.106-.036-.048-.197-.11-.263-.105m4.406.676a.18.18 0 00.137-.008c-.04-.042-.093-.002-.137.008m-4.034-.814c-.058-.121-.168-.25-.24-.37-.045-.073-.18-.227-.197-.27.155.31.39.614.575.922.123-.018-.11-.227-.138-.282m2.496-2.273c-.036 0-.04.01-.008.03.08-.02.172-.02.25-.041-.028-.03-.193-.002-.242.012m-7.326.068c-.044-.008-.079-.005-.103.01.065.044.1.042.102-.01m7.571.41c.008-.063.128-.457.029-.482-.008.065-.093.468-.028.482m-3.484-4.656c.074-.01.138.097.218.027-.245-.104-.315-.042-.393.071.127.011.087-.085.175-.098m6.052 2.436c.001.044.32.079.393.092 0-.044-.32-.079-.393-.092m-4.552-1.638c-.049-.002-.085.062-.013.067.06.012.065-.01.013-.067m-3.559-.796c-.03-.047-.169-.01-.21-.006.037.052.168 0 .21.006m4.007 1.231l.25.036c-.065-.038-.212-.095-.25-.036m2.858.921c.001-.028-.04-.144-.106-.1-.033-.015.1.17.106.1m-1.367-1.02c.076.033.117.033.123-.002l-.345-.126c-.022.023.124.092.118.09-.067.036-.132.07-.112.143.08-.025.082.001.138.05.025-.052.052-.104.078-.155m3.797 1.126c.106.046.179.124.157.125.078.022.098-.076-.015-.121-.265-.103-.237-.138-.308.027.02-.06.198.079.166-.03m-7.65-3.335c.1.005-.037-.122-.068-.157-.05-.056-.259-.035-.338-.05.027.09.174.06.217.037.071.064.167.09.189.17m7.504 3.152a.22.22 0 00.14-.01c-.044-.028-.126-.01-.14.01m-3.57-1.273c-.017.016-.041.024-.075.022.003.029-.01.042.004.07.066-.001.062-.035.135-.006-.006-.032-.027-.06-.064-.086m3.731 1.321c.056.014.172-.02.183.03.244-.026-.14-.086-.183-.03m-3.398-1.031a.574.574 0 01.04.083c.105-.06-.022-.102-.04-.083m-2.656 1.487c-.022-.035-.028-.086-.078-.092.022.034.029.086.078.092m1.77.971c.191-.03.004-.136 0 0m-3.149-1.561a1.57 1.57 0 00-.277-.257l-.047.051c.07.03.083.099.003.1.102.049.227.056.32.106m-2.499-.781c-.314-.046-.512.045-.778.059.323.056.574.027.778-.06m3.689 1.638c-.098-.048-.088.064-.024.064 0-.05.037.018.024-.064m-1.58-.607c.064.01-.008.035-.012.047.23 0 .004-.065.012-.047m5.394 2.098c-.01.024-.074.03-.014.063.01-.023.074-.03.014-.063m-9.07-3.408l-.01.042-.036.146c.082 0 .096-.175.046-.188m7.837 2.75l.21.07c.018-.05-.192-.12-.21-.07m-1.835-1.478c.062-.011.369-.056.333-.11-.069.007-.354.086-.334.11m-.164-.105c.062-.017.056.067.084.085.011.008.223-.176-.038-.183.051-.113.032-.249.043-.371a.743.743 0 01.027-.159c.078-.022.088.042.16.037-.054-.092-.413-.132-.52-.167-.278-.093-.524-.21-.807-.282-.14-.034-.217-.1-.363-.136a4.203 4.203 0 01-.447-.147c-.365-.138-.751-.276-1.094-.446.078-.022.087.041.16.038.024-.027-.055-.129.058-.076-.026-.057-.303-.1-.133-.111-.086-.064-.54-.203-.557-.132-.005-.07-.125-.154-.24-.176.04.132.13.285.208.416.02-.01.022-.026.007-.046-.063-.133.567.148.615.17.312.144.637.32.986.395-.015.059-.134.063-.132.128.089.03.136-.002.226.034.017.03.052.08-.026.073.079.114.166.005.272.054-.072-.185.273.043.438.033.125-.007.11.019.122.099.016.102.11.038.173.037.076-.003.083.014.07.032l-.004-.004c-.018.016-.046.006-.066.015.001.013.006.02.012.027l-.003.001c-.079.025.334.182.367.191.073.227.271.443.422.665.02-.028.013-.059-.02-.094m-3.663-1.018c-.024-.07-.197.055-.086.023l.086-.023m-1.384-1.02c.182.11.093-.067 0 0m6.502 2.482c-.061.003-.208-.06-.212-.013a2.6 2.6 0 00.212.014v-.001m-2.758-.305c-.054.039-.034.128-.008.186.038-.023.045-.146.008-.187m-1.792-.416c-.083-.071-.194-.129-.27-.198-.047.03.096.116.147.125.038.076.078.1.123.073m4.352 1.443c-.024.04.561.213.659.23.028-.039-.132-.066-.16-.084-.156-.06-.332-.082-.5-.146" fill="#3d434a"/><path d="M157.691 195.453c.07-.151.753.025.984-.044.011.013.177.16.189.097 0-.024-.015-.048-.042-.069.126.01.333.11.366-.01.145.178.206-.051.236-.088a.782.782 0 01.104-.1c.094-.083-.003-.078.2-.036a.714.714 0 00.264.003c.152-.027.163-.01.332.02.2.035.383.07.57.157.036-.081-.794-.273-.895-.288a1.96 1.96 0 00-.543-.02c-.039.005-.357.112-.3.126a.23.23 0 01.088.018.817.817 0 01-.184.017c-.026.073-.104-.005-.211-.013-.143-.015-.289-.035-.42-.021-.197.02-.35.117-.568-.032-.004.043-.32.232-.17.283m-2.612-3.773c.066.032.195.033.217.092.083.007-.001-.096.068-.1.057.09.21.012.216.082.12-.024-.06-.088-.112-.108-.127-.03-.121.04-.21.03-.016-.036.04-.125-.077-.124.012.067-.01.118-.12.073a.035.035 0 01-.003-.008c-.03-.05.036-.06-.006-.114-.148.002.023.392.092.458-.01-.08-.036-.19-.065-.282m5.785.787c-.022-.179-.152.033-.166.086.082-.018.182.01.166-.086m-.258-.366c-.095-.02-.191-.037-.286-.058.006.035.284.117.286.058m-3.392-.63l-.231.016c.064.079.209.024.231-.016m-.654-.221c.012.038.078.084.089.122.09-.014-.083-.145-.09-.122m3.481.906c-.167-.074-.225.137-.077.202.01-.075.047-.135.077-.202m-.19-.75c-.078-.008-.046.04-.032.071.086.014.097-.01.032-.07" fill="#3d434a"/><path d="M162.773 197.407c0 2.831-2.471 5.126-5.519 5.126s-5.519-2.295-5.519-5.126c0-2.83 2.471-5.125 5.519-5.125s5.519 2.295 5.519 5.125" fill="#e0e0e0"/><path d="M153.016 201.744l-1.092-1.156 9.014-7.346 1.092 1.155z" fill="#bf1616"/><g fill-rule="evenodd"><path d="M451.931 200.398c-5.643-20.4-12.584-40.083-17.736-59.969-1.918-7.394-3.588-14.817-4.853-22.315l5.162 4.452-5.41-5.953c-.902-5.59-1.571-11.224-1.947-16.92-.067-1.045-.134-2.086-.197-3.123l7.594 8.816-7.816-12.646c-.978-17.458-1.414-34.128-3.789-51.956 10.52 16.325 19.208 23.53 16.348 42.377l4.925-7.547c3.662 24.918 10.57 50.014 1.977 73.038-6.298 16.877 3.095 36.112 10.48 56.955l-4.736-5.21" fill="#a0ba2c"/><path d="M447.639 200.838c-5.224-16.914-10.537-43.964-22.396-57.771-1.63-1.899-3.25-3.823-4.793-5.777-2.905-3.685-5.541-7.48-7.478-11.43-4.28-8.738-4.975-17.865-4.053-29.851 4.865 17.427 20.128 29.613 24.394 45.454 5.489 20.393 10.778 51.22 21.218 65.165h-3.283l-3.61-5.79" fill="#68a729"/><path d="M449.286 202.97c-1.071-18.924-5.006-34.422-8.876-52.927-2.183-10.431-2.843-20.259-1.952-32.399l3.937 14.933-1.64-15.237c4.387-10.951 8.462-16.79 16.406-25.903l1.312 10.972.33-11.58c14.669-16.178 28.715-18.761 50.862-21.333l-19.033 20.418-9.516 3.962 8.204-.304c-5.18 8.891-10.373 17.708-15.094 26.815l-13.783 4.572h9.845l-2.953 6.4-3.61 8.836-10.83 10.057 7.22-3.048c-10.679 12.623-10.527 15.333-8.532 31.693l2.626 21.027 1.641 20.112-10.173-.609 3.61-16.456" fill="#86af20"/><path d="M458.645 110.007c9.411-14.143 15.34-21.59 29.35-31.798-9.104 7.433-15.082 12.882-21.585 22.315l13.757-.51-14.673 2.157-5.137 6.928 12.472-.455-12.718 1.591-3.362 6.245 11.679.341-12.474.909c-1.824 3.937-3.251 7.873-4.097 11.811l11.19-2.271-11.8 3.463c-7.257 22.165-2.243 50.848 2.751 73.761l-2.201 4.316c-4.748-32-11.531-70.363 6.847-98.804" fill="#98b41b"/><path d="M442.772 222.67l1.588-21.22-3.282-12.798-4.594-12.494-3.61-5.181-4.595 5.486c-11.732-1.038-16.43 6.043-24.608 13.407-4.61-4.754-7.553-.103-1.969 3.353-8.306 6-10.204 13.323-14.44 22.246-9.096-14.598-13.051-37.756 2.724-52.262 16.266-14.958 36.398-18.73 46.168 2.284l1.97 4.876 17.54 52.304h-12.892" fill="#739836"/><path d="M431.067 157.636a26.86 26.86 0 011.873 2.318c-7.893-3.003-14.852-3.007-20.878-.834-1.667 5.965-1.026 10.222-.376 17.908-2.041-6.784-1.875-10.673-.946-17.394a27.72 27.72 0 00-4.133 2.186c-1.574 5.36-.943 9.264-.302 16.231-1.963-6.006-1.885-9.548-1.048-15.314a33.775 33.775 0 00-4.016 3.415c-1.438 5.102-.82 8.934-.195 15.646-1.858-5.609-1.886-9.04-1.176-14.215-8.604 9.45-13.892 24.385-15.821 39.426 1.375-25.881 15.457-57.745 47.019-49.374" fill="#829f2e"/><path d="M450.584 205.404c8.597-25.553 14.33-64.075 36.751-81.062v2.744c9.011-7.112 17.212-6.78 28.878-8.533l-7.218 7.923 9.187-8.532c27.468 5.277 33.053 20.323 42.986 41.748l-16.734-12.494-6.893-9.142 1.97 8.228-10.172-.305-10.829-10.97 4.922 8.228c-15.648 6.459-28.319 8.574-42.986 17.37l-4.923-3.963v6.096c-10.885 6.916-15.098 19.34-17 30.559 2.97-4.517 5.439-6.8 9.384-8.997 2.717-1.513 5.054-2.328 7.349-2.738 10.34-1.845 16.491 1.542 20.87 7.454 5.56 7.502 5.293 13.94 15.095 6.613-7.662 11.346-22.42 8.536-30.687-2.376-2.557-3.375-5.196-7.055-7.6-9.023-.884-.723-2.101-.226-5.004 1.491-3.1 1.834-4.211 3.98-5.45 7.675l2.542-1.405c-3.401 11.057-.56 20.311 2.845 30.668h-17.282v-17.258" fill="#7aa32e"/><path d="M456.2 188.6c10.891-35.861 40.08-76.389 88.292-52.468-12.7-6.07-24.282-7.574-34.668-5.686 4.065 4.775 7.98 9.228 11.272 13.745l-.15.058a191.872 191.872 0 00-13.087-13.404 48.424 48.424 0 00-9.663 3.303c5.799 4.311 9.82 7.846 14.262 13.206l-.085.029c-4.757-5.13-9.129-9.328-15.76-12.471-4.179 2.107-8.108 4.793-11.781 7.954 5.01 2.589 8.942 5.292 13.433 8.712-4.852-2.92-9.33-5.482-14.549-7.731-10.357 9.31-18.61 22.404-24.581 36.805l-2.936 7.949" fill="#86af20"/></g><path d="M389.635 176.585c-.006-.06-.022-.123-.033-.199-.013-.089-.047-.671-.202-.64-.184.039-.373.184-.54.273-.212.115-.41.192-.602.35-.122.101-.355.241-.375.39-.03.219.108.457.25.604.113.116.235.31.422.295.222-.018.467-.264.638-.397.154-.118.307-.26.396-.434a.398.398 0 00.047-.242m38.234-5.525c-.117.058-.23.126-.243.236-.019.165.102.289.14.437.031.12-.007.216-.023.334-.04.292.115.628.245.878.234.447.71.946 1.262.614.4-.24.382-.906.364-1.293a5.748 5.748 0 00-.321-1.656c-.03-.083-.06-.265-.141-.311-.109-.061-.288.147-.388.213-.227.151-.462.287-.687.443-.052.036-.13.068-.208.106" fill="#916a3b"/><path d="M425.763 197.167l-39.112 5.859 1.225-26.278 39.123 5.383.635-10.828 19.536 18.612-21.793 15.918.386-8.667" fill="#916a3b"/><path d="M427.308 196.14L388.197 202l1.224-26.278 39.123 5.382.636-10.827 19.535 18.611-21.793 15.919.386-8.666" fill="#d9a272"/><path d="M431.044 189.727a1.831 1.831 0 00-.302-.039c-.424-.032-1.114-.049-1.531-.195a.644.644 0 01-.29-.177.291.291 0 01-.04-.305c.056-.144.197-.297.445-.484.399-.299.931-.425 1.47-.443a4.333 4.333 0 011.628.269c.372.146.61.31.741.491.132.18.148.384.075.567-.094.243-.324.458-.611.636a3.326 3.326 0 01-.98.396 10.251 10.251 0 01-3.61.133 5.09 5.09 0 01-.924-.22c-.247-.088-.471-.196-.623-.336a.57.57 0 01-.163-.237.42.42 0 01.01-.29c.072-.181.251-.362.568-.56a12.023 12.023 0 013.241-1.384c2.45-.619 4.942-.545 7.306.287.212.075.424.156.634.243l.073.031-.044.069c-.416.654-1.095 1.153-1.837 1.548s-1.55.687-2.23.918c-1.407.48-2.712.867-4.2.953-1.581.09-3.002-.233-4.49-.54a7.705 7.705 0 01-.956-.259c-.353-.126-.686-.28-.841-.492-.153-.208-.179-.41-.11-.584.066-.17.208-.306.37-.428.163-.123.35-.232.516-.338 1.502-.948 3.165-1.236 4.733-1.921 1.378-.601 2.708-1.145 4.265-1.151 2.274-.008 4.476.665 6.728.688.315.004 1.246.005 1.814.204.189.067.343.155.42.293.092.17.07.368-.005.563-.107.274-.323.559-.544.813-.22.253-.448.475-.573.612-1.66 1.819-3.552 2.526-5.874 3.083-1.927.463-3.826 1.18-5.817 1.307-1.26.077-2.463.472-3.744.271-.855-.135-1.697-.324-2.562-.402-.961-.088-1.842-.274-2.804-.275-.556-.002-1.265.084-1.822-.087a1.565 1.565 0 01-.048-.016c-.234-.082-.38-.214-.441-.383-.06-.169-.034-.361.044-.561.184-.472.658-1.017 1.15-1.503.49-.485 1-.906 1.252-1.111 1.926-1.565 4.078-1.811 6.275-2.655 1.218-.467 2.5-.737 3.698-1.193.976-.37 1.803-.987 2.861-1.26 1.14-.293 2.302-.149 3.448.106 1.146.256 2.278.622 3.356.782 1.183.176 2.251.644 3.377.975.608.18 1.247.309 1.856.523.267.094.529.205.78.345l.046.025-.016.052a3.253 3.253 0 01-.082.24c-.198.513-.511.892-.883 1.217-.371.325-.801.598-1.24.901-1.237.855-2.434 1.839-3.643 2.747-1.791 1.345-3.874 1.945-5.95 2.627-2.97.976-6.3 1.19-9.36.972-1.403-.1-2.76-.201-4.144-.298-1.234-.088-2.496-.654-3.71-.619-.534.014-1.022.2-1.608.171-.556-.027-1.023-.028-1.556.1-.222.052-.456.186-.667.3a2.185 2.185 0 01-.303.14.425.425 0 01-.276.017.3.3 0 01-.174-.179 1.07 1.07 0 01-.066-.367.941.941 0 01.054-.384.911.911 0 01.182-.28c.071-.08.148-.157.222-.257.381-.517.638-1.087 1.007-1.64.823-1.235 1.754-2.708 2.865-3.732.978-.9 2.287-1.428 3.495-1.856 1.006-.356 1.832-.745 2.79-1.224 1.488-.745 2.904-1.015 4.505-1.341 1.802-.365 3.368-1.215 5.209-1.379a17.3 17.3 0 012.211-.065c.818.035 1.417.347 2.155.527.99.244 2.365.509 3.374.34a.066.066 0 01.077.057.072.072 0 01-.06.08c-1.05.172-2.432-.098-3.429-.343-.757-.187-1.345-.49-2.128-.524-.707-.03-1.477.002-2.193.066-1.804.158-3.365 1.003-5.193 1.376-1.603.326-3.002.594-4.47 1.329-.959.48-1.792.872-2.806 1.23-1.203.427-2.495.951-3.445 1.827-1.09 1.004-2.02 2.469-2.843 3.705-.36.54-.618 1.112-1.01 1.646-.082.11-.163.192-.23.268a.765.765 0 00-.156.235.801.801 0 00-.044.328c.006.15.026.254.055.32.029.068.06.094.096.107.041.015.104.01.186-.017.121-.042.276-.13.443-.22.168-.088.35-.18.54-.225.552-.132 1.036-.13 1.595-.102.55.028 1.033-.154 1.597-.171 1.258-.034 2.524.536 3.724.619 1.383.097 2.74.198 4.144.297 3.046.218 6.36.003 9.306-.965 2.08-.682 4.145-1.28 5.908-2.605 1.205-.906 2.404-1.89 3.648-2.75.442-.306.867-.576 1.226-.891.36-.315.655-.673.844-1.16.028-.073.054-.15.078-.23l.066.018-.035.06a4.889 4.889 0 00-.759-.334c-.597-.21-1.233-.339-1.85-.521-1.136-.336-2.198-.8-3.357-.971-1.095-.163-2.229-.53-3.367-.784-1.138-.253-2.278-.393-3.382-.108-1.024.263-1.846.874-2.847 1.256-1.212.46-2.493.73-3.697 1.192-2.221.85-4.35 1.097-6.235 2.632-.25.204-.756.623-1.242 1.102-.486.479-.95 1.021-1.117 1.452-.07.183-.087.34-.042.465.045.124.151.229.361.303l.043.015c.514.16 1.215.08 1.782.08.98.002 1.865.19 2.816.276.877.08 1.722.27 2.571.403 1.238.197 2.43-.19 3.714-.272 1.962-.123 3.854-.837 5.793-1.303 2.314-.556 4.165-1.25 5.8-3.04.13-.142.355-.361.571-.61.216-.247.424-.525.518-.77.068-.176.078-.327.012-.448-.047-.088-.172-.17-.348-.232-.529-.187-1.458-.193-1.77-.196-2.278-.026-4.48-.697-6.726-.688-1.524.005-2.832.538-4.209 1.139-1.59.692-3.243.98-4.713 1.911-.169.107-.353.215-.506.33-.154.116-.274.239-.322.365-.048.13-.039.268.094.456.116.164.435.326.779.445.344.121.713.208.938.255 1.49.307 2.897.625 4.453.536 1.468-.084 2.759-.466 4.164-.945.677-.231 1.478-.52 2.208-.91.73-.388 1.387-.876 1.783-1.497l.058.036-.029.064a12.145 12.145 0 00-.627-.24c-2.338-.824-4.802-.897-7.226-.284a11.88 11.88 0 00-3.2 1.367c-.305.188-.458.356-.508.488a.283.283 0 00-.009.197c.03.092.114.185.24.268.124.084.287.159.465.221.294.104.628.176.9.215 1.12.162 2.423.129 3.558-.13.327-.075.663-.21.935-.379.273-.168.479-.37.553-.565a.436.436 0 00-.06-.438c-.108-.15-.324-.306-.682-.446a4.194 4.194 0 00-1.573-.26c-.521.017-1.026.141-1.39.414-.238.179-.36.323-.396.42-.028.078-.018.12.02.171.04.05.122.098.231.136.253.09.645.13 1.003.155.18.013.35.022.493.033.144.011.256.022.33.044.037.011.057.05.044.086a.072.072 0 01-.087.046m-41.589-7.654c.593-.083 1.164.036 1.718.232.747.263 1.47.665 2.188.918.224.078.446.143.669.185a6.2 6.2 0 01.952.27c.217.075.43.157.646.233a5.96 5.96 0 001.03.28c.815.13 1.65.259 2.436.44l.1.024-.062.084c-.33.444-.805.65-1.307.73-.502.081-1.036.042-1.507-.002-.907-.084-1.56-.033-2.366.306-.87.367-1.528.502-2.484.512a2.72 2.72 0 00-1.13.256c-.324.14-.644.314-1.085.434a.067.067 0 01-.083-.048.072.072 0 01.051-.085c.424-.115.734-.283 1.066-.427a2.865 2.865 0 011.185-.268c.945-.01 1.572-.14 2.43-.5.828-.35 1.517-.403 2.434-.317.468.044.992.08 1.472.003.48-.079.91-.268 1.213-.674l.055.04-.017.067c-.78-.18-1.612-.309-2.427-.439a6.005 6.005 0 01-1.055-.286c-.216-.077-.43-.157-.646-.233a6.31 6.31 0 00-.932-.265 4.705 4.705 0 01-.688-.19c-.734-.258-1.456-.66-2.188-.918-.544-.192-1.092-.303-1.654-.225a.067.067 0 01-.076-.059.072.072 0 01.062-.078" fill="#e3be9d"/><path d="M389.566 180.637c.123-.088.288-.114.472-.114.277 0 .604.069.908.146.303.077.583.164.754.207.787.193 1.54.353 2.285.615.261.091.52.196.78.32.506.24.986.648 1.508.831.1.036.203.063.307.08.697.111 1.375-.041 2.13.175.201.058.401.123.6.193 1.433.505 2.82 1.283 4.24 1.783.886.312 1.783.516 2.714.484l.023.133c-1.674.659-3.157.653-4.839.883-1.735.233-3.649-.302-5.296.173-.13.037-.265.128-.402.227-.136.1-.275.206-.427.268-.379.153-.779.186-1.135.362-.605.296-1.07.558-1.716.772-.468.154-1.05.432-1.641.646-.591.213-1.193.365-1.713.255a.066.066 0 01-.05-.082.072.072 0 01.084-.053c.471.102 1.054-.039 1.636-.25.583-.21 1.163-.487 1.644-.647.631-.209 1.089-.466 1.699-.765.388-.188.793-.222 1.144-.365.125-.05.258-.15.396-.251.139-.1.284-.203.447-.25 1.703-.485 3.622.056 5.316-.178 1.695-.23 3.161-.225 4.807-.873l.023.064v.069c-.955.033-1.87-.177-2.764-.492-1.436-.506-2.822-1.284-4.24-1.783a10.32 10.32 0 00-.593-.19c-.714-.208-1.382-.058-2.113-.172a1.886 1.886 0 01-.332-.086c-.554-.196-1.036-.608-1.52-.837a7.886 7.886 0 00-.768-.314c-.733-.259-1.482-.417-2.272-.612-.238-.058-.653-.194-1.058-.277a2.973 2.973 0 00-.572-.071c-.17-.002-.308.028-.388.087a.068.068 0 01-.096-.014.07.07 0 01.018-.097" fill="#e3be9d"/><path d="M389.528 178.551a1.06 1.06 0 01.588-.094c.21.019.43.078.65.155.467.165.936.412 1.277.532l.058.02c1.075.347 2.287.441 3.435.623.732.116 1.423.307 2.092.543 1.37.483 2.648 1.15 4.002 1.745.731.321 1.317.668 2.007.91.208.074.426.138.661.19.65.141 1.4.172 2.138.381.355.101.706.216 1.055.34 1.143.402 2.262.893 3.4 1.294a17 17 0 001.448.444c.512.13 1.088.107 1.64.149l.015.133c-.882.328-2.144.557-3.17.833-.836.225-1.498.2-2.319.24-.623.027-1.15.32-1.81.348-1.76.069-3.753-.116-5.381.393-1.763.55-3.324 1.155-5.202 1.397-.969.125-1.733.64-2.475 1.216-.741.575-1.457 1.211-2.332 1.558-.316.124-.775.146-1.2.194a3.728 3.728 0 00-.582.1c-.167.047-.295.113-.365.198a.07.07 0 01-.098.011.068.068 0 01-.008-.097c.102-.121.258-.193.438-.245.271-.076.606-.105.929-.137.321-.032.632-.07.838-.152.844-.333 1.551-.958 2.297-1.538.746-.58 1.535-1.114 2.546-1.245 1.857-.24 3.408-.839 5.177-1.391 1.668-.52 3.67-.33 5.417-.4.619-.023 1.146-.315 1.81-.348.828-.04 1.475-.016 2.289-.234 1.033-.278 2.294-.508 3.156-.83l.022.065-.008.068c-.541-.042-1.124-.017-1.663-.152a16.713 16.713 0 01-1.46-.448c-1.144-.403-2.263-.894-3.4-1.295a18.06 18.06 0 00-1.047-.336c-.718-.205-1.462-.235-2.13-.38a5.63 5.63 0 01-.677-.193c-.705-.248-1.294-.598-2.016-.915-1.36-.597-2.635-1.263-3.992-1.74a11.747 11.747 0 00-2.069-.538c-1.14-.18-2.359-.275-3.456-.628l-.06-.02c-.357-.127-.823-.372-1.278-.533a2.608 2.608 0 00-.617-.148.917.917 0 00-.51.079.068.068 0 01-.092-.029.07.07 0 01.032-.093" fill="#e3be9d"/><path d="M389.697 177.248c.612-.185 1.429.038 2.175.298.446.158.866.33 1.191.446l.056.019c1.032.353 2.1.512 3.19.68.809.125 1.51.495 2.284.629 1.429.247 2.909.644 4.283 1.127l.23.08c1.44.507 2.959 1.059 4.349 1.674.347.153.704.293 1.069.421 1.978.697 4.177 1.07 6.192 1.64.368.103.723.22 1.074.343.502.176.994.368 1.496.563l.18.066c.86.303 1.512.313 2.51.31v.137c-.89.056-2.099.462-2.989.723-1.152.337-2.23 1.108-3.318 1.61-.9.412-1.973.47-2.898.712-1.204.313-2.441.027-3.63.012-.984-.014-2.333.413-3.293.757-1.024.366-2.04.711-3.053 1.098-1.18.449-2.27 1.191-3.507 1.563-.498.149-1.028.206-1.49.396-.571.234-.957.664-1.46 1.057-1.169.911-2.232 1.155-3.512 1.75a6.793 6.793 0 00-1.157.67c-.085.06-.24.208-.386.334a1.903 1.903 0 01-.213.162.469.469 0 01-.098.049.164.164 0 01-.107.005.123.123 0 01-.076-.092.072.072 0 01.051-.085.067.067 0 01.084.048l.001.005h-.001.001-.002l.002-.001-.016.01.007-.017.009.007-.016.01.007-.017-.004.01.001-.01h.003l-.004.01.001-.01.008-.001c.02-.004.07-.03.126-.07.085-.061.188-.152.285-.239.098-.087.188-.17.258-.22.37-.267.746-.482 1.181-.684 1.297-.601 2.342-.841 3.484-1.732.49-.38.885-.827 1.494-1.077.488-.2 1.022-.256 1.503-.4 1.21-.363 2.297-1.102 3.497-1.56 1.017-.389 2.034-.734 3.056-1.1.967-.345 2.32-.778 3.343-.765 1.208.017 2.434.296 3.592-.007.945-.245 2.01-.306 2.875-.705 1.07-.491 2.153-1.268 3.337-1.616.887-.26 2.099-.67 3.019-.728l.001.068-.002.07c-.996.003-1.674-.007-2.555-.318a7.99 7.99 0 01-.184-.067c-.503-.195-.993-.386-1.493-.562a17.902 17.902 0 00-1.065-.341c-2.005-.568-4.207-.94-6.2-1.642-.368-.13-.728-.27-1.079-.425-1.384-.612-2.9-1.163-4.34-1.67l-.229-.08a27.07 27.07 0 00-4.262-1.121c-.8-.14-1.5-.51-2.282-.629-1.089-.168-2.165-.327-3.212-.686l-.057-.02c-.331-.116-.75-.289-1.191-.445-.737-.26-1.544-.467-2.088-.296a.067.067 0 01-.086-.045.072.072 0 01.05-.087m50.715 4.901c-.126.147-.315.233-.53.285-.325.077-.719.077-1.085.051-.367-.026-.706-.079-.916-.11-.712-.108-1.444-.15-2.173-.252-1.433-.2-2.81-.17-4.272-.077-1.05.068-2.074.064-3.12.218-.898.131-1.77.53-2.657.923-.932.414-1.84.766-2.84.859-.53.047-1.098.265-1.66.194-.61-.08-1.113-.2-1.723-.237-1.157-.072-2.17-.572-3.242-.803a11.188 11.188 0 01-1.368-.363 5.696 5.696 0 01-1.233-.606c-.7-.453-1.456-.77-2.24-1.046-.72-.254-1.464-.473-2.205-.731-1.344-.469-2.687-.886-4.033-1.349-1.188-.408-2.238-.618-3.49-.928-.716-.178-1.63-.425-2.358-.492a.066.066 0 01-.06-.076.072.072 0 01.078-.062c.746.07 1.663.319 2.378.496 1.248.31 2.304.52 3.502.931 1.342.462 2.686.88 4.033 1.35.737.256 1.48.475 2.206.731.788.278 1.555.599 2.268 1.06.412.266.8.449 1.204.592.419.147.855.25 1.352.358 1.094.238 2.1.732 3.221.8.625.038 1.132.16 1.733.238.514.068 1.073-.141 1.629-.194.974-.09 1.867-.435 2.795-.848.886-.393 1.77-.797 2.696-.934 1.059-.155 2.086-.151 3.13-.218 1.466-.094 2.853-.125 4.3.077.722.1 1.455.143 2.175.252.28.043.784.121 1.268.125.242.002.48-.015.679-.063.2-.047.36-.126.454-.237a.07.07 0 01.097-.01.068.068 0 01.007.096m-1.502-1.76c-.137-.048-.352-.04-.58-.013-.228.025-.468.065-.669.067-.728.01-1.29-.16-1.964-.33-.781-.198-1.676-.182-2.489-.117-.626.05-1.434-.029-2.207-.04-.772-.013-1.505.047-1.965.347a.068.068 0 01-.095-.019.07.07 0 01.022-.096c.513-.33 1.266-.38 2.045-.37.78.012 1.588.089 2.194.04.82-.065 1.728-.083 2.534.12.678.172 1.224.336 1.929.327.184-.002.422-.04.655-.067.233-.025.46-.04.639.02a.066.066 0 01.04.087.072.072 0 01-.09.044" fill="#e3be9d"/><path d="M424.825 181.257c-2.677.5-5.27.582-7.887-.2a24.956 24.956 0 01-3.342-1.251c-.314-.145-.738-.395-1.15-.54-.327-.116-.641-.16-.878-.052a.068.068 0 01-.09-.033.071.071 0 01.037-.092c.296-.132.642-.073.981.046.43.152.858.406 1.162.544a24.762 24.762 0 003.325 1.245c2.59.775 5.157.695 7.82.197a.067.067 0 01.08.055.072.072 0 01-.058.08m11.553-3.261c-.61-.12-1.375-.095-2.065-.295-.748-.217-1.427-.413-2.212-.277-.472.081-.96.28-1.472.339-.15.017-.357.018-.543.025a3.58 3.58 0 00-.25.015.443.443 0 00-.133.028.068.068 0 01-.093-.026.07.07 0 01.029-.094.528.528 0 01.188-.045c.226-.024.584-.016.791-.04.486-.055.972-.251 1.464-.337.824-.143 1.528.064 2.275.28.66.193 1.42.168 2.053.293.037.007.06.043.051.08a.072.072 0 01-.083.055m-2.349-2.112c-1.438-.172-3.179-.324-4.555-.044a.067.067 0 01-.08-.054.072.072 0 01.057-.082c1.408-.284 3.158-.129 4.599.043a.066.066 0 01.058.077.072.072 0 01-.08.06m-1.668-1.897c-.015-.04-.05-.07-.113-.094-.137-.05-.389-.036-.638.002-.25.036-.499.092-.654.111-.273.034-.533-.02-.782-.073-.248-.055-.485-.11-.71-.093a.066.066 0 01-.072-.064.072.072 0 01.067-.073c.254-.019.503.041.75.095s.492.101.735.071c.142-.017.395-.074.65-.111.258-.036.519-.059.705.005a.3.3 0 01.193.17.071.071 0 01-.04.091.068.068 0 01-.09-.037m-2.293-1.857a.33.33 0 00-.124-.076.644.644 0 00-.414.02.067.067 0 01-.087-.043.071.071 0 01.046-.088.78.78 0 01.505-.02.465.465 0 01.173.107.069.069 0 01-.001.098.07.07 0 01-.098.002m17.379 16.738c-.122.014-.281.084-.452.19-.258.161-.544.4-.809.636s-.507.466-.683.612c-.836.692-1.619 1.173-2.558 1.714-1.087.625-2.519.916-3.474 1.621-.817.602-1.627 1.281-2.45 1.914-2.545 1.96-5.94 2.752-8.852 2.918a.067.067 0 01-.07-.065.072.072 0 01.067-.073c2.894-.164 6.264-.953 8.773-2.888.819-.63 1.63-1.31 2.452-1.915.995-.731 2.432-1.02 3.488-1.63.937-.54 1.71-1.017 2.538-1.701.226-.187.582-.535.952-.845.185-.155.374-.3.555-.413.181-.113.353-.193.511-.213a.066.066 0 01.075.06.072.072 0 01-.063.078m-28.641 7.739a.328.328 0 00-.115-.073c-.077-.027-.155-.011-.259.027-.102.037-.222.094-.366.12a2.013 2.013 0 01-.687-.007c-.211-.031-.412-.07-.626-.062-.297.012-.493.055-.705.08a2.192 2.192 0 01-.769-.042c-.707-.151-1.35-.047-2.09-.235-.672-.173-1.378-.056-2.064-.295l-.003-.002c-.334-.118-.631-.301-.946-.411a1.577 1.577 0 00-.527-.099c-.328 0-.79.15-1.256.276-.467.123-.94.222-1.318.091a.942.942 0 01-.064-.025c-.185-.08-.3-.211-.338-.37-.039-.16-.009-.339.065-.53.214-.546.794-1.214 1.38-1.802a18.505 18.505 0 011.421-1.275c.446-.353.94-.84 1.456-1.291.517-.452 1.056-.87 1.606-1.087a.068.068 0 01.09.038.071.071 0 01-.043.09c-.52.204-1.052.612-1.564 1.06-.512.448-1.006.935-1.461 1.296-.235.186-.827.684-1.408 1.265-.582.58-1.153 1.247-1.348 1.752-.068.175-.089.327-.06.445.031.118.107.212.264.282a.699.699 0 00.054.022c.32.115.776.03 1.236-.095.462-.122.926-.279 1.292-.28.207 0 .395.044.574.107.331.117.63.3.946.411l.002.001c.642.229 1.344.113 2.052.292.708.182 1.347.079 2.085.234.322.068.523.064.725.04.201-.023.406-.069.715-.08.235-.01.445.032.652.062.208.031.412.051.64.01.123-.023.233-.075.344-.115.11-.04.228-.072.353-.028a.457.457 0 01.16.1c.028.026.029.07.002.098a.07.07 0 01-.098.005" fill="#e3be9d"/><path d="M408.755 198.412c-.626-.013-1.21-.169-1.778-.369-.547-.192-1.079-.426-1.62-.616-.608-.215-1.227-.374-1.89-.362-.77.015-1.533.125-2.31.183-.675.048-1.123-.065-1.768.043l-.131.022.06-.119c.22-.435.62-.747 1.036-1.047.417-.3.852-.586 1.153-.954.673-.82 1.36-1.78 2.126-2.535.514-.507 1.087-.789 1.658-1.033.571-.244 1.142-.452 1.662-.804a.069.069 0 01.096.017.07.07 0 01-.02.097c-.54.364-1.121.574-1.687.816-.567.243-1.119.516-1.613 1.003-.754.742-1.439 1.698-2.116 2.524-.321.391-.767.683-1.18.98-.414.297-.793.599-.992.994l-.061-.029-.01-.068c.676-.112 1.132.003 1.782-.045.77-.057 1.537-.168 2.318-.183.687-.013 1.323.152 1.938.369.547.193 1.08.426 1.62.617.561.197 1.13.348 1.735.36a.067.067 0 01.066.07.073.073 0 01-.074.068" fill="#e3be9d"/><path d="M400.15 199.094c-.529-.039-1.351-.16-2.022-.269-.693-.114-1.637-.362-2.323-.32-1.064.062-2.21.711-3.288 1l-.116.03.034-.114c.013-.041.027-.082.043-.123.273-.7 1.064-1.436 1.608-1.874 1.09-.873 2.396-1.634 3.555-2.396 1.181-.775 2.551-1.864 3.489-2.681a.07.07 0 01.097.005.07.07 0 01-.008.097c-.942.822-2.315 1.912-3.505 2.694-1.164.764-2.466 1.523-3.544 2.387-.535.428-1.314 1.166-1.563 1.814a1.338 1.338 0 00-.038.112l-.067-.018-.016-.066c1.053-.279 2.204-.936 3.316-1.005.723-.041 1.67.211 2.354.322.668.109 1.49.23 2.01.268a.066.066 0 01.061.073.072.072 0 01-.077.064m-5.238-3.675c-.71.696-1.628 1.133-2.324 1.798-.625.596-1.113 1.3-1.674 1.921-.21.232-.563.649-.944 1.006a3.902 3.902 0 01-.583.462c-.193.12-.384.197-.564.191a.066.066 0 01-.065-.07.073.073 0 01.074-.068c.135.006.304-.057.485-.17.272-.167.568-.44.833-.714.266-.275.502-.55.662-.727.553-.61 1.043-1.32 1.682-1.929.72-.685 1.638-1.122 2.322-1.797a.07.07 0 01.098-.001.07.07 0 01-.003.098m37.588 4.709c-.443.178-.891.125-1.306.254-.406.124-.837.352-1.248.504-.67.247-1.19.455-1.874.612a.067.067 0 01-.081-.051.072.072 0 01.054-.083c.672-.154 1.185-.359 1.857-.607.399-.147.831-.376 1.256-.507.453-.136.895-.085 1.293-.25a.067.067 0 01.09.038.071.071 0 01-.041.09" fill="#e3be9d"/><path d="M391.588 237.992c-.187.405-.448.716-.81.899-.448.227-1.098-.095-1.565-.135l-2.013-.169.003-63.068 4.839.409V176c0 9.388 0 18.776-.002 28.162l-.001 20.214v7.991c0 2.05.153 4.32-.451 5.624" fill="#916a3b"/><path d="M391.234 238.939l-4.84-.409.004-63.069 4.84.408-.004 63.069" fill="#d9a272"/><path d="M388.634 238.625c.272-2.235.3-4.39.404-6.654.04-.883.035-1.917.054-2.92.02-1.001.066-1.97.201-2.702l-.1-.1-.101.09c.025.127.048.254.07.383.32 1.805.431 3.767.52 5.748.09 1.98.156 3.98.398 5.859l.104-.06-.107-.053-.004.067c0 .027-.004.047.008.13.006.033.02.095.055.136.035.041.072.03.09.014.022-.02.03-.039.038-.051.02-.048.023-.067.032-.095l.028-.11.01-.034-.004-.004.003.004-.002-.005.003.005-.066-.12.051.15.015-.03-.066-.12.051.15-.135-.394c-.018.033-.022.05-.028.066-.016.05-.027.1-.039.144l-.012.047v.002l.045.076-.04-.088-.006.013.046.076-.041-.088.073.156-.037-.208c-.027.024-.031.044-.036.052l.073.156-.037-.208.04.226.047-.212c-.035-.04-.07-.029-.087-.014l.04.226.047-.212-.047.211.1-.08a.292.292 0 00-.053-.131l-.047.211.1-.08-.083.066.09.023c-.001-.008.004-.014-.007-.09l-.083.068.09.022-.015-.004.014.004-.014-.005.014.004.002-.017.004-.056-.007-.057c-.233-1.81-.3-3.782-.39-5.77-.09-1.989-.2-3.997-.533-5.882a26.163 26.163 0 00-.074-.4l-.105-.533-.097.525c-.151.828-.196 1.84-.216 2.862-.02 1.02-.014 2.05-.053 2.89-.105 2.289-.134 4.412-.398 6.578l.21.144" fill="#e3be9d"/><path d="M387.721 237.495h-.038l-.014-.001-.013.001c-.007 0-.015 0-.034.016-.014.01-.045.045-.061.129a.545.545 0 000 .187.25.25 0 00.017.067l.008.022.19.484v-.632c-.001-2.219.202-4.213.317-6.44.072-1.422-.012-2.818.078-4.155.078-1.195.31-2.372.336-3.694.031-1.769.095-3.333.195-5.132.093-1.72.407-3.37.332-5.301l-.11.012-.106.046c.524 5.096.628 10.317 1.463 15.175.257 1.489.184 3.024.254 4.703.065 1.505.267 2.76.268 4.279l.219.016c-.004-1.617-.21-2.897-.27-4.323-.07-1.61.012-3.201-.268-4.835-.819-4.753-.925-9.952-1.453-15.107l-.215.059c.073 1.78-.229 3.39-.331 5.199-.1 1.807-.165 3.387-.197 5.171-.02 1.203-.247 2.364-.333 3.643-.094 1.427-.01 2.829-.08 4.17-.112 2.194-.318 4.21-.318 6.496l.11.01.08-.158-.031.061.033-.056-.002-.005-.031.061.033-.055-.078.13.092-.074-.014-.056-.078.13.092-.074-.1.08.1.1a.516.516 0 000-.18l-.1.08.1.1-.1-.1.04.226c.014-.01.044-.044.06-.126l-.1-.1.04.226-.037-.21.009.223.028-.013-.037-.211.009.224-.006-.14.001.14h.005l-.006-.14v.14c.003 0 .035.006.074 0l-.022-.487" fill="#e3be9d"/><path d="M386.777 238.053c.397-2.223.258-5.266.258-7.604-.003-3.12.012-6.264-.104-9.444-.119-3.202.563-7.294.975-10.395.238-1.8.43-3.661.537-5.54.072-1.29-.02-2.727.131-3.863l-.105-.077-.106.046a170.13 170.13 0 001.864 12.932c.182 1.025.362 2.468.397 3.511.034.964-.108 2.066-.084 3.238.043 2.009.11 3.525.336 5.4l.21-.11c-.22-1.832-.284-3.295-.328-5.295-.026-1.067.119-2.162.084-3.25-.039-1.128-.223-2.588-.412-3.658l-.026-.148a169.015 169.015 0 01-1.828-12.712l-.095-.92-.117.89c-.166 1.281-.067 2.741-.138 3.936a74.13 74.13 0 01-.53 5.466c-.406 3.083-1.103 7.194-.983 10.57.115 3.151.1 6.28.103 9.406.005 2.37.13 5.376-.243 7.424l.204.197" fill="#e3be9d"/><path d="M387.173 204.24c-.03-2.391.368-4.81.51-7.272.062-1.067.061-2.585.139-4.01.075-1.428.236-2.739.573-3.37l-.072-.189-.087.14c.18.54.326.905.444 1.247.12.343.212.662.298 1.148.03.169.059.356.087.572.183 1.41.383 2.728.543 4.151.127 1.143.258 2.31.38 3.451.046.426.064.996.086 1.555.023.562.048 1.11.123 1.543l.012.067.2-.184-.01-.048c-.058-.326-.086-.851-.107-1.404-.023-.554-.04-1.136-.091-1.625-.122-1.146-.254-2.315-.382-3.457-.163-1.449-.363-2.774-.545-4.17a13.75 13.75 0 00-.093-.616 7.723 7.723 0 00-.33-1.273c-.126-.364-.268-.717-.441-1.238l-.072-.216-.088.168c-.412.795-.565 2.209-.646 3.67-.079 1.461-.078 2.993-.137 4.007-.136 2.39-.542 4.828-.513 7.347l.219.005" fill="#e3be9d"/><path d="M387.396 190.671l-.031.057.035-.042-.004-.015-.031.056.035-.042-.012.015.013-.013v-.002l-.013.015.013-.013a2.521 2.521 0 01-.01-.362c.014-.696.14-2.064.278-3.35.137-1.292.285-2.517.343-2.98.27-2.191.349-4.913.724-6.832l-.1-.105-.063.196c.118.183.25.675.355 1.28.185 1.052.314 2.429.382 3.196.157 1.77.23 3.578.395 5.39.075.821.102 1.856.148 2.91.047 1.055.113 2.13.275 3.054.072.405.162.781.28 1.11l.169-.295c-.1-.28-.18-.61-.246-.98-.149-.84-.215-1.878-.26-2.919-.046-1.041-.072-2.084-.152-2.96-.162-1.776-.235-3.584-.395-5.387-.07-.775-.197-2.169-.394-3.282-.115-.642-.245-1.197-.432-1.508l-.11-.179-.053.27c-.395 2.039-.469 4.774-.734 6.894-.066.535-.251 2.064-.403 3.557a66.114 66.114 0 00-.186 2.086c-.02.302-.034.57-.039.794-.003.227-.003.4.025.565a.7.7 0 00.033.127l.165-.306" fill="#e3be9d"/><path d="M145.313 172.268q0 .424-.188.797-.176.373-.493.653t-.74.445q-.423.156-.893.156h-.575q-.458 0-.846-.145-.376-.145-.67-.394t-.469-.58q-.176-.342-.211-.725h1.444q.07.259.247.445.188.176.517.176h.493q.211 0 .376-.072t.281-.197q.13-.124.2-.28.07-.165.07-.352v-4.93h1.457zm4.539.973h-2.15l-.293 1.078h-1.42l2.054-7.054h1.527l1.973 7.054h-1.41zm-1.867-1.046h1.597l-.74-2.88h-.082zm4.559-4.93h1.492v7.054h-1.492zm5.926 0q.457 0 .856.155.4.145.682.404.293.259.458.611.176.352.176.746v.31q0 .394-.176.747-.165.341-.458.61-.282.26-.682.405t-.857.145h-2.02v2.92h-1.41v-7.053zm-2.02 1.232v1.668h1.784q.505 0 .74-.218t.235-.61q0-.374-.235-.601-.235-.239-.74-.239zm10.708 3.771q0 .424-.176.797t-.493.653-.74.445q-.423.156-.904.156h-.905q-.481 0-.904-.156-.423-.165-.752-.445-.317-.28-.505-.653-.176-.373-.176-.797v-5.003h1.445v4.93q0 .187.07.352.082.156.212.28.14.124.317.197.188.072.387.072h.705q.2 0 .376-.072.188-.073.317-.197t.211-.28q.082-.165.082-.352v-4.93h1.433zm2.566-.798v2.849h-1.492v-7.054h3.43q.457 0 .857.155.399.145.68.404.294.259.459.611.176.352.176.746v.31q0 .394-.176.747-.165.341-.458.61-.282.26-.681.405t-.858.145h-.399l2.713 2.92h-1.703zm0-2.973v1.668h1.703q.505 0 .74-.218t.234-.61q0-.374-.235-.601-.234-.239-.74-.239z" aria-label="JAIPUR"/><path d="M394.383 183.49v3.307h-.974v-5.05h.974l1.845 3.337v-3.337h.95v5.05h-.95zm4.572 2.454h2.707v.853h-3.737v-5.05h3.737v.853h-2.707v1.245h2.707v.846h-2.707zm7.925-.882h.056q.208-.838.423-1.647l.44-1.668h.974l-1.342 5.05h-1.038l-.894-3.248-.863 3.248h-1.046l-1.381-5.05h.974l.902 3.315h.048l.216-.809q.16-.63.32-1.246.167-.622.335-1.26h.974zm5.43-3.315h2.484q.263 0 .495.104.24.103.415.289t.271.43q.104.237.104.512v2.38q0 .282-.104.52-.095.236-.271.422t-.415.289q-.232.104-.495.104h-2.484zm2.236 4.115q.12 0 .216-.044t.167-.119q.08-.074.12-.17.04-.104.04-.223v-2.076q0-.111-.04-.208-.04-.104-.12-.178-.072-.081-.167-.126t-.216-.044h-1.238v3.188zm3.354.082h2.707v.853h-3.737v-5.05h3.737v.853H417.9v1.245h2.707v.846H417.9zm4.352 0h2.946v.853h-3.904v-5.05h.958zm7.326.853h-1.006v-2.106h-1.749v2.106h-1.014v-5.05h1.014v2.098h1.749v-2.098h1.006zm.779-5.05h1.014v5.05h-1.014zm-23.717 14.349q-.319 0-.606-.111-.288-.119-.503-.32t-.344-.466q-.12-.267-.12-.571v-2.195q0-.297.12-.564.128-.274.344-.474t.503-.312q.287-.119.607-.119h.686q.312 0 .575.104t.455.29q.2.177.32.422.12.237.152.527h-1.007q-.04-.2-.151-.334t-.352-.134h-.67q-.28 0-.448.193-.16.186-.16.453v.54q.296-.11.6-.11h.623q.327 0 .614.118.288.112.495.312.216.2.344.474.128.267.128.571v.238q0 .304-.128.57t-.344.468q-.207.2-.495.319-.287.111-.614.111zm-.598-1.49q.016.259.175.437.168.178.432.178h.607q.279 0 .439-.185.167-.193.167-.46v-.141q0-.267-.167-.452-.16-.186-.44-.186h-.606q-.28 0-.448.186-.16.178-.16.444zm5.689-3.619q.304 0 .575.11t.471.298q.208.185.32.437.12.252.12.541v2.314q0 .282-.12.534-.112.252-.32.437-.2.186-.47.297t-.576.111h-.814q-.304 0-.575-.11t-.471-.298-.32-.437q-.112-.252-.112-.534v-2.314q0-.289.112-.541.12-.252.32-.437t.47-.297.576-.111zm.56 1.535q0-.126-.057-.238-.048-.118-.143-.207-.088-.09-.208-.134-.12-.052-.264-.052h-.59q-.144 0-.264.052-.12.045-.216.134-.087.089-.143.207-.048.112-.048.238v2.01q0 .125.048.244.056.119.143.208.096.081.216.133.12.045.264.045h.59q.144 0 .264-.045.12-.052.208-.133.095-.09.143-.208.056-.119.056-.245zm5.689.615q-.208 0-.336.052-.127.045-.2.126-.063.082-.087.193t-.024.245v2.313h-.934v-2.306q0-.133-.024-.245-.024-.118-.096-.2-.064-.081-.192-.126-.128-.052-.343-.052h-.192q-.207 0-.343.052-.128.045-.2.126t-.104.2q-.024.112-.024.245v2.306h-.934v-3.774h.934v.111q.312-.111.663-.111h.352q.319 0 .566.089t.424.245q.191-.156.447-.245t.575-.09h.415q.351 0 .623.112t.447.297q.184.178.272.415.095.23.095.467v2.484h-.926v-2.306q0-.133-.024-.245-.024-.118-.096-.2t-.2-.126q-.127-.052-.335-.052z" fill="#fff" aria-label="NEW DELHI 60m"/><g fill-rule="evenodd"><path d="M259.131 198.998c-5.643-20.4-12.584-40.083-17.736-59.969-1.918-7.394-3.588-14.817-4.853-22.315l5.162 4.452-5.41-5.953c-.902-5.59-1.571-11.224-1.947-16.92-.067-1.045-.134-2.086-.197-3.123l7.594 8.816-7.816-12.646c-.978-17.458-1.414-34.128-3.789-51.956 10.52 16.325 19.208 23.53 16.348 42.377l4.925-7.547c3.662 24.918 10.57 50.014 1.977 73.038-6.298 16.877 3.095 36.112 10.48 56.955l-4.736-5.21" fill="#a0ba2c"/><path d="M254.839 199.438c-5.224-16.914-10.537-43.964-22.396-57.771-1.63-1.899-3.25-3.823-4.793-5.777-2.905-3.685-5.541-7.48-7.478-11.43-4.28-8.738-4.975-17.865-4.053-29.851 4.865 17.427 20.128 29.613 24.394 45.454 5.489 20.393 10.778 51.22 21.218 65.165h-3.283l-3.61-5.79" fill="#68a729"/><path d="M256.486 201.57c-1.071-18.924-5.006-34.422-8.876-52.927-2.183-10.431-2.843-20.259-1.952-32.399l3.937 14.933-1.64-15.237c4.387-10.951 8.462-16.79 16.406-25.903l1.312 10.972.33-11.58c14.669-16.178 28.715-18.761 50.862-21.333l-19.033 20.418-9.516 3.962 8.204-.304c-5.18 8.891-10.373 17.708-15.094 26.815l-13.783 4.572h9.845l-2.953 6.4-3.61 8.836-10.83 10.057 7.22-3.048c-10.679 12.623-10.527 15.333-8.532 31.693l2.626 21.027 1.641 20.112-10.173-.609 3.61-16.456" fill="#86af20"/><path d="M265.845 108.607c9.411-14.143 15.34-21.59 29.35-31.798-9.104 7.433-15.082 12.882-21.585 22.315l13.757-.51-14.673 2.157-5.137 6.928 12.472-.455-12.718 1.591-3.362 6.245 11.679.341-12.474.909c-1.824 3.937-3.251 7.873-4.097 11.811l11.19-2.271-11.8 3.463c-7.257 22.165-2.243 50.848 2.751 73.761l-2.201 4.316c-4.748-32-11.531-70.363 6.847-98.804" fill="#98b41b"/><path d="M249.972 221.27l1.588-21.22-3.282-12.798-4.594-12.494-3.61-5.181-4.595 5.486c-11.732-1.038-16.43 6.043-24.608 13.407-4.61-4.754-7.553-.103-1.969 3.353-8.306 6-10.204 13.323-14.44 22.246-9.096-14.598-13.051-37.756 2.724-52.262 16.266-14.958 36.398-18.73 46.168 2.284l1.97 4.876 17.54 52.304h-12.892" fill="#739836"/><path d="M238.267 156.236a26.86 26.86 0 011.873 2.318c-7.893-3.003-14.852-3.007-20.878-.834-1.667 5.965-1.026 10.222-.376 17.908-2.041-6.784-1.875-10.673-.946-17.394a27.72 27.72 0 00-4.133 2.186c-1.574 5.36-.943 9.264-.302 16.231-1.963-6.006-1.885-9.548-1.048-15.314a33.775 33.775 0 00-4.016 3.415c-1.438 5.102-.82 8.934-.195 15.646-1.858-5.609-1.886-9.04-1.176-14.215-8.604 9.45-13.892 24.385-15.821 39.426 1.375-25.881 15.457-57.745 47.019-49.374" fill="#829f2e"/><path d="M257.784 204.004c8.597-25.553 14.33-64.075 36.751-81.062v2.744c9.011-7.112 17.212-6.78 28.878-8.533l-7.218 7.923 9.187-8.532c27.468 5.277 33.053 20.323 42.986 41.748l-16.734-12.494-6.893-9.142 1.97 8.228-10.172-.305-10.829-10.97 4.922 8.228c-15.648 6.459-28.319 8.574-42.986 17.37l-4.923-3.963v6.096c-10.885 6.916-15.098 19.34-17 30.559 2.97-4.517 5.439-6.8 9.384-8.997 2.717-1.513 5.054-2.328 7.349-2.738 10.34-1.845 16.491 1.542 20.87 7.454 5.56 7.502 5.293 13.94 15.095 6.613-7.662 11.346-22.42 8.536-30.687-2.376-2.557-3.375-5.196-7.055-7.6-9.023-.884-.723-2.101-.226-5.004 1.491-3.1 1.834-4.211 3.98-5.45 7.675l2.542-1.405c-3.401 11.057-.56 20.311 2.845 30.668h-17.282v-17.258" fill="#7aa32e"/><path d="M263.4 187.2c10.891-35.861 40.08-76.389 88.292-52.468-12.7-6.07-24.282-7.574-34.668-5.686 4.065 4.775 7.98 9.228 11.272 13.745l-.15.058a191.872 191.872 0 00-13.087-13.404 48.424 48.424 0 00-9.663 3.303c5.799 4.311 9.82 7.846 14.262 13.206l-.085.029c-4.757-5.13-9.129-9.328-15.76-12.471-4.179 2.107-8.108 4.793-11.781 7.954 5.01 2.589 8.942 5.292 13.433 8.712-4.852-2.92-9.33-5.482-14.549-7.731-10.357 9.31-18.61 22.404-24.581 36.805l-2.936 7.949" fill="#86af20"/></g><g fill-rule="evenodd"><path d="M58.298 139.222c0 11.392 13.822 20.627 30.874 20.627 17.05 0 30.873-9.235 30.873-20.627s-13.823-20.627-30.873-20.627c-17.052 0-30.874 9.235-30.874 20.627"/><path d="M100.51 151.287s2.04 6.706 5.206 9.562c3.167 2.856 5.636 3.415 5.636 3.415s-2.576-5.216-2.362-8.879c.215-3.663.698-3.974 1.45-5.526.751-1.552-2.094-2.297-5.153-2.546-3.06-.248-4.778 3.974-4.778 3.974" fill="#fff"/><path d="M61.013 139.542c0 10.508 12.75 19.025 28.477 19.025s28.476-8.517 28.476-19.025-12.749-19.024-28.476-19.024-28.477 8.517-28.477 19.024" fill="#fff"/><path d="M101.816 153.957s-1.018 9.148 11.542 12.082c0 0-5.556-7.404-3.623-14.808 0 0-1.208 1.397-1.329 4.61-.12 3.213.966 5.867 1.57 6.985 0 0-5.193-3.353-7.367-7.544a16.783 16.783 0 01-.793-1.325"/></g><path d="M141.285 183.972h.79l1.926 4.252v-4.252h.57v5.082h-.791l-1.925-4.252v4.252h-.57zm4.455 0h2.745v.578h-2.158v1.505h2.068v.579h-2.068v1.841h2.21v.579h-2.797zm3.381 0h.594l.913 4.296.91-4.296h.66l.913 4.296.91-4.296h.597l-1.09 5.082h-.74l-.915-4.412-.925 4.412h-.739zm8.757.564v3.953h.71q.898 0 1.314-.477.42-.476.42-1.505 0-1.02-.42-1.494-.416-.476-1.314-.476zm-.587-.565h1.207q1.262 0 1.852.617.59.612.59 1.92 0 1.314-.593 1.93-.593.616-1.85.616h-1.206zm4.584.001h2.745v.578h-2.158v1.505h2.068v.579h-2.068v1.841h2.21v.579h-2.797zm3.768 0h.588v4.503h2.114v.58h-2.702zm3.317 0h.587v2.083h2.134v-2.083h.588v5.082h-.588v-2.42h-2.134v2.42h-.588zm4.478 0h.588v5.082h-.588z" fill="red" aria-label="NEW DELHI"/><path d="M148.826 181.91h1.082v-3.737l-1.178.236v-.604l1.172-.236h.663v4.341h1.083v.558h-2.822zm5.581-3.904q-.512 0-.771.505-.256.502-.256 1.513 0 1.007.256 1.513.26.502.771.502.515 0 .771-.502.26-.506.26-1.513 0-1.011-.26-1.513-.256-.505-.77-.505zm0-.525q.824 0 1.257.653.437.65.437 1.89 0 1.237-.437 1.89-.433.65-1.257.65-.824 0-1.26-.65-.433-.653-.433-1.89 0-1.24.433-1.89.436-.653 1.26-.653zm4.28.525q-.512 0-.772.505-.255.502-.255 1.513 0 1.007.255 1.513.26.502.772.502.515 0 .77-.502.26-.506.26-1.513 0-1.011-.26-1.513-.255-.505-.77-.505zm0-.525q.823 0 1.257.653.436.65.436 1.89 0 1.237-.436 1.89-.434.65-1.257.65-.824 0-1.26-.65-.434-.653-.434-1.89 0-1.24.434-1.89.436-.653 1.26-.653zm5.638 2.017q.227-.407.542-.6t.742-.195q.574 0 .886.404.311.4.311 1.142v2.218h-.607v-2.198q0-.529-.187-.785t-.57-.256q-.47 0-.742.312t-.273.85v2.077h-.607v-2.198q0-.532-.187-.785-.187-.256-.578-.256-.462 0-.735.315-.272.312-.272.847v2.077h-.607v-3.675h.607v.57q.207-.337.495-.498t.686-.16q.4 0 .68.203.282.203.416.59z" fill="#d40000" aria-label="100m"/><path d="M127.211 155.851c3.543.02 6.313 1.049 9.549 2.413l-.21-1.013c.67.065 4.23 2.65 4.858 4.676l-.078 7.199.06 4.112.348 4.261-.657 4.137c-.707 1.881-1.612 4.13-2.448 5.512-6.092 2.252-15.442 1.118-19.556-.264-1.102-1.602-1.623-3.915-2.076-5.91l-.743-3.171.178-2.842c-.047-1.414-.085-2.598-.118-3.667l-.247-5.532c-.279-3.352-.746-5.522 1.424-6.636.97.948 1.165 1.152 2.346.69-.175-1.09-.373-2.788.92-3.793.084.453 2.262.604 2.262.604z" fill="silver" stroke="#000" stroke-width=".402"/><path d="M144.445 196.468c0 .157-1.208.284-2.7.284s-2.7-.127-2.7-.284c0-.157 1.21-.284 2.7-.284 1.492 0 2.7.127 2.7.284" fill="#78401f"/><path d="M120.292 196.312c0 .14-.409.252-.914.252-.504 0-.914-.112-.914-.252s.41-.252.914-.252c.505 0 .914.113.914.252m25.529 6.782c0 .14-.409.252-.914.252-.505 0-.914-.113-.914-.252 0-.14.41-.252.914-.252.505 0 .914.113.914.252" fill="#b56531"/><path transform="matrix(-.01517 -.97578 .97508 -.03998 -197.91 33.2)" d="M-156.23 345.64a2.991 2.306 0 01-2.974 2.306 2.991 2.306 0 01-3.008-2.28l2.99-.026z" fill="#f5d1a7" stroke="#000" stroke-opacity=".992" stroke-width=".408"/><path transform="matrix(.01517 -.97578 -.97508 -.03998 -197.91 33.2)" d="M-128.79-324.12a2.991 2.306 0 01-2.974 2.306 2.991 2.306 0 01-3.008-2.28l2.99-.026z" fill="#f5d1a7" stroke="#000" stroke-opacity=".992" stroke-width=".408"/><path d="M124.332 188.222l4.398.145h4.486l-.702 5.262c-3.328.27-3.704.34-7.563.19-.393-3.11-.506-2.636-.619-5.597z" fill="#f5d1a7" stroke="#000" stroke-width=".402"/><g stroke="#000" stroke-width="4.741"><path transform="matrix(.08292 0 0 .08532 96.421 139.827)" d="M488.42 1241.2c-.216-.149-.366-.39-.596-.516a7.51 7.51 0 00-3.076-.89 8.332 8.332 0 00-3.404.494l-45.025 16.207a9.52 9.52 0 00-3.09 1.844 10.348 10.348 0 00-2.217 2.797c-.39.716-.567 1.518-.78 2.306l1.4 7.965c.631.785 1.368 1.462 2.228 1.93a7.508 7.508 0 003.076.89 8.334 8.334 0 003.404-.494l45.025-16.205c.906-.326 1.675-.881 2.426-1.449zm-115.82 18.4c-.143-.33-.185-.698-.365-1.008-.552-.95-1.272-1.8-2.13-2.498s-1.85-1.241-2.948-1.576l-45.881-13.998a7.97 7.97 0 00-3.235-.309 7.456 7.456 0 00-2.908.961c-.283.165-.471.458-.73.659l.863 13.596c.73.51 1.487.996 2.369 1.265l45.881 13.996a7.97 7.97 0 003.234.31 7.454 7.454 0 002.909-.96c.573-.334 1.01-.857 1.48-1.336z" fill="navy"/><path transform="matrix(.08292 0 0 .08532 96.421 139.827)" d="M297.49 972.97l16.91 268.88c.26-.201.448-.494.73-.658a7.456 7.456 0 012.909-.961 7.976 7.976 0 013.234.308l45.881 13.998a8.682 8.682 0 012.95 1.576 9.15 9.15 0 012.128 2.499c.18.31.222.678.365 1.007l23-143.41c6.488-4.324 9.319 3.12 9.319 3.12l25.316 144.08c.212-.788.39-1.59.78-2.307a10.348 10.348 0 012.216-2.797 9.521 9.521 0 013.09-1.844l45.025-16.207a8.33 8.33 0 013.404-.494 7.507 7.507 0 013.076.89c.23.126.38.368.596.516l11.223-265.53v-2.665z" fill="#00f"/></g><path d="M120.126 252.202c.923.974 1.323 1.01 4.634 1.01s3.445-.775 3.445-3.152c0-2.377-.957-2.853-4.268-2.853-1.883 0-2.618.525-3.153 1.228-.405.533-.966 1.973-.658 3.767zm19.762 0c-.923.974-1.323 1.01-4.634 1.01s-3.444-.775-3.444-3.152c0-2.377.956-2.853 4.267-2.853 1.883 0 2.618.525 3.153 1.228.405.533.966 1.973.658 3.767z" fill="maroon" stroke="#000" stroke-width=".374"/><path d="M124.472 191.76h8.81l6.952-.122 2.543 1.13 1.163 1.55 1.212 6.988.524-8.903 4.822.267-1.096 12.603s-.755 1.699-1.504 2.698c-1.444 1.138-4.422 1.078-4.422 1.078l-3.158-5.432-.377 4.097-2.084 15.118h-16.762l-3.826-19.044-2.732 5.99-.132 9.149h-5.36l.179-11.662 4.504-12.502 1.827-2.245 1.84-.713z" fill="red" stroke="#000" stroke-width=".402"/><path d="M129.496 194.494c.348.801.456 1.483.31 1.956a2.357 2.357 0 01-.139.38 4.34 4.34 0 01-.47.74 169.494 169.494 0 01-.35.44 3.484 3.484 0 00-.462.875c-.07.216-.079.25-.106.435-.096.645.065 1.319.428 1.798.085.112.266.301.314.327.03.016.03.019-.01-.141-.2-.8-.108-1.725.218-2.191l.102-.156a2.68 2.68 0 01.138-.195 2.81 2.81 0 00.081-.105c.023-.032.09-.115.21-.256 1.269-1.502 1.188-3.048-.208-3.977-.12-.08-.12-.078-.056.07m-.573.725c.216.55-.016 1.088-.86 1.986a5.801 5.801 0 00-.436.508c-.552.77-.54 1.92.028 2.72.09.126.106.13.081.022-.069-.296-.092-.962-.044-1.28.09-.592.233-.875.748-1.473a8.24 8.24 0 00.453-.573c.463-.618.536-1.52.15-1.865-.144-.128-.155-.133-.12-.045m2.184 1.794a2.398 2.398 0 01-.34 1.026l-.064.105c-.096.161-.32.445-.65.821-.388.442-.397.455-.48.625a1.97 1.97 0 00-.141 1.153c.08.383.217.699.43.991.097.133.107.127.08-.046a5.324 5.324 0 01-.043-.697c.001-.668.11-.949.597-1.556.318-.395.506-.677.636-.954.268-.567.282-1.08.043-1.468l-.059-.095-.01.095m-2.827 5.278c-.396.015-1.346.093-1.591.13a352.004 352.004 0 00-.58.077c-.138.017-.312.045-.53.083l-.175.03c-.21.03-.65.169-.834.262-.652.328-.67.766-.055 1.263.904.73 2.724 1.172 4.764 1.16.253-.002.53-.008.614-.013.31-.02.575-.042.663-.056.05-.008.16-.023.245-.034.454-.06.84-.144 1.326-.29.164-.049.541-.189.726-.27 1.85-.806 1.922-1.607.168-1.842-.544-.072-1.61-.072-2.27 0l-.313.035a5.26 5.26 0 00-.427.055c-.035.007-.12.02-.189.029a4.34 4.34 0 00-.23.035c-.65.123-.84.161-.97.196-.038.01-.11.025-.16.034a.802.802 0 00-.126.028 1.09 1.09 0 01-.116.028c-.045.009-.079.019-.076.022.006.006.13-.016.346-.063.26-.056.636-.124.817-.148.084-.011.185-.026.223-.034.038-.008.136-.02.216-.029.081-.008.157-.018.17-.022a4.27 4.27 0 01.265-.028c.133-.011.312-.028.396-.036.207-.02 1.552-.02 1.717 0a7.648 7.648 0 011.271.241c.168.042.384.158.436.235.042.062.04.095-.011.173-.126.19-.315.326-.655.474a3.727 3.727 0 01-.42.13l-.216.05c-.139.03-.379.07-.614.103a8.095 8.095 0 00-.23.034 2.676 2.676 0 01-.203.02 2.834 2.834 0 00-.195.022c-.039.007-.177.02-.307.028-.131.007-.313.02-.405.028-.093.008-.284.02-.426.028l-.629.037c-.468.029-1.947.034-2.268.007-.517-.042-1.164-.129-1.376-.184a22.314 22.314 0 00-.265-.063c-.822-.193-1.47-.594-1.383-.857.066-.198.479-.402 1.188-.587a7.85 7.85 0 00.181-.05c.335-.098 1.611-.32 2.254-.39.099-.012.19-.024.202-.028a4.48 4.48 0 01.273-.028 2.87 2.87 0 00.257-.028 4.877 4.877 0 00-.473.003m-.286.995c-.038.01-.038.011-.007.011a.27.27 0 00.07-.01c.047-.016-.004-.016-.063 0m-3.753 1.347c.006.163.01.207.053.53.099.764.454 1.751.847 2.351a.834.834 0 01.068.115c0 .006.008.019.018.03s.04.049.065.087c.215.317.44.574.784.893a5.505 5.505 0 00.655.482 5.414 5.414 0 00.81.371 5.275 5.275 0 00.886.215c.242.048.81.066 1.124.037 1.235-.114 2.112-.562 2.986-1.523.091-.1.1-.107.094-.07-.008.05-.005.052.194.117.953.315 2.14.11 2.914-.503.536-.424.89-1.207.813-1.8-.097-.758-.69-1.316-1.228-1.153l-.07.021.12-.008c.8-.052 1.231 1.163.705 1.986-.099.154-.197.258-.44.467-.538.46-1.497.575-2.385.287-.197-.063-.194-.052-.066-.273a7.639 7.639 0 00.832-2.156c.051-.244.096-.504.094-.545 0-.037-.002-.038-.007-.007-.117.747-.632 1.902-1.147 2.575l-.075.099c-.48.64-1.25 1.169-2.064 1.42-.411.127-.622.17-1.165.236a9.54 9.54 0 01-1.09 0 6.53 6.53 0 01-.764-.127 5.506 5.506 0 01-.443-.126c-.62-.208-1.235-.588-1.656-1.024a5.375 5.375 0 01-.349-.414c-.207-.234-.565-.884-.746-1.354a12.972 12.972 0 00-.063-.161c-.094-.232-.224-.738-.298-1.166-.01-.061-.012-.043-.006.09m.018 2.866l-.21.034c-.92.148-1.429.518-1.429 1.038 0 .886 1.301 1.944 2.993 2.436.248.072.313.09.468.128l.218.054c.068.019.306.065.43.083a.834.834 0 01.113.022c.006.004.073.013.148.021.076.008.17.02.208.028.23.044 1.189.083 1.438.058.085-.008.26-.022.391-.03.13-.008.278-.02.328-.028l.245-.037a6.72 6.72 0 00.502-.087l.23-.05c.058-.013.124-.028.147-.036a9.747 9.747 0 001.068-.355 8.515 8.515 0 00.973-.482c.055 0 1.038-.709 1.038-.749 0-.01-.022.005-.098.062-.08.06-.431.292-.523.345a7.2 7.2 0 01-1.718.73l-.189.05c-.24.063-.546.123-.792.155a2.674 2.674 0 00-.188.028c-.027.01-.605.05-.841.058-.19.007-1.095-.04-1.125-.058a2.17 2.17 0 00-.196-.028 5.598 5.598 0 01-.643-.111 10.986 10.986 0 01-1.178-.315 11.704 11.704 0 01-.628-.223 9.785 9.785 0 00-.168-.07c-.979-.409-1.862-1.034-2.062-1.462-.217-.462.312-1.043 1.09-1.198.086-.017.053-.026-.04-.011" fill="#690606" fill-rule="evenodd"/><g fill="#f5d1a7" stroke="#000" stroke-width="1.261"><path d="M21.339 157.75l.094 6.993-2.55 8.126-5.104 8.977.284 8.41 3.402 8.788 3.024 1.7s2.79-.958 2.456-2.362c1.27.2 2.08-1.984 2.08-1.984.734.067.472-1.7.472-1.7.935-.736.472-2.93.472-2.93 1.804-.535 2.24-2.436 2.24-2.436s.892-3.932 1.257-6.352c.467-1.737 3.685-5.575 3.685-5.575l.945-6.71-.756-5.386v-7.56z" transform="matrix(.29111 0 0 .22583 104.14 183.362)"/><path d="M22.946 198.38l-1.965-3.41-2.005-4.678-.2-3.675 1.002-2.472 1.47-1.604 2.339-1.804-1.804 3.341-.401 3.274.334 2.339s.314 1.5.479 2.421c.2.735.26 1.606 1.392 2.857a27.175 27.175 0 011.438 1.427c-.802 1.67-1.478 2.118-2.079 1.984z" transform="matrix(.29111 0 0 .22583 104.14 183.362)"/><path d="M25.497 194.7s-.942-1.214-1.347-2.15c-.236-.85-.361-1.78-.621-2.536-.236-1.158-.024-2.055-.047-3.142 0-1.087-.048-2.457-.048-2.457l.473-2.126-.32-1.546-1.805 3.34-.4 3.274.813 4.76c.687 2.22.919 2.338 1.391 2.858l1.439 1.426s.696.012.472-1.701m.473-2.93c-1.27-.601-1.585-1.292-2.44-1.757" transform="matrix(.29111 0 0 .22583 104.14 183.362)"/></g><g fill="#f5d1a7" stroke="#000" stroke-width="1.261"><path d="M21.339 157.75l.094 6.993-2.55 8.126-5.104 8.977.284 8.41 3.402 8.788 3.024 1.7s2.79-.958 2.456-2.362c1.27.2 2.08-1.984 2.08-1.984.734.067.472-1.7.472-1.7.935-.736.472-2.93.472-2.93 1.804-.535 2.24-2.436 2.24-2.436s.892-3.932 1.257-6.352c.467-1.737 3.685-5.575 3.685-5.575l.945-6.71-.756-5.386v-7.56z" transform="matrix(-.29076 -.01434 .01113 -.22556 154.058 228.39)"/><path d="M22.946 198.38l-1.965-3.41-2.005-4.678-.2-3.675 1.002-2.472 1.47-1.604 2.339-1.804-1.804 3.341-.401 3.274.334 2.339s.314 1.5.479 2.421c.2.735.26 1.606 1.392 2.857a27.175 27.175 0 011.438 1.427c-.802 1.67-1.478 2.118-2.079 1.984z" transform="matrix(-.29076 -.01434 .01113 -.22556 154.058 228.39)"/><path d="M25.497 194.7s-.942-1.214-1.347-2.15c-.236-.85-.361-1.78-.621-2.536-.236-1.158-.024-2.055-.047-3.142 0-1.087-.048-2.457-.048-2.457l.473-2.126-.32-1.546-1.805 3.34-.4 3.274.813 4.76c.687 2.22.919 2.338 1.391 2.858l1.439 1.426s.696.012.472-1.701m.473-2.93c-1.27-.601-1.585-1.292-2.44-1.757" transform="matrix(-.29076 -.01434 .01113 -.22556 154.058 228.39)"/></g><path d="M148.146 181.589l.306-.28.201.538-.36.134-.147-.392" fill="#c12124"/><path d="M149.654 182.72l-1.556.58.047.127 1.557-.581-.048-.126" fill="#21201d"/><path d="M149.587 182.89l-.94.35 2.69 7.205.94-.35-2.69-7.204" fill="#dc2924"/><path d="M151.868 190.247l.468-.174c.03-.011.042-.053.027-.093l-2.662-7.132-.522.195 2.69 7.205m-3.42-8.396c.083-.031.117-.146.075-.257l-.097-.262-.256.234.052.14c.041.111.142.176.226.145" fill="#ef3120"/><path d="M148.753 181.801l-.577.216c.181.662.062 1.08-.078 1.286l1.556-.581c-.24-.064-.604-.302-.901-.92" fill="#21201d"/><path d="M150.889 190.613l.448-.167-2.69-7.205-.502.188 2.662 7.131c.015.04.052.064.082.053" fill="#c12124"/><path d="M77.709 133.14q0 .513-.201.964-.188.452-.526.79t-.79.54q-.451.187-.953.187h-.614q-.489 0-.902-.175-.401-.176-.715-.477t-.501-.702q-.188-.413-.226-.877h1.542q.075.313.263.539.2.213.552.213h.526q.226 0 .401-.088t.301-.238q.138-.15.213-.338.075-.2.075-.426v-5.967h1.555zm.771-1.88q.037-.402.175-.765.15-.364.426-.64t.69-.438q.413-.176.952-.176h.752q.564 0 .978.188.426.188.702.502.275.3.413.702.138.388.138.79v4.198h-3.56q-.413 0-.74-.15-.325-.163-.55-.414-.214-.263-.326-.614-.1-.351-.1-.752 0-.389.112-.727t.326-.577q.213-.25.526-.388.326-.15.727-.15h2.144v-.126q0-.226-.038-.414-.038-.2-.138-.338t-.3-.213q-.201-.088-.54-.088h-.313q-.501 0-.714.15-.213.138-.289.44zm1.29 2.43q0 .327.126.49.138.15.3.15h2.069v-1.278h-2.068q-.163 0-.301.163-.126.162-.126.476zm6.433 1.931h-1.479v-6.38h1.48zm0-7.07h-1.479v-1.466h1.48zm3.827.69q.551 0 .977.176.439.163.74.463.313.301.476.727t.163.966v1.717q0 .526-.163.965-.163.426-.476.74-.301.3-.74.463-.426.163-.978.163h-.4q-.552 0-1.003-.175v2.356h-1.454v-8.56zm-1.404 1.442v2.557q0 .413.25.676t.652.264h.501q.402 0 .665-.264t.263-.676v-1.63q0-.413-.263-.664-.263-.263-.665-.263zm7.414 3.509q.313 0 .5-.075.201-.075.314-.2.126-.126.176-.301t.05-.376v-3.999h1.466v6.38H97.08v-.163q-.2.088-.439.125-.225.038-.489.038h-.639q-.564 0-.99-.188-.414-.188-.69-.489-.275-.313-.426-.702-.137-.4-.137-.802v-4.199h1.453v3.898q0 .226.038.414t.15.338q.113.138.314.226.2.075.539.075zm5.076-3.647q.175-.288.464-.502.3-.225.651-.376.364-.15.765-.225t.802-.075h.163v1.554h-.163q-.451 0-.927.188-.477.175-.878.476-.388.288-.64.652-.237.363-.237.727v2.657h-1.554v-6.43h1.554zm3.619 5.565l.2-1.642h1.492l-.338 1.642zm-28.881 8.197l.99-1.554h1.68v8.536h-1.455v-6.982zm7.73-1.604q.476 0 .902.188t.74.501q.326.313.501.74.188.426.188.915v3.91q0 .477-.188.903-.175.426-.501.74-.314.313-.74.5t-.902.189h-1.279q-.476 0-.902-.188t-.74-.502-.5-.74q-.176-.425-.176-.902v-3.91q0-.49.175-.915.188-.427.501-.74t.74-.501.902-.188zm.877 2.594q0-.213-.087-.4-.076-.201-.226-.352-.138-.15-.326-.225-.188-.088-.414-.088h-.927q-.226 0-.414.088-.188.075-.338.225-.138.15-.226.351-.075.188-.075.401v3.397q0 .213.075.414.088.2.226.35.15.138.338.226.188.075.414.075h.927q.226 0 .414-.075.188-.088.326-.225.15-.15.226-.351.087-.2.087-.414zm6.026-2.594q.476 0 .902.188t.74.501q.326.313.501.74.188.426.188.915v3.91q0 .477-.188.903-.175.426-.501.74-.313.313-.74.5t-.902.189h-1.279q-.476 0-.902-.188t-.74-.502-.5-.74q-.176-.425-.176-.902v-3.91q0-.49.175-.915.188-.427.502-.74t.739-.501.902-.188zm.877 2.594q0-.213-.087-.4-.076-.201-.226-.352-.138-.15-.326-.225-.188-.088-.414-.088h-.927q-.226 0-.414.088-.188.075-.338.225-.138.15-.226.351-.075.188-.075.401v3.397q0 .213.075.414.088.2.226.35.15.138.338.226.188.075.414.075h.927q.226 0 .414-.075.188-.088.326-.225.15-.15.226-.351.087-.2.087-.414zm8.921 1.041q-.325 0-.526.087-.2.076-.313.213-.1.138-.138.326t-.038.414v3.91h-1.466v-3.898q0-.225-.038-.413-.038-.2-.15-.339-.1-.137-.301-.213-.2-.087-.54-.087h-.3q-.326 0-.539.087-.2.076-.313.213t-.163.339q-.038.188-.038.413v3.899h-1.466v-6.38h1.466v.188q.49-.188 1.04-.188h.552q.501 0 .89.15t.664.414q.301-.263.702-.414t.903-.15h.651q.552 0 .978.188t.702.501q.288.3.426.702.15.389.15.79v4.199h-1.453v-3.899q0-.225-.038-.413-.038-.2-.15-.339t-.314-.213q-.2-.087-.526-.087z" aria-label="Jaipur, 100m"/></svg>