<svg preserveAspectRatio="none" viewBox="0 0 506.41 285.75" xmlns="http://www.w3.org/2000/svg"><path fill="#fff" d="M-3.024-1.512h512.54v294.82H-3.024z"/><g fill-rule="evenodd"><path d="M-4.811-92.687C-2.078-69.786.876-45.808 1.635-42.561c1.5 6.419 18.83 65.579 17.455 75.32-1.375 9.742 3.65 48.161 4.568 51.01.401 1.247 3.635 5.344 5.06 13.741 1.833 10.795 1.785 26.721.618 31.965-2.075 9.321-3.211 32.078-3.211 32.078s2.873 24.71 1.646 33.165c-1.227 8.452.89 63.598 12.96 84.942 8.273 8.2 21.452 29.088 21.452 29.088l17.908 15.383s-37.77 22.75-48.154 22.011c-10.382-.74-133.227-18.198-138.897-16.56-2.64.763-10.412-2.26-17.96-5.71l-8.017-27.75c4.712-9.03 10.806-19.197 17.117-25.654 13.568-13.888 16.102-35.803 17.145-44.825s6.33-50.42 4.295-67.274c-2.04-16.854-6.711-45.408-6.711-45.408s.664-1.437 2.293-6.891c1.627-5.455-8.638-37.376-7.078-46.547 1.56-9.173-6.617-59.14-6.617-59.14s-1.227-29.235-4.71-40.067c-1.109-3.448-3.769-10.394-6.96-18.517L-4.808-92.683" fill="#30261f"/><path d="M-105.562-63.58c4.698 29.537 8.567 59.466 4.032 54.562-4.671-5.049-14.413-27.927-22.788-49.143l18.756-5.419" fill="#3d5e4d"/><path d="M-90.505-67.93c4.382 30.556 8.24 64.023 5.43 71.6-3.44 9.272-14.755 19.846-20.659 14.483-3.426-3.113-6.343-17.68-6.368-22.855-.045-9.469-4.538-36.741-7.698-54.767l1.478-.427c5.651 20.165 14.782 51.312 16.368 47.881 1.088-2.352-2.372-26.122-6.364-50.771l17.812-5.146" fill="#3e4a45"/><path d="M-80.098-70.937c1.687 21.203 3.585 41.724 5.3 48.59 3.917 15.688-1.379 37.776-6.251 45.414-4.87 7.636-9.055 24.42-6.855 31.26 2.2 6.84 8.293 18.784 8.293 18.784l-1.32-22.29 2.56-7.992 7.161-24.347s-4.446 44.142-5.639 54.455c-1.192 10.312-2.079 37.355 1.52 45.04 3.597 7.681 2.79 77.683 2.325 93.457-.464 15.775-8.326 38.023-10.491 49.759-2.165 11.735-18.542 32.13-18.542 32.13-7.516-7.17-20.834 6.347-21.088 7.283-.573 2.091-4.078 3.404-7.19 4.876l-1.55-5.365c2.482-5.732 6.146-13.028 10.459-18.696 9.114-11.978 18.333-21.367 18.333-21.367s1.886-4.563 3.811-12.595c1.927-8.032.84-22.516.84-22.516l3.644-40.02s4.905 35.057 3.78 49.086c-1.124 14.03.846 27.168.846 27.168s5.6-28.478 9.818-43.403c4.22-14.924.14-45.389-3.593-60.507-3.734-15.117-.17-35.06.93-31.64 1.1 3.42 8.013 33.848 8.013 33.848s.255-28.955-8.087-40.872c-8.34-11.919-8.759-23.896-8.759-23.896s7.506 4.061 7.77-.376c.264-4.437-1.936-11.277-5.383-20.249-3.45-8.97-14.273-18.33-12.68-25.644 1.593-7.312-2.671-12.615-.31-15.79 2.361-3.174 18.139-34.159 18.036-39.738-.054-2.86-3.557-32.4-6.767-60.65l11.066-3.197" fill="#3b3633"/><path d="M-112.678-5.169s2.796 11.365 9.822 18.152C-95.83 19.772-85.1 2.641-85.1 2.641s-10.39 24.603-13.567 30.504c-3.175 5.902 4.029 40.576 7.81 48.828 3.781 8.253-5.467 12.793-2.352 22.484 3.116 9.69 4.145 37.426 3.215 43.301-.928 5.876 4.729 45.714 2.88 54.777-1.848 9.064-2.74 41.066-3.656 38.217-.917-2.85-3.845-53.033-5.081-63.89-1.237-10.856-9.014-57.824-7.2-62.707 1.81-4.885 3.254-10.908 2.82-15.767-.328-3.643-4.29-21.96-6.163-34.355-.623-4.131 1.754-5.643.885-8.351-3.483-10.83-3.642-28.85-4.627-35.418-.984-6.568-2.541-25.43-2.541-25.43" fill="#3e5e42"/><path d="M-71.37 116.217s6.964 21.66 13.988 27.73c7.024 6.07 10.7 36.777 12.453 47.487 1.75 10.706 5.103 61.445 5.49 73.168.389 11.724 6.241 38.69 6.241 38.69s-35.878-15.179-45.571-6.77c-9.696 8.408-30.105 16.797-30.105 16.797s43.443-24.388 48.956-44.046c5.514-19.66 14.425-70.827 3.644-102.598-10.779-31.774-16.657-41.287-15.098-50.458" fill="#35332e"/><path d="M-74.34-72.6c1.929 21.263 4.011 41.555 5.38 47.318 3.184 13.409 7.821 40.102 4.383 50.44-3.44 10.338-2.97 17.055 1.774 21.291 4.743 4.237 2.425 28.578-.131 39.91-2.556 11.328-.393 44.343 6.48 51.702 6.875 7.358 15.26 40.445 19.177 56.134 3.919 15.688 4.872 95.776 6.373 102.194 1.499 6.418 4.832 18.538 4.832 18.538s2.226-10.61 2.364-31.21c.14-20.598-1.715-36.882-2.96-67.046-1.244-30.165-.888-48.336-10.03-66.252-9.144-17.917-11.227-27.905-9.28-25.353 1.947 2.552 24.781 50.777 25.684 62.353.905 11.574-.704 55.647-.67 57.506.035 1.86 4.669-46.824 6.16-59.713 1.493-12.892 3.247-30.22-5.31-44.565-8.56-14.347-22.664-38.93-23.235-51.224-.571-12.294 2.523-13.188 9.766-32.724C-26.337 37.162-47.02-5.098-47.02-5.098s13.334 56.22 6.345 52.01c-6.989-4.209-8.11-18.214-7.65-30.805.459-12.592-7.55-25.23-7.55-25.23s-.375-20.45-1.45-41.32c-.547-10.635-2.84-18.502-4.583-25.746l-12.432 3.592" fill="#443330"/><path d="M-55.519-78.038c4.098 34.424 9.197 71.603 12.355 73.992 2.699 2.044-1.245-51.464-.691-66.661.669-18.342 2.505 3.61 3.965 11.024 2.67 13.557 3.79 43.598 5.027 54.454 1.237 10.856.112 24.888 5.107 33.41 4.995 8.525-.851 28.904-3.442 38.373-2.591 9.47 1.416 39.46 4.35 48.58 2.931 9.122 8.98 27.933 8.98 27.933s-6.996-51.554-5.228-77.606c1.77-26.052-2.894-35.295-4.348-48.58-1.454-13.286.164-38.048 1.105-52.65.94-14.6-3.31-29.57 1.243-45.213.484-1.661.837-3.542 1.093-5.58l-29.514 8.526" fill="#4b3b2f"/><path d="M-8.576-91.6c-.319 6.137-.836 11.317-1.7 14.639-1.589 6.104 2.313 14.368 1.803 20.254-.785 9.054-5.95 13.65-4.546 15.887 2.314 3.692 4.786 25.404 6.253 29.965C-5.3-6.294 1.826 5.352 7.385 6.862c5.558 1.509 7.07-.798 7.07-.798s5.384 20.25 3.091 27.14C15.253 40.098 8.353 50.19 6.014 63.947 3.675 77.704 7.661 97.111 8.611 101.82c.951 4.71-15.467-23.565-22.01-31.641C-19.942 62.1-27.674 36.3-22.974 19.37c4.702-16.933 12.192-30.138 10.949-34.31-2.308-7.74-13.236 16.815-13.185 16.401.23-1.828 5.288-40.52 4.42-41.904-4.242-6.769-4.66-26.682-2.351-46.948l14.566-4.208" fill="#53413e"/><path d="M18.524 45.382s-7.84 24.692-9.217 34.434c-1.375 9.743-.903 32.376 3.978 44.048 4.88 11.672 15.125 10.67 15.125 10.67.837-4.039 1.514-8.172 1.083-12.972 0 0-3.873 2.766-7.919-2.712-2.768-3.749-6.297-14.77-6.034-19.654.642-12.02 7.504-15.783 7.504-15.783s-4.153-36.89-4.52-38.03" fill="#544436"/><path d="M14.675 7.148s.92 20.177-1.86 29.438c-.927 3.086-4.44.995-5.636 1.825-1.94 1.348-7.423 4.458-10.282.012-4.177-6.499-5.747-22.406-7.18-27.941-2.414-9.326.063-30.732 1.366-33.047 1.302-2.316 6.393-8.313 6.393-8.313S-6.035-7.233 1.256-.934c7.29 6.3 13.42 8.084 13.42 8.084" fill="#473d35"/><path d="M-15.345 73.472S.507 97.162 1.542 105.914c1.034 8.755 14.405 29.376 19.336 30.312 4.93.937 7.914-1.902 7.914-1.902s-3.058 23.713-3.435 26.97c-.377 3.258-9.1-13.902-13.19-16.657-4.09-2.755-14.971-24.409-16.185-37.047-1.215-12.638-5.183-20.544-11.328-34.12" fill="#544436"/><path d="M-17.021 82.617s2.132 38.747 1.516 46.796c-.618 8.05 8.407 41.655 7.537 47.81-.867 6.156-5.367 28.712-5.49 33.865-.125 5.152-3.796 19.203-3.796 19.203s5.96-20.223 9.652-15.384c3.693 4.836 7.453 43.11 4.02 52.367-3.433 9.259-16.872 20.62-18.204 25.335-1.333 4.715.01 24.401.04 20.062.03-4.339 11.449-18.658 17.264-17.19 5.813 1.47 10.855-27.146 11.944-39.27 1.087-12.121-7.2-41.216-8.827-58.459-1.629-17.242-3.546-26.53 1.125-39.687 4.672-13.158-6.983-29.472-8.734-41.561-1.75-12.09-8.28-34.607-8.047-33.887" fill="#4b3b2f"/><path d="M5.985 145.641s7.608 15.908 8.503 40.84c.895 24.933-4.64 56.447 2.273 70.195 6.913 13.746 24.77 52.67 28.114 56.428 3.346 3.756-17.73 3.548-18.644 7.354-.912 3.806 3.405-22.632-2.704-28.346-6.11-5.713-11.306-32.944-12.94-44.674-1.635-11.73 4.218-37.824-3.05-47.14-7.27-9.314-8.97-24.568-8.97-24.568s5.473 12.588 9.353 15.798c3.881 3.208 4.692 5.729 4.692 5.729s-4.054-12.605-3.879-20.921c.175-8.316-.049-14.55-2.748-30.695" fill="#4b3b2f"/><path d="M13.77 148.502s7.448 13.199 8.235 32.257c.787 19.06-5.566 53.566-3.648 62.85 1.917 9.288 3.957 31.135 9.711 41.279 5.755 10.147 14.754 30.376 14.754 30.376l10.722 1.231S37.09 288.58 32.703 281.583c-4.386-7-11.987-28.421-11.79-35.56.196-7.143 3.116-32.39 3.24-37.542.124-5.153 1.052-19.985 1.052-19.985s2.513 36.233 2.033 45.817c-.478 9.585 6.308 34.397 7.655 36.369 1.346 1.973 6.326 10.801 6.326 10.801s-8.614-29-11.103-45.6c-2.49-16.6-2.022-50.586-3.412-54.909-1.39-4.32-3.552-21.015-12.936-32.475" fill="#544436"/><path d="M-79.534 165.19s3.744 19.842 5.93 39.938c.36 3.288.674 6.585.925 9.8.07.892 2.958-13.297 3.222-29.09.292-17.35.584-39.316.816-38.222 5.168 24.48 7.296 53.065 3.496 77.6-1.494 9.647-5.57 23.183-7.366 31.045-1.79 7.823-12.323 19.248-12.872 22.18-.584 3.125 2.95-9.946 8.71-24.51 5.703-14.426-1.25-37.258-2.982-33.281-2.922 6.7-3.696 32.441-10.187 48.764-2.605 6.55-10.476 13.738-14.068 20.285-3.594 6.55-2.339 26.128-2.339 26.128l1.076 11.105s-11.94 3.842-15.304-1.09c-3.363-4.932 19.912-48.498 24.02-56.767.928-1.872-25.155 7.515-18.394 3.268 16.122-10.122 21.55-15.079 21.952-17.324 4.289-23.877 2.81-53.405 4.473-58.998.517-1.746-11.386-71.103-10.77-70.105 2.686 4.36 12.059 59.484 11.437 55.335-.444-2.964-4.368-57.759-6.82-82.78-.215-2.188 3.544-14.58 3.707-15.276.58-2.489.42 13.592.328 12.566-.414-4.603 8.593 46.085 8.593 46.085s2.462 25.698 2.419 23.35" fill="#37484d"/><path d="M-12.21-14.498s-6.555 49.593-1.54 62.158c2.977 7.46 3.709 15.062 5.232 21.253 1.042 4.234-5.506-43.818-2.75-41.404.343.302 7.52 24.94 13.784 15.872C10.028 32.504-.322 76.63.13 77.192c5.323 6.607 7.432 21.712 7.727 23.513.337 2.058 2.028 7.319.97 4.03-1.055-3.287-13.54-20.88-18.225-26.352-4.686-5.473-15.038-30.402-15.869-43.095-.831-12.696 5.645-35.425 13.056-49.783" fill="#43392f"/><path d="M2.44-38.523s9.824.857 14.379 1.652c4.553.795 10.436 10.18 17.185 2.952 6.748-7.227 11.174-5.34 11.242-9.581s-2.358-8.82.603-7.036c2.962 1.783 2.99 3.358 2.99 3.358s11.982-1.35 16.407.538c4.429 1.888 14.099 2.261 16.284 1.63 2.183-.63 14.872 4.675 19.27 4.988 4.398.313 9.066 7.409 12.34 10.157 3.27 2.75 24.026 16.81 28.171 19.307s13.806 10.263 18.611 8.874C164.727-3.072 171.224-8.116 174-8.39c2.777-.274 6.536-10.86 6.536-10.86l1.039-7.162s-.455-8.84 4.254-7.562 12.465 9.065 15.678 8.665c3.214-.4 11.533 6.168 15.281 2.975 3.748-3.194 4.466-3.93 6.001-8.068.588-1.586 1.093-3.943 2.097-5.763 1.614-2.926 3.697-4.83 3.312-2.661-.273 1.539-1.528 2.346-2.003 3.324-.611 1.258-.423 2.479-.39 2.5.062.036-1.562 4.623-1.381 5.598.18.973 2.215 1.133 3.004-.12.789-1.255 1.43-3.8 2.237-6.231.808-2.432.447-4.379 2.143-4.869 1.697-.49 3.123-.17 3.123-.17s-.752.95-1.566.892c-.814-.057-1.662.187-1.802 1.4-.14 1.213-.402 4.512-.402 4.512s3.316-2.863 5.366-1.843 4.789.647 4.789.647-.366.349-1.456.664-3.68-.331-4.485.049c-.805.378-3.721.781-4.842 3.89-1.119 3.107-3.241 4.746-4.468 4.222-1.228-.525-2.532-.515-2.532-.515s-.889 2.236-2.214 3.057c-1.324.824-2.52 2.049-1.784 2.276.735.226.886 3.993 2.107 4.08 1.22.088 4.116-5.732 5.551-4.975 1.436.759 1.744 4.186 3.725 3.76 1.983-.425 3.49-2.326 4.719-1.801 1.228.524 2.472 1.923 3.988.46 1.516-1.465 2.636-4.573 2.636-4.573s.63 1.137.083 2.32-2.037 3.96-2.556 4.404c-.52.443-3.575.006-4.646-.857-1.072-.863-2.755 2.555-3.775 2.264-1.021-.292-3.098-.571-4.014-1.772-.915-1.2-1.244-1.4-1.244-1.4s-1.25 2.706-2.245 3.726c-.997 1.021.015.875 1.252 1.837 1.236.962 4.948 1.796 6.887 1.235s4.728-3.418 4.728-3.418.942.46.224 1.108c-.718.647-4.192 3.85-4.798 4.025-.606.175-6.861.076-7.691-.856-.83-.933-1.374-1.801-2.793-1.684-1.42.116-3.012-.303-2.915-1.65.097-1.347-1.133-3.923-1.63-4.659-.5-.734-1.841-.786-1.841-.786s-3.567.444-4.475-.32c-.907-.764-2.42-1.352-2.42-1.352s3.378 4.739 3.566 6.15c.19 1.411.403 4.134 2.374 5.323 1.972 1.19 3.677 1.137 4.472 2.372.794 1.237.923 1.639.923 1.639s-.088 1.784-.433.712c-.346-1.073-.976-2.21-1.71-2.437-.736-.228-4.197-.694-5.026-1.627-.83-.932-1.943-3.982-2.538-5.422-.596-1.44-2.686-4.647-3.594-5.41-.908-.764-3.277-1.545-3.277-1.545s-4.56-.588-5.797-1.55c-1.236-.962-5.908-1.077-6.574-1.911-.666-.833-1.745-2.133-2.119-.414-.375 1.721.74 2.718.383 5.312-.357 2.596-2.55 13.488-2.55 13.488s4.6-3.82 5.797-7.098c1.197-3.276 2.22-5.037 3.554-5.423s2.49.747 4.04 1.031c1.548.286 4.183-.846 4.183-.846s2.134-.1.766.59c-1.368.687-3.964.85-3.783 1.825.18.974 2.54 3.37 2.678 4.21.137.839-.528.005-1.902-1.797-1.374-1.8-1.409-1.498-2.48-2.36-1.074-.863-3.884-1.37-4.294.654-.408 2.023-3.086 7.76-4.992 10.069-1.906 2.31-1.823 3.331-2.82 4.351-.995 1.021-2.442 1.88-2.442 1.88s-1.264 1.83-2.649 1.644c-1.383-.187-3.41.106-6.285 2.695-2.875 2.588-11.506 5.815-13.178 7.617-1.671 1.803-11.177-.58-13.814-2.603-2.638-2.022-22.926-11.989-25.028-13.58-2.1-1.592-2.992-1.481-1.828 2.14 1.164 3.62 3.865 11.194 4.307 17.514.443 6.32 1.933 14.245 1.768 14.145-.166-.098-4.69-16.232-4.72-20.033-.031-3.802-.885-6.047-2.162-9.195a88.57 88.57 0 01-2.053-5.562s-2.562-.14-3.227-.973c-.665-.834-.302-.939 1.553 4.827 1.853 5.767 1.362 5.469 1.796 11.352.435 5.884.875 7.662 1.184 9.038.31 1.376.74 11.364.44 10.425-.303-.938-1.331-10.314-3.11-14.197-1.777-3.882-.294-7.096-1.572-10.245-1.277-3.148-1.734-3.748-2.917-6.191-1.183-2.443-3.088-8.782-3.42-6.927-.33 1.855 3.854 28.052 5.856 35.094 1.998 7.043 3.592 14.058 3.903 15.434.31 1.376-5.867-16.186-6.557-18.331-.692-2.146-3.584-15.673-4.636-17.713-1.054-2.041-3.947-6.921-3.602-5.848.344 1.073 1.99 8.658 2.609 11.41.62 2.753 1.905 6.338 1.352 5.032-.552-1.306-1.76-5.06-4.082-9.813-2.322-4.751-3.684-10.22-5.1-14.208-1.413-3.988-1.827-6.507-1.827-6.507s-5.246-4.786-7.026-6.617c-1.78-1.83-10.549.556-12.677-.294-2.126-.852-6.403.678-7.008.853-.606.175 1.247 5.941.325 10.897-.923 4.956-.938 10.676 1.989 17.306 2.926 6.628 2.714 10.5 3.1 13.76.386 3.26-2.396-8.688-4.652-11.993-2.254-3.306-3.97-8.233-3.825-6.956.146 1.278 3.028 7.772 4.019 12.909.989 5.137 2.14 12.426 1.795 11.352-.344-1.073-1.705-6.542-3.39-9.72-1.683-3.177-2.718-6.395-4.263-10.785-1.544-4.39-.768 6.67-.051 8.076.717 1.404 1.414 3.988 1.414 3.988s-2.737-5.219-4.376-10.314c-1.638-5.096-5.628-20.798-6.086-21.398-.457-.6-2.329 1.405-1.562 5.434S57.489 10.27 57.42 8.825c-.069-1.447-1.352-7.084-2.457-9.696C53.86-3.483 52.58-4.58 52.58-4.58s.64 16.815.706 20.314c.064 3.498 2.874 14.704 4.132 19.031 1.25 4.328 3.126 15.072 3.126 15.072s-6.908-21.893-9.048-27.723c-2.139-5.83-6.93-25.257-7.381-23.368-.451 1.89 10.208 35.45 10.54 38.138.336 2.688 4.075 18.021 4.306 19.568.233 1.545-8.507-29.345-9.112-31.222-.602-1.878-3.737-8.74-4.893-11.923-1.154-3.183-5.16-13.165-4.885-11.486.276 1.68 1.87 15.289 2.69 17.837.819 2.546 2.842 12.955 3.119 12.582.276-.374-4.6-11.423-5.894-15.445C38.69 12.772 35.7 2.646 35.7 2.646s-3.439 2.898-6.776.345C25.587.438 24.728 4.35 21.853 4.887c-2.873.537-8.872 3.297-14.087.26C2.553 2.11-3.137-2.404-4.066-15.178c-.93-12.775 1.028-21.108 6.508-23.344" fill="#3e3633"/><path d="M184.465-6.375S183.39-.93 179.932-.379c-3.457.552-7.369 6.592-10.247 8.316-2.877 1.724-7.224 7.666-10.599 5.963-3.374-1.702-20.523-8.575-22.221-10.092-1.7-1.518-16.988-8.258-20.376-10.626-3.385-2.37-7.798-6.674-14.008-7.78-6.21-1.107-12.838-4.77-15.026-5.923-2.189-1.154-15.06-1.006-19.22 1.759-4.158 2.763-10.491 5.038-15.87 12.17C46.989.542 36.876-.775 36.876-.775s-1.919 3.455-4.29 2.355-6.05-2.492-9.233-.458C20.171 3.157 12.7 7.547 9.206 6.101 5.715 4.656-3.439-4.973-4.346-7.165c-.906-2.194 1.5-16.054 3.324-17.919C.8-26.95 2.745-22.157 3.492-18.579s2.488-6.075 4.754-4.05c2.267 2.022 3.078 5.804 4.102 7.74 1.027 1.935 2.953 2.271 5-.776 2.05-3.047 8.758-8.554 8.758-8.554s-6.051 7.549-5.014 10.15c1.038 2.601 1.683 3.977 5.008 3.017 3.325-.961 12.607-7.882 12.147-9.31-.459-1.431-4.889-3.275-2.56-7.964 2.328-4.69 2.435-5.613 5.352-8.464 2.92-2.851 3.593-3.27 3.938-4.708.346-1.438-.32-8.953-.32-8.953s1.995 4.712 2.04 6.707c.015.665.846 1.282.324 2.325-2.09 4.174-4.447 10.657-3.854 12.493.589 1.84 3.265 2.628 6.78-1.512 3.514-4.14 4.437-4.406 4.234-8.81-.206-4.403-.598-5.629-.598-5.629s3.055 1.348 2.706 5.912c-.35 4.564-2.98 9.564-2.98 9.564s7.216-1.416 9.042-6.406c1.828-4.99 1.224-7.494 1.224-7.494s3.058 1.348 1.696 4.642c-1.363 3.295-2.793 6.386-2.793 6.386s4.53-2.87 8.17-3.477c3.64-.605 5.106-1.698 2.734-2.797-2.373-1.1 3.484-2.346 5.87-.58 2.384 1.765 3.13 5.343 3.13 5.343s-4.481-1.383-9.391.928c-4.91 2.31-14.8 9.855-15.632 11.657-.834 1.803 19.022-12.413 26.722-11.068 7.701 1.346 11.702 6.885 14.89 8.641 3.19 1.756 12.943 6.972 11.207 3.457-1.737-3.515.061-6.712-.887-7.777-.947-1.065 4.224 7.482 5.23 4.96 1.005-2.522-2.078-5.2-.878-3.986 1.199 1.216 6.832 8.068 7.633 11.183.8 3.117 15.925 14.367 21.737 17.374 5.812 3.007 13.315 3.74 13.315 3.74S136.532-4.13 134.07-6.765c-2.463-2.636-6.887-7.606-7.4-8.574S143.704-1.292 150.546.525c6.842 1.817 12.285 4.93 13.405 5.275 1.12.346.796-3.8 2.579-4.538 1.782-.738-2.832-2.529-2.832-2.529s3.432-1.884 7.138-2.285c3.708-.402 6.388-2.738 6.388-2.738l1.699 1.517s-1.318-.958-1.618-3.773c-.299-2.814 3.947-10.958 4.44-14.448.492-3.489 1.7-8.525 1.7-8.525s-.271 5.435 1.772 5.513c2.045.08 2.944-1.519 2.944-1.519l3.57 2.315s-3.54-4.109-4.182 1.432c-.64 5.54-3.693 18.025-3.083 17.403" fill="#2b3835"/><path d="M61.302-29.93S47.756-19.323 45.255-13.914c-2.5 5.409-7.148 8.537-13.172 7.376-6.027-1.16-9.954-2.702-12.582-.828-2.626 1.874-2.68 2.336-8.296-.057-5.615-2.395-13.003-.26-13.003-.26S-.185-.786 3.002.97c3.19 1.756 6.5 3.255 10.79.9C18.08-.484 20.356-4.712 25.01-4.05c4.654.665 9.937 5.164 16.09-.185 6.154-5.348 6.736-7.3 11.819-10.332 5.083-3.03 15.807-5.46 15.807-5.46s-12.056.807-13.902 1.34c-1.848.534-1.316-.958 6.478-11.244" fill="#40504f"/><path d="M103.458-39.302s5.097 4.728 1.208 5.983c-3.89 1.256-6.456-1.169-7.656-.822-1.2.346-5.419-2.393-7.38-3.673-1.961-1.28 3.387 1.264 6.13 1.263 2.74 0 4.466-1.686 2.035-2.567-2.43-.88-6.511-.23-9.532-1.468-3.02-1.238-4.18-2.618-4.891-1.49-.71 1.129-4.385.08-5.28-.849-.895-.929-4.93-1.61-8.466-1.116-3.536.494-8.59-1.872-10.903-2.39-2.311-.52-8.73.279-8.73.279s-.935-1.05.015-1.06c.95-.011 11.935-1.073 14.255-.16 2.32.912 9.072 2.26 11.923 2.228 2.851-.033 6.941-.29 7.75.004.81.293 14.078 4.111 15.03 4.102.95-.012 4.6 1.704 4.492 1.736" fill="#74623c"/><path d="M108.209-34.485s1.57 3.767-3.306 3.065c-4.874-.702-8.466-1.116-9.71-1.284-1.248-.168 7.676 2.004 10.066 2.765 2.392.76 6.557 2.59 5.851.024-.705-2.566-2.901-4.57-2.901-4.57" fill="#574336"/><path d="M21.615-33.603s-1.407-2.89-5.4-3.452C12.216-37.616 4-39.068 2.115-38.26c-1.886.808-2.729 2.635-3.222 5.548-.495 2.914.602-2.944 3.679-2.646 3.076.299 6.37.535 7.983.728 1.612.194 1.773 2.919 1.773 2.919s-.528-.903-2.192 2.084c-1.66 2.986-1.818 4.351-1.818 4.351s4.531-5.927 7.022-5.59c2.492.335 4.06.014 4.06.014s-4.185 1.076-4.49 2.353c-.305 1.275 3.678-.8 6.024-2.401 2.346-1.601 3.258-1.732 3.258-1.732s-2.88-1.544-2.578-.972" fill="#a99351"/><path d="M177.962-6.463s23.237-.314 24.211 4.979c.974 5.292 14.016 13.91 20.864 10.693 6.846-3.217 17.453-7.52 21.878-6.94 4.426.578 15.178 5.11 15.178 5.11s-1.538.445-4.256-.629c-2.716-1.072-7.648-2.124-7.648-2.124s.792.183.892 1.806c.098 1.623-3.447 4.092-2.622 6.95.826 2.858 4.782 5.018 4.782 5.018s-3.857-.536-4.694-2.152c-.838-1.616-2.76-2.506-1.536-5.956a289.865 289.865 0 011.749-4.841l-1.411-1.037s-3.297.126-5.578 1.198c-2.283 1.073-4.504 1.714-4.228 2.667.275.953-2.454 1.121-2.454 1.121s-6.725 2.356-9.24 3.908c-2.514 1.553-5.693 1.44-7.799 1.841-2.105.402-1.923-.89-3.052-1.595-1.13-.706-7.937-1.836-11.27-3.763-3.334-1.927-4.314-6.598-6.976-7.48-2.661-.883-9.491.471-11.933.35-2.441-.12-8.83 2.758-10.66 4.113-1.831 1.355-1.04-4.241.404-6.93 1.445-2.688-.455-6.06 5.398-6.307" fill="#3e3633"/></g><path d="M355.182 186.921l5.065-6.632-71.521-65.884h-70.71l-71.52 17.663 5.066 6.632-3.279 67.1 3.279 3.926-1.193 52.987 7.748 8.411s47.406 1.245 94.695.8c47.292.445 95.814-.8 95.814-.8l7.747-8.411-1.192-31.68 3.278-3.925-3.278-40.188" fill="#b58946"/><path d="M150.397 262.71s7.962 1.963 10.485 2.804c2.523.84-1.402 4.767-1.402 4.767l17.645.99s-1.664-4.917 11.793-5.197c13.457-.28 15.42 4.487 15.42 4.487l23.83 1.962s-2.243-3.924 2.523-4.205c4.766-.28 38.972-.841 43.456-.28 4.487.56 3.644 3.644 3.644 3.644l26.354.841s-3.364-4.205 8.411-5.046c11.775-.842 17.118 3.794 17.118 3.794l18.98-.15s-.493-3.644 1.19-5.047c1.682-1.401 6.558-3.364 6.558-3.364H150.398" fill="#966732"/><path d="M225.312 281.63l.202.13c-.158.524-.318.937-.422 1.18a3.82 3.82 0 00.218-1.31" fill="#727272"/><path d="M225.859 277.092s-1.764-12.665-19.12-4.863c0 0 14.25-6.52 19.12 4.863" fill="#fff"/><path d="M361.197 81.057C322.588 65.15 259.868 63.533 253.164 63.405v-.011l-.295.005a15.206 15.206 0 01-.302-.005v.01c-6.645.13-68.323 1.753-106.912 17.653 0 0-3.277 1.682-1.489 14.298 1.787 12.617 2.385 36.727 2.385 36.727s9.2 1.962 14.434 1.962 15.364-2.523 19.836-2.523c4.469 0 26.522.28 26.522.28s-20.562.281-28.31 2.243c-7.747 1.963-15.198 1.682-20.264 1.682-5.065 0-12.218 2.988-12.218 2.988l1.788 67.1h4.172l-3.874 2.244s.895 44.016.895 47.1c0 3.085.893 7.57.893 7.57s79.696 1.945 102.441.024c22.755 1.922 103.562-.024 103.562-.024s.892-4.485.892-7.57c0-3.083.894-25.792.894-25.792l-3.871-2.243h4.17l1.789-40.188s-7.153-2.988-12.218-2.988c-5.066 0-12.517.28-20.264-1.682-7.75-1.962-28.311-2.243-28.311-2.243s22.054-.279 26.522-.279c4.47 0 14.603 2.522 19.838 2.522 5.232 0 14.433-1.962 14.433-1.962s.596-72.331 2.384-84.949c1.79-12.616-1.49-14.298-1.49-14.298" fill="#e1c377"/><path d="M363.11 86.99c-98.649-26.778-172.38-18.1-216.368-6.4-.383.153-.77.306-1.149.462 0 0-3.277 1.682-1.489 14.298.216 1.513.41 3.194.593 4.976 106.212-33.413 186.83-15.313 217.98-5.358.463-3.419.551-6.016.433-7.98m-45.932 93.836a250.656 250.656 0 00-8.966-.54c3.071.168 6.06.349 8.966.54" fill="#e5ca87"/><path d="M146.023 120.209c.312 6.756.439 11.881.439 11.881s9.2 1.962 14.434 1.962 15.365-2.523 19.837-2.523c4.468 0 26.521.28 26.521.28s-20.562.281-28.309 2.243c-7.748 1.963-15.199 1.682-20.265 1.682-5.064 0-12.217 2.988-12.217 2.988l1.32 49.542c58.217-9.556 112.938-10.221 154.455-8.27 6.088-.074 20.227-.243 23.704-.243 4.472 0 14.604 2.522 19.839 2.522 5.232 0 14.433-1.963 14.433-1.963s.131-15.973.456-34.214c-46.48-11.027-128.64-14.568-128.64-14.568 45.209-2.4 100.684 4.048 128.766 7.94.117-5.909.257-11.88.415-17.476-87.83-21.683-173.309-10.186-215.19-1.784m23.242 83.637c26.913-6.168 127.843-9.533 127.843-9.533-76.401-4.749-128.871 2.133-148.983 5.554l.158 5.94h4.172l-3.875 2.243s.895 44.016.895 47.1c0 .457.028.943.055 1.44 58.772-2.151 166.1 3.402 206.922 5.725.093-.508.26-1.452.42-2.568-52.009-9.14-175.27-16.651-175.27-16.651 42.193-2.11 133.268 4.352 175.775 7.681.238-7.529.784-21.419.784-21.419l-3.872-2.242h4.17l.753-16.932c-90.759-12.451-189.946-6.338-189.946-6.338" fill="#e5ca87"/><path d="M181.84 134.891c3.403-1 10.603-2.144 14.444-2.716-6.19.311-13.525.518-17.478 1.518-7.748 1.963-15.43 1.77-20.496 1.77-5.065 0-12.377 2.893-12.377 2.893l1.768 67.436 4.637.03-4.396 2.22s1.045 44.26 1.045 47.341 1.045 7.557 1.045 7.557 20.267.29 43.04.533c-11.574-.888-31.409-2.337-35.37-2.141-5.662.28-5.066-2.522-5.364-5.048-.298-2.522-.894-47.94-.894-47.94l5.662-3.644-5.662-.84-.299-7.571 5.663-.561-5.663-1.682-.298-53.829s2.085-1.682 8.94-1.962c6.853-.28 17.284-1.962 22.053-3.365m145.727 47.028c-3.955-1.002-11.171-1.212-17.363-1.524 3.842.573 11.04 1.716 14.445 2.717 4.768 1.401 15.198 3.083 22.052 3.364 6.855.28 8.94 1.964 8.94 1.964l-.297 26.913-5.662 1.682 5.662.56v8.27l-5.96.141 5.662 2.945s-.597 24.81-.894 27.333c-.299 2.525.297 5.328-5.364 5.047-3.96-.196-23.797 1.253-35.372 2.142 22.773-.243 42.822-.74 42.822-.74s1.23-4.346 1.23-7.43.884-25.881.884-25.881l-4.2-2.294 4.361.043 1.688-40.512s-6.59-2.973-11.655-2.973c-5.066 0-13.233.194-20.979-1.768" fill="#f2e7c0"/><path d="M360.923 80.701c-38.608-15.908-87.85-17.104-108.55-17.313-20.698-.21-69.076 1.173-107.665 17.072 0 0-3.075 2.174-1.287 14.79 1.787 12.616 2.937 36.816 2.937 36.816s3.788.806 7.886 1.386l-5.502-2.788-1.788-31.962 5.662-1.4-5.662-.282s0-3.924-.298-7.008c-.298-3.085 1.49-7.01 1.49-7.01 34.745-14.333 76.336-17.556 104.528-17.564 28.19-.008 70.897 3.231 105.645 17.565 0 0 1.789 3.924 1.49 7.009-.297 3.084-.297 7.008-.297 7.008l-5.663.281 5.663 1.401-1.789 80.183-5.503 2.789c4.1-.58 8.218-1.304 8.218-1.304s.623-72.262 2.412-84.877c1.789-12.616-1.93-14.79-1.93-14.79" fill="#f2e7c0"/><path d="M281.36 281.63c-.065.042-.133.087-.204.13.158.524.319.937.423 1.18a3.82 3.82 0 01-.219-1.31" fill="#727272"/><path d="M280.814 277.092s1.763-12.665 19.119-4.863c0 0-14.25-6.52-19.119 4.863" fill="#fff"/><path d="M246.44-28.72v7.796a6.378 6.378 0 006.378 6.378h2.302a6.378 6.378 0 006.379-6.378v-7.795a6.378 6.378 0 00-6.379-6.379h-2.302a6.378 6.378 0 00-6.378 6.379zm4.252 1.546c0-2.126 1.242-3.848 2.777-3.848h1.002c1.533 0 2.776 1.723 2.776 3.848v4.704c0 2.126-1.243 3.849-2.776 3.849h-1.002c-1.535 0-2.777-1.723-2.777-3.849v-4.704" fill="#3d3d3d"/><path d="M246.44-51.748v7.795a6.378 6.378 0 006.378 6.379h2.302a6.378 6.378 0 006.379-6.379v-7.795a6.378 6.378 0 00-6.379-6.378h-2.302a6.378 6.378 0 00-6.378 6.378zm4.252 1.545c0-2.125 1.242-3.848 2.777-3.848h1.002c1.533 0 2.776 1.723 2.776 3.848v4.704c0 2.127-1.243 3.85-2.776 3.85h-1.002c-1.535 0-2.777-1.723-2.777-3.85v-4.704" fill="#231f20"/><path d="M251.44-29.157a2.57 2.57 0 005.138 0v-15.237a2.57 2.57 0 00-5.139 0v15.237" fill="#231f20"/><path d="M246.44-51.748v7.796a6.378 6.378 0 006.378 6.377h2.302a6.378 6.378 0 006.379-6.377v-7.796a6.378 6.378 0 00-6.379-6.378h-2.302a6.378 6.378 0 00-6.378 6.378zm4.252 1.545c0-2.125 1.242-3.848 2.777-3.848h1.002c1.533 0 2.776 1.723 2.776 3.848v4.705c0 2.125-1.243 3.849-2.776 3.849h-1.002c-1.535 0-2.777-1.724-2.777-3.849v-4.705" fill="#3d3d3d"/><path d="M259.355-56.372c-2.936-1.679-5.346-2.13-7.605-1.227 0 0-3.012 1.28-3.012 6.475s.15 7.455.226 8.886c.075 1.43 1.43 5.044 6.024 4.442 4.593-.603 6.61-2.43 6.61-7.427s.694-9.47-2.243-11.15zm-.377 13.305c-1.053 3.69-5.647 3.012-7.228 1.506s-.96-5.647-.949-8.96c.01-3.31 2.25-4.111 3.267-4.368 1.79-.451 3.103 0 4.308 1.43 1.205 1.431 1.657 6.703.602 10.392" fill="#0f0f0f"/><path d="M249.044-39.978c.036-.002-.817-.659-1.249-2.255-.415-1.6-.543-3.753-.552-6.181.048-2.386.181-4.648.906-6.157.66-1.534 1.666-2.002 1.648-1.973-.463-.228-2.102 3.293-1.857 8.133-.322 4.822.45 7.593 1.104 8.433zm10.024-7.133c.253-3.546-1.168-6.217-1.251-6.12.109-.008.536 2.726.289 6.073.084 3.418-1.133 5.87-1.382 5.75.145.31 2.431-2.066 2.344-5.703" fill="#c4c4c4"/><path d="M252.48-55.873c-.022.046 1.606-1.194 4.062-1.01 2.622.282 3.355 2.577 3.318 2.44-.01.055-1.163-1.67-3.384-1.841-2.166-.186-4.004.439-3.995.411zm8.42 11.531c-.094.156-.207 2.59-2.219 4.222-2.11 1.66-4.595 1.682-4.544 1.716-.083-.053 2.48.608 4.926-1.25 2.249-1.927 1.807-4.474 1.837-4.688zc0-.008.01-.015.013-.01-.01-.01-.012-.004-.013.01" fill="#5e5e5e"/><path d="M259.355-33.344c-2.936-1.678-5.346-2.13-7.605-1.227 0 0-3.012 1.28-3.012 6.476s.15 7.454.226 8.885c.075 1.43 1.43 5.045 6.024 4.443 4.593-.602 6.61-2.43 6.61-7.427s.694-9.471-2.243-11.15zm-.377 13.306c-1.053 3.69-5.647 3.012-7.228 1.506s-.96-5.647-.949-8.959c.01-3.311 2.25-4.112 3.267-4.368 1.79-.452 3.103 0 4.308 1.43 1.205 1.43 1.657 6.701.602 10.391" fill="#0f0f0f"/><path d="M249.044-16.95c.036-.002-.817-.658-1.249-2.255-.415-1.6-.543-3.753-.552-6.18.048-2.386.181-4.648.906-6.157.66-1.535 1.666-2.002 1.648-1.973-.463-.229-2.102 3.293-1.857 8.132-.322 4.822.45 7.593 1.104 8.433zm10.024-7.132c.253-3.547-1.168-6.217-1.251-6.12.109-.008.536 2.726.289 6.073.084 3.417-1.133 5.87-1.382 5.749.145.31 2.431-2.065 2.344-5.702" fill="#c4c4c4"/><path d="M252.48-32.833c-.022.045 1.606-1.195 4.062-1.01 2.622.281 3.355 2.576 3.318 2.44-.01.054-1.163-1.67-3.384-1.842-2.166-.186-4.004.44-3.995.412zm8.42 11.532c-.094.155-.207 2.588-2.219 4.22-2.11 1.662-4.595 1.683-4.544 1.717-.083-.054 2.48.608 4.926-1.25 2.249-1.928 1.807-4.475 1.837-4.687zc0-.009.01-.016.013-.012-.01-.01-.012-.004-.013.012" fill="#5e5e5e"/><path d="M251.44-28.803a2.57 2.57 0 005.138 0v-15.236a2.569 2.569 0 00-5.139 0v15.236" fill="#3d3d3d"/><path d="M254.043-46.082s2.275-.376 2.275 4.744v11.079c0 2.202-.8 4.336-3.176 3.857 0 0 1.256-.46 1.256-3.857v-11.606c0-1.958.232-3.757-.355-4.217" fill="#0f0f0f"/><path d="M252.377-27.532c-.101.022-.544-1.105-.41-8.98-.181-5.041-.03-9.117.719-9.117-.511.977-.179 3.366 0 8.409.076 5.033-.412 9.687-.31 9.688" fill="#c7c7c7"/><path d="M255.605-30.646s-.3-2.461-.3-5.497c0-3.035.3-5.497.3-5.497s.302 2.462.302 5.497c0 3.036-.302 5.497-.302 5.497" fill="#676767"/><path d="M246.44-74.777v7.796a6.378 6.378 0 006.378 6.378h2.302a6.378 6.378 0 006.379-6.378v-7.796a6.378 6.378 0 00-6.379-6.378h-2.302a6.378 6.378 0 00-6.378 6.378zm4.252 1.546c0-2.126 1.242-3.849 2.777-3.849h1.002c1.533 0 2.776 1.723 2.776 3.849v4.704c0 2.125-1.243 3.849-2.776 3.849h-1.002c-1.535 0-2.777-1.724-2.777-3.849v-4.704" fill="#3d3d3d"/><path d="M259.355-79.401c-2.936-1.679-5.346-2.13-7.605-1.227 0 0-3.012 1.28-3.012 6.476 0 5.195.15 7.454.226 8.885.075 1.43 1.43 5.045 6.024 4.442 4.593-.602 6.61-2.43 6.61-7.427s.694-9.47-2.243-11.149zm-.377 13.306c-1.053 3.689-5.647 3.011-7.228 1.505s-.96-5.647-.949-8.958c.01-3.312 2.25-4.113 3.267-4.369 1.79-.452 3.103 0 4.308 1.43 1.205 1.431 1.657 6.702.602 10.392" fill="#0f0f0f"/><path d="M249.044-63.018c.036 0-.817-.658-1.249-2.255-.415-1.6-.543-3.752-.552-6.18.048-2.386.181-4.648.906-6.157.66-1.535 1.666-2.002 1.648-1.973-.463-.229-2.102 3.293-1.857 8.132-.322 4.822.45 7.594 1.104 8.434zm10.024-7.132c.253-3.546-1.168-6.217-1.251-6.12.109-.008.536 2.726.289 6.073.084 3.417-1.133 5.87-1.382 5.749.145.31 2.431-2.065 2.344-5.702" fill="#c4c4c4"/><path d="M252.48-78.901c-.022.045 1.606-1.195 4.062-1.01 2.622.282 3.355 2.576 3.318 2.44-.01.054-1.163-1.67-3.384-1.842-2.166-.186-4.004.44-3.995.412zm8.42 11.53c-.094.156-.207 2.59-2.219 4.222-2.11 1.661-4.595 1.682-4.544 1.716-.083-.053 2.48.608 4.926-1.25 2.249-1.927 1.807-4.474 1.837-4.687zc0-.008.01-.014.013-.01-.01-.01-.012-.004-.013.01" fill="#5e5e5e"/><path d="M251.44-51.842a2.57 2.57 0 005.138 0v-15.237a2.57 2.57 0 00-5.139 0v15.237" fill="#3d3d3d"/><path d="M254.043-69.11s2.275-.377 2.275 4.743v11.08c0 2.202-.8 4.335-3.176 3.857 0 0 1.256-.46 1.256-3.858v-11.605c0-1.958.232-3.756-.355-4.217" fill="#0f0f0f"/><path d="M252.377-50.56c-.101.022-.544-1.104-.41-8.98-.181-5.04-.03-9.118.719-9.117-.511.977-.179 3.366 0 8.409.076 5.033-.412 9.687-.31 9.687" fill="#c7c7c7"/><path d="M255.605-53.675s-.183-2.461-.183-5.497c0-3.035.183-5.497.183-5.497s.184 2.461.184 5.497-.184 5.497-.184 5.497" fill="#676767"/><path d="M251.44-75.297c0 1.485 1.15 2.69 2.569 2.69 1.418 0 2.569-1.205 2.569-2.69v-19.11c0-1.487-1.15-2.69-2.57-2.69-1.418 0-2.569 1.203-2.569 2.69v19.11" fill="#3d3d3d"/><path d="M254.043-96.54s2.275-.394 2.275 4.968v14.756c0 2.307-.8 4.54-3.176 4.04 0 0 1.256-.482 1.256-4.04v-15.308c0-2.05.232-3.934-.355-4.416" fill="#0f0f0f"/><path d="M252.377-73.964c-.101.023-.544-1.157-.41-9.404-.181-5.279-.03-12.702.719-12.701-.511 1.023-.179 6.678 0 11.959.076 5.272-.412 10.145-.31 10.146" fill="#c7c7c7"/><path d="M255.605-77.224s-.183-3.284-.183-7.334.183-7.333.183-7.333a146.32 146.32 0 000 14.667" fill="#676767"/><path d="M246.825 46.473v7.796a6.378 6.378 0 006.378 6.378h2.303a6.378 6.378 0 006.378-6.378v-7.796a6.378 6.378 0 00-6.378-6.378h-2.303a6.378 6.378 0 00-6.378 6.378zm4.252 1.545c0-2.125 1.243-3.848 2.777-3.848h1.002c1.533 0 2.776 1.723 2.776 3.848v4.705c0 2.125-1.243 3.848-2.776 3.848h-1.002c-1.534 0-2.777-1.723-2.777-3.848v-4.705" fill="#3d3d3d"/><path d="M246.825 23.445v7.795a6.378 6.378 0 006.378 6.378h2.303a6.378 6.378 0 006.378-6.378v-7.795a6.378 6.378 0 00-6.378-6.378h-2.303a6.378 6.378 0 00-6.378 6.378zm4.252 1.545c0-2.125 1.243-3.849 2.777-3.849h1.002c1.533 0 2.776 1.723 2.776 3.85v4.703c0 2.126-1.243 3.85-2.776 3.85h-1.002c-1.534 0-2.777-1.724-2.777-3.85V24.99" fill="#231f20"/><path d="M251.825 46.036a2.57 2.57 0 005.138 0V30.799a2.57 2.57 0 00-5.138 0v15.237" fill="#231f20"/><path d="M246.825 23.445v7.795a6.378 6.378 0 006.378 6.378h2.303a6.378 6.378 0 006.378-6.378v-7.795a6.378 6.378 0 00-6.378-6.378h-2.303a6.378 6.378 0 00-6.378 6.378zm4.252 1.545c0-2.125 1.243-3.848 2.777-3.848h1.002c1.533 0 2.776 1.723 2.776 3.848v4.705c0 2.125-1.243 3.848-2.776 3.848h-1.002c-1.534 0-2.777-1.723-2.777-3.848V24.99" fill="#3d3d3d"/><path d="M259.74 18.82c-2.936-1.678-5.346-2.13-7.605-1.226 0 0-3.012 1.28-3.012 6.475s.151 7.455.226 8.885c.075 1.43 1.43 5.045 6.024 4.443 4.593-.603 6.61-2.43 6.61-7.427s.694-9.47-2.243-11.15zm-.376 13.306c-1.054 3.69-5.648 3.012-7.229 1.506s-.96-5.647-.948-8.96c.01-3.311 2.25-4.111 3.266-4.368 1.791-.452 3.104 0 4.309 1.43 1.204 1.431 1.656 6.702.602 10.392" fill="#0f0f0f"/><path d="M249.43 35.214c.036 0-.818-.658-1.25-2.255-.414-1.6-.542-3.752-.551-6.18.048-2.386.18-4.648.905-6.157.66-1.535 1.666-2.002 1.648-1.973-.462-.229-2.102 3.293-1.857 8.132-.322 4.822.45 7.593 1.104 8.433zm10.024-7.132c.253-3.547-1.168-6.218-1.252-6.12.11-.009.537 2.725.29 6.072.083 3.418-1.133 5.87-1.383 5.75.146.31 2.432-2.065 2.345-5.702" fill="#c4c4c4"/><path d="M252.866 19.32c-.023.046 1.606-1.194 4.061-1.01 2.622.282 3.355 2.576 3.318 2.44-.01.055-1.163-1.67-3.383-1.841-2.167-.186-4.005.439-3.996.411zm8.42 11.531c-.094.156-.207 2.59-2.22 4.221-2.11 1.661-4.594 1.683-4.544 1.716-.083-.052 2.48.609 4.926-1.25 2.25-1.927 1.807-4.473 1.837-4.687zc0-.008.01-.015.013-.01-.01-.01-.013-.005-.014.01" fill="#5e5e5e"/><path d="M259.74 41.849c-2.936-1.679-5.346-2.13-7.605-1.227 0 0-3.012 1.28-3.012 6.476s.151 7.454.226 8.885c.075 1.43 1.43 5.045 6.024 4.442 4.593-.602 6.61-2.43 6.61-7.427s.694-9.47-2.243-11.15zm-.376 13.306c-1.054 3.69-5.648 3.012-7.229 1.506s-.96-5.648-.948-8.96c.01-3.31 2.25-4.112 3.266-4.368 1.791-.452 3.104 0 4.309 1.43 1.204 1.431 1.656 6.702.602 10.392" fill="#0f0f0f"/><path d="M249.43 58.243c.036-.002-.818-.659-1.25-2.255-.414-1.6-.542-3.753-.551-6.18.048-2.386.18-4.649.905-6.158.66-1.534 1.666-2.001 1.648-1.972-.462-.23-2.102 3.292-1.857 8.131-.322 4.822.45 7.594 1.104 8.434zm10.024-7.133c.253-3.546-1.168-6.216-1.252-6.12.11-.008.537 2.726.29 6.073.083 3.418-1.133 5.87-1.383 5.75.146.31 2.432-2.065 2.345-5.703" fill="#c4c4c4"/><path d="M252.866 42.36c-.023.045 1.606-1.195 4.061-1.011 2.622.282 3.355 2.577 3.318 2.44-.01.055-1.163-1.67-3.383-1.842-2.167-.185-4.005.44-3.996.412zm8.42 11.531c-.094.155-.207 2.589-2.22 4.221-2.11 1.661-4.594 1.683-4.544 1.717-.083-.054 2.48.607 4.926-1.251 2.25-1.927 1.807-4.474 1.837-4.687zc0-.008.01-.015.013-.011-.01-.01-.013-.004-.014.011" fill="#5e5e5e"/><path d="M251.825 46.39a2.57 2.57 0 005.138 0V31.153a2.569 2.569 0 00-5.138 0V46.39" fill="#3d3d3d"/><path d="M254.429 29.11s2.275-.376 2.275 4.744v11.08c0 2.202-.8 4.335-3.177 3.857 0 0 1.257-.46 1.257-3.858V33.327c0-1.957.232-3.756-.355-4.216" fill="#0f0f0f"/><path d="M252.762 47.66c-.101.022-.544-1.104-.41-8.98-.18-5.04-.029-9.117.72-9.116-.512.977-.18 3.366 0 8.409.075 5.033-.413 9.687-.31 9.688" fill="#c7c7c7"/><path d="M255.99 44.546s-.3-2.46-.3-5.496c0-3.036.3-5.497.3-5.497s.302 2.461.302 5.497c0 3.035-.301 5.496-.301 5.496" fill="#676767"/><path d="M246.825.416v7.795a6.378 6.378 0 006.378 6.379h2.303a6.378 6.378 0 006.378-6.379V.416a6.378 6.378 0 00-6.378-6.378h-2.303a6.378 6.378 0 00-6.378 6.378zm4.252 1.545c0-2.125 1.243-3.848 2.777-3.848h1.002c1.533 0 2.776 1.723 2.776 3.848v4.705c0 2.125-1.243 3.849-2.776 3.849h-1.002c-1.534 0-2.777-1.724-2.777-3.85V1.962" fill="#3d3d3d"/><path d="M259.74-4.208c-2.936-1.679-5.346-2.13-7.605-1.227 0 0-3.012 1.28-3.012 6.475 0 5.196.151 7.455.226 8.885.075 1.43 1.43 5.045 6.024 4.443 4.593-.603 6.61-2.43 6.61-7.427s.694-9.47-2.243-11.15zm-.376 13.305c-1.054 3.69-5.648 3.012-7.229 1.506s-.96-5.647-.948-8.959c.01-3.311 2.25-4.112 3.266-4.368 1.791-.453 3.104 0 4.309 1.43 1.204 1.431 1.656 6.702.602 10.391" fill="#0f0f0f"/><path d="M249.43 12.175c.036-.001-.818-.658-1.25-2.255-.414-1.6-.542-3.753-.551-6.18.048-2.386.18-4.649.905-6.157.66-1.535 1.666-2.002 1.648-1.973-.462-.229-2.102 3.293-1.857 8.132-.322 4.822.45 7.593 1.104 8.433zm10.024-7.132c.253-3.547-1.168-6.218-1.252-6.12.11-.009.537 2.725.29 6.072.083 3.418-1.133 5.87-1.383 5.75.146.31 2.432-2.066 2.345-5.702" fill="#c4c4c4"/><path d="M252.866-3.709c-.023.046 1.606-1.194 4.061-1.01 2.622.282 3.355 2.577 3.318 2.44-.01.055-1.163-1.67-3.383-1.841-2.167-.186-4.005.439-3.996.411zm8.42 11.531c-.094.156-.207 2.59-2.22 4.222-2.11 1.66-4.594 1.682-4.544 1.716-.083-.054 2.48.608 4.926-1.25 2.25-1.927 1.807-4.474 1.837-4.688zc0-.008.01-.015.013-.01-.01-.01-.013-.005-.014.01" fill="#5e5e5e"/><path d="M251.825 23.35a2.57 2.57 0 005.138 0V8.115a2.57 2.57 0 00-5.138 0v15.237" fill="#3d3d3d"/><path d="M254.429 6.082s2.275-.376 2.275 4.744v11.079c0 2.203-.8 4.336-3.177 3.857 0 0 1.257-.459 1.257-3.857V10.3c0-1.958.232-3.757-.355-4.217" fill="#0f0f0f"/><path d="M252.762 24.632c-.101.022-.544-1.104-.41-8.98-.18-5.04-.029-9.117.72-9.116-.512.977-.18 3.365 0 8.408.075 5.034-.413 9.687-.31 9.688" fill="#c7c7c7"/><path d="M255.99 21.518s-.183-2.462-.183-5.497c0-3.036.184-5.497.184-5.497s.184 2.461.184 5.497c0 3.035-.184 5.497-.184 5.497" fill="#676767"/><path d="M251.825-.105c0 1.486 1.15 2.69 2.57 2.69 1.417 0 2.568-1.204 2.568-2.69v-19.11c0-1.486-1.15-2.69-2.569-2.69s-2.57 1.204-2.57 2.69v19.11" fill="#3d3d3d"/><path d="M254.429-21.347s2.275-.394 2.275 4.968v14.755c0 2.307-.8 4.541-3.177 4.04 0 0 1.257-.481 1.257-4.04V-16.93c0-2.05.232-3.935-.355-4.416" fill="#0f0f0f"/><path d="M252.762 1.228c-.101.024-.544-1.156-.41-9.404-.18-5.278-.029-12.701.72-12.7-.512 1.023-.18 6.678 0 11.959.075 5.271-.413 10.144-.31 10.145" fill="#c7c7c7"/><path d="M255.99-2.032s-.183-3.283-.183-7.333c0-4.05.184-7.334.184-7.334s.184 3.284.184 7.334-.184 7.333-.184 7.333" fill="#676767"/><path d="M252.211 72.029c0 1.234.956 2.234 2.134 2.234 1.177 0 2.133-1 2.133-2.234V56.16c0-1.234-.956-2.234-2.133-2.234-1.178 0-2.134 1-2.134 2.234v15.87" fill="#3d3d3d"/><path d="M254.373 54.385s1.89-.327 1.89 4.125v12.253c0 1.916-.665 3.771-2.638 3.355 0 0 1.043-.4 1.043-3.355v-12.71c0-1.703.193-3.268-.295-3.668" fill="#0f0f0f"/><path d="M252.99 73.136c-.084.02-.452-.96-.34-7.809-.151-4.383-.025-10.547.596-10.546-.424.849-.148 5.545 0 9.93.063 4.378-.342 8.424-.257 8.425" fill="#c7c7c7"/><path d="M255.67 70.429s-.152-2.726-.152-6.09c0-3.363.153-6.09.153-6.09s.152 2.727.152 6.09c0 3.364-.152 6.09-.152 6.09" fill="#676767"/><path d="M178.406 152.87q0 1.427-.557 2.68-.523 1.254-1.463 2.195t-2.194 1.497q-1.253.522-2.646.522h-1.706q-1.358 0-2.507-.487-1.114-.488-1.985-1.323t-1.393-1.95q-.522-1.15-.627-2.438h4.283q.21.87.732 1.497.557.592 1.532.592h1.462q.627 0 1.114-.243t.836-.662q.383-.418.592-.94.209-.557.209-1.184v-16.574h4.318zm10.254 2.925q.87 0 1.393-.21.557-.208.87-.556.349-.349.488-.836t.14-1.045v-11.107h4.073v17.723h-4.074v-.452q-.557.243-1.218.348-.627.104-1.358.104h-1.776q-1.567 0-2.751-.522-1.15-.522-1.915-1.358-.766-.87-1.184-1.95-.383-1.114-.383-2.229v-11.664h4.04v10.829q0 .627.104 1.149t.417.94q.314.383.87.627.558.209 1.498.209zm21.972-10.307h-6.93q-.452 0-.765.174-.279.14-.488.418t-.313.627q-.105.313-.105.626 0 .662.418 1.219.453.522 1.08.522h3.9q1.218 0 2.124.418.94.418 1.532 1.15.626.73.905 1.74.313 1.01.313 2.16v.104q0 1.149-.383 2.089-.348.94-1.01 1.602t-1.566 1.044-1.916.383h-8.426v-3.447h7.243q.8 0 1.462-.453.696-.452.731-1.358v.035q0-.522-.209-.87-.174-.349-.487-.558-.314-.243-.697-.348t-.8-.104h-3.134q-1.532 0-2.542-.488-.975-.487-1.567-1.253-.557-.766-.766-1.741t-.209-1.985q0-1.045.313-2.02t.906-1.706q.626-.766 1.532-1.184t2.054-.417h7.8zm3.438-3.448h3.274v-5.988h4.108v5.989h3.273v4.004h-3.273v13.72h-4.108v-13.72h-3.274zm40.349 17.724h-4.597l-5.989-6.755v6.755h-4.109v-23.712h4.11v11.595l5.64-5.606h4.84l-8.53 8.182zm5.667 0h-4.11v-17.723h4.11zm0-19.639h-4.11v-4.073h4.11zm9.096 19.639q-1.532 0-2.75-.452-1.184-.453-2.055-1.289-.835-.87-1.288-2.054-.453-1.219-.453-2.681v-4.77q0-1.498.453-2.682t1.288-2.02q.87-.835 2.055-1.288 1.218-.487 2.75-.487h1.393q1.463 0 2.647.417v-6.406h3.9v23.712zm4.04-4.004v-7.138q0-1.15-.766-1.846-.766-.731-1.88-.731h-1.394q-1.114 0-1.915.731-.766.697-.766 1.846v4.526q0 1.15.766 1.88.801.732 1.915.732zm12.552 4.004q-1.532 0-2.75-.452-1.184-.453-2.055-1.289-.836-.87-1.288-2.054-.453-1.219-.453-2.681v-4.77q0-1.498.453-2.682t1.288-2.02q.87-.835 2.055-1.288 1.218-.487 2.75-.487h1.393q1.463 0 2.647.417v-6.406h3.9v23.712zm4.04-4.004v-7.138q0-1.15-.767-1.846-.766-.731-1.88-.731h-1.393q-1.114 0-1.915.731-.766.697-.766 1.846v4.526q0 1.15.766 1.88.801.732 1.915.732zm10.602 4.004h-4.108v-17.723h4.108zm0-19.639h-4.108v-4.073h4.108zm10.246 5.885q-.905 0-1.497.244-.557.209-.87.592t-.453.94q-.105.522-.105 1.149v10.83h-4.074V142.04h4.074v.452q1.219-.452 2.612-.452h1.81q1.533 0 2.717.522t1.95 1.393q.8.835 1.183 1.95.418 1.08.418 2.193v11.665h-4.074v-10.829q0-.627-.104-1.149-.105-.557-.418-.94-.279-.383-.836-.592-.557-.244-1.497-.244zm24.61-3.97v17.76q0 1.428-.418 2.507-.418 1.114-1.15 1.88-.73.801-1.775 1.184-1.045.418-2.298.418h-7.974v-3.865h7.312q1.08 0 1.776-.662.731-.661.731-1.845v-.209h-5.188q-1.15 0-2.194-.383-1.01-.418-1.776-1.219t-1.218-1.95q-.453-1.184-.453-2.716v-4.63q0-1.533.453-2.682.452-1.184 1.218-1.985t1.776-1.184q1.045-.417 2.194-.417zm-3.83 3.866h-4.284q-.522 0-.975.243-.452.21-.8.627-.349.383-.558.87t-.208 1.08v3.76q0 .593.208 1.115t.558.905.8.627q.453.209.975.209h4.283zm12.334 7.869h-4.074V134.52h4.074zm0 5.99h-4.074v-4.075h4.074z" aria-label="Just kidding!"/></svg>