<svg preserveAspectRatio="none" viewBox="0 0 508 285.75" xmlns="http://www.w3.org/2000/svg"><defs><clipPath id="b"><path d="M544.33 5579.4c28.359 24.59 51.641 51 51.641 71.41 0 52.21-8.703 126.17 0 204.49 8.695 78.32 34.804 104.42 21.754 165.33-13.059 60.92-30.457 52.21-26.106 147.93 4.352 95.72 39.156 230.59 30.449 265.4-8.695 34.81-43.504 378.52-21.754 456.84 21.754 78.31-56.562 226.24-56.562 226.24l-91.359 165.33-56.567 78.32 60.914 21.75 34.801 13.06s21.762-43.51 78.32-69.61c56.563-26.11 39.16-56.57 108.77-52.22 69.613 4.35 108.77 0 100.07 56.57-8.699 56.56-73.957 213.18-73.957 213.18l108.77 43.52s17.406-217.55 43.508-256.7c26.109-39.16 56.562-65.27 134.88-65.27 78.312 0 87.012 91.37 82.662 113.12-4.35 21.76-100.07 200.14-100.07 200.14s30.462 78.32 47.862 39.16 69.61-204.49 78.31-147.93c8.71 56.56 21.76 187.09 21.76 187.09l104.42 34.8c104.42 34.81-79.01-210.18-80.79-313.92-.68-40.2 6.9-77.31 43.77-93.81 41.54-18.61 103.6-25.33 106.63-1.25 4.38 34.76 90.91 279.23 138.14 286.06l83.75-25.01s-82.66-65.25-87.01-104.41-47.86-113.12-8.7-121.83c39.15-8.7 230.59 121.83 230.59 121.83s65.27-65.27 34.81-73.97-145.73-71.75-145.73-137.01c0-41.27 49.13-254.84 93.52-289.37 39.16-30.46 39.16-43.51 39.16-43.51s-47.86-274.1-13.05-321.96c34.8-47.86 65.26-87.02 65.26-87.02s8.7-17.4-13.05-73.96c-21.76-56.56-34.82-269.75-34.82-269.75s-8.69-95.72 47.87-195.79 13.05-160.98 95.72-165.34c147.1-7.74 307.97-166.51 297.37-201.93h-209.36c-39.93 52.5-126.96 168.07-233.19 0h-427.88c-.9 39.59-12.11 102.18-75.22 93.16-91.37-13.05-126.18-65.26-126.18-65.26v-27.9h-278.64c-23.895 20.2-38.965 23.55-38.965 23.55l-20.403-23.55h-166.11" clip-rule="evenodd"/></clipPath><clipPath id="a"><path fill="red" stroke="#fff" stroke-width=".364" d="M1136.3-511.73h30.889v37.048H1136.3z"/></clipPath><linearGradient id="c" x2="1" gradientTransform="matrix(-115.94 1623.2 1642.1 117.29 532.72 5163.4)" gradientUnits="userSpaceOnUse"><stop stop-color="#988769" offset="0"/><stop stop-color="#ae9b78" offset="1"/></linearGradient></defs><g transform="matrix(18.409 0 0 10.162 -20937 5189.65)" clip-path="url(#a)"><g clip-path="url(#b)" transform="matrix(.03528 0 0 -.03528 1111.7 -267.36)"><path d="M544.33 5579.4c28.359 24.59 51.641 51 51.641 71.41 0 52.21-8.703 126.17 0 204.49 8.695 78.32 34.804 104.42 21.754 165.33-13.059 60.92-30.457 52.21-26.106 147.93 4.352 95.72 39.156 230.59 30.449 265.4-8.695 34.81-43.504 378.52-21.754 456.84 21.754 78.31-56.562 226.24-56.562 226.24l-91.359 165.33-56.567 78.32 60.914 21.75 34.801 13.06s21.762-43.51 78.32-69.61c56.563-26.11 39.16-56.57 108.77-52.22 69.613 4.35 108.77 0 100.07 56.57-8.699 56.56-73.957 213.18-73.957 213.18l108.77 43.52s17.406-217.55 43.508-256.7c26.109-39.16 56.562-65.27 134.88-65.27 78.312 0 87.012 91.37 82.662 113.12-4.35 21.76-100.07 200.14-100.07 200.14s30.462 78.32 47.862 39.16 69.61-204.49 78.31-147.93c8.71 56.56 21.76 187.09 21.76 187.09l104.42 34.8c104.42 34.81-79.01-210.18-80.79-313.92-.68-40.2 6.9-77.31 43.77-93.81 41.54-18.61 103.6-25.33 106.63-1.25 4.38 34.76 90.91 279.23 138.14 286.06l83.75-25.01s-82.66-65.25-87.01-104.41-47.86-113.12-8.7-121.83c39.15-8.7 230.59 121.83 230.59 121.83s65.27-65.27 34.81-73.97-145.73-71.75-145.73-137.01c0-41.27 49.13-254.84 93.52-289.37 39.16-30.46 39.16-43.51 39.16-43.51s-47.86-274.1-13.05-321.96c34.8-47.86 65.26-87.02 65.26-87.02s8.7-17.4-13.05-73.96c-21.76-56.56-34.82-269.75-34.82-269.75s-8.69-95.72 47.87-195.79 13.05-160.98 95.72-165.34c147.1-7.74 307.97-166.51 297.37-201.93h-209.36c-39.93 52.5-126.96 168.07-233.19 0h-427.88c-.9 39.59-12.11 102.18-75.22 93.16-91.37-13.05-126.18-65.26-126.18-65.26v-27.9h-278.64c-23.895 20.2-38.965 23.55-38.965 23.55l-20.403-23.55h-166.11" fill="url(#c)"/></g><path d="M1166.3-520.99c.471 2.676 1.857 7.854 3.132 8.845 1.381 1.075 1.381 1.535 1.381 1.535s-1.688 9.67-.46 11.358c1.227 1.688 2.302 3.07 2.302 3.07s.307.614-.46 2.61c-.768 1.994-1.229 9.515-1.229 9.515s-.306 3.377 1.689 6.907.46 5.68 3.377 5.833c3.671.194 7.586 3.054 9.43 5.153-1.945-1.535-4.36-3.162-7.156-4.07a30.772 30.772 0 00-5.41-1.216c-3.314-8.288-4.707-14.094-3.682-23.171-2.096-5.031-2.193-10.752.154-15.805-2.442-3.708-3.146-5.996-3.146-10.435l.078-.13" fill="#bba787" fill-rule="evenodd"/><path d="M1130.9-464.19c1-.867 1.822-1.8 1.822-2.52 0-1.841-.307-4.45 0-7.213s1.228-3.684.767-5.833c-.46-2.149-1.074-1.842-.92-5.218.153-3.377 1.38-8.135 1.073-9.363-.306-1.228-1.534-13.353-.767-16.116s-1.995-7.981-1.995-7.981l-3.223-5.833-1.996-2.763 2.149-.767 1.228-.46s.598 1.196 2.11 2.11c-.246.865-.521 1.546-1.496 2.034 3.831 5.747 5.66 10.002 6.132 14.855.425 4.377-.127 8.911-.364 13.468a37.079 37.079 0 00.034 4.235c.254 4.148.891 6.486.14 9.72-.243 1.042-.479 1.905-.46 2.72.14 6.33-.143 11.139-1.288 14.926zm15.942-7.584l.614-12.126 1.228 5.525c.082-5.146.35-10.31-.128-15.444-.337-3.617-.934-7.174-1.56-10.956.136 3.686.54 7.372.332 11.058a29.18 29.18 0 01-.217 2.295c-1.75-2.707-1.713-.248-1.407 2.63.603 5.673.85 11.317 1.138 17.017zm12.371 2.475c5.05-4.131 7.627.05 10.204 4.066-2.112-3.538-4.138-7.919-9.207-6.06-2.993-5.838-2.032-13.849-1.487-20.649.96-5.347-.682-10.085-2.862-17.419-.627-2.11-.885-4.302-.885-7.539l.614 2.456c.264 1.056.54 1.774.904 2.367 1.903 3.11 3.257 4.445 4.622 8.224-.752-4.23-1.033-5.914-3.304-9.302a10.155 10.155 0 01-.904-1.695c-1.265-2.954-1.756-5.294.985-8.035-3.165 1.675-3.089 2.732-4.298 6.14l-.767-2.917c-.09 4.684.206 7.617 1.217 11.055 2.111 7.185 3.961 11.991 3.097 17.81-.9 6.07-1.551 8.435-.63 14.879-.564-6.083.18-8.068 1.42-12.741-.901 6.457-1.078 12.93 1.28 19.361zm-24.161-54.649c.174.005.367.001.585-.012 2.456-.154 3.837 0 3.53-1.996-.24-1.555-1.69-5.254-2.319-6.81l2.688-.371 1.068.313a79.1 79.1 0 00.322 2.633c-1.113-.03-.846-.07-.916.798-.016.195-.23.243-.704.243 1.15 2.804 1.922 5.462-.877 6.247-1.353.38-2.311.16-3.61-.189 1.67.094 2.571.174 3.797-.729-1.637.2-2.759.22-3.564-.127zm3.626 59.614c-.74-.585-1.2-.687-1.2-.687l-.72.831h-.313c.028-3.54.29-6.923 1.17-10.741.55-2.385 1.037-4.743 1.01-6.852-.01-.747-.092-1.57-.26-2.544-.565-3.26-.925-6.325-.766-9.866.108-2.416.288-4.808.532-7.306.177-1.819.232-3.637-.044-5.505-.809-5.482-2.792-9.673-5.213-14.96 3.342 5.613 5.41 9.503 6.214 14.733.309 2.004.364 3.986.294 5.964-.113 3.188-.215 5.26 0 7.17.836 7.41 3.779 11.124 1.166 18.486 1.259-5.754.812-8.826-1.995-14.274.65 2.9.958 5.295 1.025 7.333.081 2.463-.269 5.042-.664 7.613-.607 3.953-.615 6.894-.236 10.606" fill="#947f64" fill-rule="evenodd"/><path d="M1136.5-520.32c2.937 4.205 4.218 9.14 4.637 13.776.488 5.4-.616 10.551.12 15.917.312-5.305.89-10.654.926-15.962.023-3.453-.285-6.306-2.115-11.429 1.402.921 3 5.321 3.26 9.361-.015-7.624-.891-9.208-5.446-13.235l1.61 4.642-2.992-3.069" fill="#9c866a" fill-rule="evenodd"/></g><path d="M394.362 59.584c-49.964-14.996-131.133-16.52-139.809-16.641v-.01l-.382.005c-.247-.002-.39-.005-.39-.005v.01c-8.6.123-88.42 1.652-138.359 16.64 0 0-4.241 1.587-1.927 13.48 2.313 11.894 3.086 34.624 3.086 34.624s11.907 1.85 18.68 1.85 19.884-2.38 25.67-2.38c5.784 0 34.323.265 34.323.265s-26.61.265-36.635 2.114c-10.028 1.85-19.67 1.586-26.226 1.586-6.554 0-15.811 2.817-15.811 2.817l2.314 63.257h5.399l-5.014 2.115s1.158 41.495 1.158 44.402c0 2.908 1.156 7.136 1.156 7.136s103.137 1.835 132.576.024c29.448 1.811 134.024-.024 134.024-.024s1.154-4.228 1.154-7.136c0-2.906 1.157-24.315 1.157-24.315l-5.01-2.114h5.398l2.314-37.886s-9.257-2.817-15.812-2.817-16.198.264-26.224-1.585c-10.03-1.85-36.639-2.115-36.639-2.115s28.541-.263 34.323-.263c5.787 0 18.9 2.378 25.674 2.378 6.771 0 18.678-1.85 18.678-1.85s.772-68.189 3.086-80.084c2.315-11.893-1.929-13.479-1.929-13.479" fill="#e1c377"/><path d="M396.945 65.177c-127.665-25.244-223.083-17.062-280.01-6.032-.496.144-.996.288-1.487.435 0 0-4.242 1.586-1.927 13.48.28 1.425.53 3.01.768 4.69C251.74 46.252 356.07 63.315 396.383 72.7c.6-3.223.714-5.671.562-7.522M116.04 96.494c.402 6.37.567 11.2.567 11.2s11.907 1.85 18.68 1.85 19.884-2.38 25.671-2.38c5.783 0 34.323.265 34.323.265s-26.61.265-36.636 2.115c-10.027 1.85-19.67 1.585-26.225 1.585s-15.812 2.817-15.812 2.817l1.71 46.705c75.34-9.009 146.156-9.636 199.885-7.796 7.878-.07 26.176-.23 30.676-.23 5.787 0 18.9 2.378 25.674 2.378 6.772 0 18.679-1.85 18.679-1.85s.17-15.06.59-32.255c-60.151-10.396-166.477-13.734-166.477-13.734 58.506-2.262 130.298 3.816 166.64 7.485.152-5.57.329-11.198.537-16.474-113.664-20.442-224.289-9.603-278.485-1.682m30.007 78.872c34.83-5.815 165.448-8.987 165.448-8.987-98.875-4.477-166.778 2.01-192.806 5.236l.205 5.6h5.4l-5.015 2.114s1.158 41.496 1.158 44.403c0 .43.036.888.071 1.357 76.06-2.028 214.955 3.208 267.782 5.397.12-.479.336-1.37.543-2.421-67.309-8.616-226.822-15.697-226.822-15.697 54.603-1.989 172.467 4.102 227.477 7.241.308-7.098 1.013-20.192 1.013-20.192l-5.01-2.114h5.397l.974-15.962c-117.454-11.738-245.816-5.975-245.816-5.975" fill="#e5ca87"/><path d="M177.665 104.064h.115q.43-1.864.874-3.662.446-1.814.907-3.71h2.012l-2.77 11.23h-2.144l-1.847-7.223-1.781 7.224h-2.16l-2.854-11.231h2.012l1.864 7.372h.099l.445-1.798q.33-1.402.66-2.77.346-1.386.692-2.804h2.012zm6.899 3.859h-1.946v-8.395h1.946zm0-9.302h-1.946v-1.93h1.946zm1.008.906h1.55v-2.836h1.946v2.836h1.55v1.897h-1.55v6.498h-1.946v-6.498h-1.55zm9.248 1.88q-.428 0-.709.116-.264.099-.412.28-.148.182-.214.445-.05.248-.05.545v5.129h-1.847V96.69h1.847v3.018q.247-.083.511-.132.28-.05.594-.05h.99q.725 0 1.27.248.56.247.923.66.38.395.56.923.182.511.182 1.039v5.525h-1.864v-5.13q0-.296-.049-.543-.05-.264-.214-.446-.149-.181-.413-.28-.264-.115-.692-.115zm6.88 6.516h-1.946v-8.395h1.946zm0-9.302h-1.946v-1.93h1.946zm4.85 2.786q-.43 0-.71.116-.264.099-.412.28-.149.182-.215.445-.05.248-.05.545v5.129h-1.929v-8.395h1.93v.215q.577-.215 1.237-.215h.857q.726 0 1.287.248t.923.66q.38.395.56.923.199.511.199 1.039v5.525h-1.93v-5.13q0-.296-.05-.544-.049-.263-.197-.445-.132-.181-.396-.28-.264-.116-.71-.116zm11.131-4.715h1.946v11.23h-1.946zm5.47 11.231h-1.946v-8.395h1.946zm0-9.302h-1.946v-1.93h1.946zm1.24 3.893q0-.61.23-1.138.232-.544.611-.956.38-.412.874-.643.495-.248.99-.248h1.88q.643 0 1.138.28.51.265.84.693.347.413.529.94.197.512.197 1.006v2.128h-5.343v.445q0 .594.33.841t.874.248h3.843v1.847h-4.272q-.56 0-1.055-.215-.495-.23-.874-.61-.363-.38-.577-.907-.215-.528-.215-1.154zm1.963.495h3.413v-.082q0-.643-.33-1.056-.33-.429-.89-.429h-1.023q-.263 0-.478.132-.214.116-.363.314t-.247.478q-.082.264-.082.56zm12.348-1.849h-3.282q-.214 0-.363.082-.132.066-.23.198-.1.132-.15.297-.049.149-.049.297 0 .313.198.577.215.248.512.248h1.847q.577 0 1.006.198.445.197.725.544.297.346.429.824.148.479.148 1.023v.05q0 .544-.18.989-.166.445-.48.759-.313.313-.741.494-.43.182-.907.182h-3.991v-1.633h3.43q.379 0 .692-.214.33-.215.347-.644v.017q0-.247-.1-.412-.082-.165-.23-.264-.149-.116-.33-.165-.181-.05-.38-.05h-1.484q-.725 0-1.203-.23-.462-.231-.743-.594-.263-.363-.362-.825t-.1-.94q0-.495.15-.956t.428-.808q.297-.363.726-.561t.973-.198h3.694zm7.981 1.024q.05-.528.23-1.006.198-.479.561-.842.363-.362.907-.577.545-.23 1.254-.23h.99q.741 0 1.286.247.56.247.923.66.363.395.544.923.182.511.182 1.039v5.525h-4.684q-.544 0-.973-.198-.429-.215-.726-.544-.28-.347-.428-.808-.132-.462-.132-.99 0-.511.148-.956t.429-.759q.28-.33.693-.511.428-.198.956-.198h2.82v-.165q0-.297-.05-.544-.049-.264-.18-.446-.133-.181-.397-.28-.263-.115-.709-.115h-.412q-.66 0-.94.197-.28.182-.38.578zm1.698 3.2q0 .428.165.642.182.198.396.198h2.721v-1.682h-2.72q-.215 0-.397.214-.165.215-.165.627zm16.113.643q.396 0 .676-.181.28-.198.363-.528h1.962q-.148 1.187-.923 1.897-.775.709-2.078.709h-.676q-.71 0-1.287-.215-.577-.214-.973-.61-.396-.412-.626-.973-.215-.577-.215-1.27v-2.26q0-.708.215-1.269.23-.56.626-.957t.973-.61q.577-.23 1.287-.23h.676q1.336 0 2.11.709t.891 1.946h-1.946q-.099-.363-.363-.561-.263-.198-.692-.198h-.676q-.528 0-.874.346-.33.33-.33.874v2.144q0 .544.33.89.346.347.874.347zm7.514-6.5q.725 0 1.286.231.577.215.973.61.413.396.627.957.214.56.214 1.27v2.26q0 .692-.214 1.27-.214.56-.627.972-.396.396-.973.61-.56.215-1.286.215h-.676q-.71 0-1.287-.215-.577-.214-.99-.61-.395-.412-.61-.973-.197-.577-.197-1.27v-2.26q0-.708.198-1.27.214-.56.61-.956.412-.395.99-.61.577-.23 1.286-.23zm-.676 1.897q-.512 0-.874.346-.347.33-.347.874v2.144q0 .544.347.89.362.347.874.347h.676q.528 0 .857-.346.347-.347.347-.89v-2.145q0-.544-.347-.874-.33-.346-.857-.346zm9.798-2.967h-.594q-.56 0-.907.347t-.346.89v.363h1.847v1.897h-1.847v5.986h-1.732v-5.986h-1.5v-1.897h1.5v-.28q0-.71.198-1.27.198-.577.577-.973.396-.396.94-.61.561-.231 1.27-.231h.594zm6.03 0h-.594q-.56 0-.907.347t-.346.89v.363h1.847v1.897h-1.847v5.986h-1.732v-5.986h-1.5v-1.897h1.5v-.28q0-.71.198-1.27.198-.577.577-.973.396-.396.94-.61.56-.231 1.27-.231h.594zm1.051 4.057q0-.61.23-1.138.232-.544.611-.956t.874-.643q.495-.248.99-.248h1.88q.643 0 1.138.28.51.265.84.693.347.413.528.94.198.512.198 1.006v2.128h-5.343v.445q0 .594.33.841t.874.248h3.843v1.847h-4.272q-.56 0-1.055-.215-.495-.23-.874-.61-.363-.38-.577-.907-.215-.528-.215-1.154zm1.963.495h3.413v-.082q0-.643-.33-1.056-.33-.429-.89-.429h-1.023q-.263 0-.478.132-.214.116-.363.314t-.247.478q-.082.264-.082.56zm6.355-.495q0-.61.23-1.138.232-.544.611-.956.38-.412.874-.643.495-.248.99-.248h1.88q.643 0 1.138.28.51.265.84.693.347.413.528.94.198.512.198 1.006v2.128h-5.343v.445q0 .594.33.841.33.248.874.248h3.843v1.847h-4.272q-.56 0-1.055-.215-.495-.23-.874-.61-.363-.38-.577-.907-.215-.528-.215-1.154zm1.962.495h3.414v-.082q0-.643-.33-1.056-.33-.429-.89-.429h-1.023q-.263 0-.478.132-.214.116-.363.314t-.247.478q-.083.264-.083.56zM317 101.16h-3.282q-.215 0-.363.082-.132.066-.231.198t-.149.297q-.049.149-.049.297 0 .313.198.577.214.248.511.248h1.847q.577 0 1.006.198.445.197.726.544.297.346.429.824.148.479.148 1.023v.05q0 .544-.181.989-.165.445-.479.759t-.742.494-.907.182h-3.99v-1.633h3.43q.379 0 .692-.214.33-.215.346-.644v.017q0-.247-.099-.412-.082-.165-.23-.264-.149-.116-.33-.165t-.38-.05h-1.484q-.726 0-1.204-.23-.462-.231-.742-.594-.264-.363-.363-.825t-.099-.94q0-.495.149-.956t.428-.808q.297-.363.726-.561t.973-.198H317zm5.287.247q-.429 0-.71.116-.263.099-.411.28-.149.182-.215.445-.05.248-.05.545v5.129h-1.846V96.69h1.847v3.018q.247-.083.51-.132.281-.05.595-.05h.99q.725 0 1.269.248.56.247.924.66.379.395.56.923.182.511.182 1.039v5.525h-1.864v-5.13q0-.296-.05-.543-.049-.264-.214-.446-.148-.181-.412-.28-.264-.115-.693-.115zm8.442-1.88q.725 0 1.286.231.577.215.973.61.412.396.627.957.214.56.214 1.27v2.26q0 .692-.214 1.27-.215.56-.627.972-.396.396-.973.61-.56.215-1.286.215h-.676q-.71 0-1.287-.215-.577-.214-.99-.61-.395-.412-.61-.973-.197-.577-.197-1.27v-2.26q0-.708.198-1.27.214-.56.61-.956.412-.395.99-.61.576-.23 1.286-.23zm-.676 1.897q-.512 0-.874.346-.347.33-.347.874v2.144q0 .544.347.89.362.347.874.347h.676q.527 0 .857-.346.347-.347.347-.89v-2.145q0-.544-.347-.874-.33-.346-.857-.346zm8.623-1.897q.725 0 1.286.231.577.215.973.61.412.396.627.957t.214 1.27v2.26q0 .692-.214 1.27-.215.56-.627.972-.396.396-.973.61-.56.215-1.286.215h-.528q-.726 0-1.32-.231v3.1h-1.912V99.527zm-1.847 1.897v3.364q0 .544.33.89t.857.347h.66q.527 0 .874-.346t.346-.89v-2.145q0-.544-.346-.874-.347-.346-.874-.346zm-182.714 27.114q-.726 0-1.303-.214-.56-.214-.973-.61-.396-.412-.61-.973-.215-.577-.215-1.27v-2.26q0-.709.215-1.27.214-.56.61-.956.412-.396.973-.61.577-.23 1.303-.23h.66q.692 0 1.253.197v-3.034h1.847v11.23zm1.913-1.896v-3.38q0-.545-.363-.875-.363-.346-.89-.346h-.66q-.528 0-.907.346-.363.33-.363.874v2.144q0 .544.363.89.379.347.907.347zm5.022 1.896h-1.946v-8.394h1.946zm0-9.301h-1.946v-1.93h1.946zm5.313 9.301h-1.847l-2.54-8.394h1.83l1.617 5.327 1.567-5.327h1.847zm5.479 0h-1.946v-8.394h1.946zm0-9.301h-1.946v-1.93h1.946zm4.848 2.786q-.428 0-.708.116-.264.099-.413.28-.148.181-.214.445-.05.248-.05.544v5.13h-1.929v-8.395h1.93v.214q.577-.214 1.236-.214h.858q.726 0 1.286.247t.924.66q.38.396.56.924.198.51.198 1.039v5.524h-1.93v-5.129q0-.296-.049-.544-.049-.264-.197-.445-.132-.181-.396-.28-.264-.116-.71-.116zm4.732 1.104q0-.61.23-1.138.232-.544.61-.956.38-.413.875-.644.495-.247.99-.247h1.88q.643 0 1.137.28.512.264.842.693.346.412.527.94.198.511.198 1.006v2.127h-5.343v.446q0 .593.33.84t.874.248h3.842v1.847h-4.27q-.561 0-1.056-.214-.495-.231-.874-.61-.363-.38-.578-.907-.214-.528-.214-1.155zm1.962.495h3.414v-.083q0-.643-.33-1.055-.33-.429-.89-.429h-1.023q-.264 0-.478.132-.214.115-.363.313t-.247.479q-.083.263-.083.56zm6.628 5.294v-1.897h1.963v1.897zm11.828-9.531h-2.87v-2.077h7.784v2.077h-2.902v9.153h-2.012zm5.67 3.415q.05-.528.232-1.007.198-.478.56-.84t.907-.578q.545-.23 1.254-.23h.99q.741 0 1.286.246.56.248.923.66.363.396.544.924.182.51.182 1.039v5.524h-4.684q-.544 0-.973-.197-.429-.215-.726-.545-.28-.346-.428-.808-.132-.461-.132-.99 0-.51.148-.956t.429-.758q.28-.33.692-.512.43-.197.957-.197h2.82v-.165q0-.297-.05-.545-.049-.264-.18-.445-.133-.181-.397-.28-.263-.116-.709-.116h-.412q-.66 0-.94.198-.28.182-.38.577zm1.7 3.199q0 .429.164.643.182.198.396.198h2.721v-1.682h-2.72q-.215 0-.397.214-.165.214-.165.627zm13.446 2.539h-2.177l-2.836-3.2v3.2h-1.946v-11.23h1.946v5.491l2.672-2.655h2.292l-4.04 3.876zm.541-5.411q0-.61.231-1.138.231-.544.61-.956.38-.413.875-.644.494-.247.99-.247h1.88q.642 0 1.137.28.511.264.841.693.347.412.528.94.198.511.198 1.006v2.127h-5.343v.446q0 .593.33.84t.873.248h3.843v1.847h-4.271q-.56 0-1.056-.214-.494-.231-.874-.61-.362-.38-.577-.907-.214-.528-.214-1.155zm1.963.495h3.414v-.083q0-.643-.33-1.055-.33-.429-.89-.429h-1.023q-.264 0-.478.132-.215.115-.363.313t-.248.479q-.082.263-.082.56zm12.302-3.479h1.55v-2.837h1.946v2.837h1.55v1.897h-1.55v6.497h-1.946v-6.497h-1.55zm9.252 1.88q-.43 0-.71.116-.263.099-.412.28-.148.181-.214.445-.05.248-.05.544v5.13h-1.847v-11.231h1.847v3.018q.248-.083.512-.132.28-.05.593-.05h.99q.725 0 1.27.248.56.247.923.66.38.395.56.923.182.511.182 1.039v5.525h-1.863v-5.13q0-.296-.05-.544-.05-.264-.214-.445-.149-.181-.412-.28-.264-.116-.693-.116zm4.731 1.104q0-.61.23-1.138.231-.544.61-.956t.875-.644q.495-.247.99-.247h1.88q.643 0 1.137.28.512.264.841.693.347.412.528.94.198.511.198 1.006v2.127h-5.343v.446q0 .593.33.84t.874.248h3.842v1.847h-4.27q-.562 0-1.056-.214-.495-.231-.874-.61-.363-.38-.578-.907-.214-.528-.214-1.155zm1.962.495h3.414v-.083q0-.643-.33-1.055-.33-.429-.89-.429h-1.023q-.264 0-.478.132-.215.115-.363.313t-.247.479q-.083.263-.083.56zm18.508-1.846h-3.282q-.214 0-.363.082-.131.066-.23.198-.1.132-.149.297-.05.148-.05.297 0 .313.199.577.214.247.51.247h1.848q.577 0 1.006.198.445.198.726.545.296.346.428.824.149.478.149 1.023v.05q0 .543-.182.989-.165.445-.478.758-.313.314-.742.495t-.907.181h-3.991v-1.632h3.43q.38 0 .693-.215.33-.214.346-.643v.017q0-.248-.099-.413-.082-.165-.23-.264-.15-.115-.33-.164-.182-.05-.38-.05h-1.484q-.726 0-1.204-.23-.462-.232-.742-.595-.264-.362-.363-.824t-.1-.94q0-.495.15-.957t.428-.808q.297-.363.726-.56.429-.198.973-.198h3.694zm5.257.247q-.429 0-.71.116-.263.099-.412.28-.148.181-.214.445-.05.248-.05.544v5.13h-1.847v-11.231h1.848v3.018q.247-.083.51-.132.281-.05.594-.05h.99q.726 0 1.27.248.56.247.923.66.38.395.561.923.182.511.182 1.039v5.525h-1.864v-5.13q0-.296-.05-.544-.049-.264-.214-.445-.148-.181-.412-.28-.264-.116-.693-.116zm8.472-1.88q.726 0 1.287.23.577.215.973.611.412.396.626.957.215.56.215 1.27v2.259q0 .693-.215 1.27-.214.56-.626.973-.396.396-.973.61-.56.214-1.287.214h-.676q-.709 0-1.286-.214-.577-.214-.99-.61-.395-.412-.61-.973-.198-.577-.198-1.27v-2.26q0-.709.198-1.27.215-.56.61-.956.413-.396.99-.61.577-.23 1.286-.23zm-.676 1.897q-.511 0-.874.346-.346.33-.346.874v2.144q0 .544.346.89.363.347.874.347h.676q.528 0 .858-.347.346-.346.346-.89v-2.144q0-.544-.346-.874-.33-.346-.858-.346zm7.046-.18q.231-.38.61-.66.396-.297.858-.495.478-.198 1.006-.297t1.056-.099h.214v2.045h-.214q-.594 0-1.22.247-.627.231-1.155.627-.511.38-.841.858-.314.478-.314.956v3.496h-2.045v-8.46h2.045zm4.546-1.717h1.55v-2.837h1.946v2.837h1.55v1.897h-1.55v6.497h-1.946v-6.497h-1.55zm5.844 2.984q0-.61.231-1.138.23-.544.61-.956t.874-.644q.495-.247.99-.247h1.88q.643 0 1.138.28.511.264.84.693.347.412.529.94.198.511.198 1.006v2.127h-5.344v.446q0 .593.33.84t.874.248h3.843v1.847h-4.271q-.561 0-1.056-.214-.495-.231-.874-.61-.363-.38-.577-.907-.215-.528-.215-1.155zm1.963.495h3.413v-.083q0-.643-.33-1.055-.33-.429-.89-.429h-1.022q-.264 0-.479.132-.214.115-.362.313t-.248.479q-.082.263-.082.56zm12.354-1.846h-3.282q-.214 0-.362.082-.132.066-.231.198-.1.132-.149.297-.05.148-.05.297 0 .313.199.577.214.247.51.247h1.848q.577 0 1.006.198.445.198.726.545.296.346.428.824.149.478.149 1.023v.05q0 .543-.182.989-.165.445-.478.758-.313.314-.742.495t-.907.181h-3.991v-1.632h3.43q.38 0 .693-.215.33-.214.346-.643v.017q0-.248-.099-.413-.082-.165-.23-.264-.15-.115-.33-.164t-.38-.05h-1.484q-.726 0-1.204-.23-.462-.232-.742-.595-.264-.362-.363-.824t-.099-.94q0-.495.148-.957t.43-.808q.296-.363.725-.56t.973-.198h3.694zm1.608-1.633h1.55v-2.837h1.946v2.837h1.55v1.897h-1.55v6.497h-1.946v-6.497h-1.55zm15.801 0q.726 0 1.287.23.577.215.972.611.413.396.627.957t.215 1.27v2.259q0 .693-.215 1.27-.214.56-.627.973-.395.396-.972.61-.561.214-1.287.214h-.528q-.725 0-1.319-.23v3.1h-1.913v-11.264zm-1.847 1.897v3.364q0 .544.33.89t.857.347h.66q.528 0 .874-.347t.347-.89v-2.144q0-.544-.347-.874-.346-.346-.874-.346zm5.897.76q.05-.528.232-1.007.198-.478.56-.84.363-.364.908-.578.544-.23 1.253-.23h.99q.742 0 1.286.246.56.248.923.66.363.396.545.924.181.51.181 1.039v5.524h-4.684q-.544 0-.973-.197-.429-.215-.725-.545-.28-.346-.43-.808-.131-.461-.131-.99 0-.51.148-.956t.43-.758q.28-.33.692-.512.428-.197.956-.197h2.82v-.165q0-.297-.05-.545-.049-.264-.18-.445-.132-.181-.396-.28-.264-.116-.71-.116h-.412q-.66 0-.94.198-.28.182-.38.577zm1.7 3.199q0 .429.165.643.18.198.395.198h2.721v-1.682h-2.72q-.215 0-.396.214-.165.214-.165.627zm6.093-5.856h1.55v-2.837h1.947v2.837h1.55v1.897h-1.55v6.497h-1.947v-6.497h-1.55zm9.246 1.88q-.429 0-.71.116-.263.099-.411.28-.149.181-.215.445-.05.248-.05.544v5.13h-1.846v-11.231h1.847v3.018q.247-.083.51-.132.281-.05.595-.05h.99q.725 0 1.269.248.56.247.924.66.379.395.56.923.182.511.182 1.039v5.525H357v-5.13q0-.296-.05-.544-.049-.264-.214-.445-.148-.181-.412-.28-.264-.116-.693-.116zm-198.003 21.389q.05-.528.231-1.006.198-.478.56-.841t.908-.577q.544-.231 1.253-.231h.99q.742 0 1.286.247.56.247.924.66.362.396.544.923.181.512.181 1.04v5.524h-4.684q-.544 0-.973-.198-.428-.214-.725-.544-.28-.346-.43-.808-.131-.462-.131-.99 0-.51.148-.956t.43-.759q.28-.33.692-.511.429-.198.956-.198h2.82v-.165q0-.297-.049-.544-.05-.264-.181-.445-.132-.182-.396-.28-.264-.116-.71-.116h-.412q-.66 0-.94.198-.28.181-.379.577zm1.699 3.2q0 .428.165.643.181.197.395.197h2.722v-1.682h-2.722q-.214 0-.395.215-.165.214-.165.626zm9.934-3.973q-.429 0-.71.115-.263.1-.411.28-.149.182-.215.446-.05.247-.05.544v5.13h-1.929v-8.395h1.93v.214q.577-.214 1.237-.214h.857q.726 0 1.286.247t.924.66q.38.396.56.923.199.512.199 1.04v5.524h-1.93v-5.129q0-.297-.05-.544-.049-.264-.197-.445-.132-.182-.396-.28-.264-.116-.71-.116zm7.798 6.512q-.725 0-1.302-.214-.561-.215-.973-.61-.396-.413-.61-.974-.215-.577-.215-1.27v-2.259q0-.709.214-1.27.215-.56.61-.956.413-.396.974-.61.577-.231 1.302-.231h.66q.693 0 1.254.198v-3.035h1.847v11.231zm1.914-1.897v-3.38q0-.544-.363-.874-.363-.347-.89-.347h-.66q-.528 0-.908.347-.362.33-.362.874v2.144q0 .544.362.89.38.347.908.347zm14.998-4.863h-3.282q-.214 0-.363.083-.132.066-.23.198t-.15.297q-.049.148-.049.296 0 .314.198.578.215.247.512.247h1.847q.577 0 1.006.198.445.198.725.544.297.347.429.825.148.478.148 1.022v.05q0 .544-.181.99-.165.445-.478.758-.314.313-.742.495-.43.181-.907.181h-3.992v-1.633h3.43q.38 0 .693-.214.33-.214.347-.643v.016q0-.247-.1-.412-.082-.165-.23-.264-.149-.115-.33-.165-.181-.05-.38-.05h-1.484q-.725 0-1.203-.23-.462-.231-.743-.594-.263-.363-.362-.824-.1-.462-.1-.94 0-.495.15-.957t.428-.808q.297-.363.725-.56t.974-.199h3.694zm1.824 1.021q.05-.528.231-1.006.198-.478.56-.841t.908-.577q.544-.231 1.253-.231h.99q.742 0 1.286.247.56.247.924.66.362.396.544.923.181.512.181 1.04v5.524h-4.684q-.544 0-.973-.198-.428-.214-.725-.544-.28-.346-.43-.808-.131-.462-.131-.99 0-.51.148-.956t.43-.759q.28-.33.692-.511.429-.198.956-.198h2.82v-.165q0-.297-.049-.544-.05-.264-.181-.445-.132-.182-.396-.28-.264-.116-.71-.116h-.412q-.66 0-.94.198-.28.181-.379.577zm1.699 3.2q0 .428.165.643.181.197.395.197h2.722v-1.682h-2.722q-.214 0-.395.215-.165.214-.165.626zm10.398 2.539h-1.847l-2.54-8.394h1.83l1.617 5.327 1.567-5.327h1.847zm7.044-8.392q.725 0 1.286.23.577.215.973.61.413.397.627.957.214.561.214 1.27v2.26q0 .692-.214 1.27-.214.56-.627.972-.396.396-.973.61-.56.215-1.286.215h-.676q-.71 0-1.287-.214-.577-.215-.99-.61-.395-.413-.61-.974-.197-.577-.197-1.27v-2.259q0-.709.198-1.27.214-.56.61-.956.412-.396.99-.61.577-.231 1.286-.231zm-.676 1.896q-.512 0-.874.347-.347.33-.347.874v2.144q0 .544.347.89.362.346.874.346h.676q.528 0 .857-.346.347-.346.347-.89v-2.144q0-.545-.347-.874-.33-.347-.857-.347zm8.635 4.615q.412 0 .66-.098.264-.099.412-.264.165-.165.231-.396.066-.23.066-.494v-5.261h1.93v8.394h-1.93v-.214q-.264.115-.577.165-.297.05-.643.05h-.842q-.742 0-1.302-.248-.545-.248-.907-.643-.363-.413-.561-.924-.181-.528-.181-1.055v-5.525h1.913v5.129q0 .297.049.544t.198.445q.148.182.412.297.264.1.71.1zm6.679-4.798q.231-.38.61-.66.396-.297.858-.495.478-.197 1.006-.296.528-.1 1.056-.1h.214v2.046h-.214q-.594 0-1.22.247-.628.23-1.155.627-.512.379-.841.857-.314.478-.314.957v3.496h-2.045v-8.46h2.045zm13.074 6.679h-1.946v-8.394h1.946zm0-9.301h-1.946v-1.93h1.946zm1.008.909h1.55v-2.837h1.946v2.837h1.55v1.896h-1.55v6.498h-1.946v-6.498h-1.55zm11.819 1.632h-3.282q-.215 0-.363.083-.132.066-.23.198t-.15.297q-.049.148-.049.296 0 .314.198.578.215.247.511.247h1.847q.578 0 1.006.198.446.198.726.544.297.347.429.825.148.478.148 1.022v.05q0 .544-.181.99-.165.445-.478.758t-.742.495q-.43.181-.908.181h-3.99v-1.633h3.43q.379 0 .692-.214.33-.214.347-.643v.016q0-.247-.1-.412-.082-.165-.23-.264-.149-.115-.33-.165t-.38-.05H251.5q-.725 0-1.204-.23-.461-.231-.742-.594-.264-.363-.363-.824-.098-.462-.098-.94 0-.495.148-.957t.429-.808q.297-.363.725-.56t.973-.199h3.695zm13.977 0h-3.282q-.215 0-.363.083-.132.066-.231.198t-.149.297q-.049.148-.049.296 0 .314.198.578.214.247.511.247h1.847q.577 0 1.006.198.445.198.726.544.297.347.429.825.148.478.148 1.022v.05q0 .544-.181.99-.165.445-.479.758-.313.313-.742.495-.429.181-.907.181h-3.99v-1.633h3.43q.379 0 .692-.214.33-.214.346-.643v.016q0-.247-.099-.412-.082-.165-.23-.264-.149-.115-.33-.165-.182-.05-.38-.05h-1.484q-.726 0-1.204-.23-.462-.231-.742-.594-.264-.363-.363-.824-.099-.462-.099-.94 0-.495.149-.957t.428-.808q.297-.363.726-.56.429-.199.973-.199h3.694zm3.988 6.76h-1.946v-8.394h1.946zm0-9.301h-1.946v-1.93h1.946zm5.041.909q.725 0 1.286.23.577.215.973.61.412.397.627.957.214.561.214 1.27v2.26q0 .692-.214 1.27-.215.56-.627.972-.396.396-.973.61-.56.215-1.286.215h-.528q-.726 0-1.32-.23v3.1h-1.913v-11.264zm-1.848 1.896v3.365q0 .544.33.89t.858.346h.66q.527 0 .874-.346t.346-.89v-2.144q0-.545-.346-.874-.347-.347-.874-.347zm6.177 6.876v-1.896h1.962v1.896zm11.842-9.533h-2.869v-2.078h7.784v2.078h-2.902v9.153h-2.012zm5.66 3.414q.049-.528.23-1.006.198-.478.561-.841.363-.363.907-.577.544-.231 1.253-.231h.99q.742 0 1.286.247.561.247.924.66.363.396.544.923.182.512.182 1.04v5.524h-4.684q-.544 0-.973-.198-.429-.214-.726-.544-.28-.346-.429-.808-.132-.462-.132-.99 0-.51.149-.956t.429-.759q.28-.33.692-.511.43-.198.957-.198h2.82v-.165q0-.297-.05-.544-.05-.264-.181-.445-.132-.182-.396-.28-.264-.116-.709-.116h-.412q-.66 0-.94.198-.28.181-.38.577zm1.698 3.2q0 .428.165.643.181.197.396.197h2.721v-1.682h-2.721q-.215 0-.396.215-.165.214-.165.626zm13.453 2.539h-2.177l-2.836-3.2v3.2h-1.946v-11.23h1.946v5.49l2.671-2.654h2.293l-4.04 3.875zm.557-5.408q0-.61.23-1.138.232-.544.61-.957.38-.412.875-.643.495-.247.99-.247h1.88q.643 0 1.137.28.512.264.842.693.346.412.527.94.198.511.198 1.006v2.127h-5.343v.445q0 .594.33.842.33.247.874.247h3.842v1.847h-4.27q-.562 0-1.056-.214-.495-.231-.874-.61-.363-.38-.578-.908-.214-.527-.214-1.154zm1.962.494h3.414v-.082q0-.643-.33-1.055-.33-.43-.89-.43h-1.023q-.264 0-.478.133-.214.115-.363.313t-.247.478q-.083.264-.083.561zm12.478-.825q.05-.528.231-1.006.198-.478.561-.841t.907-.577q.544-.231 1.253-.231h.99q.742 0 1.286.247.561.247.924.66.363.396.544.923.181.512.181 1.04v5.524h-4.683q-.544 0-.973-.198-.429-.214-.726-.544-.28-.346-.429-.808-.132-.462-.132-.99 0-.51.149-.956t.429-.759q.28-.33.692-.511.429-.198.957-.198h2.82v-.165q0-.297-.05-.544-.05-.264-.181-.445-.132-.182-.396-.28-.264-.116-.709-.116h-.412q-.66 0-.94.198-.28.181-.38.577zm1.7 3.2q0 .428.164.643.181.197.396.197h2.721v-1.682h-2.721q-.215 0-.396.215-.165.214-.165.626zm9.927-3.973q-.429 0-.709.115-.264.1-.412.28-.149.182-.215.446-.05.247-.05.544v5.13h-1.929v-8.395h1.93v.214q.577-.214 1.237-.214h.857q.726 0 1.287.247t.923.66q.38.396.56.923.199.512.199 1.04v5.524h-1.93v-5.129q0-.297-.05-.544-.049-.264-.197-.445-.132-.182-.396-.28-.264-.116-.71-.116zm8.04 9.381H347.9l.84-2.902-2.539-8.361h1.83l1.6 5.36 1.584-5.36h1.847zm-188.095 9.351q.725 0 1.286.231.577.215.973.61.412.396.626.957.215.56.215 1.27v2.26q0 .692-.215 1.27-.214.56-.626.972-.396.396-.973.61-.561.215-1.287.215h-.676q-.709 0-1.286-.215-.577-.214-.99-.61-.395-.412-.61-.973-.198-.577-.198-1.27v-2.26q0-.708.198-1.27.215-.56.61-.956.413-.395.99-.61.577-.23 1.286-.23zm-.677 1.897q-.511 0-.874.346-.346.33-.346.874v2.144q0 .544.346.89.363.347.874.347h.676q.528 0 .858-.346.346-.347.346-.89v-2.145q0-.544-.346-.874-.33-.346-.858-.346zm4.594-1.897h1.55v-2.836h1.946v2.836h1.55v1.897h-1.55v6.498h-1.946v-6.498h-1.55zm9.249 1.88q-.429 0-.71.116-.263.099-.411.28t-.215.445q-.05.248-.05.545v5.129h-1.846v-11.231h1.847v3.018q.247-.083.51-.132.281-.05.595-.05h.99q.725 0 1.269.248.56.247.924.66.379.395.56.923.182.511.182 1.039v5.525h-1.864v-5.13q0-.296-.05-.543-.049-.264-.214-.446-.148-.181-.412-.28-.264-.115-.693-.115zm4.734 1.107q0-.61.231-1.138.23-.544.61-.956.38-.412.874-.643.495-.248.99-.248h1.88q.643 0 1.138.28.511.265.84.693.347.413.529.94.198.512.198 1.006v2.128h-5.344v.445q0 .594.33.841t.874.248h3.843v1.847h-4.271q-.561 0-1.056-.215-.495-.23-.874-.61-.363-.38-.577-.907-.215-.528-.215-1.154zm1.963.495h3.413v-.082q0-.643-.33-1.056-.33-.429-.89-.429h-1.022q-.264 0-.479.132-.214.116-.363.314t-.247.478q-.082.264-.082.56zm8.625-1.765q.23-.38.61-.66.396-.297.858-.495.478-.198 1.006-.297.527-.099 1.055-.099h.214v2.045h-.214q-.594 0-1.22.248-.627.23-1.155.626-.511.38-.84.858-.314.478-.314.956v3.497h-2.045v-8.46h2.045zm14.722-1.717q.725 0 1.286.231.577.215.973.61.412.396.627.957.214.56.214 1.27v2.26q0 .692-.214 1.27-.215.56-.627.972-.396.396-.973.61-.56.215-1.286.215h-.528q-.726 0-1.32-.231v3.1h-1.912v-11.264zm-1.847 1.897v3.364q0 .544.33.89t.857.347h.66q.528 0 .874-.346t.346-.89v-2.145q0-.544-.346-.874-.346-.346-.874-.346zm5.913.76q.05-.528.23-1.006.199-.479.562-.842t.907-.577q.544-.23 1.253-.23h.99q.742 0 1.286.247.56.247.923.66.363.395.545.923.181.511.181 1.039v5.525h-4.684q-.544 0-.973-.198-.428-.215-.725-.544-.28-.347-.43-.808-.131-.462-.131-.99 0-.511.148-.956t.43-.76q.28-.329.692-.51.429-.198.956-.198h2.82v-.165q0-.297-.05-.544-.049-.264-.18-.446-.132-.181-.396-.28-.264-.115-.71-.115h-.412q-.66 0-.94.197-.28.182-.38.578zm1.699 3.2q0 .428.165.642.181.198.395.198h2.722v-1.682h-2.722q-.214 0-.395.214-.165.215-.165.627zm6.093-5.857h1.55v-2.836h1.947v2.836h1.55v1.897h-1.55v6.498h-1.946v-6.498h-1.55zm9.249 1.88q-.429 0-.709.116-.264.099-.412.28t-.215.445q-.05.248-.05.545v5.129h-1.846v-11.231h1.847v3.018q.247-.083.511-.132.28-.05.594-.05h.99q.725 0 1.27.248.56.247.923.66.38.395.56.923.182.511.182 1.039v5.525h-1.864v-5.13q0-.296-.05-.543-.049-.264-.214-.446-.148-.181-.412-.28-.264-.115-.693-.115zm10.853.777q.05-.528.232-1.006.198-.479.56-.842t.907-.577q.545-.23 1.254-.23h.99q.741 0 1.286.247.56.247.923.66.363.395.544.923.182.511.182 1.039v5.525h-4.684q-.544 0-.973-.198-.429-.215-.726-.544-.28-.347-.428-.808-.132-.462-.132-.99 0-.511.148-.956t.429-.76q.28-.329.693-.51.428-.198.956-.198h2.82v-.165q0-.297-.05-.544-.049-.264-.18-.446-.133-.181-.397-.28-.263-.115-.709-.115h-.412q-.66 0-.94.197-.28.182-.38.578zm1.7 3.2q0 .428.164.642.182.198.396.198h2.721v-1.682h-2.72q-.215 0-.397.214-.165.215-.165.627zm9.924-3.977q-.428 0-.709.116-.264.099-.412.28t-.214.445q-.05.248-.05.545v5.129h-1.93v-8.395h1.93v.215q.577-.215 1.237-.215h.857q.726 0 1.287.248.56.247.923.66.38.395.561.923.198.511.198 1.039v5.525h-1.93v-5.13q0-.296-.049-.544-.05-.263-.198-.445-.132-.181-.396-.28-.264-.116-.709-.116zm7.793 6.516q-.726 0-1.303-.215-.56-.214-.973-.61-.396-.412-.61-.973-.215-.577-.215-1.27v-2.26q0-.708.215-1.269.214-.56.61-.957.412-.395.973-.61.577-.23 1.303-.23h.66q.692 0 1.253.197v-3.034h1.847v11.23zm1.913-1.897v-3.38q0-.545-.363-.875-.363-.346-.89-.346h-.66q-.528 0-.907.346-.363.33-.363.874v2.144q0 .545.363.89.379.347.907.347zm16.176 1.897h-2.177l-2.836-3.2v3.2h-1.946v-11.231h1.946v5.492l2.671-2.656h2.293l-4.041 3.876zm.526-5.409q0-.61.23-1.138.232-.544.61-.956t.875-.643q.495-.248.99-.248h1.88q.643 0 1.137.28.512.265.841.693.347.413.528.94.198.512.198 1.006v2.128h-5.343v.445q0 .594.33.841t.874.248h3.842v1.847h-4.27q-.562 0-1.056-.215-.495-.23-.874-.61-.363-.38-.578-.907-.214-.528-.214-1.154zm1.962.495h3.414v-.082q0-.643-.33-1.056-.33-.429-.89-.429h-1.023q-.264 0-.478.132-.214.116-.363.314t-.247.478q-.083.264-.083.56zm6.386-.495q0-.61.232-1.138.23-.544.61-.956t.874-.643q.495-.248.99-.248h1.88q.643 0 1.137.28.512.265.841.693.347.413.528.94.198.512.198 1.006v2.128h-5.343v.445q0 .594.33.841t.874.248h3.842v1.847h-4.271q-.56 0-1.055-.215-.495-.23-.874-.61-.363-.38-.578-.907-.214-.528-.214-1.154zm1.963.495h3.414v-.082q0-.643-.33-1.056-.33-.429-.89-.429h-1.023q-.264 0-.478.132-.215.116-.363.314t-.247.478q-.083.264-.083.56zm10.19-3.482q.726 0 1.286.231.578.215.973.61.413.396.627.957.214.56.214 1.27v2.26q0 .692-.214 1.27-.214.56-.627.972-.395.396-.973.61-.56.215-1.286.215h-.528q-.725 0-1.319-.231v3.1h-1.913v-11.264zm-1.847 1.897v3.364q0 .544.33.89.33.347.857.347h.66q.528 0 .874-.346t.346-.89v-2.145q0-.544-.346-.874-.346-.346-.874-.346zm12.33-4.732h1.946v11.23h-1.946zm7.05 2.835q.725 0 1.286.231.577.215.973.61.412.396.627.957.214.56.214 1.27v2.26q0 .692-.214 1.27-.215.56-.627.972-.396.396-.973.61-.56.215-1.286.215h-.676q-.71 0-1.287-.215-.577-.214-.99-.61-.395-.412-.61-.973-.197-.577-.197-1.27v-2.26q0-.708.198-1.27.214-.56.61-.956.412-.395.99-.61.577-.23 1.286-.23zm-.676 1.897q-.512 0-.874.346-.347.33-.347.874v2.144q0 .544.347.89.362.347.874.347h.676q.528 0 .857-.346.347-.347.347-.89v-2.145q0-.544-.347-.874-.33-.346-.857-.346zm8.437-.017q-.429 0-.709.116-.264.099-.412.28t-.215.445q-.05.248-.05.545v5.129h-1.929v-8.395h1.93v.215q.577-.215 1.237-.215h.857q.726 0 1.287.248.56.247.923.66.38.395.561.923.198.511.198 1.039v5.525h-1.93v-5.13q0-.296-.05-.544-.049-.263-.197-.445-.132-.181-.396-.28-.264-.116-.709-.116zm11.658-1.88v8.411q0 .676-.198 1.188-.198.527-.544.89-.347.38-.841.56-.495.199-1.089.199h-3.776v-1.83h3.463q.511 0 .841-.314.346-.314.346-.874v-.1h-2.457q-.544 0-1.039-.18-.478-.199-.841-.578t-.577-.923q-.215-.561-.215-1.287v-2.193q0-.726.215-1.27.214-.56.577-.94t.841-.56q.495-.199 1.04-.199zm-1.814 1.83h-2.029q-.247 0-.462.116-.214.1-.379.297-.165.182-.264.413-.099.23-.099.51v1.782q0 .28.1.528t.263.428q.165.182.38.297.214.1.461.1h2.029zm5.029 6.566h-1.945v-8.395h1.946zm0-9.302h-1.945v-1.93h1.946zm4.855 2.786q-.428 0-.709.116-.264.099-.412.28t-.214.445q-.05.248-.05.545v5.129h-1.93v-8.395h1.93v.215q.577-.215 1.237-.215h.858q.725 0 1.286.248.56.247.924.66.379.395.56.923.198.511.198 1.039v5.525h-1.93v-5.13q0-.296-.049-.544-.05-.263-.198-.445-.132-.181-.396-.28-.263-.116-.709-.116zm11.658-1.88v8.411q0 .676-.198 1.188-.198.527-.544.89-.346.38-.841.56-.495.199-1.089.199h-3.776v-1.83h3.463q.511 0 .841-.314.347-.314.347-.874v-.1h-2.458q-.544 0-1.039-.18-.478-.199-.84-.578t-.578-.923q-.214-.561-.214-1.287v-2.193q0-.726.214-1.27.214-.56.577-.94t.841-.56q.495-.199 1.04-.199zm-1.814 1.83h-2.029q-.247 0-.461.116-.215.1-.38.297-.165.182-.263.413-.1.23-.1.51v1.782q0 .28.1.528t.263.428q.165.182.38.297.214.1.461.1h2.029zM215.89 180.914h-.593q-.56 0-.907.346t-.346.89v.364h1.847v1.896h-1.847v5.987h-1.732v-5.987h-1.5v-1.896h1.5v-.28q0-.71.198-1.27.198-.578.577-.974.396-.395.94-.61.56-.23 1.27-.23h.594zm4.753 1.073q.726 0 1.287.23.577.215.973.611.412.396.626.957t.215 1.27v2.259q0 .693-.215 1.27-.214.56-.626.973-.396.396-.973.61-.561.214-1.287.214h-.676q-.709 0-1.286-.214t-.99-.61q-.396-.413-.61-.973-.198-.577-.198-1.27v-2.26q0-.709.198-1.27.214-.56.61-.956.413-.396.99-.61.577-.23 1.286-.23zm-.676 1.897q-.511 0-.874.346-.346.33-.346.874v2.144q0 .544.346.89.363.347.874.347h.676q.528 0 .858-.347.346-.346.346-.89v-2.144q0-.544-.346-.874-.33-.346-.858-.346zm7.068-.181q.23-.38.61-.66.396-.296.858-.494.478-.198 1.006-.297.527-.099 1.055-.099h.214v2.045h-.214q-.594 0-1.22.247-.627.231-1.155.627-.511.38-.84.858-.314.478-.314.956v3.496h-2.045v-8.46h2.045zm13.077 6.679h-1.946v-8.394h1.946zm0-9.301h-1.946v-1.93h1.946zm1.008.906h1.55v-2.837h1.946v2.837h1.55v1.897h-1.55v6.497h-1.946v-6.497h-1.55zm11.809 1.633h-3.282q-.214 0-.363.082-.132.066-.23.198-.1.132-.149.297-.05.148-.05.297 0 .313.199.577.214.247.51.247h1.848q.577 0 1.006.198.445.198.725.545.297.346.43.824.148.478.148 1.023v.05q0 .543-.182.989-.165.445-.478.758t-.742.495q-.429.181-.907.181h-3.991v-1.632h3.43q.38 0 .693-.215.33-.214.346-.643v.017q0-.248-.099-.413-.082-.165-.23-.264-.15-.115-.33-.164t-.38-.05h-1.484q-.726 0-1.204-.23-.462-.232-.742-.595-.264-.362-.363-.824t-.1-.94q0-.495.15-.957t.428-.808q.297-.363.726-.56t.973-.198h3.694zm17.1 6.762h-1.864l-1.6-5.293-1.566 5.293h-1.847l-2.54-8.394h1.83l1.617 5.327 1.567-5.327h1.847l1.6 5.294 1.583-5.294h1.83zm6.617-6.515q-.429 0-.709.116-.264.099-.412.28-.149.181-.215.445-.05.248-.05.544v5.13h-1.846V179.15h1.847v3.018q.247-.083.511-.132.28-.05.594-.05h.99q.725 0 1.27.248.56.247.923.66.379.395.56.923.182.511.182 1.039v5.525h-1.864v-5.13q0-.296-.05-.544-.049-.264-.214-.445-.148-.181-.412-.28-.264-.116-.693-.116zm6.896 6.515h-1.946v-8.394h1.946zm0-9.301h-1.946v-1.93h1.946zm6.215-.167h-.594q-.56 0-.907.346t-.346.89v.364h1.847v1.896h-1.847v5.987h-1.732v-5.987h-1.5v-1.896h1.5v-.28q0-.71.198-1.27.198-.578.577-.974.396-.395.94-.61.561-.23 1.27-.23h.594zm6.03 0h-.594q-.56 0-.907.346t-.346.89v.364h1.847v1.896h-1.847v5.987h-1.732v-5.987h-1.5v-1.896h1.5v-.28q0-.71.198-1.27.198-.578.577-.974.396-.395.94-.61.561-.23 1.27-.23h.594zm1.268 9.846v-1.897h1.962v1.897z" aria-label="Within lies a coffee shop divine. Take the shortest path and savour its sip. Take any other path and keep longing for its whiff."/><g style="font-feature-settings:normal;font-variant-caps:normal;font-variant-ligatures:normal;font-variant-numeric:normal" aria-label="To aid you in your quest, I bestow upon you power mystical. Utter the word &quot;Ditto&quot; and find yourself a clone just like you."><path d="M190.832 214.802h1.305v.176h-.547v1.367h-.21v-1.367h-.548z"/><path d="M192.422 215.32q-.153 0-.242.12t-.089.327q0 .208.088.328.09.118.243.118.152 0 .24-.12.09-.12.09-.326 0-.206-.09-.326-.088-.12-.24-.12zm0-.16q.248 0 .39.16.141.162.141.447 0 .284-.141.446-.142.162-.39.162-.249 0-.39-.162-.141-.162-.141-.446 0-.285.14-.447.142-.16.391-.16zm2.045.602q-.23 0-.32.053-.088.053-.088.18 0 .101.066.161.067.059.182.059.158 0 .253-.112.096-.112.096-.298v-.043zm.38-.078v.66h-.19v-.176q-.066.106-.163.156t-.238.05q-.177 0-.283-.1-.104-.1-.104-.267 0-.195.13-.294.131-.1.39-.1h.267v-.018q0-.131-.086-.203-.086-.072-.242-.072-.1 0-.193.024-.095.023-.181.071v-.176q.104-.04.202-.06.098-.02.191-.02.252 0 .376.13t.124.395zm.39-.499h.19v1.158h-.19zm0-.45h.19v.24h-.19zm1.35.628v-.627h.19v1.609h-.19v-.174q-.06.103-.152.154-.091.05-.22.05-.21 0-.342-.168-.13-.167-.13-.44t.13-.44q.133-.168.343-.168.128 0 .219.05.092.05.152.154zm-.648.404q0 .21.085.33.087.118.238.118t.238-.118q.087-.12.087-.33t-.087-.329q-.087-.12-.238-.12t-.238.12q-.085.119-.085.329zm2.386.683q-.08.207-.157.27t-.205.063h-.152v-.16h.112q.078 0 .122-.036.043-.038.096-.176l.034-.087-.468-1.139h.201l.362.905.362-.905h.201zm1.22-1.13q-.153 0-.242.12-.09.12-.09.327 0 .208.089.328.089.118.243.118.152 0 .24-.12.09-.12.09-.326 0-.206-.09-.326-.088-.12-.24-.12zm0-.16q.248 0 .39.16.14.162.14.447 0 .284-.14.446-.142.162-.39.162-.25 0-.391-.162-.14-.162-.14-.446 0-.285.14-.447.142-.16.39-.16zm.825.727v-.701h.19v.693q0 .165.064.247.064.082.193.082.154 0 .242-.098.09-.098.09-.268v-.656h.19v1.157h-.19v-.177q-.069.105-.16.157-.092.05-.213.05-.2 0-.303-.124-.103-.124-.103-.362zm2.037-.702h.19v1.158h-.19zm0-.45h.19v.24h-.19zm1.548.911v.698h-.19v-.692q0-.164-.064-.246-.064-.082-.192-.082-.154 0-.243.099-.09.098-.09.267v.654h-.19v-1.157h.19v.18q.07-.105.161-.156.093-.052.214-.052.2 0 .302.124.102.123.102.363zm1.537.804q-.08.207-.157.27t-.204.063h-.152v-.16h.111q.079 0 .122-.036.044-.038.096-.176l.034-.087-.468-1.139h.202l.362.905.361-.905h.202zm1.22-1.13q-.153 0-.242.12t-.089.327q0 .208.088.328.09.118.243.118.152 0 .24-.12.09-.12.09-.326 0-.206-.09-.326-.088-.12-.24-.12zm0-.16q.248 0 .39.16.141.162.141.447 0 .284-.141.446-.142.162-.39.162-.249 0-.39-.162-.141-.162-.141-.446 0-.285.14-.447.142-.16.391-.16zm.826.727v-.701h.19v.693q0 .165.064.247.064.082.192.082.154 0 .243-.098.09-.098.09-.268v-.656h.19v1.157h-.19v-.177q-.07.105-.161.157-.091.05-.212.05-.2 0-.303-.124-.103-.124-.103-.362zm2.034-.524q-.032-.019-.07-.027-.037-.01-.083-.01-.161 0-.248.106-.086.104-.086.3v.61h-.19v-1.157h.19v.18q.06-.106.156-.156.097-.052.234-.052.02 0 .043.003.024.002.053.007zm.99.402q0 .21.085.33.087.118.238.118t.238-.118q.087-.12.087-.33t-.087-.329q-.087-.12-.238-.12-.15 0-.238.12-.085.12-.085.329zm.648.404q-.06.103-.152.154-.091.05-.22.05-.21 0-.341-.168-.132-.167-.132-.44t.132-.44q.132-.168.342-.168.128 0 .219.05.092.05.152.154v-.176h.19v1.598h-.19zm.56-.282v-.701h.191v.693q0 .165.064.247.064.082.192.082.154 0 .243-.098.09-.098.09-.268v-.656h.19v1.157h-.19v-.177q-.07.105-.161.157-.091.05-.212.05-.2 0-.303-.124-.103-.124-.103-.362zm2.356-.17v.093h-.875q.013.197.118.3.107.102.296.102.11 0 .212-.027.103-.026.204-.08v.18q-.102.043-.21.066-.107.023-.218.023-.277 0-.439-.162-.161-.16-.161-.436 0-.284.153-.45.154-.168.414-.168.234 0 .37.151.136.15.136.408zm-.19-.056q-.003-.156-.088-.249-.085-.093-.226-.093-.159 0-.255.09-.095.09-.11.254zm1.24-.441v.18q-.08-.042-.167-.062-.087-.021-.18-.021-.142 0-.213.043-.07.044-.07.13 0 .067.05.105.05.037.204.071l.065.015q.202.043.287.123.086.078.086.22 0 .161-.128.255-.127.094-.35.094-.094 0-.195-.018-.1-.018-.212-.054v-.196q.106.054.208.082.102.027.203.027.134 0 .206-.045.073-.047.073-.13 0-.078-.053-.12-.052-.04-.228-.079l-.067-.016q-.176-.037-.255-.113-.078-.078-.078-.212 0-.163.115-.252.116-.09.329-.09.105 0 .198.016t.172.047zm.553-.363v.33h.392v.147h-.392v.628q0 .142.038.182.04.04.158.04h.196v.16h-.196q-.22 0-.304-.082-.083-.083-.083-.3v-.628h-.14v-.148h.14v-.329zm.691 1.225h.218v.178l-.17.33h-.133l.084-.33zm1.307-1.28h.208v1.543h-.208zm2.121.963q0-.21-.086-.329-.086-.12-.237-.12-.15 0-.238.12-.086.12-.086.329t.086.33q.087.118.238.118.15 0 .237-.118.086-.12.086-.33zm-.647-.404q.06-.104.151-.153.092-.05.22-.05.21 0 .342.167.132.167.132.44t-.132.44q-.132.168-.343.168-.127 0-.219-.05-.09-.05-.15-.154v.174h-.192v-1.608h.191zm2.15.356v.093h-.874q.012.197.118.3.106.102.295.102.11 0 .212-.027.104-.026.205-.08v.18q-.102.043-.21.066-.107.023-.218.023-.277 0-.44-.162-.16-.16-.16-.436 0-.284.152-.45.154-.168.415-.168.233 0 .369.151.136.15.136.408zm-.19-.056q-.002-.156-.088-.249-.084-.093-.225-.093-.16 0-.255.09t-.11.254zm1.241-.441v.18q-.081-.042-.168-.062-.087-.021-.18-.021-.141 0-.213.043-.07.044-.07.13 0 .067.05.105.051.037.204.071l.066.015q.202.043.287.123.086.078.086.22 0 .161-.128.255t-.35.094q-.094 0-.195-.018-.1-.018-.212-.054v-.196q.105.054.208.082.102.027.202.027.135 0 .207-.045.072-.047.072-.13 0-.078-.052-.12-.052-.04-.229-.079l-.066-.016q-.177-.037-.255-.113-.079-.078-.079-.212 0-.163.116-.252.116-.09.329-.09.105 0 .198.016t.172.047zm.553-.363v.33h.391v.147h-.391v.628q0 .142.038.182.04.04.158.04h.195v.16h-.195q-.22 0-.304-.082-.084-.083-.084-.3v-.628h-.14v-.148h.14v-.329zm1.092.463q-.153 0-.242.12-.088.12-.088.327 0 .208.087.328.09.118.243.118.152 0 .241-.12t.089-.326q0-.206-.089-.326-.089-.12-.24-.12zm0-.16q.248 0 .39.16.142.162.142.447 0 .284-.142.446-.142.162-.39.162-.249 0-.39-.162-.14-.162-.14-.446 0-.285.14-.447.141-.16.39-.16zm.733.025h.19l.238.904.237-.904h.224l.238.904.236-.904h.19l-.302 1.158h-.224l-.25-.949-.25.949h-.224zm2.498.702v-.701h.19v.693q0 .165.064.247.064.082.192.082.154 0 .243-.098.09-.098.09-.268v-.656h.19v1.157h-.19v-.177q-.07.105-.161.157-.091.05-.212.05-.2 0-.303-.124-.103-.124-.103-.362zm1.548.283v.614h-.192v-1.598h.192v.175q.06-.103.15-.152.093-.051.22-.051.21 0 .342.167.132.168.132.44t-.132.44q-.131.168-.342.168-.127 0-.22-.05-.09-.05-.15-.153zm.647-.404q0-.21-.087-.33-.086-.119-.237-.119-.15 0-.238.12-.085.119-.085.329t.085.33q.087.118.238.118t.237-.119q.087-.12.087-.33zm.961-.446q-.153 0-.242.12-.088.12-.088.327 0 .208.087.328.09.118.243.118.152 0 .241-.12t.089-.326q0-.206-.089-.326-.089-.12-.24-.12zm0-.16q.248 0 .39.16.142.162.142.447 0 .284-.142.446-.142.162-.39.162-.249 0-.39-.162-.14-.162-.14-.446 0-.285.14-.447.141-.16.39-.16zm1.807.486v.698h-.19v-.692q0-.164-.064-.246-.064-.082-.192-.082-.154 0-.243.099-.089.098-.089.267v.654h-.191v-1.157h.191v.18q.068-.105.16-.156.093-.052.214-.052.2 0 .302.124.102.123.102.363zm1.538.804q-.081.207-.158.27t-.204.063h-.152v-.16h.112q.078 0 .122-.036.043-.038.096-.176l.034-.087-.468-1.139h.201l.362.905.362-.905h.201zm1.219-1.13q-.153 0-.242.12-.088.12-.088.327 0 .208.087.328.09.118.243.118.152 0 .241-.12t.089-.326q0-.206-.089-.326-.089-.12-.24-.12zm0-.16q.248 0 .39.16.142.162.142.447 0 .284-.142.446-.142.162-.39.162-.249 0-.39-.162-.14-.162-.14-.446 0-.285.14-.447.141-.16.39-.16zm.826.727v-.701h.19v.693q0 .165.064.247.064.082.192.082.154 0 .243-.098.09-.098.09-.268v-.656h.19v1.157h-.19v-.177q-.07.105-.161.157-.091.05-.212.05-.2 0-.303-.124-.103-.124-.103-.362zm2.22.283v.614h-.192v-1.598h.192v.175q.06-.103.15-.152.092-.051.22-.051.21 0 .342.167.132.168.132.44t-.132.44q-.132.168-.342.168-.128 0-.22-.05-.09-.05-.15-.153zm.647-.404q0-.21-.087-.33-.086-.119-.237-.119-.15 0-.238.12-.085.119-.085.329t.085.33q.087.118.238.118t.237-.119q.087-.12.087-.33zm.961-.446q-.153 0-.242.12-.088.12-.088.327 0 .208.087.328.09.118.243.118.152 0 .241-.12t.089-.326q0-.206-.089-.326-.089-.12-.24-.12zm0-.16q.248 0 .39.16.142.162.142.447 0 .284-.142.446-.142.162-.39.162-.249 0-.39-.162-.141-.162-.141-.446 0-.285.14-.447.142-.16.391-.16zm.736.025h.19l.238.904.236-.904h.225l.237.904.237-.904h.19l-.303 1.158h-.224l-.249-.949-.25.949h-.224zm2.833.532v.093h-.874q.013.197.118.3.106.102.296.102.11 0 .211-.027.104-.026.205-.08v.18q-.102.043-.21.066-.107.023-.218.023-.277 0-.44-.162-.16-.16-.16-.436 0-.284.153-.45.154-.168.414-.168.234 0 .369.151.136.15.136.408zm-.19-.056q-.002-.156-.088-.249-.084-.093-.225-.093-.159 0-.255.09-.095.09-.11.254zm1.172-.298q-.032-.019-.07-.027-.037-.01-.083-.01-.161 0-.248.106-.086.104-.086.3v.61h-.19v-1.157h.19v.18q.06-.106.156-.156.096-.052.234-.052.02 0 .043.003.024.002.053.007zm1.778.045q.071-.128.17-.19t.234-.06q.181 0 .28.127.097.126.097.36v.698h-.19v-.692q0-.167-.06-.247-.059-.081-.18-.081-.147 0-.233.098-.086.098-.086.268v.654h-.191v-.692q0-.168-.059-.247-.059-.081-.182-.081-.146 0-.231.1-.086.097-.086.266v.654h-.191v-1.157h.19v.18q.066-.107.157-.158.09-.05.216-.05t.214.064q.089.064.131.186zm1.643 1.042q-.08.207-.157.27-.077.063-.205.063h-.152v-.16h.112q.079 0 .122-.036.043-.038.096-.176l.034-.087-.468-1.139h.202l.361.905.362-.905h.202zm1.508-1.23v.18q-.08-.042-.167-.062-.087-.021-.18-.021-.142 0-.213.043-.07.044-.07.13 0 .067.05.105.051.037.204.071l.065.015q.203.043.287.123.086.078.086.22 0 .161-.128.255-.127.094-.35.094-.093 0-.195-.018-.1-.018-.212-.054v-.196q.106.054.208.082.103.027.203.027.134 0 .206-.045.073-.047.073-.13 0-.078-.053-.12-.052-.04-.228-.079l-.066-.016q-.177-.037-.256-.113-.078-.078-.078-.212 0-.163.116-.252.115-.09.328-.09.106 0 .199.016t.171.047zm.553-.363v.33h.392v.147h-.392v.628q0 .142.038.182.04.04.159.04h.195v.16h-.195q-.22 0-.304-.082-.084-.083-.084-.3v-.628h-.14v-.148h.14v-.329zm.643.328h.19v1.158h-.19zm0-.45h.19v.24h-.19zm1.421.495v.178q-.08-.044-.162-.066-.081-.023-.164-.023-.185 0-.287.118-.102.117-.102.329t.102.33q.102.116.287.116.083 0 .164-.021.081-.023.162-.068v.176q-.08.037-.165.056-.085.019-.181.019-.262 0-.416-.165-.154-.164-.154-.443 0-.283.155-.446.156-.162.427-.162.088 0 .172.019.083.017.162.053zm.86.532q-.23 0-.32.053-.088.053-.088.18 0 .101.066.161.067.059.182.059.158 0 .253-.112.096-.112.096-.298v-.043zm.38-.078v.66h-.191v-.176q-.065.106-.162.156-.098.05-.238.05-.178 0-.283-.1-.105-.1-.105-.267 0-.195.13-.294.132-.1.391-.1h.267v-.018q0-.131-.087-.203-.086-.072-.242-.072-.099 0-.193.024-.094.023-.18.071v-.176q.103-.04.202-.06.098-.02.19-.02.252 0 .376.13t.124.395zm.39-.948h.19v1.608h-.19zm.614 1.346h.218v.263h-.218zm1.307-1.28h.21v.937q0 .248.09.358.09.108.29.108.201 0 .291-.108.09-.11.09-.358v-.937h.21v.963q0 .302-.15.456-.149.154-.44.154-.293 0-.443-.154-.148-.154-.148-.456zm1.754.055v.33h.391v.147h-.391v.628q0 .142.038.182.04.04.158.04h.195v.16h-.195q-.22 0-.304-.082-.083-.083-.083-.3v-.628h-.14v-.148h.14v-.329zm.83 0v.33h.392v.147h-.392v.628q0 .142.039.182.039.04.158.04h.195v.16h-.195q-.22 0-.304-.082-.084-.083-.084-.3v-.628h-.14v-.148h.14v-.329zm1.633.86v.093h-.874q.012.197.117.3.107.102.296.102.11 0 .212-.027.103-.026.204-.08v.18q-.102.043-.21.066-.107.023-.217.023-.277 0-.44-.162-.16-.16-.16-.436 0-.284.152-.45.154-.168.415-.168.233 0 .368.151.137.15.137.408zm-.19-.056q-.002-.156-.088-.249-.085-.093-.225-.093-.16 0-.256.09-.095.09-.11.254zm1.172-.298q-.033-.019-.07-.027-.038-.01-.083-.01-.162 0-.248.106-.086.104-.086.3v.61h-.191v-1.157h.19v.18q.06-.106.157-.156.096-.052.233-.052.02 0 .044.003.024.002.052.007zm1.063-.506v.33h.392v.147h-.392v.628q0 .142.038.182.04.04.159.04h.195v.16h-.195q-.22 0-.304-.082-.084-.083-.084-.3v-.628h-.14v-.148h.14v-.329zm1.606.789v.698h-.19v-.692q0-.164-.064-.246-.064-.082-.192-.082-.154 0-.243.099-.09.098-.09.267v.654h-.19v-1.608h.19v.63q.07-.104.161-.155.093-.052.214-.052.2 0 .302.124.102.123.102.363zm1.371.071v.093h-.875q.013.197.118.3.107.102.296.102.11 0 .212-.027.103-.026.204-.08v.18q-.102.043-.21.066-.107.023-.218.023-.277 0-.439-.162-.161-.16-.161-.436 0-.284.153-.45.154-.168.414-.168.234 0 .37.151.136.15.136.408zm-.19-.056q-.003-.156-.088-.249-.085-.093-.226-.093-.159 0-.255.09-.095.09-.11.254zm1.065-.476h.19l.238.904.237-.904h.224l.238.904.237-.904h.19l-.303 1.158h-.224l-.25-.949-.25.949h-.224zm2.292.135q-.153 0-.242.12t-.089.327q0 .208.088.328.089.118.243.118.152 0 .24-.12.09-.12.09-.326 0-.206-.09-.326-.088-.12-.24-.12zm0-.16q.248 0 .39.16.14.162.14.447 0 .284-.14.446-.142.162-.39.162-.25 0-.391-.162-.14-.162-.14-.446 0-.285.14-.447.142-.16.39-.16zm1.516.203q-.032-.019-.07-.027-.038-.01-.083-.01-.161 0-.248.106-.086.104-.086.3v.61h-.191v-1.157h.19v.18q.06-.106.157-.156.096-.052.234-.052.02 0 .043.003.024.002.053.007zm.926 0v-.627h.19v1.609h-.19v-.174q-.06.103-.152.154-.091.05-.22.05-.21 0-.341-.168-.132-.167-.132-.44t.132-.44q.132-.168.342-.168.128 0 .219.05.092.05.152.154zm-.648.404q0 .21.086.33.086.118.237.118t.238-.118q.087-.12.087-.33t-.087-.329q-.087-.12-.238-.12t-.237.12q-.086.119-.086.329zm2.084-.965v.573h-.175v-.573zm.391 0v.573h-.176v-.573zm.623.169v1.2h.252q.32 0 .467-.145.149-.144.149-.456 0-.31-.149-.454-.148-.145-.467-.145zm-.209-.171h.429q.448 0 .658.187.21.186.21.583 0 .398-.21.586-.212.187-.658.187h-.429zm1.619.385h.19v1.158h-.19zm0-.45h.19v.24h-.19zm.775.122v.33h.392v.147h-.392v.628q0 .142.038.182.04.04.159.04h.195v.16h-.195q-.22 0-.304-.082-.084-.083-.084-.3v-.628h-.14v-.148h.14v-.329zm.831 0v.33h.392v.147h-.392v.628q0 .142.038.182.04.04.158.04h.196v.16h-.196q-.22 0-.303-.082-.084-.083-.084-.3v-.628h-.14v-.148h.14v-.329zm1.093.463q-.153 0-.242.12t-.089.327q0 .208.088.328.089.118.243.118.152 0 .24-.12.09-.12.09-.326 0-.206-.09-.326-.088-.12-.24-.12zm0-.16q.248 0 .39.16.14.162.14.447 0 .284-.14.446-.142.162-.39.162-.25 0-.391-.162-.14-.162-.14-.446 0-.285.14-.447.142-.16.39-.16zm1.023-.358v.573h-.175v-.573zm.391 0v.573h-.175v-.573zm1.607.96q-.23 0-.32.053-.088.053-.088.18 0 .101.066.161.067.059.182.059.158 0 .253-.112.096-.112.096-.298v-.043zm.38-.078v.66h-.19v-.176q-.066.106-.163.156t-.238.05q-.177 0-.283-.1-.104-.1-.104-.267 0-.195.13-.294.131-.1.39-.1h.267v-.018q0-.131-.086-.203-.086-.072-.242-.072-.1 0-.194.024-.094.023-.18.071v-.176q.104-.04.202-.06.098-.02.191-.02.251 0 .376.13.124.13.124.395zm1.353-.038v.698h-.19v-.692q0-.164-.064-.246-.064-.082-.192-.082-.154 0-.243.099-.089.098-.089.267v.654h-.191v-1.157h.191v.18q.068-.105.16-.156.093-.052.214-.052.2 0 .302.124.102.123.102.363zm1.143-.283v-.627h.19v1.609h-.19v-.174q-.06.103-.152.154-.09.05-.219.05-.21 0-.342-.168-.131-.167-.131-.44t.131-.44q.132-.168.342-.168.128 0 .22.05.091.05.151.154zm-.648.404q0 .21.086.33.087.118.238.118.15 0 .237-.118.087-.12.087-.33t-.087-.329q-.086-.12-.237-.12t-.238.12q-.086.119-.086.329zm2.839-.582v1.158h-.191v-1.01h-.522v1.01h-.191v-1.01h-.182v-.148h.182v-.08q0-.19.088-.28.09-.09.275-.09h.192v.158h-.182q-.103 0-.143.041-.04.042-.04.15v.101zm-.191-.448h.19v.24h-.19zm1.553.909v.698h-.19v-.692q0-.164-.064-.246-.064-.082-.192-.082-.154 0-.243.099-.089.098-.089.267v.654h-.19v-1.157h.19v.18q.068-.105.16-.156.093-.052.214-.052.2 0 .302.124.102.123.102.363zm1.143-.283v-.627h.19v1.609h-.19v-.174q-.06.103-.151.154-.091.05-.22.05-.21 0-.342-.168-.13-.167-.13-.44t.13-.44q.133-.168.342-.168.129 0 .22.05.092.05.151.154zm-.648.404q0 .21.086.33.087.118.238.118.15 0 .238-.118.086-.12.086-.33t-.086-.329q-.087-.12-.238-.12-.15 0-.238.12-.086.119-.086.329zm2.387.683q-.08.207-.157.27-.077.063-.205.063h-.152v-.16h.112q.078 0 .122-.036.043-.038.096-.176l.034-.087-.468-1.139h.201l.362.905.362-.905h.201zm1.219-1.13q-.152 0-.241.12-.09.12-.09.327 0 .208.089.328.088.118.242.118.152 0 .241-.12.09-.12.09-.326 0-.206-.09-.326-.089-.12-.24-.12zm0-.16q.249 0 .39.16.142.162.142.447 0 .284-.142.446-.141.162-.39.162-.249 0-.39-.162-.14-.162-.14-.446 0-.285.14-.447.141-.16.39-.16zm.826.727v-.701h.19v.693q0 .165.064.247.064.082.192.082.154 0 .243-.098.09-.098.09-.268v-.656h.19v1.157h-.19v-.177q-.069.105-.161.157-.09.05-.212.05-.2 0-.303-.124-.103-.124-.103-.362zm2.035-.524q-.032-.019-.07-.027-.038-.01-.083-.01-.162 0-.248.106-.086.104-.086.3v.61h-.191v-1.157h.19v.18q.06-.106.157-.156.096-.052.233-.052.02 0 .044.003.024.002.053.007zm.939-.143v.18q-.08-.042-.168-.062-.086-.021-.18-.021-.141 0-.212.043-.07.044-.07.13 0 .067.05.105.05.037.204.071l.065.015q.202.043.287.123.086.078.086.22 0 .161-.128.255-.127.094-.35.094-.094 0-.195-.018-.1-.018-.212-.054v-.196q.106.054.208.082.102.027.202.027.135 0 .207-.045.073-.047.073-.13 0-.078-.053-.12-.052-.04-.229-.079l-.066-.016q-.176-.037-.255-.113-.079-.078-.079-.212 0-.163.116-.252.116-.09.329-.09.105 0 .198.016.093.016.172.047zm1.355.497v.093h-.875q.013.197.118.3.106.102.296.102.11 0 .211-.027.104-.026.205-.08v.18q-.102.043-.21.066-.107.023-.218.023-.277 0-.44-.162-.16-.16-.16-.436 0-.284.153-.45.154-.168.414-.168.234 0 .37.151.135.15.135.408zm-.19-.056q-.003-.156-.089-.249-.084-.093-.225-.093-.159 0-.255.09-.095.09-.11.254zm.502-.925h.19v1.608h-.19zm1.172 0v.158h-.182q-.102 0-.143.041-.039.041-.039.149v.102h.313v.148h-.313v1.01h-.191v-1.01h-.182v-.148h.182v-.08q0-.194.09-.281.09-.09.285-.09zm1.36 1.026q-.23 0-.32.053-.088.053-.088.18 0 .101.066.161.067.059.182.059.158 0 .253-.112.096-.112.096-.298v-.043zm.379-.078v.66h-.19v-.176q-.065.106-.162.156-.098.05-.238.05-.178 0-.283-.1-.105-.1-.105-.267 0-.195.13-.294.132-.1.391-.1h.267v-.018q0-.131-.087-.203-.086-.072-.242-.072-.099 0-.193.024-.094.023-.18.071v-.176q.103-.04.202-.06.098-.02.19-.02.252 0 .376.13t.124.395zm1.899-.454v.178q-.08-.044-.162-.066-.081-.023-.164-.023-.185 0-.287.118-.102.117-.102.329t.102.33q.102.116.287.116.083 0 .164-.021.081-.023.162-.068v.176q-.08.037-.166.056-.084.019-.18.019-.262 0-.416-.165-.154-.164-.154-.443 0-.283.155-.446.156-.162.427-.162.088 0 .172.019.083.017.162.053zm.333-.494h.19v1.608h-.19zm1.035.584q-.153 0-.242.12-.09.12-.09.327 0 .208.089.328.089.118.243.118.152 0 .24-.12.09-.12.09-.326 0-.206-.09-.326-.088-.12-.24-.12zm0-.16q.248 0 .39.16.14.162.14.447 0 .284-.14.446-.142.162-.39.162-.25 0-.391-.162-.14-.162-.14-.446 0-.285.14-.447.142-.16.39-.16zm1.807.486v.698h-.19v-.692q0-.164-.065-.246-.064-.082-.192-.082-.154 0-.243.099-.089.098-.089.267v.654h-.19v-1.157h.19v.18q.069-.105.16-.156.094-.052.215-.052.2 0 .301.124.103.123.103.363zm1.373.071v.093h-.874q.012.197.117.3.107.102.296.102.11 0 .212-.027.103-.026.204-.08v.18q-.102.043-.21.066-.107.023-.217.023-.277 0-.44-.162-.16-.16-.16-.436 0-.284.152-.45.154-.168.415-.168.233 0 .368.151.137.15.137.408zm-.19-.056q-.002-.156-.088-.249-.085-.093-.225-.093-.16 0-.256.09-.095.09-.11.254zm1.174-.476h.19v1.179q0 .22-.084.32t-.271.1h-.073v-.162h.051q.109 0 .148-.05.04-.05.04-.208zm0-.45h.19v.24h-.19zm.569 1.152v-.701h.19v.693q0 .165.064.247.064.082.192.082.154 0 .243-.098.09-.098.09-.268v-.656h.19v1.157h-.19v-.177q-.069.105-.161.157-.09.05-.212.05-.2 0-.303-.124-.103-.124-.103-.362zm2.093-.667v.18q-.08-.042-.168-.062-.086-.021-.18-.021-.141 0-.212.043-.07.044-.07.13 0 .067.05.105.05.037.204.071l.065.015q.202.043.287.123.086.078.086.22 0 .161-.128.255-.127.094-.35.094-.094 0-.195-.018-.1-.018-.212-.054v-.196q.106.054.208.082.102.027.202.027.135 0 .207-.045.072-.047.072-.13 0-.078-.052-.12-.052-.04-.229-.079l-.066-.016q-.177-.037-.255-.113-.079-.078-.079-.212 0-.163.116-.252.116-.09.329-.09.105 0 .198.016.093.016.172.047zm.555-.363v.33h.392v.147h-.392v.628q0 .142.039.182.039.04.158.04h.195v.16h-.195q-.22 0-.304-.082-.084-.083-.084-.3v-.628h-.14v-.148h.14v-.329zm1.323-.121h.19v1.608h-.19zm.583.449h.19v1.158h-.19zm0-.45h.19v.24h-.19zm.581.001h.192v.95l.567-.5h.243l-.614.542.64.616h-.248l-.588-.565v.565h-.192zm2.144.981v.093h-.875q.013.197.118.3.107.102.296.102.11 0 .212-.027.103-.026.204-.08v.18q-.102.043-.21.066-.107.023-.218.023-.277 0-.439-.162-.161-.16-.161-.436 0-.284.153-.45.154-.168.414-.168.234 0 .37.151.136.15.136.408zm-.19-.056q-.003-.156-.088-.249-.085-.093-.226-.093-.159 0-.255.09-.095.09-.11.254zm1.671.789q-.08.207-.157.27-.076.063-.205.063h-.151v-.16h.111q.079 0 .122-.036.044-.038.096-.176l.034-.087-.468-1.139h.202l.361.905.362-.905h.202zm1.217-1.13q-.153 0-.242.12-.088.12-.088.327 0 .208.087.328.09.118.243.118.152 0 .241-.12t.089-.326q0-.206-.089-.326-.089-.12-.24-.12zm0-.16q.248 0 .39.16.142.162.142.447 0 .284-.142.446-.142.162-.39.162-.249 0-.39-.162-.14-.162-.14-.446 0-.285.14-.447.141-.16.39-.16zm.82.727v-.701h.19v.693q0 .165.065.247.064.082.192.082.154 0 .243-.098.09-.098.09-.268v-.656h.19v1.157h-.19v-.177q-.07.105-.161.157-.091.05-.212.05-.2 0-.303-.124t-.104-.362zm1.403.195h.218v.263h-.218z"/></g><path d="M195.441 68.368v7.059h-3.26v-17.48h7.496q1 0 1.874.384.872.36 1.488 1.001.642.642 1.001 1.515.385.873.385 1.848v.77q0 .976-.385 1.848-.359.847-1 1.515-.617.641-1.49 1t-1.873.36h-.873l5.93 7.239h-3.722zm0-7.367v4.133h3.722q1.104 0 1.618-.54t.513-1.514q0-.924-.513-1.489-.514-.59-1.618-.59zm18.135-3.055q1.027 0 1.951.411.924.385 1.617 1.078t1.078 1.643q.411.924.411 1.976v7.29q0 1.053-.41 1.977-.386.924-1.079 1.617t-1.617 1.104q-.924.385-1.95.385h-2.003q-1.052 0-1.976-.385-.924-.41-1.617-1.104-.668-.693-1.078-1.617t-.411-1.977v-7.29q0-1.052.41-1.976.411-.95 1.079-1.643.693-.693 1.617-1.078.924-.41 1.976-.41zm1.926 5.262q0-.924-.54-1.565-.513-.642-1.411-.642H211.6q-.898 0-1.438.642-.513.641-.513 1.565v6.957q0 .924.513 1.591.54.642 1.438.642h1.95q.9 0 1.413-.642.539-.667.539-1.591zm9.228-2.028h-4.467v-3.234h12.116v3.235h-4.518v14.246h-3.131zm12.982 0h-4.467v-3.234h12.116v3.235h-4.518v14.246h-3.131zm12.68 11.295h8.702v2.952H247.08v-17.48h12.013v2.951h-8.702v4.313h8.702v2.926h-8.702zm14.586-4.107v7.059h-3.26v-17.48h7.496q1 0 1.873.384.873.36 1.49 1.001.64.642 1 1.515.385.873.385 1.848v.77q0 .976-.385 1.848-.36.847-1 1.515-.617.641-1.49 1t-1.873.36h-.873l5.93 7.239h-3.723zm0-7.367v4.133h3.722q1.104 0 1.617-.54t.514-1.514q0-.924-.514-1.489-.513-.59-1.617-.59zm11.282-3.055h7.983q.847 0 1.591.36.77.36 1.335 1t.873 1.49q.333.821.333 1.77v8.24q0 .976-.333 1.797-.308.822-.873 1.463t-1.335 1.001q-.744.36-1.591.36h-7.983zm7.187 14.247q.385 0 .693-.154t.539-.411q.257-.257.385-.59.128-.36.128-.77V63.08q0-.385-.128-.719-.128-.359-.385-.616-.231-.282-.539-.436t-.693-.154h-3.979v11.038zm15.253.564h-4.697l-.642 2.67h-3.105l4.492-17.48h3.337l4.312 17.48h-3.08zm-4.08-2.592h3.49l-1.617-7.136h-.18zm16.434.41h.18q.692-3.157 1.385-6.288.72-3.158 1.412-6.315h3.67v17.455h-2.515V64.08h-.154q-.616 2.85-1.283 5.699-.667 2.823-1.258 5.647l-2.798.025-2.387-11.345h-.18v11.32h-2.54V57.972h3.67z" aria-label="ROTTERDAM"/><path d="M394.925 89.614c-.18-16.524-10.43-30.902-25.828-36.745-11.384-4.314-23.795-2.455-33.702 3.704 4.236-14.644.998-30.91-9.195-43.069C313.071-2.158 290.618-6.4 272.321 1.624c-6.058-22.762-27.17-38.863-50.927-38.661-19.827.165-37.572 12.339-45.92 29.645a30.774 30.774 0 00-8.727-14.026c-8.026-7.4-19.702-9.698-30.042-6.482-9.93 3.094-17.505 11.428-20.283 21.34-2.504 8.945-.432 18.549 4.88 25.929-19.61-.402-37.63 11.377-44.76 30.349-7.84 20.86 1.7 44.698 20.604 55.623-6.357 16.212-2.56 34.713 10.285 46.842 12.897 12.18 32.383 14.452 47.962 6.665 4.69 19.864 21.667 34.613 42.06 37.009 20.285 2.383 39.555-9.287 48.388-27.083 7.738 12.303 21.914 18.908 36.803 16.537 14.119-2.247 24.915-13.427 28.346-26.823 9.582 8.695 23.615 10.772 35.496 4.317 12.246-6.649 17.866-21.402 14.385-34.526 19.136-2.668 33.838-18.932 34.053-38.665" fill="#100f0d"/><path d="M385.295 89.202c0-19.108-15.49-34.598-34.598-34.598-12.275 0-23.05 6.403-29.193 16.043a1.79 1.79 0 01-.065-.122 41.125 41.125 0 008.75-25.411c0-22.827-18.511-41.332-41.338-41.332a41.133 41.133 0 00-20.085 5.212C264.74-12.785 245.667-29.28 222.72-29.28c-23.376 0-42.75 17.12-46.269 39.509-.188.029-.374.064-.562.093.39-1.809.599-3.69.599-5.62 0-14.708-11.926-26.639-26.636-26.639s-26.637 11.93-26.637 26.639c0 8.398 3.888 15.878 9.96 20.766a41.29 41.29 0 00-8.429-.869c-22.827 0-41.334 18.506-41.334 41.339 0 16.273 9.412 30.349 23.087 37.09a37.462 37.462 0 00-3.798 16.487c0 20.798 16.86 37.659 37.66 37.659a37.455 37.455 0 0020.355-5.985c3.037 21.043 21.138 37.214 43.022 37.214 19.285 0 35.627-12.562 41.318-29.946 4.566 11.788 16.008 20.148 29.41 20.148 16.731 0 30.42-13.04 31.461-29.513 4.767 6.74 12.62 11.143 21.506 11.143 14.543 0 26.33-11.788 26.33-26.331 0-3.59-.726-7.011-2.025-10.13 18.627-.55 33.557-15.815 33.557-34.571" fill="#fff"/><path d="M34.51 180.005S-.18 211.95-8.544 245.798c-8.364 33.848-9.958 53.76-9.958 53.76s33.452-68.892 61.33-94.38c27.876-25.489 114.967-65.71 114.967-65.71s-24.294 5.972-33.054 5.972c-8.764 0-21.505-11.547-21.505-11.547" fill="#fff"/><path d="M114.41 129.283s-8.996 5.982-22.988 15.309c-18.558 10.067-42.048 25.905-68.15 52.957C.635 219.133-6.488 249.307-12.2 280.51c0 0 19.338-69.851 95.847-108.484 76.511-38.637 133.216-29.757 133.216-29.757s-74.618 3.84-110.843 25.675c-36.23 21.836-63.275 38.227-92.901 84.95-29.624 46.724-38.035 83.899-38.035 83.899s-.002-55.245 10.27-91.196c10.274-35.949 32.989-51.623 47.36-67.005 14.372-15.376 79.398-50.734 79.398-50.734" fill="#100f0d"/><path d="M124.778 70.918h.177q.66-2.863 1.343-5.625.684-2.787 1.394-5.7h3.09l-4.256 17.254h-3.294l-2.837-11.098-2.737 11.098h-3.319l-4.383-17.255h3.09l2.864 11.326h.152l.684-2.762q.507-2.153 1.014-4.256.532-2.129 1.064-4.308h3.09zm7.259-2.888q.076-.811.355-1.546.304-.735.861-1.292t1.394-.887q.836-.355 1.925-.355h1.52q1.14 0 1.977.38.861.38 1.419 1.014.557.608.836 1.419.279.785.279 1.596v8.488h-7.196q-.836 0-1.495-.304-.659-.33-1.115-.836-.43-.532-.659-1.242-.202-.71-.202-1.52 0-.785.228-1.47t.659-1.165q.43-.507 1.064-.786.658-.304 1.47-.304h4.332v-.253q0-.456-.076-.836-.076-.405-.279-.684t-.608-.43q-.405-.178-1.09-.178h-.633q-1.013 0-1.444.304-.43.278-.583.887zm2.61 4.915q0 .659.253.988.279.304.608.304h4.18v-2.584h-4.18q-.33 0-.608.33-.253.329-.253.962zm13.004 3.902h-2.99V63.95h2.99zm0-14.29h-2.99v-2.965h2.99zm1.552 1.393h2.382v-4.358h2.99v4.358h2.381v2.914h-2.381v9.983h-2.99v-9.983h-2.382zm8.937 13.885l.406-3.32h3.015l-.684 3.32zm28.264-.988h-2.863l-2.457-8.133-2.407 8.133h-2.838l-3.902-12.897h2.812l2.483 8.184 2.407-8.184h2.838l2.458 8.134 2.432-8.134h2.813zm10.161-10.008q-.66 0-1.09.177-.405.152-.633.43t-.33.685q-.076.38-.076.836v7.88H191.6V59.592h2.837v4.637q.38-.127.786-.203.43-.076.912-.076h1.52q1.115 0 1.951.38.862.38 1.419 1.014.583.608.861 1.419.28.785.28 1.596v8.488H199.3v-7.88q0-.456-.076-.836-.076-.405-.33-.684-.227-.279-.633-.43-.405-.178-1.064-.178zm7.227 1.191q.076-.811.355-1.546.304-.735.861-1.292t1.394-.887q.836-.355 1.925-.355h1.52q1.14 0 1.977.38.861.38 1.419 1.014.557.608.836 1.419.279.785.279 1.596v8.488h-7.196q-.836 0-1.495-.304-.659-.33-1.115-.836-.43-.532-.659-1.242-.202-.71-.202-1.52 0-.785.228-1.47t.659-1.165q.43-.507 1.064-.786.658-.304 1.47-.304h4.332v-.253q0-.456-.076-.836-.076-.405-.279-.684t-.608-.43q-.405-.178-1.09-.178h-.633q-1.013 0-1.444.304-.43.278-.583.887zm2.61 4.915q0 .659.253.988.279.304.608.304h4.18v-2.584h-4.18q-.33 0-.608.33-.253.329-.253.962zm9.356-8.995h2.381v-4.358h2.99v4.358h2.382v2.914h-2.382v9.983h-2.99v-9.983h-2.381zm9.02-1.85l.405-4.332h2.711l-.684 4.333zm13.891 4.359h-5.042q-.33 0-.558.126-.203.102-.355.304t-.228.456q-.076.228-.076.457 0 .48.304.886.33.38.786.38h2.838q.886 0 1.545.304.684.304 1.115.837.456.532.659 1.266.228.735.228 1.571v.076q0 .836-.279 1.52-.253.685-.735 1.166t-1.14.76-1.393.279h-6.132v-2.508h5.27q.583 0 1.064-.33.507-.33.532-.988v.025q0-.38-.152-.633-.126-.253-.354-.405-.228-.178-.507-.254t-.583-.076h-2.28q-1.115 0-1.85-.355-.71-.354-1.14-.912-.405-.557-.557-1.267t-.152-1.444q0-.76.228-1.47t.658-1.24q.457-.558 1.115-.862t1.495-.304h5.676zm11.908-2.509h2.382v-4.358h2.99v4.358h2.381v2.914h-2.381v9.983h-2.99v-9.983h-2.382zm14.253 2.889q-.66 0-1.09.177-.406.152-.634.43t-.329.685q-.076.38-.076.836v7.88h-2.838V59.592h2.838v4.637q.38-.127.786-.203.43-.076.912-.076h1.52q1.115 0 1.95.38.862.38 1.42 1.014.582.608.861 1.419.279.785.279 1.596v8.488h-2.863v-7.88q0-.456-.076-.836-.076-.405-.33-.684-.228-.279-.633-.43-.405-.178-1.064-.178zm7.22 1.191q.076-.811.355-1.546.304-.735.862-1.292t1.393-.887q.836-.355 1.926-.355h1.52q1.14 0 1.976.38.862.38 1.42 1.014.557.608.835 1.419.28.785.28 1.596v8.488h-7.197q-.836 0-1.495-.304-.658-.33-1.114-.836-.431-.532-.66-1.242-.202-.71-.202-1.52 0-.785.228-1.47t.659-1.165q.43-.507 1.064-.786.659-.304 1.47-.304h4.332v-.253q0-.456-.076-.836-.076-.405-.278-.684t-.609-.43q-.405-.178-1.089-.178h-.633q-1.014 0-1.445.304-.43.278-.582.887zm2.61 4.915q0 .659.254.988.278.304.608.304h4.18v-2.584h-4.18q-.33 0-.608.33-.254.329-.254.962zm9.362-8.995h2.382v-4.358h2.99v4.358h2.381v2.914h-2.381v9.983h-2.99v-9.983h-2.382zm24.071 0q1.114 0 1.976.355.887.33 1.495.937.633.609.963 1.47t.329 1.951v3.471q0 1.064-.33 1.951-.329.862-.962 1.495-.608.608-1.495.938-.862.329-1.976.329h-1.04q-1.089 0-1.975-.33t-1.52-.937q-.609-.633-.938-1.495-.304-.887-.304-1.95v-3.472q0-1.09.304-1.951.33-.861.937-1.47.634-.608 1.52-.937.887-.355 1.977-.355zm-1.04 2.914q-.785 0-1.342.532-.532.507-.532 1.343v3.294q0 .836.532 1.368.557.532 1.343.532h1.039q.81 0 1.317-.532.532-.532.532-1.368v-3.294q0-.836-.532-1.343-.507-.532-1.317-.532zm13.011-.025q-.658 0-1.089.177-.405.152-.633.43t-.33.685q-.076.38-.076.836v7.88h-2.964V63.95h2.964v.33q.887-.33 1.9-.33h1.318q1.115 0 1.976.38t1.42 1.014q.582.608.86 1.419.305.785.305 1.596v8.488h-2.965v-7.88q0-.456-.076-.836-.076-.405-.304-.684-.203-.279-.608-.43-.405-.178-1.09-.178zM153.656 95.622h2.382v-4.358h2.99v4.358h2.381v2.914h-2.381v9.982h-2.99v-9.982h-2.382zm14.208 2.888q-.659 0-1.09.178-.405.152-.633.43t-.33.684q-.075.38-.075.837v7.88h-2.838V91.263h2.838V95.9q.38-.126.785-.202.43-.076.912-.076h1.52q1.115 0 1.951.38.862.38 1.42 1.013.582.608.86 1.42.28.785.28 1.595v8.488H170.6v-7.88q0-.456-.076-.836-.076-.405-.33-.684-.227-.278-.632-.43-.406-.178-1.065-.178zm7.278 1.698q0-.938.355-1.748.354-.837.937-1.47t1.343-.988q.76-.38 1.52-.38h2.889q.988 0 1.748.43.785.406 1.292 1.065.532.633.811 1.444.304.785.304 1.545v3.269h-8.21v.684q0 .912.508 1.292t1.342.38h5.904v2.838h-6.562q-.862 0-1.622-.33-.76-.354-1.343-.937-.557-.583-.887-1.393t-.329-1.774zm3.015.76h5.245v-.127q0-.988-.507-1.621-.507-.66-1.368-.66h-1.57q-.406 0-.736.204-.33.177-.557.481t-.38.735q-.127.405-.127.861zm25.078-5.346q1.114 0 1.976.354.887.33 1.495.938.633.608.963 1.47t.329 1.95v3.472q0 1.064-.33 1.95-.329.862-.962 1.496-.608.608-1.495.937-.862.33-1.976.33h-1.014q-1.115 0-2.001-.33-.862-.33-1.495-.937-.608-.634-.938-1.495-.33-.887-.33-1.951V91.264h2.99v4.687q.938-.33 1.977-.33zm-1.014 2.914q-.81 0-1.292.506-.456.507-.481 1.292v3.37q0 .836.481 1.369t1.292.532h1.014q.81 0 1.317-.532t.507-1.369v-3.293q0-.837-.507-1.343-.507-.532-1.317-.532zm13.214-2.914q1.114 0 1.976.354.887.33 1.495.938.633.608.963 1.47t.329 1.95v3.472q0 1.064-.33 1.95-.329.862-.962 1.496-.608.608-1.495.937-.862.33-1.976.33h-1.04q-1.089 0-1.976-.33t-1.52-.937q-.608-.634-.937-1.495-.304-.887-.304-1.951v-3.472q0-1.089.304-1.95.33-.862.937-1.47.634-.608 1.52-.938.887-.354 1.977-.354zm-1.04 2.914q-.785 0-1.342.532-.532.506-.532 1.343v3.293q0 .836.532 1.369.557.532 1.343.532h1.039q.81 0 1.317-.532.532-.533.532-1.369v-3.293q0-.837-.532-1.343-.507-.532-1.317-.532zm7.057-2.914h2.382v-4.358h2.99v4.358h2.381v2.914h-2.381v9.982h-2.99v-9.982h-2.382zm8.602 0h2.382v-4.358h2.99v4.358h2.381v2.914h-2.381v9.982h-2.99v-9.982h-2.382zm14.696 0q1.114 0 1.976.354.887.33 1.495.938.633.608.963 1.47t.329 1.95v3.472q0 1.064-.33 1.95-.329.862-.962 1.496-.608.608-1.495.937-.862.33-1.976.33h-1.04q-1.089 0-1.975-.33t-1.52-.937q-.609-.634-.938-1.495-.304-.887-.304-1.951v-3.472q0-1.089.304-1.95.33-.862.937-1.47.634-.608 1.52-.938.887-.354 1.977-.354zm-1.04 2.914q-.785 0-1.342.532-.532.506-.532 1.343v3.293q0 .836.532 1.369.557.532 1.343.532h1.039q.81 0 1.317-.532.532-.533.532-1.369v-3.293q0-.837-.532-1.343-.507-.532-1.317-.532zm20.613-.026q-.66 0-1.065.178-.405.152-.633.43-.203.279-.279.66t-.076.835v7.905h-2.964v-7.88q0-.456-.076-.836-.076-.405-.304-.684-.203-.278-.608-.43-.406-.178-1.09-.178h-.608q-.659 0-1.09.178-.405.152-.633.43t-.33.684q-.075.38-.075.837v7.88h-2.965V95.621h2.965v.38q.988-.38 2.103-.38h1.115q1.013 0 1.799.304t1.342.836q.609-.532 1.42-.836t1.824-.304h1.317q1.115 0 1.976.38t1.42 1.013q.582.608.86 1.42.305.785.305 1.595v8.488h-2.94v-7.88q0-.456-.075-.836-.076-.405-.304-.684t-.634-.43q-.405-.178-1.064-.178zm7.411-3.471q0-.81.126-1.672.152-.862.507-1.571.38-.71 1.014-1.166.633-.481 1.672-.481h3.547q.836 0 1.47.355.658.329 1.064.861.43.532.659 1.216.253.684.304 1.369.076.684-.051 1.317-.101.633-.355 1.115l-2.837 5.194v2.28h-2.914v-2.584l2.685-4.687q.229-.38.305-.989.1-.608 0-1.165-.076-.583-.38-.988-.28-.406-.811-.406h-1.647q-.431 0-.71.152-.278.127-.456.406-.152.253-.202.633-.051.355-.051.811zm7.196 13.48h-2.99v-2.965h2.99z" aria-label="Wait, what's that on the bottom?"/></svg>