<svg preserveAspectRatio="none" viewBox="0 0 508 285.75" xmlns="http://www.w3.org/2000/svg"><defs><clipPath id="b"><path d="M544.33 5579.4c28.359 24.59 51.641 51 51.641 71.41 0 52.21-8.703 126.17 0 204.49 8.695 78.32 34.804 104.42 21.754 165.33-13.059 60.92-30.457 52.21-26.106 147.93 4.352 95.72 39.156 230.59 30.449 265.4-8.695 34.81-43.504 378.52-21.754 456.84 21.754 78.31-56.562 226.24-56.562 226.24l-91.359 165.33-56.567 78.32 60.914 21.75 34.801 13.06s21.762-43.51 78.32-69.61c56.563-26.11 39.16-56.57 108.77-52.22 69.613 4.35 108.77 0 100.07 56.57-8.699 56.56-73.957 213.18-73.957 213.18l108.77 43.52s17.406-217.55 43.508-256.7c26.109-39.16 56.562-65.27 134.88-65.27 78.312 0 87.012 91.37 82.662 113.12-4.35 21.76-100.07 200.14-100.07 200.14s30.462 78.32 47.862 39.16 69.61-204.49 78.31-147.93c8.71 56.56 21.76 187.09 21.76 187.09l104.42 34.8c104.42 34.81-79.01-210.18-80.79-313.92-.68-40.2 6.9-77.31 43.77-93.81 41.54-18.61 103.6-25.33 106.63-1.25 4.38 34.76 90.91 279.23 138.14 286.06l83.75-25.01s-82.66-65.25-87.01-104.41-47.86-113.12-8.7-121.83c39.15-8.7 230.59 121.83 230.59 121.83s65.27-65.27 34.81-73.97-145.73-71.75-145.73-137.01c0-41.27 49.13-254.84 93.52-289.37 39.16-30.46 39.16-43.51 39.16-43.51s-47.86-274.1-13.05-321.96c34.8-47.86 65.26-87.02 65.26-87.02s8.7-17.4-13.05-73.96c-21.76-56.56-34.82-269.75-34.82-269.75s-8.69-95.72 47.87-195.79 13.05-160.98 95.72-165.34c147.1-7.74 307.97-166.51 297.37-201.93h-209.36c-39.93 52.5-126.96 168.07-233.19 0h-427.88c-.9 39.59-12.11 102.18-75.22 93.16-91.37-13.05-126.18-65.26-126.18-65.26v-27.9h-278.64c-23.895 20.2-38.965 23.55-38.965 23.55l-20.403-23.55h-166.11" clip-rule="evenodd"/></clipPath><clipPath id="g"><path fill="#ffd5d5" opacity=".548" stroke="#000" stroke-width=".327" d="M668.65 391.02h217.84v122.93H668.65z"/></clipPath><clipPath id="f"><path fill="#ffd5d5" opacity=".548" stroke="#000" stroke-width=".792" d="M535.08 569.36h528.34v298.15H535.08z"/></clipPath><clipPath id="e"><path fill="#ffd5d5" opacity=".548" stroke="#000" stroke-width=".678" d="M809.01 564.9h452.08v255.12H809.01z"/></clipPath><clipPath id="d"><path fill="#ffd5d5" opacity=".548" stroke="#000" stroke-width=".069" d="M670.32 276.9h39.508v30.606H670.32z"/></clipPath><clipPath id="a"><path fill="#ffd5d5" opacity=".548" stroke="#000" stroke-width=".015" d="M1147.4-494.25h7.593v7.763h-7.593z"/></clipPath><linearGradient id="c" x2="1" gradientTransform="matrix(-115.94 1623.2 1642.1 117.29 532.72 5163.4)" gradientUnits="userSpaceOnUse"><stop stop-color="#988769" offset="0"/><stop stop-color="#ae9b78" offset="1"/></linearGradient></defs><g transform="matrix(70.1954 0 0 37.0659 -80552.465 18319.763)" clip-path="url(#a)"><g clip-path="url(#b)" transform="matrix(.03528 0 0 -.03528 1111.7 -267.36)"><path d="M544.33 5579.4c28.359 24.59 51.641 51 51.641 71.41 0 52.21-8.703 126.17 0 204.49 8.695 78.32 34.804 104.42 21.754 165.33-13.059 60.92-30.457 52.21-26.106 147.93 4.352 95.72 39.156 230.59 30.449 265.4-8.695 34.81-43.504 378.52-21.754 456.84 21.754 78.31-56.562 226.24-56.562 226.24l-91.359 165.33-56.567 78.32 60.914 21.75 34.801 13.06s21.762-43.51 78.32-69.61c56.563-26.11 39.16-56.57 108.77-52.22 69.613 4.35 108.77 0 100.07 56.57-8.699 56.56-73.957 213.18-73.957 213.18l108.77 43.52s17.406-217.55 43.508-256.7c26.109-39.16 56.562-65.27 134.88-65.27 78.312 0 87.012 91.37 82.662 113.12-4.35 21.76-100.07 200.14-100.07 200.14s30.462 78.32 47.862 39.16 69.61-204.49 78.31-147.93c8.71 56.56 21.76 187.09 21.76 187.09l104.42 34.8c104.42 34.81-79.01-210.18-80.79-313.92-.68-40.2 6.9-77.31 43.77-93.81 41.54-18.61 103.6-25.33 106.63-1.25 4.38 34.76 90.91 279.23 138.14 286.06l83.75-25.01s-82.66-65.25-87.01-104.41-47.86-113.12-8.7-121.83c39.15-8.7 230.59 121.83 230.59 121.83s65.27-65.27 34.81-73.97-145.73-71.75-145.73-137.01c0-41.27 49.13-254.84 93.52-289.37 39.16-30.46 39.16-43.51 39.16-43.51s-47.86-274.1-13.05-321.96c34.8-47.86 65.26-87.02 65.26-87.02s8.7-17.4-13.05-73.96c-21.76-56.56-34.82-269.75-34.82-269.75s-8.69-95.72 47.87-195.79 13.05-160.98 95.72-165.34c147.1-7.74 307.97-166.51 297.37-201.93h-209.36c-39.93 52.5-126.96 168.07-233.19 0h-427.88c-.9 39.59-12.11 102.18-75.22 93.16-91.37-13.05-126.18-65.26-126.18-65.26v-27.9h-278.64c-23.895 20.2-38.965 23.55-38.965 23.55l-20.403-23.55h-166.11" fill="url(#c)"/></g><path d="M1166.3-520.99c.471 2.676 1.857 7.854 3.132 8.845 1.381 1.075 1.381 1.535 1.381 1.535s-1.688 9.67-.46 11.358c1.227 1.688 2.302 3.07 2.302 3.07s.307.614-.46 2.61c-.768 1.994-1.229 9.515-1.229 9.515s-.306 3.377 1.689 6.907.46 5.68 3.377 5.833c3.671.194 7.586 3.054 9.43 5.153-1.945-1.535-4.36-3.162-7.156-4.07a30.772 30.772 0 00-5.41-1.216c-3.314-8.288-4.707-14.094-3.682-23.171-2.096-5.031-2.193-10.752.154-15.805-2.442-3.708-3.146-5.996-3.146-10.435l.078-.13" fill="#bba787" fill-rule="evenodd"/><path d="M1130.9-464.19c1-.867 1.822-1.8 1.822-2.52 0-1.841-.307-4.45 0-7.213s1.228-3.684.767-5.833c-.46-2.149-1.074-1.842-.92-5.218.153-3.377 1.38-8.135 1.073-9.363-.306-1.228-1.534-13.353-.767-16.116s-1.995-7.981-1.995-7.981l-3.223-5.833-1.996-2.763 2.149-.767 1.228-.46s.598 1.196 2.11 2.11c-.246.865-.521 1.546-1.496 2.034 3.831 5.747 5.66 10.002 6.132 14.855.425 4.377-.127 8.911-.364 13.468a37.079 37.079 0 00.034 4.235c.254 4.148.891 6.486.14 9.72-.243 1.042-.479 1.905-.46 2.72.14 6.33-.143 11.139-1.288 14.926zm15.942-7.584l.614-12.126 1.228 5.525c.082-5.146.35-10.31-.128-15.444-.337-3.617-.934-7.174-1.56-10.956.136 3.686.54 7.372.332 11.058a29.18 29.18 0 01-.217 2.295c-1.75-2.707-1.713-.248-1.407 2.63.603 5.673.85 11.317 1.138 17.017zm12.371 2.475c5.05-4.131 7.627.05 10.204 4.066-2.112-3.538-4.138-7.919-9.207-6.06-2.993-5.838-2.032-13.849-1.487-20.649.96-5.347-.682-10.085-2.862-17.419-.627-2.11-.885-4.302-.885-7.539l.614 2.456c.264 1.056.54 1.774.904 2.367 1.903 3.11 3.257 4.445 4.622 8.224-.752-4.23-1.033-5.914-3.304-9.302a10.155 10.155 0 01-.904-1.695c-1.265-2.954-1.756-5.294.985-8.035-3.165 1.675-3.089 2.732-4.298 6.14l-.767-2.917c-.09 4.684.206 7.617 1.217 11.055 2.111 7.185 3.961 11.991 3.097 17.81-.9 6.07-1.551 8.435-.63 14.879-.564-6.083.18-8.068 1.42-12.741-.901 6.457-1.078 12.93 1.28 19.361zm-24.161-54.649c.174.005.367.001.585-.012 2.456-.154 3.837 0 3.53-1.996-.24-1.555-1.69-5.254-2.319-6.81l2.688-.371 1.068.313a79.1 79.1 0 00.322 2.633c-1.113-.03-.846-.07-.916.798-.016.195-.23.243-.704.243 1.15 2.804 1.922 5.462-.877 6.247-1.353.38-2.311.16-3.61-.189 1.67.094 2.571.174 3.797-.729-1.637.2-2.759.22-3.564-.127zm3.626 59.614c-.74-.585-1.2-.687-1.2-.687l-.72.831h-.313c.028-3.54.29-6.923 1.17-10.741.55-2.385 1.037-4.743 1.01-6.852-.01-.747-.092-1.57-.26-2.544-.565-3.26-.925-6.325-.766-9.866.108-2.416.288-4.808.532-7.306.177-1.819.232-3.637-.044-5.505-.809-5.482-2.792-9.673-5.213-14.96 3.342 5.613 5.41 9.503 6.214 14.733.309 2.004.364 3.986.294 5.964-.113 3.188-.215 5.26 0 7.17.836 7.41 3.779 11.124 1.166 18.486 1.259-5.754.812-8.826-1.995-14.274.65 2.9.958 5.295 1.025 7.333.081 2.463-.269 5.042-.664 7.613-.607 3.953-.615 6.894-.236 10.606" fill="#947f64" fill-rule="evenodd"/><path d="M1136.5-520.32c2.937 4.205 4.218 9.14 4.637 13.776.488 5.4-.616 10.551.12 15.917.312-5.305.89-10.654.926-15.962.023-3.453-.285-6.306-2.115-11.429 1.402.921 3 5.321 3.26 9.361-.015-7.624-.891-9.208-5.446-13.235l1.61 4.642-2.992-3.069" fill="#9c866a" fill-rule="evenodd"/></g><g transform="matrix(13.4919 0 0 9.4014 -9058.746 -2603.464)" clip-path="url(#d)"><path d="M729.69 235.21c-14.121-5.818-37.061-6.41-39.513-6.456v-.004l-.108.002c-.07 0-.11-.002-.11-.002v.004c-2.43.047-24.99.64-39.103 6.456 0 0-1.2.615-.545 5.23.654 4.614.872 13.433.872 13.433s3.365.717 5.28.717 5.619-.923 7.255-.923c1.634 0 9.7.103 9.7.103s-7.52.103-10.354.82c-2.834.718-5.56.615-7.412.615-1.852 0-4.469 1.093-4.469 1.093l.654 24.542h1.526l-1.417.82s.327 16.1.327 17.228c0 1.128.327 2.768.327 2.768s29.149.712 37.469.01c8.323.702 37.878-.01 37.878-.01s.326-1.64.326-2.768.327-9.434.327-9.434l-1.416-.82h1.526l.654-14.699s-2.616-1.093-4.469-1.093c-1.853 0-4.578.103-7.411-.615-2.835-.718-10.355-.82-10.355-.82s8.066-.102 9.7-.102c1.635 0 5.341.922 7.256.922 1.914 0 5.279-.718 5.279-.718s.218-26.455.872-31.07c.654-4.614-.545-5.23-.545-5.23" fill="#e1c377"/><path d="M730.42 237.38c-36.081-9.794-63.048-6.62-79.137-2.34-.14.056-.282.112-.42.169 0 0-1.199.615-.545 5.23.08.552.15 1.167.217 1.82 38.847-12.222 68.333-5.602 79.726-1.96.17-1.25.202-2.201.159-2.919m-79.39 12.15c.114 2.471.16 4.346.16 4.346s3.366.717 5.28.717 5.62-.923 7.255-.923c1.634 0 9.7.103 9.7.103s-7.52.102-10.354.82c-2.834.718-5.559.615-7.412.615-1.852 0-4.468 1.093-4.468 1.093l.483 18.12c21.293-3.495 41.307-3.738 56.492-3.024 2.226-.028 7.398-.09 8.67-.09 1.635 0 5.341.923 7.255.923 1.914 0 5.28-.718 5.28-.718s.047-5.842.166-12.514c-17-4.033-47.05-5.328-47.05-5.328 16.535-.878 36.825 1.48 47.096 2.904.043-2.161.093-4.345.152-6.392-32.124-7.93-63.389-3.725-78.706-.652m8.481 30.6c9.844-2.256 46.759-3.487 46.759-3.487-27.944-1.737-47.135.78-54.491 2.032l.058 2.172h1.526l-1.417.82s.327 16.1.327 17.228c0 .167.01.344.02.526 21.496-.787 60.751 1.245 75.681 2.094.034-.186.095-.531.154-.94-19.023-3.342-64.105-6.09-64.105-6.09 15.432-.77 48.743 1.592 64.29 2.81.087-2.754.286-7.834.286-7.834l-1.416-.82h1.525l.276-6.193c-33.195-4.554-69.473-2.318-69.473-2.318" fill="#e5ca87"/></g><g transform="matrix(1.17909 0 0 1.12788 -968.55 -637.371)" clip-path="url(#e)" style="font-feature-settings:normal;font-variant-caps:normal;font-variant-ligatures:normal;font-variant-numeric:normal" aria-label="Within lies a coffee shop divine. Take the shortest path and savour its sip. Take any other path and keep longing for its whiff."><path d="M787.4 361.26h.373q1.387-6.027 2.827-11.84 1.44-5.867 2.933-12h6.507l-8.96 36.32h-6.933l-5.974-23.36-5.76 23.36h-6.986l-9.227-36.32h6.507l6.026 23.84h.32l1.44-5.813q1.067-4.534 2.134-8.96 1.12-4.48 2.24-9.067h6.506zm22.31 12.48h-6.293v-27.147h6.293zm0-30.08h-6.293v-6.24h6.293zm3.26 2.93h5.013v-9.173h6.294v9.173h5.013v6.133h-5.013v21.013h-6.294v-21.013h-5.013zm29.91 6.08q-1.387 0-2.293.373-.854.32-1.334.907-.48.587-.693 1.44-.16.8-.16 1.76v16.587h-5.973v-36.32h5.973v9.76q.8-.267 1.653-.427.907-.16 1.92-.16h3.2q2.347 0 4.107.8 1.813.8 2.987 2.134 1.226 1.28 1.813 2.986.587 1.654.587 3.36v17.867h-6.027V357.15q0-.96-.16-1.76-.16-.853-.693-1.44-.48-.586-1.334-.906-.853-.374-2.24-.374zm22.25 21.07h-6.293v-27.147h6.293zm0-30.08h-6.293v-6.24h6.293zm15.68 9.01q-1.387 0-2.293.373-.854.32-1.334.907-.48.587-.693 1.44-.16.8-.16 1.76v16.587h-6.24V346.59h6.24v.693q1.867-.693 4-.693h2.773q2.347 0 4.16.8t2.987 2.133q1.227 1.28 1.813 2.987.64 1.653.64 3.36v17.867h-6.24V357.15q0-.96-.16-1.76-.16-.853-.64-1.44-.426-.587-1.28-.907-.853-.373-2.293-.373zm36-15.25h6.293v36.32h-6.293zm17.69 36.32h-6.293v-27.147h6.293zm0-30.08h-6.293v-6.24h6.293zm4.01 12.59q0-1.973.747-3.68.746-1.76 1.973-3.093 1.227-1.334 2.827-2.08 1.6-.8 3.2-.8h6.08q2.08 0 3.68.906 1.653.854 2.72 2.24 1.12 1.334 1.706 3.04.64 1.654.64 3.254v6.88h-17.28v1.44q0 1.92 1.067 2.72t2.827.8h12.427v5.973H947.31q-1.814 0-3.414-.693-1.6-.747-2.826-1.974-1.174-1.226-1.867-2.933-.693-1.707-.693-3.733zm6.347 1.6h11.04v-.267q0-2.08-1.067-3.413-1.067-1.387-2.88-1.387h-3.307q-.853 0-1.546.427-.694.373-1.174 1.013t-.8 1.547q-.266.853-.266 1.813zm39.933-5.98h-10.613q-.693 0-1.173.267-.427.213-.747.64-.32.426-.48.96-.16.48-.16.96 0 1.013.64 1.866.693.8 1.653.8h5.974q1.866 0 3.253.64 1.44.64 2.347 1.76.96 1.12 1.386 2.667.48 1.547.48 3.307v.16q0 1.76-.586 3.2-.534 1.44-1.547 2.453t-2.4 1.6q-1.387.587-2.933.587h-12.907v-5.28h11.093q1.226 0 2.24-.694 1.066-.693 1.12-2.08v.054q0-.8-.32-1.334-.267-.533-.747-.853-.48-.373-1.067-.533-.586-.16-1.226-.16h-4.8q-2.347 0-3.894-.747-1.493-.747-2.4-1.92-.853-1.173-1.173-2.667t-.32-3.04q0-1.6.48-3.093t1.387-2.613q.96-1.174 2.346-1.814t3.147-.64h11.947zm25.81 3.31q.16-1.707.747-3.253.64-1.547 1.813-2.72 1.173-1.174 2.933-1.867 1.76-.747 4.054-.747h3.2q2.4 0 4.16.8 1.813.8 2.986 2.134 1.174 1.28 1.76 2.986.587 1.654.587 3.36v17.867h-15.147q-1.76 0-3.147-.64-1.386-.693-2.346-1.76-.907-1.12-1.387-2.613-.427-1.493-.427-3.2 0-1.653.48-3.093t1.387-2.454q.907-1.066 2.24-1.653 1.387-.64 3.093-.64h9.12v-.533q0-.96-.16-1.76-.16-.854-.586-1.44-.427-.587-1.28-.907-.854-.373-2.294-.373h-1.333q-2.133 0-3.04.64-.907.586-1.227 1.867zm5.493 10.347q0 1.387.534 2.08.586.64 1.28.64h8.8v-5.44h-8.8q-.694 0-1.28.693-.534.694-.534 2.027zm52.107 2.083q1.28 0 2.187-.587.906-.64 1.173-1.706h6.347q-.48 3.84-2.987 6.133t-6.72 2.293h-2.187q-2.293 0-4.16-.693-1.866-.693-3.146-1.973-1.28-1.334-2.027-3.147-.693-1.867-.693-4.107v-7.306q0-2.294.693-4.107.747-1.813 2.027-3.093t3.146-1.974q1.867-.746 4.16-.746h2.187q4.32 0 6.827 2.293t2.88 6.293h-6.294q-.32-1.173-1.173-1.813-.853-.64-2.24-.64h-2.187q-1.706 0-2.826 1.12-1.067 1.067-1.067 2.827v6.933q0 1.76 1.067 2.88 1.12 1.12 2.826 1.12zm24.3-21.02q2.347 0 4.16.747 1.867.693 3.147 1.973 1.333 1.28 2.026 3.093.694 1.814.694 4.107v7.307q0 2.24-.694 4.106-.693 1.814-2.026 3.147-1.28 1.28-3.147 1.973-1.813.694-4.16.694h-2.187q-2.293 0-4.16-.694-1.866-.693-3.2-1.973-1.28-1.333-1.973-3.147-.64-1.866-.64-4.106v-7.307q0-2.293.64-4.107.693-1.813 1.973-3.093 1.334-1.28 3.2-1.973 1.867-.747 4.16-.747zm-2.187 6.133q-1.653 0-2.826 1.12-1.12 1.067-1.12 2.827v6.933q0 1.76 1.12 2.88 1.173 1.12 2.826 1.12h2.187q1.707 0 2.773-1.12 1.12-1.12 1.12-2.88v-6.933q0-1.76-1.12-2.827-1.066-1.12-2.773-1.12zM1122 343.13h-1.92q-1.813 0-2.933 1.12t-1.12 2.88v1.173H1122v6.134h-5.973v19.36h-5.6v-19.36h-4.854v-6.134h4.854v-.906q0-2.294.64-4.107.64-1.867 1.866-3.147 1.28-1.28 3.04-1.973 1.814-.747 4.107-.747h1.92zm19.5 0h-1.92q-1.813 0-2.933 1.12t-1.12 2.88v1.173h5.973v6.134h-5.973v19.36h-5.6v-19.36h-4.854v-6.134h4.854v-.906q0-2.294.64-4.107.64-1.867 1.866-3.147 1.28-1.28 3.04-1.973 1.814-.747 4.107-.747h1.92zm3.4 13.12q0-1.973.747-3.68.746-1.76 1.973-3.093t2.827-2.08q1.6-.8 3.2-.8h6.08q2.08 0 3.68.906 1.653.854 2.72 2.24 1.12 1.334 1.706 3.04.64 1.654.64 3.254v6.88h-17.28v1.44q0 1.92 1.067 2.72t2.827.8h12.427v5.973H1153.7q-1.814 0-3.414-.693-1.6-.747-2.826-1.974-1.174-1.226-1.867-2.933-.693-1.707-.693-3.733zm6.347 1.6h11.04v-.267q0-2.08-1.067-3.413-1.067-1.387-2.88-1.387h-3.307q-.853 0-1.546.427-.694.373-1.174 1.013t-.8 1.547q-.266.853-.266 1.813zm20.553-1.6q0-1.973.747-3.68.746-1.76 1.973-3.093 1.227-1.334 2.827-2.08 1.6-.8 3.2-.8h6.08q2.08 0 3.68.906 1.653.854 2.72 2.24 1.12 1.334 1.706 3.04.64 1.654.64 3.254v6.88h-17.28v1.44q0 1.92 1.067 2.72 1.067.8 2.827.8h12.427v5.973H1180.6q-1.814 0-3.414-.693-1.6-.747-2.826-1.974-1.174-1.226-1.867-2.933-.693-1.707-.693-3.733zm6.347 1.6h11.04v-.267q0-2.08-1.067-3.413-1.067-1.387-2.88-1.387h-3.307q-.853 0-1.546.427-.694.373-1.174 1.013t-.8 1.547q-.266.853-.266 1.813zm59.853-5.98h-10.613q-.693 0-1.173.267-.427.213-.747.64-.32.426-.48.96-.16.48-.16.96 0 1.013.64 1.866.693.8 1.653.8h5.974q1.866 0 3.253.64 1.44.64 2.347 1.76.96 1.12 1.386 2.667.48 1.547.48 3.307v.16q0 1.76-.586 3.2-.534 1.44-1.547 2.453t-2.4 1.6-2.933.587h-12.907v-5.28h11.093q1.226 0 2.24-.694 1.066-.693 1.12-2.08v.054q0-.8-.32-1.334-.267-.533-.747-.853-.48-.373-1.067-.533t-1.226-.16h-4.8q-2.347 0-3.894-.747-1.493-.747-2.4-1.92-.853-1.173-1.173-2.667t-.32-3.04q0-1.6.48-3.093t1.387-2.613q.96-1.174 2.346-1.814t3.147-.64H1238zm17.1.8q-1.387 0-2.293.373-.854.32-1.334.907-.48.587-.693 1.44-.16.8-.16 1.76v16.587h-5.973v-36.32h5.973v9.76q.8-.267 1.653-.427.907-.16 1.92-.16h3.2q2.347 0 4.107.8 1.813.8 2.987 2.134 1.226 1.28 1.813 2.986.587 1.654.587 3.36v17.867h-6.027V357.15q0-.96-.16-1.76-.16-.853-.693-1.44-.48-.586-1.334-.906-.853-.374-2.24-.374zm27.3-6.08q2.347 0 4.16.747 1.867.693 3.147 1.973 1.333 1.28 2.026 3.093.694 1.814.694 4.107v7.307q0 2.24-.694 4.106-.693 1.814-2.026 3.147-1.28 1.28-3.147 1.973-1.813.694-4.16.694h-2.187q-2.293 0-4.16-.694-1.866-.693-3.2-1.973-1.28-1.333-1.973-3.147-.64-1.866-.64-4.106v-7.307q0-2.293.64-4.107.693-1.813 1.973-3.093 1.334-1.28 3.2-1.973 1.867-.747 4.16-.747zm-2.187 6.133q-1.653 0-2.826 1.12-1.12 1.067-1.12 2.827v6.933q0 1.76 1.12 2.88 1.173 1.12 2.826 1.12h2.187q1.707 0 2.773-1.12 1.12-1.12 1.12-2.88v-6.933q0-1.76-1.12-2.827-1.066-1.12-2.773-1.12zm27.887-6.133q2.347 0 4.16.747 1.867.693 3.147 1.973 1.333 1.28 2.026 3.093t.694 4.107v7.307q0 2.24-.694 4.106-.693 1.814-2.026 3.147-1.28 1.28-3.147 1.973-1.813.694-4.16.694h-1.707q-2.346 0-4.266-.747v10.027h-6.187V346.59zm-5.973 6.133v10.88q0 1.76 1.066 2.88t2.774 1.12h2.133q1.707 0 2.827-1.12t1.12-2.88v-6.933q0-1.76-1.12-2.827-1.12-1.12-2.827-1.12zM711.24 440.41q-2.347 0-4.213-.693-1.814-.694-3.147-1.974-1.28-1.333-1.973-3.146-.694-1.867-.694-4.107v-7.307q0-2.293.694-4.106.693-1.814 1.973-3.094 1.333-1.28 3.147-1.973 1.866-.747 4.213-.747h2.133q2.24 0 4.054.64v-9.813h5.973v36.32zm6.187-6.133v-10.933q0-1.76-1.174-2.827-1.173-1.12-2.88-1.12h-2.133q-1.707 0-2.933 1.12-1.174 1.067-1.174 2.827v6.933q0 1.76 1.174 2.88 1.226 1.12 2.933 1.12zm16.243 6.133h-6.293v-27.147h6.293zm0-30.08h-6.293v-6.24h6.293zm17.18 30.08h-5.973l-8.214-27.147h5.92l5.227 17.227 5.067-17.227h5.973zm17.72 0h-6.293v-27.147h6.293zm0-30.08h-6.293v-6.24h6.293zm15.68 9.01q-1.387 0-2.293.373-.854.32-1.334.907-.48.587-.693 1.44-.16.8-.16 1.76v16.587h-6.24V413.26h6.24v.693q1.867-.693 4-.693h2.773q2.347 0 4.16.8t2.987 2.133q1.227 1.28 1.813 2.987.64 1.653.64 3.36v17.867h-6.24V423.82q0-.96-.16-1.76-.16-.853-.64-1.44-.426-.587-1.28-.907-.853-.373-2.293-.373zm15.3 3.57q0-1.973.747-3.68.746-1.76 1.973-3.093 1.227-1.334 2.827-2.08 1.6-.8 3.2-.8h6.08q2.08 0 3.68.906 1.653.854 2.72 2.24 1.12 1.334 1.706 3.04.64 1.654.64 3.254v6.88h-17.28v1.44q0 1.92 1.067 2.72t2.827.8h12.427v5.973H808.35q-1.814 0-3.414-.693-1.6-.747-2.826-1.974-1.174-1.226-1.867-2.933-.693-1.707-.693-3.733zm6.347 1.6h11.04v-.267q0-2.08-1.067-3.413-1.067-1.387-2.88-1.387h-3.307q-.853 0-1.546.427-.694.373-1.174 1.013t-.8 1.547q-.266.853-.266 1.813zm21.433 17.12v-6.133h6.347v6.133zm38.25-30.82h-9.28v-6.72h25.173v6.72h-9.387v29.6h-6.506zm18.34 11.04q.16-1.707.747-3.253.64-1.547 1.813-2.72t2.933-1.867q1.76-.747 4.054-.747h3.2q2.4 0 4.16.8 1.813.8 2.986 2.134 1.174 1.28 1.76 2.986.587 1.654.587 3.36v17.867h-15.147q-1.76 0-3.147-.64-1.386-.693-2.346-1.76-.907-1.12-1.387-2.613-.427-1.493-.427-3.2 0-1.653.48-3.093t1.387-2.454q.907-1.066 2.24-1.653 1.387-.64 3.093-.64h9.12v-.533q0-.96-.16-1.76-.16-.854-.586-1.44-.427-.587-1.28-.907-.854-.373-2.294-.373h-1.333q-2.133 0-3.04.64-.907.586-1.227 1.867zm5.493 10.347q0 1.387.534 2.08.586.64 1.28.64h8.8v-5.44h-8.8q-.694 0-1.28.693-.534.694-.534 2.027zm43.487 8.213h-7.04l-9.173-10.347v10.347h-6.294v-36.32h6.294v17.76l8.64-8.587h7.413l-13.067 12.533zm1.75-17.5q0-1.973.747-3.68.746-1.76 1.973-3.093 1.227-1.334 2.827-2.08 1.6-.8 3.2-.8h6.08q2.08 0 3.68.906 1.653.854 2.72 2.24 1.12 1.334 1.706 3.04.64 1.654.64 3.254v6.88h-17.28v1.44q0 1.92 1.067 2.72t2.827.8h12.427v5.973H943.45q-1.814 0-3.414-.693-1.6-.747-2.826-1.974-1.174-1.226-1.867-2.933-.693-1.707-.693-3.733zm6.347 1.6h11.04v-.267q0-2.08-1.067-3.413-1.067-1.387-2.88-1.387h-3.307q-.853 0-1.546.427-.694.373-1.174 1.013t-.8 1.547q-.266.853-.266 1.813zm39.783-11.25h5.013v-9.173h6.294v9.173h5.013v6.133h-5.013v21.013h-6.294v-21.013h-5.013zm29.92 6.08q-1.387 0-2.293.373-.854.32-1.334.907-.48.587-.693 1.44-.16.8-.16 1.76v16.587h-5.973v-36.32h5.973v9.76q.8-.267 1.653-.427.907-.16 1.92-.16h3.2q2.347 0 4.107.8 1.813.8 2.987 2.134 1.226 1.28 1.813 2.986.587 1.654.587 3.36v17.867h-6.027V423.82q0-.96-.16-1.76-.16-.853-.693-1.44-.48-.586-1.334-.906-.853-.374-2.24-.374zm15.3 3.57q0-1.973.747-3.68.746-1.76 1.973-3.093t2.827-2.08q1.6-.8 3.2-.8h6.08q2.08 0 3.68.906 1.653.854 2.72 2.24 1.12 1.334 1.706 3.04.64 1.654.64 3.254v6.88h-17.28v1.44q0 1.92 1.067 2.72t2.827.8h12.427v5.973H1034.8q-1.814 0-3.414-.693-1.6-.747-2.826-1.974-1.174-1.226-1.867-2.933-.693-1.707-.693-3.733zm6.347 1.6h11.04v-.267q0-2.08-1.067-3.413-1.067-1.387-2.88-1.387h-3.307q-.853 0-1.546.427-.694.373-1.174 1.013t-.8 1.547q-.266.853-.266 1.813zm59.853-5.97h-10.613q-.693 0-1.173.267-.427.213-.747.64-.32.426-.48.96-.16.48-.16.96 0 1.013.64 1.866.693.8 1.653.8h5.974q1.866 0 3.253.64 1.44.64 2.347 1.76.96 1.12 1.386 2.667.48 1.547.48 3.307v.16q0 1.76-.586 3.2-.534 1.44-1.547 2.453t-2.4 1.6q-1.387.587-2.933.587h-12.907v-5.28h11.093q1.226 0 2.24-.694 1.066-.693 1.12-2.08v.054q0-.8-.32-1.334-.267-.533-.747-.853-.48-.373-1.067-.533-.586-.16-1.226-.16h-4.8q-2.347 0-3.894-.747-1.493-.747-2.4-1.92-.853-1.173-1.173-2.667t-.32-3.04q0-1.6.48-3.093t1.387-2.613q.96-1.174 2.346-1.814 1.387-.64 3.147-.64h11.947zm17 .8q-1.387 0-2.293.373-.854.32-1.334.907-.48.587-.693 1.44-.16.8-.16 1.76v16.587h-5.973v-36.32h5.973v9.76q.8-.267 1.653-.427.907-.16 1.92-.16h3.2q2.347 0 4.107.8 1.813.8 2.987 2.134 1.226 1.28 1.813 2.986.587 1.654.587 3.36v17.867h-6.027V423.82q0-.96-.16-1.76-.16-.853-.693-1.44-.48-.586-1.334-.906-.853-.374-2.24-.374zm27.4-6.08q2.347 0 4.16.747 1.867.693 3.147 1.973 1.333 1.28 2.026 3.093.694 1.814.694 4.107v7.307q0 2.24-.694 4.106-.693 1.814-2.026 3.147-1.28 1.28-3.147 1.973-1.813.694-4.16.694h-2.187q-2.293 0-4.16-.694-1.866-.693-3.2-1.973-1.28-1.333-1.973-3.147-.64-1.866-.64-4.106v-7.307q0-2.293.64-4.107.693-1.813 1.973-3.093 1.334-1.28 3.2-1.973 1.867-.747 4.16-.747zm-2.187 6.133q-1.653 0-2.826 1.12-1.12 1.067-1.12 2.827v6.933q0 1.76 1.12 2.88 1.173 1.12 2.826 1.12h2.187q1.707 0 2.773-1.12 1.12-1.12 1.12-2.88v-6.933q0-1.76-1.12-2.827-1.066-1.12-2.773-1.12zm22.787-.583q.747-1.227 1.973-2.133 1.28-.96 2.774-1.6 1.546-.64 3.253-.96t3.413-.32h.694v6.613h-.694q-1.92 0-3.946.8-2.027.747-3.734 2.027-1.653 1.226-2.72 2.773-1.013 1.547-1.013 3.093v11.307h-6.613v-27.36h6.613zm14.7-5.55h5.013v-9.173h6.294v9.173h5.013v6.133h-5.013v21.013h-6.294v-21.013h-5.013zm18.9 9.65q0-1.973.747-3.68.746-1.76 1.973-3.093t2.827-2.08q1.6-.8 3.2-.8h6.08q2.08 0 3.68.906 1.653.854 2.72 2.24 1.12 1.334 1.706 3.04.64 1.654.64 3.254v6.88h-17.28v1.44q0 1.92 1.067 2.72t2.827.8h12.427v5.973H1199.6q-1.814 0-3.414-.693-1.6-.747-2.826-1.974-1.174-1.226-1.867-2.933-.693-1.707-.693-3.733zm6.347 1.6h11.04v-.267q0-2.08-1.067-3.413-1.067-1.387-2.88-1.387h-3.307q-.853 0-1.546.427-.694.373-1.174 1.013t-.8 1.547q-.266.853-.266 1.813zm39.953-5.97h-10.613q-.693 0-1.173.267-.427.213-.747.64-.32.426-.48.96-.16.48-.16.96 0 1.013.64 1.866.693.8 1.653.8h5.974q1.866 0 3.253.64 1.44.64 2.347 1.76.96 1.12 1.386 2.667.48 1.547.48 3.307v.16q0 1.76-.586 3.2-.534 1.44-1.547 2.453t-2.4 1.6q-1.387.587-2.933.587h-12.907v-5.28h11.093q1.226 0 2.24-.694 1.066-.693 1.12-2.08v.054q0-.8-.32-1.334-.267-.533-.747-.853-.48-.373-1.067-.533t-1.226-.16h-4.8q-2.347 0-3.894-.747-1.493-.747-2.4-1.92-.853-1.173-1.173-2.667t-.32-3.04q0-1.6.48-3.093t1.387-2.613q.96-1.174 2.346-1.814t3.147-.64h11.947zm5.2-5.28h5.013v-9.173h6.294v9.173h5.013v6.133h-5.013v21.013h-6.294v-21.013h-5.013zm51.1 0q2.347 0 4.16.747 1.867.693 3.147 1.973 1.333 1.28 2.026 3.093t.694 4.107v7.307q0 2.24-.694 4.106-.693 1.814-2.026 3.147-1.28 1.28-3.147 1.973-1.813.694-4.16.694h-1.707q-2.346 0-4.266-.747v10.027h-6.187V413.26zm-5.973 6.133v10.88q0 1.76 1.066 2.88t2.774 1.12h2.133q1.707 0 2.827-1.12t1.12-2.88v-6.933q0-1.76-1.12-2.827-1.12-1.12-2.827-1.12zm19.073 2.457q.16-1.707.747-3.253.64-1.547 1.813-2.72 1.173-1.174 2.933-1.867 1.76-.747 4.054-.747h3.2q2.4 0 4.16.8 1.813.8 2.986 2.134 1.174 1.28 1.76 2.986.587 1.654.587 3.36v17.867h-15.147q-1.76 0-3.147-.64-1.386-.693-2.346-1.76-.907-1.12-1.387-2.613-.427-1.493-.427-3.2 0-1.653.48-3.093t1.387-2.454q.907-1.066 2.24-1.653 1.387-.64 3.093-.64h9.12v-.533q0-.96-.16-1.76-.16-.854-.586-1.44-.427-.587-1.28-.907-.854-.373-2.294-.373h-1.333q-2.133 0-3.04.64-.907.586-1.227 1.867zm5.493 10.347q0 1.387.534 2.08.586.64 1.28.64h8.8v-5.44h-8.8q-.694 0-1.28.693-.534.694-.534 2.027zm19.707-18.937h5.013v-9.173h6.294v9.173h5.013v6.133h-5.013v21.013h-6.294v-21.013h-5.013zm29.9 6.08q-1.387 0-2.293.373-.854.32-1.334.907-.48.587-.693 1.44-.16.8-.16 1.76v16.587h-5.973v-36.32h5.973v9.76q.8-.267 1.653-.427.907-.16 1.92-.16h3.2q2.347 0 4.107.8 1.813.8 2.987 2.134 1.226 1.28 1.813 2.986.587 1.654.587 3.36v17.867h-6.027V423.82q0-.96-.16-1.76-.16-.853-.693-1.44-.48-.586-1.334-.906-.853-.374-2.24-.374zm-640.33 69.17q.16-1.707.747-3.253.64-1.547 1.813-2.72t2.933-1.867q1.76-.747 4.054-.747h3.2q2.4 0 4.16.8 1.813.8 2.986 2.134 1.174 1.28 1.76 2.986.587 1.654.587 3.36v17.867h-15.147q-1.76 0-3.147-.64-1.386-.693-2.346-1.76-.907-1.12-1.387-2.613-.427-1.493-.427-3.2 0-1.653.48-3.093t1.387-2.454q.907-1.066 2.24-1.653 1.387-.64 3.093-.64h9.12v-.533q0-.96-.16-1.76-.16-.854-.586-1.44-.427-.587-1.28-.907-.854-.373-2.294-.373h-1.333q-2.133 0-3.04.64-.907.586-1.227 1.866zm5.493 10.347q0 1.387.534 2.08.586.64 1.28.64h8.8v-5.44h-8.8q-.694 0-1.28.693-.534.694-.534 2.027zm32.127-12.847q-1.387 0-2.293.373-.854.32-1.334.907-.48.587-.693 1.44-.16.8-.16 1.76v16.587h-6.24V479.93h6.24v.693q1.867-.693 4-.693h2.773q2.347 0 4.16.8t2.987 2.133q1.227 1.28 1.813 2.987.64 1.653.64 3.36v17.867h-6.24V490.49q0-.96-.16-1.76-.16-.853-.64-1.44-.426-.587-1.28-.907-.853-.373-2.293-.373zm25.22 21.06q-2.347 0-4.213-.693-1.814-.694-3.147-1.974-1.28-1.333-1.973-3.146-.694-1.867-.694-4.107v-7.307q0-2.293.694-4.106.693-1.814 1.973-3.094 1.333-1.28 3.147-1.973 1.866-.747 4.213-.747h2.133q2.24 0 4.054.64v-9.813h5.973v36.32zm6.187-6.133v-10.933q0-1.76-1.174-2.827-1.173-1.12-2.88-1.12h-2.133q-1.707 0-2.933 1.12-1.174 1.067-1.174 2.827v6.933q0 1.76 1.174 2.88 1.226 1.12 2.933 1.12zM838.8 485.21h-10.613q-.693 0-1.173.267-.427.213-.747.64t-.48.96q-.16.48-.16.96 0 1.013.64 1.866.693.8 1.653.8h5.974q1.866 0 3.253.64 1.44.64 2.347 1.76.96 1.12 1.386 2.667.48 1.547.48 3.307v.16q0 1.76-.586 3.2-.534 1.44-1.547 2.453t-2.4 1.6q-1.387.587-2.933.587h-12.907v-5.28h11.093q1.226 0 2.24-.694 1.066-.693 1.12-2.08v.054q0-.8-.32-1.334-.267-.533-.747-.853-.48-.373-1.067-.533-.586-.16-1.226-.16h-4.8q-2.347 0-3.894-.747-1.493-.747-2.4-1.92-.853-1.173-1.173-2.667-.32-1.493-.32-3.04 0-1.6.48-3.093t1.387-2.613q.96-1.174 2.346-1.814t3.147-.64H838.8zm5.9 3.3q.16-1.707.747-3.253.64-1.547 1.813-2.72t2.933-1.867q1.76-.747 4.054-.747h3.2q2.4 0 4.16.8 1.813.8 2.986 2.134 1.174 1.28 1.76 2.986.587 1.654.587 3.36v17.867h-15.147q-1.76 0-3.147-.64-1.386-.693-2.346-1.76-.907-1.12-1.387-2.613-.427-1.493-.427-3.2 0-1.653.48-3.093t1.387-2.454q.907-1.066 2.24-1.653 1.387-.64 3.093-.64h9.12v-.533q0-.96-.16-1.76-.16-.854-.587-1.44-.426-.587-1.28-.907-.853-.373-2.293-.373h-1.333q-2.133 0-3.04.64-.907.586-1.227 1.866zm5.493 10.347q0 1.387.534 2.08.586.64 1.28.64h8.8v-5.44h-8.8q-.694 0-1.28.693-.534.694-.534 2.027zm33.627 8.213h-5.973l-8.214-27.147h5.92l5.227 17.227 5.067-17.227h5.973zm22.78-27.14q2.347 0 4.16.747 1.867.693 3.147 1.973 1.333 1.28 2.026 3.093.694 1.814.694 4.107v7.307q0 2.24-.694 4.106-.693 1.814-2.026 3.147-1.28 1.28-3.147 1.973-1.813.694-4.16.694h-2.187q-2.293 0-4.16-.694-1.866-.693-3.2-1.973-1.28-1.333-1.973-3.147-.64-1.866-.64-4.106v-7.307q0-2.293.64-4.107.693-1.813 1.973-3.093 1.334-1.28 3.2-1.973 1.867-.747 4.16-.747zm-2.187 6.133q-1.653 0-2.826 1.12-1.12 1.067-1.12 2.827v6.933q0 1.76 1.12 2.88 1.173 1.12 2.826 1.12h2.187q1.707 0 2.773-1.12 1.12-1.12 1.12-2.88v-6.933q0-1.76-1.12-2.827-1.066-1.12-2.773-1.12zm27.927 14.927q1.333 0 2.133-.32.854-.32 1.334-.853.533-.534.746-1.28.214-.747.214-1.6v-17.013h6.24v27.147h-6.24v-.694q-.854.374-1.867.534-.96.16-2.08.16h-2.72q-2.4 0-4.213-.8-1.76-.8-2.934-2.08-1.173-1.334-1.813-2.987-.587-1.707-.587-3.413v-17.867h6.187v16.587q0 .96.16 1.76t.64 1.44q.48.586 1.333.96.854.32 2.294.32zm21.6-15.52q.747-1.227 1.973-2.133 1.28-.96 2.774-1.6 1.546-.64 3.253-.96 1.707-.32 3.413-.32h.694v6.613h-.694q-1.92 0-3.946.8-2.027.747-3.734 2.027-1.653 1.226-2.72 2.773-1.013 1.547-1.013 3.093v11.307h-6.613v-27.36h6.613zm42.28 21.6h-6.293v-27.147h6.293zm0-30.08h-6.293v-6.24h6.293zm3.26 2.94h5.013v-9.173h6.294v9.173h5.013v6.133h-5.013v21.013h-6.294v-21.013h-5.013zm38.22 5.28h-10.613q-.693 0-1.173.267-.427.213-.747.64t-.48.96q-.16.48-.16.96 0 1.013.64 1.866.693.8 1.653.8h5.974q1.866 0 3.253.64 1.44.64 2.347 1.76.96 1.12 1.386 2.667.48 1.547.48 3.307v.16q0 1.76-.586 3.2-.534 1.44-1.547 2.453t-2.4 1.6q-1.387.587-2.933.587h-12.907v-5.28h11.093q1.226 0 2.24-.694 1.066-.693 1.12-2.08v.054q0-.8-.32-1.334-.267-.533-.747-.853-.48-.373-1.067-.533t-1.226-.16h-4.8q-2.347 0-3.894-.747-1.493-.747-2.4-1.92-.853-1.173-1.173-2.667-.32-1.493-.32-3.04 0-1.6.48-3.093t1.387-2.613q.96-1.174 2.346-1.814t3.147-.64h11.947zm45.2 0h-10.613q-.693 0-1.173.267-.427.213-.747.64t-.48.96q-.16.48-.16.96 0 1.013.64 1.866.693.8 1.653.8h5.974q1.866 0 3.253.64 1.44.64 2.347 1.76.96 1.12 1.386 2.667.48 1.547.48 3.307v.16q0 1.76-.586 3.2-.534 1.44-1.547 2.453t-2.4 1.6q-1.387.587-2.933.587h-12.907v-5.28h11.093q1.226 0 2.24-.694 1.066-.693 1.12-2.08v.054q0-.8-.32-1.334-.267-.533-.747-.853-.48-.373-1.067-.533-.586-.16-1.226-.16h-4.8q-2.347 0-3.894-.747-1.493-.747-2.4-1.92-.853-1.173-1.173-2.667-.32-1.493-.32-3.04 0-1.6.48-3.093t1.387-2.613q.96-1.174 2.346-1.814 1.387-.64 3.147-.64h11.947zm12.9 21.86h-6.293v-27.147h6.293zm0-30.08h-6.293v-6.24h6.293zm16.3 2.94q2.347 0 4.16.747 1.867.693 3.147 1.973 1.333 1.28 2.026 3.093.694 1.814.694 4.107v7.307q0 2.24-.694 4.106-.693 1.814-2.026 3.147-1.28 1.28-3.147 1.973-1.813.694-4.16.694h-1.707q-2.346 0-4.266-.747v10.027h-6.187V479.93zm-5.973 6.133v10.88q0 1.76 1.066 2.88 1.067 1.12 2.774 1.12h2.133q1.707 0 2.827-1.12t1.12-2.88v-6.933q0-1.76-1.12-2.827-1.12-1.12-2.827-1.12zM1126.1 508.3v-6.133h6.347v6.133zm38.3-30.83h-9.28v-6.72h25.173v6.72h-9.387v29.6h-6.506zm18.3 11.04q.16-1.707.747-3.253.64-1.547 1.813-2.72 1.173-1.174 2.933-1.867 1.76-.747 4.054-.747h3.2q2.4 0 4.16.8 1.813.8 2.986 2.134 1.174 1.28 1.76 2.986.587 1.654.587 3.36v17.867h-15.147q-1.76 0-3.147-.64-1.386-.693-2.346-1.76-.907-1.12-1.387-2.613-.427-1.493-.427-3.2 0-1.653.48-3.093t1.387-2.454q.907-1.066 2.24-1.653 1.387-.64 3.093-.64h9.12v-.533q0-.96-.16-1.76-.16-.854-.586-1.44-.427-.587-1.28-.907-.854-.373-2.294-.373h-1.333q-2.133 0-3.04.64-.907.586-1.227 1.866zm5.493 10.347q0 1.387.534 2.08.586.64 1.28.64h8.8v-5.44h-8.8q-.694 0-1.28.693-.534.694-.534 2.027zm43.507 8.213h-7.04l-9.173-10.347v10.347h-6.294v-36.32h6.294v17.76l8.64-8.587h7.413l-13.067 12.533zm1.8-17.49q0-1.973.747-3.68.746-1.76 1.973-3.093 1.227-1.334 2.827-2.08 1.6-.8 3.2-.8h6.08q2.08 0 3.68.906 1.653.854 2.72 2.24 1.12 1.334 1.706 3.04.64 1.654.64 3.254v6.88h-17.28v1.44q0 1.92 1.067 2.72 1.067.8 2.827.8h12.427v5.973H1242.3q-1.814 0-3.414-.693-1.6-.747-2.826-1.974-1.174-1.226-1.867-2.933-.693-1.707-.693-3.733zm6.347 1.6h11.04v-.267q0-2.08-1.067-3.413-1.067-1.387-2.88-1.387h-3.307q-.853 0-1.546.427-.694.373-1.174 1.013t-.8 1.547q-.266.853-.266 1.813zm40.353-2.67q.16-1.707.747-3.253.64-1.547 1.813-2.72t2.933-1.867q1.76-.747 4.054-.747h3.2q2.4 0 4.16.8 1.813.8 2.986 2.134 1.174 1.28 1.76 2.986.587 1.654.587 3.36v17.867h-15.147q-1.76 0-3.147-.64-1.386-.693-2.346-1.76-.907-1.12-1.387-2.613-.427-1.493-.427-3.2 0-1.653.48-3.093t1.387-2.454q.907-1.066 2.24-1.653 1.387-.64 3.093-.64h9.12v-.533q0-.96-.16-1.76-.16-.854-.586-1.44-.427-.587-1.28-.907-.854-.373-2.294-.373h-1.333q-2.133 0-3.04.64-.907.586-1.227 1.866zm5.493 10.347q0 1.387.534 2.08.586.64 1.28.64h8.8v-5.44h-8.8q-.694 0-1.28.693-.534.694-.534 2.027zm32.107-12.847q-1.387 0-2.293.373-.854.32-1.334.907-.48.587-.693 1.44-.16.8-.16 1.76v16.587h-6.24V479.93h6.24v.693q1.867-.693 4-.693h2.773q2.347 0 4.16.8t2.987 2.133q1.227 1.28 1.813 2.987.64 1.653.64 3.36v17.867h-6.24V490.49q0-.96-.16-1.76-.16-.853-.64-1.44-.426-.587-1.28-.907-.853-.373-2.293-.373zm26 30.34h-5.867l2.72-9.387-8.213-27.04h5.92l5.173 17.333 5.12-17.333h5.974zm-608.29 30.24q2.347 0 4.16.747 1.867.693 3.147 1.973 1.333 1.28 2.026 3.093.694 1.814.694 4.107v7.307q0 2.24-.694 4.106-.693 1.814-2.026 3.147-1.28 1.28-3.147 1.973-1.813.694-4.16.694h-2.187q-2.293 0-4.16-.694-1.866-.693-3.2-1.973-1.28-1.333-1.973-3.147-.64-1.866-.64-4.106v-7.307q0-2.293.64-4.107.693-1.813 1.973-3.093 1.334-1.28 3.2-1.973 1.867-.747 4.16-.747zm-2.187 6.133q-1.653 0-2.826 1.12-1.12 1.067-1.12 2.827v6.933q0 1.76 1.12 2.88 1.173 1.12 2.826 1.12h2.187q1.707 0 2.773-1.12 1.12-1.12 1.12-2.88v-6.933q0-1.76-1.12-2.827-1.066-1.12-2.773-1.12zm14.857-6.133h5.013v-9.173h6.294v9.173h5.013v6.133h-5.013v21.013h-6.294v-21.013h-5.013zm29.91 6.08q-1.387 0-2.293.373-.854.32-1.334.907t-.693 1.44q-.16.8-.16 1.76v16.587h-5.973v-36.32h5.973v9.76q.8-.267 1.653-.427.907-.16 1.92-.16h3.2q2.347 0 4.107.8 1.813.8 2.987 2.134 1.226 1.28 1.813 2.986.587 1.654.587 3.36v17.867h-6.027V557.15q0-.96-.16-1.76-.16-.853-.693-1.44-.48-.586-1.334-.906-.853-.374-2.24-.374zm15.31 3.58q0-1.973.747-3.68.746-1.76 1.973-3.093 1.227-1.334 2.827-2.08 1.6-.8 3.2-.8h6.08q2.08 0 3.68.906 1.653.854 2.72 2.24 1.12 1.334 1.706 3.04.64 1.654.64 3.254v6.88h-17.28v1.44q0 1.92 1.067 2.72t2.827.8h12.427v5.973H802.2q-1.814 0-3.414-.693-1.6-.747-2.826-1.974-1.174-1.226-1.867-2.933-.693-1.707-.693-3.733zm6.347 1.6h11.04v-.267q0-2.08-1.067-3.413-1.067-1.387-2.88-1.387h-3.307q-.853 0-1.546.427-.694.373-1.174 1.013t-.8 1.547q-.266.853-.266 1.813zm27.893-5.71q.747-1.227 1.973-2.133 1.28-.96 2.774-1.6 1.546-.64 3.253-.96 1.707-.32 3.413-.32h.694v6.613h-.694q-1.92 0-3.947.8-2.026.747-3.733 2.027-1.653 1.226-2.72 2.773-1.013 1.547-1.013 3.093v11.307h-6.613v-27.36h6.613zm47.61-5.55q2.347 0 4.16.747 1.867.693 3.147 1.973 1.333 1.28 2.026 3.093.694 1.814.694 4.107v7.307q0 2.24-.694 4.106-.693 1.814-2.026 3.147-1.28 1.28-3.147 1.973-1.813.694-4.16.694h-1.707q-2.346 0-4.266-.747v10.027h-6.187V546.59zm-5.973 6.133v10.88q0 1.76 1.066 2.88t2.774 1.12h2.133q1.707 0 2.827-1.12t1.12-2.88v-6.933q0-1.76-1.12-2.827-1.12-1.12-2.827-1.12zm19.123 2.457q.16-1.707.747-3.253.64-1.547 1.813-2.72t2.933-1.867q1.76-.747 4.054-.747h3.2q2.4 0 4.16.8 1.813.8 2.986 2.134 1.174 1.28 1.76 2.986.587 1.654.587 3.36v17.867h-15.147q-1.76 0-3.147-.64-1.386-.693-2.346-1.76-.907-1.12-1.387-2.613-.427-1.493-.427-3.2 0-1.653.48-3.093t1.387-2.454q.907-1.066 2.24-1.653 1.387-.64 3.093-.64h9.12v-.533q0-.96-.16-1.76-.16-.854-.587-1.44-.426-.587-1.28-.907-.853-.373-2.293-.373h-1.333q-2.133 0-3.04.64-.907.586-1.227 1.866zm5.493 10.347q0 1.387.534 2.08.586.64 1.28.64h8.8v-5.44h-8.8q-.694 0-1.28.693-.534.694-.534 2.027zM913.6 546.59h5.013v-9.173h6.294v9.173h5.013v6.133h-5.013v21.013h-6.294v-21.013H913.6zm29.91 6.08q-1.387 0-2.293.373-.854.32-1.334.907t-.693 1.44q-.16.8-.16 1.76v16.587h-5.973v-36.32h5.973v9.76q.8-.267 1.653-.427.907-.16 1.92-.16h3.2q2.347 0 4.107.8 1.813.8 2.987 2.134 1.226 1.28 1.813 2.986.587 1.654.587 3.36v17.867h-6.027V557.15q0-.96-.16-1.76-.16-.853-.693-1.44-.48-.586-1.334-.906-.853-.374-2.24-.374zm35.1 2.51q.16-1.707.747-3.253.64-1.547 1.813-2.72t2.933-1.867q1.76-.747 4.054-.747h3.2q2.4 0 4.16.8 1.813.8 2.986 2.134 1.174 1.28 1.76 2.986.587 1.654.587 3.36v17.867h-15.147q-1.76 0-3.147-.64-1.386-.693-2.346-1.76-.907-1.12-1.387-2.613-.427-1.493-.427-3.2 0-1.653.48-3.093t1.387-2.454q.907-1.066 2.24-1.653 1.387-.64 3.093-.64h9.12v-.533q0-.96-.16-1.76-.16-.854-.586-1.44-.427-.587-1.28-.907-.854-.373-2.294-.373h-1.333q-2.133 0-3.04.64-.907.586-1.227 1.866zm5.493 10.347q0 1.387.534 2.08.586.64 1.28.64h8.8v-5.44h-8.8q-.694 0-1.28.693-.534.694-.534 2.027zm32.097-12.857q-1.387 0-2.293.373-.854.32-1.334.907t-.693 1.44q-.16.8-.16 1.76v16.587h-6.24V546.59h6.24v.693q1.867-.693 4-.693h2.773q2.347 0 4.16.8 1.814.8 2.987 2.133 1.227 1.28 1.813 2.987.64 1.653.64 3.36v17.867h-6.24V557.15q0-.96-.16-1.76-.16-.853-.64-1.44-.426-.587-1.28-.907-.853-.373-2.293-.373zm25.2 21.07q-2.347 0-4.213-.693-1.814-.694-3.147-1.974-1.28-1.333-1.973-3.146-.694-1.867-.694-4.107v-7.307q0-2.293.694-4.106.693-1.814 1.973-3.094 1.333-1.28 3.147-1.973 1.866-.747 4.213-.747h2.133q2.24 0 4.054.64v-9.813h5.973v36.32zm6.187-6.133v-10.933q0-1.76-1.174-2.827-1.173-1.12-2.88-1.12h-2.133q-1.707 0-2.933 1.12-1.174 1.067-1.174 2.827v6.933q0 1.76 1.174 2.88 1.226 1.12 2.933 1.12zm52.313 6.133h-7.04l-9.173-10.347v10.347h-6.294v-36.32h6.294v17.76l8.64-8.587h7.413l-13.067 12.533zm1.7-17.49q0-1.973.747-3.68.746-1.76 1.973-3.093t2.827-2.08q1.6-.8 3.2-.8h6.08q2.08 0 3.68.906 1.653.854 2.72 2.24 1.12 1.334 1.706 3.04.64 1.654.64 3.254v6.88h-17.28v1.44q0 1.92 1.067 2.72t2.827.8h12.427v5.973H1110.4q-1.814 0-3.414-.693-1.6-.747-2.826-1.974-1.174-1.226-1.867-2.933-.693-1.707-.693-3.733zm6.347 1.6h11.04v-.267q0-2.08-1.067-3.413-1.067-1.387-2.88-1.387h-3.307q-.853 0-1.546.427-.694.373-1.174 1.013t-.8 1.547q-.266.853-.266 1.813zm20.653-1.6q0-1.973.747-3.68.746-1.76 1.973-3.093t2.827-2.08q1.6-.8 3.2-.8h6.08q2.08 0 3.68.906 1.653.854 2.72 2.24 1.12 1.334 1.706 3.04.64 1.654.64 3.254v6.88h-17.28v1.44q0 1.92 1.067 2.72t2.827.8h12.427v5.973H1137.4q-1.814 0-3.414-.693-1.6-.747-2.826-1.974-1.174-1.226-1.867-2.933-.693-1.707-.693-3.733zm6.347 1.6h11.04v-.267q0-2.08-1.067-3.413-1.067-1.387-2.88-1.387h-3.307q-.853 0-1.546.427-.694.373-1.174 1.013t-.8 1.547q-.266.853-.266 1.813zm32.953-11.26q2.347 0 4.16.747 1.867.693 3.147 1.973 1.333 1.28 2.026 3.093.694 1.814.694 4.107v7.307q0 2.24-.694 4.106-.693 1.814-2.026 3.147-1.28 1.28-3.147 1.973-1.813.694-4.16.694h-1.707q-2.346 0-4.266-.747v10.027h-6.187V546.59zm-5.973 6.133v10.88q0 1.76 1.066 2.88 1.067 1.12 2.774 1.12h2.133q1.707 0 2.827-1.12t1.12-2.88v-6.933q0-1.76-1.12-2.827-1.12-1.12-2.827-1.12zm39.873-15.303h6.293v36.32h-6.293zm22.8 9.17q2.347 0 4.16.747 1.867.693 3.147 1.973 1.333 1.28 2.026 3.093.694 1.814.694 4.107v7.307q0 2.24-.694 4.106-.693 1.814-2.026 3.147-1.28 1.28-3.147 1.973-1.813.694-4.16.694h-2.187q-2.293 0-4.16-.694-1.866-.693-3.2-1.973-1.28-1.333-1.973-3.147-.64-1.866-.64-4.106v-7.307q0-2.293.64-4.107.693-1.813 1.973-3.093 1.334-1.28 3.2-1.973 1.867-.747 4.16-.747zm-2.187 6.133q-1.653 0-2.826 1.12-1.12 1.067-1.12 2.827v6.933q0 1.76 1.12 2.88 1.173 1.12 2.826 1.12h2.187q1.707 0 2.773-1.12 1.12-1.12 1.12-2.88v-6.933q0-1.76-1.12-2.827-1.066-1.12-2.773-1.12zm27.287-.053q-1.387 0-2.293.373-.854.32-1.334.907t-.693 1.44q-.16.8-.16 1.76v16.587h-6.24V546.59h6.24v.693q1.867-.693 4-.693h2.773q2.347 0 4.16.8 1.814.8 2.987 2.133 1.227 1.28 1.813 2.987.64 1.653.64 3.36v17.867h-6.24V557.15q0-.96-.16-1.76-.16-.853-.64-1.44-.426-.587-1.28-.907-.853-.373-2.293-.373zm37.7-6.08v27.2q0 2.187-.64 3.84-.64 1.707-1.76 2.88-1.12 1.227-2.72 1.813-1.6.64-3.52.64h-12.213v-5.92h11.2q1.653 0 2.72-1.013 1.12-1.013 1.12-2.827v-.32h-7.947q-1.76 0-3.36-.586-1.546-.64-2.72-1.867t-1.866-2.987q-.694-1.813-.694-4.16v-7.093q0-2.347.694-4.107.693-1.813 1.866-3.04t2.72-1.813q1.6-.64 3.36-.64zm-5.867 5.92h-6.56q-.8 0-1.493.373-.693.32-1.227.96-.533.587-.853 1.334-.32.746-.32 1.653v5.76q0 .907.32 1.707t.853 1.386q.534.587 1.227.96.693.32 1.493.32h6.56zm16.267 21.23h-6.293v-27.147h6.293zm0-30.08h-6.293v-6.24h6.293zm15.7 9.01q-1.387 0-2.293.373-.854.32-1.334.907t-.693 1.44q-.16.8-.16 1.76v16.587h-6.24V546.59h6.24v.693q1.867-.693 4-.693h2.773q2.347 0 4.16.8 1.814.8 2.987 2.133 1.227 1.28 1.813 2.987.64 1.653.64 3.36v17.867h-6.24V557.15q0-.96-.16-1.76-.16-.853-.64-1.44-.426-.587-1.28-.907-.853-.373-2.293-.373zm37.7-6.08v27.2q0 2.187-.64 3.84-.64 1.707-1.76 2.88-1.12 1.227-2.72 1.813-1.6.64-3.52.64h-12.213v-5.92h11.2q1.653 0 2.72-1.013 1.12-1.013 1.12-2.827v-.32h-7.947q-1.76 0-3.36-.586-1.546-.64-2.72-1.867t-1.866-2.987q-.694-1.813-.694-4.16v-7.093q0-2.347.694-4.107.693-1.813 1.866-3.04t2.72-1.813q1.6-.64 3.36-.64zm-5.867 5.92h-6.56q-.8 0-1.493.373-.693.32-1.227.96-.533.587-.853 1.334-.32.746-.32 1.653v5.76q0 .907.32 1.707t.853 1.386q.534.587 1.227.96.693.32 1.493.32h6.56zM911.02 609.79h-1.92q-1.813 0-2.933 1.12t-1.12 2.88v1.173h5.973v6.134h-5.973v19.36h-5.6v-19.36h-4.854v-6.134h4.854v-.906q0-2.294.64-4.107.64-1.867 1.866-3.147 1.28-1.28 3.04-1.973 1.814-.747 4.107-.747h1.92zm15.37 3.47q2.347 0 4.16.747 1.867.693 3.147 1.973 1.333 1.28 2.026 3.093t.694 4.107v7.307q0 2.24-.694 4.106-.693 1.814-2.026 3.147-1.28 1.28-3.147 1.973-1.813.694-4.16.694h-2.187q-2.293 0-4.16-.694t-3.2-1.973q-1.28-1.333-1.973-3.147-.64-1.866-.64-4.106v-7.307q0-2.293.64-4.107.693-1.813 1.973-3.093 1.334-1.28 3.2-1.973 1.867-.747 4.16-.747zm-2.187 6.133q-1.653 0-2.826 1.12-1.12 1.067-1.12 2.827v6.933q0 1.76 1.12 2.88 1.173 1.12 2.826 1.12h2.187q1.707 0 2.773-1.12 1.12-1.12 1.12-2.88v-6.933q0-1.76-1.12-2.827-1.066-1.12-2.773-1.12zm22.857-.583q.747-1.227 1.973-2.133 1.28-.96 2.774-1.6 1.546-.64 3.253-.96 1.707-.32 3.413-.32h.694v6.613h-.694q-1.92 0-3.947.8-2.026.747-3.733 2.027-1.653 1.226-2.72 2.773-1.013 1.547-1.013 3.093v11.307h-6.613v-27.36h6.613zm42.29 21.6h-6.293v-27.147h6.293zm0-30.08h-6.293v-6.24h6.293zm3.26 2.93h5.013v-9.173h6.294v9.173h5.013v6.133h-5.013v21.013h-6.294v-21.013h-5.013zm38.19 5.28h-10.613q-.693 0-1.173.267-.427.213-.747.64-.32.426-.48.96-.16.48-.16.96 0 1.013.64 1.866.693.8 1.653.8h5.974q1.866 0 3.253.64 1.44.64 2.347 1.76.96 1.12 1.386 2.667.48 1.547.48 3.307v.16q0 1.76-.586 3.2-.534 1.44-1.547 2.453t-2.4 1.6q-1.387.587-2.933.587h-12.907v-5.28h11.093q1.226 0 2.24-.694 1.066-.693 1.12-2.08v.054q0-.8-.32-1.334-.267-.533-.747-.853-.48-.373-1.067-.533t-1.226-.16h-4.8q-2.347 0-3.894-.747-1.493-.747-2.4-1.92-.853-1.173-1.173-2.667t-.32-3.04q0-1.6.48-3.093t1.387-2.613q.96-1.174 2.346-1.814t3.147-.64h11.947zm55.3 21.87h-6.027l-5.173-17.12-5.067 17.12h-5.973l-8.213-27.147h5.92l5.226 17.227 5.067-17.227h5.973l5.174 17.12 5.12-17.12h5.92zm21.4-21.07q-1.387 0-2.293.373-.854.32-1.334.907-.48.587-.693 1.44-.16.8-.16 1.76v16.587h-5.973v-36.32h5.973v9.76q.8-.267 1.653-.427.907-.16 1.92-.16h3.2q2.347 0 4.107.8 1.813.8 2.987 2.134 1.226 1.28 1.813 2.986.587 1.654.587 3.36v17.867h-6.027V623.82q0-.96-.16-1.76-.16-.853-.693-1.44-.48-.586-1.334-.906-.853-.374-2.24-.374zm22.3 21.07h-6.293v-27.147h6.293zm0-30.08h-6.293v-6.24h6.293zm20.1-.54h-1.92q-1.813 0-2.933 1.12t-1.12 2.88v1.173h5.973v6.134h-5.973v19.36h-5.6v-19.36h-4.854v-6.134h4.854v-.906q0-2.294.64-4.107.64-1.867 1.866-3.147 1.28-1.28 3.04-1.973 1.814-.747 4.107-.747h1.92zm19.5 0h-1.92q-1.813 0-2.933 1.12t-1.12 2.88v1.173h5.973v6.134h-5.973v19.36h-5.6v-19.36h-4.854v-6.134h4.854v-.906q0-2.294.64-4.107.64-1.867 1.866-3.147 1.28-1.28 3.04-1.973 1.814-.747 4.107-.747h1.92zm4.1 31.84v-6.133h6.347v6.133z"/></g><g transform="matrix(1.00887 0 0 .96506 -554.492 -549.71)" clip-path="url(#f)" style="font-feature-settings:normal;font-variant-caps:normal;font-variant-ligatures:normal;font-variant-numeric:normal" aria-label="To aid you in your quest, I bestow upon you power mystical. Utter the word &quot;Ditto&quot; and find yourself a clone just like you."><path d="M559.6 749.92h4.934v.664h-2.07v5.168h-.794v-5.168h-2.07z"/><path d="M565.61 751.88q-.578 0-.914.453-.336.45-.336 1.235 0 .785.332 1.238.336.449.918.449.574 0 .91-.453.336-.453.336-1.234 0-.778-.336-1.231-.336-.457-.91-.457zm0-.61q.938 0 1.473.61.535.61.535 1.688 0 1.074-.535 1.687-.536.61-1.473.61-.941 0-1.477-.61-.53-.613-.53-1.688 0-1.078.53-1.687.536-.61 1.477-.61zm7.73 2.28q-.871 0-1.207.2-.336.198-.336.679 0 .383.25.61.254.222.688.222.597 0 .957-.422.363-.426.363-1.129v-.16zm1.434-.297v2.496h-.72v-.664q-.245.399-.612.59-.368.187-.899.187-.672 0-1.07-.375-.395-.378-.395-1.011 0-.738.492-1.114.497-.375 1.477-.375h1.008v-.07q0-.496-.328-.765-.324-.274-.914-.274-.375 0-.73.09-.356.09-.684.27v-.665q.394-.152.765-.226.371-.078.723-.078.95 0 1.418.492.469.492.469 1.492zm1.476-1.883h.719v4.375h-.719zm0-1.703h.719v.91h-.719zm5.1 2.373v-2.367h.719v6.078h-.719v-.656q-.227.39-.574.582-.344.187-.828.187-.793 0-1.293-.633-.496-.632-.496-1.664t.496-1.664q.5-.633 1.293-.633.484 0 .828.192.347.187.574.578zm-2.45 1.527q0 .793.325 1.246.328.45.898.45t.899-.45q.328-.453.328-1.246t-.328-1.242q-.328-.453-.899-.453t-.898.453q-.324.45-.324 1.242zm9.02 2.583q-.305.781-.594 1.02t-.773.238h-.574v-.602h.421q.297 0 .461-.14.164-.141.364-.664l.129-.329-1.77-4.304h.762l1.367 3.422 1.367-3.422h.762zm4.61-4.27q-.578 0-.914.453-.336.45-.336 1.235 0 .785.332 1.238.336.449.918.449.574 0 .91-.453.336-.453.336-1.234 0-.778-.336-1.231-.336-.457-.91-.457zm0-.61q.938 0 1.473.61.535.61.535 1.688 0 1.074-.535 1.687-.535.61-1.473.61-.941 0-1.477-.61-.53-.613-.53-1.688 0-1.078.53-1.687.536-.61 1.477-.61zm3.12 2.75v-2.648h.719v2.62q0 .622.242.934.242.309.726.309.583 0 .918-.371.34-.371.34-1.012v-2.48h.72v4.375h-.72v-.672q-.261.398-.61.593-.343.192-.8.192-.754 0-1.144-.469-.391-.469-.391-1.371zm7.7-2.65h.719v4.375h-.719zm0-1.703h.719v.91h-.719zm5.85 3.443v2.64h-.719v-2.617q0-.62-.242-.93-.242-.308-.726-.308-.583 0-.918.371-.336.371-.336 1.012v2.473h-.723v-4.375h.723v.68q.257-.395.605-.59.352-.196.809-.196.754 0 1.14.469.387.465.387 1.371zm5.81 3.04q-.305.781-.594 1.02t-.773.238h-.574v-.602h.421q.297 0 .461-.14.164-.141.364-.664l.129-.329-1.77-4.304h.762l1.367 3.422 1.367-3.422h.762zm4.61-4.27q-.578 0-.914.453-.336.45-.336 1.235 0 .785.332 1.238.336.449.918.449.574 0 .91-.453.336-.453.336-1.234 0-.778-.336-1.231-.336-.457-.91-.457zm0-.61q.938 0 1.473.61.535.61.535 1.688 0 1.074-.535 1.687-.535.61-1.473.61-.941 0-1.477-.61-.53-.613-.53-1.688 0-1.078.53-1.687.536-.61 1.477-.61zm3.12 2.75v-2.648h.719v2.62q0 .622.242.934.242.309.726.309.583 0 .918-.371.34-.371.34-1.012v-2.48h.72v4.375h-.72v-.672q-.261.398-.61.593-.343.192-.8.192-.754 0-1.144-.469-.391-.469-.391-1.371zm7.69-1.98q-.121-.07-.266-.102-.14-.035-.312-.035-.61 0-.938.399-.324.394-.324 1.136v2.305h-.723v-4.375h.723v.68q.227-.399.59-.59.363-.195.883-.195.074 0 .164.011.09.008.2.028zm3.74 1.52q0 .793.324 1.246.328.45.899.45.57 0 .898-.45.328-.453.328-1.246t-.328-1.242q-.328-.453-.898-.453-.57 0-.899.453-.324.449-.324 1.242zm2.45 1.527q-.227.391-.575.582-.344.188-.828.188-.793 0-1.293-.633-.496-.633-.496-1.664t.496-1.664q.5-.633 1.293-.633.484 0 .828.192.348.187.574.578v-.664h.719v6.039h-.719zm2.12-1.067v-2.648h.719v2.62q0 .622.242.934.242.309.726.309.583 0 .918-.371.34-.371.34-1.012v-2.48h.72v4.375h-.72v-.672q-.261.398-.61.593-.343.192-.8.192-.754 0-1.144-.469-.391-.469-.391-1.371zm8.9-.64v.352h-3.305q.047.742.446 1.132.402.387 1.117.387.414 0 .8-.101.391-.102.774-.305v.68q-.387.164-.793.25-.406.085-.824.085-1.047 0-1.66-.609-.61-.61-.61-1.648 0-1.075.578-1.703.582-.633 1.567-.633.883 0 1.394.57.516.566.516 1.543zm-.719-.21q-.008-.59-.332-.942-.32-.352-.851-.352-.602 0-.965.34-.36.34-.414.957zm4.689-1.67v.68q-.305-.157-.633-.235-.328-.078-.68-.078-.535 0-.804.164-.266.164-.266.492 0 .25.192.395.191.14.77.27l.245.054q.766.164 1.086.465.324.297.324.832 0 .61-.484.965-.48.355-1.324.355-.352 0-.735-.07-.379-.066-.8-.203v-.742q.398.207.785.312.386.102.765.102.508 0 .782-.172.273-.176.273-.492 0-.293-.2-.45-.194-.156-.862-.3l-.25-.059q-.668-.14-.965-.43-.297-.292-.297-.8 0-.617.437-.953.438-.336 1.243-.336.398 0 .75.058t.648.176zm2.09-1.37v1.242h1.48v.559h-1.48v2.375q0 .535.145.687.148.153.597.153h.738v.601h-.738q-.832 0-1.148-.308-.317-.313-.317-1.133v-2.375h-.527v-.559h.527v-1.242zm2.61 4.63h.824v.672l-.64 1.25h-.504l.32-1.25zm4.94-4.84h.79v5.832h-.79zm8.02 3.64q0-.793-.328-1.242-.324-.453-.895-.453-.57 0-.898.453-.324.449-.324 1.242t.324 1.246q.328.45.898.45.57 0 .895-.45.328-.453.328-1.246zm-2.445-1.527q.226-.39.57-.578.348-.192.828-.192.797 0 1.293.633.5.633.5 1.664t-.5 1.664q-.496.633-1.293.633-.48 0-.828-.188-.344-.19-.57-.582v.657h-.723v-6.078h.723zm8.125 1.347v.352h-3.305q.047.742.446 1.132.402.387 1.117.387.414 0 .8-.101.391-.102.774-.305v.68q-.387.164-.793.25-.406.085-.824.085-1.047 0-1.66-.609-.61-.61-.61-1.648 0-1.075.578-1.703.582-.633 1.567-.633.883 0 1.394.57.516.566.516 1.543zm-.719-.21q-.008-.59-.332-.942-.32-.352-.851-.352-.602 0-.965.34-.36.34-.414.957zm4.689-1.67v.68q-.305-.157-.633-.235-.328-.078-.68-.078-.535 0-.804.164-.266.164-.266.492 0 .25.192.395.191.14.77.27l.245.054q.766.164 1.086.465.324.297.324.832 0 .61-.484.965-.48.355-1.324.355-.352 0-.735-.07-.379-.066-.8-.203v-.742q.398.207.785.312.386.102.765.102.508 0 .782-.172.273-.176.273-.492 0-.293-.2-.45-.194-.156-.862-.3l-.25-.059q-.668-.14-.965-.43-.297-.292-.297-.8 0-.617.437-.953.438-.336 1.243-.336.398 0 .75.058t.648.176zm2.09-1.37v1.242h1.48v.559h-1.48v2.375q0 .535.145.687.148.153.597.153h.738v.601h-.738q-.832 0-1.148-.308-.317-.313-.317-1.133v-2.375h-.527v-.559h.527v-1.242zm4.13 1.75q-.578 0-.914.453-.336.45-.336 1.235 0 .785.332 1.238.336.449.918.449.574 0 .91-.453.336-.453.336-1.234 0-.778-.336-1.231-.336-.457-.91-.457zm0-.61q.938 0 1.473.61.535.61.535 1.688 0 1.074-.535 1.687-.536.61-1.473.61-.941 0-1.477-.61-.53-.613-.53-1.688 0-1.078.53-1.687.536-.61 1.477-.61zm2.77.1h.719l.898 3.414.895-3.414h.847l.899 3.414.894-3.414h.72l-1.145 4.375h-.848l-.941-3.586-.946 3.586h-.847zm9.44 2.65v-2.648h.719v2.62q0 .622.242.934.242.309.727.309.582 0 .917-.371.34-.371.34-1.012v-2.48h.72v4.375h-.72v-.672q-.261.398-.61.593-.343.192-.8.192-.754 0-1.144-.469-.391-.469-.391-1.371zm5.85 1.07v2.32h-.723v-6.039h.723v.664q.227-.39.57-.578.348-.191.828-.191.797 0 1.293.633.5.632.5 1.664t-.5 1.664q-.496.633-1.293.633-.48 0-.828-.188-.343-.191-.57-.582zm2.445-1.527q0-.793-.328-1.243-.324-.453-.894-.453-.57 0-.899.453-.324.45-.324 1.243t.324 1.246q.328.449.899.449.57 0 .894-.45.328-.452.328-1.245zm3.635-1.683q-.578 0-.914.453-.336.45-.336 1.235 0 .785.332 1.238.336.449.918.449.574 0 .91-.453.336-.453.336-1.234 0-.778-.336-1.231-.336-.457-.91-.457zm0-.61q.938 0 1.473.61.535.61.535 1.688 0 1.074-.535 1.687-.535.61-1.473.61-.941 0-1.477-.61-.53-.613-.53-1.688 0-1.078.53-1.687.536-.61 1.477-.61zm6.83 1.84v2.64h-.719v-2.617q0-.62-.242-.93-.242-.308-.726-.308-.583 0-.918.371-.336.371-.336 1.012v2.473h-.723v-4.375h.723v.68q.257-.395.605-.59.352-.196.809-.196.754 0 1.14.469.387.465.387 1.371zm5.81 3.04q-.305.781-.594 1.02t-.773.238h-.574v-.602h.421q.297 0 .461-.14.164-.141.364-.664l.129-.329-1.77-4.304h.762l1.367 3.422 1.367-3.422h.762zm4.61-4.27q-.578 0-.914.453-.336.45-.336 1.235 0 .785.332 1.238.336.449.918.449.574 0 .91-.453.336-.453.336-1.234 0-.778-.336-1.231-.336-.457-.91-.457zm0-.61q.938 0 1.473.61.535.61.535 1.688 0 1.074-.535 1.687-.535.61-1.473.61-.941 0-1.477-.61-.53-.613-.53-1.688 0-1.078.53-1.687.536-.61 1.477-.61zm3.12 2.75v-2.648h.719v2.62q0 .622.242.934.242.309.726.309.583 0 .918-.371.34-.371.34-1.012v-2.48h.72v4.375h-.72v-.672q-.261.398-.61.593-.343.192-.8.192-.754 0-1.144-.469-.391-.469-.391-1.371zm8.39 1.07v2.32h-.723v-6.039h.723v.664q.227-.39.57-.578.348-.191.828-.191.797 0 1.293.633.5.632.5 1.664t-.5 1.664q-.496.633-1.293.633-.48 0-.828-.188-.343-.191-.57-.582zm2.445-1.527q0-.793-.328-1.243-.324-.453-.894-.453-.57 0-.899.453-.324.45-.324 1.243t.324 1.246q.328.449.899.449.57 0 .894-.45.328-.452.328-1.245zm3.635-1.683q-.578 0-.914.453-.336.45-.336 1.235 0 .785.332 1.238.336.449.918.449.574 0 .91-.453.336-.453.336-1.234 0-.778-.336-1.231-.336-.457-.91-.457zm0-.61q.938 0 1.473.61.535.61.535 1.688 0 1.074-.535 1.687-.535.61-1.473.61-.941 0-1.477-.61-.53-.613-.53-1.688 0-1.078.53-1.687.536-.61 1.477-.61zm2.78.1h.719l.898 3.414.895-3.414h.847l.899 3.414.894-3.414h.72l-1.145 4.375h-.848l-.941-3.586-.946 3.586h-.847zm10.71 2.01v.352h-3.305q.047.742.446 1.132.402.387 1.117.387.414 0 .8-.101.391-.102.774-.305v.68q-.387.164-.793.25-.406.085-.824.085-1.047 0-1.66-.609-.61-.61-.61-1.648 0-1.075.578-1.703.582-.633 1.567-.633.883 0 1.394.57.516.566.516 1.543zm-.719-.21q-.008-.59-.332-.942-.32-.352-.851-.352-.602 0-.965.34-.36.34-.414.957zm4.429-1.13q-.121-.07-.266-.102-.14-.035-.312-.035-.61 0-.938.399-.324.394-.324 1.136v2.305h-.722v-4.375h.722v.68q.227-.399.59-.59.363-.195.883-.195.074 0 .164.011.09.008.2.028zm6.72.17q.27-.484.645-.715t.882-.23q.684 0 1.055.48.371.477.371 1.36v2.64h-.723v-2.617q0-.629-.222-.934-.223-.304-.68-.304-.558 0-.883.37-.324.372-.324 1.012v2.473h-.723v-2.617q0-.633-.222-.934-.223-.304-.688-.304-.55 0-.875.375-.324.37-.324 1.007v2.473h-.723v-4.375h.723v.68q.246-.402.59-.594.344-.191.816-.191.477 0 .809.242.336.242.496.703zm6.21 3.94q-.305.781-.594 1.02-.289.238-.773.238h-.574v-.602h.421q.297 0 .461-.14.164-.141.364-.664l.129-.329-1.77-4.304h.762l1.367 3.422 1.367-3.422h.762zm5.7-4.65v.68q-.305-.157-.633-.235-.328-.078-.68-.078-.535 0-.804.164-.266.164-.266.492 0 .25.192.395.191.14.77.27l.245.054q.766.164 1.086.465.324.297.324.832 0 .61-.484.965-.48.355-1.324.355-.352 0-.735-.07-.379-.066-.8-.203v-.742q.398.207.785.312.386.102.765.102.508 0 .782-.172.273-.176.273-.492 0-.293-.2-.45-.194-.156-.862-.3l-.25-.059q-.668-.14-.965-.43-.297-.292-.297-.8 0-.617.437-.953.438-.336 1.243-.336.398 0 .75.058t.648.176zm2.09-1.37v1.242h1.48v.559h-1.48v2.375q0 .535.145.687.148.153.597.153h.738v.601h-.738q-.832 0-1.148-.308-.317-.313-.317-1.133v-2.375h-.527v-.559h.527v-1.242zm2.43 1.24h.719v4.375h-.719zm0-1.703h.719v.91h-.719zm5.37 1.873v.672q-.305-.168-.613-.25-.305-.086-.617-.086-.7 0-1.086.445-.387.442-.387 1.242t.387 1.247q.386.441 1.086.441.312 0 .617-.082.308-.086.613-.254v.664q-.3.14-.625.211-.32.07-.684.07-.988 0-1.57-.62-.582-.622-.582-1.677 0-1.07.586-1.683.59-.613 1.613-.613.332 0 .649.07.316.066.613.203zm3.25 2.01q-.871 0-1.207.2-.336.198-.336.679 0 .383.25.61.254.222.688.222.597 0 .957-.422.363-.426.363-1.129v-.16zm1.434-.297v2.496h-.72v-.664q-.245.399-.612.59-.368.187-.899.187-.672 0-1.07-.375-.395-.378-.395-1.011 0-.738.492-1.114.497-.375 1.477-.375h1.008v-.07q0-.496-.328-.765-.324-.274-.914-.274-.375 0-.73.09-.356.09-.684.27v-.665q.394-.152.765-.226.371-.078.723-.078.95 0 1.418.492.469.492.469 1.492zM796 749.67h.719v6.078H796zm2.32 5.09h.824v.992h-.824zm4.94-4.84h.793v3.543q0 .938.34 1.352.34.41 1.101.41.758 0 1.098-.41.34-.414.34-1.352v-3.543h.793v3.64q0 1.141-.567 1.723-.562.582-1.664.582-1.105 0-1.672-.582-.562-.582-.562-1.722zm6.63.21v1.242h1.48v.559h-1.48v2.375q0 .535.145.687.148.153.597.153h.738v.601h-.738q-.832 0-1.148-.308-.317-.313-.317-1.133v-2.375h-.527v-.559h.527v-1.242zm3.14 0v1.242h1.48v.559h-1.48v2.375q0 .535.145.687.148.153.597.153h.738v.601h-.738q-.832 0-1.148-.308-.317-.313-.317-1.133v-2.375h-.527v-.559h.527v-1.242zm6.17 3.25v.352h-3.305q.047.742.446 1.132.402.387 1.117.387.414 0 .8-.101.391-.102.774-.305v.68q-.387.164-.793.25-.406.085-.824.085-1.047 0-1.66-.609-.61-.61-.61-1.648 0-1.075.578-1.703.582-.633 1.567-.633.883 0 1.394.57.516.566.516 1.543zm-.719-.21q-.008-.59-.332-.942-.32-.352-.851-.352-.602 0-.965.34-.36.34-.414.957zm4.429-1.13q-.121-.07-.266-.102-.14-.035-.312-.035-.61 0-.938.399-.324.394-.324 1.136v2.305h-.723v-4.375h.723v.68q.227-.399.59-.59.363-.195.883-.195.074 0 .164.011.09.008.2.028zm4.02-1.91v1.242h1.48v.559h-1.48v2.375q0 .535.145.687.148.153.597.153h.738v.601h-.738q-.832 0-1.148-.308-.317-.313-.317-1.133v-2.375h-.527v-.559h.527v-1.242zm6.07 2.98v2.64h-.719v-2.617q0-.62-.242-.93-.242-.308-.727-.308-.582 0-.917.371-.336.371-.336 1.012v2.473h-.723v-6.078h.723v2.382q.257-.394.605-.59.352-.195.809-.195.754 0 1.14.469.387.465.387 1.371zm5.18.27v.352h-3.305q.047.742.446 1.132.402.387 1.117.387.414 0 .8-.101.391-.102.774-.305v.68q-.387.164-.793.25-.406.085-.824.085-1.047 0-1.66-.609-.61-.61-.61-1.648 0-1.075.578-1.703.582-.633 1.567-.633.883 0 1.394.57.516.566.516 1.543zm-.719-.21q-.008-.59-.332-.942-.32-.352-.851-.352-.602 0-.965.34-.36.34-.414.957zm4.029-1.8h.719l.898 3.414.895-3.414h.847l.899 3.414.894-3.414h.72l-1.145 4.375h-.848l-.941-3.586-.946 3.586h-.847zm8.66.51q-.578 0-.914.453-.336.45-.336 1.235 0 .785.332 1.238.336.449.918.449.574 0 .91-.453.336-.453.336-1.234 0-.778-.336-1.231-.336-.457-.91-.457zm0-.61q.938 0 1.473.61.535.61.535 1.688 0 1.074-.535 1.687-.535.61-1.473.61-.941 0-1.477-.61-.53-.613-.53-1.688 0-1.078.53-1.687.536-.61 1.477-.61zm5.73.77q-.121-.07-.266-.102-.14-.035-.312-.035-.61 0-.938.399-.324.394-.324 1.136v2.305h-.722v-4.375h.722v.68q.227-.399.59-.59.363-.195.883-.195.074 0 .164.011.09.008.2.028zm3.5 0v-2.367h.719v6.078h-.719v-.656q-.227.39-.574.582-.344.187-.828.187-.793 0-1.293-.633-.496-.632-.496-1.664t.496-1.664q.5-.633 1.293-.633.484 0 .828.192.347.187.574.578zm-2.45 1.527q0 .793.325 1.246.328.45.898.45t.899-.45q.328-.453.328-1.246t-.328-1.242q-.328-.453-.899-.453t-.898.453q-.324.45-.324 1.242zm7.88-3.647v2.168h-.664v-2.168zm1.477 0v2.168h-.664v-2.168zm2.353.64v4.535h.953q1.207 0 1.766-.547.562-.547.562-1.726 0-1.172-.562-1.715-.559-.547-1.766-.547zm-.79-.648h1.622q1.695 0 2.488.707.793.703.793 2.203 0 1.507-.797 2.214-.796.708-2.484.708h-1.621zm6.12 1.458h.719v4.375h-.719zm0-1.703h.719v.91h-.719zm2.93.463v1.242h1.48v.559h-1.48v2.375q0 .535.145.687.148.153.597.153h.738v.601h-.738q-.832 0-1.148-.308-.317-.313-.317-1.133v-2.375h-.527v-.559h.527v-1.242zm3.14 0v1.242h1.48v.559h-1.48v2.375q0 .535.145.687.148.153.597.153h.738v.601h-.738q-.832 0-1.148-.308-.317-.313-.317-1.133v-2.375h-.527v-.559h.527v-1.242zm4.13 1.75q-.578 0-.914.453-.336.45-.336 1.235 0 .785.332 1.238.336.449.918.449.574 0 .91-.453.336-.453.336-1.234 0-.778-.336-1.231-.336-.457-.91-.457zm0-.61q.938 0 1.473.61.535.61.535 1.688 0 1.074-.535 1.687-.536.61-1.473.61-.941 0-1.477-.61-.53-.613-.53-1.688 0-1.078.53-1.687.536-.61 1.477-.61zm3.87-1.35v2.168h-.664v-2.168zm1.477 0v2.168h-.664v-2.168zm6.073 3.63q-.871 0-1.207.2-.336.198-.336.679 0 .383.25.61.254.222.688.222.597 0 .957-.422.363-.426.363-1.129v-.16zm1.434-.297v2.496h-.72v-.664q-.245.399-.612.59-.368.187-.899.187-.672 0-1.07-.375-.395-.378-.395-1.011 0-.738.492-1.114.497-.375 1.477-.375h1.008v-.07q0-.496-.328-.765-.324-.274-.914-.274-.375 0-.73.09-.356.09-.684.27v-.665q.394-.152.765-.226.371-.078.723-.078.95 0 1.418.492.469.492.469 1.492zm5.116-.143v2.64h-.719v-2.617q0-.62-.242-.93-.242-.308-.726-.308-.583 0-.918.371-.336.371-.336 1.012v2.473h-.723v-4.375h.723v.68q.257-.395.605-.59.352-.196.809-.196.754 0 1.14.469.387.465.387 1.371zm4.32-1.07v-2.367h.719v6.078h-.719v-.656q-.227.39-.574.582-.344.187-.828.187-.793 0-1.293-.633-.496-.632-.496-1.664t.496-1.664q.5-.633 1.293-.633.484 0 .828.192.347.187.574.578zm-2.45 1.527q0 .793.325 1.246.328.45.898.45.57 0 .899-.45.328-.453.328-1.246t-.328-1.242q-.328-.453-.899-.453-.57 0-.898.453-.324.45-.324 1.242zm10.73-2.197v4.375h-.723v-3.816h-1.972v3.816h-.723v-3.816h-.688v-.559h.688v-.305q0-.715.336-1.054.34-.344 1.039-.344h.723v.598h-.688q-.387 0-.539.156-.148.156-.148.562v.387zm-.723-1.695h.723v.91h-.723zm5.873 3.435v2.64h-.719v-2.617q0-.62-.242-.93-.242-.308-.726-.308-.583 0-.918.371-.336.371-.336 1.012v2.473h-.723v-4.375h.723v.68q.257-.395.605-.59.352-.196.809-.196.754 0 1.14.469.387.465.387 1.371zm4.32-1.07v-2.367h.719v6.078h-.719v-.656q-.227.39-.574.582-.344.187-.828.187-.793 0-1.293-.633-.496-.632-.496-1.664t.496-1.664q.5-.633 1.293-.633.484 0 .828.192.347.187.574.578zm-2.45 1.527q0 .793.325 1.246.328.45.898.45.57 0 .899-.45.328-.453.328-1.246t-.328-1.242q-.328-.453-.899-.453-.57 0-.898.453-.324.45-.324 1.242zm9.02 2.583q-.305.781-.594 1.02-.289.238-.773.238h-.574v-.602h.421q.297 0 .461-.14.164-.141.364-.664l.129-.329-1.77-4.304h.762l1.367 3.422 1.367-3.422h.762zm4.61-4.27q-.578 0-.914.453-.336.45-.336 1.235 0 .785.332 1.238.336.449.918.449.574 0 .91-.453.336-.453.336-1.234 0-.778-.336-1.231-.336-.457-.91-.457zm0-.61q.938 0 1.473.61.535.61.535 1.688 0 1.074-.535 1.687-.536.61-1.473.61-.941 0-1.477-.61-.53-.613-.53-1.688 0-1.078.53-1.687.536-.61 1.477-.61zm3.12 2.75v-2.648h.719v2.62q0 .622.242.934.242.309.727.309.582 0 .917-.371.34-.371.34-1.012v-2.48h.72v4.375h-.72v-.672q-.261.398-.61.593-.343.192-.8.192-.754 0-1.144-.469-.391-.469-.391-1.371zm7.69-1.98q-.121-.07-.266-.102-.14-.035-.312-.035-.61 0-.938.399-.324.394-.324 1.136v2.305h-.722v-4.375h.722v.68q.227-.399.59-.59.363-.195.883-.195.074 0 .164.011.09.008.2.028zm3.55-.54v.68q-.305-.157-.633-.235-.328-.078-.68-.078-.535 0-.804.164-.266.164-.266.492 0 .25.192.395.191.14.77.27l.245.054q.766.164 1.086.465.324.297.324.832 0 .61-.484.965-.48.355-1.324.355-.352 0-.735-.07-.379-.066-.8-.203v-.742q.398.207.785.312.386.102.765.102.508 0 .782-.172.273-.176.273-.492 0-.293-.2-.45-.194-.156-.862-.3l-.25-.059q-.668-.14-.965-.43-.297-.292-.297-.8 0-.617.437-.953.438-.336 1.243-.336.398 0 .75.058.351.059.648.176zm5.12 1.88v.352h-3.305q.047.742.446 1.132.402.387 1.117.387.414 0 .8-.101.391-.102.774-.305v.68q-.387.164-.793.25-.406.085-.824.085-1.047 0-1.66-.609-.61-.61-.61-1.648 0-1.075.578-1.703.582-.633 1.567-.633.883 0 1.394.57.516.566.516 1.543zm-.719-.21q-.008-.59-.332-.942-.32-.352-.851-.352-.602 0-.965.34-.36.34-.414.957zm1.899-3.5h.719v6.078h-.719zm4.43 0v.598h-.688q-.386 0-.539.156-.148.156-.148.562v.387h1.184v.559h-1.184v3.816h-.723v-3.816h-.687v-.559h.687v-.305q0-.73.34-1.062.34-.336 1.078-.336zm5.14 3.88q-.871 0-1.207.2-.336.198-.336.679 0 .383.25.61.254.222.688.222.597 0 .957-.422.363-.426.363-1.129v-.16zm1.434-.297v2.496h-.72v-.664q-.245.399-.612.59-.368.187-.899.187-.672 0-1.07-.375-.395-.378-.395-1.011 0-.738.492-1.114.497-.375 1.477-.375h1.008v-.07q0-.496-.328-.765-.324-.274-.914-.274-.375 0-.73.09-.356.09-.684.27v-.665q.394-.152.765-.226.371-.078.723-.078.95 0 1.418.492.469.492.469 1.492zm7.176-1.713v.672q-.305-.168-.613-.25-.305-.086-.617-.086-.7 0-1.086.445-.387.442-.387 1.242t.387 1.247q.386.441 1.086.441.312 0 .617-.082.308-.086.613-.254v.664q-.3.14-.625.211-.32.07-.684.07-.988 0-1.57-.62-.582-.622-.582-1.677 0-1.07.586-1.683.59-.613 1.613-.613.332 0 .649.07.316.066.613.203zm1.26-1.87h.719v6.078h-.719zm3.91 2.21q-.578 0-.914.453-.336.45-.336 1.235 0 .785.332 1.238.336.449.918.449.574 0 .91-.453.336-.453.336-1.234 0-.778-.336-1.231-.336-.457-.91-.457zm0-.61q.938 0 1.473.61.535.61.535 1.688 0 1.074-.535 1.687-.535.61-1.473.61-.941 0-1.477-.61-.53-.613-.53-1.688 0-1.078.53-1.687.536-.61 1.477-.61zm6.83 1.84v2.64h-.719v-2.617q0-.62-.242-.93-.242-.308-.726-.308-.583 0-.918.371-.336.371-.336 1.012v2.473h-.723v-4.375h.723v.68q.257-.395.605-.59.352-.196.809-.196.754 0 1.14.469.387.465.387 1.371zm5.19.27v.352h-3.305q.047.742.446 1.132.402.387 1.117.387.414 0 .8-.101.391-.102.774-.305v.68q-.387.164-.793.25-.406.085-.824.085-1.047 0-1.66-.609-.61-.61-.61-1.648 0-1.075.578-1.703.582-.633 1.567-.633.883 0 1.394.57.516.566.516 1.543zm-.719-.21q-.008-.59-.332-.942-.32-.352-.851-.352-.602 0-.965.34-.36.34-.414.957zm4.439-1.8h.719v4.453q0 .836-.32 1.211-.317.375-1.024.375h-.273v-.61h.191q.41 0 .559-.19.148-.188.148-.786zm0-1.703h.719v.91h-.719zm2.15 4.353v-2.648h.719v2.62q0 .622.242.934.242.309.727.309.582 0 .917-.371.34-.371.34-1.012v-2.48h.719v4.375h-.719v-.672q-.261.398-.61.593-.343.192-.8.192-.754 0-1.144-.469-.391-.469-.391-1.371zm7.91-2.52v.68q-.305-.157-.633-.235-.328-.078-.68-.078-.535 0-.804.164-.266.164-.266.492 0 .25.192.395.191.14.77.27l.245.054q.766.164 1.086.465.324.297.324.832 0 .61-.484.965-.48.355-1.324.355-.352 0-.735-.07-.378-.066-.8-.203v-.742q.398.207.785.312.387.102.765.102.508 0 .782-.172.273-.176.273-.492 0-.293-.2-.45-.194-.156-.862-.3l-.25-.059q-.668-.14-.965-.43-.297-.292-.297-.8 0-.617.437-.953.438-.336 1.243-.336.398 0 .75.058.351.059.648.176zm2.1-1.37v1.242h1.48v.559h-1.48v2.375q0 .535.144.687.149.153.598.153h.738v.601h-.738q-.832 0-1.148-.308-.317-.313-.317-1.133v-2.375h-.527v-.559h.527v-1.242zm5-.46h.719v6.078h-.719zm2.2 1.7h.719v4.375h-.719zm0-1.703h.719v.91h-.719zm2.2.003h.723v3.59l2.144-1.887h.918l-2.32 2.047 2.418 2.328h-.938l-2.222-2.137v2.137h-.723zm8.1 3.71v.352h-3.305q.047.742.446 1.132.402.387 1.117.387.414 0 .8-.101.391-.102.774-.305v.68q-.387.164-.793.25-.406.085-.824.085-1.047 0-1.66-.609-.61-.61-.61-1.648 0-1.075.578-1.703.582-.633 1.567-.633.883 0 1.394.57.516.566.516 1.543zm-.719-.21q-.01-.59-.332-.942-.32-.352-.851-.352-.602 0-.965.34-.36.34-.414.957zm6.319 2.98q-.305.781-.594 1.02-.289.238-.773.238h-.574v-.602h.422q.296 0 .46-.14.165-.141.364-.664l.129-.329-1.77-4.304h.762l1.367 3.422 1.367-3.422h.762zm4.6-4.27q-.578 0-.914.453-.336.45-.336 1.235 0 .785.332 1.238.336.449.918.449.574 0 .91-.453.336-.453.336-1.234 0-.778-.336-1.231-.336-.457-.91-.457zm0-.61q.938 0 1.473.61.535.61.535 1.688 0 1.074-.535 1.687-.535.61-1.473.61-.941 0-1.477-.61-.53-.613-.53-1.688 0-1.078.53-1.687.536-.61 1.477-.61zm3.1 2.75v-2.648h.719v2.62q0 .622.242.934.242.309.726.309.582 0 .918-.371.34-.371.34-1.012v-2.48h.72v4.375h-.72v-.672q-.261.398-.61.593-.343.192-.8.192-.754 0-1.144-.469t-.391-1.371zm5.3.74h.824v.992h-.824z"/></g><g transform="translate(-244.74 -83.893) scale(.64172)" clip-path="url(#g)" style="font-feature-settings:normal;font-variant-caps:normal;font-variant-ligatures:normal;font-variant-numeric:normal" aria-label="ROTTERDAM"><path d="M685.94 237.27v11h-5.08v-27.24h11.68q1.56 0 2.92.6 1.36.56 2.32 1.56 1 1 1.56 2.36.6 1.36.6 2.88v1.2q0 1.52-.6 2.88-.56 1.32-1.56 2.36-.96 1-2.32 1.56t-2.92.56h-1.36l9.24 11.28h-5.8zm0-11.48v6.44h5.8q1.72 0 2.52-.84t.8-2.36q0-1.44-.8-2.32-.8-.92-2.52-.92zm28.26-4.76q1.6 0 3.04.64 1.44.6 2.52 1.68t1.68 2.56q.64 1.44.64 3.08v11.36q0 1.64-.64 3.08-.6 1.44-1.68 2.52t-2.52 1.72q-1.44.6-3.04.6h-3.12q-1.64 0-3.08-.6-1.44-.64-2.52-1.72-1.04-1.08-1.68-2.52t-.64-3.08v-11.36q0-1.64.64-3.08.64-1.48 1.68-2.56 1.08-1.08 2.52-1.68 1.44-.64 3.08-.64zm3 8.2q0-1.44-.84-2.44-.8-1-2.2-1h-3.04q-1.4 0-2.24 1-.8 1-.8 2.44v10.84q0 1.44.8 2.48.84 1 2.24 1h3.04q1.4 0 2.2-1 .84-1.04.84-2.48zm14.38-3.16h-6.96v-5.04h18.88v5.04h-7.04v22.2h-4.88zm20.23 0h-6.96v-5.04h18.88v5.04h-7.04v22.2h-4.88zm19.76 17.6h13.56v4.6h-18.72v-27.24h18.72v4.6h-13.56v6.72h13.56v4.56h-13.56zm22.73-6.4v11h-5.08v-27.24h11.68q1.56 0 2.92.6 1.36.56 2.32 1.56 1 1 1.56 2.36.6 1.36.6 2.88v1.2q0 1.52-.6 2.88-.56 1.32-1.56 2.36-.96 1-2.32 1.56t-2.92.56h-1.36l9.24 11.28h-5.8zm0-11.48v6.44h5.8q1.72 0 2.52-.84t.8-2.36q0-1.44-.8-2.32-.8-.92-2.52-.92zm17.58-4.76h12.44q1.32 0 2.48.56 1.2.56 2.08 1.56t1.36 2.32q.52 1.28.52 2.76v12.84q0 1.52-.52 2.8-.48 1.28-1.36 2.28t-2.08 1.56q-1.16.56-2.48.56h-12.44zm11.2 22.2q.6 0 1.08-.24t.84-.64q.4-.4.6-.92.2-.56.2-1.2v-11.2q0-.6-.2-1.12-.2-.56-.6-.96-.36-.44-.84-.68t-1.08-.24h-6.2v17.2zm23.77.88h-7.32l-1 4.16h-4.84l7-27.24h5.2l6.72 27.24h-4.8zm-6.36-4.04h5.44l-2.52-11.12h-.28zm25.61.64h.28q1.08-4.92 2.16-9.8 1.12-4.92 2.2-9.84h5.72v27.2h-3.92v-17.68h-.24q-.96 4.44-2 8.88-1.04 4.4-1.96 8.8l-4.36.04-3.72-17.68h-.28v17.64h-3.96v-27.2h5.72z"/></g></svg>