<svg xmlns="http://www.w3.org/2000/svg" preserveAspectRatio="none" viewBox="0 0 508 285.75"><path fill="#fff" d="M-4.536-1.512h520.85v313.72H-4.536z"/><g fill-rule="evenodd" stroke-width="1.167"><path fill="#667220" d="M-17.965 24.575c7.616 16.552 24.596 33.131 30.633 19.12 15.962 12.36 27.568 15.712 43.48 17.292 13.252 1.315 22.256 6.681 19.442-6.95 23.033 6.216 19.02 5.67 22.46-15.43 28.617 4.5 15.272-11.409 9.092-21.26 18.374-3.345 15.237-8.444 6.208-18.07 23.22-7.085-3.333-21.43-17.922-25.333 20.828-9.39 2.255-16.633-14.737-18.15-17.036-1.518-35.07 7.573-50.922 12.6C45.435-51.6 29.28-46.67 13.767-37.475-8.87-24.058-16.774-2.498-29.272 18.404l11.304 6.173"/><path fill="#585f1f" d="M-17.415 25.666c7.84 16.18 24.216 31.75 30.123 18.042 8.713 6.748 16.13 10.81 23.655 13.367l.002-.001C42.627 59.2 48.96 60.284 56.188 61c13.252 1.315 22.256 6.681 19.442-6.95 23.033 6.216 19.02 5.67 22.46-15.43 28.617 4.5 15.272-11.409 9.092-21.26 18.374-3.345 15.237-8.444 6.208-18.07 8.89-2.713 10.48-6.492 8.242-10.34-2 6.158-5 6.974-15.278 7.389 4.801 3.541 6.126 7.037-2.36 7.368 6.627 13.102-7.432 12.102-14.768 10.52 7.093 13.134-.231 19.81-14.152 11.217C60.537 68.558 34.169-2.05 38.674-7.201c-17.287 28.13-28.35 40.866-56.09 32.868"/><path fill="#667220" d="M73.714 24.575c7.617 16.552 24.596 33.131 30.634 19.12 15.962 12.36 27.567 15.712 43.48 17.292 13.252 1.315 22.255 6.681 19.442-6.95 23.032 6.216 19.02 5.67 22.459-15.43 28.617 4.5 15.272-11.409 9.092-21.26 18.375-3.345 15.237-8.444 6.208-18.07 23.22-7.085-3.333-21.43-17.922-25.333 20.829-9.39 2.255-16.633-14.737-18.15-17.035-1.518-35.07 7.573-50.922 12.6 15.667-19.994-.488-15.064-16.002-5.868-22.635 13.416-30.54 34.976-43.038 55.878l11.304 6.173"/><path fill="#585f1f" d="M74.264 25.666c7.84 16.18 24.217 31.75 30.123 18.042 8.713 6.748 16.13 10.81 23.656 13.367l.001-.001c6.262 2.126 12.596 3.21 19.824 3.927 13.252 1.315 22.255 6.681 19.441-6.95 23.033 6.216 19.021 5.67 22.46-15.43 28.617 4.5 15.272-11.409 9.092-21.26 18.374-3.345 15.237-8.444 6.208-18.07 8.89-2.713 10.48-6.492 8.243-10.34-2 6.158-5 6.974-15.278 7.389 4.8 3.541 6.126 7.037-2.36 7.368 6.626 13.102-7.432 12.102-14.769 10.52 7.094 13.134-.23 19.81-14.152 11.217-14.537 43.113-40.904-27.495-36.4-32.646-17.287 28.13-28.349 40.866-56.09 32.868"/><path fill="#667220" d="M165.49 24.575c7.617 16.552 24.596 33.131 30.634 19.12 15.962 12.36 27.567 15.712 43.48 17.292 13.252 1.315 22.255 6.681 19.441-6.95 23.033 6.216 19.021 5.67 22.46-15.43 28.617 4.5 15.272-11.409 9.092-21.26 18.374-3.345 15.237-8.444 6.208-18.07 23.22-7.085-3.333-21.43-17.922-25.333 20.829-9.39 2.255-16.633-14.737-18.15-17.036-1.518-35.07 7.573-50.922 12.6 15.667-19.994-.488-15.064-16.002-5.868-22.636 13.416-30.541 34.976-43.038 55.878l11.304 6.173"/><path fill="#585f1f" d="M166.04 25.666c7.84 16.18 24.216 31.75 30.123 18.042 8.713 6.748 16.13 10.81 23.655 13.367l.002-.001c6.262 2.126 12.596 3.21 19.823 3.927 13.253 1.315 22.256 6.681 19.442-6.95 23.033 6.216 19.02 5.67 22.46-15.43 28.617 4.5 15.272-11.409 9.092-21.26 18.374-3.345 15.237-8.444 6.208-18.07 8.89-2.713 10.48-6.492 8.242-10.34-2 6.158-4.999 6.974-15.277 7.389 4.8 3.541 6.126 7.037-2.36 7.368 6.626 13.102-7.433 12.102-14.769 10.52 7.094 13.134-.23 19.81-14.152 11.217-14.537 43.113-40.904-27.495-36.4-32.646-17.287 28.13-28.349 40.866-56.09 32.868"/><g><path fill="#667220" d="M257.17 24.575c7.616 16.552 24.596 33.131 30.633 19.12 15.962 12.36 27.567 15.712 43.48 17.292 13.252 1.315 22.256 6.681 19.442-6.95 23.033 6.216 19.02 5.67 22.46-15.43 28.617 4.5 15.272-11.409 9.092-21.26 18.374-3.345 15.237-8.444 6.207-18.07 23.22-7.085-3.333-21.43-17.922-25.333 20.83-9.39 2.256-16.633-14.737-18.15-17.035-1.518-35.07 7.573-50.921 12.6 15.666-19.994-.489-15.064-16.002-5.868-22.636 13.416-30.541 34.976-43.039 55.878l11.304 6.173"/><path fill="#585f1f" d="M257.72 25.666c7.839 16.18 24.216 31.75 30.123 18.042 8.712 6.748 16.129 10.81 23.655 13.367l.002-.001c6.261 2.126 12.596 3.21 19.823 3.927 13.252 1.315 22.256 6.681 19.442-6.95 23.033 6.216 19.02 5.67 22.46-15.43 28.617 4.5 15.271-11.409 9.092-21.26 18.374-3.345 15.236-8.444 6.207-18.07 8.89-2.713 10.48-6.492 8.243-10.34-2 6.158-5 6.974-15.278 7.389 4.8 3.541 6.126 7.037-2.36 7.368 6.627 13.102-7.432 12.102-14.768 10.52 7.093 13.134-.231 19.81-14.153 11.217C335.672 68.558 309.304-2.05 313.81-7.201c-17.287 28.13-28.35 40.866-56.09 32.868"/></g><g><path fill="#667220" d="M348.946 24.575c7.616 16.552 24.596 33.131 30.633 19.12 15.962 12.36 27.567 15.712 43.48 17.292 13.252 1.315 22.255 6.681 19.442-6.95 23.032 6.216 19.02 5.67 22.46-15.43 28.617 4.5 15.271-11.409 9.091-21.26 18.375-3.345 15.237-8.444 6.208-18.07 23.22-7.085-3.333-21.43-17.922-25.333 20.829-9.39 2.255-16.633-14.737-18.15-17.035-1.518-35.07 7.573-50.921 12.6 15.666-19.994-.489-15.064-16.002-5.868-22.636 13.416-30.542 34.976-43.04 55.878l11.305 6.173"/><path fill="#585f1f" d="M349.495 25.666c7.84 16.18 24.217 31.75 30.124 18.042 8.712 6.748 16.129 10.81 23.655 13.367l.001-.001c6.262 2.126 12.597 3.21 19.824 3.927 13.252 1.315 22.255 6.681 19.442-6.95 23.032 6.216 19.02 5.67 22.459-15.43 28.617 4.5 15.272-11.409 9.092-21.26 18.374-3.345 15.237-8.444 6.208-18.07 8.89-2.713 10.48-6.492 8.243-10.34-2 6.158-5 6.974-15.278 7.389 4.8 3.541 6.126 7.037-2.36 7.368 6.627 13.102-7.432 12.102-14.769 10.52 7.094 13.134-.23 19.81-14.152 11.217-14.537 43.113-40.904-27.495-36.4-32.646-17.287 28.13-28.349 40.866-56.09 32.868"/></g><g><path fill="#667220" d="M389.681 24.575c7.617 16.552 24.596 33.131 30.634 19.12 15.962 12.36 27.567 15.712 43.48 17.292 13.252 1.315 22.255 6.681 19.441-6.95 23.033 6.216 19.021 5.67 22.46-15.43 28.617 4.5 15.272-11.409 9.092-21.26 18.374-3.345 15.237-8.444 6.208-18.07 23.22-7.085-3.333-21.43-17.922-25.333 20.829-9.39 2.255-16.633-14.737-18.15-17.036-1.518-35.07 7.573-50.922 12.6 15.667-19.994-.488-15.064-16.002-5.868-22.635 13.416-30.54 34.976-43.038 55.878l11.304 6.173"/><path fill="#585f1f" d="M390.231 25.666c7.84 16.18 24.216 31.75 30.123 18.042 8.713 6.748 16.13 10.81 23.655 13.367l.002-.001c6.262 2.126 12.596 3.21 19.824 3.927 13.252 1.315 22.255 6.681 19.441-6.95 23.033 6.216 19.021 5.67 22.46-15.43 28.617 4.5 15.272-11.409 9.092-21.26 18.374-3.345 15.237-8.444 6.208-18.07 8.89-2.713 10.48-6.492 8.243-10.34-2 6.158-5 6.974-15.278 7.389 4.8 3.541 6.126 7.037-2.36 7.368 6.626 13.102-7.433 12.102-14.769 10.52 7.094 13.134-.23 19.81-14.152 11.217-14.537 43.113-40.904-27.495-36.4-32.646-17.287 28.13-28.349 40.866-56.09 32.868"/></g></g><g stroke-width=".597"><path fill="#914e23" d="M-7.41 288.364h531.8v-9.789H-7.41z"/><path fill="#733d1f" d="M258.51 285.01c-75.812 0-137.264-.269-137.264-.602 0-.332 61.456-.602 137.264-.602 75.812 0 137.268.27 137.268.602 0 .333-61.456.602-137.268.602"/><path fill="#8a4a23" d="M476.034 282.008c0 .253-11.04.458-24.662.458s-24.662-.205-24.662-.458 11.04-.457 24.662-.457 24.662.204 24.662.457M79.152 285.228c0 .253-5.52.457-12.332.457-6.81 0-12.33-.204-12.33-.457 0-.252 5.52-.457 12.33-.457 6.812 0 12.332.205 12.332.457"/><path fill="#78401f" d="M433.992 284.617c0 .105-2.301.19-5.143.19-2.84 0-5.143-.085-5.143-.19 0-.106 2.302-.19 5.143-.19 2.842 0 5.143.084 5.143.19M266.223 281.593c0 .106-2.3.191-5.142.191-2.84 0-5.144-.085-5.144-.19 0-.106 2.303-.191 5.144-.191s5.142.085 5.142.19"/><path fill="#63361c" d="M87.064 282.093c0 .106-1.19.192-2.657.192s-2.659-.086-2.659-.192c0-.106 1.192-.193 2.66-.193 1.466 0 2.656.087 2.656.193"/><path fill="#a05729" d="M128.267 282.514c-1.906 0-3.451-.125-3.451-.28 0-.155 1.545-.28 3.451-.28 1.906 0 3.452.125 3.452.28 0 .155-1.546.28-3.452.28M367.172 281.875c-1.906 0-3.451-.126-3.451-.28 0-.156 1.545-.281 3.451-.281 1.906 0 3.451.125 3.451.28 0 .155-1.545.28-3.45.28"/><path fill="#b56531" d="M487.903 284.04c0 .1-1 .182-2.233.182-1.232 0-2.23-.082-2.23-.182 0-.1.998-.18 2.23-.18 1.234 0 2.233.08 2.233.18M220.224 281.488c0 .094-.778.17-1.74.17-.96 0-1.74-.076-1.74-.17 0-.093.78-.17 1.74-.17.962 0 1.74.077 1.74.17M268.82 286.037c0 .093-.779.169-1.74.169s-1.742-.076-1.742-.17c0-.093.78-.169 1.742-.169s1.74.076 1.74.17"/><path fill="#63361c" d="M402.98 280.377c0 .088-.984.16-2.201.16-1.215 0-2.2-.072-2.2-.16 0-.088.985-.16 2.2-.16 1.217 0 2.2.072 2.2.16M182.978 286.318c0 .106-1.181.192-2.64.192-1.458 0-2.641-.086-2.641-.192 0-.105 1.183-.191 2.64-.191 1.46 0 2.641.086 2.641.191"/></g><g fill-rule="evenodd" stroke-width=".43"><path fill="#9ba22e" d="M-18.648 230.114c.044 16.506.564 33.004 3.205 49.481h-3.422c-.672-16.502-2.017-32.996-3.556-49.49-.279-.072-.447-.161-.454-.258-.023-.256 1.053-.475 2.389-.489 1.336-.014 2.435.18 2.453.435 0 .121-.225.233-.615.32"/><path fill="#877f1b" d="M-19.416 279.59c-.675-16.42-2.012-32.833-3.546-49.245-.28-.072-.446-.162-.452-.26-.024-.203.663-.384 1.615-.456-.156.065-.24.136-.236.21 0 .1.175.19.454.264 1.534 16.492 2.878 32.987 3.575 49.487h-1.41"/><path fill="#9ba740" d="M-25.6 188.404l3.796-.04c-.225 13.754.073 27.502 2.893 41.224l-3.799.041c-.36-13.748-1.516-27.488-2.89-41.225"/><path fill="#877f1b" d="M-25.763 188.311l1.189-.012c1.366 13.67 2.512 27.34 2.87 41.02l2.588-.027c.023.067.028.135.042.203l-3.798.04c-.363-13.747-1.515-27.488-2.89-41.224"/><path fill="#9ba740" d="M-27.018 167.595l3.796-.04c-.701 6.973-.879 13.94 1.465 20.88l-3.797.042c.114-6.968-.565-13.925-1.464-20.882"/><path fill="#877f1b" d="M-27.181 167.549l1.189-.014c.894 6.922 1.564 13.846 1.45 20.778l2.588-.028c0 .035.024.07.033.103l-3.797.042c.114-6.967-.564-13.926-1.464-20.882"/><path fill="#9ba22e" d="M-10.301 229.72c-1.757 16.54-3.038 33.121-2.161 49.875h-3.467c1.153-16.7 1.615-33.457 1.874-50.23-.27-.097-.426-.201-.422-.3 0-.255 1.096-.374 2.43-.266 1.331.108 2.403.403 2.392.659 0 .121-.25.21-.646.261"/><path fill="#877f1b" d="M-16.463 279.59c1.145-16.636 1.604-33.328 1.86-50.038-.269-.098-.424-.202-.421-.3 0-.204.702-.322 1.657-.305-.163.05-.254.113-.257.187 0 .1.154.205.422.304-.265 16.746-.725 33.475-1.847 50.152h-1.414"/><path fill="#9ba740" d="M-12.696 187.59l3.783.308c-1.717 13.665-2.912 27.372-1.595 41.285l-3.784-.308c1.132-13.712 1.474-27.488 1.596-41.285"/><path fill="#877f1b" d="M-12.859 187.474l1.184.097c-.123 13.726-.468 27.435-1.594 41.078l2.578.21c0 .068.023.137.023.206l-3.782-.308c1.13-13.712 1.474-27.488 1.595-41.285"/><path fill="#9ba740" d="M-11.86 166.735l3.783.308c-1.453 6.874-2.387 13.79-.807 20.91l-3.784-.307c.87-6.921.95-13.907.809-20.911"/><path fill="#877f1b" d="M-11.999 166.688l1.185.097c.137 6.969.054 13.92-.81 20.807l2.577.21c0 .036.023.07.023.105l-3.784-.306c.87-6.923.95-13.908.81-20.912"/><path fill="#863a2f" d="M26.178 279.59c-.942-5.946-1.477-11.907-.527-17.92h-.032c-1.359-12.833-2.349-25.68-1.57-38.587l-.14.007c-1.077-6.401-1.773-12.815-.75-19.29h-.032c-1.36-12.833-2.35-25.679-1.571-38.587l-2.672.092v.096h-.117c.95 12.87 1.343 25.757 1.578 38.651h.035c.68 6.476.81 12.97.787 19.469h.112c.936 12.788 1.324 25.595 1.56 38.409h.032c.619 5.876.784 11.769.79 17.666h2.507"/><path fill="#63651e" d="M28.317 184.544c3.039-.721 5.365-2.24 7.202-4.305-2.29-.24-4.575.126-6.854 1.372 1.457-1.32 1.827-2.956 1.702-4.737-1.562.906-3.04 1.952-3.933 3.99.776-2.377.402-4.395-.756-6.167-1.607.938-2.82 2.205-3.163 4.199-.175-2.278-1.346-4.11-3.516-5.497-.997 1.844-1.45 3.769-.693 5.866-.526-.543-1.2-.695-2.018-.46a3.024 3.024 0 0 0-.096.736c-.441-.698-1.008-1.378-1.682-2.043-.304 1.459-.477 2.885.267 4.096-.626-.97-1.794-1.56-3.207-1.975 0 1.432.313 2.73 1.365 3.736-1.259-.95-2.639-1.05-4.053-.91.738 1.367 1.982 2.376 3.73 3.028a10.43 10.43 0 0 0-1.845.02l-.922-.05c.058.05.116.102.172.153-2.235.4-4.13 1.542-5.846 3.08l4.025-.218-1.738 2.057c2.07.698 4.047.948 5.816.214-1.272 1.605-2.028 3.155-1.656 4.585.818.236 1.49.082 2.018-.46-.756 2.098-.305 4.022.693 5.866 2.17-1.387 3.34-3.219 3.515-5.497.345 1.994 1.556 3.261 3.163 4.199.768-1.175 1.191-2.457 1.163-3.881.19-.235.368-.473.53-.711.843 1.072 1.898 1.779 2.997 2.415.126-1.78-.245-3.417-1.702-4.737.825.452 1.654.789 2.482 1.022.598.382 1.26.729 1.975 1.043a21.62 21.62 0 0 0-.093-.684c.829.085 1.658.078 2.49-.01a13.834 13.834 0 0 0-3.462-2.84 4.757 4.757 0 0 0-.455-.582c2.236.87 4.243.121 6.29-.353-1.367-1.417-2.921-2.607-5.153-2.988 2.188.444 4.154-.173 6.02-1.272-1.275-.892-2.656-1.63-4.772-1.3zm-11.083-2.13c.07.105.142.21.214.315-.065.09-.128.18-.188.271 0-.197 0-.392-.028-.586M6.043 161.806c3.039-.722 5.365-2.242 7.202-4.306-2.289-.239-4.575.125-6.854 1.373 1.457-1.32 1.827-2.957 1.703-4.738-1.563.906-3.04 1.952-3.933 3.99.775-2.376.402-4.394-.756-6.167-1.607.938-2.82 2.205-3.164 4.2-.173-2.278-1.346-4.11-3.515-5.498-.998 1.844-1.45 3.768-.694 5.866-.525-.542-1.2-.696-2.018-.46a3.03 3.03 0 0 0-.095.737c-.44-.7-1.008-1.38-1.682-2.043-.304 1.457-.477 2.883.268 4.095-.627-.971-1.795-1.56-3.207-1.974 0 1.43.312 2.728 1.364 3.735-1.259-.948-2.638-1.048-4.053-.91.739 1.368 1.982 2.376 3.731 3.029-.64-.049-1.254-.04-1.845.018l-.925-.05c.06.053.116.104.175.154-2.235.4-4.13 1.542-5.846 3.081l4.024-.219-1.736 2.057c2.07.698 4.047.948 5.815.215-1.272 1.604-2.028 3.154-1.656 4.585.819.235 1.491.083 2.019-.46-.757 2.098-.306 4.021.692 5.865 2.17-1.386 3.341-3.219 3.515-5.496.344 1.993 1.556 3.26 3.163 4.198.768-1.174 1.192-2.457 1.163-3.88a9.5 9.5 0 0 0 .53-.713c.843 1.073 1.899 1.78 2.998 2.417.125-1.781-.246-3.418-1.704-4.738.827.453 1.655.788 2.484 1.022.597.382 1.259.729 1.975 1.043-.028-.23-.058-.457-.093-.684.827.086 1.657.078 2.49-.009a13.85 13.85 0 0 0-3.465-2.842 4.582 4.582 0 0 0-.453-.58c2.237.87 4.243.12 6.289-.353-1.366-1.417-2.92-2.607-5.152-2.988 2.189.442 4.155-.174 6.02-1.273-1.275-.891-2.655-1.63-4.771-1.3zm-11.083-2.13l.214.314c-.065.09-.128.18-.188.27 0-.196 0-.39-.028-.584"/><path fill="#4f4c4c" d="M35.338 279.59c-.928-5.891-1.443-11.797-.502-17.753h-.032c-1.359-12.834-2.349-25.68-1.57-38.59l-.14.007c-1.076-6.401-1.775-12.815-.751-19.288h-.03c-1.36-12.834-2.35-25.68-1.572-38.59l-2.672.091v.097h-.117c.951 12.869 1.343 25.756 1.578 38.65h.035c.68 6.476.81 12.97.788 19.47l.11-.007c.936 12.788 1.325 25.596 1.56 38.409h.032c.612 5.822.78 11.659.79 17.5h2.482"/><path fill="#ce942b" d="M27.34 230.905c-.82 16.226-1.273 32.452-.023 48.679h-2.626c.407-16.242.278-32.483 0-48.725-.19-.07-.304-.156-.304-.248 0-.24.763-.433 1.703-.433.942 0 1.704.193 1.704.433 0 .113-.17.216-.448.293"/><path fill="#a56110" d="M24.295 279.59c.4-16.167.27-32.336-.024-48.501-.193-.07-.306-.156-.306-.248 0-.192.485-.354 1.16-.412-.114.06-.177.125-.177.196 0 .093.112.18.306.25.279 16.238.41 32.476.024 48.716h-.996"/><path fill="#ce9e47" d="M24.504 191.752h2.673c-.837 12.892-1.307 25.784 0 38.676h-2.673c.422-12.892.29-25.784 0-38.676"/><path fill="#a56110" d="M24.388 191.659h.837c.287 12.828.418 25.656 0 38.486h1.82c0 .064.024.128.024.19h-2.674c.425-12.891.29-25.783 0-38.676"/><path fill="#ce9e47" d="M24.527 172.222h2.674c-.838 6.53-1.308 13.06 0 19.59h-2.674c.422-6.53.29-13.06 0-19.59"/><path fill="#a56110" d="M24.41 172.175h.837c.286 6.498.418 12.997 0 19.494h1.821c0 .033 0 .065.023.098H24.42c.424-6.53.29-13.061 0-19.591"/><path fill="#ce942b" d="M20.063 231.23c.34 16.172 1.042 32.32 3.427 48.367h-2.605c-.758-16.108-2.04-32.184-3.473-48.25-.198-.059-.317-.137-.324-.229-.023-.239.73-.478 1.67-.536.94-.056 1.715.092 1.73.33 0 .112-.153.226-.425.32"/><path fill="#a56110" d="M20.505 279.59c-.76-16.025-2.036-32.02-3.461-48.004-.198-.059-.316-.138-.325-.229-.023-.19.46-.382 1.128-.48-.109.065-.167.135-.162.205 0 .093.125.173.323.232 1.428 16.076 2.712 32.162 3.489 48.276h-.993"/><path fill="#ce9e47" d="M14.437 192.31l2.667-.16c.086 12.914.54 25.807 2.765 38.592l-2.668.162c-.499-12.89-1.554-25.747-2.764-38.595"/><path fill="#a56110" d="M14.32 192.24l.837-.05c1.203 12.783 2.25 25.575 2.747 38.403l1.817-.111c0 .064.023.127.032.191l-2.669.162c-.498-12.89-1.553-25.747-2.765-38.595"/><path fill="#ce9e47" d="M13.065 172.826l2.667-.162c-.368 6.568-.37 13.112 1.4 19.549l-2.667.162c-.044-6.542-.644-13.05-1.4-19.549"/><path fill="#a56110" d="M12.949 172.78l.836-.05c.751 6.467 1.345 12.943 1.389 19.452l1.818-.11c0 .032.023.064.026.096l-2.67.161c-.044-6.54-.643-13.05-1.4-19.549"/><path fill="#ce942b" d="M34.78 222.512c.343-16.31 1.054-32.6 3.49-48.781.286-.061.465-.153.473-.267.024-.24-.73-.479-1.669-.536-.939-.057-1.714.091-1.732.33 0 .092.1.184.289.266-.753 16.317-2.05 32.601-3.503 48.874-.197.058-.315.136-.321.229-.023.238.73.479 1.669.535.938.058 1.714-.09 1.73-.33 0-.112-.153-.225-.426-.32"/><path fill="#a56110" d="M35.99 172.664c-.6.032-1.024.157-1.037.334 0 .092.1.185.289.266-.754 16.316-2.051 32.601-3.503 48.874-.198.059-.316.137-.322.229-.023.19.458.382 1.127.48-.107-.065-.168-.135-.163-.205 0-.092.128-.173.324-.232 1.467-16.5 2.781-33.012 3.55-49.555-.133-.059-.226-.124-.266-.19"/><path fill="#ce9e47" d="M29.154 261.409l2.666.162c.086-12.915.541-25.808 2.766-38.593l-2.667-.162c-.499 12.89-1.555 25.747-2.765 38.593"/><path fill="#a56110" d="M29.038 261.502l.834.05c1.203-12.783 2.251-25.575 2.747-38.402l1.817.11c0-.064.024-.127.033-.19l-2.669-.161c-.498 12.89-1.552 25.744-2.763 38.592"/><path fill="#ce9e47" d="M30.363 279.59c-.284-6.073-.163-12.122 1.475-18.08l-2.667-.161c-.04 6.103-.567 12.178-1.252 18.241h2.444"/><path fill="#a56110" d="M28.666 279.59c.672-6.001 1.188-12.012 1.228-18.052l1.819.11c0-.032.023-.063.025-.095l-2.667-.162c-.042 6.09-.565 12.15-1.247 18.2h.842"/><path fill="#ce942b" d="M39.267 279.59c.353-15.933 1.087-31.845 3.464-47.655.286-.06.468-.153.475-.267.023-.24-.73-.48-1.67-.536-.939-.056-1.715.091-1.73.33 0 .092.1.184.286.266-.737 15.979-1.996 31.927-3.412 47.863h2.587"/><path fill="#a56110" d="M40.453 230.882c-.598.031-1.024.158-1.035.334 0 .092.1.184.286.267-.74 16.06-2.008 32.087-3.432 48.109h.988c1.432-16.157 2.707-32.322 3.46-48.52-.134-.06-.227-.124-.267-.19"/><path fill="#ce9e47" d="M39.593 230.882l2.667.162c-.368-6.567-.37-13.112 1.4-19.549l-2.667-.162c-.044 6.543-.644 13.05-1.4 19.549"/><path fill="#a56110" d="M39.477 230.928l.835.051c.75-6.466 1.346-12.942 1.388-19.45l1.819.11c0-.033.023-.066.025-.098l-2.667-.161c-.044 6.542-.644 13.05-1.4 19.549"/><path fill="#ce9e47" d="M40.918 210.863l2.67.162c-.37-6.567-.37-13.111 1.4-19.548l-2.668-.162c-.044 6.542-.646 13.05-1.402 19.548"/><path fill="#a56110" d="M40.802 210.91l.837.051c.75-6.467 1.345-12.942 1.388-19.452l1.817.11c0-.032.023-.064.028-.095l-2.669-.162c-.042 6.542-.644 13.05-1.4 19.548"/><path fill="#7d9021" d="M55.868 184.544c3.039-.721 5.363-2.24 7.2-4.305-2.288-.24-4.574.126-6.854 1.372 1.458-1.32 1.828-2.956 1.705-4.737-1.563.906-3.041 1.952-3.935 3.99.775-2.377.404-4.395-.756-6.167-1.607.938-2.82 2.205-3.164 4.199-.174-2.278-1.344-4.11-3.513-5.497-1 1.844-1.45 3.769-.693 5.866-.528-.543-1.2-.695-2.02-.46a3.024 3.024 0 0 0-.096.736c-.44-.698-1.007-1.378-1.68-2.043-.306 1.459-.479 2.885.266 4.096-.627-.97-1.795-1.56-3.207-1.975 0 1.432.313 2.73 1.365 3.736-1.26-.95-2.64-1.05-4.052-.91.737 1.367 1.981 2.376 3.731 3.028-.64-.049-1.256-.04-1.847.02l-.923-.05.174.153c-2.236.4-4.131 1.542-5.845 3.08l4.023-.218-1.737 2.057c2.07.698 4.046.948 5.815.214-1.27 1.605-2.028 3.155-1.656 4.585.82.236 1.493.082 2.019-.46-.755 2.098-.305 4.022.693 5.866 2.169-1.387 3.342-3.219 3.514-5.497.345 1.994 1.558 3.261 3.164 4.199.767-1.175 1.19-2.457 1.164-3.881.19-.235.366-.473.53-.711.84 1.072 1.898 1.779 2.998 2.415.123-1.78-.247-3.417-1.705-4.737.826.452 1.654.789 2.483 1.022.599.382 1.26.729 1.975 1.043a21.62 21.62 0 0 0-.093-.684c.83.085 1.66.078 2.49-.01a13.834 13.834 0 0 0-3.463-2.84 4.38 4.38 0 0 0-.455-.582c2.238.87 4.244.121 6.29-.353-1.366-1.417-2.92-2.607-5.151-2.988 2.187.444 4.153-.173 6.019-1.272-1.276-.892-2.656-1.63-4.77-1.3zm-11.083-2.13c.07.105.14.21.214.315-.062.09-.128.18-.188.271 0-.197 0-.392-.026-.586"/><path fill="#a56110" d="M12.716 279.59c2.59-25.802 4.333-51.659 5.834-77.529-.3-.132-.47-.28-.458-.427.024-.306.819-.515 1.903-.54-.186.083-.296.182-.304.294 0 .149.158.3.458.433-1.51 25.951-3.26 51.887-5.831 77.771h-1.602"/><path fill="#ce942b" d="M11.81 201.842c-1.412 25.91-2.24 51.825-.364 77.744H7.27c.744-25.943.634-51.887.283-77.832-.31-.114-.49-.25-.49-.398 0-.384 1.228-.692 2.737-.687 1.51.007 2.733.32 2.731.705 0 .18-.274.345-.72.467"/><path fill="#a56110" d="M6.648 279.59c.734-25.823.625-51.65.272-77.475-.307-.114-.489-.252-.489-.4 0-.306.783-.563 1.864-.653-.182.094-.284.2-.284.312 0 .15.179.289.487.404.348 25.94.457 51.878-.255 77.813H6.648"/><path fill="#ce9e47" d="M7.485 139.021l4.29.014c-1.425 20.677-2.257 41.357-.242 62.045l-4.289-.014c.761-20.68.627-41.362.24-62.045"/><path fill="#a56110" d="M7.299 138.858l1.343.007c.38 20.58.51 41.16-.247 61.736l2.922.012c0 .102.023.205.028.306l-4.288-.014c.76-20.679.626-41.361.241-62.042"/><path fill="#ce9e47" d="M7.648 107.68l4.29.014c-1.384 10.472-2.177 20.944-.123 31.427l-4.288-.014c.72-10.473.546-20.95.12-31.427"/><path fill="#a56110" d="M7.485 107.61l1.344.007c.42 10.425.587 20.85-.128 31.271l2.922.01c0 .052.023.104.028.156l-4.289-.014c.721-10.474.546-20.95.123-31.427"/><path fill="#61711d" d="M3.346 158.62a27.759 27.759 0 0 0-2.299-1.09c-.079-.403-.179-.809-.3-1.217l.1-.1c.648 1.033 1.507 1.643 2.452 2.078 0 .11.025.22.048.33zm3.266 40.507c2.688-4.015 4.672-8.426 5.68-13.386.525-.011.976-.214 1.358-.608-.809 2.249-.327 4.309.743 6.285 1.93-1.233 3.122-2.796 3.578-4.687.202.075.403.145.607.207.39.889.981 1.61 1.71 2.219-.438.625-.788 1.327-1.08 2.083 2.054.071 3.877-.19 5.19-1.184-1.59 1.255-2.094 3.188-2.443 5.22 3.142-1.481 5.41-3.405 6.398-5.977.5 2.323 1.977 4.456 4.118 6.456.536-2.054.905-4.092.126-6.019 2.469 2.103 5.466 1.996 8.373 2.263-1.054-2.436-2.472-4.66-5.18-6.122 1.965 1.143 4.073 1.456 6.266 1.28.226.295.454.591.673.89.202-.344.4-.692.58-1.042.324-.051.647-.11.973-.179-.172-.247-.352-.49-.537-.726.474-1.078.807-2.196.903-3.384.167-.036.336-.074.503-.115.804 1.788 2.241 3.228 4.02 4.484.618-1.818 1.004-3.683-.135-5.858l.07-.034c2.409 3.049 5.531 4.992 9.148 6.167-.738-2.857-2.33-5.424-5.17-7.57 2.555 1.126 5.049.8 7.512-.187-2.017-1.445-4.196-2.726-7.501-2.837 3.73-.189 6.413-1.585 8.378-3.809-2.084-1.484-4.45-2.34-7.435-1.815 3.144-1.28 5.189-3.546 6.132-6.798-1.267-.135-2.51-.153-3.716 0-1.793-3.285-4.744-5.86-9.298-7.454 4.727 1.211 8.433.306 11.99-.901-2.062-1.661-4.294-2.886-6.843-3.316.076-.564.086-1.15.023-1.759.16-.09.317-.183.472-.275.923 1.25 2.111 2.051 3.35 2.768.11-1.575-.142-3.045-1.112-4.305.11-.086.216-.172.322-.259 2.098.923 4.202 1.18 6.307.96-1.135-1.277-2.446-2.358-3.976-3.194a21.62 21.62 0 0 0 1.952-2.55c-.345.008-.688.023-1.029.043.151-.099.303-.201.45-.305-2-1.177-4.106-1.838-6.448-1.363 2.388-.409 4.054-1.683 5.517-3.201-.421-.098-.841-.206-1.26-.31l-2.585-.476c-.933-.068-1.891.019-2.891.408 1.118-1.212 1.43-2.785 1.627-4.408-1.151.507-2.172 1.09-3.03 1.765a5.796 5.796 0 0 0-2.213-.293c-.023-.034-.025-.067-.037-.1 2.927-.83 5.208-2.38 7.037-4.437-2.452-.257-4.9.135-7.343 1.47 1.562-1.414 1.959-3.167 1.826-5.075-1.674.97-3.256 2.092-4.214 4.275.83-2.547.43-4.709-.812-6.606-1.72 1.003-3.017 2.362-3.388 4.497-.186-2.44-1.44-4.402-3.764-5.889-1.07 1.977-1.552 4.037-.744 6.285-.563-.582-1.284-.746-2.162-.492-.4 1.531.414 3.192 1.775 4.91a6.364 6.364 0 0 0-2.236-.47c.14-1.031.153-2.098.076-3.192-1.028.596-2.039 1.223-2.998 1.937a18.212 18.212 0 0 0-2.503-.697l1.32 1.65c-.476.415-.933.86-1.365 1.346l-.418-.034c.032.132.067.265.104.395a14.802 14.802 0 0 0-2.221 3.6c1.023-3.137 1.073-5.97.347-8.56l-1.004-2.561a16.092 16.092 0 0 0-.897-1.549c-3.3 1.926-5.792 4.53-6.498 8.627-.357-4.68-2.763-8.445-7.22-11.294-2.052 3.79-2.978 7.742-1.425 12.052a3.788 3.788 0 0 0-1.458-.96 7.742 7.742 0 0 0-.993-2.149c-1.721 1.004-3.02 2.363-3.389 4.498-.186-2.44-1.44-4.403-3.764-5.889-1.07 1.976-1.553 4.037-.743 6.285-.565-.58-1.286-.746-2.163-.493-.399 1.533.413 3.193 1.775 4.911-.834-.345-1.71-.486-2.618-.474-1.455-.955-3.17-1.558-5.043-1.948l1.982 2.476c-.184.055-.367.114-.552.176l.415.491-2.308-.181c.15.604.33 1.18.553 1.72l-1.109-.06c.59.528 1.2 1.013 1.834 1.443a5.84 5.84 0 0 0 1.904 1.829c-2.31-.115-4.265.163-5.446 1.304.247.816.79 1.282 1.626 1.401-2.49.598-4.105 2.092-5.325 3.994 2.62.984 5.093.885 7.42-.3-.451.373-.821.766-1.12 1.175-.177-.007-.353-.014-.53-.019.089.136.18.27.271.403-.664 1.079-.893 2.262-.88 3.505 1.122-.036 2.196-.243 3.213-.659a20.526 20.526 0 0 0 1.712 1.564c-.062.57-.072 1.137-.062 1.703.458-.237.89-.495 1.286-.78a23.119 23.119 0 0 0 4.46 2.424c.084.107.17.214.256.32-3.816-.27-6.95 1.185-9.764 3.451 2.982 1.012 6.067 1.812 9.77 1.33l.281.352c-.535.246-1.045.51-1.528.788l-.718-.056c.035.142.072.283.11.422-2.823 1.782-4.713 4.135-5.9 6.918 1.182.398 2.374.691 3.578.84-1.633.758-2.81 1.982-3.753 3.45 2.62.985 5.093.885 7.42-.3-1.302 1.079-1.929 2.319-2.156 3.656a98.46 98.46 0 0 0-3.446 3.473 61.74 61.74 0 0 0 3.653-2.08c.279-.016.556-.044.83-.084a16.68 16.68 0 0 0-.068 2.677 24.947 24.947 0 0 0 3.802-.975c-.023.336-.023.671 0 1.005 1.128-.583 2.09-1.293 2.763-2.223.343-.19.681-.393 1.01-.608.06.355.136.699.23 1.034a95.941 95.941 0 0 0-7.096 10.885c2.973-2.602 5.669-5.468 8.025-8.662.38.666.835 1.288 1.358 1.87.562-1.617.834-3.266.74-4.95.28-.445.553-.897.818-1.353.266.418.646.8 1.143 1.147-1.965 4.241-3.568 8.685-4.691 13.399zm2.48-15.87c-.054.063-.106.126-.157.189 0-.037-.023-.076-.03-.114l.133-.15c.023.024.032.05.053.075zm9.057 2.376v-.104c0 .03.024.059.024.088zm4.568 1.416v-.032c.065-.019.133-.04.198-.063-.07.03-.138.063-.205.096zM.629 163.667c.111.042.225.086.341.128-.123-.017-.247-.03-.37-.042 0-.029.023-.057.028-.086zm-.1-8.038v.026c0-.023-.023-.045-.023-.067 0 .014.023.027.023.04zm30.378-15.402c0-.012.024-.023.033-.034l.065.039c-.033 0-.065 0-.1-.007zm8.693 42.896c.023.048.032.095.049.143a9.265 9.265 0 0 0-.918-.2c.292.025.581.044.868.057zm7.222-16.929a16.958 16.958 0 0 0-1.085-.964c.474.238.947.443 1.416.619-.111.112-.22.226-.331.345"/><path fill="#859b2a" d="M25.62 161.201c3.923-.932 6.925-2.893 9.296-5.559-2.954-.308-5.905.163-8.85 1.773 1.882-1.705 2.36-3.818 2.201-6.116-2.016 1.17-3.926 2.52-5.079 5.151 1.003-3.069.52-5.674-.976-7.961-2.074 1.21-3.64 2.846-4.083 5.421-.226-2.941-1.736-5.307-4.537-7.097-1.29 2.38-1.871 4.864-.895 7.573-.68-.7-1.55-.9-2.609-.594-.081.312-.12.629-.12.95-.57-.901-1.3-1.78-2.17-2.637-.394 1.881-.619 3.723.343 5.288-.807-1.254-2.315-2.014-4.14-2.55-.023 1.848.404 3.523 1.763 4.823-1.627-1.225-3.408-1.353-5.232-1.174.951 1.764 2.558 3.066 4.815 3.909a13.584 13.584 0 0 0-2.382.023l-1.191-.065c.072.068.148.133.223.199-2.886.516-5.333 1.99-7.547 3.977l5.195-.282-2.243 2.655c2.672.9 5.225 1.224 7.507.277-1.64 2.071-2.618 4.072-2.139 5.918 1.06.305 1.928.107 2.607-.593-.975 2.708-.394 5.192.895 7.573 2.803-1.79 4.315-4.156 4.539-7.097.444 2.574 2.008 4.21 4.084 5.421.991-1.517 1.536-3.172 1.5-5.01.247-.304.475-.61.685-.919 1.086 1.385 2.45 2.297 3.868 3.119.16-2.3-.317-4.412-2.2-6.117a15.324 15.324 0 0 0 3.208 1.32c.772.494 1.625.94 2.548 1.347a21.71 21.71 0 0 0-.12-.883c1.07.11 2.141.101 3.213-.011-1.288-1.448-2.762-2.688-4.47-3.668a5.824 5.824 0 0 0-.586-.75c2.888 1.122 5.478.157 8.118-.456-1.761-1.829-3.768-3.365-6.65-3.857 2.825.572 5.364-.224 7.773-1.642-1.646-1.152-3.429-2.105-6.16-1.68zm-14.308-2.75c.089.135.182.271.278.406a8.173 8.173 0 0 0-.242.35c0-.255 0-.506-.035-.756"/><path fill="#7d9021" d="M43.336 211.003c8.166-2.79 10.384 1.976 11.337 8.029-2.578-5.39-3.766-8.332-11.337-8.029"/><path fill="#61711d" d="M-34.505 195.518a27.5 27.5 0 0 0-2.299-1.091 12.531 12.531 0 0 0-.298-1.217l.1-.1c.646 1.034 1.504 1.643 2.45 2.078 0 .11.027.22.048.33zm3.268 40.507c2.688-4.015 4.672-8.427 5.677-13.387.526-.012.98-.214 1.36-.607-.809 2.247-.326 4.308.744 6.284 1.928-1.233 3.12-2.796 3.577-4.687.2.074.402.144.607.207.391.89.982 1.611 1.71 2.218a9.68 9.68 0 0 0-1.078 2.084c2.054.07 3.874-.19 5.188-1.184-1.59 1.255-2.094 3.189-2.443 5.22 3.143-1.48 5.41-3.405 6.397-5.976.502 2.323 1.977 4.454 4.12 6.455.534-2.054.905-4.092.126-6.018 2.469 2.101 5.466 1.995 8.373 2.262-1.053-2.436-2.472-4.66-5.182-6.122 1.966 1.143 4.074 1.456 6.267 1.279.228.296.453.592.673.891.205-.344.399-.691.582-1.042.321-.051.647-.111.972-.18-.172-.245-.351-.489-.537-.726.474-1.077.808-2.195.902-3.383.17-.036.338-.074.505-.115.802 1.787 2.24 3.228 4.017 4.484.619-1.818 1.007-3.683-.132-5.859l.067-.032c2.41 3.048 5.532 4.99 9.149 6.165-.738-2.856-2.33-5.424-5.17-7.57 2.557 1.127 5.048.8 7.513-.186-2.018-1.446-4.194-2.726-7.503-2.838 3.733-.188 6.415-1.584 8.38-3.808-2.084-1.484-4.45-2.34-7.436-1.815 3.145-1.28 5.189-3.545 6.132-6.798-1.267-.135-2.508-.153-3.715.007-1.794-3.286-4.745-5.862-9.298-7.456 4.728 1.212 8.433.308 11.99-.9-2.061-1.661-4.296-2.887-6.845-3.316a7.27 7.27 0 0 0 .024-1.759c.16-.09.319-.182.474-.276.922 1.251 2.11 2.052 3.348 2.769.111-1.574-.142-3.044-1.112-4.305.11-.086.217-.172.323-.26 2.1.924 4.2 1.181 6.308.961-1.136-1.277-2.447-2.359-3.978-3.193a21.47 21.47 0 0 0 1.951-2.552c-.343.01-.686.024-1.028.044.153-.1.302-.2.452-.305-2-1.178-4.107-1.838-6.449-1.363 2.39-.409 4.055-1.683 5.517-3.2-.421-.098-.84-.207-1.262-.312l-2.583-.475c-.934-.067-1.891.018-2.892.407 1.117-1.212 1.43-2.783 1.629-4.407-1.152.506-2.174 1.09-3.031 1.766a5.801 5.801 0 0 0-2.214-.295c-.023-.032-.026-.066-.037-.1 2.926-.83 5.21-2.38 7.039-4.436-2.453-.256-4.902.134-7.344 1.47 1.562-1.414 1.958-3.167 1.825-5.075-1.672.97-3.257 2.091-4.213 4.275.832-2.546.43-4.708-.81-6.607-1.721 1.004-3.02 2.362-3.389 4.499-.186-2.441-1.442-4.404-3.764-5.89-1.07 1.977-1.553 4.037-.744 6.284-.564-.581-1.285-.745-2.164-.492-.397 1.532.415 3.193 1.775 4.912a6.353 6.353 0 0 0-2.235-.471 15.82 15.82 0 0 0 .077-3.192c-1.03.597-2.041 1.223-3 1.936a18.167 18.167 0 0 0-2.502-.695l1.32 1.648c-.476.415-.932.861-1.366 1.346l-.416-.034a17 17 0 0 0 .102.396 14.798 14.798 0 0 0-2.22 3.601c1.024-3.138 1.073-5.97.346-8.56l-1.003-2.563a16.286 16.286 0 0 0-.897-1.548c-3.302 1.926-7.784 5.442-8.492 9.538-1.447-4.295-2.264-8.829-5.227-12.205-2.052 3.79-1.724 8.54-.172 12.849-.438-.45-2.176-1.567-2.713-1.757a7.67 7.67 0 0 0-.991-2.149c-1.723 1.005-3.02 2.363-3.389 4.5-.186-2.441-1.442-4.404-3.764-5.89-1.07 1.976-1.554 4.036-.743 6.284-.565-.581-1.287-.746-2.165-.493-.397 1.533.413 3.193 1.775 4.912-.833-.346-1.708-.488-2.616-.474-1.455-.957-3.17-1.56-5.044-1.948l1.982 2.476a16.39 16.39 0 0 0-.552.174l.415.492-2.307-.18c.149.603.33 1.18.553 1.718l-1.11-.06c.59.53 1.2 1.014 1.836 1.444a5.833 5.833 0 0 0 1.901 1.83c-2.308-.116-4.263.162-5.444 1.303.247.815.789 1.282 1.627 1.4-2.49.599-4.108 2.093-5.327 3.994 2.62.985 5.093.885 7.42-.299-.45.373-.82.765-1.12 1.175-.176-.007-.352-.014-.528-.018.089.136.177.27.27.403-.666 1.078-.895 2.262-.88 3.504 1.121-.034 2.196-.242 3.212-.658a20.684 20.684 0 0 0 1.712 1.564c-.06.57-.07 1.137-.063 1.703.458-.238.89-.495 1.285-.78a23.27 23.27 0 0 0 4.461 2.424c.084.108.168.214.257.32-3.816-.27-6.951 1.184-9.766 3.451 2.983 1.012 6.068 1.812 9.772 1.33l.28.352c-.534.246-1.044.51-1.528.787l-.719-.056c.035.143.072.283.112.423-2.824 1.781-4.713 4.134-5.903 6.918 1.185.398 2.376.69 3.581.84-1.634.757-2.813 1.982-3.754 3.45 2.62.985 5.093.885 7.42-.3-1.302 1.078-1.93 2.319-2.156 3.656a98.326 98.326 0 0 0-3.445 3.473 62.75 62.75 0 0 0 3.652-2.08 9.72 9.72 0 0 0 .828-.084c-.09.86-.113 1.752-.065 2.677a24.98 24.98 0 0 0 3.8-.975c-.023.336-.023.67 0 1.005 1.13-.584 2.093-1.292 2.764-2.222.344-.19.68-.393 1.011-.609.058.354.137.699.228 1.034a95.682 95.682 0 0 0-7.095 10.884c2.973-2.6 5.67-5.467 8.024-8.66.38.665.836 1.287 1.358 1.87.561-1.618.835-3.266.74-4.952.279-.445.551-.895.82-1.352.264.417.645.8 1.14 1.147-1.962 4.242-3.568 8.685-4.69 13.4zm2.477-15.87l-.154.188c0-.037-.023-.075-.032-.113.044-.051.09-.101.132-.152.024.026.035.051.054.076zm9.06 2.375v-.103c0 .03 0 .059.024.087zm4.568 1.417v-.034c.065-.018.13-.04.197-.062-.07.032-.137.062-.204.096zm-22.09-23.382l.343.128a10.87 10.87 0 0 0-.37-.042c0-.03.023-.057.028-.086zm-.1-8.038v.027c0-.024-.023-.045-.023-.068 0 .014.023.027.023.042zm30.378-15.401c0-.012.024-.024.033-.035l.065.04c-.033 0-.065 0-.098-.007zm8.693 42.896c.023.048.033.095.049.142a9.202 9.202 0 0 0-.918-.2c.291.026.582.045.868.058zm7.222-16.93c-.341-.331-.704-.652-1.086-.964.475.237.948.443 1.417.619-.112.111-.223.226-.331.345"/><path fill="#ce942b" d="M-.374 228.161c1.091 17.212 2.695 34.392 6.693 51.425H2.605c-1.68-17.115-4.106-34.182-6.747-51.239-.281-.057-.454-.139-.467-.236-.033-.254 1.022-.526 2.355-.61 1.334-.083 2.443.056 2.475.31.023.12-.21.244-.595.35"/><path fill="#a56110" d="M2.068 279.59c-1.681-17.023-4.093-34.003-6.72-50.968-.283-.057-.454-.139-.467-.236-.028-.202.64-.417 1.584-.538-.15.072-.232.148-.22.222.023.099.183.181.468.24 2.635 17.07 5.064 34.151 6.772 51.28H2.068"/><path fill="#ce9e47" d="M-9.837 186.893l3.79-.236c.607 13.745 1.736 27.459 5.38 41.013l-3.79.235c-1.191-13.708-3.175-27.368-5.38-41.013"/><path fill="#a56110" d="M-10.022 186.8l1.187-.073c2.19 13.577 4.16 27.17 5.345 40.808l2.583-.16c.023.067.035.135.054.201l-3.789.236c-1.192-13.709-3.175-27.367-5.38-41.013"/><path fill="#ce9e47" d="M-12.51 166.177l3.788-.235c-.279 6.998-.035 13.964 2.725 20.774l-3.789.235c-.309-6.963-1.406-13.875-2.724-20.774"/><path fill="#a56110" d="M-12.673 166.13l1.188-.073c1.31 6.865 2.397 13.744 2.705 20.672l2.581-.161c.023.034.028.067.04.102l-3.79.235c-.307-6.962-1.404-13.875-2.725-20.774"/><path fill="#9ba22e" d="M-2.745 202.145c-.433 25.803-.123 51.608 3.652 77.436h-5.373c-.444-25.842-1.98-51.692-3.83-77.543-.409-.115-.651-.254-.659-.402-.023-.386 1.562-.687 3.53-.675 1.966.012 3.575.334 3.594.72 0 .181-.338.345-.914.465"/><path fill="#877f1b" d="M-5.28 279.59c-.453-25.726-1.983-51.456-3.825-77.192-.406-.116-.65-.255-.657-.402-.023-.306.987-.562 2.39-.646-.23.093-.36.199-.352.31 0 .151.251.292.658.41 1.84 25.842 3.377 51.684 3.862 77.52h-2.075"/><path fill="#9ba740" d="M-11.766 139.137l5.589.035c-.738 20.724-.705 41.455 3.038 62.208l-5.588-.035c-.128-20.73-1.42-41.466-3.04-62.208"/><path fill="#877f1b" d="M-11.999 138.975l1.75.011c1.607 20.637 2.888 41.271 3.014 61.9l3.808.024c.024.103.035.206.054.31l-5.59-.036c-.127-20.73-1.419-41.469-3.036-62.208"/><path fill="#9ba740" d="M-13.231 107.726l5.59.035c-1.238 10.492-1.706 20.99 1.539 31.51l-5.588-.035c.372-10.498-.421-21.002-1.541-31.508"/><path fill="#877f1b" d="M-13.487 107.633l1.75.012c1.111 10.455 1.894 20.908 1.525 31.353l3.805.023c.023.053.033.105.049.158l-5.589-.035c.373-10.498-.42-21.003-1.54-31.51"/><path fill="#61711d" d="M-30.622 118.77a30.077 30.077 0 0 0-2.434-1.089 11.494 11.494 0 0 0-.315-1.216l.104-.099c.684 1.032 1.592 1.64 2.594 2.074 0 .111.028.221.049.33zm-25.766-11.294a8.445 8.445 0 0 1-4.929 1.71 7.105 7.105 0 0 1 3.395-2.717c-1.213.166-2.141-.311-2.94-1.081.577-.209 1.162-.388 1.79-.446l.454-.537a4.035 4.035 0 0 1-1.128-1.407l-1.932.104c1.174-1.053 2.425-1.934 3.798-2.55-.155-.596-.188-1.252-.095-1.968.951.194 1.8.55 2.46 1.213l.17-.032c-.065-.055-.125-.11-.188-.167l.972.053c.072-.07.153-.136.247-.199.046.024.095.049.141.076.033-.116.07-.23.107-.344a6.412 6.412 0 0 1-.062-.315 7.478 7.478 0 0 1-.875-.617c-.567.21-1.163.345-1.746.515.153-.584.347-1.15.637-1.682a6.196 6.196 0 0 1-.392-.606c-.636.192-1.31.256-2.01.24.42-.87.945-1.69 2.193-2.155-1.869.532-3.59.414-5.215-.148a7.104 7.104 0 0 1 4.136-1.337c-1.191-.273-1.89-1.05-2.364-2.053 1.123.016 2.243.135 3.346.97-1.142-1.055-1.552-2.263-1.462-3.576 1.156.02 2.2.34 2.99 1.318-.597-1.29-.518-2.64.238-4.05.76.479 1.387 1.059 1.782 1.82.552.018 1.104.061 1.655.15.052-.359.133-.73.243-1.11.383.438.732.886.93 1.376.13.04.258.082.387.128a3.75 3.75 0 0 1 .504-.78c-.796-1.34-1.082-2.788-.976-4.319 2.015.037 3.832.593 5.213 2.296-1.041-2.246-.905-4.597.412-7.056 1.92 1.215 3.366 2.794 3.762 5.177.209-.792.763-1.293 1.664-1.503.188.195.346.411.479.646.047-.894.223-1.837.507-2.822 1.061 1.217 1.979 2.474 1.916 4.013.08-1.25.87-2.424 1.987-3.564.768 1.348 1.148 2.745.688 4.254.687-1.563 1.94-2.388 3.349-3.006.026 1.683-.617 3.296-1.924 4.838a11.358 11.358 0 0 1 1.754-.96l.846-.535c-.028.08-.054.158-.084.237 2.017-.698 4.087-.734 6.19-.373.08-.147.163-.293.246-.439 4.716 2.847 4.301 13.783 4.679 18.457-.53-6.436 5.765-14.935 9.84-15.793-1.635 10.302-5.837 9.701-7.926 16.64.444-3.093 10.62-9.79 11.922-7.583-.037-.13-.075-.26-.11-.394l.443.032c.457-.484.941-.93 1.442-1.344l-1.395-1.646c.923.18 1.809.407 2.649.694 1.015-.712 2.085-1.337 3.173-1.933a14.822 14.822 0 0 1-.081 3.188 7.094 7.094 0 0 1 2.366.47c-1.442-1.717-2.3-3.375-1.879-4.905.93-.253 1.693-.089 2.29.492-.856-2.244-.345-4.302.786-6.276 2.46 1.484 3.788 3.445 3.985 5.881.39-2.133 1.765-3.489 3.585-4.492 1.316 1.896 1.739 4.054.86 6.598 1.012-2.18 2.688-3.3 4.46-4.269.141 1.905-.28 3.656-1.933 5.068 2.586-1.334 5.176-1.725 7.773-1.469-1.937 2.054-4.353 3.603-7.45 4.431.023.034.027.066.041.1a6.51 6.51 0 0 1 2.342.293c.908-.674 1.99-1.256 3.208-1.763-.209 1.622-.54 3.191-1.723 4.402 1.06-.388 2.071-.475 3.061-.408l2.733.475c.446.104.89.213 1.336.311-1.55 1.515-3.31 2.788-5.84 3.197 2.48-.475 4.71.185 6.825 1.36a13.82 13.82 0 0 1-.477.305c.362-.019.724-.034 1.088-.044a21.449 21.449 0 0 1-2.065 2.547 15.553 15.553 0 0 1 4.21 3.19c-2.23.22-4.455-.038-6.675-.959l-.343.259c1.027 1.259 1.292 2.726 1.177 4.3-1.31-.717-2.568-1.517-3.544-2.766a27.65 27.65 0 0 1-.5.275 6.7 6.7 0 0 1-.024 1.756c2.698.43 5.062 1.654 7.245 3.312-3.767 1.206-7.689 2.11-12.691.9 4.818 1.59 7.942 4.163 9.84 7.444 1.278-.157 2.592-.138 3.933 0-1 3.248-3.162 5.51-6.49 6.789 3.16-.525 5.664.33 7.87 1.813-2.08 2.22-4.92 3.614-8.869 3.802 3.5.112 5.806 1.39 7.94 2.834-2.607.985-5.245 1.31-7.95.186 3.004 2.143 4.69 4.707 5.471 7.56-3.829-1.174-7.133-3.113-9.683-6.157l-.072.032c1.205 2.173.795 4.035.141 5.851-1.88-1.254-3.402-2.693-4.253-4.477-.179.04-.355.078-.533.114-.102 1.186-.453 2.303-.956 3.379.198.237.386.48.569.726a21.9 21.9 0 0 1-1.03.178c-.194.35-.398.697-.614 1.04-.233-.298-.473-.593-.711-.89-2.323.178-4.555-.135-6.634-1.277 2.869 1.461 4.368 3.682 5.483 6.115-3.077-.267-6.25-.161-8.862-2.26.826 1.924.434 3.959-.132 6.01-2.267-1.998-3.829-4.127-4.36-6.446-1.045 2.566-3.445 4.488-6.771 5.967.37-2.027.904-3.959 2.586-5.212-1.39.992-3.318 1.253-5.492 1.182a9.499 9.499 0 0 1 1.142-2.081c-.77-.606-1.396-1.326-1.81-2.215-.216-.063-.43-.132-.642-.207-.482 1.889-1.745 3.449-3.786 4.68-1.132-1.972-1.643-4.03-.787-6.275a2.059 2.059 0 0 1-1.44.607c-1.064 4.953-3.164 9.358-6.009 13.367 1.188-4.707 2.886-9.144 4.963-13.38-.523-.346-.926-.728-1.207-1.145-.282.456-.57.906-.867 1.35.1 1.684-.19 3.329-.783 4.945a10.999 10.999 0 0 1-1.437-1.869c-2.493 3.191-5.346 6.054-8.493 8.651a94.95 94.95 0 0 1 7.51-10.87c-.1-.335-.18-.68-.244-1.033-.348.216-.704.418-1.07.608-.71.929-1.729 1.637-2.924 2.22 0-.334 0-.669.023-1.003-1.28.42-2.627.736-4.022.972a15.869 15.869 0 0 1 .07-2.673c-.29.04-.582.067-.878.085a66.552 66.552 0 0 1-3.865 2.076 100.128 100.128 0 0 1 3.647-3.467c.24-1.337.904-2.575 2.281-3.652-2.464 1.184-5.081 1.284-7.853.3.997-1.466 2.243-2.69 3.974-3.446a20.262 20.262 0 0 1-3.789-.838c1.256-2.781 3.256-5.13 6.244-6.91-.042-.139-.081-.279-.118-.422l.76.057a20.78 20.78 0 0 1 1.619-.787l-.298-.35c-3.92.48-7.185-.318-10.34-1.33 2.977-2.263 6.295-3.716 10.335-3.447a9.74 9.74 0 0 1-.27-.319 25.054 25.054 0 0 1-4.723-2.42c-.419.284-.875.542-1.36.778 0-.564 0-1.13.067-1.7a21.018 21.018 0 0 1-1.813-1.562c-1.077.416-2.213.623-3.4.658-.023-1.24.228-2.423.93-3.5a38.51 38.51 0 0 1-.284-.402l.559.019a6.735 6.735 0 0 1 1.185-1.174c-2.215 1.064-4.556 1.252-7.021.563a9.811 9.811 0 0 1-1.689 1.346c-1.017-1.878-1.509-3.831-.885-5.945 0-.101 0-.201.023-.301-.337.304-.725.47-1.167.5-.47.422-1.004.773-1.51 1.154-.13-1.217-.076-2.433.634-3.648-.66 1.22-1.743 1.91-3.011 2.359.086-.963.285-1.916 1.288-2.793zm8.166-18.946c0 .068 0 .136-.024.205l.133.082.063-.09a6.677 6.677 0 0 1-.182-.197zm-7.362 7.766c.207-.25.445-.49.723-.715a4.444 4.444 0 0 1-1.175.73c.151-.01.301-.012.452-.015zm31.757-10.81l-2.488 1.222 1.697.637c.223-.625.49-1.244.791-1.858zm-1.343 3.776c-1.153.944-2.401 1.587-3.798 1.751 1.677.691 3.012 1.53 3.664 2.66a11.95 11.95 0 0 1 .135-4.41zm.052 5.345c-.34.305-.698.491-1.073.559l.024.067c.566.189 1.082.508 1.542.958a12.512 12.512 0 0 1-.49-1.583zm-12.943-8.827c0 .135-.024.272-.035.41.11.05.216.102.32.157a6.392 6.392 0 0 1-.285-.567zm-10.189 26.042c.158-.517.26-1.059.303-1.627.075.443.193.853.343 1.234-.225.122-.44.254-.646.393zm23.708 31.553c-.056.062-.11.125-.163.188 0-.039-.023-.076-.035-.114.047-.05.096-.1.142-.152.024.027.038.052.056.078zm9.59 2.372v-.105c0 .03 0 .06.022.089zm4.834 1.414v-.034c.07-.018.14-.04.21-.062a8.237 8.237 0 0 0-.214.096zm-23.38-23.35c.121.044.24.086.362.128-.133-.016-.26-.03-.39-.042 0-.028.023-.057.027-.086zm-.104-8.026v.026c0-.023-.024-.045-.026-.067 0 .014.023.027.023.041zm32.152-15.38c.023-.012.023-.024.033-.035l.07.04c-.036 0-.07 0-.105-.008zm9.199 42.835c.023.048.035.095.053.143a10.366 10.366 0 0 0-.97-.2c.307.025.615.044.918.057zm7.642-16.906a17.37 17.37 0 0 0-1.146-.962c.501.236 1.001.441 1.497.618-.116.11-.233.226-.35.344"/><path fill="#9ba22e" d="M-31.32 206.632c-2.822 24.203-5.15 48.455-5.199 72.945h-3.605c2.243-24.408 3.757-48.895 5.06-73.4-.265-.136-.416-.283-.406-.423.026-.368 1.125-.554 2.455-.416 1.329.136 2.386.545 2.36.91 0 .174-.262.306-.665.384"/><path fill="#877f1b" d="M-40.666 279.59c2.229-24.314 3.734-48.706 5.034-73.116-.264-.135-.417-.283-.406-.423.024-.292.723-.47 1.681-.461-.165.073-.261.165-.27.272 0 .142.142.291.406.429-1.307 24.47-2.818 48.92-5.027 73.3h-1.418"/><path fill="#9ba740" d="M-31.157 146.322l3.778.39c-2.554 19.599-4.583 39.253-4.107 59.164l-3.778-.388c1.969-19.66 3.147-39.402 4.107-59.166"/><path fill="#877f1b" d="M-31.32 146.159l1.185.122c-.958 19.666-2.136 39.309-4.093 58.871l2.574.265v.296l-3.779-.388c1.969-19.66 3.148-39.402 4.107-59.167"/><path fill="#9ba740" d="M-29.041 116.445l3.778.39c-1.876 9.868-3.233 19.79-2.08 29.97l-3.779-.39c1.293-9.928 1.797-19.937 2.081-29.969"/><path fill="#877f1b" d="M-29.204 116.375l1.183.121c-.284 9.983-.791 19.941-2.075 29.82l2.573.266c0 .05 0 .1.023.15l-3.779-.388c1.293-9.928 1.797-19.936 2.081-29.967"/><path fill="#7d9021" d="M-19.369 115.236c3.039-.722 5.365-2.241 7.202-4.306-2.289-.24-4.575.126-6.854 1.373 1.457-1.32 1.827-2.957 1.702-4.738-1.562.905-3.038 1.952-3.933 3.99.776-2.377.402-4.395-.756-6.167-1.607.938-2.819 2.206-3.163 4.2-.172-2.278-1.345-4.111-3.513-5.497-1 1.843-1.45 3.768-.696 5.866-.526-.543-1.198-.697-2.018-.46a3.029 3.029 0 0 0-.096.735c-.44-.698-1.008-1.378-1.68-2.043-.306 1.459-.48 2.885.266 4.095-.627-.97-1.794-1.559-3.207-1.974 0 1.432.312 2.73 1.364 3.736-1.259-.95-2.638-1.049-4.052-.91.738 1.366 1.981 2.376 3.73 3.028a10.38 10.38 0 0 0-1.845.019l-.922-.05c.058.052.113.103.174.154-2.236.399-4.132 1.542-5.846 3.08l4.023-.218-1.736 2.057c2.07.698 4.046.948 5.814.215-1.27 1.604-2.027 3.153-1.655 4.584.82.236 1.492.083 2.018-.46-.756 2.098-.304 4.022.694 5.866 2.168-1.386 3.341-3.219 3.515-5.497.344 1.994 1.556 3.262 3.161 4.2.77-1.176 1.192-2.459 1.165-3.883.19-.234.367-.472.531-.71.84 1.071 1.898 1.778 2.995 2.415.126-1.781-.245-3.417-1.703-4.737a11.85 11.85 0 0 0 2.483 1.021c.6.382 1.26.73 1.975 1.044a21.27 21.27 0 0 0-.093-.684c.829.086 1.66.077 2.49-.01a13.852 13.852 0 0 0-3.462-2.84 4.644 4.644 0 0 0-.455-.58c2.236.868 4.244.12 6.29-.354-1.367-1.417-2.92-2.606-5.151-2.989 2.187.444 4.153-.172 6.018-1.272-1.274-.891-2.655-1.63-4.771-1.3zm-11.081-2.13c.067.104.14.21.214.314-.065.089-.126.18-.189.271 0-.196 0-.392-.025-.586"/></g><g fill-rule="evenodd" stroke-width=".43"><path fill="#9ba22e" d="M534.148 230.614c-.044 16.506-.564 33.004-3.205 49.481h3.422c.672-16.502 2.017-32.996 3.556-49.49.279-.072.447-.161.454-.258.023-.256-1.053-.475-2.389-.489-1.336-.014-2.435.18-2.453.435 0 .121.225.233.615.32"/><path fill="#877f1b" d="M534.916 280.09c.675-16.42 2.012-32.833 3.546-49.245.28-.072.446-.162.452-.26.024-.203-.663-.384-1.615-.456.156.065.24.136.236.21 0 .1-.175.19-.454.264-1.534 16.492-2.878 32.987-3.575 49.487h1.41"/><path fill="#9ba740" d="M541.1 188.904l-3.796-.04c.225 13.754-.073 27.502-2.893 41.224l3.799.041c.36-13.748 1.516-27.488 2.89-41.225"/><path fill="#877f1b" d="M541.263 188.811l-1.189-.012c-1.366 13.67-2.512 27.34-2.87 41.02l-2.588-.027c-.023.067-.028.135-.042.203l3.798.04c.363-13.747 1.515-27.488 2.89-41.224"/><path fill="#9ba740" d="M542.518 168.095l-3.796-.04c.701 6.973.879 13.94-1.465 20.88l3.797.042c-.114-6.968.565-13.925 1.464-20.882"/><path fill="#877f1b" d="M542.681 168.049l-1.189-.014c-.894 6.922-1.564 13.846-1.45 20.778l-2.588-.028c0 .035-.024.07-.033.103l3.797.042c-.114-6.967.564-13.926 1.464-20.882"/><path fill="#9ba22e" d="M525.801 230.22c1.757 16.54 3.038 33.121 2.161 49.875h3.467c-1.153-16.7-1.615-33.457-1.874-50.23.27-.097.426-.201.422-.3 0-.255-1.096-.374-2.43-.266-1.331.108-2.403.403-2.392.659 0 .121.25.21.646.261"/><path fill="#877f1b" d="M531.963 280.09c-1.145-16.636-1.604-33.328-1.86-50.038.269-.098.424-.202.421-.3 0-.204-.702-.322-1.657-.305.163.05.254.113.257.187 0 .1-.154.205-.422.304.265 16.746.725 33.475 1.847 50.152h1.414"/><path fill="#9ba740" d="M528.196 188.09l-3.783.308c1.717 13.665 2.912 27.372 1.595 41.285l3.784-.308c-1.132-13.712-1.474-27.488-1.596-41.285"/><path fill="#877f1b" d="M528.359 187.974l-1.184.097c.123 13.726.468 27.435 1.594 41.078l-2.578.21c0 .068-.023.137-.023.206l3.782-.308c-1.13-13.712-1.474-27.488-1.595-41.285"/><path fill="#9ba740" d="M527.36 167.235l-3.783.308c1.453 6.874 2.387 13.79.807 20.91l3.784-.307c-.87-6.921-.95-13.907-.809-20.911"/><path fill="#877f1b" d="M527.499 167.188l-1.185.097c-.137 6.969-.054 13.92.81 20.807l-2.577.21c0 .036-.023.07-.023.105l3.784-.306c-.87-6.923-.95-13.908-.81-20.912"/><path fill="#863a2f" d="M489.322 280.09c.942-5.946 1.477-11.907.527-17.92h.032c1.359-12.833 2.349-25.68 1.57-38.587l.14.007c1.077-6.401 1.773-12.815.75-19.29h.032c1.36-12.833 2.35-25.679 1.571-38.587l2.672.092v.096h.117c-.95 12.87-1.343 25.757-1.578 38.651h-.035c-.68 6.476-.81 12.97-.787 19.469h-.112c-.936 12.788-1.324 25.595-1.56 38.409h-.032c-.619 5.876-.784 11.769-.79 17.666h-2.507"/><path fill="#63651e" d="M487.183 185.044c-3.039-.721-5.365-2.24-7.202-4.305 2.29-.24 4.575.126 6.854 1.372-1.457-1.32-1.827-2.956-1.702-4.737 1.562.906 3.04 1.952 3.933 3.99-.776-2.377-.402-4.395.756-6.167 1.607.938 2.82 2.205 3.163 4.199.175-2.278 1.346-4.11 3.516-5.497.997 1.844 1.45 3.769.693 5.866.526-.543 1.2-.695 2.018-.46.063.242.093.488.096.736.441-.698 1.008-1.378 1.682-2.043.304 1.459.477 2.885-.267 4.096.626-.97 1.794-1.56 3.207-1.975 0 1.432-.313 2.73-1.365 3.736 1.259-.95 2.639-1.05 4.053-.91-.738 1.367-1.982 2.376-3.73 3.028a10.43 10.43 0 0 1 1.845.02l.922-.05c-.058.05-.116.102-.172.153 2.235.4 4.13 1.542 5.846 3.08l-4.025-.218 1.738 2.057c-2.07.698-4.047.948-5.816.214 1.272 1.605 2.028 3.155 1.656 4.585-.818.236-1.49.082-2.018-.46.756 2.098.305 4.022-.693 5.866-2.17-1.387-3.34-3.219-3.515-5.497-.345 1.994-1.556 3.261-3.163 4.199-.768-1.175-1.191-2.457-1.163-3.881-.19-.235-.368-.473-.53-.711-.843 1.072-1.898 1.779-2.997 2.415-.126-1.78.245-3.417 1.702-4.737-.825.452-1.654.789-2.482 1.022-.598.382-1.26.729-1.975 1.043.028-.23.058-.458.093-.684-.829.085-1.658.078-2.49-.01a13.834 13.834 0 0 1 3.462-2.84c.135-.203.285-.397.455-.582-2.236.87-4.243.121-6.29-.353 1.367-1.417 2.921-2.607 5.153-2.988-2.188.444-4.154-.173-6.02-1.272 1.275-.892 2.656-1.63 4.772-1.3zm11.083-2.13c-.07.105-.142.21-.214.315.065.09.128.18.188.271 0-.197 0-.392.028-.586M509.457 162.306c-3.039-.722-5.365-2.242-7.202-4.306 2.289-.239 4.575.125 6.854 1.373-1.457-1.32-1.827-2.957-1.703-4.738 1.563.906 3.04 1.952 3.933 3.99-.775-2.376-.402-4.394.756-6.167 1.607.938 2.82 2.205 3.164 4.2.173-2.278 1.346-4.11 3.515-5.498.998 1.844 1.45 3.768.694 5.866.525-.542 1.2-.696 2.018-.46.063.242.093.487.095.737.44-.7 1.008-1.38 1.682-2.043.304 1.457.477 2.883-.268 4.095.627-.971 1.795-1.56 3.207-1.974 0 1.43-.312 2.728-1.364 3.735 1.259-.948 2.638-1.048 4.053-.91-.739 1.368-1.982 2.376-3.731 3.029.64-.049 1.254-.04 1.845.018l.925-.05c-.06.053-.116.104-.175.154 2.235.4 4.13 1.542 5.846 3.081l-4.024-.219 1.736 2.057c-2.07.698-4.047.948-5.815.215 1.272 1.604 2.028 3.154 1.656 4.585-.819.235-1.491.083-2.019-.46.757 2.098.306 4.021-.692 5.865-2.17-1.386-3.341-3.219-3.515-5.496-.344 1.993-1.556 3.26-3.163 4.198-.768-1.174-1.192-2.457-1.163-3.88a9.5 9.5 0 0 1-.53-.713c-.843 1.073-1.899 1.78-2.998 2.417-.125-1.781.246-3.418 1.704-4.738-.827.453-1.655.788-2.484 1.022-.597.382-1.259.729-1.975 1.043.028-.23.058-.457.093-.684-.827.086-1.657.078-2.49-.009a13.85 13.85 0 0 1 3.465-2.842c.132-.2.283-.395.453-.58-2.237.87-4.243.12-6.289-.353 1.366-1.417 2.92-2.607 5.152-2.988-2.189.442-4.155-.174-6.02-1.273 1.275-.891 2.655-1.63 4.771-1.3zm11.083-2.13l-.214.314c.065.09.128.18.188.27 0-.196 0-.39.028-.584"/><path fill="#4f4c4c" d="M480.162 280.09c.928-5.891 1.443-11.797.502-17.753h.032c1.359-12.834 2.349-25.68 1.57-38.59l.14.007c1.076-6.401 1.775-12.815.751-19.288h.03c1.36-12.834 2.35-25.68 1.572-38.59l2.672.091v.097h.117c-.951 12.869-1.343 25.756-1.578 38.65h-.035c-.68 6.476-.81 12.97-.788 19.47l-.11-.007c-.936 12.788-1.325 25.596-1.56 38.409h-.032c-.612 5.822-.78 11.659-.79 17.5h-2.482"/><path fill="#ce942b" d="M488.16 231.405c.82 16.226 1.273 32.452.023 48.679h2.626c-.407-16.242-.278-32.483 0-48.725.19-.07.304-.156.304-.248 0-.24-.763-.433-1.703-.433-.942 0-1.704.193-1.704.433 0 .113.17.216.448.293"/><path fill="#a56110" d="M491.205 280.09c-.4-16.167-.27-32.336.024-48.501.193-.07.306-.156.306-.248 0-.192-.485-.354-1.16-.412.114.06.177.125.177.196 0 .093-.112.18-.306.25-.279 16.238-.41 32.476-.024 48.716h.996"/><path fill="#ce9e47" d="M490.996 192.252h-2.673c.837 12.892 1.307 25.784 0 38.676h2.673c-.422-12.892-.29-25.784 0-38.676"/><path fill="#a56110" d="M491.112 192.159h-.837c-.287 12.828-.418 25.656 0 38.486h-1.82c0 .064-.024.128-.024.19h2.674c-.425-12.891-.29-25.783 0-38.676"/><path fill="#ce9e47" d="M490.973 172.722h-2.674c.838 6.53 1.308 13.06 0 19.59h2.674c-.422-6.53-.29-13.06 0-19.59"/><path fill="#a56110" d="M491.09 172.675h-.837c-.286 6.498-.418 12.997 0 19.494h-1.821c0 .033 0 .065-.023.098h2.672c-.424-6.53-.29-13.061 0-19.591"/><path fill="#ce942b" d="M495.437 231.73c-.34 16.172-1.042 32.32-3.427 48.367h2.605c.758-16.108 2.04-32.184 3.473-48.25.198-.059.317-.137.324-.229.023-.239-.73-.478-1.67-.536-.94-.056-1.715.092-1.73.33 0 .112.153.226.425.32"/><path fill="#a56110" d="M494.995 280.09c.76-16.025 2.036-32.02 3.461-48.004.198-.059.316-.138.325-.229.023-.19-.46-.382-1.128-.48.109.065.167.135.162.205 0 .093-.125.173-.323.232-1.428 16.076-2.712 32.162-3.489 48.276h.993"/><path fill="#ce9e47" d="M501.063 192.81l-2.667-.16c-.086 12.914-.54 25.807-2.765 38.592l2.668.162c.499-12.89 1.554-25.747 2.765-38.595"/><path fill="#a56110" d="M501.18 192.74l-.837-.05c-1.203 12.783-2.25 25.575-2.747 38.403l-1.817-.111c0 .064-.023.127-.032.191l2.669.162c.498-12.89 1.553-25.747 2.765-38.595"/><path fill="#ce9e47" d="M502.435 173.326l-2.667-.162c.368 6.568.37 13.112-1.4 19.549l2.667.162c.044-6.542.644-13.05 1.4-19.549"/><path fill="#a56110" d="M502.551 173.28l-.836-.05c-.751 6.467-1.345 12.943-1.389 19.452l-1.818-.11c0 .032-.023.064-.026.096l2.67.161c.044-6.54.643-13.05 1.4-19.549"/><path fill="#ce942b" d="M480.72 223.012c-.343-16.31-1.054-32.6-3.49-48.781-.286-.061-.465-.153-.473-.267-.024-.24.73-.479 1.669-.536.939-.057 1.714.091 1.732.33 0 .092-.1.184-.289.266.753 16.317 2.05 32.601 3.503 48.874.197.058.315.136.321.229.023.238-.73.479-1.669.535-.938.058-1.714-.09-1.73-.33 0-.112.153-.225.426-.32"/><path fill="#a56110" d="M479.51 173.164c.6.032 1.024.157 1.037.334 0 .092-.1.185-.289.266.754 16.316 2.051 32.601 3.503 48.874.198.059.316.137.322.229.023.19-.458.382-1.127.48.107-.065.168-.135.163-.205 0-.092-.128-.173-.324-.232-1.467-16.5-2.781-33.012-3.55-49.555.133-.059.226-.124.266-.19"/><path fill="#ce9e47" d="M486.346 261.909l-2.666.162c-.086-12.915-.541-25.808-2.766-38.593l2.667-.162c.499 12.89 1.555 25.747 2.765 38.593"/><path fill="#a56110" d="M486.462 262.002l-.834.05c-1.203-12.783-2.251-25.575-2.747-38.402l-1.817.11c0-.064-.024-.127-.033-.19l2.669-.161c.498 12.89 1.552 25.744 2.763 38.592"/><path fill="#ce9e47" d="M485.137 280.09c.284-6.073.163-12.122-1.475-18.08l2.667-.161c.04 6.103.567 12.178 1.252 18.241h-2.444"/><path fill="#a56110" d="M486.834 280.09c-.672-6.001-1.188-12.012-1.228-18.052l-1.819.11c0-.032-.023-.063-.025-.095l2.667-.162c.042 6.09.565 12.15 1.247 18.2h-.842"/><path fill="#ce942b" d="M476.233 280.09c-.353-15.933-1.087-31.845-3.464-47.655-.286-.06-.468-.153-.475-.267-.023-.24.73-.48 1.67-.536.939-.056 1.715.091 1.73.33 0 .092-.1.184-.286.266.737 15.979 1.996 31.927 3.412 47.863h-2.587"/><path fill="#a56110" d="M475.047 231.382c.598.031 1.024.158 1.035.334 0 .092-.1.184-.286.267.74 16.06 2.008 32.087 3.432 48.109h-.988c-1.432-16.157-2.707-32.322-3.46-48.52.134-.06.227-.124.267-.19"/><path fill="#ce9e47" d="M475.907 231.382l-2.667.162c.368-6.567.37-13.112-1.4-19.549l2.667-.162c.044 6.543.644 13.05 1.4 19.549"/><path fill="#a56110" d="M476.023 231.428l-.835.051c-.75-6.466-1.346-12.942-1.388-19.45l-1.819.11c0-.033-.023-.066-.025-.098l2.667-.161c.044 6.542.644 13.05 1.4 19.549"/><path fill="#ce9e47" d="M474.582 211.363l-2.67.162c.37-6.567.37-13.111-1.4-19.548l2.668-.162c.044 6.542.646 13.05 1.402 19.548"/><path fill="#a56110" d="M474.698 211.41l-.837.051c-.75-6.467-1.345-12.942-1.388-19.452l-1.817.11c0-.032-.023-.064-.028-.095l2.669-.162c.042 6.542.644 13.05 1.4 19.548"/><path fill="#7d9021" d="M459.632 185.044c-3.039-.721-5.363-2.24-7.2-4.305 2.288-.24 4.574.126 6.854 1.372-1.458-1.32-1.828-2.956-1.705-4.737 1.563.906 3.041 1.952 3.935 3.99-.775-2.377-.404-4.395.756-6.167 1.607.938 2.82 2.205 3.164 4.199.174-2.278 1.344-4.11 3.513-5.497 1 1.844 1.45 3.769.693 5.866.528-.543 1.2-.695 2.02-.46.063.242.094.488.096.736.44-.698 1.007-1.378 1.68-2.043.306 1.459.479 2.885-.266 4.096.627-.97 1.795-1.56 3.207-1.975 0 1.432-.313 2.73-1.365 3.736 1.26-.95 2.64-1.05 4.052-.91-.737 1.367-1.981 2.376-3.731 3.028.64-.049 1.256-.04 1.847.02l.923-.05-.174.153c2.236.4 4.131 1.542 5.845 3.08l-4.023-.218 1.737 2.057c-2.07.698-4.046.948-5.815.214 1.27 1.605 2.028 3.155 1.656 4.585-.82.236-1.493.082-2.019-.46.755 2.098.305 4.022-.693 5.866-2.169-1.387-3.342-3.219-3.514-5.497-.345 1.994-1.558 3.261-3.164 4.199-.767-1.175-1.19-2.457-1.164-3.881a10.74 10.74 0 0 1-.53-.711c-.84 1.072-1.898 1.779-2.998 2.415-.123-1.78.247-3.417 1.705-4.737-.826.452-1.654.789-2.483 1.022-.599.382-1.26.729-1.975 1.043.028-.23.058-.458.093-.684-.83.085-1.66.078-2.49-.01a13.834 13.834 0 0 1 3.463-2.84 4.38 4.38 0 0 1 .455-.582c-2.238.87-4.244.121-6.29-.353 1.366-1.417 2.92-2.607 5.151-2.988-2.187.444-4.153-.173-6.019-1.272 1.276-.892 2.656-1.63 4.77-1.3zm11.083-2.13c-.07.105-.14.21-.214.315.062.09.128.18.188.271 0-.197 0-.392.026-.586"/><path fill="#a56110" d="M502.784 280.09c-2.59-25.802-4.333-51.659-5.834-77.529.3-.132.47-.28.458-.427-.024-.306-.819-.515-1.903-.54.186.083.296.182.304.294 0 .149-.158.3-.458.433 1.51 25.951 3.26 51.887 5.831 77.771h1.602"/><path fill="#ce942b" d="M503.69 202.342c1.412 25.91 2.24 51.825.364 77.744h4.177c-.744-25.943-.634-51.887-.283-77.832.31-.114.49-.25.49-.398 0-.384-1.228-.692-2.737-.687-1.51.007-2.733.32-2.731.705 0 .18.274.345.72.467"/><path fill="#a56110" d="M508.852 280.09c-.734-25.823-.625-51.65-.272-77.475.307-.114.489-.252.489-.4 0-.306-.783-.563-1.864-.653.182.094.284.2.284.312 0 .15-.179.289-.487.404-.348 25.94-.457 51.878.255 77.813h1.595"/><path fill="#ce9e47" d="M508.015 139.521l-4.29.014c1.425 20.677 2.257 41.357.242 62.045l4.289-.014c-.761-20.68-.627-41.362-.24-62.045"/><path fill="#a56110" d="M508.201 139.358l-1.343.007c-.38 20.58-.51 41.16.247 61.736l-2.922.012c0 .102-.023.205-.028.306l4.288-.014c-.76-20.679-.626-41.361-.241-62.042"/><path fill="#ce9e47" d="M507.852 108.18l-4.29.014c1.384 10.472 2.177 20.944.123 31.427l4.288-.014c-.72-10.473-.546-20.95-.12-31.427"/><path fill="#a56110" d="M508.015 108.11l-1.344.007c-.42 10.425-.587 20.85.128 31.271l-2.922.01c0 .052-.023.104-.028.156l4.289-.014c-.721-10.474-.546-20.95-.123-31.427"/><path fill="#61711d" d="M512.154 159.12a27.759 27.759 0 0 1 2.299-1.09c.079-.403.179-.809.3-1.217l-.1-.1c-.648 1.033-1.507 1.643-2.452 2.078 0 .11-.025.22-.048.33zm-3.266 40.507c-2.688-4.015-4.672-8.426-5.68-13.386-.525-.011-.976-.214-1.358-.608.809 2.249.327 4.309-.743 6.285-1.93-1.233-3.122-2.796-3.578-4.687-.202.075-.403.145-.607.207-.39.889-.981 1.61-1.71 2.219.438.625.788 1.327 1.08 2.083-2.054.071-3.877-.19-5.19-1.184 1.59 1.255 2.094 3.188 2.443 5.22-3.142-1.481-5.41-3.405-6.398-5.977-.5 2.323-1.977 4.456-4.118 6.456-.536-2.054-.905-4.092-.126-6.019-2.469 2.103-5.466 1.996-8.373 2.263 1.054-2.436 2.472-4.66 5.18-6.122-1.965 1.143-4.073 1.456-6.266 1.28-.226.295-.454.591-.673.89-.202-.344-.4-.692-.58-1.042-.324-.051-.647-.11-.973-.179.172-.247.352-.49.537-.726-.474-1.078-.807-2.196-.903-3.384a18.932 18.932 0 0 1-.503-.115c-.804 1.788-2.241 3.228-4.02 4.484-.618-1.818-1.004-3.683.135-5.858l-.07-.034c-2.409 3.049-5.531 4.992-9.148 6.167.738-2.857 2.33-5.424 5.17-7.57-2.555 1.126-5.049.8-7.512-.187 2.017-1.445 4.196-2.726 7.501-2.837-3.73-.189-6.413-1.585-8.378-3.809 2.084-1.484 4.45-2.34 7.435-1.815-3.144-1.28-5.189-3.546-6.132-6.798 1.267-.135 2.51-.153 3.716 0 1.793-3.285 4.744-5.86 9.298-7.454-4.727 1.211-8.433.306-11.99-.901 2.062-1.661 4.294-2.886 6.843-3.316a7.383 7.383 0 0 1-.023-1.759 22.3 22.3 0 0 1-.472-.275c-.923 1.25-2.111 2.051-3.35 2.768-.11-1.575.142-3.045 1.112-4.305-.11-.086-.216-.172-.322-.259-2.098.923-4.202 1.18-6.307.96 1.135-1.277 2.446-2.358 3.976-3.194a21.62 21.62 0 0 1-1.952-2.55c.345.008.688.023 1.029.043-.151-.099-.303-.201-.45-.305 2-1.177 4.106-1.838 6.448-1.363-2.388-.409-4.054-1.683-5.517-3.201.421-.098.841-.206 1.26-.31l2.585-.476c.933-.068 1.891.019 2.891.408-1.118-1.212-1.43-2.785-1.627-4.408 1.151.507 2.172 1.09 3.03 1.765a5.796 5.796 0 0 1 2.213-.293c.023-.034.025-.067.037-.1-2.927-.83-5.208-2.38-7.037-4.437 2.452-.257 4.9.135 7.343 1.47-1.562-1.414-1.959-3.167-1.826-5.075 1.674.97 3.256 2.092 4.214 4.275-.83-2.547-.43-4.709.812-6.606 1.72 1.003 3.017 2.362 3.388 4.497.186-2.44 1.44-4.402 3.764-5.889 1.07 1.977 1.552 4.037.744 6.285.563-.582 1.284-.746 2.162-.492.4 1.531-.414 3.192-1.775 4.91a6.364 6.364 0 0 1 2.236-.47 15.653 15.653 0 0 1-.076-3.192c1.028.596 2.039 1.223 2.998 1.937a18.212 18.212 0 0 1 2.503-.697l-1.32 1.65c.476.415.933.86 1.365 1.346l.418-.034c-.032.132-.067.265-.104.395a14.802 14.802 0 0 1 2.221 3.6c-1.023-3.137-1.073-5.97-.347-8.56l1.004-2.561c.266-.527.566-1.043.897-1.549 3.3 1.926 5.792 4.53 6.498 8.627.357-4.68 2.763-8.445 7.22-11.294 2.052 3.79 2.978 7.742 1.425 12.052.438-.45.923-.77 1.458-.96a7.742 7.742 0 0 1 .993-2.149c1.721 1.004 3.02 2.363 3.389 4.498.186-2.44 1.44-4.403 3.764-5.889 1.07 1.976 1.553 4.037.743 6.285.565-.58 1.286-.746 2.163-.493.399 1.533-.413 3.193-1.775 4.911.834-.345 1.71-.486 2.618-.474 1.455-.955 3.17-1.558 5.043-1.948l-1.982 2.476c.184.055.367.114.552.176l-.415.491 2.308-.181c-.15.604-.33 1.18-.553 1.72l1.109-.06c-.59.528-1.2 1.013-1.834 1.443a5.84 5.84 0 0 1-1.904 1.829c2.31-.115 4.265.163 5.446 1.304-.247.816-.79 1.282-1.626 1.401 2.49.598 4.105 2.092 5.325 3.994-2.62.984-5.093.885-7.42-.3.451.373.821.766 1.12 1.175.177-.007.353-.014.53-.019-.089.136-.18.27-.271.403.664 1.079.893 2.262.88 3.505-1.122-.036-2.196-.243-3.213-.659a20.526 20.526 0 0 1-1.712 1.564c.062.57.072 1.137.062 1.703-.458-.237-.89-.495-1.286-.78a23.119 23.119 0 0 1-4.46 2.424c-.084.107-.17.214-.256.32 3.816-.27 6.95 1.185 9.764 3.451-2.982 1.012-6.067 1.812-9.77 1.33l-.281.352c.535.246 1.045.51 1.528.788l.718-.056a20.62 20.62 0 0 1-.11.422c2.823 1.782 4.713 4.135 5.9 6.918a18.167 18.167 0 0 1-3.578.84c1.633.758 2.81 1.982 3.753 3.45-2.62.985-5.093.885-7.42-.3 1.302 1.079 1.929 2.319 2.156 3.656a98.46 98.46 0 0 1 3.446 3.473 61.74 61.74 0 0 1-3.653-2.08 9.815 9.815 0 0 1-.83-.084c.093.86.116 1.752.068 2.677a24.947 24.947 0 0 1-3.802-.975c.023.336.023.671 0 1.005-1.128-.583-2.09-1.293-2.763-2.223-.343-.19-.681-.393-1.01-.608-.06.355-.136.699-.23 1.034a95.941 95.941 0 0 1 7.096 10.885c-2.973-2.602-5.669-5.468-8.025-8.662a10.93 10.93 0 0 1-1.358 1.87c-.562-1.617-.834-3.266-.74-4.95a45.05 45.05 0 0 1-.818-1.353c-.266.418-.646.8-1.143 1.147 1.965 4.241 3.568 8.685 4.691 13.399zm-2.48-15.87c.054.063.106.126.157.189 0-.037.023-.076.03-.114l-.133-.15c-.023.024-.032.05-.053.075zm-9.057 2.376v-.104c0 .03-.024.059-.024.088zm-4.568 1.416v-.032a4.966 4.966 0 0 1-.198-.063c.07.03.138.063.205.096zm22.088-23.382c-.111.042-.225.086-.341.128.123-.017.247-.03.37-.042 0-.029-.023-.057-.028-.086zm.1-8.038v.026c0-.023.023-.045.023-.067 0 .014-.023.027-.023.04zm-30.378-15.402c0-.012-.024-.023-.033-.034a9.342 9.342 0 0 0-.065.039c.033 0 .065 0 .1-.007zm-8.693 42.896c-.023.048-.032.095-.049.143.288-.079.594-.146.918-.2-.292.025-.581.044-.868.057zm-7.222-16.929c.341-.331.704-.652 1.085-.964-.474.238-.947.443-1.416.619.111.112.22.226.331.345"/><path fill="#859b2a" d="M489.88 161.701c-3.923-.932-6.925-2.893-9.296-5.559 2.954-.308 5.905.163 8.85 1.773-1.882-1.705-2.36-3.818-2.201-6.116 2.016 1.17 3.926 2.52 5.079 5.151-1.003-3.069-.52-5.674.976-7.961 2.074 1.21 3.64 2.846 4.083 5.421.226-2.941 1.736-5.307 4.537-7.097 1.29 2.38 1.871 4.864.895 7.573.68-.7 1.55-.9 2.609-.594.081.312.12.629.12.95.57-.901 1.3-1.78 2.17-2.637.394 1.881.619 3.723-.343 5.288.807-1.254 2.315-2.014 4.14-2.55.023 1.848-.404 3.523-1.763 4.823 1.627-1.225 3.408-1.353 5.232-1.174-.951 1.764-2.558 3.066-4.815 3.909.827-.063 1.62-.052 2.382.023l1.191-.065c-.072.068-.148.133-.223.199 2.886.516 5.333 1.99 7.547 3.977l-5.195-.282 2.243 2.655c-2.672.9-5.225 1.224-7.507.277 1.64 2.071 2.618 4.072 2.139 5.918-1.06.305-1.928.107-2.607-.593.975 2.708.394 5.192-.895 7.573-2.803-1.79-4.315-4.156-4.539-7.097-.444 2.574-2.008 4.21-4.084 5.421-.991-1.517-1.536-3.172-1.5-5.01-.247-.304-.475-.61-.685-.919-1.086 1.385-2.45 2.297-3.868 3.119-.16-2.3.317-4.412 2.2-6.117a15.324 15.324 0 0 1-3.208 1.32c-.772.494-1.625.94-2.548 1.347.035-.296.074-.591.12-.883-1.07.11-2.141.101-3.213-.011 1.288-1.448 2.762-2.688 4.47-3.668.172-.261.365-.511.586-.75-2.888 1.122-5.478.157-8.118-.456 1.761-1.829 3.768-3.365 6.65-3.857-2.825.572-5.364-.224-7.773-1.642 1.646-1.152 3.429-2.105 6.16-1.68zm14.308-2.75c-.089.135-.182.271-.278.406.084.115.166.232.242.35 0-.255 0-.506.035-.756"/><path fill="#7d9021" d="M472.164 211.503c-8.166-2.79-10.384 1.976-11.337 8.029 2.578-5.39 3.766-8.332 11.337-8.029"/><path fill="#61711d" d="M550.005 196.018a27.5 27.5 0 0 1 2.299-1.091c.077-.403.177-.809.298-1.217a2.895 2.895 0 0 0-.1-.1c-.646 1.034-1.504 1.643-2.45 2.078 0 .11-.027.22-.048.33zm-3.268 40.507c-2.688-4.015-4.672-8.427-5.677-13.387a1.891 1.891 0 0 1-1.36-.607c.809 2.247.326 4.308-.744 6.284-1.928-1.233-3.12-2.796-3.577-4.687-.2.074-.402.144-.607.207-.391.89-.982 1.611-1.71 2.218a9.68 9.68 0 0 1 1.078 2.084c-2.054.07-3.874-.19-5.188-1.184 1.59 1.255 2.094 3.189 2.443 5.22-3.143-1.48-5.41-3.405-6.397-5.976-.502 2.323-1.977 4.454-4.12 6.455-.534-2.054-.905-4.092-.126-6.018-2.469 2.101-5.466 1.995-8.373 2.262 1.053-2.436 2.472-4.66 5.182-6.122-1.966 1.143-4.074 1.456-6.267 1.279-.228.296-.453.592-.673.891a21.512 21.512 0 0 1-.582-1.042c-.321-.051-.647-.111-.972-.18.172-.245.351-.489.537-.726-.474-1.077-.808-2.195-.902-3.383-.17-.036-.338-.074-.505-.115-.802 1.787-2.24 3.228-4.017 4.484-.619-1.818-1.007-3.683.132-5.859l-.067-.032c-2.41 3.048-5.532 4.99-9.149 6.165.738-2.856 2.33-5.424 5.17-7.57-2.557 1.127-5.048.8-7.513-.186 2.018-1.446 4.194-2.726 7.503-2.838-3.733-.188-6.415-1.584-8.38-3.808 2.084-1.484 4.45-2.34 7.436-1.815-3.145-1.28-5.189-3.545-6.132-6.798 1.267-.135 2.508-.153 3.715.007 1.794-3.286 4.745-5.862 9.298-7.456-4.728 1.212-8.433.308-11.99-.9 2.061-1.661 4.296-2.887 6.845-3.316a7.27 7.27 0 0 1-.024-1.759c-.16-.09-.319-.182-.474-.276-.922 1.251-2.11 2.052-3.348 2.769-.111-1.574.142-3.044 1.112-4.305-.11-.086-.217-.172-.323-.26-2.1.924-4.2 1.181-6.308.961 1.136-1.277 2.447-2.359 3.978-3.193a21.47 21.47 0 0 1-1.951-2.552c.343.01.686.024 1.028.044-.153-.1-.302-.2-.452-.305 2-1.178 4.107-1.838 6.449-1.363-2.39-.409-4.055-1.683-5.517-3.2.421-.098.84-.207 1.262-.312l2.583-.475c.934-.067 1.891.018 2.892.407-1.117-1.212-1.43-2.783-1.629-4.407 1.152.506 2.174 1.09 3.031 1.766a5.801 5.801 0 0 1 2.214-.295c.023-.032.026-.066.037-.1-2.926-.83-5.21-2.38-7.039-4.436 2.453-.256 4.902.134 7.344 1.47-1.562-1.414-1.958-3.167-1.825-5.075 1.672.97 3.257 2.091 4.213 4.275-.832-2.546-.43-4.708.81-6.607 1.721 1.004 3.02 2.362 3.389 4.499.186-2.441 1.442-4.404 3.764-5.89 1.07 1.977 1.553 4.037.744 6.284.564-.581 1.285-.745 2.164-.492.397 1.532-.415 3.193-1.775 4.912a6.353 6.353 0 0 1 2.235-.471 15.82 15.82 0 0 1-.077-3.192c1.03.597 2.041 1.223 3 1.936.794-.288 1.63-.514 2.502-.695l-1.32 1.648c.476.415.932.861 1.366 1.346l.416-.034a17 17 0 0 1-.102.396 14.798 14.798 0 0 1 2.22 3.601c-1.024-3.138-1.073-5.97-.346-8.56l1.003-2.563c.266-.526.568-1.042.897-1.548 3.302 1.926 7.784 5.442 8.492 9.538 1.447-4.295 2.264-8.829 5.227-12.205 2.052 3.79 1.724 8.54.172 12.849.438-.45 2.176-1.567 2.713-1.757a7.67 7.67 0 0 1 .991-2.149c1.723 1.005 3.02 2.363 3.389 4.5.186-2.441 1.442-4.404 3.764-5.89 1.07 1.976 1.554 4.036.743 6.284.565-.581 1.287-.746 2.165-.493.397 1.533-.413 3.193-1.775 4.912.833-.346 1.708-.488 2.616-.474 1.455-.957 3.17-1.56 5.044-1.948l-1.982 2.476c.184.054.368.113.552.174l-.415.492 2.307-.18c-.149.603-.33 1.18-.553 1.718l1.11-.06c-.59.53-1.2 1.014-1.836 1.444a5.833 5.833 0 0 1-1.901 1.83c2.308-.116 4.263.162 5.444 1.303-.247.815-.789 1.282-1.627 1.4 2.49.599 4.108 2.093 5.327 3.994-2.62.985-5.093.885-7.42-.299.45.373.82.765 1.12 1.175.176-.007.352-.014.528-.018-.089.136-.177.27-.27.403.666 1.078.895 2.262.88 3.504-1.121-.034-2.196-.242-3.212-.658a20.684 20.684 0 0 1-1.712 1.564c.06.57.07 1.137.063 1.703-.458-.238-.89-.495-1.285-.78a23.27 23.27 0 0 1-4.461 2.424 9.212 9.212 0 0 1-.257.32c3.816-.27 6.951 1.184 9.766 3.451-2.983 1.012-6.068 1.812-9.772 1.33l-.28.352c.534.246 1.044.51 1.528.787l.719-.056a11.92 11.92 0 0 1-.112.423c2.824 1.781 4.713 4.134 5.903 6.918-1.185.398-2.376.69-3.581.84 1.634.757 2.813 1.982 3.754 3.45-2.62.985-5.093.885-7.42-.3 1.302 1.078 1.93 2.319 2.156 3.656a98.326 98.326 0 0 1 3.445 3.473 62.75 62.75 0 0 1-3.652-2.08 9.72 9.72 0 0 1-.828-.084c.09.86.113 1.752.065 2.677a24.98 24.98 0 0 1-3.8-.975c.023.336.023.67 0 1.005-1.13-.584-2.093-1.292-2.764-2.222a16.04 16.04 0 0 1-1.011-.609c-.058.354-.137.699-.228 1.034a95.682 95.682 0 0 1 7.095 10.884c-2.973-2.6-5.67-5.467-8.024-8.66-.38.665-.836 1.287-1.358 1.87-.561-1.618-.835-3.266-.74-4.952a54.48 54.48 0 0 1-.82-1.352c-.264.417-.645.8-1.14 1.147 1.962 4.242 3.568 8.685 4.69 13.4zm-2.477-15.87l.154.188c0-.037.023-.075.032-.113-.044-.051-.09-.101-.132-.152-.024.026-.035.051-.054.076zm-9.06 2.375v-.103c0 .03 0 .059-.024.087zm-4.568 1.417v-.034c-.065-.018-.13-.04-.197-.062.07.032.137.062.204.096zm22.09-23.382l-.343.128c.126-.017.248-.03.37-.042 0-.03-.023-.057-.028-.086zm.1-8.038v.027c0-.024.023-.045.023-.068 0 .014-.023.027-.023.042zm-30.378-15.401c0-.012-.024-.024-.033-.035a9.342 9.342 0 0 0-.065.04c.033 0 .065 0 .098-.007zm-8.693 42.896c-.023.048-.033.095-.049.142.29-.08.595-.146.918-.2a21.05 21.05 0 0 1-.868.058zm-7.222-16.93c.341-.331.704-.652 1.086-.964-.475.237-.948.443-1.417.619.112.111.223.226.331.345"/><path fill="#ce942b" d="M515.874 228.661c-1.091 17.212-2.695 34.392-6.693 51.425h3.714c1.68-17.115 4.106-34.182 6.747-51.239.281-.057.454-.139.467-.236.033-.254-1.022-.526-2.355-.61-1.334-.083-2.443.056-2.475.31-.023.12.21.244.595.35"/><path fill="#a56110" d="M513.432 280.09c1.681-17.023 4.093-34.003 6.72-50.968.283-.057.454-.139.467-.236.028-.202-.64-.417-1.584-.538.15.072.232.148.22.222-.023.099-.183.181-.468.24-2.635 17.07-5.064 34.151-6.772 51.28h1.417"/><path fill="#ce9e47" d="M525.337 187.393l-3.79-.236c-.607 13.745-1.736 27.459-5.38 41.013l3.79.235c1.191-13.708 3.175-27.368 5.38-41.013"/><path fill="#a56110" d="M525.522 187.3l-1.187-.073c-2.19 13.577-4.16 27.17-5.345 40.808l-2.583-.16c-.023.067-.035.135-.054.201l3.789.236c1.192-13.709 3.175-27.367 5.38-41.013"/><path fill="#ce9e47" d="M528.01 166.677l-3.788-.235c.279 6.998.035 13.964-2.725 20.774l3.789.235c.309-6.963 1.406-13.875 2.724-20.774"/><path fill="#a56110" d="M528.173 166.63l-1.188-.073c-1.31 6.865-2.397 13.744-2.705 20.672l-2.581-.161c-.023.034-.028.067-.04.102l3.79.235c.307-6.962 1.404-13.875 2.725-20.774"/><path fill="#9ba22e" d="M518.245 202.645c.433 25.803.123 51.608-3.652 77.436h5.373c.444-25.842 1.98-51.692 3.83-77.543.409-.115.651-.254.659-.402.023-.386-1.562-.687-3.53-.675-1.966.012-3.575.334-3.594.72 0 .181.338.345.914.465"/><path fill="#877f1b" d="M520.78 280.09c.453-25.726 1.983-51.456 3.825-77.192.406-.116.65-.255.657-.402.023-.306-.987-.562-2.39-.646.23.093.36.199.352.31 0 .151-.251.292-.658.41-1.84 25.842-3.377 51.684-3.862 77.52h2.075"/><path fill="#9ba740" d="M527.266 139.637l-5.589.035c.738 20.724.705 41.455-3.038 62.208l5.588-.035c.128-20.73 1.42-41.466 3.04-62.208"/><path fill="#877f1b" d="M527.499 139.475l-1.75.011c-1.607 20.637-2.888 41.271-3.014 61.9l-3.808.024c-.024.103-.035.206-.054.31l5.59-.036c.127-20.73 1.419-41.469 3.036-62.208"/><path fill="#9ba740" d="M528.731 108.226l-5.59.035c1.238 10.492 1.706 20.99-1.539 31.51l5.588-.035c-.372-10.498.421-21.002 1.541-31.508"/><path fill="#877f1b" d="M528.987 108.133l-1.75.012c-1.111 10.455-1.894 20.908-1.525 31.353l-3.805.023c-.023.053-.033.105-.049.158l5.589-.035c-.373-10.498.42-21.003 1.54-31.51"/><path fill="#61711d" d="M546.122 119.27a30.077 30.077 0 0 1 2.434-1.089c.081-.404.186-.808.315-1.216l-.104-.099c-.684 1.032-1.592 1.64-2.594 2.074 0 .111-.028.221-.049.33zm25.766-11.294a8.445 8.445 0 0 0 4.929 1.71 7.105 7.105 0 0 0-3.395-2.717c1.213.166 2.141-.311 2.94-1.081-.577-.209-1.162-.388-1.79-.446l-.454-.537a4.035 4.035 0 0 0 1.128-1.407l1.932.104c-1.174-1.053-2.425-1.934-3.798-2.55.155-.596.188-1.252.095-1.968-.951.194-1.8.55-2.46 1.213l-.17-.032c.065-.055.125-.11.188-.167l-.972.053a1.707 1.707 0 0 0-.247-.199 2.797 2.797 0 0 0-.141.076 8.884 8.884 0 0 0-.107-.344c.023-.103.044-.208.062-.315.314-.19.606-.396.875-.617.567.21 1.163.345 1.746.515-.153-.584-.347-1.15-.637-1.682.142-.194.273-.396.392-.606.636.192 1.31.256 2.01.24-.42-.87-.945-1.69-2.193-2.155 1.869.532 3.59.414 5.215-.148a7.104 7.104 0 0 0-4.136-1.337c1.191-.273 1.89-1.05 2.364-2.053-1.123.016-2.243.135-3.346.97 1.142-1.055 1.552-2.263 1.462-3.576-1.156.02-2.2.34-2.99 1.318.597-1.29.518-2.64-.238-4.05-.76.479-1.387 1.059-1.782 1.82-.552.018-1.104.061-1.655.15a8.233 8.233 0 0 0-.243-1.11c-.383.438-.732.886-.93 1.376-.13.04-.258.082-.387.128a3.75 3.75 0 0 0-.504-.78c.796-1.34 1.082-2.788.976-4.319-2.015.037-3.832.593-5.213 2.296 1.041-2.246.905-4.597-.412-7.056-1.92 1.215-3.366 2.794-3.762 5.177-.209-.792-.763-1.293-1.664-1.503a3.212 3.212 0 0 0-.479.646c-.047-.894-.223-1.837-.507-2.822-1.061 1.217-1.979 2.474-1.916 4.013-.08-1.25-.87-2.424-1.987-3.564-.768 1.348-1.148 2.745-.688 4.254-.687-1.563-1.94-2.388-3.349-3.006-.026 1.683.617 3.296 1.924 4.838a11.358 11.358 0 0 0-1.754-.96l-.846-.535c.028.08.054.158.084.237-2.017-.698-4.087-.734-6.19-.373-.08-.147-.163-.293-.246-.439-4.716 2.847-4.301 13.783-4.679 18.457.53-6.436-5.765-14.935-9.84-15.793 1.635 10.302 5.837 9.701 7.926 16.64-.444-3.093-10.62-9.79-11.922-7.583.037-.13.075-.26.11-.394l-.443.032a16.21 16.21 0 0 0-1.442-1.344l1.395-1.646c-.923.18-1.809.407-2.649.694-1.015-.712-2.085-1.337-3.173-1.933a14.822 14.822 0 0 0 .081 3.188 7.094 7.094 0 0 0-2.366.47c1.442-1.717 2.3-3.375 1.879-4.905-.93-.253-1.693-.089-2.29.492.856-2.244.345-4.302-.786-6.276-2.46 1.484-3.788 3.445-3.985 5.881-.39-2.133-1.765-3.489-3.585-4.492-1.316 1.896-1.739 4.054-.86 6.598-1.012-2.18-2.688-3.3-4.46-4.269-.141 1.905.28 3.656 1.933 5.068-2.586-1.334-5.176-1.725-7.773-1.469 1.937 2.054 4.353 3.603 7.45 4.431-.023.034-.027.066-.041.1a6.51 6.51 0 0 0-2.342.293c-.908-.674-1.99-1.256-3.208-1.763.209 1.622.54 3.191 1.723 4.402-1.06-.388-2.071-.475-3.061-.408l-2.733.475c-.446.104-.89.213-1.336.311 1.55 1.515 3.31 2.788 5.84 3.197-2.48-.475-4.71.185-6.825 1.36.156.104.316.206.477.305a45.682 45.682 0 0 0-1.088-.044c.62.895 1.305 1.745 2.065 2.547a15.553 15.553 0 0 0-4.21 3.19c2.23.22 4.455-.038 6.675-.959l.343.259c-1.027 1.259-1.292 2.726-1.177 4.3 1.31-.717 2.568-1.517 3.544-2.766.165.093.332.185.5.275a6.7 6.7 0 0 0 .024 1.756c-2.698.43-5.062 1.654-7.245 3.312 3.767 1.206 7.689 2.11 12.691.9-4.818 1.59-7.942 4.163-9.84 7.444-1.278-.157-2.592-.138-3.933 0 1 3.248 3.162 5.51 6.49 6.789-3.16-.525-5.664.33-7.87 1.813 2.08 2.22 4.92 3.614 8.869 3.802-3.5.112-5.806 1.39-7.94 2.834 2.607.985 5.245 1.31 7.95.186-3.004 2.143-4.69 4.707-5.471 7.56 3.829-1.174 7.133-3.113 9.683-6.157l.072.032c-1.205 2.173-.795 4.035-.141 5.851 1.88-1.254 3.402-2.693 4.253-4.477.179.04.355.078.533.114.102 1.186.453 2.303.956 3.379-.198.237-.386.48-.569.726a21.9 21.9 0 0 0 1.03.178c.194.35.398.697.614 1.04.233-.298.473-.593.711-.89 2.323.178 4.555-.135 6.634-1.277-2.869 1.461-4.368 3.682-5.483 6.115 3.077-.267 6.25-.161 8.862-2.26-.826 1.924-.434 3.959.132 6.01 2.267-1.998 3.829-4.127 4.36-6.446 1.045 2.566 3.445 4.488 6.771 5.967-.37-2.027-.904-3.959-2.586-5.212 1.39.992 3.318 1.253 5.492 1.182a9.499 9.499 0 0 0-1.142-2.081c.77-.606 1.396-1.326 1.81-2.215.216-.063.43-.132.642-.207.482 1.889 1.745 3.449 3.786 4.68 1.132-1.972 1.643-4.03.787-6.275.403.393.884.595 1.44.607 1.064 4.953 3.164 9.358 6.009 13.367-1.188-4.707-2.886-9.144-4.963-13.38.523-.346.926-.728 1.207-1.145.282.456.57.906.867 1.35-.1 1.684.19 3.329.783 4.945a10.999 10.999 0 0 0 1.437-1.869c2.493 3.191 5.346 6.054 8.493 8.651a94.95 94.95 0 0 0-7.51-10.87c.1-.335.18-.68.244-1.033.348.216.704.418 1.07.608.71.929 1.729 1.637 2.924 2.22 0-.334 0-.669-.023-1.003 1.28.42 2.627.736 4.022.972.051-.922.028-1.814-.07-2.673.29.04.582.067.878.085a66.552 66.552 0 0 0 3.865 2.076 100.128 100.128 0 0 0-3.647-3.467c-.24-1.337-.904-2.575-2.281-3.652 2.464 1.184 5.081 1.284 7.853.3-.997-1.466-2.243-2.69-3.974-3.446a20.262 20.262 0 0 0 3.789-.838c-1.256-2.781-3.256-5.13-6.244-6.91.042-.139.081-.279.118-.422l-.76.057a20.78 20.78 0 0 0-1.619-.787l.298-.35c3.92.48 7.185-.318 10.34-1.33-2.977-2.263-6.295-3.716-10.335-3.447a9.74 9.74 0 0 0 .27-.319 25.054 25.054 0 0 0 4.723-2.42c.419.284.875.542 1.36.778 0-.564 0-1.13-.067-1.7a21.018 21.018 0 0 0 1.813-1.562c1.077.416 2.213.623 3.4.658.023-1.24-.228-2.423-.93-3.5.094-.133.19-.266.284-.402l-.559.019a6.735 6.735 0 0 0-1.185-1.174c2.215 1.064 4.556 1.252 7.021.563.48.484 1.045.934 1.689 1.346 1.017-1.878 1.509-3.831.885-5.945 0-.101 0-.201-.023-.301.337.304.725.47 1.167.5.47.422 1.004.773 1.51 1.154.13-1.217.076-2.433-.634-3.648.66 1.22 1.743 1.91 3.011 2.359-.086-.963-.285-1.916-1.288-2.793zm-8.166-18.946c0 .068 0 .136.024.205l-.133.082-.063-.09c.063-.066.124-.131.182-.197zm7.362 7.766a5.051 5.051 0 0 0-.723-.715c.369.317.761.555 1.175.73-.151-.01-.301-.012-.452-.015zm-31.757-10.81l2.488 1.222-1.697.637a17.883 17.883 0 0 0-.791-1.858zm1.343 3.776c1.153.944 2.401 1.587 3.798 1.751-1.677.691-3.012 1.53-3.664 2.66a11.95 11.95 0 0 0-.135-4.41zm-.052 5.345c.34.305.698.491 1.073.559l-.024.067a4.029 4.029 0 0 0-1.542.958c.204-.534.366-1.061.49-1.583zm12.943-8.827c0 .135.024.272.035.41a6.21 6.21 0 0 0-.32.157c.104-.184.2-.374.285-.567zm10.189 26.042a7.499 7.499 0 0 1-.303-1.627 6.144 6.144 0 0 1-.343 1.234c.225.122.44.254.646.393zm-23.708 31.553c.056.062.11.125.163.188 0-.039.023-.076.035-.114-.047-.05-.096-.1-.142-.152-.024.027-.038.052-.056.078zm-9.59 2.372v-.105c0 .03 0 .06-.022.089zm-4.834 1.414v-.034c-.07-.018-.14-.04-.21-.062.072.032.144.063.214.096zm23.38-23.35c-.121.044-.24.086-.362.128.133-.016.26-.03.39-.042 0-.028-.023-.057-.027-.086zm.104-8.026v.026c0-.023.024-.045.026-.067 0 .014-.023.027-.023.041zm-32.152-15.38c-.023-.012-.023-.024-.033-.035l-.07.04c.036 0 .07 0 .105-.008zm-9.199 42.835c-.023.048-.035.095-.053.143.306-.079.627-.146.97-.2-.307.025-.615.044-.918.057zm-7.642-16.906c.36-.33.743-.651 1.146-.962-.501.236-1.001.441-1.497.618.116.11.233.226.35.344"/><path fill="#9ba22e" d="M546.82 207.132c2.822 24.203 5.15 48.455 5.199 72.945h3.605c-2.243-24.408-3.757-48.895-5.06-73.4.265-.136.416-.283.406-.423-.026-.368-1.125-.554-2.455-.416-1.329.136-2.386.545-2.36.91 0 .174.262.306.665.384"/><path fill="#877f1b" d="M556.166 280.09c-2.229-24.314-3.734-48.706-5.034-73.116.264-.135.417-.283.406-.423-.024-.292-.723-.47-1.681-.461.165.073.261.165.27.272 0 .142-.142.291-.406.429 1.307 24.47 2.818 48.92 5.027 73.3h1.418"/><path fill="#9ba740" d="M546.657 146.822l-3.778.39c2.554 19.599 4.583 39.253 4.107 59.164l3.778-.388c-1.969-19.66-3.147-39.402-4.107-59.166"/><path fill="#877f1b" d="M546.82 146.659l-1.185.122c.958 19.666 2.136 39.309 4.093 58.871l-2.574.265v.296l3.779-.388c-1.969-19.66-3.148-39.402-4.107-59.167"/><path fill="#9ba740" d="M544.541 116.945l-3.778.39c1.876 9.868 3.233 19.79 2.08 29.97l3.779-.39c-1.293-9.928-1.797-19.937-2.081-29.969"/><path fill="#877f1b" d="M544.704 116.875l-1.183.121c.284 9.983.791 19.941 2.075 29.82l-2.573.266c0 .05 0 .1-.023.15l3.779-.388c-1.293-9.928-1.797-19.936-2.081-29.967"/><path fill="#7d9021" d="M534.869 115.736c-3.039-.722-5.365-2.241-7.202-4.306 2.289-.24 4.575.126 6.854 1.373-1.457-1.32-1.827-2.957-1.702-4.738 1.562.905 3.038 1.952 3.933 3.99-.776-2.377-.402-4.395.756-6.167 1.607.938 2.819 2.206 3.163 4.2.172-2.278 1.345-4.111 3.513-5.497 1 1.843 1.45 3.768.696 5.866.526-.543 1.198-.697 2.018-.46.063.242.093.487.096.735.44-.698 1.008-1.378 1.68-2.043.306 1.459.48 2.885-.266 4.095.627-.97 1.794-1.559 3.207-1.974 0 1.432-.312 2.73-1.364 3.736 1.259-.95 2.638-1.049 4.052-.91-.738 1.366-1.981 2.376-3.73 3.028a10.38 10.38 0 0 1 1.845.019l.922-.05c-.058.052-.113.103-.174.154 2.236.399 4.132 1.542 5.846 3.08l-4.023-.218 1.736 2.057c-2.07.698-4.046.948-5.814.215 1.27 1.604 2.027 3.153 1.655 4.584-.82.236-1.492.083-2.018-.46.756 2.098.304 4.022-.694 5.866-2.168-1.386-3.341-3.219-3.515-5.497-.344 1.994-1.556 3.262-3.161 4.2-.77-1.176-1.192-2.459-1.165-3.883a11.17 11.17 0 0 1-.531-.71c-.84 1.071-1.898 1.778-2.995 2.415-.126-1.781.245-3.417 1.703-4.737a11.85 11.85 0 0 1-2.483 1.021 14.6 14.6 0 0 1-1.975 1.044c.027-.23.058-.458.093-.684-.829.086-1.66.077-2.49-.01a13.852 13.852 0 0 1 3.462-2.84c.135-.202.283-.396.455-.58-2.236.868-4.244.12-6.29-.354 1.367-1.417 2.92-2.606 5.151-2.989-2.187.444-4.153-.172-6.018-1.272 1.274-.891 2.655-1.63 4.771-1.3zm11.081-2.13a8.49 8.49 0 0 1-.214.314c.065.089.126.18.189.271 0-.196 0-.392.025-.586"/></g></svg>