<?xml version="1.0" encoding="UTF-8" standalone="no"?>
<svg
   xmlns:dc="http://purl.org/dc/elements/1.1/"
   xmlns:cc="http://creativecommons.org/ns#"
   xmlns:rdf="http://www.w3.org/1999/02/22-rdf-syntax-ns#"
   xmlns:svg="http://www.w3.org/2000/svg"
   xmlns="http://www.w3.org/2000/svg"
   xmlns:sodipodi="http://sodipodi.sourceforge.net/DTD/sodipodi-0.dtd"
   xmlns:inkscape="http://www.inkscape.org/namespaces/inkscape"
   enable-background="new 0 0 85 85"
   height="256"
   id="Layer_1"
   version="1.1"
   viewBox="0 0 256 256"
   width="256"
   xml:space="preserve"
   sodipodi:docname="info.svg"
   inkscape:version="0.92.4 (unknown)"><metadata
     id="metadata9"><rdf:RDF><cc:Work
         rdf:about=""><dc:format>image/svg+xml</dc:format><dc:type
           rdf:resource="http://purl.org/dc/dcmitype/StillImage" /><dc:title></dc:title></cc:Work></rdf:RDF></metadata><defs
     id="defs7" /><sodipodi:namedview
     pagecolor="#ffffff"
     bordercolor="#666666"
     borderopacity="1"
     objecttolerance="10"
     gridtolerance="10"
     guidetolerance="10"
     inkscape:pageopacity="0"
     inkscape:pageshadow="2"
     inkscape:window-width="1301"
     inkscape:window-height="744"
     id="namedview5"
     showgrid="false"
     inkscape:zoom="0.98163059"
     inkscape:cx="208.52026"
     inkscape:cy="55.121992"
     inkscape:window-x="65"
     inkscape:window-y="24"
     inkscape:window-maximized="1"
     inkscape:current-layer="Layer_1"
     fit-margin-top="0"
     fit-margin-left="0"
     fit-margin-right="0"
     fit-margin-bottom="0" /><path
     d="M 128,0 C 57.307859,0 0,57.30785 0,128 0,198.69214 57.307859,256 128,256 198.69214,256 256,198.69515 256,128 256,57.30484 198.69214,0 128,0 Z m -0.63849,199.58061 c 0,0 -5.9392,3.94842 -9.99906,3.93035 -0.36141,0.16565 -0.57525,0.26202 -0.57525,0.26202 l 0.009,-0.26202 c -0.85233,-0.0392 -1.71069,-0.15962 -2.57506,-0.37647 l -1.28302,-0.31624 c -7.08969,-1.75887 -10.84235,-8.78833 -9.07745,-15.87501 l 9.86955,-39.78842 4.4544,-17.9712 c 4.14419,-16.68518 -13.14033,3.54786 -16.68518,-4.13817 -2.340139,-5.08084 13.44452,-15.74249 24.97657,-23.78089 0,0 5.93317,-3.9424 9.99604,-3.927341 0.36443,-0.168659 0.57826,-0.262024 0.57826,-0.262024 l -0.0151,0.262024 c 0.85836,0.03915 1.71671,0.159623 2.58109,0.373458 l 1.28301,0.319248 c 7.08969,1.75887 11.40856,8.929885 9.64969,16.016565 l -9.86654,39.79143 -4.46343,17.9712 c -4.13817,16.68518 12.86023,-3.62616 16.40207,4.0689 2.34014,5.07482 -13.73064,15.66419 -25.25967,23.70259 z M 152.37722,75.212795 c -2.46362,9.923765 -12.50484,15.9744 -22.4256,13.510777 -9.92677,-2.463624 -15.97741,-12.501836 -13.51378,-22.428612 2.46362,-9.92678 12.50484,-15.9744 22.4256,-13.51078 9.92677,2.46062 15.97439,12.50184 13.51378,22.428615 z"
     id="path2"
     inkscape:connector-curvature="0"
     style="stroke-width:1" /></svg>